<svg width="38" height="14" viewBox="0 0 38 14" fill="none" xmlns="http://www.w3.org/2000/svg">
<rect width="38" height="14" rx="7" fill="#5DC273"/>
<path d="M9.14109 3.33H6.38109L5.39109 6.7C5.58109 6.57 5.77109 6.48 5.98109 6.4C6.25109 6.3 6.47109 6.26 6.76109 6.26C7.08109 6.26 7.52109 6.32 7.85109 6.63C8.06109 6.83 8.25109 7.16 8.25109 7.71C8.25109 8.28 8.02109 8.64 7.82109 8.84C7.65109 9 7.34109 9.21 6.80109 9.21C6.46109 9.21 6.15109 9.13 5.93109 8.98C5.62109 8.78 5.44109 8.45 5.42109 8.4L4.65109 9.04C4.96109 9.52 5.34109 9.75 5.44109 9.81C5.87109 10.06 6.33109 10.11 6.72109 10.11C7.40109 10.11 8.04109 9.95 8.57109 9.43C9.02109 8.98 9.25109 8.39 9.25109 7.66C9.25109 6.79 8.92109 6.26 8.60109 5.95C8.19109 5.55 7.62109 5.36 7.06109 5.36C6.96109 5.36 6.85109 5.37 6.75109 5.38L7.08109 4.27H9.14109V3.33ZM14.5231 9.06H12.0331L13.0731 7.83C13.4731 7.36 13.7831 6.99 14.0231 6.63C14.2931 6.23 14.5031 5.78 14.5031 5.23C14.5031 4.19 13.7731 3.22 12.3531 3.22C11.5131 3.22 11.0331 3.6 10.7931 3.87C10.5331 4.16 10.2631 4.68 10.2331 5.33H11.2131C11.2531 4.7 11.6431 4.12 12.3931 4.12C13.1331 4.12 13.5031 4.64 13.5031 5.2C13.5031 5.59 13.3431 5.88 13.1531 6.16C12.9331 6.48 12.5831 6.92 12.3531 7.2L10.0431 10H14.5231V9.06ZM15.4267 3.33L18.2667 10.43L20.0267 5.7L21.7667 10.43L24.7467 3.33H23.6467L21.8267 7.79L20.0867 3.01L18.2867 7.79L16.5267 3.33H15.4267ZM28.945 3.33H27.925V10H28.945V6.93H31.805V10H32.825V3.33H31.805V5.97H28.945V3.33Z" fill="white"/>
</svg>
