<svg width="20" height="20" viewBox="0 0 20 20" fill="none" xmlns="http://www.w3.org/2000/svg">
<mask id="mask0_1427_13016" style="mask-type:alpha" maskUnits="userSpaceOnUse" x="0" y="0" width="20" height="20">
<path d="M0 20L20 20L20 0L1.74846e-06 -1.74846e-06L0 20Z" fill="#C4C4C4"/>
</mask>
<g mask="url(#mask0_1427_13016)">
<path d="M4.69553 3.44115H15.3021C15.4689 3.44195 15.6286 3.50856 15.7466 3.62649C15.8645 3.74442 15.9311 3.90414 15.9319 4.07092L15.9319 14.6775C15.928 14.8014 15.889 14.9216 15.8196 15.0242C15.7502 15.1269 15.6531 15.2078 15.5397 15.2576C15.4254 15.3042 15.2999 15.316 15.179 15.2914C15.0581 15.2668 14.9472 15.207 14.8602 15.1195L12.6505 12.9098L11.3247 14.2356C11.2074 14.3528 11.0485 14.4186 10.8827 14.4186C10.717 14.4186 10.558 14.3528 10.4408 14.2356L5.13747 8.93228C5.02026 8.81507 4.95441 8.6561 4.95441 8.49034C4.95441 8.32458 5.02026 8.1656 5.13747 8.04839L6.4633 6.72257L4.25359 4.51286C4.16606 4.42588 4.10624 4.31494 4.08167 4.19403C4.05709 4.07311 4.06886 3.94762 4.11548 3.83338C4.16527 3.7199 4.24617 3.62285 4.34882 3.55344C4.45147 3.48403 4.57168 3.4451 4.69553 3.44115ZM1.60194 11.5839C1.48473 11.7011 1.41888 11.8601 1.41888 12.0259C1.41888 12.1916 1.48473 12.3506 1.60194 12.4678L6.90524 17.7711C7.02245 17.8883 7.18142 17.9542 7.34718 17.9542C7.51294 17.9542 7.67191 17.8883 7.78912 17.7711C7.90633 17.6539 7.97218 17.4949 7.97218 17.3292C7.97218 17.1634 7.90633 17.0044 7.78912 16.8872L2.48582 11.5839C2.36861 11.4667 2.20964 11.4009 2.04388 11.4009C1.87812 11.4009 1.71915 11.4667 1.60194 11.5839ZM3.3697 9.81616C3.25249 9.93337 3.18665 10.0923 3.18665 10.2581C3.18665 10.4239 3.25249 10.5828 3.3697 10.7L8.673 16.0033C8.79022 16.1206 8.94919 16.1864 9.11495 16.1864C9.28071 16.1864 9.43968 16.1206 9.55689 16.0033C9.6741 15.8861 9.73995 15.7272 9.73995 15.5614C9.73995 15.3956 9.6741 15.2367 9.55689 15.1195L4.25359 9.81616C4.13638 9.69895 3.97741 9.6331 3.81164 9.6331C3.64588 9.6331 3.48691 9.69895 3.3697 9.81616Z" fill="#00C802"/>
</g>
</svg>
