<svg width="20" height="20" viewBox="0 0 20 20" fill="none" xmlns="http://www.w3.org/2000/svg">
<mask id="mask0_1427_13012" style="mask-type:alpha" maskUnits="userSpaceOnUse" x="0" y="0" width="20" height="20">
<path d="M20 0H0V20H20V0Z" fill="#C4C4C4"/>
</mask>
<g mask="url(#mask0_1427_13012)">
<path d="M15.3045 16.5588H4.69793C4.53115 16.558 4.37143 16.4914 4.2535 16.3735C4.13557 16.2556 4.06896 16.0959 4.06816 15.9291L4.06816 5.32248C4.07211 5.19863 4.11104 5.07842 4.18045 4.97577C4.24986 4.87312 4.34692 4.79222 4.46039 4.74243C4.57463 4.69581 4.70012 4.68404 4.82104 4.70862C4.94196 4.73319 5.05289 4.79301 5.13987 4.88054L7.34958 7.09025L8.67541 5.76442C8.79262 5.64721 8.95159 5.58136 9.11735 5.58136C9.28311 5.58136 9.44208 5.64721 9.55929 5.76442L14.8626 11.0677C14.9798 11.1849 15.0456 11.3439 15.0456 11.5097C15.0456 11.6754 14.9798 11.8344 14.8626 11.9516L13.5368 13.2774L15.7465 15.4871C15.834 15.5741 15.8938 15.6851 15.9184 15.806C15.943 15.9269 15.9312 16.0524 15.8846 16.1666C15.8348 16.2801 15.7539 16.3772 15.6512 16.4466C15.5486 16.516 15.4284 16.5549 15.3045 16.5588ZM18.3981 8.41607C18.5153 8.29886 18.5812 8.13989 18.5812 7.97413C18.5812 7.80837 18.5153 7.6494 18.3981 7.53219L13.0948 2.22889C12.9776 2.11168 12.8186 2.04583 12.6529 2.04583C12.4871 2.04583 12.3282 2.11168 12.2109 2.22889C12.0937 2.3461 12.0279 2.50507 12.0279 2.67083C12.0279 2.83659 12.0937 2.99556 12.2109 3.11277L17.5142 8.41607C17.6315 8.53328 17.7904 8.59913 17.9562 8.59913C18.1219 8.59913 18.2809 8.53328 18.3981 8.41607ZM16.6304 10.1838C16.7476 10.0666 16.8134 9.90766 16.8134 9.7419C16.8134 9.57614 16.7476 9.41717 16.6304 9.29996L11.3271 3.99665C11.2098 3.87944 11.0509 3.8136 10.8851 3.8136C10.7194 3.8136 10.5604 3.87944 10.4432 3.99665C10.326 4.11386 10.2601 4.27284 10.2601 4.4386C10.2601 4.60436 10.326 4.76333 10.4432 4.88054L15.7465 10.1838C15.8637 10.301 16.0227 10.3669 16.1884 10.3669C16.3542 10.3669 16.5131 10.301 16.6304 10.1838Z" fill="#C25E54"/>
</g>
</svg>
