<svg width="38" height="14" viewBox="0 0 38 14" fill="none" xmlns="http://www.w3.org/2000/svg">
<rect width="38" height="14" rx="7" fill="#CE7E76"/>
<path d="M10.4253 3.33H7.66527L6.67527 6.7C6.86527 6.57 7.05527 6.48 7.26527 6.4C7.53527 6.3 7.75527 6.26 8.04527 6.26C8.36527 6.26 8.80527 6.32 9.13527 6.63C9.34527 6.83 9.53527 7.16 9.53527 7.71C9.53527 8.28 9.30527 8.64 9.10527 8.84C8.93527 9 8.62527 9.21 8.08527 9.21C7.74527 9.21 7.43527 9.13 7.21527 8.98C6.90527 8.78 6.72527 8.45 6.70527 8.4L5.93527 9.04C6.24527 9.52 6.62527 9.75 6.72527 9.81C7.15527 10.06 7.61527 10.11 8.00527 10.11C8.68527 10.11 9.32527 9.95 9.85527 9.43C10.3053 8.98 10.5353 8.39 10.5353 7.66C10.5353 6.79 10.2053 6.26 9.88527 5.95C9.47527 5.55 8.90527 5.36 8.34527 5.36C8.24527 5.36 8.13527 5.37 8.03527 5.38L8.36527 4.27H10.4253V3.33ZM15.8073 9.06H13.3173L14.3573 7.83C14.7573 7.36 15.0673 6.99 15.3073 6.63C15.5773 6.23 15.7873 5.78 15.7873 5.23C15.7873 4.19 15.0573 3.22 13.6373 3.22C12.7973 3.22 12.3173 3.6 12.0773 3.87C11.8173 4.16 11.5473 4.68 11.5173 5.33H12.4973C12.5373 4.7 12.9273 4.12 13.6773 4.12C14.4173 4.12 14.7873 4.64 14.7873 5.2C14.7873 5.59 14.6273 5.88 14.4373 6.16C14.2173 6.48 13.8673 6.92 13.6373 7.2L11.3273 10H15.8073V9.06ZM16.7109 3.33L19.5509 10.43L21.3109 5.7L23.0509 10.43L26.0309 3.33H24.9309L23.1109 7.79L21.3709 3.01L19.5709 7.79L17.8109 3.33H16.7109ZM29.2092 3.33V10H32.1892V9.04H30.2292V3.33H29.2092Z" fill="white"/>
</svg>
