<svg width="414" height="254.807" viewBox="0 0 414 261" fill="#D4FCDD" xmlns="http://www.w3.org/2000/svg">
<rect width="414" height="254.807" fill="#D4FCDD"/>
<path d="M114.18 126.502C114.083 128.322 111.709 130.748 112.441 132.415C113.793 135.488 113.009 139.168 111.26 142.054C109.51 144.94 106.891 147.157 104.318 149.3C104.448 144.819 104.057 140.339 103.153 135.948C102.869 134.575 102.403 133.045 101.148 132.421C99.5174 131.616 97.4496 132.778 95.7794 132.064C94.0013 131.293 93.6434 128.866 92.1437 127.641C90.786 126.536 88.792 126.655 87.1275 127.21C85.463 127.766 83.9349 128.701 82.2249 129.081C80.515 129.461 78.4528 129.121 77.5041 127.647C76.9361 126.74 77.3394 127.295 76.7827 126.371C76.7827 126.371 73.448 126.485 72.3005 122.612C72.3005 122.612 70.7326 118.309 74.2036 116.409C74.2036 116.409 74.9932 108.63 82.8271 112.128C85.0994 113.138 87.7467 109.895 89.9452 110.995C91.7744 111.919 92.3141 114.459 94.1433 115.389C96.2453 116.455 98.688 114.867 101.04 114.771C102.547 114.771 103.991 115.368 105.057 116.431C106.122 117.495 106.721 118.937 106.721 120.441C106.721 120.441 107.09 118.887 109.641 119.567C112.191 120.248 114.361 122.952 114.18 126.502Z" fill="#263238"/>
<path d="M110.857 139.02C110.906 138.14 110.742 137.261 110.38 136.458C110.05 135.794 108.817 134.286 107.465 134.19L107.664 126.178C107.679 125.383 107.396 124.611 106.871 124.014C106.345 123.416 105.615 123.035 104.824 122.946L89.0935 121.291C87.8078 121.155 86.5078 121.281 85.2719 121.66C84.036 122.038 82.8897 122.663 81.902 123.496C80.9143 124.329 80.1056 125.352 79.5246 126.505C78.9437 127.658 78.6024 128.916 78.5215 130.204C78.1409 136.242 77.9136 143.63 78.6294 148.132C80.0723 157.204 87.0257 158.338 87.0257 158.338L86.8553 164.665C86.5883 171.407 91.6442 175.466 96.8592 175.466C102.074 175.466 106.892 170.97 106.738 164.297L107.25 143.885C108.131 143.804 108.95 143.4 109.55 142.751C110.415 141.702 110.878 140.379 110.857 139.02Z" fill="#FFBE9D"/>
<path d="M82.0088 135.12C82.0072 135.425 82.1251 135.718 82.3374 135.937C82.5497 136.157 82.8396 136.284 83.145 136.293C83.4427 136.31 83.7353 136.21 83.9596 136.014C84.1838 135.818 84.3218 135.541 84.3436 135.244C84.349 135.092 84.3235 134.94 84.2688 134.798C84.2141 134.656 84.1313 134.526 84.0252 134.417C83.9192 134.307 83.7921 134.22 83.6516 134.161C83.5111 134.101 83.3601 134.071 83.2075 134.071C82.9097 134.054 82.6171 134.154 82.3929 134.35C82.1686 134.546 82.0307 134.823 82.0088 135.12Z" fill="#263238"/>
<path d="M80.1004 134.049C80.2424 134.202 81.123 133.55 82.3728 133.55C83.6225 133.55 84.5428 134.179 84.6792 134.026C84.7417 133.958 84.594 133.686 84.1963 133.396C83.6546 133.021 83.0095 132.823 82.35 132.829C81.7006 132.819 81.0652 133.018 80.5378 133.396C80.1572 133.708 80.0038 133.98 80.1004 134.049Z" fill="#263238"/>
<path d="M94.0977 135.352C94.0946 135.657 94.2121 135.952 94.4247 136.171C94.6373 136.391 94.928 136.518 95.2339 136.526C95.5316 136.543 95.8242 136.443 96.0485 136.246C96.2727 136.05 96.4107 135.774 96.4325 135.477C96.4356 135.171 96.3182 134.877 96.1056 134.658C95.8929 134.438 95.6023 134.311 95.2964 134.303C94.9986 134.286 94.7061 134.386 94.4818 134.583C94.2575 134.779 94.1196 135.055 94.0977 135.352Z" fill="#263238"/>
<path d="M92.4109 134.281C92.5529 134.434 93.4334 133.782 94.6832 133.787C95.933 133.793 96.8533 134.411 96.9896 134.258C97.0521 134.19 96.9101 133.918 96.5067 133.629C95.9651 133.253 95.3199 133.055 94.6605 133.062C94.0115 133.054 93.3769 133.253 92.8483 133.629C92.4677 133.941 92.337 134.213 92.4109 134.281Z" fill="#263238"/>
<path d="M87.8606 143.551C87.2 143.347 86.5172 143.223 85.8269 143.182C85.5088 143.154 85.2077 143.086 85.1509 142.87C85.1267 142.54 85.2019 142.211 85.3667 141.923L86.3098 139.502C87.6277 136.038 88.5821 133.192 88.4344 133.141C88.2867 133.09 87.1164 135.851 85.8042 139.315C85.486 140.166 85.185 140.982 84.9009 141.759C84.6987 142.144 84.6384 142.587 84.7305 143.012C84.7776 143.124 84.8496 143.225 84.9411 143.305C85.0326 143.386 85.1413 143.444 85.2588 143.477C85.444 143.527 85.6349 143.554 85.8269 143.556C86.5022 143.642 87.1858 143.641 87.8606 143.551Z" fill="#263238"/>
<path d="M86.9967 158.343C91.2711 158.407 95.4794 157.287 99.1537 155.106C99.1537 155.106 96.0065 161.91 86.9229 161.076L86.9967 158.343Z" fill="#EB996E"/>
<path d="M91.843 132.092C91.968 132.432 93.2178 132.273 94.6834 132.449C96.1491 132.625 97.3421 133.016 97.5239 132.721C97.6091 132.574 97.4046 132.256 96.9274 131.928C96.2895 131.517 95.5635 131.262 94.8084 131.185C94.0578 131.095 93.2964 131.184 92.5872 131.446C92.0646 131.667 91.7919 131.933 91.843 132.092Z" fill="#263238"/>
<path d="M79.8962 131.14C80.1178 131.423 80.9756 131.14 82.0152 131.14C83.0548 131.14 83.9296 131.327 84.1341 131.032C84.225 130.884 84.083 130.601 83.7024 130.334C83.1871 130.014 82.5884 129.854 81.9818 129.873C81.3752 129.892 80.7879 130.09 80.2939 130.442C79.919 130.709 79.7997 130.998 79.8962 131.14Z" fill="#263238"/>
<path d="M88.1387 150.627C88.1387 150.598 88.2239 150.445 88.4795 150.286C88.8233 150.083 89.2161 149.977 89.6157 149.98C90.014 149.975 90.4064 150.077 90.7519 150.275C91.0075 150.434 91.1211 150.581 91.0984 150.609C90.6272 150.434 90.134 150.323 89.6327 150.281C89.1199 150.319 88.6161 150.436 88.1387 150.627Z" fill="#EB996E"/>
<path d="M106.63 141.43C106.927 141.309 107.215 141.169 107.493 141.011C107.805 140.807 108.063 140.532 108.245 140.208C108.428 139.885 108.531 139.522 108.544 139.151C108.551 138.777 108.468 138.407 108.305 138.072C108.141 137.736 107.9 137.443 107.601 137.217C107.344 137.04 107.048 136.925 106.738 136.883C106.709 136.849 107.158 136.696 107.721 137.042C108.075 137.267 108.365 137.579 108.564 137.949C108.763 138.318 108.864 138.732 108.857 139.151C108.85 139.616 108.703 140.068 108.436 140.449C108.225 140.756 107.945 141.011 107.618 141.192C107.33 141.391 106.978 141.476 106.63 141.43Z" fill="#EB996E"/>
<path d="M76.7831 119.131C75.3174 123.043 78.7998 125.878 81.5153 126.502C85.3101 127.386 89.3435 124.994 91.9396 126.008C93.8768 126.768 95.706 128.276 97.7625 127.965C98.7623 127.817 99.7508 127.244 100.722 127.505C101.966 127.845 102.472 129.354 102.426 130.641C102.392 132.228 101.858 133.805 102.057 135.381C102.256 136.957 103.665 138.584 105.204 138.165C105.928 137.923 106.561 137.469 107.021 136.862C107.482 136.255 107.747 135.523 107.783 134.763C107.965 132.58 107.562 129.983 107.67 127.794C107.766 125.867 107.772 123.746 106.534 122.255C105.295 120.764 103.205 120.361 101.279 120.1C93.1568 118.984 84.9551 118.552 76.7604 118.808" fill="#263238"/>
<path d="M72.0051 119.964C71.9561 119.834 71.9292 119.696 71.9256 119.556C71.9046 119.151 71.9867 118.747 72.1642 118.382C72.4451 117.796 72.9325 117.334 73.5332 117.084C73.9132 116.94 74.3239 116.895 74.7262 116.954C75.1523 116.993 75.5783 117.107 76.0271 117.129C76.4926 117.155 76.9563 117.053 77.3678 116.835C77.817 116.585 78.2347 116.282 78.6119 115.933C79.0209 115.582 79.4356 115.196 79.9128 114.85C80.4097 114.488 80.9796 114.238 81.583 114.119C82.8865 113.923 84.2185 114.15 85.3835 114.765C86.5937 115.432 87.7222 116.237 88.7466 117.163C89.7417 118.088 90.8742 118.853 92.1039 119.431C92.6869 119.675 93.3208 119.772 93.9502 119.715C94.5466 119.625 95.1231 119.433 95.6545 119.148C96.6514 118.551 97.7105 118.064 98.813 117.696C99.8045 117.414 100.851 117.381 101.858 117.6C102.689 117.788 103.452 118.197 104.068 118.785C104.527 119.229 104.886 119.767 105.119 120.361C105.264 120.736 105.343 121.133 105.352 121.535C105.359 121.639 105.359 121.743 105.352 121.847C105.352 121.915 105.352 121.949 105.352 121.949C105.344 121.42 105.24 120.898 105.045 120.407C104.802 119.837 104.442 119.325 103.988 118.904C103.386 118.352 102.647 117.972 101.847 117.804C100.874 117.607 99.8677 117.65 98.9153 117.929C97.83 118.304 96.7883 118.795 95.8079 119.392C95.2407 119.688 94.625 119.88 93.99 119.959C93.3153 120.026 92.6344 119.927 92.0074 119.67C90.7501 119.083 89.5908 118.307 88.5704 117.368C87.5628 116.456 86.4534 115.662 85.2642 115.003C84.1565 114.412 82.8893 114.188 81.6455 114.363C80.4582 114.561 79.6004 115.394 78.8051 116.098C78.4095 116.453 77.9728 116.759 77.5042 117.01C77.0541 117.242 76.5496 117.348 76.0442 117.317C75.5727 117.283 75.1466 117.163 74.7376 117.112C74.3562 117.052 73.9658 117.087 73.6014 117.214C73.031 117.442 72.5614 117.867 72.2778 118.411C72.0934 118.761 71.996 119.15 71.9937 119.545C71.9824 119.823 72.0505 119.959 72.0051 119.964Z" fill="#455A64"/>
<path d="M76.3964 126.269C76.2664 126.306 76.1288 126.306 75.9988 126.269C75.8073 126.231 75.6261 126.153 75.4673 126.04C75.3086 125.926 75.176 125.78 75.0785 125.612C74.8044 125.06 74.7282 124.432 74.8626 123.831C74.9965 123.037 75.3157 122.285 75.7943 121.637C76.3738 120.841 77.1792 120.237 78.1064 119.902C79.1703 119.508 80.3355 119.478 81.4183 119.817C82.5696 120.246 83.6453 120.854 84.6053 121.62C85.6038 122.432 86.7359 123.065 87.9513 123.491C89.1927 123.806 90.5008 123.734 91.7006 123.287C92.835 122.881 93.9256 122.363 94.9558 121.739C95.9012 121.172 96.8779 120.659 97.8814 120.203C98.7638 119.802 99.7097 119.558 100.676 119.482C101.38 119.424 102.088 119.51 102.757 119.734C103.426 119.959 104.042 120.317 104.568 120.787C104.84 121.054 105.067 121.364 105.238 121.705C105.299 121.824 105.345 121.949 105.374 122.079C105.155 121.628 104.857 121.219 104.494 120.872C103.97 120.434 103.365 120.103 102.712 119.9C102.06 119.697 101.374 119.624 100.693 119.687C99.7518 119.775 98.8329 120.026 97.978 120.429C96.9871 120.89 96.0235 121.406 95.0921 121.977C94.0482 122.614 92.9424 123.144 91.7915 123.559C90.5357 124.029 89.1659 124.104 87.8661 123.775C86.6284 123.335 85.4754 122.687 84.4575 121.858C83.5252 121.107 82.4805 120.506 81.3615 120.078C80.3333 119.75 79.2256 119.768 78.2086 120.129C77.3223 120.444 76.5481 121.012 75.9817 121.762C75.5108 122.379 75.1917 123.097 75.0501 123.86C74.9048 124.427 74.959 125.028 75.2035 125.561C75.2873 125.723 75.4036 125.867 75.5453 125.983C75.6869 126.099 75.851 126.185 76.0272 126.235C76.1491 126.257 76.2726 126.268 76.3964 126.269Z" fill="#455A64"/>
<path d="M111.186 141.379C111.186 141.379 111.39 141.107 111.692 140.586C112.104 139.841 112.336 139.009 112.368 138.159C112.393 137.584 112.32 137.008 112.152 136.458C111.943 135.821 111.637 135.22 111.243 134.678C110.845 134.111 110.374 133.487 109.959 132.806C109.488 132.109 109.229 131.289 109.215 130.448C109.296 129.618 109.555 128.815 109.976 128.095C110.339 127.454 110.556 126.742 110.612 126.008C110.628 125.389 110.482 124.776 110.188 124.23C109.894 123.684 109.463 123.224 108.936 122.896C108.203 122.463 107.342 122.294 106.499 122.419C106.192 122.474 105.888 122.548 105.59 122.64C105.654 122.589 105.725 122.547 105.801 122.516C106.019 122.421 106.248 122.351 106.482 122.306C107.356 122.131 108.263 122.276 109.039 122.714C109.611 123.052 110.083 123.536 110.407 124.116C110.732 124.695 110.896 125.35 110.885 126.014C110.834 126.788 110.612 127.541 110.237 128.22C109.838 128.904 109.59 129.666 109.51 130.453C109.524 131.241 109.767 132.007 110.209 132.659C110.607 133.317 111.072 133.918 111.47 134.524C111.872 135.095 112.183 135.724 112.39 136.39C112.558 136.975 112.622 137.586 112.578 138.193C112.529 139.057 112.267 139.897 111.817 140.637C111.693 140.839 111.55 141.029 111.39 141.204C111.248 141.328 111.192 141.385 111.186 141.379Z" fill="#455A64"/>
<path d="M87.389 134.763C87.3364 134.288 87.2568 133.816 87.1504 133.351C86.9493 132.574 86.5879 131.849 86.0893 131.22C85.5907 130.591 84.9659 130.073 84.2551 129.7C83.5442 129.326 82.763 129.105 81.9615 129.05C81.1599 128.995 80.3558 129.108 79.6006 129.382C78.5456 129.776 77.6279 130.467 76.959 131.372C76.2415 132.346 75.8545 133.523 75.8545 134.731C75.8545 135.94 76.2415 137.117 76.959 138.091C77.2907 138.559 77.6976 138.969 78.1633 139.304C78.5991 139.636 79.084 139.898 79.6006 140.081C80.4985 140.411 81.4649 140.511 82.4116 140.373C83.3583 140.234 84.2552 139.861 85.0201 139.287C86.0617 138.504 86.8114 137.397 87.1504 136.14C87.2559 135.676 87.3356 135.207 87.389 134.734C87.4248 135.216 87.3826 135.7 87.2641 136.169C86.9618 137.497 86.2018 138.677 85.1167 139.503C84.3278 140.111 83.3978 140.512 82.4127 140.666C81.4276 140.821 80.4193 140.725 79.4813 140.387C78.9366 140.2 78.4248 139.928 77.9645 139.582C77.4779 139.23 77.0503 138.803 76.6977 138.318C75.9377 137.296 75.5273 136.058 75.5273 134.785C75.5273 133.513 75.9377 132.274 76.6977 131.253C77.4001 130.302 78.3686 129.58 79.4813 129.178C80.4861 128.819 81.5688 128.735 82.6171 128.934C83.7295 129.15 84.7562 129.681 85.575 130.463C86.3938 131.245 86.9702 132.245 87.2356 133.345C87.3613 133.807 87.4131 134.285 87.389 134.763Z" fill="#263238"/>
<path d="M100.705 134.763C100.656 134.287 100.576 133.816 100.466 133.351C100.266 132.575 99.9048 131.849 99.4068 131.22C98.9087 130.591 98.2845 130.074 97.5741 129.7C96.8637 129.326 96.0829 129.105 95.2817 129.05C94.4805 128.995 93.6768 129.108 92.9219 129.382C91.8642 129.774 90.9441 130.466 90.2747 131.372C89.5571 132.346 89.1701 133.523 89.1701 134.731C89.1701 135.94 89.5571 137.117 90.2747 138.091C90.6078 138.557 91.0145 138.967 91.479 139.304C91.9175 139.635 92.4041 139.897 92.9219 140.081C93.6724 140.352 94.4711 140.466 95.2676 140.413C96.0641 140.361 96.841 140.143 97.5491 139.776C98.2572 139.408 98.8811 138.898 99.3813 138.277C99.8814 137.656 100.247 136.938 100.455 136.169C100.564 135.705 100.643 135.236 100.693 134.763C100.733 135.244 100.69 135.729 100.568 136.197C100.273 137.509 99.5301 138.677 98.4664 139.503C97.6776 140.111 96.7475 140.512 95.7624 140.666C94.7773 140.821 93.7691 140.725 92.831 140.387C92.2863 140.2 91.7745 139.928 91.3143 139.582C90.8261 139.23 90.3967 138.803 90.0417 138.318C89.2852 137.295 88.877 136.057 88.877 134.785C88.877 133.514 89.2852 132.276 90.0417 131.253C90.7481 130.304 91.7179 129.582 92.831 129.178C93.8359 128.819 94.9185 128.735 95.9669 128.934C97.078 129.152 98.1031 129.683 98.9207 130.465C99.7383 131.247 100.314 132.246 100.58 133.345C100.699 133.807 100.742 134.286 100.705 134.763Z" fill="#263238"/>
<path d="M89.3426 133.788V133.845V133.742V133.856C89.0295 133.926 88.7089 133.956 88.3882 133.947C87.8201 133.947 87.3486 133.879 87.3486 133.799C87.3486 133.72 87.8145 133.652 88.3882 133.652C88.709 133.639 89.03 133.67 89.3426 133.742V133.856V133.754V133.811V133.788Z" fill="#263238"/>
<path d="M107.72 135.069C106.526 135.134 105.329 135.098 104.141 134.961C102.947 134.926 101.757 134.792 100.585 134.558C101.779 134.5 102.976 134.536 104.164 134.666C105.358 134.704 106.548 134.839 107.72 135.069Z" fill="#263238"/>
<path d="M93.0694 143.239C93.1751 143.532 93.189 143.85 93.1092 144.152C92.9876 144.906 92.5932 145.59 92.0007 146.073C91.4082 146.557 90.6587 146.807 89.8939 146.777C89.5809 146.796 89.2696 146.719 89.002 146.556C89.002 146.51 89.3542 146.601 89.8939 146.556C90.5957 146.532 91.2703 146.278 91.8141 145.835C92.3579 145.391 92.741 144.782 92.9047 144.101C93.0694 143.585 93.0354 143.239 93.0694 143.239Z" fill="#263238"/>
<path d="M70.5679 183.943C70.5751 184.003 70.5751 184.064 70.5679 184.124V184.657C70.5679 185.145 70.5679 185.837 70.5963 186.71C70.5963 188.507 70.5963 191.076 70.636 194.245C70.636 200.607 70.4429 209.395 69.9487 219.09C69.4544 228.786 68.9431 237.546 68.5966 243.919C68.4375 247.077 68.3069 249.645 68.216 251.443C68.1705 252.316 68.1365 252.996 68.1137 253.484C68.1137 253.705 68.0853 253.881 68.0797 254.017C68.0856 254.077 68.0856 254.138 68.0797 254.198C68.0711 254.138 68.0711 254.077 68.0797 254.017C68.0797 253.881 68.0797 253.705 68.0797 253.484C68.0797 252.996 68.1081 252.31 68.1308 251.437C68.1819 249.657 68.2728 247.082 68.4148 243.907C68.6818 237.551 69.1988 228.774 69.6817 219.079C70.1645 209.384 70.4258 200.601 70.4599 194.239C70.4599 191.076 70.4997 188.507 70.5111 186.71C70.5111 185.837 70.5111 185.145 70.5395 184.657V184.124C70.5415 184.063 70.5511 184.002 70.5679 183.943Z" fill="#263238"/>
<path d="M125.451 174.18C122.395 170.659 116.424 170.143 113.777 172.053C111.129 173.964 109.658 177.207 109.391 180.456C109.124 183.705 109.959 186.965 111.198 189.976C113.192 194.806 116.14 198.719 120.543 203.697L131.904 218.563L110.005 239.905L119.094 254.198L137.71 239.23L153.105 222.946" fill="#00C802"/>
<path d="M46.2651 220.014C46.6205 219.754 47.0212 219.562 47.4468 219.448C48.4536 219.109 49.5159 218.964 50.5769 219.022C51.6401 219.08 52.6828 219.338 53.6502 219.782C54.0694 219.939 54.455 220.173 54.7864 220.474C54.7864 220.513 54.3319 220.264 53.5934 219.975C52.6332 219.597 51.6187 219.375 50.5883 219.317C49.5585 219.267 48.5273 219.378 47.532 219.646C46.7423 219.856 46.2879 220.06 46.2651 220.014Z" fill="#263238"/>
<path d="M128.399 177.519C120.758 167.404 112.532 168.237 108.34 168.118V163.679C105.244 163.679 101.012 166.463 98.8245 168.453L96.6601 171.418C96.1041 169.794 95.1755 168.323 93.9485 167.121C92.7215 165.919 91.2301 165.02 89.5931 164.495C88.4123 164.121 87.2017 163.848 85.9744 163.679V167.648C75.7034 167.937 70.21 170.738 63.3476 178.664C62.9954 179.072 62.2966 179.77 61.4956 180.558L41.1923 204.371C37.0453 208.953 33.2391 215.257 34.131 221.381C35.1024 228.275 39.1301 232.811 46.839 238.011L68.199 251.828L68.0968 254.204H119.071C119.071 254.204 153.639 228.752 154.485 219.323C155.144 211.872 143.237 196.082 128.399 177.519ZM69.0568 231.558L54.1105 220.428L70.2555 203.753L69.0568 231.558ZM118.003 232.443L117.6 224.204L119.77 202.563C124.03 207.439 131.915 217.117 131.915 218.563L118.003 232.443Z" fill="#92E3A9" stroke="#263238" stroke-width="0.3" stroke-linecap="round" stroke-linejoin="round"/>
<path d="M108.329 168.141C108.22 168.377 108.091 168.603 107.942 168.816C107.67 169.235 107.278 169.842 106.761 170.573C105.43 172.491 103.934 174.29 102.29 175.949C101.807 176.436 101.318 176.895 100.841 177.332L100.603 177.553V177.23C100.575 175.367 99.8261 173.587 98.5121 172.263C98.1662 171.849 97.7177 171.532 97.2112 171.345C97.0164 171.306 96.8143 171.341 96.6431 171.441C96.7096 171.358 96.7982 171.296 96.8986 171.26C96.9991 171.225 97.1073 171.219 97.2112 171.243C97.7581 171.396 98.2492 171.703 98.6257 172.127C99.2409 172.711 99.7485 173.398 100.125 174.157C100.597 175.112 100.852 176.159 100.875 177.224L100.637 177.116C101.103 176.68 101.591 176.226 102.068 175.739C103.698 174.087 105.207 172.321 106.585 170.454L107.834 168.753C107.978 168.533 108.143 168.328 108.329 168.141Z" fill="#263238"/>
<path d="M85.9629 167.67C86.129 167.83 86.2776 168.007 86.406 168.198L87.5422 169.689C88.4909 170.959 89.7747 172.728 91.1836 174.69L92.1039 175.971L91.8482 176.011C92.1231 175.094 92.5044 174.213 92.9844 173.386C93.3813 172.713 93.9473 172.156 94.6262 171.77C95.0739 171.511 95.5803 171.371 96.0975 171.361C96.2905 171.342 96.4854 171.369 96.6656 171.441C96.6656 171.441 96.4725 171.441 96.0975 171.441C95.6074 171.49 95.1351 171.651 94.7171 171.911C94.0869 172.308 93.564 172.853 93.1946 173.499C92.7375 174.317 92.3718 175.182 92.1039 176.079L92.013 176.345L91.8482 176.118L90.9279 174.837C89.5191 172.875 88.258 171.089 87.3547 169.791C86.94 169.173 86.5878 168.657 86.3037 168.243C86.1696 168.065 86.0553 167.873 85.9629 167.67Z" fill="#263238"/>
<g opacity="0.1">
<path opacity="0.1" d="M96.6489 171.441C97.5003 172.372 98.1397 173.476 98.5231 174.676C98.9065 175.877 99.0249 177.147 98.8701 178.398C98.7622 179.226 98.6656 180.331 99.4382 180.637C99.9779 180.847 100.574 180.479 101.012 180.116C104.326 177.45 107.053 174.13 109.022 170.364C109.212 170.067 109.315 169.723 109.317 169.371C109.313 169.197 109.241 169.031 109.118 168.907C108.994 168.784 108.827 168.712 108.653 168.708C108.419 168.773 108.217 168.92 108.084 169.122C105.721 171.843 103.108 174.673 100.745 177.389C100.851 175.877 100.383 174.381 99.4325 173.199C98.4952 172.065 97.4726 170.891 96.666 171.441" fill="black"/>
</g>
<path d="M118.446 253.251C118.379 253.178 118.32 253.098 118.27 253.013C118.145 252.832 117.992 252.593 117.793 252.299L116.049 249.6C114.566 247.252 112.493 243.981 110.078 240.176L110.021 240.08L110.101 240.006L115.43 234.699L127.024 223.246C128.501 221.806 129.706 220.638 130.558 219.799L131.535 218.875C131.644 218.762 131.762 218.658 131.887 218.563C131.794 218.689 131.689 218.807 131.575 218.915C131.342 219.158 131.007 219.481 130.643 219.884L127.155 223.416L115.617 234.932C113.742 236.797 111.936 238.583 110.283 240.222V240.052C112.657 243.879 114.703 247.167 116.162 249.532C116.867 250.666 117.435 251.607 117.838 252.276C118.02 252.576 118.162 252.843 118.276 253.013C118.341 253.086 118.398 253.166 118.446 253.251Z" fill="#263238"/>
<path d="M112.18 173.89L112.095 173.998L111.834 174.304C111.59 174.565 111.266 174.973 110.857 175.506C109.733 177.036 108.987 178.81 108.681 180.683C108.319 183.475 108.758 186.312 109.948 188.864C110.594 190.388 111.434 191.823 112.447 193.134C113.521 194.5 114.657 195.867 115.822 197.335C120.406 203.101 124.343 208.471 127.24 212.326L130.649 216.902C131.041 217.423 131.348 217.843 131.575 218.149L131.808 218.478L131.882 218.591C131.882 218.591 131.842 218.563 131.785 218.495L131.529 218.183L130.564 216.941C129.729 215.881 128.536 214.339 127.07 212.406C124.139 208.584 120.168 203.232 115.595 197.477C114.458 196.031 113.322 194.642 112.22 193.298C111.196 191.964 110.349 190.505 109.698 188.955C108.5 186.355 108.076 183.466 108.476 180.632C108.916 178.22 110.081 175.999 111.817 174.264L112.101 173.981C112.141 173.919 112.175 173.885 112.18 173.89Z" fill="#263238"/>
<path d="M131.342 181.21C131.342 181.238 131.029 181.346 130.495 181.63C129.749 182.041 129.069 182.563 128.479 183.177C127.609 184.097 126.846 185.113 126.206 186.205C125.428 187.57 124.58 188.895 123.667 190.174C122.81 191.339 121.701 192.296 120.422 192.975C119.144 193.655 117.729 194.038 116.282 194.098C115.413 194.141 114.543 194.059 113.697 193.854C113.468 193.802 113.242 193.736 113.021 193.655C112.943 193.63 112.867 193.597 112.794 193.559C113.931 193.832 115.102 193.943 116.271 193.888C117.532 193.802 118.765 193.472 119.901 192.918C121.289 192.238 122.493 191.234 123.411 189.993C124.417 188.688 125.178 187.294 125.951 186.08C126.612 184.978 127.403 183.96 128.308 183.047C128.925 182.432 129.639 181.922 130.422 181.539C130.635 181.439 130.855 181.354 131.081 181.284C131.164 181.247 131.252 181.223 131.342 181.21Z" fill="#FAFAFA"/>
<path d="M117.792 231.065H117.656L117.275 230.974C117.105 230.929 116.895 230.901 116.645 230.861C116.359 230.813 116.071 230.781 115.781 230.764C113.927 230.68 112.072 230.918 110.299 231.468C109.068 231.821 107.862 232.261 106.692 232.783C105.431 233.35 104.124 234.042 102.715 234.705C101.244 235.427 99.7067 236.008 98.1253 236.44C97.2805 236.658 96.4169 236.794 95.5462 236.848C94.646 236.891 93.7439 236.826 92.8591 236.655C91.131 236.265 89.4813 235.586 87.9793 234.648C86.5136 233.775 85.2013 232.783 83.9459 231.864C81.4633 230.005 79.0887 228.463 76.8334 227.793C75.8261 227.481 74.7804 227.31 73.726 227.283C72.9311 227.268 72.1379 227.361 71.3685 227.561C70.7147 227.745 70.0824 227.997 69.4824 228.315L69.5904 228.236L69.9312 228.032C70.3779 227.79 70.8505 227.6 71.3401 227.465C72.1181 227.245 72.923 227.134 73.7317 227.136C74.8014 227.145 75.8646 227.303 76.8903 227.606C79.1967 228.258 81.611 229.812 84.1049 231.66C85.3661 232.579 86.6784 233.554 88.127 234.416C89.6011 235.336 91.2201 236.001 92.9159 236.383C93.776 236.552 94.6537 236.615 95.5291 236.57C96.3806 236.522 97.2253 236.391 98.0514 236.179C99.6161 235.755 101.138 235.185 102.596 234.478C104.005 233.821 105.317 233.129 106.573 232.579C107.756 232.061 108.974 231.629 110.22 231.286C112.015 230.748 113.894 230.538 115.764 230.668C116.456 230.706 117.138 230.839 117.792 231.065Z" fill="#FAFAFA"/>
<path d="M61.6375 226.03C61.6375 226.03 61.6659 226.098 61.6829 226.229C61.7186 226.416 61.7413 226.605 61.7511 226.796C61.8078 227.498 61.7773 228.204 61.6602 228.899C61.4922 229.944 61.0882 230.937 60.4786 231.802C59.6977 232.831 58.7037 233.68 57.5643 234.291C56.4281 234.989 55.2522 235.573 54.3149 236.253C53.4676 236.827 52.7258 237.542 52.1221 238.368C51.7231 238.926 51.4961 239.588 51.4688 240.273C51.4688 240.761 51.5426 241.027 51.5085 241.033C51.4749 240.975 51.4518 240.912 51.4404 240.846C51.3916 240.66 51.3612 240.47 51.3495 240.279C51.3264 239.562 51.5248 238.855 51.9175 238.255C52.5131 237.386 53.2619 236.633 54.1274 236.032C55.0818 235.323 56.235 234.728 57.3825 234.042C58.4849 233.446 59.4519 232.63 60.2229 231.643C60.8199 230.815 61.2289 229.867 61.4216 228.865C61.5516 228.185 61.6125 227.494 61.6034 226.801C61.5964 226.544 61.6078 226.286 61.6375 226.03Z" fill="#FAFAFA"/>
<path d="M147.367 202.563C146.201 202.758 145.067 203.113 143.998 203.617C142.854 204.175 141.827 204.944 140.97 205.885C140.47 206.443 140.039 207.06 139.687 207.722C139.312 208.408 139.056 209.185 138.687 209.95C138.349 210.721 137.837 211.404 137.193 211.946C136.586 212.44 135.898 212.824 135.159 213.08C133.915 213.491 132.603 213.653 131.296 213.556C130.424 213.504 129.555 213.402 128.694 213.25C128.377 213.209 128.064 213.142 127.757 213.052C128.077 213.053 128.396 213.081 128.711 213.137C129.325 213.199 130.205 213.318 131.302 213.347C132.579 213.411 133.858 213.232 135.068 212.819C135.804 212.581 136.483 212.193 137.06 211.678C137.637 211.164 138.1 210.535 138.42 209.831C138.778 209.083 139.039 208.3 139.431 207.592C139.804 206.916 140.26 206.289 140.789 205.726C141.674 204.76 142.742 203.978 143.93 203.424C144.723 203.049 145.564 202.785 146.43 202.642C146.665 202.603 146.902 202.577 147.14 202.563C147.215 202.55 147.292 202.55 147.367 202.563Z" fill="#FAFAFA"/>
<path d="M119.134 207.348L119.003 207.387L118.617 207.472C118.276 207.546 117.77 207.637 117.111 207.739C115.256 208.024 113.381 208.157 111.504 208.136C108.711 208.116 105.939 207.647 103.295 206.747C101.747 206.185 100.252 205.485 98.8303 204.654C97.3234 203.763 95.7465 202.995 94.1152 202.358C93.2856 202.065 92.4233 201.875 91.5475 201.791C90.6953 201.727 89.8385 201.769 88.9968 201.916C87.4097 202.24 85.8786 202.794 84.4521 203.56C81.6969 205.017 79.3791 206.639 77.2829 207.767C75.6619 208.727 73.8946 209.417 72.0508 209.808C71.5522 209.915 71.0439 209.97 70.534 209.973H70.1363C70.0911 209.979 70.0452 209.979 70 209.973H70.1363L70.5283 209.927C71.0338 209.898 71.5356 209.824 72.0281 209.706C73.8444 209.276 75.5827 208.566 77.1806 207.603C79.2427 206.469 81.5492 204.819 84.3214 203.333C85.7754 202.54 87.3396 201.966 88.9627 201.632C89.8285 201.479 90.7101 201.433 91.5872 201.496C92.489 201.585 93.3763 201.785 94.2288 202.092C95.8757 202.734 97.4661 203.511 98.9837 204.416C100.394 205.237 101.873 205.935 103.403 206.503C106.017 207.405 108.756 207.89 111.521 207.937C113.388 207.978 115.254 207.878 117.106 207.637C117.765 207.552 118.27 207.478 118.617 207.421L119.009 207.37C119.049 207.357 119.091 207.35 119.134 207.348Z" fill="#FAFAFA"/>
<path d="M63.6032 210.625C63.6586 210.335 63.6469 210.037 63.5691 209.752C63.4096 209.385 63.1645 209.061 62.8542 208.808C62.5439 208.554 62.1775 208.378 61.7853 208.295C61.2911 208.147 60.7287 208.062 60.1265 207.926C59.459 207.803 58.8325 207.517 58.303 207.093C57.7479 206.593 57.3162 205.972 57.0418 205.278C56.7623 204.542 56.5438 203.783 56.3885 203.01C56.2411 202.259 56.0243 201.522 55.7409 200.811C55.4681 200.155 55.111 199.537 54.6786 198.974C53.949 198.009 53.0112 197.22 51.9347 196.666C51.2192 196.292 50.4541 196.021 49.6624 195.861C49.0943 195.747 48.7705 195.725 48.7705 195.696C48.8493 195.681 48.9304 195.681 49.0091 195.696C49.2336 195.703 49.4575 195.724 49.6794 195.759C50.5071 195.873 51.3108 196.12 52.0597 196.49C53.1734 197.039 54.1454 197.836 54.9001 198.82C55.3618 199.396 55.744 200.031 56.0363 200.709C56.3304 201.442 56.5548 202.201 56.7067 202.976C56.8572 203.727 57.0681 204.465 57.3372 205.182C57.5939 205.83 57.9939 206.411 58.5075 206.883C59.0003 207.288 59.5858 207.564 60.2117 207.688C60.7798 207.836 61.3479 207.932 61.8762 208.096C62.2918 208.196 62.6765 208.396 62.9965 208.679C63.3164 208.961 63.5619 209.318 63.7111 209.718C63.7689 209.943 63.7689 210.179 63.7111 210.404C63.6918 210.485 63.655 210.56 63.6032 210.625Z" fill="#FAFAFA"/>
<path d="M108.471 181.545C107.943 181.255 107.382 181.028 106.8 180.87C106.111 180.728 105.4 180.728 104.71 180.87C103.791 181.051 102.899 181.35 102.057 181.76C101.108 182.185 100.108 182.741 99.0177 183.314C97.862 183.956 96.6364 184.464 95.3649 184.828C93.9344 185.177 92.4466 185.225 90.9963 184.969C89.4509 184.688 87.9521 184.193 86.5426 183.501C83.6396 182.089 81.2253 180.195 78.8961 178.721C76.8889 177.327 74.6473 176.303 72.2779 175.699C70.6772 175.307 69.0076 175.288 67.3981 175.642C66.8206 175.802 66.2517 175.991 65.6938 176.209C66.2287 175.909 66.802 175.682 67.3981 175.535C69.0231 175.13 70.7214 175.118 72.3518 175.501C74.7559 176.082 77.0334 177.096 79.0722 178.494C81.4241 179.963 83.8385 181.851 86.6959 183.24C88.0809 183.921 89.5526 184.409 91.0702 184.692C92.4821 184.942 93.9304 184.899 95.3252 184.567C96.5798 184.219 97.7902 183.728 98.9325 183.104C100.023 182.537 101.034 181.97 102 181.573C102.863 181.172 103.774 180.882 104.71 180.711C105.424 180.59 106.155 180.617 106.857 180.791C107.294 180.912 107.714 181.087 108.107 181.312C108.232 181.383 108.354 181.461 108.471 181.545Z" fill="#FAFAFA"/>
<path d="M105.261 253.529L106.84 254.317H115.93L117.765 252.821L111.152 241.9C110.34 242.258 106.772 242.813 105.619 243.216C104.624 243.564 103.577 243.741 102.523 243.737C101.348 243.763 100.173 243.666 99.0177 243.448L98.7677 243.369C98.6134 243.303 98.4472 243.268 98.2792 243.267C97.2964 243.182 96.5181 244.208 97.0692 245.019C97.6202 245.83 100.307 246.913 103.738 246.816H103.903C106.914 246.816 104.153 249.334 102.364 250.83C102.048 251.085 101.802 251.416 101.651 251.792C101.5 252.169 101.448 252.577 101.5 252.979C101.511 253.124 101.552 253.265 101.621 253.392C101.691 253.519 101.787 253.63 101.904 253.716C102.665 254.198 105.261 253.529 105.261 253.529Z" fill="#FFBE9D"/>
<path d="M68.1701 252.174C68.164 252.121 68.164 252.068 68.1701 252.015C68.1701 251.891 68.1701 251.737 68.1701 251.545C68.1701 251.108 68.2042 250.501 68.2326 249.736C68.3007 248.148 68.3916 245.886 68.5109 243.097C68.7439 237.472 69.079 229.738 69.4256 221.194C69.7721 212.649 69.9936 204.887 70.1527 199.28C70.2152 196.49 70.2606 194.228 70.2947 192.635C70.2947 191.869 70.3231 191.263 70.3345 190.826C70.3345 190.633 70.3345 190.48 70.3345 190.361C70.3273 190.307 70.3273 190.251 70.3345 190.197C70.343 190.251 70.343 190.307 70.3345 190.361C70.3345 190.48 70.3345 190.639 70.3345 190.826C70.3345 191.263 70.3345 191.869 70.3345 192.635C70.3345 194.205 70.3345 196.473 70.289 199.28C70.2095 204.893 69.9823 212.644 69.6471 221.205C69.3119 229.767 68.9427 237.506 68.6473 243.108C68.4882 245.892 68.3632 248.154 68.2723 249.742C68.2212 250.507 68.1814 251.114 68.153 251.545L68.1133 252.015C68.1381 252.066 68.1572 252.119 68.1701 252.174Z" fill="#263238"/>
<path d="M92.8992 253.251C92.8904 253.181 92.8904 253.111 92.8992 253.041C92.8992 252.888 92.8708 252.684 92.848 252.423L92.6833 250.036C92.6151 249.004 92.5299 247.734 92.4845 246.26C92.439 244.786 92.3311 243.113 92.3197 241.259C92.3083 239.405 92.2402 237.37 92.2686 235.187C92.2686 234.098 92.2686 232.97 92.2686 231.785C92.2686 230.6 92.3197 229.426 92.3481 228.202C92.4901 223.297 92.7458 217.911 93.1434 212.264C93.9388 200.964 94.9499 190.764 95.5976 183.376C95.9157 179.69 96.1656 176.708 96.3588 174.621C96.444 173.607 96.5179 172.807 96.5633 172.246C96.5917 171.985 96.6088 171.781 96.6258 171.628C96.6428 171.475 96.6542 171.418 96.6542 171.418C96.6618 171.488 96.6618 171.558 96.6542 171.628L96.6258 172.251C96.586 172.818 96.5349 173.612 96.4724 174.633C96.3418 176.702 96.1088 179.696 95.8078 183.393C95.2113 190.764 94.2342 200.969 93.4388 212.281C93.0412 217.95 92.7799 223.309 92.6208 228.207C92.6208 229.432 92.5583 230.628 92.5299 231.791C92.5015 232.953 92.5299 234.059 92.4901 235.193C92.4561 237.37 92.4901 239.4 92.4901 241.254C92.4901 243.108 92.5754 244.786 92.6094 246.254C92.6435 247.723 92.706 248.999 92.7571 250.031C92.8083 251.062 92.8423 251.856 92.8708 252.418V253.041C92.8877 253.11 92.8972 253.18 92.8992 253.251Z" fill="#263238"/>
<path d="M97.0804 197.392C97.052 197.363 97.3701 197.233 97.7223 197.534C97.8231 197.623 97.9009 197.734 97.9494 197.86C97.9978 197.985 98.0154 198.12 98.0007 198.254C97.9642 198.419 97.8791 198.569 97.7563 198.685C97.6335 198.801 97.4787 198.878 97.3118 198.905C97.1449 198.933 96.9735 198.91 96.8199 198.839C96.6662 198.768 96.5373 198.653 96.4498 198.509C96.3929 198.388 96.3657 198.256 96.3707 198.123C96.3756 197.989 96.4125 197.859 96.4782 197.743C96.7111 197.341 97.0463 197.363 97.0463 197.403C97.0463 197.443 96.802 197.5 96.6714 197.834C96.6298 197.923 96.6082 198.02 96.6082 198.118C96.6082 198.216 96.6298 198.312 96.6714 198.401C96.7381 198.487 96.8268 198.553 96.9281 198.592C97.0294 198.631 97.1394 198.643 97.2466 198.625C97.3537 198.607 97.454 198.56 97.5367 198.49C97.6195 198.419 97.6817 198.328 97.7166 198.225C97.7284 198.131 97.7203 198.036 97.6929 197.945C97.6655 197.854 97.6194 197.77 97.5576 197.698C97.3417 197.409 97.0804 197.443 97.0804 197.392Z" fill="#263238"/>
<path d="M95.4842 222.85C95.4558 222.821 95.7796 222.685 96.1318 222.991C96.2311 223.08 96.3076 223.191 96.3551 223.315C96.4025 223.44 96.4195 223.574 96.4045 223.706C96.3753 223.874 96.2926 224.028 96.1688 224.145C96.045 224.263 95.8867 224.337 95.7171 224.358C95.5503 224.391 95.3772 224.371 95.2222 224.301C95.0673 224.231 94.9384 224.114 94.8536 223.966C94.7984 223.844 94.7727 223.711 94.7787 223.577C94.7846 223.443 94.8219 223.312 94.8877 223.195C95.1206 222.793 95.4558 222.821 95.4558 222.855C95.4558 222.889 95.2115 222.957 95.0809 223.286C95.0377 223.374 95.0152 223.471 95.0152 223.57C95.0152 223.668 95.0377 223.765 95.0809 223.853C95.1401 223.95 95.2269 224.026 95.3302 224.073C95.4334 224.12 95.5484 224.135 95.6602 224.116C95.772 224.097 95.8756 224.045 95.9577 223.967C96.0397 223.889 96.0964 223.788 96.1205 223.677C96.1336 223.584 96.1262 223.489 96.0987 223.399C96.0713 223.309 96.0244 223.226 95.9614 223.156C95.7512 222.85 95.4842 222.889 95.4842 222.85Z" fill="#263238"/>
<path d="M136.244 240.341C135.988 240.335 135.733 240.303 135.483 240.245C134.797 240.099 134.127 239.884 133.483 239.604C131.342 238.655 129.554 237.058 128.371 235.04C127.773 233.917 127.299 232.732 126.956 231.507C126.675 230.525 126.253 229.589 125.701 228.729C125.32 228.158 124.83 227.669 124.258 227.289C123.843 227.034 123.582 226.949 123.593 226.92C123.659 226.925 123.725 226.941 123.786 226.966C123.969 227.025 124.146 227.101 124.315 227.193C124.933 227.543 125.465 228.028 125.871 228.61C126.462 229.481 126.916 230.437 127.218 231.445C127.566 232.647 128.038 233.81 128.626 234.915C129.782 236.888 131.506 238.469 133.574 239.451C134.44 239.816 135.333 240.114 136.244 240.341Z" fill="#FAFAFA"/>
<path d="M194.439 254.3L184.781 226.325L189.246 199.484C190.547 192.244 191.274 185.877 189.326 182.231C184.117 172.518 177.828 171.645 169.238 169.417C167.466 168.958 153.985 168.504 152.503 168.85C140.806 170.16 133.318 176.351 129.211 186.427L124.757 204.343L118.639 223.054C118.127 224.141 117.377 225.099 116.444 225.858C115.511 226.617 114.418 227.156 113.248 227.437L89.6611 235.482L89.86 240.092L89.6611 246.329L121.076 240.426C127.371 239.247 133.773 236.928 135.579 230.867L138.96 220.877C140.613 225.106 142.413 228.984 142.413 228.984L140.141 254.176L194.439 254.3Z" fill="#356F8B"/>
<path d="M186.349 204.598L177.374 234.552C176.689 236.836 175.448 238.915 173.763 240.605C172.079 242.294 170.001 243.542 167.716 244.236L130.359 254.17L125.405 241.299L159.172 228.769L167.461 198.775C167.461 198.775 169.375 182.004 184.571 182.866" fill="#356F8B"/>
<path d="M184.566 182.865H184.111C183.81 182.865 183.367 182.831 182.782 182.865C181.071 182.914 179.382 183.257 177.788 183.88C176.637 184.33 175.553 184.937 174.567 185.683C173.399 186.58 172.365 187.638 171.494 188.824C169.411 191.779 168.062 195.186 167.557 198.763C165.285 207.11 162.444 217.327 159.303 228.774V228.842H159.24L125.451 241.435L125.536 241.248L126.416 243.516C127.808 247.144 129.183 250.716 130.484 254.101L130.308 254.011L162.405 245.506L166.023 244.542C166.591 244.383 167.211 244.236 167.79 244.066C168.359 243.887 168.916 243.675 169.46 243.431C172.574 242.024 175.08 239.55 176.521 236.457C176.951 235.499 177.304 234.51 177.578 233.497C178.176 231.516 178.745 229.626 179.282 227.827C181.469 220.604 183.225 214.787 184.435 210.818L185.838 206.225L186.207 205.04C186.293 204.774 186.344 204.637 186.344 204.637C186.344 204.637 186.31 204.779 186.236 205.046C186.162 205.312 186.043 205.72 185.889 206.242C185.577 207.302 185.122 208.85 184.537 210.852L179.47 227.901C178.936 229.711 178.368 231.601 177.766 233.571C177.493 234.595 177.14 235.596 176.709 236.564C176.251 237.571 175.679 238.522 175.005 239.399C173.561 241.246 171.695 242.72 169.562 243.697C169.007 243.946 168.438 244.164 167.858 244.349C167.29 244.519 166.682 244.667 166.086 244.831L162.467 245.795L130.376 254.345L130.251 254.379L130.206 254.26C128.905 250.858 127.524 247.297 126.132 243.674L125.252 241.407L125.201 241.27L125.337 241.219L159.11 228.7L159.024 228.791C162.2 217.355 165.035 207.138 167.347 198.803C167.863 195.195 169.238 191.764 171.358 188.796C172.239 187.598 173.289 186.535 174.476 185.638C175.475 184.891 176.572 184.286 177.737 183.84C179.343 183.219 181.048 182.891 182.77 182.871C183.213 182.846 183.657 182.846 184.1 182.871L184.566 182.865Z" fill="#263238"/>
<path d="M161.03 222.039C160.883 222.071 160.731 222.083 160.581 222.073C160.174 222.07 159.768 222.022 159.371 221.931C158.048 221.624 156.827 220.981 155.826 220.066C154.811 219.17 154.021 218.05 153.52 216.794C153.429 216.579 153.355 216.357 153.298 216.131C153.247 215.964 153.209 215.793 153.185 215.62C153.139 215.337 153.122 215.178 153.145 215.178C153.168 215.178 153.298 215.791 153.713 216.709C154.254 217.904 155.039 218.972 156.019 219.845C156.993 220.728 158.16 221.372 159.428 221.727C160.394 221.988 161.03 221.976 161.03 222.039Z" fill="#263238"/>
<path d="M138.846 199.257C138.769 199.559 138.665 199.853 138.533 200.136C138.312 200.703 137.965 201.503 137.607 202.512C136.869 204.513 135.829 207.354 135.721 210.62C135.668 212.156 135.877 213.69 136.341 215.156C136.721 216.345 137.238 217.486 137.88 218.558C138.313 219.284 138.785 219.986 139.295 220.661C139.501 220.901 139.691 221.155 139.863 221.421C139.863 221.421 139.795 221.37 139.681 221.251C139.567 221.132 139.414 220.967 139.221 220.735C138.667 220.083 138.162 219.391 137.71 218.665C137.036 217.586 136.493 216.431 136.091 215.224C135.609 213.736 135.388 212.177 135.437 210.614C135.616 207.795 136.283 205.029 137.409 202.438C137.812 201.44 138.176 200.646 138.426 200.096C138.543 199.806 138.684 199.526 138.846 199.257Z" fill="#263238"/>
<path d="M162.456 232.766C162.094 231.939 161.632 231.158 161.081 230.442C160.455 229.791 159.751 229.22 158.985 228.741C159.261 228.764 159.526 228.855 159.757 229.007C160.943 229.641 161.85 230.692 162.302 231.956C162.42 232.209 162.472 232.488 162.456 232.766Z" fill="#263238"/>
<path d="M126.093 243.091C126.093 243.091 115.407 244.043 115.555 250.972L128.859 250.297L126.093 243.091Z" fill="#B78876"/>
<path d="M143.317 126.989C142.34 131.707 141.408 136.432 140.522 141.164C139.386 147.163 138.363 153.434 140.062 159.307C140.993 162.528 142.709 165.454 144.408 168.345C145.362 169.967 146.407 171.679 148.1 172.518C150.401 173.652 153.31 172.756 155.144 170.959C156.979 169.162 157.905 166.656 158.553 164.155C159.786 159.313 160.058 154.284 160.257 149.289C160.456 144.294 160.558 139.111 159.121 134.269C157.684 129.427 154.537 124.846 149.85 122.93" fill="#263238"/>
<path d="M144.09 123.202C145.427 122.164 147.051 121.561 148.742 121.472C150.106 118.717 153.338 117.453 156.36 116.869C160.814 116.001 160.337 115.882 164.478 117.708C168.62 119.533 174.516 124.693 175.272 129.161C175.958 133.08 177.216 136.877 179.004 140.433C180.14 142.785 182.356 144.401 183.668 146.669C184.376 147.899 184.793 149.274 184.886 150.689C184.98 152.104 184.748 153.522 184.208 154.834C183.14 157.391 180.873 159.648 181.089 162.403C181.209 164.008 181.152 165.153 181.788 166.633C183.941 171.645 182.924 178.324 178.3 181.216C173.676 184.107 166.984 183.098 163.41 178.948C160.309 175.364 159.712 170.25 160.002 165.522C160.292 160.793 161.382 156.093 161.076 151.347" fill="#263238"/>
<path d="M149.395 254.17L149.327 252.537L125.24 250.003L114.685 219.72L69.4829 218.699L83.1567 254.17C105.505 254.34 127.585 254.34 149.395 254.17Z" fill="#263238"/>
<path d="M94.5639 236.922C94.7971 237.327 95.1451 237.653 95.564 237.86C95.983 238.067 96.454 238.145 96.9175 238.085C97.381 238.025 97.8162 237.828 98.168 237.521C98.5199 237.214 98.7726 236.81 98.8942 236.359C99.0157 235.909 99.0007 235.433 98.8511 234.991C98.7014 234.549 98.4237 234.161 98.0533 233.876C97.6828 233.592 97.2361 233.424 96.7697 233.392C96.3034 233.361 95.8382 233.469 95.4331 233.702C94.89 234.014 94.4934 234.528 94.3304 235.132C94.1674 235.736 94.2514 236.38 94.5639 236.922Z" fill="white"/>
<path d="M160.365 181.131C165.785 181.131 170.659 176.521 170.5 169.672L171.477 130.55C171.494 129.731 171.203 128.935 170.66 128.321C170.117 127.706 169.362 127.318 168.546 127.233L152.395 125.532C151.075 125.393 149.741 125.522 148.473 125.912C147.204 126.301 146.028 126.943 145.014 127.797C144 128.652 143.17 129.703 142.574 130.886C141.978 132.07 141.628 133.361 141.545 134.683C141.158 140.875 140.925 148.455 141.658 153.076C143.135 162.369 150.276 163.554 150.276 163.554L150.1 170.046C149.827 176.963 155.014 181.125 160.365 181.125V181.131Z" fill="#B78876"/>
<path d="M145.157 139.73C145.154 140.038 145.271 140.335 145.482 140.559C145.694 140.784 145.985 140.917 146.293 140.932C146.445 140.944 146.597 140.926 146.742 140.878C146.886 140.831 147.02 140.755 147.134 140.655C147.248 140.555 147.342 140.433 147.408 140.297C147.474 140.16 147.513 140.012 147.521 139.86C147.525 139.551 147.409 139.253 147.197 139.029C146.985 138.804 146.693 138.671 146.384 138.658C146.233 138.646 146.08 138.664 145.936 138.711C145.792 138.759 145.658 138.835 145.544 138.935C145.429 139.035 145.336 139.157 145.27 139.293C145.203 139.43 145.165 139.578 145.157 139.73Z" fill="#263238"/>
<path d="M143.192 138.629C143.34 138.782 144.249 138.119 145.533 138.119C146.816 138.119 147.759 138.765 147.896 138.607C147.964 138.539 147.816 138.261 147.407 137.96C146.848 137.582 146.185 137.384 145.51 137.393C144.842 137.392 144.192 137.603 143.652 137.994C143.254 138.278 143.124 138.561 143.192 138.629Z" fill="#263238"/>
<path d="M157.565 139.967C157.56 140.276 157.676 140.574 157.888 140.799C158.1 141.023 158.392 141.156 158.701 141.169C158.853 141.183 159.006 141.165 159.151 141.118C159.296 141.071 159.43 140.995 159.545 140.895C159.66 140.795 159.754 140.673 159.821 140.536C159.887 140.399 159.926 140.25 159.934 140.098C159.937 139.79 159.82 139.492 159.608 139.268C159.396 139.044 159.106 138.91 158.797 138.896C158.645 138.883 158.492 138.9 158.347 138.947C158.202 138.995 158.068 139.07 157.953 139.17C157.838 139.27 157.744 139.393 157.678 139.53C157.611 139.666 157.572 139.815 157.565 139.967Z" fill="#263238"/>
<path d="M155.826 138.868C155.974 139.026 156.877 138.357 158.161 138.357C159.445 138.357 160.388 139.004 160.53 138.845C160.598 138.777 160.45 138.499 160.035 138.199C159.477 137.822 158.817 137.624 158.144 137.632C157.474 137.63 156.822 137.841 156.28 138.233C155.888 138.516 155.752 138.8 155.826 138.868Z" fill="#263238"/>
<path d="M151.162 148.382C150.485 148.171 149.785 148.045 149.077 148.008C148.748 147.973 148.435 147.905 148.378 147.684C148.353 147.344 148.43 147.005 148.6 146.709C148.907 145.921 149.231 145.088 149.571 144.22C150.918 140.665 151.895 137.745 151.747 137.694C151.599 137.643 150.395 140.478 149.049 144.027C148.725 144.906 148.413 145.728 148.117 146.539C147.914 146.934 147.854 147.386 147.947 147.82C147.995 147.936 148.068 148.039 148.161 148.123C148.255 148.206 148.366 148.268 148.486 148.302C148.672 148.352 148.863 148.377 149.054 148.376C149.754 148.469 150.462 148.471 151.162 148.382Z" fill="#263238"/>
<path d="M150.276 163.56C154.66 163.626 158.977 162.475 162.745 160.237C162.745 160.237 159.717 166.622 150.401 165.754L150.276 163.56Z" fill="#AA6550"/>
<path d="M151.707 151.471C151.949 151.162 152.267 150.92 152.631 150.77C152.994 150.62 153.391 150.567 153.781 150.615C154.064 150.641 154.339 150.722 154.59 150.856C154.841 150.989 155.062 151.172 155.241 151.392C155.413 151.606 155.515 151.867 155.534 152.141C155.552 152.415 155.486 152.688 155.343 152.923C155.136 153.157 154.861 153.323 154.557 153.399C154.253 153.475 153.933 153.457 153.639 153.348C153.033 153.133 152.476 152.801 151.997 152.373C151.854 152.269 151.73 152.141 151.634 151.993C151.585 151.922 151.559 151.838 151.559 151.752C151.559 151.666 151.585 151.582 151.634 151.511" fill="#AA6550"/>
<path d="M154.946 149.266C154.735 149.266 154.73 150.65 153.537 151.636C152.344 152.623 150.861 152.47 150.85 152.668C150.85 152.753 151.179 152.935 151.81 152.952C152.635 152.97 153.441 152.695 154.082 152.175C154.689 151.677 155.078 150.964 155.167 150.185C155.195 149.606 155.036 149.261 154.946 149.266Z" fill="#263238"/>
<path d="M155.247 136.622C155.372 136.974 156.656 136.809 158.167 136.991C159.678 137.172 160.893 137.558 161.092 137.269C161.183 137.116 160.967 136.792 160.479 136.452C159.826 136.03 159.082 135.77 158.309 135.692C157.541 135.603 156.763 135.694 156.036 135.959C155.474 136.186 155.196 136.458 155.247 136.622Z" fill="#263238"/>
<path d="M143.663 134.916C143.89 135.211 144.799 134.916 145.845 134.916C146.89 134.916 147.81 135.109 148.015 134.808C148.106 134.661 147.964 134.366 147.572 134.094C147.043 133.761 146.427 133.593 145.802 133.612C145.178 133.631 144.573 133.836 144.066 134.202C143.692 134.474 143.567 134.774 143.663 134.916Z" fill="#263238"/>
<path d="M141.737 133.141C145.242 131.111 148.657 129.234 150.827 125.832C152.037 129.234 154.4 130.935 157.536 132.744C160.672 134.552 164.177 135.613 167.648 136.65C165.892 138.351 165.659 141.101 166.063 143.511C166.466 145.92 167.392 148.239 167.545 150.677C167.744 153.932 166.551 157.124 166.477 160.384C166.375 164.858 168.352 169.082 170.289 173.113L178.703 168.22L177.493 146.419L177.595 130.992L164.478 118.824L147.867 120.639L141.737 133.141Z" fill="#263238"/>
<path d="M139.868 178.982C144.135 183.285 143.68 190.957 148.39 194.806C151.264 197.165 155.462 197.386 158.99 196.196C162.518 195.005 165.483 192.595 168.205 190.055C170.926 187.515 173.499 184.788 176.595 182.73C179.6 180.728 184.747 179.498 185.474 175.96C186.008 173.374 183.281 170.262 182.77 167.67C181.958 163.554 186.417 160.373 187.162 156.246C188.65 147.996 184.287 138.312 179.742 131.298C175.198 124.285 172.63 116.341 161.109 115.689C150.798 115.23 143.777 120.168 140.346 127.312C138.641 130.89 138.227 134.938 137.892 138.896C137.113 148.138 136.681 157.935 140.959 166.168C141.845 167.869 142.902 170.035 141.709 171.543C140.618 172.921 138.147 172.864 137.454 174.48C136.761 176.096 138.585 177.683 139.868 178.982ZM152.719 124.194C154.099 124.137 158.195 124.194 162.762 130.266C165.495 133.901 165.489 139.786 165.432 144.917C165.381 148.733 165.432 158.389 165.432 158.389C165.432 158.389 166.034 170.585 161.882 171.662C156.769 172.989 152.321 172.076 148.509 168.453C144.697 164.83 142.516 159.744 141.647 154.562C140.777 149.38 140.289 144.095 140.971 138.885C141.33 135.687 142.389 132.608 144.072 129.864C145.031 128.364 146.297 127.083 147.788 126.106C149.278 125.128 150.958 124.477 152.719 124.194Z" fill="#92E3A9" stroke="#263238" stroke-width="0.3" stroke-linecap="round" stroke-linejoin="round"/>
<g opacity="0.3">
<path opacity="0.3" d="M184.565 171.974C181.157 173.822 178.799 176.572 176.044 179.282C173.289 181.993 170.17 184.618 166.387 185.593C162.603 186.568 158.053 185.406 156.161 182.01C166.824 183.824 179.203 175.325 182.861 165.159C182.643 166.042 182.631 166.963 182.827 167.852C183.32 169.26 183.901 170.637 184.565 171.974Z" fill="black"/>
</g>
<g opacity="0.3">
<path opacity="0.3" d="M142.17 169.167C142.54 170.543 143.188 171.829 144.074 172.947C144.96 174.064 146.065 174.989 147.322 175.665C147.906 175.907 148.452 176.23 148.947 176.623C149.19 176.824 149.368 177.094 149.456 177.398C149.544 177.701 149.539 178.023 149.441 178.324C149.261 178.63 148.98 178.863 148.646 178.985C148.313 179.107 147.947 179.11 147.612 178.993C146.958 178.73 146.374 178.318 145.908 177.791C144.05 175.999 142.135 174.185 141.613 171.667C141.915 171.301 142.125 170.867 142.226 170.403C142.252 169.99 142.233 169.576 142.17 169.167Z" fill="black"/>
</g>
<path d="M182.015 167.171C181.977 167.287 181.923 167.398 181.856 167.5C181.737 167.71 181.584 168.033 181.339 168.419C180.671 169.525 179.935 170.589 179.135 171.605C177.959 173.123 176.657 174.54 175.244 175.841C173.522 177.456 171.569 178.807 169.449 179.849C168.331 180.337 167.181 180.748 166.007 181.08C164.914 181.397 163.802 181.643 162.678 181.817C160.776 182.126 158.843 182.198 156.923 182.032C155.632 181.915 154.355 181.671 153.111 181.306C152.668 181.187 152.339 181.051 152.111 180.972C151.992 180.939 151.878 180.892 151.771 180.83C151.771 180.83 152.259 180.966 153.145 181.193C154.39 181.517 155.662 181.728 156.946 181.822C158.843 181.958 160.751 181.866 162.627 181.55C163.736 181.37 164.833 181.12 165.91 180.802C167.072 180.471 168.211 180.064 169.319 179.583C171.411 178.543 173.342 177.206 175.051 175.614C176.462 174.332 177.769 172.941 178.959 171.452C179.771 170.453 180.529 169.412 181.231 168.334C181.487 167.96 181.657 167.648 181.799 167.449C181.864 167.351 181.937 167.258 182.015 167.171Z" fill="#263238"/>
<path d="M155.866 177.689C155.649 177.777 155.422 177.836 155.19 177.865C154.564 177.978 153.929 178.035 153.292 178.035C151.168 178.042 149.082 177.47 147.259 176.379C145.437 175.289 143.948 173.723 142.953 171.849C142.652 171.287 142.403 170.699 142.209 170.092C142.126 169.873 142.073 169.644 142.05 169.411C142.372 170.208 142.736 170.988 143.141 171.747C144.156 173.553 145.626 175.064 147.405 176.13C149.185 177.196 151.212 177.78 153.287 177.825C154.883 177.871 155.86 177.627 155.866 177.689Z" fill="#263238"/>
<path d="M153.656 191.739C153.761 191.695 153.872 191.667 153.985 191.654C154.201 191.603 154.553 191.558 154.94 191.456C156.107 191.205 157.259 190.885 158.388 190.497C162.106 189.181 165.605 187.313 168.767 184.958C171.923 182.593 174.913 180.015 177.714 177.241L180.293 174.746C180.577 174.469 180.816 174.247 180.998 174.072C181.077 173.989 181.164 173.915 181.259 173.851C181.196 173.944 181.124 174.032 181.043 174.111L180.373 174.826C179.805 175.438 178.936 176.317 177.862 177.389C175.093 180.216 172.111 182.828 168.943 185.202C165.759 187.573 162.22 189.428 158.456 190.696C157.313 191.068 156.146 191.36 154.962 191.569C154.548 191.654 154.212 191.682 153.991 191.711C153.881 191.734 153.768 191.743 153.656 191.739Z" fill="#263238"/>
<path d="M353.713 203.634L333.671 180.048L333.625 180.093C332.836 179.316 332.142 178.624 331.79 178.222C324.848 170.193 319.332 167.449 308.703 167.302L288.048 167.744C284.207 168.062 275.493 166.423 267.432 177.088C252.747 195.453 240.971 211.073 241.635 218.444C242.47 227.771 278.112 254.362 278.112 254.362L327.104 254.323L327.001 250.598L348.14 236.905C355.763 231.762 359.746 227.266 360.711 220.462C361.558 214.407 357.797 208.17 353.713 203.634ZM263.955 217.673C263.955 216.238 271.681 207.195 275.885 202.364L278.072 223.246L277.697 231.405L263.955 217.673ZM326.109 230.526L324.945 203.005L340.919 219.498L326.109 230.526Z" fill="#356F8B"/>
<path d="M295.495 215.159L259.28 233.023C258.318 233.498 257.923 234.661 258.399 235.621L270.106 259.261C270.581 260.222 271.746 260.615 272.708 260.141L308.923 242.277C309.885 241.802 310.279 240.639 309.804 239.679L298.097 216.038C297.622 215.078 296.457 214.685 295.495 215.159Z" fill="#E0E0E0"/>
<path d="M283.947 235.43C284.325 235.199 284.764 235.086 285.207 235.103C285.651 235.121 286.079 235.27 286.438 235.531C286.797 235.791 287.07 236.153 287.223 236.568C287.376 236.984 287.402 237.436 287.298 237.866C287.194 238.297 286.965 238.687 286.638 238.987C286.312 239.288 285.904 239.485 285.465 239.554C285.027 239.622 284.578 239.56 284.175 239.374C283.772 239.188 283.434 238.887 283.202 238.509C282.892 238.002 282.796 237.393 282.936 236.816C283.075 236.239 283.439 235.74 283.947 235.43Z" fill="white"/>
<path d="M324.638 183.421C324.645 183.481 324.645 183.542 324.638 183.602C324.638 183.738 324.638 183.909 324.638 184.13C324.638 184.612 324.638 185.292 324.638 186.154C324.638 187.934 324.672 190.474 324.695 193.61C324.729 199.903 324.973 208.589 325.462 218.183C325.95 227.776 326.45 236.457 326.717 242.745C326.853 245.886 326.944 248.415 326.995 250.195C326.995 251.057 327.03 251.737 327.041 252.219C327.041 252.44 327.041 252.61 327.041 252.746C327.047 252.807 327.047 252.867 327.041 252.928C327.035 252.867 327.035 252.807 327.041 252.746C327.041 252.61 327.041 252.44 327.007 252.219C327.007 251.737 326.944 251.085 326.905 250.195C326.814 248.42 326.683 245.88 326.53 242.756C326.183 236.451 325.712 227.776 325.189 218.194C324.666 208.612 324.485 199.903 324.507 193.61C324.507 190.48 324.507 187.94 324.547 186.154C324.547 185.292 324.547 184.612 324.575 184.13C324.575 183.909 324.575 183.738 324.575 183.602C324.591 183.54 324.612 183.48 324.638 183.421Z" fill="#263238"/>
<path d="M273.63 171.089C276.243 169.19 279.282 169.762 281.901 171.656C284.52 173.55 285.974 176.759 286.236 179.974C286.497 183.189 285.667 186.409 284.446 189.391C282.475 194.171 279.56 198.038 275.203 202.959L263.978 217.673L285.65 238.787L276.669 252.928L258.524 238.351C252.327 233.129 247.055 227.788 243.186 222.265" fill="#356F8B"/>
<path d="M243.181 222.282L243.311 222.452L243.692 222.963C244.027 223.411 244.527 224.097 245.203 224.924C247.148 227.349 249.234 229.657 251.452 231.836C252.872 233.248 254.491 234.762 256.298 236.372C258.104 237.982 260.138 239.575 262.297 241.305L276.726 252.86L276.527 252.894C279.317 248.5 282.344 243.726 285.497 238.747V238.929L274.317 228.043L263.831 217.837L263.74 217.752L263.814 217.65C267.79 212.462 271.551 207.529 275.05 202.942C277.188 200.594 279.171 198.109 280.987 195.503C282.608 193.13 283.919 190.559 284.889 187.855C285.81 185.454 286.243 182.895 286.162 180.325C286.067 178.163 285.407 176.064 284.248 174.236C283.293 172.765 281.964 171.576 280.396 170.789C279.247 170.178 277.952 169.891 276.652 169.961C275.846 170.024 275.062 170.256 274.351 170.641C273.863 170.902 273.636 171.078 273.63 171.066L273.8 170.936C273.968 170.812 274.145 170.7 274.329 170.601C275.041 170.198 275.831 169.951 276.647 169.876C277.965 169.789 279.282 170.068 280.453 170.681C282.05 171.462 283.406 172.659 284.378 174.145C285.569 175.996 286.251 178.128 286.355 180.325C286.45 182.888 286.041 185.444 285.151 187.849C284.183 190.577 282.869 193.17 281.242 195.566C279.427 198.182 277.444 200.678 275.306 203.039C271.806 207.626 268.04 212.564 264.086 217.78V217.588L274.579 227.793L285.753 238.685L285.838 238.77L285.776 238.867C282.617 243.845 279.584 248.613 276.789 253.002L276.709 253.132L276.59 253.036L262.189 241.441C260.036 239.706 257.991 238.095 256.201 236.485C254.412 234.875 252.793 233.361 251.367 231.949C249.153 229.752 247.075 227.421 245.146 224.97C244.482 224.119 244.01 223.439 243.669 222.98C243.51 222.758 243.391 222.583 243.306 222.458C243.22 222.333 243.181 222.282 243.181 222.282Z" fill="#263238"/>
<path d="M348.708 219.107C348.321 219.017 347.942 218.899 347.572 218.756C345.755 218.18 343.79 218.282 342.044 219.045C341.689 219.225 341.323 219.383 340.948 219.515C341.24 219.235 341.581 219.01 341.953 218.852C342.827 218.41 343.784 218.155 344.762 218.105C345.741 218.054 346.719 218.208 347.634 218.557C348.022 218.676 348.385 218.862 348.708 219.107Z" fill="#263238"/>
<path d="M290.087 252.265L286.145 254.221C285.188 254.696 284.114 254.885 283.052 254.766C281.99 254.648 280.985 254.226 280.157 253.552L277.697 251.55L284.514 240.851C285.315 241.197 288.61 241.662 289.746 242.064C290.73 242.409 291.766 242.581 292.808 242.575C293.972 242.599 295.135 242.504 296.279 242.291C296.353 242.263 296.455 242.24 296.524 242.212C296.678 242.148 296.845 242.119 297.012 242.127C297.984 242.036 298.756 243.057 298.211 243.828C297.665 244.599 295.007 245.699 291.61 245.602H291.451C288.468 245.602 291.206 248.091 292.973 249.571C293.286 249.823 293.529 250.151 293.678 250.523C293.827 250.895 293.878 251.3 293.825 251.698C293.816 251.841 293.776 251.981 293.707 252.107C293.639 252.233 293.543 252.343 293.428 252.429C292.655 252.928 290.087 252.265 290.087 252.265Z" fill="#A36853"/>
<path d="M299.211 177.15C293.984 177.15 289.286 172.705 289.332 166.083L288.389 128.372H288.497C288.481 127.581 288.765 126.812 289.291 126.22C289.817 125.627 290.548 125.254 291.337 125.175L306.914 123.53C308.186 123.396 309.473 123.521 310.695 123.896C311.918 124.271 313.053 124.889 314.03 125.714C315.007 126.538 315.807 127.551 316.381 128.692C316.956 129.833 317.293 131.078 317.372 132.353C317.747 138.323 317.975 145.631 317.264 150.088C315.821 159.063 308.942 160.209 308.942 160.209L309.107 166.445C309.374 173.113 304.369 177.127 299.211 177.127V177.15Z" fill="#A36853"/>
<path d="M313.873 137.234C313.873 137.53 313.757 137.814 313.551 138.026C313.344 138.238 313.062 138.361 312.765 138.368C312.619 138.381 312.471 138.363 312.331 138.317C312.191 138.271 312.062 138.198 311.951 138.101C311.84 138.004 311.75 137.886 311.686 137.754C311.622 137.621 311.585 137.477 311.578 137.331C311.578 137.03 311.698 136.741 311.911 136.529C312.124 136.316 312.413 136.197 312.714 136.197C313.004 136.19 313.284 136.293 313.5 136.486C313.715 136.679 313.849 136.946 313.873 137.234Z" fill="#263238"/>
<path d="M315.759 136.168C315.617 136.322 314.748 135.675 313.487 135.681C312.226 135.687 311.345 136.299 311.215 136.151C311.084 136.004 311.294 135.811 311.692 135.522C312.227 135.152 312.864 134.954 313.515 134.955C314.158 134.951 314.787 135.149 315.31 135.522C315.708 135.834 315.839 136.1 315.759 136.168Z" fill="#263238"/>
<path d="M301.915 137.461C301.918 137.613 301.892 137.763 301.836 137.904C301.781 138.045 301.698 138.173 301.592 138.282C301.486 138.39 301.36 138.476 301.22 138.535C301.08 138.593 300.93 138.624 300.778 138.624C300.484 138.638 300.196 138.538 299.975 138.344C299.753 138.151 299.616 137.879 299.591 137.586C299.587 137.435 299.614 137.284 299.669 137.143C299.725 137.002 299.808 136.874 299.914 136.766C300.02 136.657 300.146 136.571 300.286 136.513C300.426 136.454 300.576 136.424 300.727 136.424C301.021 136.409 301.309 136.51 301.531 136.703C301.752 136.897 301.89 137.169 301.915 137.461Z" fill="#263238"/>
<path d="M303.585 136.401C303.443 136.554 302.568 135.908 301.313 135.908C300.057 135.908 299.165 136.531 299.04 136.378C298.972 136.316 299.12 136.044 299.518 135.755C300.052 135.381 300.689 135.183 301.341 135.188C301.984 135.183 302.613 135.382 303.136 135.755C303.528 136.061 303.659 136.333 303.585 136.401Z" fill="#263238"/>
<path d="M308.084 145.575C308.736 145.368 309.412 145.246 310.095 145.212C310.413 145.178 310.714 145.116 310.766 144.9C310.792 144.574 310.719 144.248 310.555 143.965C310.254 143.199 309.948 142.4 309.618 141.561C308.317 138.159 307.38 135.324 307.516 135.267C307.652 135.21 308.823 137.949 310.118 141.373C310.436 142.218 310.731 143.023 311.016 143.794C311.216 144.176 311.275 144.616 311.18 145.036C311.134 145.146 311.063 145.244 310.974 145.324C310.884 145.403 310.778 145.462 310.663 145.495C310.487 145.542 310.306 145.567 310.124 145.569C309.447 145.655 308.762 145.657 308.084 145.575Z" fill="#263238"/>
<path d="M308.942 160.208C304.713 160.271 300.55 159.162 296.916 157.005C296.916 157.005 300.029 163.746 309.01 162.907L308.942 160.208Z" fill="#8F5039"/>
<path d="M304.141 134.235C304.022 134.575 302.784 134.411 301.329 134.586C299.875 134.762 298.699 135.153 298.489 134.859C298.398 134.711 298.603 134.394 299.057 134.071C299.69 133.671 300.405 133.42 301.15 133.339C301.894 133.257 302.647 133.347 303.352 133.6C303.925 133.832 304.198 134.076 304.141 134.235Z" fill="#263238"/>
<path d="M315.31 132.591C315.094 132.874 314.236 132.591 313.214 132.591C312.191 132.591 311.316 132.778 311.117 132.483C311.027 132.341 311.169 132.063 311.543 131.797C312.05 131.47 312.646 131.309 313.248 131.338C313.851 131.345 314.436 131.544 314.918 131.905C315.287 132.165 315.406 132.455 315.31 132.591Z" fill="#263238"/>
<path d="M288.491 136.939C290.019 136.667 291.24 137.138 291.672 138.64C292.314 140.88 291.876 141.986 291.984 143.528L294.257 142.847C293.689 137.682 294.978 133.861 294.416 128.673C297.574 129.693 301.915 127.743 303.261 124.477C304.601 125.46 306.193 126.044 307.852 126.16C309.511 126.277 311.169 125.921 312.634 125.135C313.003 125.804 313.575 126.34 314.268 126.664C314.962 126.988 315.74 127.084 316.492 126.938C318.196 126.456 320.002 124.035 320.497 122.317C321.383 119.227 320.951 114.793 318.44 112.78C315.929 110.767 310.896 111.249 308.942 113.806C308.169 114.816 308.078 116.681 306.834 116.936C305.726 117.163 304.721 116.369 303.71 115.848C300.557 114.288 296.2 116.358 295.421 119.783C292.785 118.212 289.593 117.186 286.644 118.031C283.696 118.875 281.344 122.141 282.35 125.033C282.764 126.246 283.702 127.301 283.804 128.565C284.003 131.032 281.037 133.265 281.986 135.55C282.514 136.832 284.065 137.399 284.764 138.595C285.548 139.933 285.059 141.623 285.128 143.171C285.23 145.756 286.559 149.583 289.042 150.32" fill="#263238"/>
<path d="M288.723 136.911C288.343 136.965 287.983 137.12 287.684 137.361C287.384 137.601 287.154 137.918 287.019 138.277C286.689 138.964 286.531 139.721 286.559 140.483C286.509 141.673 286.892 142.841 287.638 143.771C288.021 144.223 288.536 144.544 289.11 144.69C289.685 144.835 290.29 144.797 290.842 144.582" fill="#A36853"/>
<path d="M290.275 142.638C290.275 142.666 289.94 142.791 289.411 142.604C289.106 142.487 288.838 142.291 288.633 142.037C288.387 141.707 288.243 141.313 288.218 140.903C288.19 140.511 288.271 140.118 288.451 139.769C288.604 139.482 288.822 139.235 289.088 139.049C289.553 138.743 289.917 138.76 289.911 138.794C289.669 138.917 289.438 139.059 289.218 139.219C288.972 139.424 288.779 139.686 288.656 139.983C288.533 140.279 288.484 140.601 288.514 140.92C288.53 141.235 288.629 141.54 288.802 141.804C288.974 142.068 289.214 142.281 289.497 142.422C289.75 142.514 290.01 142.586 290.275 142.638Z" fill="#8F5039"/>
<path d="M304.141 149.952C305.277 150.728 307.425 150.32 308.231 149.169C306.498 148.226 304.901 147.053 303.482 145.682C303.482 145.682 301.869 148.358 304.141 149.952Z" fill="#FAFAFA"/>
<path d="M307.806 152.571C307.344 152.388 306.858 152.273 306.363 152.231C305.869 152.272 305.384 152.381 304.92 152.554C304.92 152.554 305.005 152.378 305.261 152.225C305.597 152.032 305.978 151.931 306.366 151.931C306.754 151.931 307.134 152.032 307.471 152.225C307.726 152.39 307.84 152.543 307.806 152.571Z" fill="#AA6550"/>
<path d="M293.984 188.875C296.382 185.344 298.562 181.671 300.512 177.875C302.858 173.408 302.46 173.181 301.898 172.982C300.387 172.444 297.472 180.676 297.086 178.522C296.7 176.367 301.801 168.883 300.199 168.407C298.109 167.76 295.217 176.441 294.922 177.155C294.626 177.87 293.587 177.433 293.894 176.804C294.331 175.902 298.682 166.269 296.632 165.617C295.496 165.26 295.086 167.381 295.086 167.381C295.086 167.381 291.678 176.707 290.718 176.367C289.758 176.027 291.57 170.476 292.314 168.651C293.058 166.825 292.502 165.742 291.439 166.059C290.712 166.275 288.298 171.809 287.605 173.629C286.912 175.449 285.094 180.489 283.992 177.229C283.992 177.178 283.952 177.133 283.929 177.082C282.935 173.839 281.089 171.673 280.129 171.412C279.169 171.151 278.47 172.206 278.868 173.113C278.919 173.271 279.004 173.416 279.118 173.538C279.169 173.595 279.22 173.68 279.271 173.742C279.841 174.754 280.305 175.822 280.657 176.929C280.994 177.914 281.161 178.949 281.151 179.99C281.151 181.198 281.719 184.713 281.674 185.581" fill="#FFAD9D"/>
<path d="M281.106 184.294L267.364 211.509C267.364 211.509 259.593 189.074 255.4 180.149C253.804 176.747 250.6 174.389 247.527 172.824V172.762L246.885 172.506C244.679 171.454 242.362 170.654 239.977 170.119C225.479 165.975 211.823 167.421 196.013 172.954C196.013 172.954 187.804 175.154 183.822 185.842C180.243 195.481 176.226 210.222 175.539 212.83C170.614 229.375 177.647 238.589 187.435 237.455C191.468 236.82 194.899 233.486 196.416 232.193L201.591 227.34L201.705 231.099L195.894 254.317L255.395 254.192L244.658 226.699L247.044 214.095L251.128 223.779C252.411 226.824 254.557 229.429 257.302 231.275C260.047 233.12 263.272 234.126 266.582 234.169C269.891 234.212 273.141 233.29 275.933 231.515C278.725 229.741 280.938 227.192 282.299 224.182L296.212 189.221L281.106 184.294Z" fill="#92E3A9" stroke="#263238" stroke-width="0.3" stroke-linecap="round" stroke-linejoin="round"/>
<path d="M209.453 218.222C209.296 218.491 209.118 218.747 208.919 218.988C208.562 219.464 208.022 220.15 207.335 220.972C205.965 222.622 203.994 224.839 201.705 227.181C199.415 229.522 197.234 231.535 195.598 232.924C194.786 233.627 194.11 234.171 193.632 234.534C193.398 234.747 193.143 234.937 192.871 235.101C193.083 234.873 193.313 234.663 193.558 234.472C194.013 234.081 194.666 233.508 195.462 232.771C197.052 231.337 199.205 229.307 201.489 226.971C203.773 224.635 205.772 222.435 207.17 220.836C207.88 220.031 208.437 219.367 208.823 218.914C209.013 218.666 209.224 218.434 209.453 218.222Z" fill="#263238"/>
<path d="M244.851 225.814C244.846 225.708 244.856 225.601 244.879 225.497C244.925 225.259 244.97 224.964 245.032 224.601L245.652 221.301C246.174 218.517 246.89 214.673 247.458 210.392C247.602 209.323 247.731 208.281 247.844 207.268C247.985 206.305 248.04 205.332 248.009 204.36C247.904 202.711 247.659 201.074 247.276 199.466C246.97 198.083 246.708 196.972 246.532 196.195C246.453 195.804 246.407 195.498 246.384 195.293C246.371 195.186 246.371 195.078 246.384 194.97C246.421 195.071 246.444 195.176 246.453 195.282C246.492 195.486 246.561 195.787 246.657 196.172C246.845 196.938 247.157 198.038 247.492 199.421C247.908 201.036 248.176 202.685 248.293 204.348C248.327 205.333 248.278 206.32 248.146 207.296C248.038 208.311 247.907 209.36 247.765 210.432C247.197 214.724 246.441 218.568 245.868 221.341C245.572 222.696 245.334 223.807 245.157 224.624C245.072 224.981 245.004 225.276 244.953 225.514C244.929 225.617 244.895 225.718 244.851 225.814Z" fill="#263238"/>
<path d="M266.154 218.165C266.371 215.93 266.783 213.718 267.387 211.554C267.325 212.685 267.163 213.808 266.904 214.911C266.747 216.015 266.496 217.104 266.154 218.165Z" fill="#263238"/>
<path d="M268.25 218.971C267.965 217.711 267.775 216.432 267.682 215.143C267.483 213.866 267.382 212.575 267.381 211.282C267.666 212.542 267.856 213.821 267.949 215.109C268.148 216.387 268.249 217.678 268.25 218.971Z" fill="#263238"/>
<path d="M224.36 254.192C224.281 254.192 224.212 245.075 224.212 233.837C224.212 222.599 224.281 213.477 224.36 213.477C224.44 213.477 224.508 222.588 224.508 233.837C224.508 245.086 224.44 254.192 224.36 254.192Z" fill="#263238"/>
<g opacity="0.2">
<path opacity="0.2" d="M246.686 196.615C249.475 201.95 251.901 207.257 252.122 213.273C252.293 217.95 250.418 221.851 252.355 226.115C252.258 226.189 250.605 222.515 249.872 220.791C248.367 217.242 247.032 214.072 247.032 214.072C247.032 214.072 248.066 206.061 248.168 204.694C248.27 203.328 246.686 196.615 246.686 196.615Z" fill="black"/>
</g>
<g opacity="0.2">
<path opacity="0.2" d="M177.647 223.722C177.647 226.398 175.982 217.564 177.539 215.393C178.635 213.868 180.51 213.125 182.328 212.677C184.146 212.229 186.049 211.928 187.662 210.976C189.747 209.746 191.071 207.574 192.531 205.669C193.991 203.764 195.939 195.605 198.348 195.429V207.336C192.579 211.063 186.58 214.42 180.385 217.389C179.503 218.189 178.802 219.168 178.33 220.26C177.858 221.352 177.625 222.532 177.647 223.722Z" fill="black"/>
</g>
<g opacity="0.2">
<path opacity="0.2" d="M201.574 227.345C205.466 225.163 208.306 222.243 212.703 221.489C216.935 220.74 221.292 221.489 225.576 221.194C225.345 219.035 225.108 216.873 224.866 214.707L212.612 214.571L201.574 227.345Z" fill="black"/>
</g>
<path d="M198.348 195.293C198.427 195.293 198.495 197.941 198.495 201.207C198.495 204.473 198.427 207.126 198.348 207.126C198.198 205.157 198.148 203.181 198.2 201.207C198.149 199.235 198.198 197.261 198.348 195.293Z" fill="#263238"/>
<path d="M177.635 223.66C177.543 223.316 177.52 222.958 177.567 222.605C177.624 221.751 177.828 220.913 178.169 220.128C178.505 219.342 178.976 218.621 179.561 217.996C179.785 217.721 180.058 217.49 180.367 217.315C179.602 218.206 178.955 219.191 178.441 220.247C178.018 221.342 177.746 222.491 177.635 223.66Z" fill="#263238"/>
<path d="M180.084 217.497C180.39 217.416 180.689 217.308 180.976 217.174C181.544 216.947 182.362 216.607 183.356 216.136C185.344 215.229 188.054 213.868 190.929 212.167C193.803 210.466 196.308 208.794 198.064 207.512C198.944 206.866 199.649 206.333 200.12 205.953C200.376 205.767 200.615 205.561 200.836 205.335C200.557 205.487 200.291 205.661 200.041 205.857L197.933 207.331C196.144 208.567 193.633 210.217 190.764 211.901C187.895 213.585 185.214 214.957 183.254 215.915L180.925 217.049C180.632 217.173 180.35 217.323 180.084 217.497Z" fill="#263238"/>
<path d="M254.73 144.503C253.753 143.227 252.202 142.235 251.889 140.676C251.497 138.584 253.594 136.622 253.213 134.524C252.963 133.089 251.639 132.08 250.287 131.525C248.935 130.969 247.447 130.702 246.209 129.96C244.722 129.008 243.581 127.605 242.953 125.957C242.768 125.506 242.607 125.047 242.471 124.579C242.344 123.577 242.114 122.591 241.783 121.636C241.732 121.387 241.687 121.137 241.641 120.888L241.704 121.455C241.515 120.983 241.267 120.537 240.965 120.128C239.926 118.745 237.846 117.974 236.42 118.943L237.102 118.49C236.24 116.409 234.855 114.585 233.081 113.195C231.307 111.804 229.203 110.894 226.973 110.552C226.123 110.433 225.262 110.404 224.406 110.467C221.344 110.308 216.918 111.198 215.049 112.383C212.663 113.891 210.22 115.961 209.022 118.518C208.38 119.896 207.942 121.489 206.749 122.407C205.125 123.632 202.847 123.156 200.819 123.383C197.478 123.763 194.57 126.32 193.434 129.478C192.905 131.076 192.714 132.767 192.875 134.443C193.035 136.119 193.543 137.743 194.365 139.213C194.717 139.865 195.132 140.619 194.854 141.305C194.566 141.814 194.116 142.213 193.576 142.439C192.214 143.14 191.126 144.276 190.485 145.665C189.917 147.077 190.133 148.863 191.28 149.861C191.762 150.244 192.337 150.491 192.946 150.578C193.555 150.665 194.177 150.588 194.746 150.354C194.407 151.208 194.228 152.117 194.217 153.036C194.193 154.04 194.439 155.032 194.93 155.908C195.421 156.785 196.138 157.514 197.007 158.02C198.785 158.944 201.273 158.456 202.318 156.75C202.312 158.008 202.646 159.245 203.287 160.329C203.927 161.413 204.849 162.304 205.956 162.907C207.062 163.51 208.311 163.803 209.571 163.756C210.831 163.708 212.055 163.321 213.112 162.635C213.953 162.068 214.816 161.32 215.81 161.501C216.805 161.683 217.367 162.635 218.049 163.327C219.867 165.215 222.968 165.43 225.36 164.359C227.752 163.287 229.513 161.144 230.779 158.853C231.221 159.513 231.84 160.035 232.565 160.359C233.291 160.684 234.093 160.797 234.88 160.687C235.667 160.577 236.407 160.248 237.016 159.737C237.624 159.226 238.075 158.554 238.318 157.799C239.203 158.942 240.419 159.786 241.801 160.217C243.183 160.648 244.665 160.645 246.045 160.208C247.425 159.772 248.637 158.923 249.518 157.776C250.399 156.629 250.905 155.239 250.969 153.796C251.968 153.648 252.912 153.243 253.706 152.621C254.5 151.998 255.118 151.179 255.499 150.246C255.879 149.312 256.009 148.295 255.875 147.296C255.741 146.297 255.348 145.35 254.736 144.548L254.73 144.503ZM197.598 146.255C197.598 146.255 197.598 146.255 197.598 146.221L197.654 146.193L197.598 146.255Z" fill="#263238"/>
<path d="M233.637 160.48C233.637 160.48 240.914 159.278 242.419 149.804C243.169 145.092 242.93 137.37 242.533 131.059C242.448 129.712 242.092 128.396 241.484 127.19C240.877 125.985 240.031 124.914 238.999 124.042C237.966 123.171 236.767 122.517 235.475 122.12C234.182 121.723 232.823 121.591 231.478 121.733L215.003 123.473C214.168 123.561 213.397 123.96 212.843 124.591C212.289 125.221 211.993 126.037 212.015 126.875L213.748 168.027C212.549 168.282 209.828 168.872 208.493 169.257C208.493 169.257 221.23 197.669 224.348 197.34C227.467 197.011 239.931 170.125 239.931 170.125C237.76 169.472 235.557 168.932 233.33 168.509C233.294 165.829 233.397 163.15 233.637 160.48Z" fill="#FFAD9D"/>
<path d="M238.852 136.219C238.855 136.535 238.735 136.84 238.516 137.069C238.298 137.297 237.998 137.432 237.682 137.444C237.526 137.46 237.369 137.444 237.22 137.397C237.07 137.35 236.933 137.273 236.815 137.17C236.697 137.067 236.601 136.942 236.535 136.8C236.468 136.659 236.431 136.506 236.426 136.349C236.423 136.033 236.544 135.729 236.762 135.5C236.981 135.271 237.28 135.137 237.597 135.125C237.751 135.112 237.907 135.131 238.055 135.18C238.202 135.228 238.338 135.306 238.455 135.408C238.572 135.51 238.668 135.634 238.736 135.773C238.804 135.913 238.843 136.064 238.852 136.219Z" fill="#263238"/>
<path d="M240.857 135.097C240.704 135.255 239.784 134.575 238.471 134.581C237.159 134.586 236.199 135.238 236.063 135.08C235.989 135.006 236.142 134.722 236.563 134.416C237.134 134.03 237.81 133.827 238.5 133.832C239.181 133.831 239.845 134.046 240.397 134.444C240.772 134.739 240.931 135.028 240.857 135.097Z" fill="#263238"/>
<path d="M226.212 136.463C226.215 136.78 226.094 137.085 225.874 137.314C225.654 137.543 225.353 137.677 225.036 137.687C224.88 137.704 224.723 137.688 224.574 137.641C224.424 137.594 224.287 137.517 224.169 137.414C224.051 137.311 223.955 137.185 223.889 137.044C223.822 136.903 223.785 136.749 223.78 136.593C223.777 136.276 223.898 135.97 224.118 135.742C224.338 135.513 224.639 135.379 224.956 135.368C225.111 135.356 225.267 135.375 225.414 135.423C225.562 135.472 225.698 135.55 225.815 135.652C225.932 135.754 226.027 135.878 226.095 136.017C226.164 136.156 226.203 136.308 226.212 136.463Z" fill="#263238"/>
<path d="M227.979 135.34C227.831 135.499 226.905 134.819 225.599 134.824C224.292 134.83 223.327 135.482 223.185 135.323C223.116 135.249 223.27 134.966 223.69 134.66C224.258 134.269 224.932 134.061 225.622 134.064C226.303 134.064 226.967 134.279 227.519 134.677C227.917 134.966 228.053 135.272 227.979 135.34Z" fill="#263238"/>
<path d="M232.734 145.036C233.425 144.82 234.141 144.693 234.864 144.656C235.194 144.622 235.512 144.554 235.569 144.327C235.598 143.982 235.521 143.636 235.347 143.335C235.029 142.53 234.705 141.68 234.359 140.795C232.984 137.178 231.99 134.201 232.138 134.144C232.285 134.088 233.512 136.979 234.887 140.602L235.836 143.159C236.047 143.562 236.108 144.026 236.006 144.469C235.957 144.589 235.879 144.696 235.781 144.781C235.682 144.865 235.565 144.926 235.438 144.957C235.252 145.005 235.062 145.031 234.87 145.036C234.161 145.124 233.443 145.124 232.734 145.036Z" fill="#263238"/>
<path d="M233.637 160.481C229.167 160.543 224.767 159.365 220.929 157.079C220.929 157.079 224.013 163.582 233.512 162.697L233.637 160.481Z" fill="#ED9482"/>
<path d="M229.047 147.083C229.335 146.88 229.662 146.74 230.007 146.669C230.181 146.637 230.36 146.66 230.52 146.735C230.68 146.811 230.812 146.934 230.899 147.088C230.935 147.201 230.98 147.311 231.035 147.417C231.228 147.678 231.631 147.581 231.938 147.672C232.054 147.721 232.159 147.792 232.247 147.882C232.335 147.971 232.405 148.077 232.452 148.194C232.499 148.31 232.522 148.435 232.521 148.56C232.52 148.686 232.493 148.81 232.444 148.925C232.33 149.155 232.17 149.36 231.975 149.528C231.78 149.696 231.553 149.822 231.308 149.9C230.665 150.165 229.964 150.26 229.274 150.178C229.032 150.169 228.795 150.109 228.579 150.001C228.362 149.894 228.171 149.741 228.018 149.555C227.875 149.304 227.808 149.017 227.825 148.729C227.842 148.441 227.943 148.165 228.115 147.933C228.468 147.472 228.91 147.086 229.416 146.799" fill="#ED9482"/>
<path d="M228.882 145.943C229.092 145.943 229.098 147.349 230.314 148.353C231.53 149.356 233.041 149.203 233.052 149.402C233.052 149.492 232.717 149.68 232.075 149.697C231.248 149.705 230.444 149.424 229.803 148.903C229.175 148.401 228.768 147.675 228.666 146.879C228.627 146.306 228.786 145.932 228.882 145.943Z" fill="#263238"/>
<path d="M228.569 133.055C228.439 133.407 227.132 133.242 225.598 133.424C224.065 133.605 222.815 134.03 222.616 133.707C222.525 133.56 222.741 133.225 223.241 132.879C223.911 132.458 224.668 132.193 225.456 132.107C226.243 132.02 227.04 132.114 227.786 132.38C228.342 132.607 228.626 132.885 228.569 133.055Z" fill="#263238"/>
<path d="M240.375 132.131C240.142 132.432 239.239 132.131 238.153 132.131C237.068 132.131 236.154 132.33 235.944 132.018C235.847 131.87 235.995 131.57 236.392 131.292C236.932 130.955 237.559 130.786 238.195 130.805C238.832 130.824 239.448 131.031 239.966 131.4C240.352 131.695 240.477 132.001 240.375 132.131Z" fill="#263238"/>
<path d="M236.983 120.349C236.629 122.028 235.941 123.618 234.961 125.027C233.981 126.436 232.728 127.635 231.276 128.553C229.824 129.47 228.203 130.089 226.508 130.372C224.813 130.654 223.078 130.595 221.406 130.198C221.132 132.279 220.324 134.254 219.061 135.932C217.798 137.611 216.123 138.936 214.197 139.78C216.824 144.533 217.895 149.987 217.259 155.378C216.981 157.646 216.316 160.067 214.589 161.615C211.953 163.973 207.511 163.401 204.977 160.94C202.546 158.575 201.688 154.879 202.376 151.562C203.063 148.245 205.148 145.325 207.767 143.193C206.663 143.005 205.635 142.513 204.796 141.773C203.958 141.032 203.343 140.074 203.021 139.004C202.698 137.934 202.681 136.796 202.972 135.717C203.262 134.638 203.849 133.661 204.665 132.897C205.409 132.194 206.369 131.672 206.937 130.816C207.505 129.96 207.596 129.007 207.92 128.094C208.766 125.707 210.902 124.057 212.936 122.538C214.64 121.256 216.549 119.918 218.697 119.924C219.833 119.924 220.969 120.321 222.105 120.168C223.667 119.958 224.889 118.773 226.178 117.9C227.972 116.567 230.204 115.96 232.427 116.199C234.626 116.545 236.676 118.183 237.091 120.361" fill="#263238"/>
<path d="M236.136 121.285C235.801 123.116 236.704 124.993 238.079 126.274C239.454 127.556 241.152 128.35 242.851 129.109C242.259 127.308 241.432 125.592 240.391 124.006C239.866 123.21 239.188 122.525 238.396 121.992C237.605 121.459 236.715 121.087 235.778 120.899" fill="#263238"/>
<path d="M194.394 143.125C194.329 142.934 194.311 142.729 194.343 142.53C194.427 141.951 194.732 141.427 195.195 141.067C195.943 140.524 196.865 140.273 197.785 140.364C198.848 140.364 200.024 140.715 201.325 140.636C202.028 140.577 202.708 140.353 203.309 139.981C203.909 139.61 204.413 139.102 204.778 138.499C205.184 137.824 205.407 137.057 205.426 136.27C205.483 135.46 205.426 134.609 205.454 133.725C205.463 132.797 205.752 131.894 206.284 131.133C206.875 130.374 207.66 129.787 208.556 129.432C210.346 128.622 212.385 128.61 214.339 128.247C215.309 128.09 216.243 127.764 217.1 127.284C217.903 126.773 218.599 126.113 219.151 125.339C220.259 123.819 221.003 122.124 222.02 120.678C223.242 118.863 225.04 117.509 227.125 116.836C229.21 116.162 231.462 116.208 233.518 116.964C234.371 117.272 235.176 117.697 235.91 118.229C236.546 118.665 237.111 119.197 237.585 119.805C237.544 119.775 237.506 119.741 237.472 119.703L237.159 119.391C236.75 119.002 236.312 118.646 235.847 118.325C234.124 117.14 232.071 116.527 229.979 116.573C228.443 116.625 226.941 117.039 225.596 117.78C224.25 118.52 223.099 119.568 222.236 120.837C221.242 122.254 220.503 123.95 219.395 125.515C218.822 126.32 218.097 127.006 217.259 127.533C216.38 128.033 215.418 128.373 214.419 128.537C212.419 128.905 210.442 128.917 208.693 129.671C207.843 130.008 207.099 130.564 206.534 131.281C206.03 131.995 205.757 132.846 205.75 133.719C205.699 134.575 205.75 135.42 205.71 136.265C205.682 137.092 205.441 137.898 205.011 138.606C204.623 139.238 204.09 139.767 203.456 140.152C202.821 140.537 202.104 140.765 201.364 140.818C200.007 140.886 198.836 140.534 197.797 140.506C196.911 140.402 196.017 140.626 195.286 141.135C194.836 141.473 194.528 141.966 194.422 142.519C194.387 142.719 194.378 142.923 194.394 143.125Z" fill="#FAFAFA"/>
<path d="M208.505 186.891L209.107 201.995L210.63 216.453L226.723 215.767L225.564 187.219L208.505 186.891Z" fill="#263238"/>
<path d="M206.142 186.84L206.744 201.995L208.266 216.454L224.36 215.767L223.201 187.174L206.142 186.84Z" fill="#455A64"/>
<path d="M204.63 218.222C208.902 218.028 213.157 217.574 217.373 216.862C222.36 216.062 222.309 215.614 222.133 215.042C221.656 213.511 213.305 216.108 214.805 214.509C216.305 212.91 225.354 212.524 224.786 210.948C224.053 208.89 215.356 211.77 214.606 211.957C213.856 212.144 213.583 211.061 214.271 210.925C215.259 210.733 225.593 208.453 224.888 206.423C224.502 205.289 222.553 206.242 222.553 206.242C222.553 206.242 213.021 209.077 212.72 208.13C212.419 207.183 217.963 205.295 219.872 204.785C221.781 204.275 222.321 203.192 221.429 202.517C220.821 202.069 214.935 203.447 213.061 203.985C211.186 204.524 206.051 206.078 208.005 203.243C208.039 203.197 208.062 203.152 208.09 203.107C210.095 200.374 210.726 197.601 210.362 196.671C209.999 195.741 208.732 195.826 208.249 196.671C208.154 196.808 208.088 196.962 208.056 197.125C208.056 197.199 208.005 197.295 207.982 197.374C207.518 198.433 206.947 199.442 206.278 200.385C205.69 201.246 204.958 202 204.113 202.613C203.142 203.322 200.705 205.919 199.938 206.378" fill="#FFAD9D"/>
<path d="M200.944 205.544L209.454 218.222L195.428 232.499L195.905 209.343L200.944 205.544Z" fill="#92E3A9"/>
<path d="M104.534 88.791C104.534 89.0008 102.988 89.1766 101.074 89.1766C99.1595 89.1766 97.6143 89.0008 97.6143 88.791C97.6143 88.5812 99.1651 88.4111 101.074 88.4111C102.983 88.4111 104.534 88.5812 104.534 88.791Z" fill="#356F8B"/>
<path d="M108.209 79.4019C108.419 79.4019 108.589 80.9667 108.589 82.9058C108.589 84.8449 108.419 86.4098 108.209 86.4098C107.999 86.4098 107.828 84.8392 107.828 82.9058C107.828 80.9724 107.999 79.4019 108.209 79.4019Z" fill="#356F8B"/>
<path d="M112.123 88.5701C112.123 88.3547 113.668 88.1846 115.577 88.1846C117.486 88.1846 119.037 88.3547 119.037 88.5701C119.037 88.7856 117.491 88.95 115.577 88.95C113.663 88.95 112.123 88.7799 112.123 88.5701Z" fill="#356F8B"/>
<path d="M108.448 97.9596C108.238 97.9596 108.067 96.3891 108.067 94.4556C108.067 92.5222 108.238 90.9517 108.448 90.9517C108.658 90.9517 108.829 92.5222 108.829 94.4556C108.829 96.3891 108.658 97.9596 108.448 97.9596Z" fill="#356F8B"/>
<path d="M114.038 93.939C113.879 94.0694 113.197 93.5251 112.515 92.7086C111.834 91.8922 111.419 91.1324 111.578 91.0077C111.737 90.8829 112.424 91.4216 113.1 92.2324C113.776 93.0432 114.202 93.7972 114.038 93.939Z" fill="#356F8B"/>
<path d="M113.714 83.28C113.867 83.4274 113.413 84.1248 112.709 84.8335C112.004 85.5423 111.311 86.0015 111.163 85.8541C111.016 85.7067 111.464 85.0093 112.169 84.2949C112.873 83.5805 113.566 83.1326 113.714 83.28Z" fill="#356F8B"/>
<path d="M105.784 86.0017C105.653 86.1604 105 85.8429 104.324 85.2816C103.648 84.7203 103.221 84.1476 103.352 83.9775C103.483 83.8074 104.142 84.1363 104.818 84.6976C105.494 85.2589 105.909 85.8316 105.784 86.0017Z" fill="#356F8B"/>
<path d="M105.476 90.6848C105.63 90.8322 105.238 91.5126 104.596 92.2156C103.954 92.9187 103.312 93.3496 103.159 93.2249C103.005 93.1001 103.391 92.4028 104.033 91.6997C104.675 90.9966 105.34 90.5374 105.476 90.6848Z" fill="#356F8B"/>
<path d="M261.746 96.6382C261.746 96.7575 260.865 96.8541 259.78 96.8541C258.695 96.8541 257.814 96.7575 257.814 96.6382C257.814 96.5189 258.695 96.4224 259.78 96.4224C260.865 96.4224 261.746 96.5189 261.746 96.6382Z" fill="#356F8B"/>
<path d="M263.83 91.3086C263.949 91.3086 264.046 92.1988 264.046 93.293C264.046 94.3873 263.949 95.2832 263.83 95.2832C263.711 95.2832 263.614 94.393 263.614 93.293C263.614 92.1931 263.711 91.3086 263.83 91.3086Z" fill="#356F8B"/>
<path d="M266.052 96.5084C266.052 96.3891 266.932 96.2925 268.017 96.2925C269.102 96.2925 269.977 96.3891 269.977 96.5084C269.977 96.6277 269.102 96.7299 268.017 96.7299C266.932 96.7299 266.052 96.6333 266.052 96.5084Z" fill="#356F8B"/>
<path d="M263.967 101.843C263.848 101.843 263.751 100.953 263.751 99.8529C263.751 98.753 263.848 97.8628 263.967 97.8628C264.086 97.8628 264.183 98.753 264.183 99.8529C264.183 100.953 264.086 101.843 263.967 101.843Z" fill="#356F8B"/>
<path d="M267.143 99.5466C267.046 99.6203 266.66 99.3085 266.274 98.8492C265.887 98.3899 265.654 97.9534 265.745 97.874C265.836 97.7946 266.222 98.1121 266.609 98.5714C266.995 99.0306 267.234 99.4786 267.143 99.5466Z" fill="#356F8B"/>
<path d="M266.955 93.5085C267.04 93.5936 266.785 93.9905 266.387 94.393C265.989 94.7956 265.592 95.0507 265.507 94.96C265.421 94.8693 265.677 94.4837 266.075 94.0812C266.472 93.6786 266.87 93.4235 266.955 93.5085Z" fill="#356F8B"/>
<path d="M262.456 95.051C262.376 95.1417 262.007 94.9602 261.626 94.6427C261.246 94.3252 260.996 93.9964 261.058 93.9057C261.121 93.8149 261.507 93.9907 261.888 94.3082C262.268 94.6257 262.53 94.9602 262.456 95.051Z" fill="#356F8B"/>
<path d="M262.279 97.7154C262.365 97.7948 262.143 98.1803 261.779 98.5829C261.416 98.9854 261.052 99.2349 260.961 99.1499C260.871 99.0648 261.098 98.6793 261.461 98.2824C261.825 97.8855 262.211 97.636 262.279 97.7154Z" fill="#356F8B"/>
<path d="M184.605 117.124C183.614 117.343 182.586 117.343 181.594 117.124C182.585 116.896 183.614 116.896 184.605 117.124Z" fill="#263238"/>
<path d="M186.236 113.036C186.456 114.039 186.456 115.077 186.236 116.08C186.009 115.078 186.009 114.038 186.236 113.036Z" fill="#263238"/>
<path d="M187.906 117.022C188.897 116.802 189.925 116.802 190.917 117.022C189.926 117.249 188.897 117.249 187.906 117.022Z" fill="#263238"/>
<path d="M186.309 121.109C186.09 120.104 186.09 119.064 186.309 118.059C186.529 119.064 186.529 120.104 186.309 121.109Z" fill="#263238"/>
<path d="M188.741 119.358C188.673 119.414 188.378 119.176 188.082 118.825C187.787 118.473 187.599 118.139 187.673 118.076C187.747 118.014 188.043 118.258 188.338 118.609C188.633 118.961 188.815 119.301 188.741 119.358Z" fill="#263238"/>
<path d="M188.605 114.719C188.667 114.787 188.474 115.088 188.167 115.4C187.86 115.711 187.554 115.904 187.491 115.842C187.429 115.78 187.622 115.473 187.929 115.167C188.235 114.861 188.537 114.657 188.605 114.719Z" fill="#263238"/>
<path d="M185.151 115.905C185.094 115.973 184.81 115.837 184.514 115.593C184.219 115.349 184.032 115.094 184.094 115.026C184.157 114.958 184.435 115.094 184.73 115.338C185.026 115.581 185.207 115.831 185.151 115.905Z" fill="#263238"/>
<path d="M185.014 117.957C185.082 118.02 184.912 118.314 184.633 118.621C184.355 118.927 184.065 119.125 184.009 119.063C183.952 119 184.111 118.706 184.389 118.399C184.667 118.093 184.946 117.883 185.014 117.957Z" fill="#263238"/>
<path d="M264.586 123.48C264.586 123.599 263.705 123.696 262.62 123.696C261.535 123.696 260.655 123.628 260.655 123.48C260.655 123.332 261.53 123.258 262.615 123.258C263.7 123.258 264.586 123.361 264.586 123.48Z" fill="#E0E0E0"/>
<path d="M266.671 118.144C266.79 118.144 266.887 119.034 266.887 120.134C266.887 121.234 266.79 122.124 266.671 122.124C266.552 122.124 266.455 121.234 266.455 120.134C266.455 119.034 266.552 118.144 266.671 118.144Z" fill="#E0E0E0"/>
<path d="M268.892 123.349C268.892 123.23 269.772 123.133 270.857 123.133C271.942 123.133 272.817 123.23 272.817 123.349C272.817 123.468 271.942 123.565 270.857 123.565C269.772 123.565 268.892 123.468 268.892 123.349Z" fill="#E0E0E0"/>
<path d="M266.807 128.684C266.687 128.684 266.591 127.789 266.591 126.694C266.591 125.6 266.687 124.704 266.807 124.704C266.926 124.704 267.023 125.594 267.023 126.694C267.023 127.794 266.903 128.684 266.807 128.684Z" fill="#E0E0E0"/>
<path d="M269.983 126.394C269.886 126.473 269.5 126.161 269.113 125.702C268.727 125.243 268.494 124.8 268.585 124.727C268.676 124.653 269.062 124.959 269.449 125.418C269.835 125.878 270.073 126.32 269.983 126.394Z" fill="#E0E0E0"/>
<path d="M269.795 120.35C269.88 120.435 269.625 120.826 269.227 121.229C268.829 121.631 268.432 121.892 268.346 121.795C268.261 121.699 268.517 121.319 268.915 120.911C269.312 120.503 269.71 120.265 269.795 120.35Z" fill="#E0E0E0"/>
<path d="M265.296 121.886C265.216 121.983 264.847 121.801 264.466 121.484C264.086 121.166 263.836 120.832 263.898 120.741C263.961 120.65 264.347 120.832 264.728 121.149C265.108 121.467 265.37 121.796 265.296 121.886Z" fill="#E0E0E0"/>
<path d="M265.12 124.551C265.205 124.636 264.984 125.021 264.62 125.418C264.257 125.815 263.893 126.076 263.802 125.985C263.711 125.895 263.939 125.515 264.302 125.118C264.666 124.721 265.029 124.471 265.12 124.551Z" fill="#E0E0E0"/>
<path d="M154.196 83.9375L154.452 84.5498C154.673 85.0777 154.997 85.5567 155.405 85.9594C155.812 86.3622 156.295 86.6809 156.826 86.8972L157.496 87.1693L156.855 87.4245C156.315 87.6436 155.825 87.9689 155.414 88.3809C155.004 88.793 154.68 89.2833 154.463 89.8228L154.281 90.2651L154.008 89.6981C153.52 88.6768 152.649 87.8885 151.583 87.5038L151.015 87.2884L151.776 86.9255C152.735 86.454 153.487 85.6468 153.889 84.6576L154.196 83.9375Z" fill="#E0E0E0"/>
<path d="M241.113 76L241.369 76.6123C241.59 77.1402 241.914 77.6192 242.322 78.0219C242.729 78.4247 243.212 78.7434 243.743 78.9597L244.413 79.2318L243.772 79.487C243.232 79.7061 242.742 80.0314 242.331 80.4434C241.921 80.8555 241.597 81.3458 241.38 81.8853L241.198 82.3276L240.925 81.7606C240.437 80.7393 239.566 79.951 238.5 79.5663L237.932 79.3509L238.693 78.988C239.652 78.5165 240.404 77.7093 240.806 76.7201L241.113 76Z" fill="#E0E0E0"/>
<path d="M61.2855 118.751L61.4559 119.159C61.6026 119.511 61.8177 119.829 62.0888 120.097C62.3599 120.365 62.6816 120.576 63.0352 120.718L63.4783 120.9L63.0522 121.07C62.6941 121.216 62.3688 121.433 62.0957 121.706C61.8225 121.98 61.6069 122.305 61.4616 122.663L61.3423 122.958L61.1605 122.589C60.8363 121.911 60.2594 121.386 59.5528 121.127L59.1665 120.991L59.6721 120.747C60.3031 120.435 60.801 119.908 61.0753 119.261L61.2855 118.751Z" fill="#E0E0E0"/>
<path d="M296.297 79.4019L296.461 79.8101C296.761 80.519 297.328 81.0813 298.041 81.375L298.484 81.5507L298.063 81.7265C297.704 81.8707 297.378 82.0856 297.103 82.3583C296.829 82.6311 296.613 82.9561 296.467 83.3141L296.348 83.6146L296.172 83.2404C295.844 82.5635 295.266 82.0407 294.558 81.7832L294.172 81.6414L294.677 81.3976C295.314 81.0936 295.814 80.564 296.081 79.9121L296.297 79.4019Z" fill="#E0E0E0"/>
<path d="M326.893 82.8037L327.149 83.4161C327.369 83.9453 327.693 84.4256 328.1 84.8295C328.508 85.2333 328.992 85.5526 329.523 85.769L330.194 86.0355L329.552 86.2963C329.012 86.515 328.522 86.8395 328.11 87.2504C327.699 87.6614 327.374 88.1506 327.155 88.689L326.978 89.1369L326.706 88.57C326.218 87.5487 325.346 86.7604 324.28 86.3757L323.712 86.1659L324.473 85.7974C325.427 85.335 326.179 84.5405 326.586 83.5635L326.893 82.8037Z" fill="#356F8B"/>
<path d="M185.457 87.9067L185.577 88.1959C185.683 88.4456 185.838 88.6715 186.034 88.8604C186.229 89.0493 186.46 89.1973 186.713 89.2959L187.025 89.4263L186.724 89.5453C186.468 89.6474 186.235 89.8006 186.039 89.9956C185.844 90.1905 185.69 90.4232 185.588 90.6793L185.503 90.8891L185.372 90.6283C185.145 90.1478 184.737 89.7767 184.236 89.5964L183.963 89.5L184.321 89.3242C184.77 89.1076 185.124 88.7344 185.315 88.2753L185.457 87.9067Z" fill="#356F8B"/>
<path d="M129.291 116.16L129.444 116.528C129.576 116.848 129.771 117.138 130.017 117.381C130.263 117.624 130.555 117.816 130.876 117.946L131.279 118.11L130.893 118.263C130.567 118.394 130.271 118.59 130.023 118.839C129.775 119.087 129.58 119.383 129.45 119.709L129.342 119.981L129.177 119.641C128.88 119.027 128.354 118.553 127.712 118.32L127.359 118.189L127.82 117.968C128.395 117.688 128.849 117.208 129.098 116.619L129.291 116.16Z" fill="#356F8B"/>
<path d="M355.727 103.925C350.893 103.928 346.172 105.379 342.174 108.09C338.176 110.802 335.086 114.649 333.303 119.133C331.521 123.618 331.129 128.533 332.177 133.242C333.226 137.952 335.667 142.238 339.184 145.547L335.924 156.944L347.456 150.65C350.769 151.856 354.307 152.322 357.82 152.017C361.334 151.711 364.738 150.641 367.793 148.883C370.847 147.124 373.479 144.718 375.503 141.836C377.527 138.953 378.893 135.663 379.506 132.196C380.12 128.73 379.965 125.172 379.053 121.772C378.141 118.371 376.494 115.212 374.227 112.515C371.961 109.818 369.13 107.65 365.934 106.162C362.738 104.674 359.254 103.903 355.727 103.902V103.925Z" fill="white"/>
<path d="M355.727 103.925C355.727 103.925 355.869 103.925 356.159 103.925L357.42 103.976C357.698 103.976 357.988 103.976 358.352 104.027L359.488 104.192C359.891 104.26 360.329 104.3 360.789 104.402L362.237 104.764C368.082 106.339 373.108 110.073 376.297 115.208L377.047 116.439C377.263 116.87 377.479 117.312 377.695 117.76C379.069 120.618 379.842 123.726 379.967 126.894C380.025 128.028 380.006 129.164 379.91 130.296C379.871 130.863 379.751 131.43 379.672 131.997C379.626 132.286 379.587 132.564 379.541 132.864L379.32 133.726C378.765 136.107 377.831 138.383 376.553 140.468C373.834 145.003 369.702 148.526 364.788 150.498C359.494 152.585 353.641 152.785 348.217 151.065L347.433 150.792H347.552C343.621 152.941 339.764 155.05 336.02 157.086L335.719 157.256L335.81 156.921C336.946 152.992 338.031 149.182 339.076 145.525L339.116 145.667C337.616 144.241 336.296 142.638 335.185 140.893C334.133 139.208 333.287 137.403 332.663 135.518C332.08 133.711 331.712 131.842 331.566 129.95C331.521 129.491 331.504 129.031 331.498 128.578C331.473 128.125 331.473 127.67 331.498 127.217C331.512 126.33 331.59 125.445 331.731 124.569C332.211 121.314 333.356 118.191 335.094 115.395C336.58 113 338.465 110.875 340.667 109.113L342.167 107.979L343.684 107.061C344.155 106.77 344.647 106.512 345.155 106.29C345.644 106.069 346.098 105.813 346.575 105.643C348.159 105.014 349.804 104.548 351.483 104.254L353.313 103.988L354.653 103.931H355.477H355.755H355.477L354.659 103.988L353.318 104.067L351.5 104.351C349.832 104.66 348.199 105.137 346.626 105.774C346.155 105.944 345.706 106.205 345.223 106.426C344.718 106.652 344.228 106.912 343.757 107.203L342.235 108.127L340.775 109.261C338.599 111.011 336.739 113.12 335.276 115.498C333.571 118.277 332.455 121.376 331.998 124.603C331.862 125.472 331.786 126.349 331.771 127.228C331.745 127.676 331.745 128.125 331.771 128.572C331.771 129.02 331.771 129.474 331.839 129.933C331.991 131.802 332.359 133.648 332.935 135.433C334.196 139.256 336.395 142.704 339.332 145.463L339.395 145.519L339.366 145.604C338.327 149.256 337.236 153.066 336.117 157.001L335.907 156.831L347.433 150.537L347.49 150.503H347.558L348.336 150.77C353.694 152.471 359.476 152.271 364.703 150.203C369.561 148.256 373.649 144.778 376.343 140.297C377.61 138.238 378.538 135.988 379.092 133.635C379.166 133.352 379.24 133.068 379.308 132.785L379.445 131.923C379.518 131.356 379.638 130.789 379.683 130.222C379.777 129.106 379.798 127.985 379.746 126.866C379.636 123.722 378.88 120.634 377.524 117.794L376.888 116.484L376.15 115.265C374.368 112.38 371.99 109.908 369.174 108.013C367.046 106.588 364.705 105.51 362.237 104.821L360.794 104.441C360.34 104.339 359.902 104.294 359.505 104.22L358.369 104.044C358.028 103.993 357.715 103.999 357.443 103.976L356.182 103.897C355.869 103.942 355.727 103.925 355.727 103.925Z" fill="#263238"/>
<path d="M350.433 124.728H352.137L355.864 119.54V116.138C355.864 116.138 358.505 115.98 358.193 120.436C357.88 124.893 358.193 123.753 358.193 123.753C358.193 123.753 363.794 123.753 364.26 124.263C364.601 124.615 364.754 130.171 364.828 133.188C364.864 133.914 364.657 134.631 364.238 135.226C363.819 135.821 363.213 136.259 362.516 136.471C362.317 136.522 362.113 136.548 361.908 136.55C360.51 136.55 353.387 135.416 353.387 135.416H350.433V124.728Z" fill="#92E3A9" stroke="#263238" stroke-width="0.5" stroke-linecap="round" stroke-linejoin="round"/>
<path d="M345.564 123.793L346.615 135.45H349.541V124.025L345.564 123.793Z" fill="#92E3A9" stroke="#263238" stroke-width="0.5" stroke-linecap="round" stroke-linejoin="round"/>
</svg>
