<svg width="28" height="28" viewBox="0 0 28 28" fill="none" xmlns="http://www.w3.org/2000/svg">
<path fill-rule="evenodd" clip-rule="evenodd" d="M14 3.59999C8.25623 3.59999 3.59999 8.25623 3.59999 14C3.59999 19.7438 8.25623 24.4 14 24.4C19.7438 24.4 24.4 19.7438 24.4 14C24.4 8.25623 19.7438 3.59999 14 3.59999ZM2.39999 14C2.39999 7.59349 7.59349 2.39999 14 2.39999C20.4065 2.39999 25.6 7.59349 25.6 14C25.6 20.4065 20.4065 25.6 14 25.6C7.59349 25.6 2.39999 20.4065 2.39999 14ZM8.39999 14C8.39999 13.6686 8.66862 13.4 8.99999 13.4H13.4V8.99999C13.4 8.66862 13.6686 8.39999 14 8.39999C14.3314 8.39999 14.6 8.66862 14.6 8.99999V13.4H19C19.3314 13.4 19.6 13.6686 19.6 14C19.6 14.3314 19.3314 14.6 19 14.6H14.6V19C14.6 19.3314 14.3314 19.6 14 19.6C13.6686 19.6 13.4 19.3314 13.4 19V14.6H8.99999C8.66862 14.6 8.39999 14.3314 8.39999 14Z" fill="#3F3F3F"/>
</svg>
