<svg width="18" height="19" viewBox="0 0 18 19" fill="none" xmlns="http://www.w3.org/2000/svg">
<path d="M9 16.5C12.866 16.5 16 13.366 16 9.5C16 5.63401 12.866 2.5 9 2.5C5.13401 2.5 2 5.63401 2 9.5C2 13.366 5.13401 16.5 9 16.5Z" stroke="#3F3F3F" stroke-miterlimit="10"/>
<path fill-rule="evenodd" clip-rule="evenodd" d="M9.49954 6.99999C9.49954 6.72385 9.27568 6.49999 8.99954 6.49999C8.7234 6.49999 8.49954 6.72385 8.49954 6.99999V8.99999H6.5C6.22386 8.99999 6 9.22385 6 9.49999C6 9.77613 6.22386 9.99999 6.5 9.99999H8.49954V11.9991C8.49954 12.2752 8.7234 12.4991 8.99954 12.4991C9.27568 12.4991 9.49954 12.2752 9.49954 11.9991V9.99999H11.4991C11.7752 9.99999 11.9991 9.77613 11.9991 9.49999C11.9991 9.22385 11.7752 8.99999 11.4991 8.99999H9.49954V6.99999Z" fill="#3F3F3F"/>
</svg>
