<svg width="28" height="28" viewBox="0 0 28 28" fill="none" xmlns="http://www.w3.org/2000/svg">
<g clip-path="url(#clip0_403_5722)">
<path d="M18 22.5H11.0254C10.8317 23.6667 11.7229 26 14.5127 26C17.3025 26 18 23.6667 18 22.5Z" fill="#35B350"/>
<path fill-rule="evenodd" clip-rule="evenodd" d="M22.1265 14.9207C21.7585 14.9725 21.3824 14.9994 21 14.9994C16.5817 14.9994 13 11.4176 13 6.99937C13 5.74523 13.2886 4.5585 13.803 3.50195C11.7858 3.55241 9.86196 4.3757 8.43164 5.80602C6.95479 7.28287 6.12511 9.28591 6.12511 11.3745C6.12511 15.2912 5.21839 18.4401 4.49761 19.687C4.42103 19.8196 4.3806 19.97 4.38037 20.1232C4.38014 20.2763 4.42011 20.4269 4.49628 20.5597C4.57246 20.6926 4.68217 20.8031 4.81445 20.8803C4.94674 20.9575 5.09696 20.9986 5.25011 20.9995H22.7501C22.9034 20.9989 23.0539 20.9581 23.1865 20.8811C23.3191 20.8041 23.4291 20.6936 23.5056 20.5607C23.582 20.4277 23.6222 20.2771 23.622 20.1237C23.6219 19.9704 23.5815 19.8198 23.5048 19.687C23.0182 18.8465 22.4471 17.1423 22.1265 14.9207Z" fill="#35B350"/>
<path d="M21 13C24.3137 13 27 10.3137 27 7C27 3.68629 24.3137 1 21 1C17.6863 1 15 3.68629 15 7C15 10.3137 17.6863 13 21 13Z" fill="#35B350" stroke="#35B350" stroke-width="1.2" stroke-linecap="round" stroke-linejoin="round"/>
<path d="M18 7H24" stroke="white" stroke-width="1.2" stroke-linecap="round" stroke-linejoin="round"/>
<path d="M21 4V10" stroke="white" stroke-width="1.2" stroke-linecap="round" stroke-linejoin="round"/>
</g>
<defs>
<clipPath id="clip0_403_5722">
<rect width="28" height="28" fill="white"/>
</clipPath>
</defs>
</svg>
