<svg width="20" height="24" viewBox="0 0 20 24" fill="none" xmlns="http://www.w3.org/2000/svg">
<path d="M12.8094 0.0388616C11.6774 -0.179275 10.5793 0.542981 10.3566 1.6517C10.1339 2.76042 10.8712 3.83607 12.0032 4.05421C13.1351 4.27235 14.2333 3.55009 14.456 2.44137C14.6782 1.33265 13.9413 0.256998 12.8094 0.0388616ZM12.2351 2.89783C11.755 2.80551 11.4425 2.34905 11.5367 1.87928C11.631 1.40909 12.097 1.10292 12.5766 1.19567C13.0566 1.288 13.3692 1.74445 13.2745 2.21422C13.1807 2.68399 12.7151 2.99015 12.2351 2.89783Z" fill="#03CD09"/>
<path d="M11.3882 20.5054C12.6599 19.2598 12.6599 17.2402 11.3882 15.9946C10.1166 14.749 8.05474 14.749 6.78306 15.9946C5.51137 17.2402 5.51137 19.2598 6.78306 20.5054C8.05474 21.751 10.1166 21.751 11.3882 20.5054Z" fill="#F0D140"/>
<path opacity="0.5" d="M12.1061 19.4407C12.181 19.2574 12.2407 19.065 12.281 18.8645C12.6282 17.1361 11.4792 15.4593 9.71419 15.1192C7.94966 14.7791 6.2373 15.9046 5.89053 17.6334C5.85019 17.8343 5.83091 18.0344 5.82959 18.2319C7.56387 18.566 8.96805 18.8365 8.96805 18.8365C8.96805 18.8365 10.3722 19.1066 12.1061 19.4407Z" fill="#F0D140"/>
<path opacity="0.5" d="M11.3625 15.9688C11.5935 16.5248 11.6681 17.1509 11.5409 17.7843C11.1937 19.5126 9.48179 20.6385 7.71726 20.2984C7.07063 20.1739 6.50729 19.8695 6.06934 19.4491C6.46915 20.4109 7.33936 21.1637 8.4577 21.3792C10.2222 21.7193 11.9346 20.5939 12.2814 18.8651C12.5014 17.7697 12.12 16.6957 11.3625 15.9688Z" fill="#F0D140"/>
<path d="M7.74635 19.4977C7.6315 19.7416 7.21195 19.7923 6.80995 19.6102C6.4075 19.4286 6.17471 19.0833 6.28957 18.839C6.40443 18.5951 6.82398 18.5444 7.22598 18.7265C7.62843 18.9086 7.86121 19.2538 7.74635 19.4977Z" fill="#F0D140"/>
<path d="M10.9082 23.5001C10.9275 23.4533 10.9424 23.4044 10.953 23.3533C11.0415 22.9127 10.7487 22.485 10.2984 22.3983C9.84865 22.3115 9.412 22.5984 9.32345 23.0394C9.31337 23.0905 9.30811 23.1416 9.30811 23.1918C9.75001 23.2768 10.1082 23.346 10.1082 23.346C10.1082 23.346 10.4663 23.4151 10.9082 23.5001Z" fill="#03CD09"/>
<path opacity="0.5" d="M10.7185 22.6055C10.7773 22.7472 10.7966 22.9069 10.7641 23.0684C10.6756 23.5089 10.2394 23.7958 9.78912 23.7095C9.62428 23.6777 9.48093 23.6 9.36914 23.493C9.47085 23.7382 9.69311 23.9302 9.97807 23.9851C10.4279 24.0719 10.8645 23.785 10.9531 23.344C11.0087 23.0645 10.9114 22.791 10.7185 22.6055Z" fill="#03CD09"/>
<path d="M9.98288 23.6419C9.99384 23.6187 9.97153 23.5857 9.93306 23.5684C9.89458 23.551 9.85452 23.5557 9.84356 23.579C9.83261 23.6022 9.85492 23.6352 9.89339 23.6526C9.93186 23.67 9.97193 23.6652 9.98288 23.6419Z" fill="#03CD09"/>
<path d="M6.13927 21.3053C6.15549 21.2658 6.16821 21.2246 6.17698 21.1817C6.2515 20.8107 6.00513 20.4513 5.62635 20.3783C5.24758 20.3053 4.88065 20.5466 4.80612 20.9176C4.79735 20.9605 4.79341 21.0035 4.79297 21.046C5.16516 21.1177 5.46634 21.1757 5.46634 21.1757C5.46634 21.1757 5.76708 21.2336 6.13927 21.3053Z" fill="#03CD09"/>
<path opacity="0.5" d="M5.97968 20.5508C6.02922 20.6702 6.045 20.8046 6.01782 20.9403C5.94329 21.3113 5.57592 21.5526 5.19758 21.4796C5.05905 21.453 4.93805 21.3877 4.84424 21.2975C4.93016 21.5041 5.11692 21.6655 5.35672 21.7115C5.73549 21.7845 6.10243 21.5431 6.17695 21.1721C6.22386 20.9372 6.14232 20.7067 5.97968 20.5508Z" fill="#03CD09"/>
<path d="M3.05581 17.7628C3.06282 17.7456 3.06852 17.7276 3.07203 17.7091C3.10447 17.5477 2.99706 17.391 2.83223 17.3592C2.66739 17.3274 2.50738 17.4326 2.47494 17.5941C2.47099 17.613 2.46924 17.6314 2.46924 17.6499C2.63101 17.6812 2.76252 17.7066 2.76252 17.7066C2.76252 17.7066 2.8936 17.7315 3.05581 17.7628Z" fill="#03CD09"/>
<path opacity="0.5" d="M2.98621 17.4355C3.00769 17.4875 3.0147 17.5459 3.00287 17.6052C2.97042 17.7666 2.81041 17.8718 2.64558 17.84C2.58508 17.8285 2.53247 17.8001 2.4917 17.7606C2.52896 17.8504 2.6105 17.9208 2.71484 17.941C2.87968 17.9727 3.03969 17.8675 3.07213 17.7061C3.09274 17.6039 3.05679 17.5034 2.98621 17.4355Z" fill="#03CD09"/>
<path d="M2.71494 17.8141C2.71888 17.8058 2.71086 17.7939 2.69703 17.7877C2.6832 17.7814 2.66879 17.7831 2.66485 17.7915C2.66091 17.7999 2.66893 17.8117 2.68276 17.818C2.69659 17.8242 2.71099 17.8225 2.71494 17.8141Z" fill="#03CD09"/>
<path d="M14.1471 21.8839C14.1541 21.8667 14.1598 21.8487 14.1633 21.8302C14.1958 21.6688 14.0884 21.512 13.9235 21.4803C13.7587 21.4485 13.5987 21.5537 13.5662 21.7152C13.5623 21.734 13.5605 21.7525 13.5605 21.771C13.7228 21.8023 13.8538 21.8277 13.8538 21.8277C13.8538 21.8277 13.9849 21.8526 14.1471 21.8839Z" fill="#03CD09"/>
<path opacity="0.5" d="M14.0775 21.5566C14.099 21.6086 14.106 21.667 14.0942 21.7263C14.0617 21.8877 13.9017 21.9929 13.7369 21.9611C13.6764 21.9495 13.6238 21.9212 13.583 21.8817C13.6203 21.9714 13.7018 22.0419 13.8061 22.062C13.971 22.0938 14.131 21.9886 14.1634 21.8272C14.184 21.725 14.1481 21.6245 14.0775 21.5566Z" fill="#03CD09"/>
<path d="M13.8062 21.9352C13.8102 21.9268 13.8022 21.915 13.7883 21.9088C13.7745 21.9025 13.7601 21.9042 13.7562 21.9126C13.7522 21.921 13.7602 21.9328 13.7741 21.9391C13.7879 21.9453 13.8023 21.9436 13.8062 21.9352Z" fill="#03CD09"/>
<path d="M18.2381 16.2678C16.6651 14.1818 17.2736 11.4109 17.4428 9.01178C17.8724 2.9164 12.3421 2.03398 12.3421 2.03398C12.3421 2.03398 6.8828 0.799013 4.92362 6.59939C4.15249 8.88253 3.64439 11.6728 1.38184 13.0198C0.748802 13.3968 0.16004 13.7678 0.0254538 14.5391C-0.142451 15.5009 0.527414 16.2803 1.3779 16.6612C1.6668 16.7904 1.97586 16.8772 2.28668 16.9373C5.12046 17.4835 9.08616 18.2474 9.08616 18.2474C9.08616 18.2474 13.0519 19.0117 15.8856 19.5575C16.1965 19.6176 16.516 19.6515 16.8334 19.6391C17.7681 19.6026 18.6892 19.1298 18.9057 18.177C19.0798 17.4135 18.6782 16.8514 18.2381 16.2678Z" fill="#03CD09"/>
<path opacity="0.5" d="M3.61492 10.375C3.26202 11.1303 2.8188 11.8264 2.21338 12.3932L17.711 15.3793C17.3695 14.63 17.2288 13.8214 17.1941 12.9914L3.61492 10.375Z" fill="#F0D140"/>
<path d="M2.37012 12.2403L17.6253 15.1795C17.3233 14.4311 17.208 13.6281 17.1891 12.8071L3.69143 10.207C3.35606 10.9593 2.93915 11.6597 2.37012 12.2403Z" fill="#67DF66"/>
<path opacity="0.2" d="M17.1991 13.084C17.1943 12.9921 17.1908 12.8998 17.1886 12.8075L3.69132 10.207C3.65362 10.2916 3.6146 10.3758 3.57471 10.4591L17.1991 13.084Z" fill="#E1A03E"/>
<path opacity="0.5" d="M13.5623 19.0089C13.3747 19.0458 13.1893 19.0377 13.0113 19.0037C13.8889 19.1729 14.8008 19.3485 15.6153 19.5053C15.9139 19.5628 16.2212 19.5946 16.5263 19.58C17.4254 19.5366 18.3149 19.0574 18.5306 18.105C18.7034 17.3407 18.322 16.7829 17.9033 16.2032C16.4066 14.1317 17.0134 11.3604 17.1944 8.96386C17.6245 3.27254 13.013 2.1664 12.4085 2.04617C12.398 2.04402 12.3888 2.0423 12.3809 2.04102C12.7395 2.11358 15.4987 2.85774 14.7938 8.50139C14.4974 10.8756 13.9095 13.6512 14.671 15.5805C14.8836 16.1203 15.0757 16.6416 14.9099 17.4072C14.7035 18.3622 14.1191 18.8998 13.5623 19.0089Z" fill="#F0D140"/>
<path d="M4.29107 15.3612C4.43442 14.5913 4.79961 14.1774 5.19021 13.7535C6.58606 12.2395 7.11695 9.4535 7.75218 7.14417C9.2642 1.64695 11.9726 1.9647 12.308 2.02654C11.8932 1.94495 7.78112 1.28668 6.05253 6.81653C5.33576 9.10997 4.81846 11.8985 2.9018 13.3125C2.36565 13.708 1.86632 14.0962 1.72778 14.867C1.5555 15.828 2.08157 16.5799 2.7716 16.9294C3.0057 17.0479 3.25821 17.1239 3.51292 17.1733C4.09248 17.285 4.72946 17.4078 5.35943 17.5293C5.1889 17.4966 5.02187 17.437 4.87019 17.3343C4.42215 17.0312 4.1122 16.3209 4.29107 15.3612Z" fill="#F0D140"/>
<path d="M0.198242 15.6211C0.439797 16.0771 0.877313 16.4391 1.37752 16.6628C1.66642 16.7921 1.97549 16.8788 2.28631 16.9389C5.12008 17.4851 9.08579 18.249 9.08579 18.249C9.08579 18.249 13.0515 19.0134 15.8853 19.5591C16.1961 19.6193 16.5157 19.6532 16.8331 19.6407C17.3828 19.6193 17.9277 19.4466 18.3276 19.1143L0.198242 15.6211Z" fill="#F0D140"/>
<path d="M7.14913 14.8482C7.13028 15.0784 5.69893 15.148 3.98393 14.8156C2.26806 14.4871 0.970419 13.8915 1.04188 13.6717C1.11377 13.4467 2.48682 13.6687 4.15008 13.9864C5.81291 14.3093 7.1693 14.6133 7.14913 14.8482Z" fill="#F0D140"/>
<path d="M10.3314 15.4557C10.3398 15.6872 9.78475 15.889 9.11445 15.7589C8.44327 15.6305 8.00838 15.238 8.10527 15.0268C8.20215 14.8116 8.71376 14.8232 9.28104 14.9297C9.84656 15.0418 10.3249 15.2209 10.3314 15.4557Z" fill="#F0D140"/>
<path d="M9.47134 3.1685C9.61513 3.6168 8.66777 4.2214 7.73706 5.08106C6.77347 5.92355 6.19172 6.91805 5.91773 6.8545C5.64811 6.81628 5.69064 5.39281 6.77961 4.13509C7.87208 2.86749 9.35341 2.72321 9.47134 3.1685Z" fill="#F0D140"/>
<path opacity="0.7" d="M11.3251 3.04043C11.3703 2.81541 11.0545 2.5651 10.6198 2.48134C10.185 2.39758 9.79595 2.51209 9.75076 2.73711C9.70558 2.96212 10.0214 3.21243 10.4561 3.29619C10.8909 3.37995 11.2799 3.26544 11.3251 3.04043Z" fill="#F0D140"/>
<path opacity="0.75" d="M1.41176 10.5326C1.41132 10.5549 1.40036 10.5648 1.3745 10.5669C1.32364 10.5708 1.27191 10.5716 1.2215 10.5785C1.03737 10.6034 0.89665 10.6889 0.819931 10.8602C0.789682 10.9272 0.768639 10.9972 0.761624 11.0697C0.752418 11.1651 0.748911 11.2612 0.743212 11.357C0.742335 11.372 0.741458 11.3862 0.726115 11.3944C0.699811 11.4081 0.67263 11.3918 0.671753 11.3626C0.67 11.305 0.670438 11.2475 0.666931 11.1904C0.661232 11.0929 0.647204 10.9967 0.614324 10.904C0.552072 10.7292 0.426692 10.6244 0.243444 10.5888C0.179 10.5764 0.112364 10.5746 0.0466052 10.5682C0.030823 10.5665 0.0150407 10.5669 0.00671127 10.5502C-0.00687892 10.5235 0.00977996 10.4991 0.042221 10.4965C0.110172 10.4905 0.179 10.4883 0.245635 10.4759C0.443351 10.4381 0.564786 10.3166 0.623092 10.1306C0.662109 10.0061 0.67 9.87814 0.672192 9.74889C0.672631 9.73214 0.671754 9.7154 0.67263 9.69865C0.673507 9.67761 0.687098 9.66602 0.708579 9.66602C0.730499 9.66602 0.742773 9.67761 0.74365 9.69951C0.746719 9.77594 0.747596 9.85238 0.753295 9.92838C0.759432 10.0134 0.77653 10.0967 0.807656 10.177C0.873415 10.3462 1.00055 10.4437 1.17941 10.4772C1.24254 10.4888 1.30742 10.4909 1.37187 10.4961C1.39949 10.4978 1.4122 10.5081 1.41176 10.5326ZM1.11585 10.5321C0.884813 10.4643 0.761186 10.3088 0.706387 10.0911C0.653341 10.3106 0.53103 10.4664 0.298681 10.5304C0.529715 10.5983 0.652465 10.7537 0.707702 10.9705C0.760748 10.7524 0.882621 10.5965 1.11585 10.5321Z" fill="#F0D140"/>
<path opacity="0.75" d="M19.9997 15.3802C19.9992 15.4025 19.9883 15.4124 19.9624 15.4146C19.9115 15.4184 19.8598 15.4193 19.8094 15.4262C19.6253 15.4511 19.4845 15.5365 19.4078 15.7078C19.3776 15.7748 19.3565 15.8448 19.3495 15.9174C19.3403 16.0127 19.3368 16.1089 19.3311 16.2047C19.3302 16.2197 19.3293 16.2339 19.314 16.242C19.2877 16.2558 19.2605 16.2394 19.2596 16.2102C19.2579 16.1527 19.2583 16.0952 19.2548 16.0381C19.2491 15.9406 19.2351 15.8444 19.2022 15.7516C19.14 15.5769 19.0146 15.4721 18.8313 15.4365C18.7669 15.424 18.7003 15.4223 18.6345 15.4158C18.6187 15.4141 18.6029 15.4146 18.5946 15.3978C18.581 15.3712 18.5977 15.3467 18.6301 15.3441C18.6981 15.3381 18.7669 15.336 18.8335 15.3235C19.0312 15.2857 19.1527 15.1642 19.211 14.9783C19.25 14.8538 19.2579 14.7258 19.2601 14.5965C19.2605 14.5798 19.2596 14.5631 19.2605 14.5463C19.2614 14.5253 19.275 14.5137 19.2965 14.5137C19.3184 14.5137 19.3307 14.5253 19.3315 14.5472C19.3346 14.6236 19.3355 14.7 19.3412 14.776C19.3473 14.8611 19.3644 14.9444 19.3955 15.0247C19.4613 15.1938 19.5884 15.2913 19.7673 15.3248C19.8304 15.3364 19.8953 15.3386 19.9598 15.3437C19.9874 15.3454 20.0001 15.3557 19.9997 15.3802ZM19.7037 15.3798C19.4727 15.3119 19.3491 15.1565 19.2943 14.9388C19.2412 15.1582 19.1189 15.3141 18.8866 15.3781C19.1176 15.4459 19.2404 15.6014 19.2956 15.8182C19.3486 15.6001 19.4705 15.4442 19.7037 15.3798Z" fill="#F0D140"/>
</svg>
