<svg width="28" height="28" viewBox="0 0 28 28" fill="none" xmlns="http://www.w3.org/2000/svg">
    <path d="M10.75 20.5C10.75 21.362 11.0924 22.1886 11.7019 22.7981C12.3114 23.4076 13.138 23.75 14 23.75C14.862 23.75 15.6886 23.4076 16.2981 22.7981C16.9076 22.1886 17.25 21.362 17.25 20.5" stroke="#3F3F3F" stroke-width="1.2" stroke-linecap="round" stroke-linejoin="round"/>
    <path fill-rule="evenodd" clip-rule="evenodd" d="M21.1001 15.8359C21.417 17.5282 21.8805 18.8462 22.3064 19.5818L22.8257 19.2812L22.3061 19.5812C22.3247 19.6135 22.3345 19.65 22.3345 19.6873C22.3346 19.7245 22.3248 19.7611 22.3063 19.7934C22.2877 19.8257 22.261 19.8525 22.2288 19.8712C22.1968 19.8898 22.1605 19.8997 22.1235 19.9H5.87724C5.84048 19.8995 5.80447 19.8896 5.77271 19.871C5.74058 19.8523 5.71394 19.8254 5.69544 19.7932C5.67694 19.7609 5.66723 19.7243 5.66729 19.6872C5.66734 19.65 5.67716 19.6134 5.69576 19.5812L5.17615 19.2812L5.6956 19.5815C6.43456 18.3032 7.2874 15.265 7.2874 11.5625C7.2874 9.78219 7.99461 8.07484 9.25345 6.81601C10.157 5.9125 11.2915 5.29315 12.5182 5.0155C12.6594 4.56154 12.8382 4.12416 13.051 3.70703C11.3021 3.91824 9.66338 4.70901 8.40492 5.96748C6.92104 7.45136 6.0874 9.46393 6.0874 11.5625C6.0874 15.1338 5.25633 17.9436 4.6567 18.9809L4.65654 18.9812C4.53292 19.1953 4.46766 19.4381 4.46729 19.6853C4.46691 19.9326 4.53143 20.1756 4.6544 20.39C4.77737 20.6045 4.95447 20.783 5.16802 20.9075C5.38157 21.0321 5.62407 21.0985 5.87129 21.0999L5.8749 21.1H22.1249L22.127 21.1C22.3745 21.0991 22.6175 21.0332 22.8315 20.9089C23.0456 20.7845 23.2232 20.6061 23.3465 20.3916C23.4699 20.177 23.5348 19.9337 23.5345 19.6862C23.5343 19.4387 23.4691 19.1956 23.3453 18.9812L23.3449 18.9806C23.0025 18.3891 22.5848 17.2217 22.289 15.6651C21.9021 15.7495 21.5051 15.8071 21.1001 15.8359Z" fill="#3F3F3F"/>
    <path d="M20.5001 13.0706C23.5772 13.0706 26.0716 10.5762 26.0716 7.49916C26.0716 4.42215 23.5772 1.92773 20.5001 1.92773C17.4231 1.92773 14.9287 4.42215 14.9287 7.49916C14.9287 10.5762 17.4231 13.0706 20.5001 13.0706Z" fill="#CCECD3" stroke="#3F3F3F" stroke-linecap="round" stroke-linejoin="round"/>
    <path d="M17.7144 7.5H23.2858" stroke="#3F3F3F" stroke-width="1.2" stroke-linecap="round" stroke-linejoin="round"/>
    <path d="M20.5 4.71289V10.2843" stroke="#3F3F3F" stroke-width="1.2" stroke-linecap="round" stroke-linejoin="round"/>
    </svg>
    