<svg width="280" height="40" viewBox="0 0 280 40" fill="none" xmlns="http://www.w3.org/2000/svg">
<path d="M0 39.4501L14.0698 1.53289H20.9243L34.9426 39.4501H25.9751L23.1405 30.9588H11.7506L8.96758 39.4501H0ZM17.4713 10.8253L13.0906 24.9241H21.6974L17.4713 10.8253Z" fill="#0ABE51"/>
<path d="M54.7255 18.7292C52.7327 18.7648 50.9289 19.103 49.314 19.7438C47.7335 20.3847 46.5653 21.346 45.8095 22.6277V39.4501H37.5634V11.4127H45.1395V17.0736C46.1015 15.1867 47.3041 13.7269 48.7471 12.6944C50.2245 11.6263 51.7878 11.0567 53.4371 10.9855C54.1242 10.9855 54.5537 11.0033 54.7255 11.0389V18.7292Z" fill="#0ABE51"/>
<path d="M58.249 39.4501V11.4127H66.495V39.4501H58.249ZM58.249 8.20846V0.4648H66.495V8.20846H58.249Z" fill="#0ABE51"/>
<path d="M98.1691 39.4501H89.923V23.6958C89.923 21.88 89.5622 20.5449 88.8407 19.6904C88.1535 18.836 87.2087 18.4087 86.0061 18.4087C85.5251 18.4087 84.9926 18.5333 84.4085 18.7826C83.8587 18.9962 83.309 19.3344 82.7592 19.7972C82.2439 20.2245 81.7629 20.7407 81.3162 21.346C80.8695 21.9512 80.5259 22.6277 80.2854 23.3753V39.4501H72.0394V0.4648H80.2854V16.1123C81.2818 14.439 82.5874 13.1573 84.2023 12.2672C85.8515 11.3415 87.6725 10.8787 89.6653 10.8787C91.4863 10.8787 92.9466 11.2169 94.046 11.8934C95.1799 12.5342 96.0388 13.3709 96.6229 14.4034C97.2414 15.4003 97.6537 16.5396 97.8598 17.8213C98.066 19.0674 98.1691 20.2957 98.1691 21.5062V39.4501Z" fill="#0ABE51"/>
<path d="M111.277 39.9842C109.937 39.9842 108.682 39.7705 107.514 39.3433C106.38 38.8805 105.401 38.2574 104.577 37.4741C103.752 36.6553 103.099 35.7118 102.618 34.6437C102.137 33.54 101.897 32.3473 101.897 31.0656C101.897 29.6771 102.172 28.4132 102.721 27.2739C103.305 26.1346 104.113 25.1555 105.144 24.3366C106.174 23.5178 107.394 22.8769 108.803 22.4141C110.211 21.9512 111.775 21.7198 113.493 21.7198C114.627 21.7198 115.726 21.8266 116.791 22.0402C117.856 22.2183 118.784 22.5031 119.574 22.8947V21.613C119.574 18.3731 117.77 16.7532 114.163 16.7532C112.685 16.7532 111.277 17.0202 109.937 17.5543C108.597 18.0527 107.188 18.8182 105.71 19.8506L103.288 14.5102C105.075 13.2997 106.93 12.3918 108.854 11.7866C110.778 11.1813 112.823 10.8787 114.987 10.8787C119.076 10.8787 122.237 11.8756 124.47 13.8693C126.704 15.8631 127.82 18.7826 127.82 22.6277V29.8373C127.82 30.6918 127.975 31.297 128.284 31.6531C128.593 31.9735 129.143 32.1693 129.933 32.2405V39.4501C129.143 39.6281 128.404 39.7349 127.717 39.7705C127.064 39.8417 126.48 39.8774 125.965 39.8774C124.453 39.8418 123.302 39.5213 122.512 38.9161C121.722 38.3108 121.223 37.4385 121.017 36.2992L120.863 35.0175C119.66 36.6197 118.217 37.848 116.533 38.7024C114.884 39.5569 113.132 39.9842 111.277 39.9842ZM113.699 33.8426C114.592 33.8426 115.451 33.6824 116.276 33.362C117.135 33.0416 117.839 32.6143 118.389 32.0803C119.179 31.4394 119.574 30.763 119.574 30.0509V27.3807C118.853 27.0959 118.062 26.8822 117.203 26.7398C116.379 26.5618 115.606 26.4728 114.884 26.4728C113.372 26.4728 112.118 26.8288 111.122 27.5409C110.16 28.253 109.679 29.1786 109.679 30.3179C109.679 31.3504 110.057 32.2049 110.813 32.8814C111.569 33.5222 112.531 33.8426 113.699 33.8426Z" fill="#0ABE51"/>
<path d="M160.075 39.4501H151.829V23.6958C151.829 21.8444 151.485 20.5093 150.798 19.6904C150.145 18.836 149.269 18.4087 148.17 18.4087C147.585 18.4087 146.984 18.5333 146.366 18.7826C145.782 19.0318 145.215 19.3878 144.665 19.8506C144.15 20.2779 143.669 20.7941 143.222 21.3994C142.775 22.0046 142.432 22.6633 142.191 23.3753V39.4501H133.945V11.4127H141.367V16.1123C142.363 14.439 143.772 13.1573 145.593 12.2672C147.414 11.3415 149.51 10.8787 151.88 10.8787C153.633 10.8787 155.041 11.2169 156.106 11.8934C157.206 12.5342 158.048 13.3887 158.632 14.4568C159.216 15.4893 159.594 16.6286 159.766 17.8747C159.972 19.1208 160.075 20.3313 160.075 21.5062V39.4501Z" fill="#0ABE51"/>
<path d="M182.924 37.9548C181.79 38.4532 180.502 38.9161 179.059 39.3433C177.616 39.7705 176.138 39.9842 174.627 39.9842C173.596 39.9842 172.617 39.8417 171.689 39.5569C170.796 39.3077 170.005 38.8983 169.318 38.3286C168.631 37.7234 168.081 36.9401 167.669 35.9788C167.291 35.0175 167.102 33.8604 167.102 32.5075V17.8747H163.649V11.4127H167.102V2.49417H175.348V11.4127H180.863V17.8747H175.348V29.5703C175.348 30.496 175.571 31.1724 176.018 31.5996C176.499 31.9913 177.083 32.1871 177.77 32.1871C178.354 32.1871 178.973 32.0803 179.626 31.8667C180.279 31.6531 180.863 31.4216 181.378 31.1724L182.924 37.9548Z" fill="#0ABE51"/>
<path d="M192.7 20.9346V4.16555H200.43C207.337 4.16555 209.965 7.31642 209.965 12.6035C209.965 17.6769 207.337 20.9346 200.43 20.9346H192.7ZM212.284 12.6035C212.284 6.40855 208.728 2.02937 200.43 2.02937H190.381V39.5194H192.7V23.0708H200.43C208.419 23.0708 212.284 19.1188 212.284 12.6035Z" fill="#FF8500"/>
<path d="M218.515 39.5194H220.834V0H218.515V39.5194Z" fill="#FF8500"/>
<path d="M252.992 10.5207H250.673V26.0614C250.673 34.1255 246.55 37.9172 240.726 37.9172C235.108 37.9172 231.346 34.3391 231.346 27.2363V10.5207H229.078V27.3965C229.078 36.1549 234.18 40 240.417 40C245.003 40 249.075 37.757 250.673 33.2176V39.5194H252.992V10.5207Z" fill="#FF8500"/>
<path d="M280 32.0427C279.897 21.8959 262.889 26.6489 262.889 17.6769C262.889 14.6862 265.724 12.1762 269.796 12.1762C274.743 12.1762 277.32 15.0601 277.526 18.6916H279.845C279.536 13.2977 275.671 10.1469 269.847 10.1469C264.384 10.1469 260.57 13.6182 260.57 17.6769C260.57 28.6782 277.732 24.032 277.732 32.0427C277.732 35.1936 275.155 37.8638 270.775 37.8638C265.466 37.8638 262.529 35.4072 262.168 31.7223H259.797C260.313 37.0627 264.642 39.9466 270.775 39.9466C276.135 39.9466 280 36.5821 280 32.0427Z" fill="#FF8500"/>
</svg>
