<svg width="285" height="72" viewBox="0 0 285 72" fill="none" xmlns="http://www.w3.org/2000/svg">
<path d="M23.992 41.1684H31.4749L19.1749 9.97408H12.5806L0 41.1684H7.48289L9.86806 35.2756H21.6536L23.992 41.1684ZM11.9726 29.757L15.8544 19.2809L19.6894 29.757H11.9726Z" fill="#00C802"/>
<path d="M34.1761 41.1684H40.9107V32.7034C40.9107 30.9262 41.051 28.6813 42.5476 27.0912C43.3894 26.2026 44.4651 25.6881 45.9149 25.6881C47.0841 25.6881 48.0662 25.9688 48.9548 26.4364L49.329 20.1228C48.5807 19.8889 47.9727 19.7954 47.1309 19.7954C45.8214 19.7954 44.6522 19.9824 43.5297 20.684C42.4541 21.3387 41.5187 22.4144 40.9107 23.5836V20.3098H34.1761V41.1684Z" fill="#00C802"/>
<path d="M52.5929 20.3098V41.1684H59.3275V20.3098H52.5929ZM52.0317 11.4239C52.0317 13.622 53.7621 15.3524 55.9602 15.3524C58.1583 15.3524 59.8887 13.622 59.8887 11.4239C59.8887 9.22579 58.1583 7.49538 55.9602 7.49538C53.7621 7.49538 52.0317 9.22579 52.0317 11.4239Z" fill="#00C802"/>
<path d="M65.2374 41.1684H71.972V30.7391C71.972 29.7102 72.0188 27.6992 73.3751 26.3897C73.7492 26.0155 74.591 25.3608 76.0408 25.3608C77.023 25.3608 78.0519 25.6881 78.6598 26.2961C79.7355 27.325 79.7823 29.0087 79.7823 30.4585V41.1684H86.5169V27.933C86.5169 26.3429 86.3766 23.7707 84.4591 21.8532C82.6351 19.9824 80.2032 19.7486 78.5663 19.7486C77.0697 19.7486 75.9005 19.8889 74.4975 20.6372C73.7024 21.0581 72.8138 21.7596 71.972 22.7885V7.07446H65.2374V41.1684Z" fill="#00C802"/>
<path d="M106.85 22.6482C104.932 20.0292 102.079 19.6083 100.302 19.6083C97.4025 19.6083 94.877 20.6372 93.0531 22.4612C91.1356 24.3786 89.8261 27.3718 89.8261 30.8794C89.8261 33.6387 90.6679 36.3513 92.866 38.6897C95.1576 41.1216 97.6831 41.8699 100.676 41.8699C102.407 41.8699 105.026 41.449 106.85 38.6429V41.1684H113.584V20.3098H106.85V22.6482ZM101.986 25.4075C103.202 25.4075 104.698 25.8752 105.727 26.8574C106.709 27.7927 107.271 29.1958 107.271 30.6923C107.271 32.4695 106.522 33.779 105.634 34.6209C104.745 35.5094 103.482 36.0707 102.126 36.0707C100.536 36.0707 99.0862 35.4159 98.1508 34.4338C97.5428 33.779 96.7478 32.5631 96.7478 30.6923C96.7478 28.8216 97.5896 27.6056 98.2911 26.9041C99.1797 26.0155 100.536 25.4075 101.986 25.4075Z" fill="#00C802"/>
<path d="M118.806 41.1684H125.541V30.4585C125.541 29.1022 125.728 27.6056 126.85 26.4832C127.365 25.922 128.253 25.3608 129.656 25.3608C130.872 25.3608 131.714 25.7817 132.229 26.2961C133.304 27.3718 133.351 29.1022 133.351 30.4585V41.1684H140.086V27.9798C140.086 26.2961 139.945 23.8174 137.981 21.8532C136.204 20.076 133.819 19.7486 131.995 19.7486C130.031 19.7486 127.599 20.1695 125.541 22.7885V20.3098H118.806V41.1684Z" fill="#00C802"/>
<path d="M156.426 25.7349V20.3098H152.263V13.5752H145.529V20.3098H143.19V25.7349H145.529V41.1684H152.263V25.7349H156.426Z" fill="#00C802"/>
<path d="M184.068 11.6577C181.356 9.92731 178.596 9.41287 175.743 9.41287C171.441 9.41287 167.699 10.4418 164.472 13.4817C161.853 15.9604 159.468 19.9357 159.468 25.6881C159.468 30.0843 160.824 34.0596 164.472 37.4737C166.296 39.2041 169.851 41.7764 175.51 41.7764C177.661 41.7764 180.935 41.3087 184.068 39.438V33.779C182.291 35.4627 179.391 37.3802 175.65 37.3802C169.009 37.3802 164.238 32.2824 164.238 25.6881C164.238 18.8132 168.822 13.8091 175.603 13.8091C177.38 13.8091 180.607 14.1364 184.068 17.2699V11.6577Z" fill="#00C802"/>
<path d="M202.594 23.7707C200.723 21.3387 198.198 20.9646 196.748 20.9646C191.557 20.9646 187.16 24.8931 187.16 31.3003C187.16 36.7254 190.621 41.7764 196.701 41.7764C198.104 41.7764 200.583 41.449 202.594 39.1106V41.1684H207.177V21.479H202.594V23.7707ZM197.309 25.0802C200.209 25.0802 202.874 27.138 202.874 31.4406C202.874 35.5562 200.209 37.6608 197.309 37.6608C193.988 37.6608 191.837 34.8079 191.837 31.3939C191.837 27.8862 193.988 25.0802 197.309 25.0802Z" fill="#00C802"/>
<path d="M216.637 38.8767C218.695 41.4022 221.454 41.7764 222.53 41.7764C227.207 41.7764 232.07 37.8478 232.07 31.2068C232.07 24.9399 227.674 20.9646 222.483 20.9646C220.519 20.9646 218.321 21.6193 216.637 23.6304V21.479H212.054V51.8783H216.637V38.8767ZM221.922 25.0802C225.242 25.0802 227.394 27.8862 227.394 31.3939C227.394 34.8079 225.242 37.6608 221.922 37.6608C219.022 37.6608 216.356 35.5562 216.356 31.4406C216.356 27.138 219.022 25.0802 221.922 25.0802Z" fill="#00C802"/>
<path d="M235.918 21.479V41.1684H240.501V21.479H235.918Z" fill="#00C802"/>
<path d="M253.582 25.6881V21.479H250.074V14.2767H245.491V21.479H243.573V25.6881H245.491V41.1684H250.074V25.6881H253.582Z" fill="#00C802"/>
<path d="M270.146 23.7707C268.275 21.3387 265.75 20.9646 264.3 20.9646C259.109 20.9646 254.713 24.8931 254.713 31.3003C254.713 36.7254 258.174 41.7764 264.253 41.7764C265.656 41.7764 268.135 41.449 270.146 39.1106V41.1684H274.729V21.479H270.146V23.7707ZM264.861 25.0802C267.761 25.0802 270.427 27.138 270.427 31.4406C270.427 35.5562 267.761 37.6608 264.861 37.6608C261.541 37.6608 259.39 34.8079 259.39 31.3939C259.39 27.8862 261.541 25.0802 264.861 25.0802Z" fill="#00C802"/>
<path d="M279.606 7.07446V41.1684H284.189V7.07446H279.606Z" fill="#00C802"/>
<path d="M131.589 61.2703H135.276C135.188 62.1145 134.854 62.9808 134.032 63.7806C133.077 64.7136 132.011 65.0913 130.722 65.0913C129.301 65.0913 128.034 64.6914 127.012 63.6029C126.035 62.5588 125.48 61.0704 125.48 59.582C125.48 57.9825 126.079 56.4053 127.057 55.4278C127.79 54.6947 129.034 53.895 130.967 53.895C131.878 53.895 132.766 54.0505 133.588 54.5392C134.299 54.9391 134.965 55.6055 135.41 56.2275L137.209 54.9613C136.787 54.2948 136.032 53.4285 134.81 52.7398C133.655 52.0956 132.277 51.8068 130.945 51.8068C128.656 51.8068 126.635 52.7398 125.369 54.0283C124.147 55.2501 123.214 57.2494 123.214 59.5598C123.214 61.6924 123.969 63.6695 125.413 65.1579C126.768 66.5574 128.301 67.1794 130.456 67.1794C132.144 67.1794 133.966 66.7796 135.499 65.2912C136.943 63.8917 137.698 61.8257 137.698 59.2932V59.1821H131.589V61.2703Z" fill="#00C802"/>
<path d="M146.252 63.7361C146.052 64.0916 145.763 64.4692 145.385 64.758C144.941 65.0913 144.497 65.2245 143.897 65.2245C143.364 65.2245 142.742 65.1357 142.231 64.6247C141.764 64.1582 141.475 63.4029 141.431 62.7365H148.14V62.4699C148.14 61.4925 148.029 59.7597 146.829 58.5157C146.274 57.9381 145.319 57.2938 143.83 57.2938C142.497 57.2938 141.475 57.7826 140.698 58.5601C139.72 59.5598 139.209 60.9593 139.209 62.4033C139.209 63.8028 139.698 65.0913 140.587 65.9798C141.475 66.8684 142.497 67.1794 143.741 67.1794C144.741 67.1794 145.741 66.9573 146.496 66.4686C147.096 66.0909 147.673 65.4689 148.073 64.758L146.252 63.7361ZM141.586 60.9593C141.698 60.4928 141.942 60.0485 142.253 59.7597C142.542 59.4709 143.03 59.1599 143.786 59.1599C144.497 59.1599 144.963 59.4265 145.252 59.6931C145.585 60.0041 145.829 60.4484 145.918 60.9593H141.586Z" fill="#00C802"/>
<path d="M149.949 66.8907H152.126V62.4033C152.126 59.382 153.125 59.2488 154.103 59.2488C154.925 59.2488 155.813 59.3154 155.813 61.6924V66.8907H157.99V61.1592C157.99 59.7153 157.768 59.071 157.413 58.5601C157.124 58.1602 156.391 57.2938 154.658 57.2938C154.125 57.2938 153.059 57.3605 152.126 58.4046V57.5382H149.949V66.8907Z" fill="#00C802"/>
<path d="M166.862 63.7361C166.662 64.0916 166.373 64.4692 165.996 64.758C165.551 65.0913 165.107 65.2245 164.507 65.2245C163.974 65.2245 163.352 65.1357 162.841 64.6247C162.374 64.1582 162.086 63.4029 162.041 62.7365H168.75V62.4699C168.75 61.4925 168.639 59.7597 167.439 58.5157C166.884 57.9381 165.929 57.2938 164.44 57.2938C163.108 57.2938 162.086 57.7826 161.308 58.5601C160.331 59.5598 159.82 60.9593 159.82 62.4033C159.82 63.8028 160.309 65.0913 161.197 65.9798C162.086 66.8684 163.108 67.1794 164.352 67.1794C165.351 67.1794 166.351 66.9573 167.106 66.4686C167.706 66.0909 168.284 65.4689 168.684 64.758L166.862 63.7361ZM162.197 60.9593C162.308 60.4928 162.552 60.0485 162.863 59.7597C163.152 59.4709 163.641 59.1599 164.396 59.1599C165.107 59.1599 165.573 59.4265 165.862 59.6931C166.195 60.0041 166.44 60.4484 166.529 60.9593H162.197Z" fill="#00C802"/>
<path d="M170.581 66.8907H172.758V62.0478C172.758 61.4258 172.758 60.5372 173.358 59.893C173.78 59.4487 174.247 59.382 174.713 59.382C174.935 59.382 175.335 59.4043 175.824 59.7153L176.712 57.7381C176.113 57.3827 175.535 57.2938 175.002 57.2938C174.513 57.2938 174.091 57.3605 173.669 57.6049C173.358 57.7826 173.003 58.0936 172.758 58.3824V57.5382H170.581V66.8907Z" fill="#00C802"/>
<path d="M183.878 58.6267C182.989 57.4716 181.79 57.2938 181.101 57.2938C178.635 57.2938 176.547 59.1599 176.547 62.2033C176.547 64.7802 178.191 67.1794 181.079 67.1794C181.745 67.1794 182.923 67.0239 183.878 65.9132V66.8907H186.055V57.5382H183.878V58.6267ZM181.367 59.2488C182.745 59.2488 184.011 60.2262 184.011 62.27C184.011 64.2249 182.745 65.2245 181.367 65.2245C179.79 65.2245 178.768 63.8694 178.768 62.2478C178.768 60.5816 179.79 59.2488 181.367 59.2488Z" fill="#00C802"/>
<path d="M192.281 59.5375V57.5382H190.615V54.1171H188.438V57.5382H187.527V59.5375H188.438V66.8907H190.615V59.5375H192.281Z" fill="#00C802"/>
<path d="M193.307 57.5382V66.8907H195.484V57.5382H193.307ZM192.996 53.6728C192.996 54.4726 193.596 55.0724 194.396 55.0724C195.195 55.0724 195.795 54.4726 195.795 53.6728C195.795 52.8731 195.195 52.2733 194.396 52.2733C193.596 52.2733 192.996 52.8731 192.996 53.6728Z" fill="#00C802"/>
<path d="M197.765 66.8907H199.942V62.4033C199.942 59.382 200.942 59.2488 201.919 59.2488C202.741 59.2488 203.63 59.3154 203.63 61.6924V66.8907H205.807V61.1592C205.807 59.7153 205.585 59.071 205.229 58.5601C204.941 58.1602 204.207 57.2938 202.475 57.2938C201.942 57.2938 200.875 57.3605 199.942 58.4046V57.5382H197.765V66.8907Z" fill="#00C802"/>
<path d="M214.967 58.5601C214.167 57.6049 213.123 57.2938 212.19 57.2938C211.057 57.2938 209.947 57.6271 209.014 58.5823C208.281 59.3154 207.636 60.4928 207.636 62.2033C207.636 63.7584 208.192 65.0246 209.036 65.9132C209.924 66.8462 210.924 67.1794 212.124 67.1794C212.746 67.1794 213.968 67.1128 214.967 65.8466V67.0684C214.967 67.757 214.967 68.7345 214.256 69.4231C213.99 69.6897 213.457 70.0452 212.546 70.0452C211.657 70.0452 211.124 69.6897 210.857 69.4009C210.524 69.0455 210.258 68.4457 210.169 67.9348H208.058C208.214 69.0677 208.747 70.1562 209.436 70.8449C210.324 71.7335 211.413 72.0001 212.501 72.0001C214.034 72.0001 215.012 71.4891 215.611 71.0004C216.9 69.9119 217.144 68.3346 217.144 66.1354V57.5382H214.967V58.5601ZM212.457 59.2488C213.079 59.2488 213.679 59.382 214.212 59.9152C214.767 60.4484 215.101 61.2259 215.101 62.27C215.101 62.9808 214.923 63.7806 214.279 64.4692C213.745 65.0246 213.146 65.2245 212.457 65.2245C211.791 65.2245 211.191 64.958 210.791 64.6025C210.213 64.0916 209.858 63.1808 209.858 62.2478C209.858 61.2481 210.258 60.3817 210.813 59.8708C211.302 59.4043 211.857 59.2488 212.457 59.2488Z" fill="#00C802"/>
<path d="M222.913 52.0734L229.222 67.8459L233.132 57.3383L236.997 67.8459L243.617 52.0734H241.173L237.13 61.9812L233.265 51.3625L229.266 61.9812L225.356 52.0734H222.913Z" fill="#00C802"/>
<path d="M250.529 63.7361C250.329 64.0916 250.041 64.4692 249.663 64.758C249.219 65.0913 248.774 65.2245 248.175 65.2245C247.641 65.2245 247.019 65.1357 246.508 64.6247C246.042 64.1582 245.753 63.4029 245.709 62.7365H252.418V62.4699C252.418 61.4925 252.307 59.7597 251.107 58.5157C250.552 57.9381 249.596 57.2938 248.108 57.2938C246.775 57.2938 245.753 57.7826 244.976 58.5601C243.998 59.5598 243.487 60.9593 243.487 62.4033C243.487 63.8028 243.976 65.0913 244.865 65.9798C245.753 66.8684 246.775 67.1794 248.019 67.1794C249.019 67.1794 250.018 66.9573 250.774 66.4686C251.374 66.0909 251.951 65.4689 252.351 64.758L250.529 63.7361ZM245.864 60.9593C245.975 60.4928 246.22 60.0485 246.531 59.7597C246.819 59.4709 247.308 59.1599 248.064 59.1599C248.774 59.1599 249.241 59.4265 249.53 59.6931C249.863 60.0041 250.107 60.4484 250.196 60.9593H245.864Z" fill="#00C802"/>
<path d="M261.091 58.6267C260.202 57.4716 259.003 57.2938 258.314 57.2938C255.848 57.2938 253.76 59.1599 253.76 62.2033C253.76 64.7802 255.404 67.1794 258.292 67.1794C258.958 67.1794 260.136 67.0239 261.091 65.9132V66.8907H263.268V57.5382H261.091V58.6267ZM258.58 59.2488C259.958 59.2488 261.224 60.2262 261.224 62.27C261.224 64.2249 259.958 65.2245 258.58 65.2245C257.003 65.2245 255.981 63.8694 255.981 62.2478C255.981 60.5816 257.003 59.2488 258.58 59.2488Z" fill="#00C802"/>
<path d="M265.584 50.696V66.8907H267.761V50.696H265.584Z" fill="#00C802"/>
<path d="M273.974 59.5375V57.5382H272.308V54.1171H270.131V57.5382H269.22V59.5375H270.131V66.8907H272.308V59.5375H273.974Z" fill="#00C802"/>
<path d="M275 66.8907H277.177V62.381C277.177 61.1814 277.311 60.4706 277.622 60.0263C277.91 59.6042 278.488 59.2488 279.221 59.2488C279.777 59.2488 280.199 59.4709 280.443 59.7375C280.865 60.204 280.865 60.8038 280.865 61.3592V66.8907H283.042V61.1592C283.042 60.4928 283.02 59.4043 282.442 58.5601C282.176 58.1824 281.398 57.2938 279.688 57.2938C279.132 57.2938 278.11 57.3827 277.177 58.3379V50.696H275V66.8907Z" fill="#00C802"/>
<path d="M229.714 10.1844L237.898 2C241.094 5.19621 242.886 6.9882 246.083 10.1844" stroke="#FC9415" stroke-width="2.5"/>
<path d="M233.221 15.4458L237.898 10.769C241.094 13.9653 239.379 12.2496 242.575 15.4458" stroke="#FC9415" stroke-width="2.5"/>
</svg>
