<svg width="56" height="70" viewBox="0 0 56 70" fill="none" xmlns="http://www.w3.org/2000/svg">
<path d="M49.9805 8.06949L27.5285 0.0333252L5.32533 7.96424C2.4896 9.29483 0.000801582 10.0992 0.000801582 12.7303V25.8558C-0.0516783 35.0747 2.47371 44.1258 7.29374 51.994C12.1098 59.9343 19.2468 66.2166 27.7472 69.9983C36.7974 67.059 43.585 59.2108 47.7708 52.5052C52.604 44.6409 55.1425 35.5895 55.1014 26.367V14.5646C55.1014 10.8058 53.0953 8.97159 49.9805 8.06949Z" fill="#C25E54"/>
<g opacity="0.3">
<path opacity="0.3" d="M27.7473 62.3616C21.011 59.3335 15.3658 54.323 11.57 48.0033C7.74877 41.7854 5.7405 34.6295 5.77031 27.3378V18.1665C5.77031 16.0766 7.03734 14.1221 9.54123 12.9569L27.5361 6.25132V0.0644531L5.32534 7.9653C2.99491 8.98016 0.000801583 10.1003 0.000801583 12.7314V25.8569C-0.0516784 35.0757 2.47372 44.1269 7.29375 51.9951C12.1098 59.9353 19.2468 66.2177 27.7473 69.9994V62.3616Z" fill="black"/>
</g>
<g opacity="0.4">
<path opacity="0.4" d="M27.743 69.9725C29.2662 69.4766 30.7426 68.8477 32.1549 68.0932C35.6282 66.1348 38.7859 63.6665 41.5219 60.7711C43.9959 58.1148 46.1732 55.1985 48.0154 52.0734C52.9054 44.1511 55.3668 34.9774 55.0972 25.6796V14.847C55.0972 9.44945 52.3067 9.05102 49.9687 8.03617L27.5167 0V6.18688L45.7227 13.0052C48.2266 14.1704 49.4936 16.125 49.4936 18.2073V27.4162C49.5236 34.7056 47.5153 41.8591 43.6939 48.0742C39.9798 54.3648 34.4023 59.3544 27.7279 62.3573L27.743 69.9725Z" fill="black"/>
</g>
<path opacity="0.5" d="M33.4878 26.7481V24.974C33.4878 23.4328 32.8736 21.9547 31.7802 20.865C30.6869 19.7752 29.2041 19.163 27.6579 19.163C26.1118 19.163 24.6289 19.7752 23.5356 20.865C22.4423 21.9547 21.8281 23.4328 21.8281 24.974V26.7781C21.0566 26.8934 20.3521 27.2807 19.8428 27.8697C19.3335 28.4588 19.0532 29.2105 19.0527 29.9881V40.4374C19.0527 41.2987 19.396 42.1247 20.007 42.7337C20.618 43.3428 21.4467 43.6849 22.3108 43.6849H33.2313C34.0954 43.6849 34.9241 43.3428 35.5351 42.7337C36.1461 42.1247 36.4894 41.2987 36.4894 40.4374V29.9881C36.4901 29.1706 36.1814 28.3829 35.625 27.7823C35.0686 27.1817 34.3054 26.8124 33.4878 26.7481V26.7481ZM29.2417 37.8288H26.3909L26.8359 35.7765C26.524 35.574 26.2861 35.2765 26.1576 34.9282C26.0292 34.58 26.017 34.1997 26.123 33.844C26.229 33.4883 26.4474 33.1763 26.7458 32.9544C27.0441 32.7325 27.4064 32.6126 27.7786 32.6126C28.1508 32.6126 28.5131 32.7325 28.8115 32.9544C29.1098 33.1763 29.3282 33.4883 29.4342 33.844C29.5402 34.1997 29.528 34.58 29.3996 34.9282C29.2711 35.2765 29.0332 35.574 28.7213 35.7765C28.9174 36.5433 29.2417 37.8288 29.2417 37.8288ZM32.2584 26.733H23.0876V24.974C23.1356 23.7968 23.6385 22.6837 24.491 21.8677C25.3436 21.0517 26.4797 20.596 27.6617 20.596C28.8437 20.596 29.9798 21.0517 30.8324 21.8677C31.685 22.6837 32.1879 23.7968 32.2358 24.974L32.2584 26.733Z" fill="white"/>
<path d="M9.4095 26.6174C9.21332 26.0294 9.09911 25.4172 9.07011 24.7982C8.90229 23.3185 8.8418 21.8287 8.88911 20.3404C8.88911 19.4683 8.97207 18.6414 9.04748 17.8897C9.08491 17.2041 9.25655 16.5324 9.55277 15.9126C9.76507 15.4879 10.1088 15.1427 10.5332 14.9278C10.8424 14.785 11.031 14.7925 11.031 14.815C10.4892 15.0627 10.0535 15.4944 9.80166 16.0329C9.56062 16.6339 9.42787 17.2727 9.4095 17.9197C9.34916 18.6715 9.3039 19.4909 9.28128 20.3554C9.22849 22.0769 9.28127 23.6405 9.34915 24.7757C9.41748 25.3871 9.43767 26.0029 9.4095 26.6174V26.6174Z" fill="white"/>
<path d="M9.73916 32.3202C9.63358 32.3202 9.53554 31.7865 9.52045 31.1176C9.50537 30.4486 9.58833 29.9074 9.69391 29.9074C9.79949 29.9074 9.89751 30.4411 9.91259 31.11C9.92767 31.779 9.85227 32.3202 9.73916 32.3202Z" fill="white"/>
</svg>
