<svg width="56" height="70" viewBox="0 0 56 70" fill="none" xmlns="http://www.w3.org/2000/svg">
<path d="M49.9805 8.06937L27.5285 0.0332031L5.32533 7.96411C2.4896 9.2947 0.000801582 10.0991 0.000801582 12.7302V25.8557C-0.0516783 35.0746 2.47371 44.1257 7.29374 51.9939C12.1098 59.9342 19.2468 66.2165 27.7472 69.9982C36.7974 67.0589 43.585 59.2106 47.7708 52.5051C52.604 44.6408 55.1425 35.5894 55.1014 26.3669V14.5645C55.1014 10.8057 53.0953 8.97146 49.9805 8.06937Z" fill="#35B350"/>
<g opacity="0.3">
<path opacity="0.3" d="M27.7473 62.3616C21.011 59.3335 15.3658 54.323 11.57 48.0033C7.74877 41.7854 5.7405 34.6295 5.77031 27.3378V18.1665C5.77031 16.0766 7.03734 14.1221 9.54123 12.9569L27.5361 6.25132V0.0644531L5.32534 7.9653C2.99491 8.98016 0.000801583 10.1003 0.000801583 12.7314V25.8569C-0.0516784 35.0757 2.47372 44.1269 7.29375 51.9951C12.1098 59.9353 19.2468 66.2177 27.7473 69.9994V62.3616Z" fill="black"/>
</g>
<g opacity="0.4">
<path opacity="0.4" d="M27.7429 69.9725C29.2661 69.4766 30.7425 68.8477 32.1548 68.0932C35.6281 66.1348 38.7858 63.6665 41.5218 60.7711C43.9958 58.1148 46.1731 55.1985 48.0153 52.0734C52.9053 44.1511 55.3667 34.9774 55.0971 25.6796V14.847C55.0971 9.44945 52.3066 9.05102 49.9686 8.03617L27.5166 0V6.18688L45.7226 13.0052C48.2265 14.1704 49.4935 16.125 49.4935 18.2073V27.4162C49.5235 34.7056 47.5152 41.8591 43.6938 48.0742C39.9797 54.3648 34.4022 59.3544 27.7278 62.3573L27.7429 69.9725Z" fill="black"/>
</g>
<path opacity="0.5" d="M33.4878 26.7482V24.9741C33.4878 23.4329 32.8736 21.9549 31.7802 20.8651C30.6869 19.7753 29.2041 19.1631 27.6579 19.1631C26.1118 19.1631 24.6289 19.7753 23.5356 20.8651C22.4423 21.9549 21.8281 23.4329 21.8281 24.9741V26.7783C21.0566 26.8935 20.3521 27.2808 19.8428 27.8699C19.3335 28.4589 19.0532 29.2106 19.0527 29.9882V40.4375C19.0527 41.2988 19.396 42.1248 20.007 42.7338C20.618 43.3429 21.4467 43.685 22.3108 43.685H33.2313C34.0954 43.685 34.9241 43.3429 35.5351 42.7338C36.1461 42.1248 36.4894 41.2988 36.4894 40.4375V29.9882C36.4901 29.1707 36.1814 28.3831 35.625 27.7825C35.0686 27.1819 34.3054 26.8125 33.4878 26.7482V26.7482ZM29.2417 37.8289H26.3909L26.8359 35.7767C26.524 35.5741 26.2861 35.2766 26.1576 34.9283C26.0292 34.5801 26.017 34.1998 26.123 33.8441C26.229 33.4884 26.4474 33.1764 26.7458 32.9545C27.0441 32.7326 27.4064 32.6128 27.7786 32.6128C28.1508 32.6128 28.5131 32.7326 28.8115 32.9545C29.1098 33.1764 29.3282 33.4884 29.4342 33.8441C29.5402 34.1998 29.528 34.5801 29.3996 34.9283C29.2711 35.2766 29.0332 35.5741 28.7213 35.7767C28.9174 36.5434 29.2417 37.8289 29.2417 37.8289ZM32.2584 26.7332H23.0876V24.9741C23.1356 23.7969 23.6385 22.6838 24.491 21.8678C25.3436 21.0518 26.4797 20.5962 27.6617 20.5962C28.8437 20.5962 29.9798 21.0518 30.8324 21.8678C31.685 22.6838 32.1879 23.7969 32.2358 24.9741L32.2584 26.7332Z" fill="white"/>
<path d="M9.4095 26.6177C9.21332 26.0297 9.09911 25.4176 9.07011 24.7985C8.90229 23.3188 8.8418 21.829 8.88911 20.3407C8.88911 19.4686 8.97207 18.6417 9.04748 17.89C9.08491 17.2044 9.25655 16.5327 9.55277 15.9129C9.76507 15.4882 10.1088 15.143 10.5332 14.9281C10.8424 14.7853 11.031 14.7928 11.031 14.8153C10.4892 15.063 10.0535 15.4947 9.80166 16.0332C9.56062 16.6342 9.42787 17.273 9.4095 17.92C9.34916 18.6718 9.3039 19.4912 9.28128 20.3557C9.22849 22.0772 9.28127 23.6408 9.34915 24.776C9.41748 25.3874 9.43767 26.0032 9.4095 26.6177V26.6177Z" fill="white"/>
<path d="M9.73903 32.32C9.63346 32.32 9.53541 31.7863 9.52033 31.1174C9.50525 30.4484 9.58821 29.9072 9.69379 29.9072C9.79936 29.9072 9.89738 30.4409 9.91247 31.1099C9.92755 31.7788 9.85215 32.32 9.73903 32.32Z" fill="white"/>
</svg>
