<svg width="200" height="150" viewBox="0 0 200 150" fill="none" xmlns="http://www.w3.org/2000/svg">
<path d="M193.743 149.814C193.743 149.905 150.367 149.977 96.8785 149.977C43.3897 149.977 0 149.917 0 149.814C0 149.712 43.367 149.646 96.8785 149.646C150.39 149.646 193.743 149.736 193.743 149.814Z" fill="#263238"/>
<path d="M43.2685 111.552L25.0142 93.2746L34.1927 76.4736C43.3713 64.7588 62.8048 65.512 62.8048 65.512C72.3921 64.8625 82.0235 65.452 91.4591 67.2657C106.896 70.2787 105.65 80.4388 105.65 80.4388L107.718 118.145L109.937 148.848L53.0094 149.993L43.2685 111.576" fill="#00C802"/>
<path d="M73.9384 148.2L22.9483 148.802C20.1393 148.835 17.3682 148.155 14.8951 146.827C12.422 145.5 10.3281 143.567 8.81018 141.211C7.29222 138.855 6.39997 136.154 6.21724 133.36C6.0345 130.566 6.56728 127.772 7.76552 125.24L29.5692 84.9429L49.4319 98.321L35.8817 126.325L77.1551 127.06L73.9384 148.2Z" fill="#00C802"/>
<path d="M103.849 74.2953L144.765 137.257L120.894 138.811C120.894 138.811 106.636 116.424 106.957 116.882C107.525 117.726 103.849 74.2953 103.849 74.2953Z" fill="#00C802"/>
<path d="M48.4059 101.937C48.4074 101.827 48.4257 101.717 48.4603 101.612C48.5208 101.371 48.5873 101.069 48.678 100.696C48.8654 99.9064 49.1436 98.7614 49.4278 97.3393C49.712 95.9171 50.0324 94.2056 50.2319 92.3014C50.4775 90.2376 50.4775 88.1522 50.2319 86.0884C49.9039 84.042 49.1877 82.0766 48.1217 80.2973C47.265 78.8324 46.2513 77.4644 45.0985 76.2175C44.3214 75.3652 43.4936 74.5602 42.6194 73.8071C42.2862 73.5472 41.9673 73.2696 41.6641 72.9755C41.7625 73.0242 41.8557 73.0827 41.9422 73.1502C42.1115 73.2768 42.3836 73.4515 42.698 73.7107C43.6073 74.4262 44.464 75.2055 45.2617 76.0428C46.4535 77.2804 47.5002 78.6491 48.3817 80.1225C49.4852 81.9293 50.2245 83.9333 50.5585 86.0221C50.7979 88.1114 50.7816 90.222 50.5101 92.3074C50.3059 94.0043 50.0153 95.6898 49.6394 97.3573C49.325 98.7855 49.0347 99.9245 48.7868 100.708C48.678 101.1 48.5813 101.401 48.5147 101.606C48.4893 101.719 48.4528 101.831 48.4059 101.937V101.937Z" fill="#263238"/>
<path d="M46.7612 104.114C46.6739 104.427 46.5565 104.732 46.4105 105.024C46.1687 105.626 45.8059 106.434 45.3403 107.434C44.4152 109.477 43.1031 112.285 41.5915 115.358C40.0799 118.432 38.6529 121.186 37.5947 123.192C37.0627 124.181 36.6273 125 36.3189 125.525C36.1717 125.816 36.0019 126.097 35.811 126.362C35.9196 126.055 36.0531 125.756 36.2101 125.47C36.5185 124.868 36.9175 124.06 37.4194 123.09L41.3315 115.256C42.8129 112.201 44.1612 109.441 45.165 107.374C45.6366 106.404 46.0236 105.596 46.3259 104.963C46.4469 104.668 46.5925 104.384 46.7612 104.114V104.114Z" fill="#263238"/>
<path d="M73.9341 148.199C73.9341 148.199 73.9341 148.163 73.9341 148.097C73.9341 148.03 73.9341 147.91 73.9341 147.783C73.9644 147.494 74.0067 147.09 74.0551 146.578C74.176 145.505 74.3453 143.981 74.5569 142.058C75.0044 138.16 75.6453 132.676 76.3709 126.21L76.516 126.366H61.4542L35.1459 126.324L27.1645 126.276L24.9938 126.246H24.4254H24.2319C24.2962 126.238 24.3612 126.238 24.4254 126.246H24.9938L27.1645 126.216L35.1459 126.167L61.4965 126.125H76.5583H76.7216V126.282C75.9234 132.742 75.2523 138.226 74.7686 142.119C74.5267 144.035 74.3272 145.56 74.1639 146.632C74.0994 147.139 74.045 147.54 74.0007 147.838L73.9523 148.145C73.9462 148.163 73.9402 148.199 73.9341 148.199Z" fill="#263238"/>
<path d="M36.2388 126.765C35.8736 126.363 35.5343 125.938 35.223 125.493C33.5935 123.454 31.5756 121.757 29.2854 120.498C28.7962 120.262 28.3199 120 27.8584 119.714C28.3951 119.84 28.9105 120.043 29.3882 120.317C31.7734 121.491 33.8362 123.227 35.3984 125.373C35.7417 125.796 36.0245 126.264 36.2388 126.765V126.765Z" fill="#263238"/>
<path d="M108.568 130.753C108.524 130.581 108.495 130.405 108.483 130.228C108.441 129.861 108.387 129.36 108.314 128.728C108.175 127.426 107.987 125.54 107.788 123.208C107.371 118.537 106.893 112.077 106.47 104.942C106.047 97.8074 105.75 91.3353 105.581 86.653C105.496 84.3088 105.436 82.4347 105.412 81.1029C105.412 80.4702 105.412 79.97 105.381 79.5964C105.372 79.4217 105.372 79.2467 105.381 79.0721C105.415 79.2449 105.433 79.4203 105.436 79.5964C105.436 79.964 105.484 80.4702 105.52 81.1029C105.587 82.4407 105.678 84.3269 105.793 86.641C106.016 91.3233 106.349 97.7833 106.772 104.924C107.195 112.065 107.643 118.513 107.981 123.19C108.163 125.498 108.308 127.408 108.411 128.722C108.459 129.324 108.495 129.855 108.526 130.222C108.556 130.397 108.57 130.575 108.568 130.753V130.753Z" fill="#263238"/>
<path d="M63.0459 96.4952C63.0485 96.2188 63.0708 95.9429 63.1124 95.6696C63.185 95.0971 63.2757 94.3318 63.3906 93.3917C63.6566 91.403 63.9952 88.6792 64.4427 85.5215L64.6724 85.6662L60.7603 88.396L56.7817 91.156L56.4976 91.3549L56.5459 91.0114C57.0297 87.8838 57.4408 85.1841 57.7552 83.1773C57.9124 82.2553 58.0334 81.496 58.1301 80.9296C58.1626 80.6579 58.2192 80.3897 58.2994 80.1281C58.2998 80.4029 58.2755 80.6772 58.2269 80.9477C58.1543 81.5141 58.0636 82.2734 57.9427 83.2075C57.6706 85.1841 57.2896 87.8898 56.8543 91.0415L56.6245 90.8969L60.5971 88.1248L64.5152 85.407L64.7994 85.2082L64.751 85.5517C64.2855 88.6973 63.8803 91.4211 63.5901 93.3857C63.4389 94.3197 63.318 95.085 63.2273 95.6515C63.1923 95.9375 63.1316 96.2199 63.0459 96.4952V96.4952Z" fill="#E0E0E0"/>
<path d="M85.8058 98.9324C85.5879 98.7595 85.3855 98.5679 85.2011 98.3599C84.8081 97.9381 84.276 97.3776 83.623 96.6907L78.2234 90.8573L78.4834 90.767C78.3565 92.2434 78.2234 93.8463 78.0844 95.5095C77.9453 97.1728 77.8002 98.8239 77.6732 100.33L77.643 100.68L77.4132 100.421L72.1588 94.5152L70.6593 92.7917C70.4685 92.5945 70.2983 92.3785 70.1514 92.1469C70.3688 92.3313 70.571 92.5328 70.756 92.7496L72.316 94.4128L77.649 100.24L77.389 100.33C77.516 98.83 77.649 97.2029 77.7941 95.5095C77.9393 93.8162 78.0723 92.2434 78.1993 90.767L78.2295 90.4235L78.4593 90.6766L83.7802 96.5882L85.2979 98.3177C85.483 98.5091 85.6528 98.7146 85.8058 98.9324Z" fill="#E0E0E0"/>
<path d="M97.2594 98.1299C97.1468 98.3839 97.009 98.6262 96.8482 98.853L95.6389 100.793L91.3217 107.47L91.1766 107.241L95.8687 106.434L100.645 105.632L100.99 105.572L100.827 105.831L96.4129 112.376L95.0826 114.268C94.935 114.5 94.7692 114.719 94.5868 114.925C94.7062 114.678 94.8436 114.44 94.998 114.214L96.2073 112.285L100.531 105.657L100.682 105.886L95.905 106.711L91.1948 107.507L90.8501 107.561L91.0436 107.278L95.4515 100.649L96.7454 98.7506C96.9041 98.5336 97.0758 98.3263 97.2594 98.1299V98.1299Z" fill="#E0E0E0"/>
<path d="M82.029 109.808C81.9153 110.06 81.7776 110.3 81.6179 110.525L80.4086 112.472L76.0974 119.143L75.9463 118.914L80.6504 118.106L85.4332 117.299L85.7779 117.245L85.5783 117.528L81.1644 124.078L79.8644 125.958C79.72 126.19 79.554 126.408 79.3686 126.609C79.4896 126.363 79.6269 126.126 79.7797 125.898C80.0941 125.416 80.5053 124.771 80.989 123.976L85.3123 117.347L85.4634 117.576L80.6867 118.402L75.9765 119.191L75.6318 119.251L75.8253 118.962L80.2332 112.333C80.7653 111.55 81.2007 110.911 81.5332 110.435C81.6831 110.214 81.8488 110.005 82.029 109.808V109.808Z" fill="#E0E0E0"/>
<path d="M114.938 97.9917C114.818 98.2401 114.681 98.4797 114.527 98.7088L113.318 100.655L109.007 107.326L108.856 107.097L113.56 106.29L118.343 105.482L118.687 105.428L118.494 105.711L114.074 112.262C113.542 113.033 113.106 113.666 112.774 114.136C112.631 114.37 112.464 114.591 112.278 114.793C112.4 114.546 112.539 114.308 112.695 114.082L113.904 112.159L118.228 105.53L118.379 105.759L113.602 106.579L108.892 107.374L108.553 107.435L108.741 107.145L113.149 100.517L114.449 98.6184C114.591 98.3941 114.755 98.1842 114.938 97.9917V97.9917Z" fill="#E0E0E0"/>
<path d="M133.927 128.334C133.711 128.17 133.508 127.989 133.322 127.792L131.665 126.201L125.976 120.645L126.23 120.542C126.181 122.025 126.133 123.628 126.079 125.297C126.024 126.966 125.958 128.623 125.903 130.118V130.467L125.655 130.22L120.117 124.586L118.532 122.941C118.336 122.754 118.154 122.553 117.988 122.338C118.204 122.503 118.406 122.684 118.593 122.88L120.238 124.465L125.861 130.021L125.601 130.124C125.649 128.617 125.704 126.99 125.758 125.303C125.812 123.616 125.879 122.031 125.933 120.548V120.205L126.175 120.446L131.78 126.086L133.383 127.738C133.58 127.921 133.762 128.12 133.927 128.334V128.334Z" fill="#E0E0E0"/>
<path d="M37.8763 88.3241C37.758 88.5733 37.6205 88.8131 37.4652 89.0412L36.2559 90.9877L31.9447 97.6647L31.7935 97.4357L36.4977 96.6221L41.2805 95.8206L41.6251 95.7604L41.4317 96.0496L37.0117 102.594L35.7177 104.474C35.5709 104.704 35.405 104.922 35.2219 105.125C35.3378 104.878 35.4754 104.642 35.6331 104.42L36.8424 102.492C37.9368 100.822 39.4363 98.5324 41.1656 95.8628L41.3168 96.0918L36.54 96.9174L31.8298 97.7129L31.4912 97.7671L31.6787 97.4839C33.4503 94.8324 34.974 92.5424 36.0865 90.8551L37.3865 88.9568C37.5328 88.7334 37.6966 88.5218 37.8763 88.3241Z" fill="#E0E0E0"/>
<path d="M13.9712 133.376C14.1749 133.56 14.3611 133.761 14.5275 133.979L16.0028 135.745L21.0154 141.909L20.7493 141.982C20.967 140.517 21.1968 138.926 21.4447 137.269C21.6926 135.612 21.9344 133.979 22.1581 132.49L22.2065 132.147L22.4242 132.424L27.2977 138.643L28.6823 140.451C28.8582 140.66 29.016 140.884 29.1539 141.12C28.9554 140.933 28.7714 140.732 28.6037 140.517L27.1526 138.758L22.2247 132.605L22.4907 132.539C22.273 134.027 22.0372 135.642 21.7893 137.317C21.5414 138.993 21.3056 140.559 21.0819 142.024L21.0335 142.367L20.8158 142.096L15.8819 135.865L14.4731 134.057C14.2906 133.842 14.1229 133.614 13.9712 133.376V133.376Z" fill="#E0E0E0"/>
<path d="M68.5693 104.208C68.2985 104.266 68.0236 104.302 67.747 104.317L65.4493 104.515L57.5042 105.118L57.601 104.865L61.0838 108.119L64.6089 111.434L64.8628 111.675H64.5121L56.6094 112.108L54.3238 112.205C54.0502 112.229 53.7751 112.229 53.5015 112.205C53.7707 112.151 54.0435 112.117 54.3177 112.102L56.5973 111.922L64.494 111.379L64.4033 111.632L60.8661 108.33L57.3954 105.064L57.1415 104.823H57.4861L65.4372 104.347L67.7349 104.232C68.012 104.203 68.291 104.195 68.5693 104.208V104.208Z" fill="#E0E0E0"/>
<path d="M55.1665 134.576C55.3683 134.765 55.5581 134.967 55.7349 135.179L57.2404 136.914L62.386 142.977L62.12 143.049C62.3074 141.579 62.513 139.988 62.7246 138.331C62.9363 136.673 63.1539 135.028 63.3293 133.54L63.3776 133.19L63.5953 133.461L68.6018 139.578L70.0227 141.386C70.1989 141.596 70.3605 141.817 70.5065 142.049C70.3025 141.864 70.1144 141.662 69.9441 141.446L68.4567 139.717L63.3776 133.69L63.6376 133.612C63.4502 135.107 63.2446 136.722 63.033 138.403C62.8214 140.084 62.6097 141.657 62.4283 143.127L62.38 143.471L62.1623 143.206L57.1014 137.071L55.6623 135.263C55.4747 135.051 55.3087 134.821 55.1665 134.576V134.576Z" fill="#E0E0E0"/>
<path d="M31.2156 112.305C30.945 112.365 30.6699 112.401 30.3932 112.414L28.1016 112.607L20.1565 113.209L20.2472 112.95L23.736 116.21L27.2611 119.525L27.5151 119.766H27.1644L19.2616 120.2L16.9761 120.296C16.7085 120.319 16.4395 120.319 16.1719 120.296C16.4405 120.238 16.7136 120.204 16.9882 120.194L19.2677 120.013L27.1644 119.464L27.0737 119.724L23.5365 116.421L20.0598 113.155L19.8119 112.914H20.1565L28.1077 112.432L30.4053 112.323C30.6746 112.297 30.9454 112.291 31.2156 112.305Z" fill="#E0E0E0"/>
<path d="M51.7935 133.9C51.5227 133.957 51.2477 133.991 50.9711 134.002L48.6735 134.201L40.7284 134.804L40.8251 134.545L44.3079 137.805L47.833 141.119L48.0869 141.36H47.7423L39.8335 141.788L37.5479 141.891C37.2743 141.914 36.9992 141.914 36.7256 141.891C36.9942 141.833 37.2673 141.799 37.5419 141.788L39.8214 141.607L47.7181 141.059L47.6274 141.318L44.0902 138.016L40.6195 134.762L40.3656 134.527H40.7102L48.6614 134.045L50.9651 133.936C51.2395 133.899 51.5168 133.887 51.7935 133.9Z" fill="#E0E0E0"/>
<path d="M98.2363 78.9648C97.9655 79.0227 97.6906 79.0589 97.414 79.0733L95.1163 79.2661L87.1773 79.8687L87.268 79.6156L90.7508 82.8698L94.2759 86.1841L94.5298 86.4252H94.1852L86.2764 86.8591L83.9908 86.9555C83.7172 86.9791 83.4421 86.9791 83.1685 86.9555C83.4371 86.8978 83.7102 86.8635 83.9847 86.853L86.2643 86.6723L94.167 86.1299L94.0703 86.383L90.5452 83.0867L87.0745 79.8205L86.8205 79.5795H87.1652L95.1163 79.0974L97.42 78.9889C97.6911 78.9605 97.964 78.9525 98.2363 78.9648V78.9648Z" fill="#E0E0E0"/>
<path d="M75.6496 133.902C75.6496 133.902 85.8198 130.98 89.1877 130.124C90.4998 129.792 96.117 132.745 99.9989 135.204C99.9989 135.204 105.344 138.362 104.915 139.332C104.437 140.404 102.496 140.187 99.3217 138.729C99.3217 138.729 100.422 141.905 98.2635 141.833C98.2635 141.833 99.3338 145.268 97.3142 145.623C95.2947 145.979 94.8231 141.598 93.0454 141.363C91.2677 141.128 87.6036 140.887 87.6036 140.887C87.6036 140.887 84.538 145.948 82.1617 146.31C79.7854 146.672 74.3013 146.027 74.3013 146.027L75.6496 133.902Z" fill="#FFBE9D"/>
<path d="M93.0073 134.599C94.003 135.041 94.9545 135.575 95.8492 136.196C96.7985 136.731 97.6935 137.356 98.5217 138.064C96.5742 137.091 94.7272 135.931 93.0073 134.599V134.599Z" fill="#EB996E"/>
<path d="M92.4082 136.56C93.5699 136.924 94.6985 137.386 95.7821 137.94C96.9022 138.393 97.9823 138.94 99.011 139.573C97.8488 139.212 96.7199 138.753 95.637 138.199C94.5148 137.748 93.4344 137.199 92.4082 136.56Z" fill="#EB996E"/>
<path d="M93.499 141.274C95.0351 141.269 96.5648 141.472 98.046 141.877C96.51 141.881 94.9805 141.679 93.499 141.274V141.274Z" fill="#EB996E"/>
<path d="M62.4092 29.2995C62.529 29.6901 62.5307 30.107 62.4141 30.4985C62.2976 30.89 62.068 31.2386 61.7539 31.5008C61.4398 31.763 61.0553 31.9273 60.6481 31.9731C60.241 32.0188 59.8294 31.9441 59.4646 31.7582C58.086 31.0652 57.9106 29.167 58.1827 27.6544C58.4548 26.1418 58.9688 24.5208 58.3339 23.1167C57.8441 22.044 56.786 21.3631 55.9637 20.5194C55.238 19.7861 54.6927 18.8952 54.3707 17.9165C54.0486 16.9379 53.9585 15.8981 54.1074 14.8789C54.2817 13.8628 54.7341 12.9143 55.4148 12.1381C56.0955 11.3618 56.978 10.788 57.9651 10.4798C59.9906 9.9194 62.4878 10.5401 64.0116 9.07573C65.106 8.01512 65.1725 6.28562 66.019 5.02012C67.3311 3.05559 70.1064 2.74223 72.4525 3.06162C74.7985 3.381 77.1808 4.13427 79.4785 3.56178C81.3952 3.08571 82.9673 1.75393 84.7692 0.934372C86.733 0.0397121 88.9282 -0.2209 91.048 0.188973C93.1677 0.598845 95.1059 1.65871 96.5915 3.22036C98.0772 4.78201 99.036 6.76736 99.3339 8.89878C99.6317 11.0302 99.2538 13.2011 98.2529 15.1079C97.5855 16.5033 96.4498 17.6224 95.0422 18.2717" fill="#263238"/>
<path d="M74.0843 79.0823C75.6262 79.0793 77.1522 78.7713 78.5738 78.1761C79.9954 77.581 81.2843 76.7105 82.3658 75.6153C83.4474 74.52 84.3 73.2216 84.8744 71.7955C85.4487 70.3694 85.7333 68.8438 85.7117 67.3072L85.5606 56.2311C85.5606 56.2311 94.8964 55.2971 95.5131 46.077C96.1299 36.857 95.6885 15.5786 95.6885 15.5786C90.5516 13.0388 84.828 11.9104 79.1077 12.3098C73.3875 12.7091 67.8776 14.6217 63.1462 17.8505L61.7192 18.8328L62.4146 67.6085C62.4512 70.6674 63.6974 73.5883 65.8825 75.7367C68.0675 77.885 71.0149 79.0873 74.0843 79.0823V79.0823Z" fill="#FFBE9D"/>
<path d="M93.2435 32.3101C92.9059 32.2714 92.5944 32.1103 92.3682 31.8575C92.1421 31.6047 92.0171 31.2778 92.0171 30.9391C92.0171 30.6004 92.1421 30.2736 92.3682 30.0208C92.5944 29.768 92.9059 29.6069 93.2435 29.5682C93.317 29.5501 93.3938 29.5501 93.4672 29.5682C93.8048 29.6069 94.1164 29.768 94.3425 30.0208C94.5687 30.2736 94.6937 30.6004 94.6937 30.9391C94.6937 31.2778 94.5687 31.6047 94.3425 31.8575C94.1164 32.1103 93.8048 32.2714 93.4672 32.3101C93.3931 32.3221 93.3176 32.3221 93.2435 32.3101Z" fill="#263238"/>
<path d="M95.0563 29.3366C94.9051 29.4932 94.0344 28.734 92.7586 28.6677C91.4828 28.6014 90.5214 29.198 90.3944 29.0292C90.2674 28.8605 90.4851 28.6737 90.9084 28.3905C91.4739 28.0288 92.141 27.8576 92.8115 27.902C93.4821 27.9465 94.1205 28.2043 94.633 28.6375C95.0139 28.975 95.1349 29.3004 95.0563 29.3366Z" fill="#263238"/>
<path d="M80.3083 29.6427C80.5276 29.794 80.697 30.0069 80.795 30.2542C80.8929 30.5016 80.915 30.7723 80.8585 31.0322C80.802 31.2921 80.6694 31.5294 80.4775 31.7141C80.2856 31.8989 80.043 32.0227 79.7804 32.07C79.5179 32.1173 79.2472 32.0858 79.0025 31.9797C78.7579 31.8735 78.5504 31.6975 78.4062 31.4737C78.262 31.25 78.1877 30.9886 78.1926 30.7227C78.1975 30.4569 78.2815 30.1984 78.4339 29.9801C78.6378 29.688 78.9497 29.4884 79.3011 29.4251C79.6525 29.3619 80.0147 29.4401 80.3083 29.6427V29.6427Z" fill="#263238"/>
<path d="M81.153 29.7016C80.9958 29.8582 80.1251 29.0989 78.8553 29.0327C77.5855 28.9664 76.6181 29.563 76.4851 29.3942C76.4186 29.3159 76.5818 29.0387 76.999 28.7555C77.5646 28.3938 78.2317 28.2226 78.9022 28.267C79.5727 28.3115 80.2112 28.5693 80.7237 29.0025C81.1046 29.34 81.2255 29.6353 81.153 29.7016Z" fill="#263238"/>
<path d="M85.7123 40.4675C85.7123 40.371 86.5044 40.2505 87.7983 40.1421C88.1309 40.1421 88.403 40.0637 88.4332 39.889C88.4575 39.5567 88.3928 39.2239 88.2457 38.9248C87.9616 38.063 87.6774 37.1953 87.3751 36.2853C86.1658 32.531 85.3737 29.4396 85.5611 29.3793C85.7485 29.319 86.8732 32.3141 88.0643 36.0684C88.3425 36.9843 88.6146 37.8762 88.8746 38.7199C89.0665 39.1586 89.1048 39.6489 88.9834 40.1119C88.9294 40.237 88.8465 40.3475 88.7414 40.4344C88.6363 40.5214 88.512 40.5822 88.3788 40.6121C88.1904 40.654 87.9969 40.6682 87.8044 40.6543C86.4983 40.6302 85.7123 40.5699 85.7123 40.4675Z" fill="#263238"/>
<path d="M81.4754 41.6476C83.4188 42.6419 85.4899 43.3657 87.6308 43.7989C87.1614 44.4415 86.4876 44.9068 85.719 45.1191C84.9505 45.3314 84.1325 45.2781 83.3982 44.968C80.6712 43.805 81.4754 41.6476 81.4754 41.6476Z" fill="white"/>
<path d="M85.5959 56.0925C81.3156 55.9404 77.1775 54.5223 73.7085 52.0188C73.7085 52.0188 76.1997 58.8103 85.481 58.4849L85.5959 56.0925Z" fill="#EB996E"/>
<path d="M95.7629 17.905C95.7629 17.905 90.1699 20.7372 82.7629 17.23C77.9257 14.928 72.2602 13.8614 71.0388 14.8557C69.8174 15.85 69.6541 20.7915 64.9137 22.3282C64.9137 22.3282 65.4276 31.7651 61.6425 31.5C57.8574 31.2348 59.9374 16.5732 59.9374 16.5732L69.0858 11.8969L79.129 9.80579L88.6522 10.9568L96.041 12.8189L95.7629 17.905Z" fill="#263238"/>
<path d="M62.3355 28.4714C62.1843 28.3931 56.0773 26.2477 55.9383 32.5692C55.7992 38.8906 62.1903 37.7276 62.2024 37.5468C62.2145 37.366 62.3355 28.4714 62.3355 28.4714Z" fill="#FFBE9D"/>
<path d="M60.3131 35.1072C60.3131 35.1072 60.1982 35.1855 60.0108 35.2639C59.7452 35.3714 59.448 35.3714 59.1824 35.2639C58.5173 35.0047 57.9731 33.9321 57.9731 32.7931C57.9724 32.2502 58.09 31.7135 58.3178 31.2203C58.3829 31.0246 58.4944 30.8473 58.6428 30.7036C58.7912 30.5599 58.9721 30.454 59.1703 30.3947C59.2983 30.3715 59.4304 30.3901 59.5469 30.4476C59.6635 30.5052 59.7583 30.5986 59.8173 30.7141C59.8959 30.8889 59.8536 31.0154 59.8838 31.0275C59.9141 31.0395 60.0229 30.925 59.9806 30.6659C59.9473 30.5082 59.8622 30.3661 59.7387 30.2622C59.5675 30.128 59.3507 30.0654 59.1341 30.0874C58.8723 30.1324 58.6264 30.2436 58.42 30.4103C58.2136 30.577 58.0535 30.7936 57.955 31.0395C57.6757 31.5821 57.5306 32.1833 57.5317 32.7931C57.5317 34.0647 58.1727 35.2759 59.0796 35.5591C59.2492 35.6107 59.4282 35.6245 59.6037 35.5995C59.7792 35.5745 59.9471 35.5114 60.0954 35.4145C60.3131 35.2639 60.3131 35.1192 60.3131 35.1072Z" fill="#EB996E"/>
<path d="M59.1084 8.68891C59.8319 8.47738 60.6047 8.50515 61.311 8.76805C62.0174 9.03095 62.6193 9.51484 63.0265 10.1472C62.4628 9.7217 61.8546 9.35802 61.2126 9.06253C60.5261 8.86545 59.8209 8.74024 59.1084 8.68891V8.68891Z" fill="#263238"/>
<path d="M62.9191 4.9024C63.0339 4.9024 62.8586 6.23419 63.0763 7.81305C63.2644 8.76227 63.5627 9.68646 63.9651 10.567C63.9651 10.567 63.6991 10.344 63.433 9.874C63.0916 9.24843 62.8663 8.56658 62.7679 7.86125C62.5917 6.87635 62.6434 5.86438 62.9191 4.9024Z" fill="#263238"/>
<path d="M88.9739 26.2904C88.9376 26.2181 89.2097 25.9951 89.7237 25.7902C91.088 25.2643 92.6027 25.2794 93.9562 25.8324C94.4641 26.0493 94.7362 26.2723 94.7 26.3446C94.6214 26.5133 93.4 26.0373 91.8339 26.0373C90.2679 26.0373 89.0465 26.4772 88.9739 26.2904Z" fill="#263238"/>
<path d="M74.8279 24.9788C74.7916 24.9064 75.0637 24.6895 75.5777 24.4786C76.2543 24.2179 76.9747 24.089 77.7 24.0989C78.4284 24.0988 79.1497 24.2421 79.8223 24.5208C80.3302 24.7377 80.5963 24.9607 80.566 25.039C80.5358 25.1174 79.266 24.7317 77.694 24.7256C76.1219 24.7196 74.9126 25.1475 74.8279 24.9788Z" fill="#263238"/>
<path d="M87.8801 27.2993C87.8937 27.4235 87.8937 27.5488 87.8801 27.673C87.8801 27.9381 87.8801 28.2756 87.9104 28.6914C87.9406 29.1072 87.9104 29.6676 87.9466 30.2702C87.9239 30.9657 88.0263 31.6596 88.249 32.3191C88.5406 33.1746 89.0452 33.9424 89.7157 34.5505C90.3861 35.1587 91.2005 35.5873 92.0824 35.7962C92.5885 35.9195 93.1106 35.9642 93.6304 35.9288C94.171 35.9046 94.704 35.7926 95.2085 35.5974C96.2841 35.1957 97.2005 34.4579 97.8206 33.4942C98.4075 32.574 98.7025 31.4987 98.6671 30.4088C98.6671 29.3301 98.6671 28.2936 98.6671 27.2993L98.8122 27.444L90.9518 27.3716L88.6722 27.3295H88.0676H87.8439C88.1028 27.3008 88.3634 27.2887 88.6239 27.2933L90.8671 27.2511L98.8122 27.1788H99.0117V27.3295C99.0117 28.3238 99.0117 29.3603 99.0117 30.439C99.0523 31.5883 98.7424 32.7229 98.1229 33.6931C97.4655 34.7134 96.4938 35.4936 95.3536 35.9168C94.8179 36.1218 94.2521 36.2379 93.6787 36.2603C93.132 36.2926 92.5836 36.2418 92.0522 36.1096C91.1272 35.8868 90.2754 35.4305 89.5786 34.7846C88.8818 34.1387 88.3635 33.3249 88.0736 32.4216C87.8565 31.7323 87.7663 31.0096 87.8076 30.2883C87.8076 29.6857 87.8076 29.1253 87.8378 28.6673C87.868 28.2093 87.8378 27.9261 87.8681 27.6609C87.8624 27.5402 87.8664 27.4193 87.8801 27.2993V27.2993Z" fill="#263238"/>
<path d="M73.0617 26.9856C73.0617 26.9856 73.0617 27.1242 73.0617 27.3592V28.3776C73.0617 28.8236 73.0617 29.3539 73.0919 29.9625C73.076 30.6576 73.1782 31.3503 73.3942 32.0114C73.6728 32.8049 74.1299 33.5243 74.7305 34.1145C75.4241 34.7864 76.2869 35.259 77.2277 35.4825C78.268 35.7323 79.3597 35.663 80.3598 35.2836C81.4323 34.8824 82.3463 34.1469 82.9658 33.1865C83.5549 32.2669 83.8521 31.1916 83.8184 30.1011C83.8184 29.0224 83.8184 27.9799 83.8184 26.9856L83.9635 27.1302L76.1031 27.0579L73.8296 27.0217H73.2249H73.0012C73.2581 26.9932 73.5166 26.9811 73.7751 26.9856L76.0184 26.9494L83.9635 26.8771H84.1086V27.0217C84.1086 28.0161 84.1086 29.0586 84.1086 30.1373C84.1451 31.2869 83.8333 32.4209 83.2137 33.3914C82.5566 34.4081 81.5873 35.186 80.4505 35.609C79.9147 35.8136 79.3489 35.9296 78.7756 35.9525C78.2269 35.9848 77.6765 35.934 77.143 35.8019C76.155 35.5594 75.252 35.0531 74.531 34.3375C73.9073 33.713 73.4392 32.9514 73.1645 32.1138C72.9473 31.4246 72.8572 30.7019 72.8984 29.9806C72.8984 29.378 72.8984 28.8175 72.9347 28.3595C72.971 27.9016 72.9347 27.6183 72.9347 27.3532C72.9568 27.2246 72.9997 27.1005 73.0617 26.9856V26.9856Z" fill="#263238"/>
<path d="M88.0153 27.7435C86.6326 27.9526 85.226 27.9526 83.8433 27.7435C85.2254 27.5266 86.6332 27.5266 88.0153 27.7435V27.7435Z" fill="#263238"/>
<path d="M61.5239 27.8156C63.4463 27.6559 65.3758 27.5976 67.3044 27.6409C69.2343 27.5863 71.1658 27.6326 73.0909 27.7795C71.1689 27.9467 69.239 28.005 67.3104 27.9542C65.3805 28.0157 63.4487 27.9694 61.5239 27.8156V27.8156Z" fill="#263238"/>
<path d="M123.721 141.54C125.08 144.053 127.138 146.122 129.648 147.498C132.158 148.874 135.013 149.498 137.87 149.295V149.295C141.246 149.06 144.44 147.684 146.925 145.396C149.411 143.107 151.039 140.042 151.541 136.707L155.048 96.6991L141.002 93.2401L135.264 124.576C135.264 124.576 132.265 137.707 123.721 141.54Z" fill="#FFBE9D"/>
<path d="M140.875 96.133L141.341 89.1126C141.341 89.1126 143.33 73.3602 143.33 71.8175C143.33 70.0458 144.183 69.6119 144.842 69.6601C145.864 69.7264 146.589 70.9859 146.656 72.5105C146.656 73.0348 146.608 81.3629 146.608 81.3629C147.091 80.5759 147.63 79.8247 148.222 79.1152C149.431 77.5544 152.358 76.6625 155.339 76.7589C158.32 76.8554 159.136 77.1446 159.154 78.2956C159.144 78.5156 159.084 78.7304 158.979 78.9243C158.875 79.1182 158.728 79.2864 158.549 79.4165C157.999 79.8735 157.3 80.1137 156.584 80.0914C151.814 80.007 150.538 82.544 150.538 82.544L150.477 83.4661C150.477 83.4661 153.374 81.3991 155.683 82.2608C156.025 82.3867 156.337 82.5792 156.602 82.8273C157.253 82.8299 157.891 83.0019 158.454 83.3262C159.017 83.6505 159.486 84.116 159.813 84.6763C160.139 85.2366 160.314 85.8724 160.318 86.5205C160.322 87.1687 160.157 87.8067 159.837 88.3713C159.713 88.661 159.503 88.9058 159.235 89.0728C158.966 89.2398 158.654 89.3209 158.338 89.3054C158.018 89.2098 157.728 89.0333 157.497 88.7932C157.362 88.6787 157.218 88.5739 157.068 88.4798L156.536 91.0289C156.536 91.0289 155.03 96.6935 154.655 99.2365" fill="#FFBE9D"/>
<path d="M142.248 95.5871C143.118 95.8282 144.019 95.1894 144.491 94.418C144.962 93.6467 145.162 92.7367 145.573 91.9292C146.819 89.5188 149.806 88.3738 150.949 85.9031C151.106 85.5596 151.19 85.0895 150.888 84.8606C150.586 84.6316 150.211 84.8184 149.902 84.9871L142.042 89.3259" fill="#FFBE9D"/>
<path d="M142.042 89.3129C142.287 89.0966 142.557 88.9105 142.846 88.7585C143.378 88.4271 144.158 87.9691 145.126 87.4087L148.542 85.4622L149.528 84.9078C149.895 84.6183 150.362 84.4861 150.828 84.5402C150.971 84.5865 151.097 84.6753 151.189 84.7948C151.281 84.9143 151.334 85.0588 151.342 85.2091C151.357 85.4568 151.314 85.7046 151.215 85.9323C151.033 86.3343 150.806 86.7144 150.537 87.0652C149.449 88.4753 148.04 89.3611 147.024 90.3916C146.53 90.858 146.11 91.3965 145.779 91.9886C145.482 92.543 145.295 93.1215 145.065 93.6458C144.924 94.0834 144.689 94.4849 144.375 94.8222C144.062 95.1594 143.678 95.4243 143.251 95.5982C142.604 95.7911 142.242 95.5982 142.266 95.5621C142.579 95.5717 142.891 95.5205 143.185 95.4114C143.563 95.219 143.897 94.9504 144.165 94.6226C144.434 94.2948 144.631 93.9149 144.745 93.5072C144.938 92.9234 145.162 92.3502 145.416 91.7897C145.749 91.1482 146.184 90.5642 146.704 90.0602C147.744 88.9755 149.122 88.0655 150.138 86.7578C150.378 86.4421 150.58 86.1004 150.743 85.7394C150.894 85.3959 150.87 85.0524 150.676 85.0163C150.483 84.9801 150.102 85.1428 149.769 85.3296L148.766 85.872L145.301 87.7522C144.309 88.2764 143.487 88.6862 142.943 88.9574C142.661 89.1177 142.358 89.2374 142.042 89.3129V89.3129Z" fill="#EB996E"/>
<path d="M150.372 83.5326C150.425 82.9624 150.614 82.413 150.922 81.9297C151.28 81.4339 151.789 81.0662 152.373 80.8811C153.105 80.6414 153.87 80.5194 154.64 80.5195C155.431 80.5274 156.221 80.4588 156.999 80.3147C157.65 80.1822 158.255 79.8808 158.752 79.4409C158.917 79.2888 159.046 79.1013 159.127 78.8925C159.209 78.6837 159.242 78.459 159.224 78.2356C159.215 78.0714 159.16 77.9128 159.066 77.7776C159.036 77.7776 159.066 77.9524 159.097 78.2417C159.094 78.4436 159.047 78.6426 158.959 78.8247C158.872 79.0068 158.745 79.1677 158.589 79.2962C158.105 79.6754 157.537 79.9318 156.932 80.0435C156.171 80.1682 155.4 80.2247 154.628 80.2122C153.829 80.2035 153.034 80.3277 152.276 80.5798C151.642 80.7998 151.1 81.2238 150.734 81.785C150.498 82.1627 150.36 82.5938 150.335 83.0385C150.301 83.2033 150.314 83.3745 150.372 83.5326V83.5326Z" fill="#EB996E"/>
<path d="M146.615 71.9195C146.564 72.4707 146.564 73.0254 146.615 73.5767C146.615 74.7096 146.615 76.0655 146.657 77.56C146.7 79.0544 146.657 80.4103 146.657 81.5433C146.621 82.0957 146.633 82.6502 146.694 83.2005C146.826 82.66 146.893 82.1056 146.893 81.5493C146.966 80.5309 147.014 79.1388 147.008 77.56C147.002 75.9811 146.942 74.583 146.869 73.5646C146.844 73.0087 146.759 72.4572 146.615 71.9195V71.9195Z" fill="#EB996E"/>
<path d="M152.258 85.379C152.427 85.3385 152.589 85.2757 152.742 85.1922C152.939 85.0918 153.155 85.0344 153.376 85.024C153.597 85.0136 153.818 85.0504 154.023 85.1319C154.15 85.2003 154.256 85.3 154.332 85.4214C154.409 85.5429 154.452 85.6819 154.459 85.825C154.478 86.1844 154.452 86.5448 154.38 86.8976C154.28 87.3411 154.351 87.8058 154.58 88.1993C154.724 88.4015 154.914 88.5668 155.135 88.682C155.356 88.7972 155.6 88.8589 155.849 88.8622C156.094 88.8604 156.336 88.8094 156.561 88.712C156.785 88.6147 156.987 88.4731 157.155 88.2957C157.471 87.9805 157.682 87.5768 157.76 87.1387C157.855 86.4299 157.845 85.7112 157.73 85.0054C157.667 84.5281 157.522 84.0652 157.301 83.6374C157.131 83.3361 156.974 83.2217 156.962 83.2337C156.95 83.2458 157.059 83.3964 157.186 83.6917C157.352 84.125 157.455 84.5794 157.494 85.0416C157.573 85.7209 157.563 86.4077 157.464 87.0844C157.387 87.4677 157.187 87.8158 156.895 88.0765C156.603 88.3373 156.234 88.4966 155.843 88.5307C155.647 88.5295 155.453 88.4826 155.278 88.3937C155.102 88.3048 154.95 88.1763 154.834 88.0185C154.651 87.688 154.593 87.3032 154.67 86.9338C154.738 86.5539 154.754 86.1669 154.719 85.7828C154.701 85.5993 154.636 85.4235 154.53 85.2725C154.424 85.1215 154.281 85.0004 154.114 84.921C153.879 84.8318 153.626 84.7995 153.376 84.8267C153.125 84.8539 152.885 84.94 152.675 85.0777C152.391 85.2464 152.222 85.3368 152.258 85.379Z" fill="#EB996E"/>
<path d="M157.015 88.0466C156.973 88.2038 156.99 88.3712 157.064 88.5166C157.149 88.7233 157.28 88.9079 157.448 89.0563C157.615 89.2046 157.815 89.3127 158.031 89.3723C158.357 89.4421 158.695 89.4265 159.013 89.3273C159.331 89.228 159.617 89.0484 159.845 88.8059C160.39 88.209 160.683 87.4252 160.661 86.6183C160.661 85.8212 160.412 85.0439 159.948 84.3947C159.569 83.8652 159.053 83.4485 158.454 83.1894C158.062 83.013 157.639 82.9128 157.209 82.8942C156.906 82.8942 156.743 82.8942 156.743 82.9424C157.301 83.0141 157.845 83.1685 158.358 83.4004C158.895 83.6662 159.356 84.0619 159.7 84.5514C160.102 85.159 160.312 85.8725 160.305 86.6003C160.325 87.323 160.075 88.0274 159.603 88.5769C159.412 88.7932 159.168 88.9571 158.895 89.053C158.622 89.149 158.329 89.1739 158.043 89.1252C157.853 89.0828 157.674 89 157.518 88.8825C157.363 88.765 157.235 88.6155 157.142 88.4443C157.058 88.2153 157.058 88.0466 157.015 88.0466Z" fill="#EB996E"/>
<path d="M151.272 93.6127C151.013 93.5309 150.734 93.5309 150.474 93.6127C149.794 93.7611 149.181 94.1297 148.733 94.6612L149.011 94.7456C148.974 94.3725 148.914 94.0022 148.83 93.6368C148.589 92.3412 147.992 91.1376 147.106 90.1597C147.699 91.2901 148.169 92.4799 148.509 93.7091C148.594 94.0827 148.654 94.4443 148.697 94.7818L148.745 95.1554L148.981 94.8601C149.382 94.3676 149.917 94.0013 150.523 93.8055C150.976 93.6669 151.272 93.6549 151.272 93.6127Z" fill="#EB996E"/>
<path d="M151.426 79.4555C151.347 79.4917 151.668 80.0582 152.405 80.4017C153.143 80.7452 153.796 80.5463 153.766 80.462C153.735 80.3776 153.161 80.3836 152.556 80.1004C151.952 79.8171 151.504 79.3953 151.426 79.4555Z" fill="#EB996E"/>
<path d="M138.46 100.682L156.109 101.941C156.109 101.941 153.395 133.066 152.868 137.893C152.342 142.72 149.241 150 138.46 150C127.679 150 125.671 146.342 120.876 138.809C126.53 134.904 135.509 123.244 135.509 123.244L138.46 100.682Z" fill="#00C802"/>
<path d="M146.78 104.868C146.689 105.13 146.58 105.386 146.454 105.633L145.468 107.706L141.985 114.871L141.81 114.66L146.387 113.305L151.037 111.943L151.376 111.846L151.212 112.154L147.584 119.174L146.514 121.193C146.396 121.439 146.256 121.675 146.097 121.898C146.189 121.64 146.299 121.388 146.423 121.145C146.677 120.626 147.028 119.939 147.415 119.09L150.928 112.021L151.103 112.232L146.46 113.606L141.877 114.944L141.544 115.04L141.701 114.733L145.311 107.64C145.752 106.802 146.109 106.115 146.375 105.603C146.489 105.347 146.625 105.101 146.78 104.868V104.868Z" fill="#E0E0E0"/>
<path d="M145.108 134.806C144.838 134.864 144.563 134.9 144.286 134.915L141.988 135.113L134.043 135.716L134.14 135.457L137.623 138.711L141.148 142.025L141.402 142.267H141.051L133.148 142.7L130.863 142.797C130.589 142.82 130.314 142.82 130.041 142.797C130.31 142.744 130.583 142.711 130.857 142.7L133.136 142.514L141.033 141.971L140.942 142.23L137.405 138.922L133.934 135.656L133.681 135.421H134.025L141.976 134.945L144.28 134.83C144.555 134.801 144.832 134.793 145.108 134.806V134.806Z" fill="#E0E0E0"/>
<path d="M176.537 23.6259L158.537 17.1839L140.736 23.5415C138.462 24.6082 136.467 25.253 136.467 27.3621V37.8838C136.425 45.2739 138.45 52.5295 142.314 58.8368C146.175 65.2019 151.897 70.238 158.712 73.2695C165.968 70.9132 171.41 64.6219 174.765 59.2466C178.64 52.9424 180.676 45.6866 180.643 38.2936V28.8325C180.643 25.8194 179.034 24.349 176.537 23.6259Z" fill="#00C802"/>
<g opacity="0.3">
<path opacity="0.3" d="M158.712 67.1477C153.311 64.7202 148.785 60.7037 145.742 55.6377C142.679 50.6532 141.069 44.9169 141.093 39.0717V31.7198C141.093 30.0445 142.108 28.4777 144.116 27.5437L158.543 22.1683V17.2088L140.736 23.5423C138.867 24.3558 136.467 25.2537 136.467 27.3629V37.8846C136.425 45.2747 138.45 52.5303 142.314 58.8376C146.175 65.2027 151.897 70.2388 158.712 73.2702V67.1477Z" fill="black"/>
</g>
<g opacity="0.4">
<path opacity="0.4" d="M158.709 73.2499C159.93 72.8524 161.114 72.3483 162.246 71.7434C165.031 70.1736 167.562 68.1949 169.756 65.8739C171.739 63.7445 173.485 61.4067 174.962 58.9016C178.882 52.5509 180.856 45.197 180.639 37.7437V29.06C180.639 24.7332 178.402 24.4139 176.528 23.6003L158.527 17.1584V22.1179L173.124 27.5836C175.131 28.5177 176.147 30.0845 176.147 31.7537V39.1358C176.171 44.9791 174.561 50.7135 171.497 55.6957C168.519 60.7384 164.048 64.7382 158.697 67.1454L158.709 73.2499Z" fill="black"/>
</g>
<path opacity="0.5" d="M163.314 38.6013V37.1791C163.314 35.9437 162.822 34.7588 161.945 33.8852C161.069 33.0117 159.88 32.5209 158.64 32.5209C157.401 32.5209 156.212 33.0117 155.335 33.8852C154.459 34.7588 153.966 35.9437 153.966 37.1791V38.6254C153.348 38.7177 152.783 39.0282 152.375 39.5004C151.966 39.9726 151.742 40.5752 151.741 41.1985V49.5749C151.741 50.2654 152.016 50.9275 152.506 51.4157C152.996 51.9039 153.661 52.1782 154.353 52.1782H163.109C163.801 52.1782 164.466 51.9039 164.956 51.4157C165.445 50.9275 165.721 50.2654 165.721 49.5749V41.1985C165.721 40.5432 165.474 39.9118 165.028 39.4304C164.582 38.9489 163.97 38.6528 163.314 38.6013V38.6013ZM159.91 47.4838H157.624L157.981 45.8387C157.731 45.6763 157.54 45.4378 157.437 45.1587C157.334 44.8795 157.325 44.5746 157.41 44.2895C157.495 44.0044 157.67 43.7543 157.909 43.5764C158.148 43.3985 158.439 43.3024 158.737 43.3024C159.035 43.3024 159.326 43.3985 159.565 43.5764C159.804 43.7543 159.979 44.0044 160.064 44.2895C160.149 44.5746 160.14 44.8795 160.037 45.1587C159.934 45.4378 159.743 45.6763 159.493 45.8387C159.65 46.4534 159.91 47.4838 159.91 47.4838ZM162.329 38.5892H154.976V37.1791C155.015 36.2354 155.418 35.3432 156.101 34.6891C156.785 34.0349 157.696 33.6697 158.643 33.6697C159.591 33.6697 160.502 34.0349 161.185 34.6891C161.869 35.3432 162.272 36.2354 162.31 37.1791L162.329 38.5892Z" fill="white"/>
<path d="M144.01 38.497C143.853 38.0256 143.761 37.5349 143.738 37.0387C143.604 35.8525 143.555 34.6582 143.593 33.4651C143.593 32.7661 143.66 32.1032 143.72 31.5006C143.75 30.951 143.888 30.4126 144.125 29.9157C144.295 29.5753 144.571 29.2985 144.911 29.1263C145.159 29.0118 145.31 29.0178 145.31 29.0359C144.876 29.2345 144.527 29.5805 144.325 30.0122C144.131 30.494 144.025 31.006 144.01 31.5247C143.962 32.1273 143.926 32.7842 143.907 33.4772C143.865 34.8572 143.907 36.1106 143.962 37.0206C144.017 37.5107 144.033 38.0043 144.01 38.497V38.497Z" fill="white"/>
<path d="M144.274 43.0668C144.19 43.0668 144.111 42.639 144.099 42.1027C144.087 41.5663 144.154 41.1324 144.238 41.1324C144.323 41.1324 144.401 41.5603 144.413 42.0966C144.426 42.633 144.365 43.0668 144.274 43.0668Z" fill="white"/>
<path d="M126.414 98.1425L106.346 147.605H70.1572V149.841H177.948L200 98.1425H126.414Z" fill="#263238"/>
<path d="M157.091 127.348C156.366 129.836 154.25 131.409 152.363 130.867C150.477 130.324 149.539 127.854 150.265 125.365C150.991 122.876 153.113 121.303 154.999 121.846C156.886 122.388 157.823 124.859 157.091 127.348Z" fill="#FAFAFA"/>
</svg>
