<svg width="20" height="20" viewBox="0 0 20 20" fill="none" xmlns="http://www.w3.org/2000/svg">
<path d="M15.7891 8.75H14.1406L12.4102 7.57812C11.4375 6.91406 10.2891 6.5625 9.11328 6.5625H5L0.195312 8.02734V8.55469H0.625V10.2344H0.195312V11.5625L0.878906 12.4609H19.3359V11.5313L19.8047 10.4648L18.9023 9.78906C18.0039 9.11328 16.9141 8.75 15.7891 8.75V8.75Z" fill="#DB3328"/>
<path d="M3.86719 7.10938H3.20703L0.195312 8.02734L1.00781 8.04688L3.86719 7.10938Z" fill="#485143"/>
<path d="M11.5859 7.10938H11.1484L13.5469 8.75H14.1406L12.4102 7.57422C12.1484 7.39844 11.8711 7.22656 11.5859 7.10938V7.10938Z" fill="#747E6C"/>
<path d="M19.3359 12.4609H0.878906L0.195312 11.5625H19.3359V12.4609Z" fill="#B5100B"/>
<path d="M1.47266 10.2344H0.625V8.55469H1.47266L1.88281 9.51172L1.47266 10.2344Z" fill="#B5100B"/>
<path d="M12.9297 8.67188H10L3.45703 7.66406L5.35156 7.10938H8.85938C10.082 7.10938 11.2773 7.49219 12.2734 8.20312L12.9297 8.67188Z" fill="#485143"/>
<path d="M13.9453 11.5273L7.58203 11.1484L6.37109 9.625L7.63672 9.0625L13.8281 10C13.8281 10.207 13.6484 10.3711 13.4414 10.3477L8.10156 9.74219L7.62891 9.97656L8.28906 10.6016L13.6484 11.1953C13.8164 11.2109 13.9453 11.3555 13.9453 11.5273V11.5273Z" fill="#B5100B"/>
<path d="M18.5938 10.2734H19.8047V10.6641H18.5938V10.2734Z" fill="#EBEADF"/>
<path d="M3.63672 13.4375C4.68735 13.4375 5.53906 12.5858 5.53906 11.5352C5.53906 10.4845 4.68735 9.63281 3.63672 9.63281C2.58608 9.63281 1.73438 10.4845 1.73438 11.5352C1.73438 12.5858 2.58608 13.4375 3.63672 13.4375Z" fill="#323D2C"/>
<path d="M3.72276 9.63284C3.56651 9.62502 3.41026 9.63674 3.26183 9.66799C3.09386 9.69924 3.12511 9.94534 3.29308 9.94534H3.32042C4.36339 9.94534 5.22277 10.8047 5.22277 11.8477V11.875C5.21886 12.043 5.46495 12.0742 5.50011 11.9063C5.52745 11.7578 5.54308 11.6055 5.53527 11.4453C5.4923 10.4688 4.69933 9.67581 3.72276 9.63284V9.63284Z" fill="#485143"/>
<path d="M4.48819 12.457C3.53897 12.3984 2.77335 11.6289 2.71085 10.6797C2.71085 10.6718 2.71085 10.664 2.71085 10.6562C2.69131 10.3086 2.246 10.1875 2.05069 10.4765C1.83194 10.8008 1.71475 11.1992 1.73428 11.6211C1.78116 12.5937 2.57022 13.3867 3.54678 13.4336C3.97256 13.4531 4.36709 13.332 4.69131 13.1172C4.98038 12.9218 4.85928 12.4765 4.51163 12.457C4.50381 12.457 4.496 12.457 4.48819 12.457V12.457Z" fill="#1C2617"/>
<path d="M3.63672 12.4688C4.15233 12.4688 4.57031 12.0508 4.57031 11.5352C4.57031 11.0195 4.15233 10.6016 3.63672 10.6016C3.12111 10.6016 2.70312 11.0195 2.70312 11.5352C2.70312 12.0508 3.12111 12.4688 3.63672 12.4688Z" fill="#747E6C"/>
<path d="M3.71097 10.6016C3.66019 10.5977 3.6094 10.5977 3.55862 10.6016C3.46097 10.6094 3.46487 10.75 3.56253 10.7578H3.57425C4.01175 10.8008 4.36722 11.1562 4.41019 11.5937V11.6055C4.418 11.7031 4.55862 11.7031 4.56644 11.6094C4.57034 11.5586 4.57034 11.5078 4.56644 11.457C4.53128 11.0039 4.16409 10.6367 3.71097 10.6016V10.6016Z" fill="#C4C1AB"/>
<path d="M3.95701 12.0313C3.52732 11.9844 3.18357 11.6406 3.1367 11.2109C3.1367 11.207 3.1367 11.2031 3.1367 11.1992C3.11716 11.0156 2.87107 10.9688 2.78904 11.1328C2.72263 11.2734 2.69138 11.4336 2.7031 11.6016C2.73435 12.0586 3.10935 12.4336 3.56638 12.4648C3.73435 12.4766 3.89451 12.4453 4.03123 12.3789C4.1992 12.3008 4.14842 12.0508 3.96482 12.0313C3.96482 12.0313 3.96092 12.0313 3.95701 12.0313V12.0313Z" fill="#485143"/>
<path d="M0.859375 8.55469H1.16016V10.2344H0.859375V8.55469Z" fill="#E67368"/>
<path d="M16.3008 13.4375C17.3514 13.4375 18.2031 12.5858 18.2031 11.5352C18.2031 10.4845 17.3514 9.63281 16.3008 9.63281C15.2501 9.63281 14.3984 10.4845 14.3984 11.5352C14.3984 12.5858 15.2501 13.4375 16.3008 13.4375Z" fill="#323D2C"/>
<path d="M17.1523 12.457C16.203 12.3984 15.4374 11.6289 15.3749 10.6797C15.3749 10.6718 15.3749 10.664 15.3749 10.6562C15.3554 10.3086 14.9101 10.1875 14.7148 10.4765C14.496 10.8008 14.3788 11.1992 14.3983 11.6211C14.4452 12.5937 15.2343 13.3867 16.2108 13.4336C16.6366 13.4531 17.0312 13.332 17.3554 13.1172C17.6444 12.9218 17.5233 12.4765 17.1757 12.457C17.1679 12.457 17.1601 12.457 17.1523 12.457V12.457Z" fill="#1C2617"/>
<path d="M16.293 12.4688C16.8086 12.4688 17.2266 12.0508 17.2266 11.5352C17.2266 11.0195 16.8086 10.6016 16.293 10.6016C15.7774 10.6016 15.3594 11.0195 15.3594 11.5352C15.3594 12.0508 15.7774 12.4688 16.293 12.4688Z" fill="#747E6C"/>
<path d="M16.379 9.63284C16.2228 9.62502 16.0665 9.63674 15.9181 9.66799C15.7501 9.69924 15.7814 9.94534 15.9493 9.94534H15.9767C17.0196 9.94534 17.879 10.8047 17.879 11.8477V11.875C17.8751 12.043 18.1212 12.0742 18.1564 11.9063C18.1837 11.7578 18.1993 11.6055 18.1915 11.4453C18.1485 10.4688 17.3556 9.67581 16.379 9.63284Z" fill="#485143"/>
<path d="M16.3672 10.6016C16.3164 10.5977 16.2657 10.5977 16.2149 10.6016C16.1172 10.6094 16.1211 10.75 16.2188 10.7578H16.2305C16.668 10.8008 17.0235 11.1562 17.0664 11.5937V11.6055C17.0742 11.7031 17.2149 11.7031 17.2227 11.6094C17.2266 11.5586 17.2266 11.5078 17.2227 11.457C17.1875 11.0039 16.8203 10.6367 16.3672 10.6016V10.6016Z" fill="#C4C1AB"/>
<path d="M16.6133 12.0313C16.1836 11.9844 15.8398 11.6406 15.7929 11.2109C15.7929 11.207 15.7929 11.2031 15.7929 11.1992C15.7734 11.0156 15.5273 10.9688 15.4453 11.1328C15.3789 11.2734 15.3476 11.4336 15.3594 11.6016C15.3906 12.0586 15.7656 12.4336 16.2226 12.4648C16.3906 12.4766 16.5508 12.4453 16.6875 12.3789C16.8555 12.3008 16.8047 12.0508 16.6211 12.0313C16.6211 12.0313 16.6172 12.0313 16.6133 12.0313V12.0313Z" fill="#485143"/>
<path d="M10 8.98437H12.9297L14.1406 9.0625H17.5586C16.9961 8.86719 16.3945 8.75 15.7891 8.75H15.7812H14.1406L12.9297 8.67188H10L3.45313 7.66406L0.195312 8.02734V8.36328L3.45703 8.09766L10 8.98437Z" fill="#E67368"/>
<path d="M8.14844 9.03516H7.44922L5.18359 6.78516H5.88281L8.14844 9.03516Z" fill="#747E6C"/>
<path d="M10.2617 9.03516H8.80078L6.53516 6.78516H7.99219L10.2617 9.03516Z" fill="#747E6C"/>
<path d="M7.625 8.30859L6.82812 8.18359V7.10938H7.625V8.30859Z" fill="#323D2C"/>
</svg>
