<svg width="28" height="28" viewBox="0 0 28 28" fill="none" xmlns="http://www.w3.org/2000/svg">
<defs>
<linearGradient id="paint0_linear_3404_15178" x1="15.8238" y1="8.32317" x2="11.3474" y2="2.83952" gradientUnits="userSpaceOnUse">
<stop stop-color="#A3541E"/>
<stop offset="0.5525" stop-color="#FCCE38"/>
<stop offset="0.9996" stop-color="#FF9D00"/>
</linearGradient>
<radialGradient id="paint1_radial_3404_15178" cx="0" cy="0" r="1" gradientUnits="userSpaceOnUse" gradientTransform="translate(13.3402 5.62054) scale(2.09281)">
<stop offset="0.4543" stop-color="#C86F34" stop-opacity="0"/>
<stop offset="0.6679" stop-color="#C66D33" stop-opacity="0.4456"/>
<stop offset="0.7838" stop-color="#BE672E" stop-opacity="0.6874"/>
<stop offset="0.876" stop-color="#B05E26" stop-opacity="0.8797"/>
<stop offset="0.9336" stop-color="#A3541E"/>
</radialGradient>
<radialGradient id="paint2_radial_3404_15178" cx="0" cy="0" r="1" gradientUnits="userSpaceOnUse" gradientTransform="translate(11.7838 9.15788) rotate(99.5904) scale(14.2642 10.445)">
<stop stop-color="#FCCE38"/>
<stop offset="0.3638" stop-color="#FCCE38"/>
<stop offset="1" stop-color="#C86F34"/>
</radialGradient>
<radialGradient id="paint3_radial_3404_15178" cx="0" cy="0" r="1" gradientUnits="userSpaceOnUse" gradientTransform="translate(11.9128 19.8557) rotate(1.33185) scale(16.4088 3.82111)">
<stop stop-color="#FBE07A"/>
<stop offset="0.2187" stop-color="#FBDE73" stop-opacity="0.7813"/>
<stop offset="0.5269" stop-color="#FBD961" stop-opacity="0.4731"/>
<stop offset="0.8866" stop-color="#FCD143" stop-opacity="0.1134"/>
<stop offset="1" stop-color="#FCCE38" stop-opacity="0"/>
</radialGradient>
<linearGradient id="paint4_linear_3404_15178" x1="14.6046" y1="18.3509" x2="10.3519" y2="35.4733" gradientUnits="userSpaceOnUse">
<stop stop-color="#3C2200"/>
<stop offset="0.9996" stop-color="#FF9D00"/>
</linearGradient>
<linearGradient id="paint5_linear_3404_15178" x1="20.2966" y1="21.3647" x2="3.93042" y2="19.6022" gradientUnits="userSpaceOnUse">
<stop stop-color="#A3541E"/>
<stop offset="0.5525" stop-color="#FCCE38"/>
<stop offset="0.9996" stop-color="#FF9D00"/>
</linearGradient>
<linearGradient id="paint6_linear_3404_15178" x1="22.7322" y1="11.8996" x2="13.3698" y2="14.079" gradientUnits="userSpaceOnUse">
<stop stop-color="#A3541E"/>
<stop offset="0.1203" stop-color="#B05E26" stop-opacity="0.8797"/>
<stop offset="0.3126" stop-color="#BE672E" stop-opacity="0.6874"/>
<stop offset="0.5544" stop-color="#C66D33" stop-opacity="0.4456"/>
<stop offset="1" stop-color="#C86F34" stop-opacity="0"/>
</linearGradient>
<radialGradient id="paint7_radial_3404_15178" cx="0" cy="0" r="1" gradientUnits="userSpaceOnUse" gradientTransform="translate(17.994 20.9881) scale(5.869)">
<stop stop-color="#A3541E"/>
<stop offset="0.5525" stop-color="#FCCE38"/>
<stop offset="0.9996" stop-color="#FF9D00"/>
</radialGradient>
<linearGradient id="paint8_linear_3404_15178" x1="19.0139" y1="19.9358" x2="13.3438" y2="24.263" gradientUnits="userSpaceOnUse">
<stop stop-color="#3C2200"/>
<stop offset="0.9996" stop-color="#FF9D00"/>
</linearGradient>
<radialGradient id="paint9_radial_3404_15178" cx="0" cy="0" r="1" gradientUnits="userSpaceOnUse" gradientTransform="translate(11.2838 10.3525) rotate(99.5904) scale(5.69001 2.38507)">
<stop stop-color="#FBE07A" stop-opacity="0.75"/>
<stop offset="0.0803394" stop-color="#FBE387" stop-opacity="0.6897"/>
<stop offset="0.5173" stop-color="#FDF2C7" stop-opacity="0.362"/>
<stop offset="0.8357" stop-color="#FFFBF0" stop-opacity="0.1233"/>
<stop offset="1" stop-color="white" stop-opacity="0"/>
</radialGradient>
<radialGradient id="paint10_radial_3404_15178" cx="0" cy="0" r="1" gradientUnits="userSpaceOnUse" gradientTransform="translate(11.2838 10.3525) rotate(99.5904) scale(5.69001 2.38507)">
<stop stop-color="#FBE07A" stop-opacity="0.75"/>
<stop offset="0.0803394" stop-color="#FBE387" stop-opacity="0.6897"/>
<stop offset="0.5173" stop-color="#FDF2C7" stop-opacity="0.362"/>
<stop offset="0.8357" stop-color="#FFFBF0" stop-opacity="0.1233"/>
<stop offset="1" stop-color="white" stop-opacity="0"/>
</radialGradient>
<linearGradient id="paint11_linear_3404_15178" x1="20.2966" y1="21.3647" x2="3.93042" y2="19.6022" gradientUnits="userSpaceOnUse">
<stop stop-color="#A3541E"/>
<stop offset="0.5525" stop-color="#FCCE38"/>
<stop offset="0.9996" stop-color="#FF9D00"/>
</linearGradient>
</defs>
<path d="M13.7574 4C14.5075 4 15.1131 4.60562 15.1131 5.3557V6.7114H12.3961V5.3557C12.4017 4.60562 13.0073 4 13.7574 4Z" fill="url(#paint0_linear_3404_15178)"/>
<path d="M13.7573 4C13.6406 4 13.5351 4.01667 13.424 4.03889C14.0129 4.18891 14.4518 4.7223 14.4518 5.3557V6.7114H15.113V5.3557C15.1186 4.60562 14.5074 4 13.7573 4Z" fill="url(#paint1_radial_3404_15178)"/>
<path d="M22.5194 20.185C22.5472 19.2794 21.9249 18.5793 20.8414 17.3125C19.758 16.0457 19.6469 15.9679 19.3135 11.6397C19.019 7.83929 17.3411 6.60027 15.3242 5.97799C14.8186 5.82241 14.2907 5.75019 13.7629 5.75019C13.2351 5.75019 12.7072 5.82241 12.2016 5.97799C10.1792 6.60583 8.5068 7.84485 8.21233 11.6453C7.87896 15.9735 7.76228 16.0457 6.68439 17.3181C5.6065 18.5904 4.9731 19.2794 5.00088 20.185H22.5194Z" fill="url(#paint2_radial_3404_15178)"/>
<path d="M6.87886 17.0848C6.81774 17.157 6.75107 17.2348 6.6844 17.3181C5.60095 18.5849 4.9731 19.2794 5.00088 20.1851H22.5138C22.5416 19.2794 21.9193 18.5794 20.8359 17.3126C20.7637 17.2292 20.7025 17.157 20.6414 17.0792C18.8246 16.4458 16.4076 16.0569 13.7574 16.0569C11.1071 16.0569 8.69572 16.4458 6.87886 17.0848Z" fill="url(#paint3_radial_3404_15178)"/>
<path d="M13.7573 22.9964C18.5934 22.9964 22.5138 22.4392 22.5138 21.7518C22.5138 21.0645 18.5934 20.5073 13.7573 20.5073C8.92126 20.5073 5.00085 21.0645 5.00085 21.7518C5.00085 22.4392 8.92126 22.9964 13.7573 22.9964Z" fill="url(#paint4_linear_3404_15178)"/>
<path d="M13.7573 18.9405C8.92349 18.9405 5.00085 19.5017 5.00085 20.1851V21.7519C5.00085 21.063 8.92349 20.5074 13.7573 20.5074C18.5967 20.5074 22.5138 21.063 22.5138 21.7519V20.1851C22.5194 19.5017 18.5967 18.9405 13.7573 18.9405Z" fill="url(#paint5_linear_3404_15178)"/>
<path d="M22.5194 20.185C22.5472 19.2794 21.9249 18.5793 20.8415 17.3125C19.758 16.0457 19.6469 15.9679 19.3135 11.6397C19.019 7.83929 17.3411 6.60027 15.3242 5.97799C14.8186 5.82241 14.2908 5.75019 13.7629 5.75019C17.0744 6.38359 16.9077 9.74505 16.9077 12.512C16.9077 15.279 17.4967 16.1235 19.1746 17.0458C20.2358 17.6292 20.4247 19.146 20.4192 20.185H22.5194Z" fill="url(#paint6_linear_3404_15178)"/>
<path d="M15.6464 22.0241C15.9909 23.2909 16.8355 24.1632 17.5411 23.9743C18.2467 23.7854 18.5412 22.6019 18.1967 21.3351C18.13 21.0907 18.0467 20.8684 17.9522 20.6573C17.2077 20.6017 16.3965 20.5573 15.5409 20.5295C15.4686 20.9684 15.502 21.4907 15.6464 22.0241Z" fill="url(#paint7_radial_3404_15178)"/>
<path d="M17.9466 20.6573C17.2021 20.6017 16.3909 20.5573 15.5353 20.5295C15.4908 20.8184 15.4908 21.1462 15.5353 21.4851C16.8743 21.0851 18.33 21.7463 18.33 22.4352C18.33 22.463 18.33 22.4852 18.3356 22.5019C18.3522 22.1408 18.3078 21.7407 18.1967 21.3296C18.13 21.0962 18.0467 20.8684 17.9466 20.6573Z" fill="url(#paint8_linear_3404_15178)"/>
<path d="M22.5194 20.185C22.5472 19.2794 21.9249 18.5793 20.8414 17.3125C19.758 16.0457 19.6469 15.9679 19.3135 11.6397C19.019 7.83929 17.3411 6.60027 15.3242 5.97799C14.8186 5.82241 14.2907 5.75019 13.7629 5.75019C13.2351 5.75019 12.7072 5.82241 12.2016 5.97799C10.1792 6.60583 8.5068 7.84485 8.21233 11.6453C7.87896 15.9735 7.76228 16.0457 6.68439 17.3181C5.6065 18.5904 4.9731 19.2794 5.00088 20.185H22.5194Z" fill="url(#paint9_radial_3404_15178)"/>
<path d="M22.5194 20.185C22.5472 19.2794 21.9249 18.5793 20.8414 17.3125C19.758 16.0457 19.6469 15.9679 19.3135 11.6397C19.019 7.83929 17.3411 6.60027 15.3242 5.97799C14.8186 5.82241 14.2907 5.75019 13.7629 5.75019C13.2351 5.75019 12.7072 5.82241 12.2016 5.97799C10.1792 6.60583 8.5068 7.84485 8.21233 11.6453C7.87896 15.9735 7.76228 16.0457 6.68439 17.3181C5.6065 18.5904 4.9731 19.2794 5.00088 20.185H22.5194Z" fill="url(#paint10_radial_3404_15178)"/>
<path d="M13.7573 18.9405C8.92349 18.9405 5.00085 19.5017 5.00085 20.1851V21.7519C5.00085 21.063 8.92349 20.5074 13.7573 20.5074C18.5967 20.5074 22.5138 21.063 22.5138 21.7519V20.1851C22.5194 19.5017 18.5967 18.9405 13.7573 18.9405Z" fill="url(#paint11_linear_3404_15178)"/>
</svg>
