<svg width="28" height="28" viewBox="0 0 28 28" fill="none" xmlns="http://www.w3.org/2000/svg">
<defs>
<linearGradient id="paint0_linear_3404_15235" x1="19.7347" y1="25.2712" x2="19.7347" y2="12.4144" gradientUnits="userSpaceOnUse">
<stop stop-color="#A3541E"/>
<stop offset="0.9996" stop-color="#FF8000"/>
</linearGradient>
<radialGradient id="paint1_radial_3404_15235" cx="0" cy="0" r="1" gradientUnits="userSpaceOnUse" gradientTransform="translate(19.7347 16.0059) scale(4.59773)">
<stop offset="0.9169" stop-color="#7A4400" stop-opacity="0"/>
<stop offset="0.9955" stop-color="#975500"/>
</radialGradient>
<linearGradient id="paint2_linear_3404_15235" x1="13.1242" y1="14.4154" x2="12.4395" y2="15.9369" gradientUnits="userSpaceOnUse">
<stop/>
<stop offset="1" stop-color="#A9BCBE"/>
</linearGradient>
<linearGradient id="paint3_linear_3404_15235" x1="8.2666" y1="25.2712" x2="8.2666" y2="12.4144" gradientUnits="userSpaceOnUse">
<stop stop-color="#A3541E"/>
<stop offset="0.9996" stop-color="#FF8000"/>
</linearGradient>
<linearGradient id="paint4_linear_3404_15235" x1="8.2666" y1="12.8295" x2="8.2666" y2="21.9752" gradientUnits="userSpaceOnUse">
<stop stop-color="#8EA5A8"/>
<stop offset="1" stop-color="#DEE7E8"/>
</linearGradient>
<radialGradient id="paint5_radial_3404_15235" cx="0" cy="0" r="1" gradientUnits="userSpaceOnUse" gradientTransform="translate(8.26654 16.0059) scale(4.59773)">
<stop offset="0.9169" stop-color="#7A4400" stop-opacity="0"/>
<stop offset="0.9955" stop-color="#975500"/>
</radialGradient>
<linearGradient id="paint6_linear_3404_15235" x1="19.7347" y1="12.8295" x2="19.7347" y2="21.9752" gradientUnits="userSpaceOnUse">
<stop stop-color="#8EA5A8"/>
<stop offset="1" stop-color="#DEE7E8"/>
</linearGradient>
<linearGradient id="paint7_linear_3404_15235" x1="13.3512" y1="16.7148" x2="12.6158" y2="15.0413" gradientUnits="userSpaceOnUse">
<stop/>
<stop offset="1" stop-color="#A9BCBE"/>
</linearGradient>
<linearGradient id="paint8_linear_3404_15235" x1="12.7233" y1="15.438" x2="12.4601" y2="14.3814" gradientUnits="userSpaceOnUse">
<stop stop-color="#8EA5A8"/>
<stop offset="1" stop-color="#CFDCDE"/>
</linearGradient>
<linearGradient id="paint9_linear_3404_15235" x1="16.0537" y1="12.3368" x2="17.0495" y2="10.0656" gradientUnits="userSpaceOnUse">
<stop offset="0.2544" stop-color="#17BBFE"/>
<stop offset="1" stop-color="#3640FF"/>
</linearGradient>
<linearGradient id="paint10_linear_3404_15235" x1="12.3553" y1="12.5695" x2="11.8254" y2="9.07273" gradientUnits="userSpaceOnUse">
<stop offset="0.2544" stop-color="#17BBFE"/>
<stop offset="1" stop-color="#3640FF"/>
</linearGradient>
<linearGradient id="paint11_linear_3404_15235" x1="8.57116" y1="18.0436" x2="8.16867" y2="15.5796" gradientUnits="userSpaceOnUse">
<stop/>
<stop offset="1" stop-color="#A9BCBE"/>
</linearGradient>
<linearGradient id="paint12_linear_3404_15235" x1="11.5511" y1="11.0015" x2="11.3889" y2="6.98855" gradientUnits="userSpaceOnUse">
<stop stop-color="#3C2200"/>
<stop offset="0.9996" stop-color="#FF9D00"/>
</linearGradient>
<linearGradient id="paint13_linear_3404_15235" x1="10.3744" y1="11.031" x2="10.5456" y2="10.0104" gradientUnits="userSpaceOnUse">
<stop stop-color="#BD2719"/>
<stop offset="0.9996" stop-color="#FF8000"/>
</linearGradient>
<linearGradient id="paint14_linear_3404_15235" x1="18.2344" y1="10.0641" x2="18.2344" y2="10.6899" gradientUnits="userSpaceOnUse">
<stop stop-color="white"/>
<stop offset="0.1839" stop-color="#F9FAFA"/>
<stop offset="0.4404" stop-color="#E6ECEC"/>
<stop offset="0.7381" stop-color="#C9D5D6"/>
<stop offset="1" stop-color="#A9BCBE"/>
</linearGradient>
<linearGradient id="paint15_linear_3404_15235" x1="9.5058" y1="19.2713" x2="15.463" y2="8.27343" gradientUnits="userSpaceOnUse">
<stop offset="0.2544" stop-color="#17BBFE"/>
<stop offset="0.3624" stop-color="#19B4FE"/>
<stop offset="0.5159" stop-color="#1DA2FE"/>
<stop offset="0.6967" stop-color="#2583FE"/>
<stop offset="0.8966" stop-color="#3059FF"/>
<stop offset="1" stop-color="#3640FF"/>
</linearGradient>
<linearGradient id="paint16_linear_3404_15235" x1="8.26668" y1="17.7808" x2="8.26668" y2="15.3532" gradientUnits="userSpaceOnUse">
<stop stop-color="#8EA5A8"/>
<stop offset="1" stop-color="#CFDCDE"/>
</linearGradient>
<linearGradient id="paint17_linear_3404_15235" x1="17.7127" y1="11.2101" x2="20.4512" y2="18.7918" gradientUnits="userSpaceOnUse">
<stop offset="0.2544" stop-color="#17BBFE"/>
<stop offset="1" stop-color="#3640FF"/>
</linearGradient>
<linearGradient id="paint18_linear_3404_15235" x1="19.7347" y1="17.7809" x2="19.7347" y2="15.3532" gradientUnits="userSpaceOnUse">
<stop stop-color="#8EA5A8"/>
<stop offset="1" stop-color="#CFDCDE"/>
</linearGradient>
<linearGradient id="paint19_linear_3404_15235" x1="17.2471" y1="9.63896" x2="17.2894" y2="10.5602" gradientUnits="userSpaceOnUse">
<stop offset="0.2544" stop-color="#17BBFE"/>
<stop offset="1" stop-color="#3640FF"/>
</linearGradient>
<linearGradient id="paint20_linear_3404_15235" x1="17.6188" y1="11.2982" x2="17.4667" y2="10.4994" gradientUnits="userSpaceOnUse">
<stop offset="0.2544" stop-color="#17BBFE"/>
<stop offset="1" stop-color="#3640FF"/>
</linearGradient>
<linearGradient id="paint21_linear_3404_15235" x1="11.0147" y1="22.5275" x2="14.6999" y2="14.9205" gradientUnits="userSpaceOnUse">
<stop/>
<stop offset="1" stop-color="#A9BCBE"/>
</linearGradient>
<linearGradient id="paint22_linear_3404_15235" x1="13.5619" y1="17.9084" x2="13.6301" y2="16.7288" gradientUnits="userSpaceOnUse">
<stop stop-color="#8EA5A8"/>
<stop offset="1" stop-color="#CFDCDE"/>
</linearGradient>
<linearGradient id="paint23_linear_3404_15235" x1="14.3624" y1="9.97578" x2="14.3624" y2="11.2993" gradientUnits="userSpaceOnUse">
<stop offset="0.2544" stop-color="#17BBFE"/>
<stop offset="1" stop-color="#3640FF"/>
</linearGradient>
<linearGradient id="paint24_linear_3404_15235" x1="16.6742" y1="9.26549" x2="16.6249" y2="7.34291" gradientUnits="userSpaceOnUse">
<stop stop-color="#3C2200"/>
<stop offset="0.9996" stop-color="#FF9D00"/>
</linearGradient>
<linearGradient id="paint25_linear_3404_15235" x1="13.3039" y1="16.6366" x2="14.4524" y2="18.9631" gradientUnits="userSpaceOnUse">
<stop/>
<stop offset="1" stop-color="#A9BCBE"/>
</linearGradient>
<linearGradient id="paint26_linear_3404_15235" x1="14.5206" y1="19.6386" x2="14.42" y2="18.318" gradientUnits="userSpaceOnUse">
<stop/>
<stop offset="1" stop-color="#A9BCBE"/>
</linearGradient>
<linearGradient id="paint27_linear_3404_15235" x1="14.4991" y1="19.1595" x2="14.2359" y2="18.1029" gradientUnits="userSpaceOnUse">
<stop stop-color="#8EA5A8"/>
<stop offset="1" stop-color="#CFDCDE"/>
</linearGradient>
<radialGradient id="paint28_radial_3404_15235" cx="0" cy="0" r="1" gradientUnits="userSpaceOnUse" gradientTransform="translate(8.24925 16.2004) scale(4.36163)">
<stop offset="0.9169" stop-color="#FF9D00" stop-opacity="0"/>
<stop offset="0.9982" stop-color="#FC8D41"/>
</radialGradient>
<radialGradient id="paint29_radial_3404_15235" cx="0" cy="0" r="1" gradientUnits="userSpaceOnUse" gradientTransform="translate(19.7105 16.192) scale(4.31145)">
<stop offset="0.9169" stop-color="#FF9D00" stop-opacity="0"/>
<stop offset="0.9982" stop-color="#FC8D41"/>
</radialGradient>
</defs>
<path d="M19.7351 11.915C17.382 11.915 15.4701 13.8218 15.4701 16.18C15.4701 18.5382 17.3769 20.445 19.7351 20.445C22.0882 20.445 24.0001 18.5382 24.0001 16.18C24.0001 13.8218 22.0882 11.915 19.7351 11.915ZM19.7351 19.6589C17.813 19.6589 16.2561 18.102 16.2561 16.18C16.2561 14.258 17.813 12.7011 19.7351 12.7011C21.6571 12.7011 23.214 14.258 23.214 16.18C23.214 18.102 21.6571 19.6589 19.7351 19.6589Z" fill="url(#paint0_linear_3404_15235)"/>
<path d="M19.735 12.4881C17.6963 12.4881 16.0481 14.1413 16.0481 16.1749C16.0481 18.2136 17.7014 19.8618 19.735 19.8618C21.7686 19.8618 23.4218 18.2085 23.4218 16.1749C23.4218 14.1413 21.7736 12.4881 19.735 12.4881ZM19.735 19.6741C17.8028 19.6741 16.2408 18.1071 16.2408 16.18C16.2408 14.2478 17.8078 12.6858 19.735 12.6858C21.6621 12.6858 23.2291 14.2529 23.2291 16.18C23.2291 18.1122 21.6671 19.6741 19.735 19.6741Z" fill="#FFBF00"/>
<path d="M19.735 20.166C18.0361 20.166 16.5604 19.2177 15.7997 17.8231C16.4437 19.3597 17.9601 20.4399 19.735 20.4399C21.5049 20.4399 23.0263 19.3597 23.6704 17.8231C22.9097 19.2228 21.4339 20.166 19.735 20.166Z" fill="url(#paint1_radial_3404_15235)"/>
<path d="M12.3716 15.1455H13.0765C13.1627 15.1455 13.2388 15.2165 13.2388 15.3027C13.2388 15.3889 13.1678 15.465 13.0816 15.465H12.3766C12.2904 15.465 12.2144 15.394 12.2144 15.3077C12.2144 15.2165 12.2854 15.1455 12.3716 15.1455Z" fill="url(#paint2_linear_3404_15235)"/>
<path d="M19.7351 16.1801L23.0822 16.1547V16.2054L19.7351 16.1801Z" fill="#939FA1"/>
<path d="M16.3879 16.1547L19.735 16.1801L16.3879 16.2054V16.1547Z" fill="#939FA1"/>
<path d="M19.7351 16.1801L19.7604 19.5271H19.7097L19.7351 16.1801Z" fill="#939FA1"/>
<path d="M19.7604 12.833L19.7351 16.1801L19.7097 12.833H19.7604Z" fill="#939FA1"/>
<path d="M19.7351 16.1801L22.1186 18.5281L22.0831 18.5636L19.7351 16.1801Z" fill="#939FA1"/>
<path d="M17.3871 13.7966L19.7351 16.1801L17.3516 13.8321L17.3871 13.7966Z" fill="#939FA1"/>
<path d="M19.7351 16.1801L17.3871 18.5636L17.3516 18.5281L19.7351 16.1801Z" fill="#939FA1"/>
<path d="M22.1186 13.8321L19.7351 16.1801L22.0831 13.7966L22.1186 13.8321Z" fill="#939FA1"/>
<path d="M19.7351 16.1801L22.8185 14.8768L22.8337 14.9224L19.7351 16.1801Z" fill="#939FA1"/>
<path d="M16.6315 17.4378L19.7351 16.1801L16.6518 17.4834L16.6315 17.4378Z" fill="#939FA1"/>
<path d="M19.7351 16.1801L21.0384 19.2584L20.9928 19.2786L19.7351 16.1801Z" fill="#939FA1"/>
<path d="M18.4774 13.0765L19.7351 16.1802L18.4318 13.0968L18.4774 13.0765Z" fill="#939FA1"/>
<path d="M19.7351 16.1801L22.8337 17.4378L22.8185 17.4834L19.7351 16.1801Z" fill="#939FA1"/>
<path d="M16.6518 14.8768L19.7351 16.1801L16.6315 14.9224L16.6518 14.8768Z" fill="#939FA1"/>
<path d="M19.7351 16.1801L18.4774 19.2786L18.4318 19.2634L19.7351 16.1801Z" fill="#939FA1"/>
<path d="M21.0384 13.0968L19.7351 16.1802L20.9928 13.0765L21.0384 13.0968Z" fill="#939FA1"/>
<path d="M19.7351 16.1801L23.0112 15.5005L23.0213 15.5512L19.7351 16.1801Z" fill="#939FA1"/>
<path d="M16.4489 16.8089L19.7351 16.18L16.459 16.8545L16.4489 16.8089Z" fill="#939FA1"/>
<path d="M19.7351 16.18L20.4147 19.4561L20.3639 19.4662L19.7351 16.18Z" fill="#939FA1"/>
<path d="M19.1064 12.8938L19.7352 16.18L19.0557 12.904L19.1064 12.8938Z" fill="#939FA1"/>
<path d="M19.7351 16.18L22.5294 18.0159L22.5041 18.0615L19.7351 16.18Z" fill="#939FA1"/>
<path d="M16.9663 14.2985L19.7352 16.1799L16.9409 14.3391L16.9663 14.2985Z" fill="#939FA1"/>
<path d="M19.7351 16.18L17.8993 18.9743L17.8536 18.949L19.7351 16.18Z" fill="#939FA1"/>
<path d="M21.6166 13.4111L19.7351 16.18L21.5709 13.3857L21.6166 13.4111Z" fill="#939FA1"/>
<path d="M19.7351 16.1799L22.5041 14.2985L22.5294 14.3391L19.7351 16.1799Z" fill="#939FA1"/>
<path d="M16.9409 18.0159L19.7352 16.18L16.9663 18.0615L16.9409 18.0159Z" fill="#939FA1"/>
<path d="M19.7351 16.18L21.6166 18.949L21.5709 18.9743L19.7351 16.18Z" fill="#939FA1"/>
<path d="M17.8993 13.3807L19.7351 16.18L17.8536 13.4111L17.8993 13.3807Z" fill="#939FA1"/>
<path d="M19.7351 16.18L23.0213 16.8089L23.0112 16.8545L19.7351 16.18Z" fill="#939FA1"/>
<path d="M16.459 15.5005L19.7351 16.1801L16.4489 15.5512L16.459 15.5005Z" fill="#939FA1"/>
<path d="M19.7352 16.18L19.1064 19.4662L19.0557 19.4561L19.7352 16.18Z" fill="#939FA1"/>
<path d="M20.4147 12.904L19.7351 16.18L20.3639 12.8938L20.4147 12.904Z" fill="#939FA1"/>
<path d="M8.26892 16.1801L11.6109 16.1547V16.2054L8.26892 16.1801Z" fill="#939FA1"/>
<path d="M4.92175 16.1547L8.26883 16.1801L4.92175 16.2054V16.1547Z" fill="#939FA1"/>
<path d="M8.26889 16.1801L8.29424 19.5271H8.24353L8.26889 16.1801Z" fill="#939FA1"/>
<path d="M8.29424 12.833L8.26889 16.1801L8.24353 12.833H8.29424Z" fill="#939FA1"/>
<path d="M8.26892 16.1801L10.6524 18.5281L10.6169 18.5636L8.26892 16.1801Z" fill="#939FA1"/>
<path d="M5.92082 13.7966L8.26884 16.1801L5.88025 13.8321L5.92082 13.7966Z" fill="#939FA1"/>
<path d="M8.26884 16.1801L5.92082 18.5636L5.88025 18.5281L8.26884 16.1801Z" fill="#939FA1"/>
<path d="M10.6524 13.8321L8.26892 16.1801L10.6169 13.7966L10.6524 13.8321Z" fill="#939FA1"/>
<path d="M8.2688 16.1801L11.3471 14.8768L11.3674 14.9224L8.2688 16.1801Z" fill="#939FA1"/>
<path d="M5.16516 17.4378L8.26881 16.1801L5.18545 17.4834L5.16516 17.4378Z" fill="#939FA1"/>
<path d="M8.2688 16.1801L9.57213 19.2584L9.52142 19.2786L8.2688 16.1801Z" fill="#939FA1"/>
<path d="M7.01116 13.0765L8.26885 16.1802L6.96045 13.0968L7.01116 13.0765Z" fill="#939FA1"/>
<path d="M8.2688 16.1801L11.3674 17.4378L11.3471 17.4834L8.2688 16.1801Z" fill="#939FA1"/>
<path d="M5.18545 14.8768L8.26881 16.1801L5.16516 14.9224L5.18545 14.8768Z" fill="#939FA1"/>
<path d="M8.26885 16.1801L7.01116 19.2786L6.96045 19.2634L8.26885 16.1801Z" fill="#939FA1"/>
<path d="M9.57213 13.0968L8.2688 16.1802L9.52142 13.0765L9.57213 13.0968Z" fill="#939FA1"/>
<path d="M8.26892 16.1801L11.545 15.5005L11.5551 15.5512L8.26892 16.1801Z" fill="#939FA1"/>
<path d="M4.97754 16.8089L8.26883 16.18L4.98768 16.8545L4.97754 16.8089Z" fill="#939FA1"/>
<path d="M8.26892 16.18L8.94341 19.4561L8.8927 19.4662L8.26892 16.18Z" fill="#939FA1"/>
<path d="M7.64007 12.8938L8.26891 16.18L7.58936 12.904L7.64007 12.8938Z" fill="#939FA1"/>
<path d="M8.26892 16.18L11.0632 18.0159L11.0328 18.0615L8.26892 16.18Z" fill="#939FA1"/>
<path d="M5.49991 14.2985L8.26885 16.1799L5.46948 14.3391L5.49991 14.2985Z" fill="#939FA1"/>
<path d="M8.26879 16.18L6.4279 18.9743L6.38733 18.949L8.26879 16.18Z" fill="#939FA1"/>
<path d="M10.1453 13.4111L8.26892 16.18L10.1047 13.3857L10.1453 13.4111Z" fill="#939FA1"/>
<path d="M8.26892 16.1799L11.0328 14.2985L11.0632 14.3391L8.26892 16.1799Z" fill="#939FA1"/>
<path d="M5.46948 18.0159L8.26885 16.18L5.49991 18.0615L5.46948 18.0159Z" fill="#939FA1"/>
<path d="M8.26892 16.18L10.1453 18.949L10.1047 18.9743L8.26892 16.18Z" fill="#939FA1"/>
<path d="M6.4279 13.3807L8.26879 16.18L6.38733 13.4111L6.4279 13.3807Z" fill="#939FA1"/>
<path d="M8.26892 16.18L11.5551 16.8089L11.545 16.8545L8.26892 16.18Z" fill="#939FA1"/>
<path d="M4.98768 15.5005L8.26883 16.1801L4.97754 15.5512L4.98768 15.5005Z" fill="#939FA1"/>
<path d="M8.26891 16.18L7.64007 19.4662L7.58936 19.4561L8.26891 16.18Z" fill="#939FA1"/>
<path d="M8.94341 12.904L8.26892 16.18L8.8927 12.8938L8.94341 12.904Z" fill="#939FA1"/>
<path d="M8.26877 11.915C5.91567 11.915 4.00378 13.8218 4.00378 16.18C4.00378 18.5382 5.9106 20.445 8.26877 20.445C10.6269 20.445 12.5338 18.5382 12.5338 16.18C12.5338 13.8218 10.6219 11.915 8.26877 11.915ZM8.26877 19.6589C6.34674 19.6589 4.78984 18.102 4.78984 16.18C4.78984 14.258 6.34674 12.7011 8.26877 12.7011C10.1908 12.7011 11.7477 14.258 11.7477 16.18C11.7477 18.102 10.1857 19.6589 8.26877 19.6589Z" fill="url(#paint3_linear_3404_15235)"/>
<path d="M8.26876 12.4881C6.23009 12.4881 4.58191 14.1413 4.58191 16.1749C4.58191 18.2136 6.23516 19.8618 8.26876 19.8618C10.3024 19.8618 11.9556 18.2085 11.9556 16.1749C11.9556 14.1413 10.3024 12.4881 8.26876 12.4881ZM8.26876 19.6741C6.33659 19.6741 4.77462 18.1071 4.77462 16.18C4.77462 14.2478 6.34166 12.6858 8.26876 12.6858C10.1959 12.6858 11.7629 14.2529 11.7629 16.18C11.7629 18.1122 10.1959 19.6741 8.26876 19.6741Z" fill="#FFBF00"/>
<path d="M8.26878 12.6503C6.32139 12.6503 4.73914 14.2326 4.73914 16.18C4.73914 18.1274 6.32139 19.7096 8.26878 19.7096C10.2162 19.7096 11.7984 18.1274 11.7984 16.18C11.7984 14.2275 10.2162 12.6503 8.26878 12.6503ZM8.26878 19.527C6.42282 19.527 4.9217 18.031 4.9217 16.18C4.9217 14.334 6.41774 12.8329 8.26878 12.8329C10.1198 12.8329 11.6159 14.3289 11.6159 16.18C11.6108 18.0259 10.1147 19.527 8.26878 19.527Z" fill="url(#paint4_linear_3404_15235)"/>
<path d="M8.26872 20.166C6.56983 20.166 5.09407 19.2177 4.33337 17.8231C4.97743 19.3597 6.49376 20.4399 8.26872 20.4399C10.0386 20.4399 11.56 19.3597 12.2041 17.8231C11.4434 19.2228 9.96762 20.166 8.26872 20.166Z" fill="url(#paint5_radial_3404_15235)"/>
<path d="M19.7351 12.4881C17.6964 12.4881 16.0482 14.1413 16.0482 16.1749C16.0482 18.2136 17.7015 19.8618 19.7351 19.8618C21.7687 19.8618 23.4219 18.2085 23.4219 16.1749C23.4219 14.1413 21.7737 12.4881 19.7351 12.4881ZM19.7351 19.6741C17.8029 19.6741 16.2409 18.1071 16.2409 16.18C16.2409 14.2478 17.808 12.6858 19.7351 12.6858C21.6622 12.6858 23.2292 14.2529 23.2292 16.18C23.2292 18.1122 21.6673 19.6741 19.7351 19.6741Z" fill="#FFBF00"/>
<path d="M19.7351 12.6503C17.7877 12.6503 16.2054 14.2326 16.2054 16.18C16.2054 18.1274 17.7877 19.7096 19.7351 19.7096C21.6825 19.7096 23.2647 18.1274 23.2647 16.18C23.2647 14.2275 21.6825 12.6503 19.7351 12.6503ZM19.7351 19.527C17.8891 19.527 16.388 18.031 16.388 16.18C16.388 14.334 17.8841 12.8329 19.7351 12.8329C21.5861 12.8329 23.0822 14.3289 23.0822 16.18C23.0822 18.0259 21.5811 19.527 19.7351 19.527Z" fill="url(#paint6_linear_3404_15235)"/>
<path d="M13.4264 17.1385L12.5794 15.3991C12.5439 15.3281 12.5744 15.2469 12.6454 15.2165C12.7164 15.181 12.7975 15.2114 12.8279 15.2824L13.6749 17.0219L13.4264 17.1385Z" fill="url(#paint7_linear_3404_15235)"/>
<path d="M12.7011 15.4396C12.7516 15.4396 12.7924 15.3987 12.7924 15.3483C12.7924 15.2979 12.7516 15.257 12.7011 15.257C12.6507 15.257 12.6099 15.2979 12.6099 15.3483C12.6099 15.3987 12.6507 15.4396 12.7011 15.4396Z" fill="url(#paint8_linear_3404_15235)"/>
<path d="M13.5988 17.2856C13.652 17.2856 13.6952 17.2425 13.6952 17.1892C13.6952 17.136 13.652 17.0929 13.5988 17.0929C13.5456 17.0929 13.5024 17.136 13.5024 17.1892C13.5024 17.2425 13.5456 17.2856 13.5988 17.2856Z" fill="#FB9261"/>
<path d="M13.7053 17.3313L13.2286 16.9154L17.2451 9.97786L17.7218 10.3988L13.7053 17.3313Z" fill="url(#paint9_linear_3404_15235)"/>
<path d="M13.2894 17.0321L11.1747 10.1705L11.7224 10.0691L13.8321 16.9306L13.2894 17.0321Z" fill="url(#paint10_linear_3404_15235)"/>
<path d="M10.0996 8.7353C9.98805 8.82151 9.97791 8.91279 9.97791 8.98379C9.97791 9.05986 10.1453 9.23229 10.3481 9.23229C10.551 9.23229 10.769 9.13086 10.8045 8.92801C10.8451 8.73023 10.0996 8.7353 10.0996 8.7353Z" fill="#0083D4"/>
<path d="M11.7731 17.7724L11.3065 17.6507C11.2913 17.6812 11.2761 17.7167 11.2609 17.7471L11.7274 17.8688C11.7477 17.8384 11.7629 17.8029 11.7731 17.7724Z" fill="#B34F20"/>
<path d="M13.6038 18.2339C13.5734 18.2339 13.543 18.2339 13.5125 18.2288C13.4669 18.2238 13.4213 18.2187 13.3756 18.2085L13.4111 18.0361C13.4466 18.0463 13.4872 18.0513 13.5227 18.0513C13.548 18.0513 13.5734 18.0564 13.5988 18.0564C14.045 18.0564 14.4305 17.7115 14.471 17.2602C14.4913 17.0269 14.4203 16.7987 14.2682 16.6212C14.116 16.4437 13.9081 16.3321 13.6748 16.3119L13.69 16.1394C13.969 16.1648 14.2225 16.2966 14.4 16.5096C14.5775 16.7226 14.6637 16.9965 14.6384 17.2754C14.5978 17.8231 14.1414 18.2339 13.6038 18.2339Z" fill="#FB9261"/>
<path d="M13.908 18.1934L13.5074 18.1477C11.702 17.9398 9.92704 17.4884 8.24336 16.8038L8.22815 16.7987L8.11658 16.6922L8.22308 16.5807L8.31436 16.6669C9.98283 17.3414 11.7375 17.7927 13.5277 17.9956L13.9283 18.0412L13.908 18.1934Z" fill="#8EA5A8"/>
<path d="M8.26474 15.5699L8.24854 15.7212L13.9818 16.3353L13.998 16.184L8.26474 15.5699Z" fill="#8EA5A8"/>
<path d="M8.26891 16.8038C8.61341 16.8038 8.89269 16.5245 8.89269 16.18C8.89269 15.8355 8.61341 15.5562 8.26891 15.5562C7.92441 15.5562 7.64514 15.8355 7.64514 16.18C7.64514 16.5245 7.92441 16.8038 8.26891 16.8038Z" fill="url(#paint11_linear_3404_15235)"/>
<path d="M8.26878 16.3931C8.38641 16.3931 8.48178 16.2977 8.48178 16.1801C8.48178 16.0624 8.38641 15.9671 8.26878 15.9671C8.15115 15.9671 8.05579 16.0624 8.05579 16.1801C8.05579 16.2977 8.15115 16.3931 8.26878 16.3931Z" fill="#FB9261"/>
<path d="M8.26874 16.2967C8.33316 16.2967 8.38538 16.2445 8.38538 16.18C8.38538 16.1156 8.33316 16.0634 8.26874 16.0634C8.20432 16.0634 8.1521 16.1156 8.1521 16.18C8.1521 16.2445 8.20432 16.2967 8.26874 16.2967Z" fill="#2684FF"/>
<path d="M11.1138 10.0336L10.7791 8.73025L11.3115 8.6339L11.7223 10.2161L11.1138 10.0336Z" fill="#0083D4"/>
<path d="M17.1994 9.68871C17.1284 9.68871 17.0574 9.64308 17.032 9.57208L16.6973 8.5781C16.6973 8.5781 16.6669 8.46653 16.8241 8.42089C16.9712 8.38032 17.027 8.46653 17.027 8.46653L17.3617 9.4605C17.3921 9.55179 17.3414 9.64814 17.2501 9.68364C17.2399 9.68364 17.2197 9.68871 17.1994 9.68871Z" fill="#0083D4"/>
<path d="M17.8992 8.39048H17.2045C17.1182 8.39048 17.0472 8.31948 17.0472 8.23327C17.0472 8.14706 17.1182 8.07606 17.2045 8.07606H17.8992C17.9854 8.07606 18.0564 8.14706 18.0564 8.23327C18.0564 8.31948 17.9854 8.39048 17.8992 8.39048Z" fill="#0083D4"/>
<path d="M9.73438 8.62876C9.73438 8.51719 9.78002 8.3397 9.98794 8.3397C10.7334 8.3397 10.7994 8.39548 11.0225 8.39548C11.9759 8.39548 12.2143 8.3397 12.6859 8.3397C12.9293 8.3397 13.1423 8.42591 13.1727 8.62876C13.1727 8.62876 12.6453 8.7302 12.4171 8.88741C12.194 9.04462 11.7325 9.29311 11.3268 9.29311C10.9211 9.29311 10.5661 8.89248 10.1857 8.81641C9.81552 8.74034 9.73438 8.62876 9.73438 8.62876Z" fill="url(#paint12_linear_3404_15235)"/>
<path d="M10.5509 9.99813H10.4292V10.6777H10.5509V9.99813Z" fill="url(#paint13_linear_3404_15235)"/>
<path d="M18.2948 9.99813H18.1731V10.6777H18.2948V9.99813Z" fill="url(#paint14_linear_3404_15235)"/>
<path d="M13.604 17.3312C13.5228 17.3312 13.4569 17.2653 13.4569 17.1842C13.4569 17.103 13.5228 17.0371 13.604 17.0371C13.6851 17.0371 13.751 17.103 13.751 17.1842C13.746 17.2653 13.6851 17.3312 13.604 17.3312ZM13.604 17.0574C13.533 17.0574 13.4721 17.1182 13.4721 17.1892C13.4721 17.2602 13.533 17.3211 13.604 17.3211C13.675 17.3211 13.7358 17.2602 13.7358 17.1892C13.7358 17.1182 13.675 17.0574 13.604 17.0574Z" fill="#F1F1F1"/>
<path d="M8.71503 16.0279C8.54768 15.9265 8.52232 15.8606 8.52232 15.8454C8.52232 15.8454 8.52232 15.8454 8.52232 15.8403L8.5426 15.815L8.58317 15.7085L11.8339 10.3227L11.3775 9.96771L7.94419 15.6425C7.82755 15.7642 7.80219 16.0127 7.79712 16.1192C7.79712 16.4134 8.04054 16.53 8.1724 16.5503L13.9943 17.5088L14.1058 16.9002L8.71503 16.0279Z" fill="url(#paint15_linear_3404_15235)"/>
<path d="M8.26885 16.2865C8.32767 16.2865 8.37535 16.2388 8.37535 16.18C8.37535 16.1212 8.32767 16.0735 8.26885 16.0735C8.21003 16.0735 8.16235 16.1212 8.16235 16.18C8.16235 16.2388 8.21003 16.2865 8.26885 16.2865Z" fill="url(#paint16_linear_3404_15235)"/>
<path d="M19.9633 16.0329L19.8619 15.9366C19.8365 15.9061 19.8315 15.896 19.8315 15.8909C19.8264 15.8706 19.8163 15.8453 19.7808 15.7844C19.5069 15.3432 19.015 14.5217 18.8121 13.9537C18.731 13.7255 18.6245 13.2691 18.5079 12.7873C18.3506 12.128 18.1732 11.3825 18.0109 10.992L17.9855 10.9261L17.3212 11.1442L17.3465 11.2202C17.4784 11.5854 17.6812 12.2852 17.8587 12.9039C17.9804 13.3248 18.0971 13.7204 18.1681 13.9435C18.305 14.3543 18.9744 15.5258 19.299 16.0938L19.3446 16.1749C19.4207 16.3068 19.5475 16.3981 19.6996 16.4386C19.6996 16.4386 19.7453 16.4488 19.7909 16.4488C19.8112 16.4488 19.8264 16.4488 19.8467 16.4437C19.943 16.4183 20.014 16.3423 20.0343 16.2459C20.0495 16.1749 20.0191 16.0887 19.9633 16.0329Z" fill="url(#paint17_linear_3404_15235)"/>
<path d="M19.735 16.2967C19.7995 16.2967 19.8517 16.2445 19.8517 16.18C19.8517 16.1156 19.7995 16.0634 19.735 16.0634C19.6706 16.0634 19.6184 16.1156 19.6184 16.18C19.6184 16.2445 19.6706 16.2967 19.735 16.2967Z" fill="url(#paint18_linear_3404_15235)"/>
<path d="M16.8698 8.93825C16.8698 8.93825 16.7887 9.42509 16.8901 9.63302C16.9916 9.84094 17.3161 9.53159 17.3161 9.53159L17.4125 9.45552L17.0676 8.88753L16.8698 8.93825Z" fill="#0083D4"/>
<path d="M17.4631 9.36424L16.7125 9.58231L17.0016 10.3278H17.0523C17.245 10.3278 17.4428 10.343 17.6862 10.3836L17.8079 10.4039L17.4631 9.36424Z" fill="url(#paint19_linear_3404_15235)"/>
<path d="M17.7573 10.2415L17.7116 10.2364C17.4631 10.2009 17.2552 10.1807 17.0524 10.1807H16.9408L17.3719 11.2964L18.0362 11.0732L17.7573 10.2415Z" fill="url(#paint20_linear_3404_15235)"/>
<path d="M17.4175 8.88744C17.4124 8.88744 17.4073 8.88744 17.4023 8.88744C17.3617 8.87729 17.3363 8.84179 17.3465 8.80122C17.387 8.59837 17.5747 8.42087 17.7065 8.3093L17.6406 8.29916C17.6 8.29409 17.5747 8.25859 17.5798 8.21802C17.5848 8.17745 17.6203 8.15209 17.6609 8.15716L17.9094 8.19266C17.9398 8.19773 17.9652 8.21802 17.9702 8.24844C17.9753 8.27887 17.9652 8.3093 17.9347 8.32451C17.9297 8.32451 17.5392 8.57301 17.4885 8.82658C17.4834 8.86715 17.453 8.88744 17.4175 8.88744Z" fill="#0083D4"/>
<path d="M16.8901 8.74552C16.8344 8.74552 16.7836 8.71509 16.7583 8.66438C16.7228 8.59338 16.7532 8.50717 16.8242 8.47167L17.5849 8.10146C17.6559 8.06597 17.7421 8.09639 17.7776 8.16739C17.8131 8.23839 17.7827 8.3246 17.7117 8.3601L16.951 8.7303C16.9307 8.74045 16.9104 8.74552 16.8901 8.74552Z" fill="#0083D4"/>
<path d="M13.6038 18.239C14.1864 18.239 14.6586 17.7667 14.6586 17.1841C14.6586 16.6016 14.1864 16.1293 13.6038 16.1293C13.0212 16.1293 12.549 16.6016 12.549 17.1841C12.549 17.7667 13.0212 18.239 13.6038 18.239Z" fill="url(#paint21_linear_3404_15235)"/>
<path d="M13.6039 18.0158C14.0632 18.0158 14.4356 17.6434 14.4356 17.1841C14.4356 16.7248 14.0632 16.3524 13.6039 16.3524C13.1446 16.3524 12.7722 16.7248 12.7722 17.1841C12.7722 17.6434 13.1446 18.0158 13.6039 18.0158Z" fill="url(#paint22_linear_3404_15235)"/>
<path d="M13.6039 17.3414C13.6907 17.3414 13.7611 17.271 13.7611 17.1842C13.7611 17.0974 13.6907 17.027 13.6039 17.027C13.517 17.027 13.4467 17.0974 13.4467 17.1842C13.4467 17.271 13.517 17.3414 13.6039 17.3414Z" fill="#2684FF"/>
<path d="M18.1731 9.99813H10.5509V10.6777H18.1731V9.99813Z" fill="url(#paint23_linear_3404_15235)"/>
<path d="M17.1994 8.46149H16.0939C16.0076 8.46149 15.9366 8.36007 15.9366 8.23329C15.9366 8.1065 16.0076 8.00508 16.0939 8.00508H17.1994C17.2856 8.00508 17.3566 8.1065 17.3566 8.23329C17.3566 8.36007 17.2907 8.46149 17.1994 8.46149Z" fill="url(#paint24_linear_3404_15235)"/>
<path d="M16.0939 8C16.0076 8 15.9366 8.10143 15.9366 8.22821C15.9366 8.35499 16.0076 8.45642 16.0939 8.45642C16.1801 8.45642 16.2511 8.35499 16.2511 8.22821C16.2511 8.10143 16.1801 8 16.0939 8Z" fill="black"/>
<path d="M14.6181 19.0048L13.7509 17.1334C13.7357 17.0929 13.7052 17.0574 13.6647 17.0371C13.5835 17.0016 13.4922 17.0371 13.4567 17.1182C13.4364 17.1689 13.4415 17.2247 13.4669 17.2653L14.3341 19.1315L14.6181 19.0048Z" fill="url(#paint25_linear_3404_15235)"/>
<path d="M14.8311 19.2279L14.1261 19.233C14.0399 19.233 13.9639 19.162 13.9639 19.0758C13.9639 18.9896 14.0349 18.9135 14.1211 18.9135L14.826 18.9084C14.9122 18.9084 14.9883 18.9794 14.9883 19.0656C14.9883 19.1569 14.9173 19.2279 14.8311 19.2279Z" fill="url(#paint26_linear_3404_15235)"/>
<path d="M14.476 19.1621C14.5265 19.1621 14.5673 19.1212 14.5673 19.0708C14.5673 19.0204 14.5265 18.9795 14.476 18.9795C14.4256 18.9795 14.3848 19.0204 14.3848 19.0708C14.3848 19.1212 14.4256 19.1621 14.476 19.1621Z" fill="url(#paint27_linear_3404_15235)"/>
<path d="M5.44402 13.3604C4.24211 14.5623 3.86684 16.2764 4.31819 17.7978C3.68427 16.2562 3.99869 14.4153 5.25131 13.1626C6.50393 11.91 8.33975 11.6007 9.8865 12.2295C8.36003 11.7832 6.64592 12.1585 5.44402 13.3604Z" fill="url(#paint28_radial_3404_15235)"/>
<path d="M22.7474 13.1627C21.5557 11.9709 19.8416 11.6362 18.3506 12.1433C18.3506 12.1535 18.3557 12.1586 18.3557 12.1687C19.8162 11.8238 21.4137 12.2194 22.5547 13.3554C23.7566 14.5573 24.1319 16.2714 23.6805 17.7928C24.3145 16.2562 24 14.4153 22.7474 13.1627Z" fill="url(#paint29_radial_3404_15235)"/>
</svg>
