<svg width="28" height="28" viewBox="0 0 28 28" fill="none" xmlns="http://www.w3.org/2000/svg">
<path d="M19.6875 4.375H22.75C22.9821 4.375 23.2046 4.46719 23.3687 4.63128C23.5328 4.79538 23.625 5.01794 23.625 5.25V8.3125" stroke="white" stroke-linecap="round" stroke-linejoin="round"/>
<path d="M19.6875 23.625H22.75C22.9821 23.625 23.2046 23.5328 23.3687 23.3687C23.5328 23.2046 23.625 22.9821 23.625 22.75V19.6875" stroke="white" stroke-linecap="round" stroke-linejoin="round"/>
<path d="M8.3125 23.625H5.25C5.01794 23.625 4.79538 23.5328 4.63128 23.3687C4.46719 23.2046 4.375 22.9821 4.375 22.75V19.6875" stroke="white" stroke-linecap="round" stroke-linejoin="round"/>
<path d="M8.3125 4.375H5.25C5.01794 4.375 4.79538 4.46719 4.63128 4.63128C4.46719 4.79538 4.375 5.01794 4.375 5.25V8.3125" stroke="white" stroke-linecap="round" stroke-linejoin="round"/>
<path d="M14 15.75C15.933 15.75 17.5 14.183 17.5 12.25C17.5 10.317 15.933 8.75 14 8.75C12.067 8.75 10.5 10.317 10.5 12.25C10.5 14.183 12.067 15.75 14 15.75Z" fill="#00C802" stroke="white" stroke-linecap="round" stroke-linejoin="round"/>
<path d="M8.19226 19.2499C8.75159 18.1948 9.58778 17.312 10.611 16.6963C11.6343 16.0807 12.8059 15.7553 14.0001 15.7553C15.1943 15.7553 16.3659 16.0807 17.3891 16.6963C18.4124 17.312 19.2486 18.1948 19.8079 19.2499" stroke="white" stroke-linecap="round" stroke-linejoin="round"/>
</svg>
