<svg width="154" height="154" viewBox="0 0 154 154" fill="none" xmlns="http://www.w3.org/2000/svg">
<path d="M96.4562 129.823C96.1352 130.838 95.0497 131.412 94.0212 131.088C91.3585 130.25 88.7338 129.195 86.2209 127.952C85.2601 127.477 84.866 126.315 85.3417 125.355C85.8174 124.399 86.9791 124.003 87.9418 124.479C90.2766 125.633 92.7156 126.613 95.1888 127.392C96.2099 127.714 96.7785 128.802 96.4562 129.823V129.823ZM103.243 118.473C100.876 118.045 98.5313 117.397 96.2761 116.549C95.2718 116.169 94.1536 116.677 93.7765 117.678C93.3974 118.68 93.9053 119.797 94.9078 120.174C97.381 121.106 99.9525 121.816 102.549 122.286C103.591 122.479 104.613 121.786 104.806 120.725C104.996 119.672 104.296 118.663 103.243 118.473ZM68.067 25.8894C49.8085 25.8894 34.3389 40.5803 34.3389 59.5841C34.3389 64.3479 30.4577 68.2233 25.6869 68.2233C24.6151 68.2233 23.7463 69.0908 23.7463 70.161C23.7463 71.2311 24.6151 72.0987 25.6869 72.0987C32.3158 72.0987 38.2219 66.8343 38.2219 59.5654C38.2219 43.1339 51.6097 29.7651 68.0667 29.7651C84.5227 29.7651 97.9115 43.1339 97.9115 59.5654C97.9147 63.6273 97.8989 78.0804 97.9276 78.7476C97.977 85.6012 103.57 91.1625 110.446 91.1625C111.519 91.1625 112.386 90.2949 112.386 89.2247C112.386 88.1546 111.519 87.287 110.446 87.287C105.682 87.287 101.804 83.4156 101.804 78.6573C101.804 78.4076 101.793 59.8139 101.793 59.5654C101.793 40.9964 86.6642 25.8894 68.067 25.8894V25.8894ZM71.2315 89.9114C71.8266 89.0212 71.5869 87.8175 70.6963 87.2234C69.8057 86.6312 68.5992 86.8676 68.0042 87.7578C59.1532 100.987 44.5078 109.467 28.8287 110.439C27.759 110.506 26.9459 111.425 27.0122 112.493C27.0794 113.581 28.0286 114.379 29.0692 114.307C45.9502 113.26 61.7116 104.14 71.2315 89.9114V89.9114ZM75.6596 101.478C76.3476 100.658 76.2386 99.4352 75.4162 98.7482C74.5938 98.0596 73.3696 98.1701 72.6826 98.9913C62.9133 110.651 49.3777 118.277 34.5675 120.465C33.5072 120.622 32.7757 121.607 32.9321 122.666C33.0893 123.729 34.0802 124.453 35.1361 124.299C50.8869 121.972 65.2792 113.867 75.6596 101.478ZM82.1558 110.078C82.8702 109.28 82.8001 108.054 82.0004 107.342C81.1987 106.631 79.9745 106.698 79.2601 107.497C69.7325 118.16 57.5007 125.707 43.8873 129.324C42.8516 129.599 42.2358 130.66 42.5114 131.695C42.7839 132.716 43.8357 133.347 44.8859 133.068C59.2338 129.256 72.1214 121.307 82.1558 110.078ZM90.7179 116.36C91.421 115.554 91.3377 114.33 90.5304 113.627C89.725 112.924 88.4988 113.007 87.7921 113.813C79.6014 123.189 69.2885 130.725 57.971 135.607C56.9875 136.031 56.5335 137.172 56.959 138.154C57.3799 139.128 58.5159 139.593 59.5098 139.165C71.3558 134.056 82.1464 126.17 90.7179 116.36V116.36ZM69.9203 62.2369L69.9999 60.0125C70.0377 58.9433 69.2002 58.0454 68.1295 58.0067C67.0389 57.9793 66.1595 58.8051 66.1207 59.8743L66.0448 62.0353C64.5959 83.1047 47.0341 99.7614 26.063 99.9553C24.9913 99.9657 24.131 100.841 24.1404 101.911C24.1508 102.976 25.017 103.831 26.081 103.831H26.0991C49.0827 103.618 68.3304 85.3765 69.9203 62.2369V62.2369ZM108.107 108.415C92.726 107.222 80.6709 94.2604 80.5627 78.8645C80.6366 78.1549 80.5857 69.2426 80.602 59.5651C80.602 52.6631 74.9783 47.0478 68.067 47.0478C61.182 47.0478 55.5794 52.6194 55.5352 59.484C55.5349 59.4886 55.5322 59.4923 55.5319 59.497L55.4571 61.6561C54.3853 77.201 41.3084 89.3777 25.6871 89.3777C24.6154 89.3777 23.7465 90.2453 23.7465 91.3154C23.7465 92.3856 24.6154 93.2532 25.6871 93.2532C43.3399 93.2532 58.1178 79.4908 59.3326 61.8577C59.3398 61.6529 59.405 59.7722 59.4122 59.5651C59.4122 54.7994 63.2951 50.9233 68.067 50.9233C72.8388 50.9233 76.721 54.7997 76.721 59.5651C76.7203 59.8143 76.6726 78.4088 76.6726 78.658C76.6726 96.1566 90.3485 110.925 107.808 112.279C108.905 112.36 109.811 111.539 109.893 110.497C109.976 109.43 109.176 108.498 108.107 108.415V108.415ZM110.448 97.8957C99.8502 97.8957 91.2268 89.3074 91.1843 78.7355C91.206 78.1351 91.1944 64.3562 91.1974 59.5651C91.1974 46.8292 80.8216 36.4683 68.0667 36.4683C55.3128 36.4683 44.9361 46.8295 44.9361 59.5651C44.6459 71.187 35.639 78.7991 25.6869 78.7991C24.6151 78.7991 23.7463 79.6667 23.7463 80.7369C23.7463 81.807 24.6151 82.6746 25.6869 82.6746C37.9854 82.6746 48.712 72.9961 48.8175 59.5654C48.8175 48.9668 57.4525 40.3437 68.067 40.3437C78.6814 40.3437 87.3164 48.9668 87.3164 59.5654C87.3161 59.8141 87.2993 78.4085 87.2993 78.6582C87.2993 91.4025 97.6844 101.771 110.448 101.771C111.52 101.771 112.388 100.904 112.388 99.8337C112.388 98.7635 111.52 97.8957 110.448 97.8957ZM130.166 32.0441C130.166 41.5538 122.417 49.29 112.894 49.29C112.296 49.29 111.706 49.259 111.123 49.1992C111.934 52.5274 112.387 55.9927 112.387 59.5669V80.2843C112.387 81.3545 111.519 82.222 110.446 82.222C109.373 82.222 108.505 81.3545 108.505 80.2843V59.5669C108.505 55.593 107.877 51.7758 106.787 48.153C100.285 45.6804 95.6435 39.4016 95.6435 32.0441C95.6435 31.427 95.6793 30.8185 95.7431 30.2181C88.5008 23.4039 78.7805 19.1883 68.0672 19.1883C45.8361 19.1883 27.7402 37.193 27.631 59.366C27.6238 60.8045 26.6852 61.5098 25.7005 61.5098C24.7068 61.5098 23.7465 60.6585 23.7465 59.5674C23.7465 35.1657 43.6288 15.3131 68.067 15.3131C79.0268 15.3131 89.0348 19.3459 96.7787 25.9521C99.2509 19.4562 105.533 14.8193 112.894 14.8193C122.417 14.8188 130.166 22.546 130.166 32.0441V32.0441ZM126.285 32.0441C126.285 24.6831 120.278 18.6943 112.894 18.6943C105.522 18.6943 99.5244 24.6833 99.5244 32.0441C99.5244 39.4164 105.522 45.4149 112.894 45.4149C120.278 45.4149 126.285 39.4164 126.285 32.0441ZM116.04 27.5217L111.077 32.4766L109.769 31.1711C109.011 30.4141 107.783 30.4141 107.025 31.1711C106.267 31.9281 106.267 33.1542 107.025 33.911L109.705 36.5867C110.463 37.3435 111.691 37.3437 112.449 36.5867L118.784 30.2618C119.542 29.5058 119.542 28.2787 118.784 27.5219C118.026 26.7647 116.798 26.7647 116.04 27.5217V27.5217Z" fill="#35B350"/>
<path d="M2 24.5V10C2 5.58172 5.58172 2 10 2H24.5" stroke="#3F3F3F" stroke-width="2.5" stroke-linecap="round"/>
<path d="M152 129.5L152 144C152 148.418 148.418 152 144 152L129.5 152" stroke="#3F3F3F" stroke-width="2.5" stroke-linecap="round"/>
<path d="M129.5 2L144 2C148.418 2 152 5.58172 152 10L152 24.5" stroke="#3F3F3F" stroke-width="2.5" stroke-linecap="round"/>
<path d="M24.5 152L10 152C5.58172 152 2 148.418 2 144L2 129.5" stroke="#3F3F3F" stroke-width="2.5" stroke-linecap="round"/>
</svg>
