<svg width="14" height="14" viewBox="0 0 14 14" fill="none" xmlns="http://www.w3.org/2000/svg">
<circle cx="7" cy="7" r="7" fill="#184F69"/>
<path d="M5.16816 3.33V10H6.83816C7.34816 10 8.17816 9.91 8.70816 9.35C9.02816 9.01 9.14816 8.63 9.14816 8.15C9.14816 7.74 9.06816 7.28 8.70816 6.9C8.37816 6.56 7.96816 6.45 7.84816 6.42C7.99816 6.35 8.19816 6.22 8.34816 5.96C8.50816 5.7 8.54816 5.43 8.54816 5.17C8.54816 4.62 8.37816 4.19 8.01816 3.85C7.57816 3.44 7.03816 3.33 6.17816 3.33H5.16816ZM6.18816 4.29H6.53816C6.82816 4.29 7.11816 4.32 7.34816 4.54C7.55816 4.74 7.58816 4.98 7.58816 5.18C7.58816 5.41 7.55816 5.72 7.32816 5.94C7.08816 6.17 6.74816 6.2 6.49816 6.2H6.18816V4.29ZM6.18816 7.04H6.82816C7.18816 7.04 7.59816 7.07 7.87816 7.34C8.04816 7.51 8.14816 7.77 8.14816 8.04C8.14816 8.34 8.01816 8.62 7.81816 8.78C7.55816 8.99 7.09816 9.04 6.80816 9.04H6.18816V7.04Z" fill="white"/>
</svg>
