<svg width="32" height="32" viewBox="0 0 32 32" fill="none" xmlns="http://www.w3.org/2000/svg">
<path d="M16.0004 4.20898C22.5115 4.20898 27.7899 9.48748 27.7899 15.9985C27.7899 22.5096 22.5114 27.7879 16.0004 27.7879C9.48932 27.7879 4.21094 22.5094 4.21094 15.9985C4.21094 9.48737 9.48944 4.20898 16.0004 4.20898ZM15.9989 7.68395C15.7444 7.68395 15.7444 7.29721 15.9989 7.29721C20.8043 7.29721 24.6999 11.1929 24.6999 15.9982C24.6999 20.8036 20.8043 24.6993 15.9989 24.6993C11.1936 24.6993 7.29789 20.8036 7.29789 15.9982C7.29789 15.8912 7.38468 15.8049 7.49126 15.8049C7.59828 15.8049 7.68463 15.8917 7.68463 15.9982C7.68463 20.59 11.4072 24.3126 15.999 24.3126C20.5908 24.3126 24.3133 20.59 24.3133 15.9982C24.3133 11.4064 20.5907 7.68395 15.9989 7.68395ZM15.9989 4.8536C9.84401 4.8536 4.85423 9.84291 4.85423 15.9983C4.85423 22.1532 9.84355 27.143 15.9989 27.143C22.1538 27.143 27.1436 22.1537 27.1436 15.9983C27.1436 9.84337 22.1543 4.8536 15.9989 4.8536Z" fill="#3F3F3F"/>
<path d="M16 11.4592L17.4582 13.7059L17.4583 13.7061L17.5389 13.8301L17.5941 13.915L17.6928 13.9376L20.5295 14.5853L18.6451 16.6784L18.5729 16.7586L18.5817 16.8661L18.8075 19.6214L16.091 18.5598L16 18.5242L15.909 18.5598L13.1925 19.6214L13.4183 16.8661L13.4271 16.7586L13.3549 16.6784L11.4705 14.5853L14.3072 13.9376L14.406 13.915L14.4612 13.8299L16 11.4592Z" stroke="#00C802" stroke-width="0.5"/>
</svg>
