<svg width="32" height="32" viewBox="0 0 32 32" fill="none" xmlns="http://www.w3.org/2000/svg">
<path d="M16.0004 4.20969C22.5115 4.20969 27.7899 9.48818 27.7899 15.9992C27.7899 22.5103 22.5114 27.7886 16.0004 27.7886C9.48932 27.7886 4.21094 22.5101 4.21094 15.9992C4.21094 9.48807 9.48944 4.20969 16.0004 4.20969ZM15.9989 7.68465C15.7444 7.68465 15.7444 7.29791 15.9989 7.29791C20.8043 7.29791 24.6999 11.1936 24.6999 15.9989C24.6999 20.8043 20.8043 24.7 15.9989 24.7C11.1936 24.7 7.29789 20.8043 7.29789 15.9989C7.29789 15.8919 7.38468 15.8056 7.49126 15.8056C7.59828 15.8056 7.68463 15.8924 7.68463 15.9989C7.68463 20.5907 11.4072 24.3133 15.999 24.3133C20.5908 24.3133 24.3133 20.5907 24.3133 15.9989C24.3133 11.4071 20.5907 7.68465 15.9989 7.68465ZM15.9989 4.8543C9.84401 4.8543 4.85423 9.84362 4.85423 15.999C4.85423 22.1539 9.84355 27.1437 15.9989 27.1437C22.1538 27.1437 27.1436 22.1544 27.1436 15.999C27.1436 9.84408 22.1543 4.8543 15.9989 4.8543Z" fill="white"/>
<path d="M17.4582 13.7057L17.4583 13.7058L17.5389 13.8298L17.5941 13.9147L17.6928 13.9373L20.5295 14.585L18.6451 16.6781L18.5729 16.7583L18.5817 16.8658L18.8075 19.6212L16.091 18.5595L16 18.5239L15.909 18.5595L13.1925 19.6212L13.4183 16.8658L13.4271 16.7583L13.3549 16.6781L11.4705 14.585L14.3072 13.9373L14.406 13.9147L14.4612 13.8297L16 11.4589L17.4582 13.7057Z" stroke="#00C802" stroke-width="0.5"/>
</svg>
