<svg width="26" height="15" viewBox="0 0 26 15" fill="none" xmlns="http://www.w3.org/2000/svg">
<rect width="26" height="15" rx="2" fill="#F2F2F2"/>
<path d="M6.09004 4.33V11H7.76004C8.27004 11 9.10004 10.91 9.63004 10.35C9.95004 10.01 10.07 9.63 10.07 9.15C10.07 8.74 9.99004 8.28 9.63004 7.9C9.30004 7.56 8.89004 7.45 8.77004 7.42C8.92004 7.35 9.12004 7.22 9.27004 6.96C9.43004 6.7 9.47004 6.43 9.47004 6.17C9.47004 5.62 9.30004 5.19 8.94004 4.85C8.50004 4.44 7.96004 4.33 7.10004 4.33H6.09004ZM7.11004 5.29H7.46004C7.75004 5.29 8.04004 5.32 8.27004 5.54C8.48004 5.74 8.51004 5.98 8.51004 6.18C8.51004 6.41 8.48004 6.72 8.25004 6.94C8.01004 7.17 7.67004 7.2 7.42004 7.2H7.11004V5.29ZM7.11004 8.04H7.75004C8.11004 8.04 8.52004 8.07 8.80004 8.34C8.97004 8.51 9.07004 8.77 9.07004 9.04C9.07004 9.34 8.94004 9.62 8.74004 9.78C8.48004 9.99 8.02004 10.04 7.73004 10.04H7.11004V8.04ZM15.0537 5.33C14.9137 5.05 14.7237 4.82 14.5437 4.66C14.3337 4.48 13.9237 4.21 13.2037 4.21C11.9537 4.21 11.2537 5.07 11.2537 5.97C11.2537 6.97 12.0637 7.43 12.6137 7.66L13.2537 7.93C13.6937 8.11 14.2137 8.39 14.2137 9.07C14.2137 9.74 13.7337 10.19 13.1137 10.19C12.7137 10.19 12.4337 10.03 12.2437 9.79C12.0837 9.58 11.9637 9.27 11.9637 8.94L10.9537 9.16C10.9937 9.62 11.1537 10.06 11.5137 10.46C11.8537 10.84 12.3137 11.13 13.0837 11.13C14.3337 11.13 15.2337 10.26 15.2337 8.99C15.2337 8.23 14.8937 7.53 13.6637 7.03L12.9937 6.76C12.3437 6.5 12.2737 6.15 12.2737 5.95C12.2737 5.52 12.5937 5.15 13.2137 5.15C13.5037 5.15 13.7237 5.22 13.9337 5.39C14.0837 5.52 14.1737 5.66 14.2337 5.81L15.0537 5.33ZM20.19 4.33H16.51V11H20.19V10.04H17.53V7.94H20.11V6.98H17.53V5.29H20.19V4.33Z" fill="#797979"/>
</svg>
