<svg width="72" height="22" viewBox="0 0 72 22" fill="none" xmlns="http://www.w3.org/2000/svg">
<path d="M11 0.5H35.5V21.5H11C5.20101 21.5 0.5 16.799 0.5 11C0.5 5.20101 5.20101 0.5 11 0.5Z" fill="#00C802"/>
<path d="M11.0596 7.496V15.5H13.0636C13.6756 15.5 14.6716 15.392 15.3076 14.72C15.6916 14.312 15.8356 13.856 15.8356 13.28C15.8356 12.788 15.7396 12.236 15.3076 11.78C14.9116 11.372 14.4196 11.24 14.2756 11.204C14.4556 11.12 14.6956 10.964 14.8756 10.652C15.0676 10.34 15.1156 10.016 15.1156 9.704C15.1156 9.044 14.9116 8.528 14.4796 8.12C13.9516 7.628 13.3036 7.496 12.2716 7.496H11.0596ZM12.2836 8.648H12.7036C13.0516 8.648 13.3996 8.684 13.6756 8.948C13.9276 9.188 13.9636 9.476 13.9636 9.716C13.9636 9.992 13.9276 10.364 13.6516 10.628C13.3636 10.904 12.9556 10.94 12.6556 10.94H12.2836V8.648ZM12.2836 11.948H13.0516C13.4836 11.948 13.9756 11.984 14.3116 12.308C14.5156 12.512 14.6356 12.824 14.6356 13.148C14.6356 13.508 14.4796 13.844 14.2396 14.036C13.9276 14.288 13.3756 14.348 13.0276 14.348H12.2836V11.948ZM17.16 10.448V13.376C17.16 14.024 17.232 14.564 17.7 15.032C18.156 15.5 18.78 15.656 19.296 15.656C19.86 15.656 20.484 15.488 20.94 15.032C21.408 14.564 21.48 14.024 21.48 13.376V10.448H20.304V13.34C20.304 13.64 20.292 13.988 20.088 14.252C19.932 14.456 19.656 14.6 19.32 14.6C18.984 14.6 18.708 14.456 18.552 14.252C18.348 13.988 18.336 13.64 18.336 13.34V10.448H17.16ZM22.4833 18.248H23.8033L27.8233 10.448H26.5033L25.0393 13.4L23.5993 10.448H22.1833L24.3433 14.708L22.4833 18.248Z" fill="white"/>
<path d="M11 0.5H35.5V21.5H11C5.20101 21.5 0.5 16.799 0.5 11C0.5 5.20101 5.20101 0.5 11 0.5Z" stroke="#00C802"/>
<path d="M36.5 0.5H61C66.799 0.5 71.5 5.20101 71.5 11C71.5 16.799 66.799 21.5 61 21.5H36.5V0.5Z" fill="white"/>
<path d="M49.7516 8.696C49.5836 8.36 49.3556 8.084 49.1396 7.892C48.8876 7.676 48.3956 7.352 47.5316 7.352C46.0316 7.352 45.1916 8.384 45.1916 9.464C45.1916 10.664 46.1636 11.216 46.8236 11.492L47.5916 11.816C48.1196 12.032 48.7436 12.368 48.7436 13.184C48.7436 13.988 48.1676 14.528 47.4236 14.528C46.9436 14.528 46.6076 14.336 46.3796 14.048C46.1876 13.796 46.0436 13.424 46.0436 13.028L44.8316 13.292C44.8796 13.844 45.0716 14.372 45.5036 14.852C45.9116 15.308 46.4636 15.656 47.3876 15.656C48.8876 15.656 49.9676 14.612 49.9676 13.088C49.9676 12.176 49.5596 11.336 48.0836 10.736L47.2796 10.412C46.4996 10.1 46.4156 9.68 46.4156 9.44C46.4156 8.924 46.7996 8.48 47.5436 8.48C47.8916 8.48 48.1556 8.564 48.4076 8.768C48.5876 8.924 48.6956 9.092 48.7676 9.272L49.7516 8.696ZM54.8231 13.796C54.7151 13.988 54.5591 14.192 54.3551 14.348C54.1151 14.528 53.8751 14.6 53.5511 14.6C53.2631 14.6 52.9271 14.552 52.6511 14.276C52.3991 14.024 52.2431 13.616 52.2191 13.256H55.8431V13.112C55.8431 12.584 55.7831 11.648 55.1351 10.976C54.8351 10.664 54.3191 10.316 53.5151 10.316C52.7951 10.316 52.2431 10.58 51.8231 11C51.2951 11.54 51.0191 12.296 51.0191 13.076C51.0191 13.832 51.2831 14.528 51.7631 15.008C52.2431 15.488 52.7951 15.656 53.4671 15.656C54.0071 15.656 54.5471 15.536 54.9551 15.272C55.2791 15.068 55.5911 14.732 55.8071 14.348L54.8231 13.796ZM52.3031 12.296C52.3631 12.044 52.4951 11.804 52.6631 11.648C52.8191 11.492 53.0831 11.324 53.4911 11.324C53.8751 11.324 54.1271 11.468 54.2831 11.612C54.4631 11.78 54.5951 12.02 54.6431 12.296H52.3031ZM57.0721 6.752V15.5H58.2481V6.752H57.0721ZM59.7323 6.752V15.5H60.9083V6.752H59.7323Z" fill="#3F3F3F"/>
<path d="M36.5 0.5H61C66.799 0.5 71.5 5.20101 71.5 11C71.5 16.799 66.799 21.5 61 21.5H36.5V0.5Z" stroke="#E0E0E0"/>
</svg>
