<svg width="28" height="28" viewBox="0 0 28 28" fill="none" xmlns="http://www.w3.org/2000/svg">
<path d="M19.25 7H8.75V12.25H19.25V7Z" fill="#CCECD3" stroke="#3F3F3F" stroke-linecap="round" stroke-linejoin="round"/>
<path d="M22.75 23.625V4.375C22.75 3.89175 22.3582 3.5 21.875 3.5L6.125 3.5C5.64175 3.5 5.25 3.89175 5.25 4.375V23.625C5.25 24.1082 5.64175 24.5 6.125 24.5H21.875C22.3582 24.5 22.75 24.1082 22.75 23.625Z" stroke="#3F3F3F" stroke-linecap="round" stroke-linejoin="round"/>
<path d="M9.51001 16.875C10.0623 16.875 10.51 16.4273 10.51 15.875C10.51 15.3227 10.0623 14.875 9.51001 14.875C8.95773 14.875 8.51001 15.3227 8.51001 15.875C8.51001 16.4273 8.95773 16.875 9.51001 16.875Z" fill="#3F3F3F"/>
<path d="M13.885 16.875C14.4373 16.875 14.885 16.4273 14.885 15.875C14.885 15.3227 14.4373 14.875 13.885 14.875C13.3327 14.875 12.885 15.3227 12.885 15.875C12.885 16.4273 13.3327 16.875 13.885 16.875Z" fill="#3F3F3F"/>
<path d="M18.26 16.875C18.8123 16.875 19.26 16.4273 19.26 15.875C19.26 15.3227 18.8123 14.875 18.26 14.875C17.7077 14.875 17.26 15.3227 17.26 15.875C17.26 16.4273 17.7077 16.875 18.26 16.875Z" fill="#3F3F3F"/>
<path d="M9.51001 21.25C10.0623 21.25 10.51 20.8023 10.51 20.25C10.51 19.6977 10.0623 19.25 9.51001 19.25C8.95773 19.25 8.51001 19.6977 8.51001 20.25C8.51001 20.8023 8.95773 21.25 9.51001 21.25Z" fill="#3F3F3F"/>
<path d="M13.885 21.25C14.4373 21.25 14.885 20.8023 14.885 20.25C14.885 19.6977 14.4373 19.25 13.885 19.25C13.3327 19.25 12.885 19.6977 12.885 20.25C12.885 20.8023 13.3327 21.25 13.885 21.25Z" fill="#3F3F3F"/>
<path d="M18.26 21.25C18.8123 21.25 19.26 20.8023 19.26 20.25C19.26 19.6977 18.8123 19.25 18.26 19.25C17.7077 19.25 17.26 19.6977 17.26 20.25C17.26 20.8023 17.7077 21.25 18.26 21.25Z" fill="#3F3F3F"/>
</svg>
