<svg width="26" height="15" viewBox="0 0 26 15" fill="none" xmlns="http://www.w3.org/2000/svg">
<rect width="26" height="15" rx="2" fill="#F2F2F2"/>
<path d="M9.84352 4.69C9.26352 4.32 8.67352 4.21 8.06352 4.21C7.14352 4.21 6.34352 4.43 5.65352 5.08C5.09352 5.61 4.58352 6.46 4.58352 7.69C4.58352 8.63 4.87352 9.48 5.65352 10.21C6.04352 10.58 6.80352 11.13 8.01352 11.13C8.47352 11.13 9.17352 11.03 9.84352 10.63V9.42C9.46352 9.78 8.84352 10.19 8.04352 10.19C6.62352 10.19 5.60352 9.1 5.60352 7.69C5.60352 6.22 6.58352 5.15 8.03352 5.15C8.41352 5.15 9.10352 5.22 9.84352 5.89V4.69ZM11.1047 4.33V11H12.4847C13.4147 11 14.1447 10.91 14.9247 10.36C15.8047 9.74 16.2647 8.78 16.2647 7.67C16.2647 6.56 15.7947 5.59 14.9847 4.98C14.2447 4.43 13.4347 4.33 12.5047 4.33H11.1047ZM12.1247 5.29H12.5647C13.0547 5.29 13.7647 5.33 14.3447 5.75C14.8247 6.1 15.2447 6.79 15.2447 7.67C15.2447 8.58 14.7947 9.22 14.3347 9.57C13.7547 10 13.0647 10.04 12.5647 10.04H12.1247V5.29ZM21.2402 5.33C21.1002 5.05 20.9102 4.82 20.7302 4.66C20.5202 4.48 20.1102 4.21 19.3902 4.21C18.1402 4.21 17.4402 5.07 17.4402 5.97C17.4402 6.97 18.2502 7.43 18.8002 7.66L19.4402 7.93C19.8802 8.11 20.4002 8.39 20.4002 9.07C20.4002 9.74 19.9202 10.19 19.3002 10.19C18.9002 10.19 18.6202 10.03 18.4302 9.79C18.2702 9.58 18.1502 9.27 18.1502 8.94L17.1402 9.16C17.1802 9.62 17.3402 10.06 17.7002 10.46C18.0402 10.84 18.5002 11.13 19.2702 11.13C20.5202 11.13 21.4202 10.26 21.4202 8.99C21.4202 8.23 21.0802 7.53 19.8502 7.03L19.1802 6.76C18.5302 6.5 18.4602 6.15 18.4602 5.95C18.4602 5.52 18.7802 5.15 19.4002 5.15C19.6902 5.15 19.9102 5.22 20.1202 5.39C20.2702 5.52 20.3602 5.66 20.4202 5.81L21.2402 5.33Z" fill="#797979"/>
</svg>
