<svg width="28" height="28" viewBox="0 0 28 28" fill="none" xmlns="http://www.w3.org/2000/svg">
<path d="M13.625 18.75C14.8331 18.75 15.8125 17.7706 15.8125 16.5625C15.8125 15.3544 14.8331 14.375 13.625 14.375C12.4169 14.375 11.4375 15.3544 11.4375 16.5625C11.4375 17.7706 12.4169 18.75 13.625 18.75Z" fill="#00C802" stroke="white" stroke-linecap="round" stroke-linejoin="round"/>
<path d="M13.625 18.75V21.375" stroke="white" stroke-linecap="round" stroke-linejoin="round"/>
<path d="M22.375 10.875H4.875C4.39175 10.875 4 11.2668 4 11.75V24C4 24.4832 4.39175 24.875 4.875 24.875H22.375C22.8582 24.875 23.25 24.4832 23.25 24V11.75C23.25 11.2668 22.8582 10.875 22.375 10.875Z" stroke="white" stroke-linecap="round" stroke-linejoin="round"/>
<path d="M9.6875 10.875V6.9375C9.6875 5.89321 10.1023 4.89169 10.8408 4.15327C11.5792 3.41484 12.5807 3 13.625 3C14.6693 3 15.6708 3.41484 16.4092 4.15327C17.1477 4.89169 17.5625 5.89321 17.5625 6.9375V10.875" stroke="white" stroke-linecap="round" stroke-linejoin="round"/>
</svg>
