<svg width="14" height="12" viewBox="0 0 14 12" fill="none" xmlns="http://www.w3.org/2000/svg">
<path fill-rule="evenodd" clip-rule="evenodd" d="M11.0351 3.01848C11.2365 2.82956 11.2466 2.51314 11.0577 2.31174C10.8688 2.11033 10.5523 2.10022 10.3509 2.28914L7.12647 5.31376L3.90201 2.28914C3.70061 2.10022 3.38419 2.11033 3.19526 2.31174C3.00634 2.51314 3.01646 2.82956 3.21787 3.01848L6.39563 5.9993L3.21787 8.98012C3.01646 9.16905 3.00634 9.48547 3.19526 9.68687C3.38419 9.88827 3.70061 9.89839 3.90201 9.70947L7.12647 6.68485L10.3509 9.70947C10.5523 9.89839 10.8688 9.88827 11.0577 9.68687C11.2466 9.48547 11.2365 9.16905 11.0351 8.98012L7.85731 5.9993L11.0351 3.01848Z" fill="white"/>
</svg>
