<svg width="26" height="26" viewBox="0 0 26 26" fill="none" xmlns="http://www.w3.org/2000/svg">
<path fill-rule="evenodd" clip-rule="evenodd" d="M6.28033 5.21955C5.98744 4.92665 5.51256 4.92665 5.21967 5.21955C4.92678 5.51244 4.92678 5.98731 5.21967 6.28021L11.9379 12.9985L5.21967 19.7167C4.92678 20.0096 4.92678 20.4845 5.21967 20.7774C5.51256 21.0702 5.98744 21.0702 6.28033 20.7774L12.9986 14.0591L19.7168 20.7774C20.0097 21.0702 20.4846 21.0702 20.7775 20.7774C21.0704 20.4845 21.0704 20.0096 20.7775 19.7167L14.0592 12.9984L20.7775 6.28021C21.0704 5.98731 21.0704 5.51244 20.7775 5.21955C20.4846 4.92665 20.0097 4.92665 19.7168 5.21955L12.9986 11.9378L6.28033 5.21955Z" fill="#3F3F3F"/>
</svg>
