<svg width="30" height="30" viewBox="0 0 30 30" fill="none" xmlns="http://www.w3.org/2000/svg">
<path fill-rule="evenodd" clip-rule="evenodd" d="M7.10484 10.9643C7.36122 10.8618 7.48588 10.5707 7.38329 10.3144C7.28069 10.058 6.98969 9.93333 6.73331 10.0359C5.2141 10.6439 4 11.7139 4 13.1025C4 13.228 4.01002 13.351 4.02933 13.4713C4.01035 13.5241 4 13.581 4 13.6404V16.8659C4 16.9914 4.01001 17.1143 4.02932 17.2345C4.01034 17.2873 4 17.3442 4 17.4036V20.629C4 20.7545 4.01001 20.8774 4.02932 20.9976C4.01034 21.0504 4 21.1074 4 21.1667V24.3922C4 25.5513 4.85475 26.4909 5.99257 27.1116C7.14934 27.7427 8.71327 28.1177 10.4134 28.1177C12.1135 28.1177 13.6774 27.7427 14.8342 27.1116C15.972 26.4909 16.8268 25.5513 16.8268 24.3922V21.1667C16.8268 21.1074 16.8164 21.0504 16.7975 20.9976C16.8168 20.8774 16.8268 20.7545 16.8268 20.629V17.4036C16.8268 17.3442 16.8164 17.2873 16.7975 17.2345C16.8168 17.1143 16.8268 16.9914 16.8268 16.8659V13.6404C16.8268 13.581 16.8164 13.5241 16.7974 13.4713C16.8168 13.351 16.8268 13.228 16.8268 13.1025C16.8268 11.7139 15.6127 10.6439 14.0935 10.0359C13.8371 9.93333 13.5461 10.058 13.4435 10.3144C13.3409 10.5707 13.4656 10.8618 13.7219 10.9643C15.1364 11.5303 15.8268 12.3544 15.8268 13.1025C15.8268 13.7245 15.3577 14.3976 14.3554 14.9443C13.3719 15.4807 11.9792 15.828 10.4134 15.828C8.84763 15.828 7.45486 15.4807 6.47142 14.9443C5.46907 14.3976 5 13.7245 5 13.1025C5 12.3544 5.69043 11.5303 7.10484 10.9643ZM15.8268 22.6525C15.5381 22.9154 15.2008 23.1485 14.8342 23.3485C13.6774 23.9795 12.1135 24.3545 10.4134 24.3545C8.71327 24.3545 7.14934 23.9795 5.99257 23.3485C5.62595 23.1485 5.28872 22.9154 5 22.6525V24.3922C5 25.0138 5.46904 25.6869 6.47147 26.2338C7.45494 26.7703 8.8477 27.1177 10.4134 27.1177C11.9791 27.1177 13.3718 26.7703 14.3553 26.2338C15.3577 25.6869 15.8268 25.0138 15.8268 24.3922V22.6525ZM5 20.629V18.8893C5.28872 19.1522 5.62595 19.3853 5.99257 19.5853C7.14934 20.2164 8.71327 20.5914 10.4134 20.5914C12.1135 20.5914 13.6774 20.2164 14.8342 19.5853C15.2008 19.3853 15.5381 19.1522 15.8268 18.8893V20.629C15.8268 21.2506 15.3577 21.9238 14.3553 22.4706C13.3718 23.0071 11.9791 23.3545 10.4134 23.3545C8.8477 23.3545 7.45494 23.0071 6.47147 22.4706C5.46904 21.9238 5 21.2506 5 20.629ZM15.8268 15.1263C15.5381 15.3892 15.2008 15.6222 14.8342 15.8222C13.6774 16.4532 12.1135 16.828 10.4134 16.828C8.71328 16.828 7.14935 16.4532 5.99257 15.8222C5.62594 15.6222 5.28871 15.3892 5 15.1263V16.8659C5 17.4875 5.46904 18.1606 6.47147 18.7075C7.45494 19.244 8.8477 19.5914 10.4134 19.5914C11.9791 19.5914 13.3718 19.244 14.3553 18.7075C15.3577 18.1606 15.8268 17.4875 15.8268 16.8659V15.1263Z" fill="#3F3F3F"/>
<path d="M16 25.5C16 25.5 16.2982 26.1284 16.5749 26.4051C17.5832 27.4135 18.9509 27.98 20.3769 27.98C21.803 27.98 23.1706 27.4135 24.179 26.4051C25.1874 25.3968 25.7539 24.0291 25.7539 22.6031C25.7539 17.7638 20.3769 14 20.3769 14C20.3769 14 17.9382 15.7071 16.3455 18.3002" stroke="#3F3F3F" stroke-linecap="round" stroke-linejoin="round"/>
<path d="M20.9214 25.7754C21.5785 25.664 22.1849 25.3514 22.6569 24.8807C23.1288 24.4099 23.443 23.8044 23.556 23.1475" stroke="#3F3F3F" stroke-linecap="round" stroke-linejoin="round"/>
<circle cx="10.4134" cy="6.83823" r="4.83823" fill="#CCECD3" stroke="#3F3F3F" stroke-linecap="round" stroke-linejoin="round"/>
<path d="M8.65399 5.8501H12.1727" stroke="#3F3F3F" stroke-linecap="round" stroke-linejoin="round"/>
<path d="M8.65399 4.50098H12.1727" stroke="#3F3F3F" stroke-linecap="round" stroke-linejoin="round"/>
<path d="M9.64363 4.50098C10.0228 4.50098 10.3863 4.65813 10.6544 4.93786C10.9225 5.2176 11.0731 5.597 11.0731 5.9926C11.0731 6.38821 10.9225 6.76761 10.6544 7.04734C10.3863 7.32708 10.0228 7.48423 9.64363 7.48423H8.65399L11.0731 9.77904" stroke="#3F3F3F" stroke-linecap="round" stroke-linejoin="round"/>
</svg>
