<svg width="20" height="16" viewBox="0 0 20 16" fill="none" xmlns="http://www.w3.org/2000/svg">
<path d="M16.2562 14.875H3.74372C3.57455 14.8742 3.41146 14.8118 3.28494 14.6995C3.15841 14.5872 3.0771 14.4327 3.05622 14.2648L1.14841 6.01484C1.13756 5.919 1.14699 5.82195 1.1761 5.72999C1.20521 5.63803 1.25335 5.55323 1.31738 5.4811C1.38141 5.40896 1.4599 5.3511 1.54776 5.31129C1.63561 5.27148 1.73086 5.25059 1.82732 5.25H18.1726C18.2691 5.25059 18.3643 5.27148 18.4522 5.31129C18.54 5.3511 18.6185 5.40896 18.6826 5.4811C18.7466 5.55323 18.7947 5.63803 18.8238 5.72999C18.853 5.82195 18.8624 5.919 18.8515 6.01484L16.9437 14.2648C16.9228 14.4327 16.8415 14.5872 16.715 14.6995C16.5885 14.8118 16.4254 14.8742 16.2562 14.875Z" stroke="white" stroke-width="1.5" stroke-linecap="round" stroke-linejoin="round"/>
<path d="M10 12.125L10 8" stroke="white" stroke-width="1.5" stroke-linecap="round" stroke-linejoin="round"/>
<path d="M13.8265 12.0623L14.5428 8" stroke="white" stroke-width="1.5" stroke-linecap="round" stroke-linejoin="round"/>
<path d="M4.97027 5.00123L6.3811 1.125" stroke="white" stroke-width="1.5" stroke-linecap="round" stroke-linejoin="round"/>
<path d="M6.17345 12.0623L5.45715 8" stroke="white" stroke-width="1.5" stroke-linecap="round" stroke-linejoin="round"/>
<path d="M14.8483 5.00123L13.4375 1.125" stroke="white" stroke-width="1.5" stroke-linecap="round" stroke-linejoin="round"/>
</svg>
