<svg width="14" height="14" viewBox="0 0 14 14" fill="none" xmlns="http://www.w3.org/2000/svg">
<circle cx="7" cy="7" r="7" fill="#184F69"/>
<path d="M6.06262 5.98C5.61262 5.73 5.23262 5.68 4.91262 5.68C4.08262 5.68 3.55262 5.97 3.22262 6.3C2.91262 6.61 2.58262 7.14 2.58262 7.93C2.58262 8.7 2.88262 9.2 3.18262 9.51C3.58262 9.93 4.08262 10.13 4.78262 10.13C5.43262 10.13 5.82262 9.95 6.06262 9.8V8.71C5.72262 9.09 5.25262 9.25 4.85262 9.25C4.49262 9.25 4.18262 9.12 3.96262 8.91C3.77262 8.72 3.58262 8.39 3.58262 7.9C3.58262 7.43 3.76262 7.11 3.94262 6.93C4.12262 6.75 4.41262 6.56 4.87262 6.56C5.17262 6.56 5.61262 6.64 6.06262 7.08V5.98ZM7.18184 3.33V10H8.56184C9.49184 10 10.2218 9.91 11.0018 9.36C11.8818 8.74 12.3418 7.78 12.3418 6.67C12.3418 5.56 11.8718 4.59 11.0618 3.98C10.3218 3.43 9.51184 3.33 8.58184 3.33H7.18184ZM8.20184 4.29H8.64184C9.13184 4.29 9.84184 4.33 10.4218 4.75C10.9018 5.1 11.3218 5.79 11.3218 6.67C11.3218 7.58 10.8718 8.22 10.4118 8.57C9.83184 9 9.14184 9.04 8.64184 9.04H8.20184V4.29Z" fill="white"/>
</svg>
