<svg width="26" height="26" viewBox="0 0 26 26" fill="none" xmlns="http://www.w3.org/2000/svg">
<circle cx="19.6666" cy="20" r="5" stroke="white" stroke-linecap="round" stroke-linejoin="round"/>
<path d="M17.8485 18.9788H21.4849" stroke="white" stroke-linecap="round" stroke-linejoin="round"/>
<path d="M17.8484 17.5847H21.4848" stroke="white" stroke-linecap="round" stroke-linejoin="round"/>
<path d="M18.8711 17.5847C19.2629 17.5847 19.6387 17.7472 19.9157 18.0362C20.1927 18.3253 20.3484 18.7174 20.3484 19.1262C20.3484 19.5351 20.1927 19.9272 19.9157 20.2163C19.6387 20.5053 19.2629 20.6678 18.8711 20.6678H17.8484L20.3484 23.0393" stroke="white" stroke-linecap="round" stroke-linejoin="round"/>
<circle cx="5.66663" cy="6" r="5" stroke="white" stroke-linecap="round" stroke-linejoin="round"/>
<path d="M3.84851 4.97882H7.48487" stroke="white" stroke-linecap="round" stroke-linejoin="round"/>
<path d="M3.84839 3.58475H7.48475" stroke="white" stroke-linecap="round" stroke-linejoin="round"/>
<path d="M4.87112 3.58475C5.26291 3.58475 5.63866 3.74716 5.91571 4.03624C6.19275 4.32533 6.34839 4.71742 6.34839 5.12625C6.34839 5.53508 6.19275 5.92717 5.91571 6.21626C5.63866 6.50534 5.26291 6.66775 4.87112 6.66775H3.84839L6.34839 9.03929" stroke="white" stroke-linecap="round" stroke-linejoin="round"/>
<circle cx="19.6666" cy="6" r="5" fill="#00C802" stroke="white" stroke-linecap="round" stroke-linejoin="round"/>
<path d="M17.8485 4.97882H21.4849" stroke="white" stroke-linecap="round" stroke-linejoin="round"/>
<path d="M17.8484 3.58475H21.4848" stroke="white" stroke-linecap="round" stroke-linejoin="round"/>
<path d="M18.8711 3.58475C19.2629 3.58475 19.6387 3.74716 19.9157 4.03624C20.1927 4.32533 20.3484 4.71742 20.3484 5.12625C20.3484 5.53508 20.1927 5.92717 19.9157 6.21626C19.6387 6.50534 19.2629 6.66775 18.8711 6.66775H17.8484L20.3484 9.03929" stroke="white" stroke-linecap="round" stroke-linejoin="round"/>
<circle cx="5.66663" cy="20" r="5" fill="#00C802" stroke="white" stroke-linecap="round" stroke-linejoin="round"/>
<path d="M3.84851 18.9788H7.48487" stroke="white" stroke-linecap="round" stroke-linejoin="round"/>
<path d="M3.84839 17.5847H7.48475" stroke="white" stroke-linecap="round" stroke-linejoin="round"/>
<path d="M4.87112 17.5847C5.26291 17.5847 5.63866 17.7472 5.91571 18.0362C6.19275 18.3253 6.34839 18.7174 6.34839 19.1262C6.34839 19.5351 6.19275 19.9272 5.91571 20.2163C5.63866 20.5053 5.26291 20.6678 4.87112 20.6678H3.84839L6.34839 23.0393" stroke="white" stroke-linecap="round" stroke-linejoin="round"/>
</svg>
