<svg width="28" height="28" viewBox="0 0 28 28" fill="none" xmlns="http://www.w3.org/2000/svg">
<path fill-rule="evenodd" clip-rule="evenodd" d="M14 3.5C8.20101 3.5 3.5 8.20101 3.5 14C3.5 19.799 8.20101 24.5 14 24.5C19.799 24.5 24.5 19.799 24.5 14C24.5 8.20101 19.799 3.5 14 3.5ZM2.5 14C2.5 7.64873 7.64873 2.5 14 2.5C20.3513 2.5 25.5 7.64873 25.5 14C25.5 20.3513 20.3513 25.5 14 25.5C7.64873 25.5 2.5 20.3513 2.5 14ZM18.4243 9.57574C18.6586 9.81005 18.6586 10.1899 18.4243 10.4243L14.8485 14L18.4243 17.5757C18.6586 17.8101 18.6586 18.1899 18.4243 18.4243C18.1899 18.6586 17.8101 18.6586 17.5757 18.4243L14 14.8485L10.4243 18.4243C10.1899 18.6586 9.81005 18.6586 9.57574 18.4243C9.34142 18.1899 9.34142 17.8101 9.57574 17.5757L13.1515 14L9.57574 10.4243C9.34142 10.1899 9.34142 9.81005 9.57574 9.57574C9.81005 9.34142 10.1899 9.34142 10.4243 9.57574L14 13.1515L17.5757 9.57574C17.8101 9.34142 18.1899 9.34142 18.4243 9.57574Z" fill="#3F3F3F"/>
</svg>
