<svg width="32" height="32" viewBox="0 0 32 32" fill="none" xmlns="http://www.w3.org/2000/svg">
<path d="M27.4927 17.8905H17.9515C17.8302 17.8905 17.7171 17.9632 17.6726 18.0763C17.6241 18.1895 17.6523 18.3188 17.7374 18.4077L24.4865 25.1568C24.5431 25.2134 24.6199 25.2458 24.7007 25.2458H24.7168C24.8017 25.2417 24.8826 25.2013 24.9351 25.1368C26.5597 23.1566 27.5499 20.768 27.7964 18.2261C27.8044 18.1413 27.7761 18.0565 27.7196 17.9917C27.6589 17.927 27.5782 17.8907 27.4931 17.8907L27.4927 17.8905ZM24.6719 24.4858L18.6825 18.4963H27.153C26.8823 20.6826 26.0294 22.7397 24.6716 24.4858H24.6719Z" fill="white"/>
<path d="M16.2375 16.0724H27.4924C27.5772 16.0724 27.6582 16.0361 27.7147 15.9714C27.7713 15.9066 27.7996 15.8218 27.7916 15.737C27.2094 9.64273 22.3599 4.79306 16.2656 4.21102C16.1808 4.20302 16.096 4.2313 16.0312 4.28786C15.9665 4.34442 15.9302 4.42535 15.9302 4.5141V15.769C15.9343 15.9346 16.0677 16.0721 16.2374 16.0721L16.2375 16.0724ZM16.5406 4.84988C22.0813 5.53289 26.4699 9.92579 27.153 15.4666H16.5406V4.84988Z" fill="white"/>
<path d="M14.395 17.6405C14.3909 17.6364 14.3829 17.6243 14.3747 17.6202C14.3585 17.5999 14.3423 17.5839 14.314 17.5475C14.1806 17.3817 14.1079 17.1837 14.1079 16.9817L14.1081 6.54312C14.1081 6.45829 14.0718 6.37344 14.0071 6.31688C13.9423 6.26032 13.8575 6.23204 13.7726 6.24004C8.32473 6.87057 4.21094 11.4855 4.21094 16.9782C4.21094 22.9391 9.06061 27.7887 15.0215 27.7887C17.4826 27.7887 19.8026 26.9805 21.7301 25.4528C21.7988 25.4004 21.8392 25.3194 21.8433 25.2346C21.8474 25.1497 21.815 25.0649 21.7543 25.0043L14.395 17.6405ZM15.0214 27.1822C9.39584 27.1822 4.81719 22.6034 4.81719 16.978C4.81719 11.9063 8.52712 7.62633 13.5063 6.88663V16.978C13.5063 17.3214 13.6235 17.6489 13.8297 17.9034C13.862 17.9479 13.8983 17.9964 13.9469 18.0448L13.951 18.0489L21.084 25.182C19.3217 26.4953 17.2323 27.1824 15.0217 27.1824L15.0214 27.1822Z" fill="#00C802"/>
<path d="M8.52321 23.0476C8.406 23.1648 8.406 23.3588 8.52321 23.4759C10.2609 25.2136 12.5686 26.1714 15.0218 26.1714C15.1876 26.1714 15.3249 26.0339 15.3249 25.8683C15.3249 25.7026 15.1874 25.5653 15.0218 25.5653C12.7304 25.5653 10.5764 24.6722 8.95188 23.0476C8.83467 22.9304 8.64471 22.9304 8.5234 23.0476L8.52321 23.0476Z" fill="#00C802"/>
</svg>
