<svg width="32" height="32" viewBox="0 0 32 32" fill="none" xmlns="http://www.w3.org/2000/svg">
<path d="M27.4932 17.8906H17.952C17.8307 17.8906 17.7176 17.9634 17.6731 18.0765C17.6245 18.1896 17.6528 18.3189 17.7379 18.4079L24.487 25.157C24.5436 25.2136 24.6204 25.2459 24.7012 25.2459H24.7173C24.8022 25.2418 24.8831 25.2015 24.9356 25.1369C26.5602 23.1567 27.5504 20.7682 27.7969 18.2263C27.8049 18.1415 27.7766 18.0566 27.7201 17.9919C27.6594 17.9271 27.5786 17.8908 27.4936 17.8908L27.4932 17.8906ZM24.6724 24.4859L18.683 18.4965H27.1535C26.8828 20.6828 26.0299 22.7398 24.6721 24.4859H24.6724Z" fill="#3F3F3F"/>
<path d="M16.238 16.0717H27.4929C27.5777 16.0717 27.6587 16.0354 27.7152 15.9707C27.7718 15.9059 27.8001 15.8211 27.7921 15.7363C27.2099 9.64203 22.3604 4.79236 16.2661 4.21032C16.1813 4.20232 16.0964 4.2306 16.0317 4.28716C15.9669 4.34372 15.9307 4.42465 15.9307 4.5134V15.7683C15.9348 15.9339 16.0682 16.0714 16.2378 16.0714L16.238 16.0717ZM16.541 4.84918C22.0818 5.53219 26.4704 9.92509 27.1534 15.4659H16.541V4.84918Z" fill="#3F3F3F"/>
<path d="M14.395 17.6401C14.3909 17.636 14.3829 17.6239 14.3747 17.6198C14.3585 17.5995 14.3423 17.5835 14.314 17.547C14.1806 17.3813 14.1079 17.1833 14.1079 16.9813L14.1081 6.5427C14.1081 6.45786 14.0718 6.37302 14.0071 6.31646C13.9423 6.2599 13.8575 6.23162 13.7726 6.23961C8.32473 6.87014 4.21094 11.4851 4.21094 16.9778C4.21094 22.9386 9.06061 27.7883 15.0215 27.7883C17.4826 27.7883 19.8026 26.9801 21.7301 25.4524C21.7988 25.3999 21.8392 25.319 21.8433 25.2342C21.8474 25.1493 21.815 25.0645 21.7543 25.0038L14.395 17.6401ZM15.0214 27.1818C9.39584 27.1818 4.81719 22.603 4.81719 16.9775C4.81719 11.9059 8.52712 7.6259 13.5063 6.88621V16.9775C13.5063 17.321 13.6235 17.6485 13.8297 17.903C13.862 17.9475 13.8983 17.996 13.9469 18.0444L13.951 18.0485L21.084 25.1815C19.3217 26.4949 17.2323 27.182 15.0217 27.182L15.0214 27.1818Z" fill="#00C802"/>
<path d="M8.52346 23.0469C8.40624 23.1641 8.40624 23.3581 8.52346 23.4752C10.2612 25.2129 12.5689 26.1707 15.0221 26.1707C15.1878 26.1707 15.3252 26.0332 15.3252 25.8676C15.3252 25.7019 15.1877 25.5646 15.0221 25.5646C12.7306 25.5646 10.5767 24.6715 8.95212 23.0469C8.83491 22.9297 8.64495 22.9297 8.52364 23.0469L8.52346 23.0469Z" fill="#00C802"/>
</svg>
