<svg width="18" height="18" viewBox="0 0 18 18" fill="none" xmlns="http://www.w3.org/2000/svg">
<path d="M15.0485 2.95098C14.5819 2.48434 13.9685 2.25 13.3552 2.25C12.7418 2.25 12.1305 2.48434 11.6619 2.95098L3.27673 11.3363C2.93236 11.6806 2.70821 12.1269 2.64097 12.6098L2.2538 15.316C2.2212 15.5483 2.40256 15.75 2.62874 15.75C2.64708 15.75 2.66542 15.748 2.68376 15.7459L5.38983 15.3588C5.87276 15.2895 6.31902 15.0674 6.66339 14.723L15.0485 6.3377C15.9838 5.40238 15.9838 3.8863 15.0485 2.95098ZM4.29558 11.5482L11.3929 4.45075L13.5467 6.60668L6.45147 13.7041L4.29558 11.5482ZM5.26756 14.4968L3.20745 14.7902L3.50088 12.7301C3.5294 12.5365 3.59869 12.349 3.70261 12.186L5.80959 14.293C5.64657 14.399 5.46114 14.4703 5.26756 14.4968ZM14.4331 5.72026L14.1621 5.99128L12.0083 3.83536L12.2793 3.56434C12.5666 3.27702 12.9497 3.11808 13.3572 3.11808C13.7648 3.11808 14.1479 3.27702 14.4352 3.56434C15.0281 4.15936 15.0281 5.12728 14.4331 5.72026Z" fill="#3F3F3F"/>
</svg>
