<svg width="354" height="253" viewBox="0 0 354 253" fill="none" xmlns="http://www.w3.org/2000/svg">
<path d="M6.99404 134.495L162.257 46.5585C166.047 44.4126 170.337 43.2951 174.698 43.3176C179.058 43.3402 183.336 44.5021 187.104 46.6871L347.117 139.411C349.217 140.625 350.958 142.369 352.167 144.465C353.375 146.561 354.007 148.937 354 151.354C353.993 153.771 353.347 156.143 352.126 158.233C350.906 160.322 349.155 162.055 347.048 163.257L197.718 248.583C192.659 251.477 186.926 253 181.091 253C175.256 253 169.522 251.477 164.463 248.583L6.94435 158.401C4.82969 157.192 3.07364 155.449 1.85413 153.347C0.634622 151.246 -0.00501513 148.861 2.96109e-05 146.434C0.00507435 144.007 0.654622 141.625 1.88286 139.528C3.11109 137.432 4.87437 135.695 6.99404 134.495V134.495Z" fill="#BEEECB"/>
<path d="M190.205 175.591L178.189 170.309V78.9896L193.971 73.3816" fill="#3E6D48"/>
<path d="M197.728 61.5129V168.994L190.205 175.591V72.0662" fill="#7EB78A"/>
<path d="M126.418 83.8657V44.0958C126.418 44.0958 125.364 37.0339 137.986 30.7534C150.609 24.4729 192.411 0.142124 192.411 0.142124C192.411 0.142124 212.915 -3.51738 223.957 26.3026C225.891 31.3209 227.128 36.5785 227.634 41.9297V73.1344L166.898 106.624L126.418 83.8657Z" fill="#00C802"/>
<path d="M128.763 80.9677V43.5715C128.763 43.5715 130.075 33.1073 140.859 36.7668C151.642 40.4263 162.943 54.817 165.308 68.1594V101.906L130.075 81.5018" fill="#9EE6B1"/>
<path d="M128.197 84.5382L104.533 113.053C104.533 113.053 93.7492 129.54 111.371 138.956C128.992 148.372 145.55 128.749 145.55 128.749L165.795 105.694L128.197 84.5382Z" fill="#3E6D48"/>
<path d="M126.129 83.8657L102.465 112.38C102.465 112.38 91.6818 128.868 109.303 138.284C126.925 147.699 143.482 128.076 143.482 128.076L163.698 105.061L126.129 83.8657Z" fill="#7EB78A"/>
<path d="M162.128 58.4172C157.298 49.5849 148.263 39.1405 140.859 36.658C130.075 32.9589 128.763 43.3836 128.763 43.3836V80.9677C145.908 69.2474 143.88 71.2552 162.128 58.4172Z" fill="#84BA92"/>
<path d="M213.107 71.2889C217.236 62.9612 215.168 53.5516 208.488 50.272C201.808 46.9923 193.046 51.0846 188.917 59.4124C184.789 67.7401 186.857 77.1497 193.537 80.4293C200.217 83.7089 208.979 79.6166 213.107 71.2889Z" fill="white"/>
<path d="M206.246 56.1424C206.974 56.7118 207.552 57.4484 207.931 58.289C208.31 59.1297 208.479 60.0493 208.422 60.969C208.468 62.7073 208.071 64.4288 207.269 65.9736C206.685 67.331 205.626 68.4311 204.288 69.0694C203.995 69.2469 203.645 69.3069 203.309 69.2371C202.973 69.1673 202.676 68.973 202.479 68.6935C202.1 69.5582 201.423 70.2597 200.571 70.6716C200.209 70.8511 199.797 70.9067 199.4 70.8298C199.003 70.7529 198.642 70.5478 198.374 70.2464C197.695 69.3521 197.38 68.2363 197.49 67.1209C197.438 65.7249 197.757 64.34 198.414 63.1054C198.912 62.051 199.762 61.2014 200.819 60.702C201.083 60.5772 201.373 60.5191 201.664 60.5329C201.955 60.5467 202.239 60.632 202.489 60.7811L202.608 60.158L204.596 59.347L204.159 65.3604C204.159 65.7659 204.159 66.122 204.159 66.4187C204.159 66.7154 204.308 66.9033 204.586 66.7847C205.255 66.3804 205.759 65.7531 206.007 65.0143C206.461 64.0013 206.675 62.8982 206.633 61.7899C206.684 61.0966 206.561 60.4017 206.277 59.7667C205.993 59.1318 205.555 58.5765 205.003 58.1502C204.442 57.7984 203.798 57.5996 203.135 57.5736C202.472 57.5475 201.814 57.6952 201.227 58.0018C199.519 58.771 198.119 60.0872 197.251 61.7405C196.199 63.5032 195.668 65.5261 195.721 67.5759C195.686 68.3694 195.816 69.1616 196.101 69.9033C196.387 70.6451 196.822 71.3206 197.38 71.8882C198.441 72.8772 199.905 72.9827 201.773 72.2047C203.473 71.4218 204.985 70.2852 206.206 68.8716L206.941 70.7013C205.525 72.2923 203.783 73.5636 201.833 74.4301C199.395 75.4389 197.433 75.3235 195.949 74.0839C194.465 72.8443 193.653 70.9618 193.514 68.4364C193.461 65.7607 194.193 63.1277 195.621 60.8602C196.846 58.672 198.75 56.9372 201.048 55.9149C203.095 55.0709 204.828 55.1468 206.246 56.1424ZM201.912 66.755C202.242 66.0669 202.406 65.3116 202.39 64.5494C202.409 64.3196 202.379 64.0882 202.3 63.8713C202.221 63.6544 202.095 63.4572 201.932 63.2933C201.801 63.1711 201.636 63.0915 201.459 63.065C201.281 63.0385 201.1 63.0664 200.938 63.1449C200.473 63.3924 200.118 63.8056 199.945 64.3021C199.665 64.9509 199.536 65.6541 199.567 66.3594C199.551 66.8693 199.671 67.3744 199.915 67.8232C199.946 67.8971 199.992 67.9639 200.05 68.0197C200.108 68.0755 200.176 68.119 200.251 68.1477C200.327 68.1763 200.407 68.1895 200.487 68.1864C200.568 68.1834 200.647 68.1641 200.72 68.1298C201.285 67.8391 201.721 67.3488 201.942 66.755" fill="#035314"/>
<path d="M217.765 35.5303C218.34 35.2464 218.575 34.5521 218.29 33.9795C218.005 33.4069 217.307 33.1729 216.732 33.4567L175.602 53.7482C175.026 54.0321 174.791 54.7264 175.076 55.299C175.362 55.8716 176.059 56.1056 176.635 55.8218L217.765 35.5303Z" fill="#035314"/>
<path d="M218.818 35.0063C218.818 35.0063 227.316 48.4674 227.634 49.5059C227.952 50.5444 204.576 42.0385 204.576 42.0385" fill="#035314"/>
<path d="M155.747 47.7058C151.772 50.673 146.454 49.3377 141.922 48.6948C140.033 48.5257 138.168 48.1576 136.357 47.597C138.104 47.0975 139.745 46.2829 141.197 45.1936C143.673 46.4913 146.451 47.1092 149.247 46.9838C151.096 47.4544 153.034 47.4544 154.882 46.9838C155.014 46.9484 155.126 46.8623 155.194 46.7445C155.262 46.6267 155.281 46.4869 155.245 46.3557C155.21 46.2246 155.123 46.1128 155.005 46.0451C154.886 45.9774 154.746 45.9593 154.614 45.9947C153.534 46.2711 152.416 46.3713 151.304 46.2914C151.285 46.1594 151.215 46.0399 151.11 45.9572C151.005 45.8745 150.872 45.8348 150.738 45.8464C150.661 45.7976 150.571 45.7734 150.479 45.7771C148.232 45.8572 146.004 45.3454 144.019 44.2935C145.59 43.9937 147.046 43.2642 148.223 42.1869C148.691 41.7517 147.985 41.0593 147.518 41.4846C146.317 42.5901 144.791 43.2834 143.165 43.4627C144.293 42.2346 145.213 40.8315 145.888 39.3087C146.146 38.735 145.291 38.2306 145.033 38.8142C144.325 40.4044 143.335 41.855 142.111 43.0968C140.083 41.4882 138.598 39.2998 137.857 36.8262C137.668 36.2229 136.714 36.48 136.863 37.0932C137.644 39.6132 139.138 41.8556 141.167 43.5517H140.243C137.441 41.7505 134.877 39.6074 132.61 37.1723C132.162 36.7174 131.457 37.4196 131.904 37.8746C133.865 39.9418 136.018 41.8195 138.334 43.4825C135.174 43.2451 132.073 42.2363 130.711 39.1109C130.453 38.5273 129.598 39.0318 129.857 39.6054C131.308 42.9385 134.707 44.1946 138.146 44.4518C138.782 44.4518 139.418 44.5309 140.044 44.5507L140.243 44.6694C138.661 45.792 136.859 46.5704 134.955 46.9541C132.967 45.8958 131.079 44.5903 129.171 43.4133C128.624 43.077 128.127 43.9375 128.674 44.2639C130.175 45.1837 131.656 46.242 133.246 47.1816C131.852 47.2909 130.45 47.201 129.081 46.9145C128.455 46.786 128.187 47.7355 128.813 47.9036C130.756 48.3134 132.76 48.3504 134.717 48.0124C135.154 48.23 135.601 48.4377 136.058 48.6157C138.354 49.496 141.028 49.6048 143.443 49.9312C147.776 50.5444 152.497 51.3356 156.264 48.5959C156.791 48.1904 156.294 47.3398 155.747 47.7058Z" fill="white"/>
<path d="M166.531 89.7901C163.838 90.4041 161.114 90.8729 158.371 91.1945C159.292 89.8296 160.18 88.4483 161.034 87.0504C162.801 86.1388 164.467 85.0448 166.004 83.7865C166.501 83.381 165.795 82.6887 165.298 83.0843C164.251 83.934 163.142 84.7044 161.979 85.3888C163.562 82.6722 165.026 79.8896 166.372 77.0412C166.64 76.4675 165.785 75.9631 165.517 76.5466C163.947 79.8924 162.202 83.1541 160.289 86.3185C155.148 88.8818 149.317 89.738 143.652 88.7615C143.025 88.6527 142.757 89.6022 143.383 89.7505C148.771 90.6893 154.317 90.0359 159.335 87.8713C158.589 89.0681 157.804 90.2352 157.009 91.4023C154.097 91.7484 151.185 92.0451 148.333 92.4408C147.707 92.5298 147.975 93.4793 148.601 93.4298C151.116 93.0738 153.69 92.8067 156.254 92.51C155.518 93.5584 154.783 94.5969 154.008 95.6156C153.62 96.12 154.485 96.6047 154.862 96.1102C155.797 94.8738 156.701 93.6177 157.586 92.3419C160.667 92.0038 163.726 91.492 166.749 90.8088C167.415 90.5912 167.157 89.6417 166.531 89.7901Z" fill="white"/>
<path d="M229.8 134.268C232.265 133.407 234.663 132.369 236.976 131.162C238.957 130.277 240.785 129.085 242.393 127.631C242.393 127.572 242.393 127.513 242.333 127.453C237.553 129.263 232.096 126.613 227.107 126.84C223.807 126.988 220.15 127.829 217.556 129.956C216.625 130.788 215.785 131.716 215.051 132.725C219.732 135 224.483 135.959 229.8 134.268Z" fill="#7DC156"/>
<path d="M83.3532 122.132C82.9265 123.693 82.6142 125.283 82.419 126.89C82.1765 128.215 82.1463 129.57 82.3295 130.905H82.4388C83.1942 127.829 86.4938 125.96 88.1337 123.349C89.3374 121.606 89.9566 119.529 89.9028 117.414C89.8045 116.646 89.6246 115.89 89.3661 115.159C87.9436 115.859 86.6777 116.837 85.6444 118.035C84.6111 119.233 83.8318 120.627 83.3532 122.132V122.132Z" fill="#7DC156"/>
<path d="M188.326 201.445C186.475 202.747 184.721 204.182 183.079 205.737C181.64 206.947 180.402 208.376 179.411 209.97L179.501 210.109C183.059 207.468 188.247 208.388 192.351 207.013C195.075 206.103 197.907 204.56 199.567 202.147C200.146 201.234 200.625 200.263 200.998 199.249C196.555 198.438 192.361 198.774 188.326 201.445Z" fill="#7DC156"/>
<path d="M95.2696 160.686C93.7788 158.173 92.0892 155.661 89.1771 154.702C85.4899 153.475 81.8622 155.266 78.6421 156.957C79.0893 158.935 81.0373 160.527 82.4784 161.704C84.4626 163.386 86.7171 164.724 89.1473 165.661C93.008 167.055 97.1117 167.661 101.213 167.441C98.6488 166.185 96.6809 163.059 95.2696 160.686Z" fill="#7DC156"/>
<path opacity="0.48" d="M276.463 166.303C277.626 166.106 278.57 166.135 279.017 166.659C278.202 174.671 283.987 170.754 286.531 172.782L288.717 171.872C293.13 167.474 297.566 163.105 302.025 158.767C300.495 157.669 299.044 156.502 297.533 155.355C290.212 158.407 283.164 162.07 276.463 166.303V166.303Z" fill="#7EB78A"/>
<path d="M302.641 158.846V119.363H294.005V159.192C296.996 160.092 300.137 160.191 302.641 158.846Z" fill="#7EB78A"/>
<path d="M299.203 119.472V159.914C300.405 159.825 301.576 159.488 302.641 158.925V119.472H299.203Z" fill="#3E6D48"/>
<path d="M310.344 123.052C315.721 122.795 322.598 120.876 320.581 114.912C319.388 111.391 315.731 108.285 313.385 105.496C311.04 102.707 311.566 100.838 308.953 98.0982C311.179 98.1872 314.409 97.7718 314.916 95.5761C315.393 93.6573 304.977 81.8678 300.515 77.0906C300.021 76.5627 299.346 76.2398 298.623 76.1866C297.901 76.1334 297.185 76.3539 296.619 76.8038C291.272 81.0469 277.606 92.3221 279.514 95.5959C280.667 97.574 282.993 98.2367 285.07 98.4147C280.15 103.36 274.555 109.453 273.988 115.98C273.491 121.648 279.315 122.399 284.742 122.112C280.995 126.642 270.828 139.559 273.143 143.486C274.366 145.553 278.311 146.236 280.647 146.7C285.71 147.721 290.866 148.215 296.032 148.174C301.226 148.249 306.397 147.474 311.338 145.879C314.076 145.029 316.614 143.64 318.802 141.795C321.187 139.559 319.855 137.186 318.305 134.941C315.641 131.004 312.998 127.028 310.344 123.052Z" fill="#77C457"/>
<path d="M308.953 98.1081C308.953 98.1081 302.413 97.6828 297.851 97.8015L320.929 116.673C320.929 116.673 321.545 114.477 317.47 109.987C314.321 106.257 311.473 102.285 308.953 98.1081V98.1081Z" fill="#0D5B23"/>
<path d="M310.344 123.052H296.877L318.792 141.785C319.461 141.313 319.931 140.612 320.115 139.817C320.298 139.022 320.181 138.187 319.786 137.473C318.345 134.931 310.344 123.052 310.344 123.052Z" fill="#0D5B23"/>
<path opacity="0.48" d="M33.6597 156.917C34.3753 156.799 34.9517 156.818 35.23 157.135C34.7331 162.08 38.2812 159.647 39.8416 160.883L41.1833 160.33C43.8866 157.633 46.6065 154.952 49.343 152.289C48.4087 151.616 47.4944 150.904 46.59 150.192C42.0972 152.067 37.7717 154.317 33.6597 156.917V156.917Z" fill="#7EB78A"/>
<path d="M49.7106 152.338V128.126H44.4331V152.556C46.1547 153.163 48.0453 153.085 49.7106 152.338V152.338Z" fill="#7EB78A"/>
<path d="M47.6035 128.195V152.991C48.3388 152.943 49.0562 152.744 49.7105 152.407V128.195H47.6035Z" fill="#3E6D48"/>
<path d="M54.4412 130.421C57.7309 130.262 61.9548 129.085 60.7224 125.475C59.9969 123.319 57.7408 121.41 56.3096 119.699C54.8785 117.988 55.1965 116.841 53.5864 115.169C54.948 115.229 56.9358 114.971 57.2638 113.626C57.5619 112.449 51.1912 105.219 48.4382 102.292C48.1363 101.968 47.7229 101.77 47.2806 101.737C46.8383 101.704 46.3998 101.839 46.0529 102.114C42.7731 104.715 34.3947 111.628 35.5576 113.626C35.9459 114.164 36.458 114.602 37.051 114.903C37.644 115.205 38.3008 115.36 38.9665 115.357C35.9849 118.324 32.5163 122.122 32.1684 126.128C31.8703 129.6 35.4383 130.084 38.7578 129.886C36.462 132.666 30.2205 140.588 31.6417 142.991C32.397 144.257 34.8121 144.683 36.2433 144.97C39.3471 145.597 42.508 145.902 45.6752 145.879C48.8588 145.926 52.0284 145.451 55.0574 144.475C56.7341 143.953 58.2887 143.103 59.6292 141.973C61.0902 140.598 60.2752 139.144 59.3211 137.769C57.6812 135.267 56.0612 132.824 54.4412 130.421Z" fill="#77C457"/>
<path d="M53.5866 115.09C53.5866 115.09 49.6111 114.833 46.7786 114.902L60.9313 126.464C60.9313 126.464 61.309 125.119 58.8044 122.37C56.8751 120.084 55.1304 117.65 53.5866 115.09V115.09Z" fill="#0D5B23"/>
<path d="M54.4414 130.421H46.2122L59.6493 141.913C60.0547 141.621 60.3382 141.19 60.4463 140.704C60.5543 140.217 60.4794 139.708 60.2357 139.273C59.3412 137.67 54.4414 130.421 54.4414 130.421Z" fill="#0D5B23"/>
</svg>
