<svg width="203" height="200" viewBox="0 0 203 200" fill="none" xmlns="http://www.w3.org/2000/svg">
<path d="M191.5 114.619C191.5 114.619 189.293 112.799 185.796 118.176C183.961 120.91 182.311 123.763 180.857 126.717C180.857 126.717 179.968 127.828 179.231 126.962C178.494 126.095 177.609 123.773 176.176 124.022C174.743 124.271 174.048 125.842 174.071 128.233C174.094 130.624 173.965 135.877 173.951 136.347C173.937 136.817 173.601 137.466 173.002 136.959C172.403 136.453 169.146 131.947 167.105 133.624C165.063 135.301 166.225 141.954 166.34 142.682C166.455 143.409 166.284 143.7 165.925 143.843C165.566 143.985 164.617 142.364 163.621 141.124C162.626 139.885 161.286 138.609 160.189 139.678C159.093 140.747 158.268 145.556 162.032 153.919L164.041 157.674L168.312 157.885C177.489 157.784 181.507 155.001 182.009 153.559C182.511 152.117 180.788 151.421 179.245 151.058C177.701 150.694 175.835 150.514 175.812 150.136C175.789 149.758 175.978 149.477 176.688 149.275C177.397 149.072 183.926 147.312 184.58 144.755C185.234 142.198 179.774 141.138 179.051 140.816C178.328 140.493 178.788 139.894 179.208 139.701C179.627 139.507 184.326 137.148 186.506 136.158C188.685 135.167 189.827 133.928 189.436 132.472C189.044 131.016 186.575 131.246 185.478 130.947C184.382 130.647 185.017 129.367 185.017 129.367C187.079 126.801 188.968 124.102 190.671 121.286C194.071 115.844 191.412 114.591 191.412 114.591" fill="#EBEBEB"/>
<path d="M163.327 158.364C165.838 154.379 170.417 147.371 174.32 141.317C178.222 135.263 181.746 129.799 184.276 125.842L187.266 121.133L188.081 119.852L188.298 119.521C188.32 119.484 188.345 119.448 188.372 119.415L188.307 119.53L188.104 119.866L187.312 121.161C186.621 122.28 185.612 123.897 184.354 125.892C181.825 129.896 178.332 135.369 174.453 141.405C170.574 147.44 165.934 154.443 163.396 158.415" fill="#E0E0E0"/>
<path d="M177.296 127.307C177.333 127.404 177.359 127.504 177.374 127.607C177.415 127.8 177.466 128.067 177.526 128.431C177.65 129.127 177.789 130.095 177.927 131.168C178.065 132.241 178.18 133.181 178.268 133.909C178.314 134.241 178.346 134.517 178.378 134.739C178.4 134.84 178.409 134.944 178.406 135.047C178.369 134.951 178.342 134.85 178.328 134.748C178.286 134.554 178.235 134.287 178.176 133.923C178.06 133.223 177.931 132.255 177.798 131.186C177.664 130.118 177.531 129.173 177.434 128.445C177.392 128.118 177.351 127.837 177.323 127.616C177.302 127.514 177.292 127.411 177.296 127.307Z" fill="#E0E0E0"/>
<path d="M178.789 135.181C178.789 135.144 180.765 134.766 183.216 134.333C185.667 133.9 187.662 133.577 187.667 133.614C187.671 133.651 185.69 134.029 183.239 134.462C180.788 134.895 178.793 135.218 178.789 135.181Z" fill="#E0E0E0"/>
<path d="M172.38 144.183C172.484 144.17 172.589 144.17 172.693 144.183L173.546 144.275C174.26 144.354 175.255 144.455 176.351 144.529C177.448 144.603 178.448 144.635 179.166 144.653L180.023 144.676C180.128 144.671 180.233 144.679 180.337 144.699C180.233 144.72 180.128 144.729 180.023 144.727C179.821 144.727 179.53 144.727 179.166 144.727C178.443 144.727 177.443 144.727 176.342 144.639C175.241 144.552 174.246 144.45 173.532 144.349C173.172 144.298 172.887 144.252 172.684 144.216C172.582 144.215 172.48 144.205 172.38 144.183Z" fill="#E0E0E0"/>
<path d="M169.468 137.374C169.524 137.453 169.57 137.538 169.606 137.627L169.947 138.342C170.228 138.945 170.611 139.788 171.021 140.719C171.431 141.65 171.799 142.497 172.057 143.11L172.361 143.843C172.405 143.93 172.436 144.023 172.454 144.119C172.395 144.04 172.349 143.953 172.315 143.861C172.219 143.668 172.108 143.433 171.974 143.147C171.693 142.543 171.311 141.705 170.901 140.774C170.491 139.844 170.122 138.996 169.86 138.378C169.744 138.093 169.643 137.849 169.56 137.65C169.517 137.563 169.486 137.47 169.468 137.374Z" fill="#E0E0E0"/>
<path d="M162.801 144.598C162.868 144.703 162.926 144.812 162.976 144.925L163.437 145.847C163.801 146.621 164.299 147.69 164.819 148.883C165.34 150.076 165.842 151.15 166.201 151.933C166.363 152.306 166.496 152.619 166.598 152.854C166.65 152.968 166.695 153.085 166.731 153.204C166.662 153.101 166.602 152.991 166.552 152.877L166.114 151.956C165.75 151.182 165.252 150.113 164.732 148.92C164.211 147.726 163.709 146.653 163.35 145.87L162.949 144.948C162.887 144.837 162.838 144.72 162.801 144.598Z" fill="#E0E0E0"/>
<path d="M166.676 152.974C166.808 152.962 166.94 152.962 167.072 152.974L168.155 153.052C169.076 153.117 170.334 153.204 171.73 153.26C173.126 153.315 174.389 153.333 175.305 153.343H176.393C176.525 153.332 176.657 153.332 176.789 153.343C176.658 153.367 176.526 153.379 176.393 153.379L175.305 153.412C174.384 153.412 173.122 153.412 171.721 153.366C170.32 153.32 169.063 153.214 168.15 153.121C167.69 153.08 167.326 153.039 167.068 153.002C166.937 153.004 166.805 152.995 166.676 152.974Z" fill="#E0E0E0"/>
<path d="M33.7939 77.3506C33.7939 77.3506 29.0254 131.559 30.7439 163.202C32.232 190.647 34.8536 199.894 34.8536 199.894L50.4767 199.871L33.7939 77.3506Z" fill="#E0E0E0"/>
<path d="M15.1808 169.284C14.9896 168.558 14.9461 167.801 15.0529 167.058C15.1598 166.314 15.4148 165.6 15.8028 164.958C16.5912 163.676 17.663 162.591 18.9357 161.788C21.3453 160.171 24.6211 159.53 27.5144 159.383C27.4729 162.608 25.0219 165.423 23.6904 166.754C21.5803 168.892 16.4755 171.472 15.1808 169.265" fill="#00C802"/>
<path d="M29.3251 154.153C28.8055 154.813 28.1204 155.324 27.3395 155.633C26.5585 155.942 25.7096 156.039 24.8791 155.913C24.0491 155.777 23.2547 155.476 22.5426 155.028C21.8305 154.58 21.2151 153.995 20.7326 153.306C20.2719 152.679 19.9079 151.9 20.106 151.149C20.2194 150.805 20.4234 150.496 20.6965 150.257C20.9696 150.018 21.3019 149.857 21.6587 149.79C22.3754 149.662 23.1133 149.727 23.7964 149.979C26.1599 150.725 28.3161 151.882 29.3251 154.153Z" fill="#00C802"/>
<path d="M38.0787 150.804C37.9192 150.924 37.7497 151.03 37.572 151.122L36.1621 151.937C34.6189 152.884 32.9323 153.575 31.1679 153.983C29.3945 154.372 27.5492 154.28 25.8235 153.715C25.3057 153.538 24.8108 153.3 24.3492 153.006C24.1833 152.905 24.0681 152.808 23.9852 152.748C23.9023 152.688 23.8654 152.651 23.87 152.647C24.5052 153.018 25.1748 153.326 25.8696 153.568C27.5772 154.075 29.3848 154.144 31.1264 153.771C32.86 153.358 34.5228 152.69 36.0608 151.79C36.6643 151.472 37.1573 151.209 37.4982 151.039C37.6837 150.942 37.8781 150.863 38.0787 150.804Z" fill="#263238"/>
<path d="M18.8989 166.975C18.9499 166.905 19.0086 166.84 19.074 166.782C19.2168 166.653 19.3919 166.482 19.613 166.271C20.0738 165.81 20.7695 165.192 21.6218 164.428C23.3357 162.875 25.7269 160.742 28.4221 158.493C31.1173 156.245 33.6006 154.218 35.4205 152.799C36.3419 152.085 37.0699 151.514 37.5905 151.126L38.1848 150.666C38.254 150.611 38.328 150.564 38.406 150.523C38.349 150.59 38.284 150.651 38.2125 150.703L37.6412 151.163L35.5126 152.886C33.7204 154.338 31.2509 156.356 28.5557 158.627C25.8605 160.898 23.4555 162.99 21.7232 164.511L19.6499 166.33L19.0878 166.814C19.0295 166.873 18.9663 166.927 18.8989 166.975Z" fill="#263238"/>
<path d="M33.3656 156.218C32.2256 157.571 31.4245 159.177 31.0287 160.902C30.6329 162.627 30.6538 164.422 31.0897 166.137C31.32 167.008 31.813 167.98 32.7022 168.095C33.5914 168.21 34.3239 167.395 34.7524 166.602C35.6152 164.933 35.9645 163.045 35.7562 161.177C35.548 159.31 34.7915 157.545 33.5822 156.107" fill="#00C802"/>
<path d="M32.9187 164.068C32.8452 163.895 32.7896 163.714 32.7529 163.529C32.6938 163.317 32.6477 163.102 32.6146 162.884C32.5778 162.631 32.5087 162.345 32.4856 162.023C32.4456 161.671 32.4256 161.317 32.4258 160.963C32.4157 160.557 32.428 160.151 32.4626 159.747C32.5484 158.817 32.7385 157.901 33.0293 157.014C33.3376 156.132 33.7457 155.288 34.2456 154.499C34.464 154.157 34.704 153.829 34.9643 153.518C35.1832 153.24 35.4186 152.975 35.6692 152.725C35.8717 152.514 36.0855 152.314 36.3097 152.126C36.4702 151.978 36.6411 151.841 36.8211 151.716C36.9627 151.595 37.1172 151.49 37.2818 151.403C37.314 151.44 36.6506 151.896 35.7706 152.826C35.5304 153.08 35.3043 153.346 35.0933 153.624C34.8464 153.939 34.6157 154.266 34.4023 154.605C33.9208 155.385 33.5268 156.217 33.2274 157.084C32.9404 157.954 32.7474 158.853 32.6515 159.765C32.6193 160.184 32.587 160.585 32.5962 160.963C32.5891 161.312 32.6014 161.661 32.6331 162.009C32.7437 163.285 32.9602 164.059 32.9187 164.068Z" fill="#263238"/>
<path d="M37.6411 137.19C37.6704 137.097 37.6875 137.001 37.6918 136.904C37.7194 136.683 37.7471 136.411 37.7839 136.084C37.8577 135.37 37.9406 134.338 38.0235 133.057C38.1894 130.495 38.3138 126.952 38.3921 123.045C38.4704 119.138 38.5626 115.591 38.6777 113.034C38.7376 111.785 38.7883 110.762 38.8252 110.002C38.8252 109.67 38.8252 109.399 38.8574 109.177C38.8734 109.081 38.8734 108.983 38.8574 108.887C38.8281 108.98 38.8111 109.076 38.8068 109.173C38.8068 109.394 38.7561 109.661 38.7192 109.993C38.6455 110.702 38.5626 111.739 38.4796 113.02C38.3092 115.577 38.1894 119.12 38.1064 123.036C38.0235 126.952 37.936 130.486 37.8254 133.043C37.7655 134.287 37.7148 135.314 37.678 136.075C37.678 136.406 37.678 136.678 37.6457 136.899C37.6332 136.996 37.6316 137.093 37.6411 137.19Z" fill="#263238"/>
<path d="M89.4313 9.96956C89.8544 9.88087 90.2453 9.67872 90.5623 9.38476C90.8793 9.09081 91.1103 8.71614 91.2305 8.30092C91.3508 7.8857 91.3558 7.44558 91.245 7.02773C91.1342 6.60989 90.9117 6.23008 90.6015 5.92901C90.7942 5.82706 90.965 5.68816 91.104 5.52022C91.243 5.35229 91.3476 5.15862 91.4117 4.95027C91.4759 4.74192 91.4984 4.52298 91.478 4.30593C91.4575 4.08888 91.3946 3.87798 91.2926 3.68528C91.1907 3.49258 91.0517 3.32184 90.8838 3.18282C90.7159 3.0438 90.5222 2.93922 90.3139 2.87505C90.1055 2.81087 89.8866 2.78837 89.6695 2.80881C89.4525 2.82925 89.2416 2.89225 89.0489 2.99419C89.0927 2.62747 89.0307 2.25586 88.8702 1.92324C88.7096 1.59063 88.4572 1.31091 88.1428 1.11712C87.8284 0.923337 87.4651 0.823581 87.0958 0.829637C86.7265 0.835693 86.3667 0.947308 86.0588 1.1513C85.7497 0.891236 85.3777 0.717018 84.98 0.646116C84.5823 0.575215 84.173 0.610124 83.7931 0.747341C83.4132 0.884558 83.076 1.11926 82.8155 1.4279C82.5549 1.73655 82.38 2.10828 82.3085 2.50583C82.1136 2.14485 81.8081 1.8559 81.4369 1.68146C81.0656 1.50702 80.6482 1.4563 80.246 1.53674C79.8437 1.61719 79.4779 1.82456 79.2023 2.12838C78.9267 2.43219 78.7558 2.81641 78.7148 3.22456C77.9454 2.9988 77.0332 2.8053 76.4112 3.31209C75.7892 3.81889 75.7984 4.64359 75.8169 5.39457C75.8054 6.28441 75.892 7.17281 76.0749 8.04373C76.4097 9.38786 77.1931 10.5775 78.2956 11.4162C78.828 11.9729 79.526 12.3426 80.2857 12.4705C81.0453 12.5983 81.8259 12.4774 82.5112 12.1258" fill="#263238"/>
<path d="M90.3941 13.0474C90.6427 12.8823 90.8536 12.6667 91.013 12.4145C91.1725 12.1622 91.2769 11.8792 91.3194 11.5839C91.3619 11.2885 91.3416 10.9876 91.2597 10.7006C91.1779 10.4137 91.0364 10.1473 90.8445 9.91879C90.6525 9.69032 90.4145 9.50495 90.146 9.37481C89.8775 9.24467 89.5846 9.17269 89.2863 9.16358C88.9881 9.15448 88.6913 9.20846 88.4153 9.32198C88.1394 9.4355 87.8905 9.60601 87.6851 9.82234C87.4547 10.0481 87.2243 10.343 86.911 10.3614C86.5977 10.3798 86.3582 10.1449 86.1002 9.97438C85.7682 9.75452 85.3803 9.63419 84.9822 9.6276C84.5841 9.62101 84.1924 9.72843 83.8534 9.93718C83.5144 10.1459 83.2421 10.4473 83.0688 10.8057C82.8954 11.1642 82.8282 11.5647 82.8751 11.9601C81.8108 11.4994 80.3365 11.6376 79.7975 12.6604C79.3367 13.5819 79.8712 14.7659 80.7558 15.2911C81.6859 15.7519 82.7444 15.885 83.7597 15.6689C86.2047 15.3092 88.4786 14.202 90.2697 12.4992" fill="#00C802"/>
<path d="M83.7735 13.0934C83.7504 13.1533 83.4003 13.0151 83.1423 12.6558C82.8843 12.2964 82.875 11.9186 82.9395 11.9094C83.004 11.9002 83.1146 12.2042 83.3404 12.5129C83.5661 12.8216 83.8103 13.0474 83.7735 13.0934Z" fill="white"/>
<path d="M87.5515 12.8263C87.4824 12.8263 87.5515 12.3011 87.3626 11.6975C87.1737 11.094 86.9018 10.6701 86.971 10.624C87.3041 10.8672 87.5289 11.2309 87.5975 11.6376C87.7401 12.0243 87.7235 12.4518 87.5515 12.8263Z" fill="white"/>
<path d="M89.5833 12.3285C89.5142 12.3285 89.6478 11.7986 89.5281 11.1813C89.4083 10.5639 89.1134 10.1354 89.1687 10.0894C89.4787 10.3622 89.6881 10.7312 89.7632 11.1372C89.8384 11.5432 89.7751 11.9628 89.5833 12.3285Z" fill="white"/>
<path d="M82.2623 14.3927C82.2623 14.4204 82.0964 14.4204 81.8615 14.3236C81.5576 14.1874 81.2978 13.969 81.1114 13.693C80.9249 13.4171 80.8193 13.0945 80.8064 12.7618C80.8064 12.5084 80.8617 12.3563 80.8893 12.3609C80.9633 12.7803 81.1049 13.1849 81.3086 13.5588C81.7002 14.1439 82.3084 14.3282 82.2623 14.3927Z" fill="white"/>
<path d="M103.962 36.945C104.744 36.69 105.405 36.1558 105.818 35.4444C106.231 34.733 106.368 33.8944 106.201 33.0887C106.653 32.7752 107.035 32.3725 107.324 31.9056C107.614 31.4386 107.805 30.9173 107.885 30.3738C107.965 29.8303 107.933 29.2762 107.791 28.7455C107.649 28.2148 107.4 27.7188 107.058 27.2882C107.489 26.9185 107.799 26.4281 107.947 25.8803C108.096 25.3326 108.077 24.7528 107.892 24.2162C107.708 23.6795 107.366 23.2107 106.912 22.8704C106.457 22.5301 105.911 22.3341 105.345 22.3078C105.585 21.6773 105.655 20.9946 105.548 20.3284C105.44 19.6623 105.159 19.0362 104.732 18.5134C104.306 17.9905 103.749 17.5894 103.118 17.3504C102.487 17.1115 101.804 17.0431 101.138 17.1523C101.244 16.4762 101.15 15.784 100.867 15.1608C100.585 14.5375 100.126 14.0105 99.548 13.6443C98.9699 13.2782 98.2974 13.089 97.6132 13.1C96.9291 13.1109 96.263 13.3216 95.697 13.706C93.9738 11.3794 90.0208 11.2366 88.1411 13.4388C85.9526 12.1027 82.6953 13.1025 81.631 15.4338C80.2028 14.1023 77.7103 14.5768 76.411 16.0373C75.1118 17.4978 74.8031 19.5987 74.9598 21.566C74.4419 21.8055 73.9968 22.1782 73.67 22.6459C73.3432 23.1136 73.1464 23.6597 73.0995 24.2283C73.0527 24.797 73.1575 25.3679 73.4034 25.8828C73.6493 26.3977 74.0273 26.8381 74.499 27.1592C72.693 29.4029 73.1814 33.121 75.508 34.8164C75.349 36.064 75.562 37.3307 76.1202 38.4577C76.6783 39.5847 77.5569 40.5218 78.6455 41.1514" fill="#263238"/>
<path d="M80.894 25.6755L80.0785 23.3719L94.49 21.0683C98.9222 20.732 103.566 25.3023 103.704 29.7437C103.87 34.6781 103.875 40.709 103.184 44.3671C101.802 51.7387 96.0979 52.4989 96.0979 52.4989L95.6372 64.1045L79.3506 63.4549L80.894 25.6755Z" fill="#FFBE9D"/>
<path d="M101.037 34.5862C101.029 34.828 100.929 35.0578 100.758 35.2288C100.587 35.3999 100.357 35.4996 100.115 35.5076C99.8725 35.5151 99.6365 35.4264 99.4587 35.2607C99.281 35.095 99.1759 34.8659 99.1663 34.6231C99.1732 34.3809 99.2725 34.1505 99.4439 33.9792C99.6152 33.8079 99.8455 33.7086 100.088 33.7016C100.331 33.6941 100.567 33.7829 100.744 33.9486C100.922 34.1142 101.027 34.3434 101.037 34.5862Z" fill="#263238"/>
<path d="M102.059 32.8125C101.94 32.9323 101.239 32.3794 100.217 32.3517C99.1937 32.3241 98.4335 32.8125 98.3276 32.6835C98.2769 32.6236 98.4013 32.407 98.733 32.1767C99.1852 31.8853 99.7157 31.739 100.253 31.7574C100.783 31.7713 101.295 31.9536 101.714 32.278C102.023 32.5314 102.119 32.7618 102.059 32.8125Z" fill="#263238"/>
<path d="M90.9655 34.0518C90.9586 34.294 90.8592 34.5243 90.6879 34.6957C90.5166 34.867 90.2862 34.9663 90.0441 34.9733C89.802 34.9808 89.5666 34.8926 89.389 34.728C89.2114 34.5633 89.1058 34.3353 89.095 34.0933C89.1019 33.8511 89.2012 33.6207 89.3726 33.4494C89.5439 33.2781 89.7742 33.1788 90.0164 33.1718C90.2585 33.1643 90.4939 33.2524 90.6715 33.4171C90.8491 33.5818 90.9547 33.8098 90.9655 34.0518Z" fill="#263238"/>
<path d="M91.8038 32.6881C91.6841 32.8079 90.9791 32.2551 89.9609 32.2274C88.9427 32.1998 88.1779 32.6881 88.072 32.5591C88.0167 32.5038 88.1411 32.2827 88.4774 32.0569C88.927 31.7634 89.4567 31.6169 89.9932 31.6377C90.5244 31.6515 91.0375 31.8338 91.4583 32.1583C91.7624 32.3979 91.8637 32.6328 91.8038 32.6881Z" fill="#263238"/>
<path d="M95.5082 40.3819C96.0514 40.2293 96.6118 40.1457 97.176 40.1331C97.434 40.1331 97.6828 40.0686 97.7335 39.8936C97.76 39.6247 97.7071 39.354 97.5814 39.1149L96.8673 37.1108C95.8814 34.2543 95.1764 31.9092 95.2916 31.8677C95.4068 31.8263 96.3006 34.1161 97.2866 36.968L97.973 38.9859C98.1268 39.3058 98.1627 39.6696 98.0744 40.0133C98.0318 40.1066 97.968 40.1885 97.8879 40.2525C97.8079 40.3165 97.714 40.3609 97.6137 40.3819C97.4628 40.4173 97.3079 40.4328 97.153 40.428C96.605 40.4829 96.0522 40.4674 95.5082 40.3819Z" fill="#263238"/>
<path d="M96.13 52.4947C92.5667 52.4454 89.0843 51.4243 86.0586 49.5415C86.0586 49.5415 88.4037 54.7891 96.0747 54.3376L96.13 52.4947Z" fill="#EB996E"/>
<path d="M91.449 27.3297C91.3937 27.62 90.3663 27.6522 89.2099 27.9886C88.0535 28.3249 87.1458 28.7994 86.9477 28.5783C86.8602 28.4723 86.9846 28.1867 87.3255 27.8596C87.7235 27.3684 88.3002 27.0552 88.9288 26.9888C89.5278 26.8142 90.1601 26.7873 90.7717 26.9105C91.2186 27.0164 91.472 27.1961 91.449 27.3297Z" fill="#263238"/>
<path d="M102.036 29.6011C101.838 29.8176 101.156 29.5228 100.313 29.4491C99.4702 29.3753 98.7468 29.4813 98.5994 29.2279C98.5395 29.1035 98.6685 28.8824 98.9956 28.6889C99.4324 28.4489 99.9341 28.3537 100.428 28.417C100.922 28.4657 101.388 28.6652 101.765 28.9883C102.046 29.251 102.119 29.4951 102.036 29.6011Z" fill="#263238"/>
<path d="M88.2656 20.9258C88.4123 21.5243 88.7106 22.0748 89.1318 22.5246C89.3482 22.7414 89.6368 22.871 89.9427 22.8889C90.2485 22.9067 90.5502 22.8115 90.7904 22.6213C90.9573 22.8002 91.162 22.9397 91.3896 23.0295C91.6171 23.1193 91.8619 23.1572 92.106 23.1404C92.3501 23.1236 92.5873 23.0526 92.8005 22.9325C93.0137 22.8124 93.1974 22.6463 93.3382 22.4462C93.6977 22.7805 94.1569 22.9876 94.6454 23.0359C95.1339 23.0841 95.6247 22.9709 96.0427 22.7135L98.2449 23.1742C99.042 23.3493 100.037 23.4552 100.526 22.801C100.641 22.6536 100.724 22.4601 100.894 22.3817C101.08 22.3312 101.275 22.3312 101.461 22.3817C101.78 22.4013 102.098 22.3401 102.387 22.2041C102.676 22.068 102.927 21.8613 103.115 21.6031C103.484 21.0826 103.761 20.503 103.935 19.8892C104.257 18.9678 104.511 17.7699 103.755 17.1249C103.44 16.9032 103.077 16.7595 102.696 16.7056C101.948 16.4878 101.164 16.4282 100.392 16.5305C99.4502 16.7923 98.6331 17.3822 98.0883 18.1938C98.1671 17.9407 98.1455 17.667 98.028 17.4294C97.9105 17.1918 97.7061 17.0085 97.4571 16.9175C96.9445 16.7579 96.3897 16.8076 95.9137 17.0558C95.1993 17.3831 94.5957 17.9114 94.1767 18.5762C93.5577 18.576 92.9509 18.7484 92.4243 19.0739C91.8978 19.3994 91.4724 19.8652 91.1958 20.4191C90.9192 20.2363 90.6082 20.1119 90.2818 20.0532C89.9555 19.9946 89.6206 20.0031 89.2977 20.0781C89.1831 20.0965 89.0735 20.1378 88.9753 20.1995C88.8772 20.2613 88.7925 20.3422 88.7263 20.4375C88.697 20.486 88.6787 20.5404 88.6726 20.5968C88.6666 20.6532 88.6731 20.7102 88.6915 20.7638C88.71 20.8174 88.74 20.8664 88.7795 20.9071C88.8189 20.9478 88.8669 20.9794 88.9199 20.9996" fill="#263238"/>
<path d="M95.3976 21.3681C95.2033 21.8626 95.1757 22.4069 95.3187 22.9185C95.4618 23.4301 95.7678 23.8811 96.1904 24.203C96.6129 24.525 97.1289 24.7004 97.6601 24.7027C98.1914 24.7049 98.7088 24.5338 99.134 24.2154C99.3143 24.7175 99.6672 25.1392 100.13 25.405C100.592 25.6709 101.134 25.7636 101.659 25.6667C101.653 26.2987 101.818 26.9206 102.136 27.467C102.454 28.0134 102.913 28.4642 103.465 28.7719C103.194 29.4142 103.176 30.1349 103.414 30.7899C103.481 31.0013 103.589 31.1974 103.732 31.3666C103.875 31.5359 104.051 31.675 104.248 31.7759C104.495 31.8634 104.758 31.8991 105.019 31.8809C105.281 31.8627 105.536 31.7909 105.768 31.6699C106.117 31.538 106.435 31.3364 106.703 31.0773C106.97 30.8182 107.182 30.5072 107.326 30.1633C107.455 29.8134 107.456 29.4288 107.327 29.0785C107.199 28.7282 106.95 28.435 106.625 28.2513C107.27 27.6646 107.777 26.9424 108.109 26.1366C108.223 25.916 108.292 25.675 108.313 25.4275C108.333 25.18 108.305 24.9309 108.229 24.6945C108.185 24.5807 108.116 24.4779 108.028 24.3936C107.94 24.3093 107.834 24.2455 107.718 24.2068C107.603 24.1681 107.48 24.1554 107.358 24.1696C107.237 24.1838 107.121 24.2246 107.017 24.2891C107.211 23.9286 107.299 23.5207 107.272 23.1123C107.244 22.7039 107.102 22.3116 106.861 21.9805C106.62 21.6494 106.291 21.3929 105.911 21.2406C105.531 21.0882 105.116 21.0462 104.713 21.1193C104.708 20.7748 104.604 20.439 104.414 20.1516C104.224 19.8642 103.956 19.6371 103.641 19.4971C103.326 19.3571 102.978 19.3101 102.638 19.3616C102.297 19.4131 101.978 19.561 101.719 19.7878" fill="#263238"/>
<path d="M86.5608 20.5384C86.6299 19.617 85.773 18.8844 84.8838 18.76C83.9811 18.7068 83.083 18.9233 82.3037 19.382C81.8814 18.893 81.3194 18.5451 80.6933 18.3853C80.0672 18.2255 79.4072 18.2614 78.8022 18.4882C77.6089 18.9489 76.8441 20.1054 75.8582 20.9301C75.2923 21.3093 74.79 21.7758 74.37 22.3122C74.0107 22.8881 74.0199 23.7819 74.605 24.1275C74.2144 24.2639 73.8678 24.503 73.6016 24.8196C73.3353 25.1363 73.1592 25.5188 73.0918 25.9269C73.0244 26.3351 73.0682 26.7539 73.2185 27.1393C73.3688 27.5248 73.6202 27.8626 73.9462 28.1173C74.1535 28.2786 74.4069 28.4214 74.4898 28.6702C74.5372 28.8866 74.5146 29.1125 74.4253 29.3152C74.0752 30.3058 73.5315 31.2318 73.3196 32.2593C73.1077 33.2867 73.3196 34.5168 74.2088 35.0927C74.4392 35.2448 74.7248 35.3645 74.8308 35.6226C74.8884 35.796 74.8884 35.9835 74.8308 36.157C74.6314 36.7234 74.3816 37.2708 74.0844 37.7926C73.7862 38.3177 73.688 38.933 73.808 39.5249C73.8829 39.8169 74.0703 40.0674 74.3292 40.2219C74.5881 40.3764 74.8976 40.4223 75.1901 40.3496C74.7985 41.483 74.8262 42.8329 75.5587 43.7774C76.2913 44.7219 78.7239 45.1595 80.166 44.275L80.2996 40.8886C80.1061 40.2943 81.0321 37.1199 80.6497 36.4749C80.6497 36.4749 79.6315 38.6772 81.9213 38.3178C82.6631 38.5205 84.0913 36.3367 84.1927 35.5534C84.217 35.1672 84.1317 34.782 83.9467 34.4421C83.7616 34.1022 83.4844 33.8215 83.1468 33.6322C83.783 33.1257 84.221 32.4118 84.3844 31.6151C84.5478 30.8185 84.4261 29.9898 84.0406 29.2738C84.4593 29.227 84.8493 29.0382 85.1456 28.7388C85.442 28.4394 85.6268 28.0475 85.6694 27.6285C85.7119 27.2094 85.6096 26.7883 85.3795 26.4355C85.1494 26.0827 84.8053 25.8193 84.4046 25.6893C84.9178 25.5382 85.3935 25.2808 85.8006 24.9337C86.2077 24.5866 86.5371 24.1576 86.7675 23.6748C86.9978 23.1919 87.1239 22.666 87.1375 22.1311C87.1511 21.5963 87.052 21.0646 86.8465 20.5707" fill="#263238"/>
<path d="M75.5035 21.2065C75.5035 21.2065 75.3929 21.271 75.2501 21.4599C74.9925 21.8318 74.8703 22.2808 74.9039 22.7319C74.9374 23.183 75.1247 23.6089 75.4344 23.9386C75.693 24.1979 76.0146 24.3852 76.3677 24.4822C76.7208 24.5792 77.0931 24.5824 77.4478 24.4915L77.2635 24.3072C77.2161 24.5011 77.2083 24.7026 77.2405 24.8996C77.2726 25.0966 77.344 25.2852 77.4505 25.454C77.557 25.6228 77.6964 25.7685 77.8604 25.8824C78.0243 25.9963 78.2095 26.076 78.4049 26.1168C78.6003 26.1576 78.802 26.1587 78.9978 26.12C79.1936 26.0812 79.3797 26.0035 79.5448 25.8914C79.71 25.7793 79.8509 25.6352 79.9592 25.4675C80.0675 25.2998 80.141 25.112 80.1753 24.9154H79.8297C79.8812 25.1582 79.9924 25.3844 80.1533 25.5735C80.3142 25.7625 80.5197 25.9084 80.7512 25.9981C81.0529 26.1207 81.3871 26.1385 81.7003 26.0487C82.0069 25.9563 82.2701 25.7569 82.442 25.4867C82.6074 25.2374 82.6957 24.945 82.6957 24.6458C82.6957 24.3467 82.6074 24.0542 82.442 23.805L82.2255 24.0492C82.6764 24.2921 83.1724 24.4398 83.6828 24.4834C84.1931 24.527 84.7069 24.4655 85.1925 24.3026C85.8175 24.0837 86.3698 23.6963 86.7885 23.1833C87.2072 22.6703 87.476 22.0516 87.5653 21.3954C87.6033 21.2147 87.6033 21.0279 87.5653 20.8472C87.472 21.5167 87.2313 22.1572 86.8604 22.7223C86.4328 23.3384 85.8143 23.7966 85.1004 24.0262C84.6521 24.1643 84.1806 24.2114 83.7138 24.1647C83.247 24.118 82.7942 23.9785 82.3821 23.7543L81.7141 23.3812L82.1748 23.9985C82.2999 24.1912 82.3665 24.4161 82.3665 24.6458C82.3665 24.8756 82.2999 25.1005 82.1748 25.2932C82.0454 25.4966 81.8471 25.6467 81.6162 25.7161C81.3853 25.7855 81.1371 25.7694 80.917 25.671C80.7394 25.6047 80.5808 25.4956 80.4554 25.3533C80.33 25.2111 80.2417 25.0401 80.1983 24.8555L80.0048 23.8142L79.8481 24.8647C79.8135 25.0234 79.7474 25.1735 79.6538 25.3062C79.5602 25.4389 79.4409 25.5515 79.3031 25.6374C79.1652 25.7233 79.0116 25.7807 78.8512 25.8062C78.6908 25.8318 78.5269 25.8249 78.3692 25.7861C78.0866 25.6865 77.8497 25.4878 77.7023 25.2269C77.5549 24.966 77.5071 24.6606 77.5676 24.3671L77.6367 24.1091L77.3833 24.1828C77.0775 24.2684 76.7547 24.2735 76.4464 24.1976C76.138 24.1217 75.8545 23.9674 75.6233 23.7497C75.4465 23.5774 75.308 23.3697 75.2167 23.1404C75.1255 22.911 75.0835 22.6649 75.0935 22.4182C75.1171 21.9845 75.2589 21.5655 75.5035 21.2065Z" fill="#455A64"/>
<path d="M103.041 17.1339C103.099 17.269 103.126 17.4155 103.119 17.5624C103.113 17.6425 103.088 17.7201 103.046 17.7889C103.005 17.8577 102.948 17.9158 102.88 17.9586C102.792 18.0153 102.689 18.0455 102.585 18.0455C102.48 18.0455 102.378 18.0153 102.29 17.9586L101.991 17.7513L102.138 18.0876C102.239 18.3565 102.259 18.6493 102.195 18.9295C102.131 19.2096 101.986 19.4648 101.779 19.6633C101.508 19.8965 101.159 20.0162 100.802 19.9973C100.446 19.9784 100.111 19.8224 99.8666 19.5619L99.6915 19.373L99.5901 19.608C99.4188 20.0033 99.1508 20.3491 98.8109 20.6138C98.471 20.8785 98.07 21.0535 97.6448 21.1228C97.2196 21.192 96.7838 21.1533 96.3774 21.0102C95.9711 20.8671 95.6072 20.6241 95.3192 20.3037L95.2133 20.1793L95.0843 20.2853C94.4775 20.7959 93.7434 21.132 92.9603 21.2574C92.3493 21.3654 91.723 21.3513 91.1174 21.2159C90.5707 21.0699 90.0422 20.8628 89.5417 20.5986C89.5417 20.5986 89.6477 20.7229 89.8919 20.8934C90.2518 21.1292 90.6468 21.3065 91.0621 21.4186C91.7006 21.5962 92.3691 21.6385 93.0248 21.543C93.8701 21.4281 94.6672 21.0822 95.3284 20.5433H95.0981C95.4199 20.9113 95.8301 21.1914 96.2901 21.357C96.7501 21.5227 97.2447 21.5685 97.7273 21.4901C98.2099 21.4118 98.6646 21.2118 99.0485 20.9091C99.4325 20.6065 99.733 20.211 99.9219 19.76L99.6454 19.8061C99.9079 20.0977 100.266 20.2856 100.655 20.3356C101.044 20.3857 101.439 20.2946 101.766 20.0789C102.094 19.8632 102.334 19.5372 102.441 19.1601C102.549 18.7829 102.519 18.3795 102.354 18.0231L102.202 18.1521C102.324 18.2248 102.465 18.2601 102.607 18.2535C102.748 18.247 102.885 18.1989 103 18.1152C103.081 18.0533 103.148 17.9731 103.193 17.8812C103.239 17.7893 103.262 17.688 103.262 17.5854C103.239 17.2353 103.041 17.1201 103.041 17.1339Z" fill="#455A64"/>
<path d="M90.0485 12.7064C90.0485 12.734 90.2051 12.6419 90.477 12.6281C90.6653 12.6208 90.8531 12.6536 91.0278 12.7243C91.2025 12.7949 91.3603 12.9019 91.4906 13.0381C91.6688 13.2519 91.7931 13.5053 91.8533 13.777C91.9134 14.0488 91.9075 14.331 91.8361 14.6C91.6367 15.2807 91.2691 15.9002 90.7672 16.4014L91.0206 16.6456C91.1957 16.4659 91.6057 16.6456 91.7163 16.8667C91.7743 17.0141 91.8021 17.1715 91.7981 17.3298C91.7942 17.4881 91.7585 17.6439 91.6933 17.7882C91.4915 18.3326 91.1775 18.8286 90.7718 19.2441C90.3678 19.6133 89.9297 19.9435 89.4634 20.23C89.4634 20.23 89.6338 20.23 89.9241 20.1056C90.3062 19.9369 90.658 19.7066 90.9653 19.4238C91.4293 19.0021 91.7916 18.4807 92.025 17.8988C92.1098 17.7161 92.156 17.5179 92.1608 17.3165C92.1655 17.1152 92.1287 16.915 92.0526 16.7285C91.9428 16.5128 91.7525 16.3489 91.5228 16.2724C91.4027 16.2251 91.272 16.2113 91.1446 16.2324C91.0172 16.2535 90.898 16.3087 90.7995 16.3922L91.0529 16.6364C91.5977 16.09 91.9859 15.4074 92.177 14.6599C92.2516 14.3427 92.246 14.0119 92.1607 13.6974C92.0754 13.3829 91.9132 13.0946 91.6887 12.8584C91.5291 12.7088 91.3372 12.5982 91.1278 12.535C90.9184 12.4719 90.6972 12.458 90.4816 12.4945C90.1406 12.5544 90.0393 12.6926 90.0485 12.7064Z" fill="#455A64"/>
<path d="M77.9867 15.3831C78.4025 15.2169 78.8401 15.1114 79.2859 15.0698C79.7778 15.0507 80.2655 15.167 80.6957 15.4062C81.2375 15.7172 81.6557 16.2053 81.8798 16.7884L81.995 17.0878L82.1747 16.8206C82.3606 16.5558 82.625 16.356 82.9306 16.2497C83.2362 16.1433 83.5675 16.1357 83.8777 16.2279C84.1878 16.32 84.4612 16.5074 84.6591 16.7634C84.857 17.0194 84.9694 17.3311 84.9805 17.6545V17.8618L85.1832 17.8158C85.4819 17.7555 85.7902 17.7606 86.0868 17.8305C86.3834 17.9005 86.6614 18.0338 86.9017 18.2212C87.2866 18.524 87.5485 18.9562 87.6389 19.4375C87.7044 19.8792 87.6761 20.3298 87.5559 20.7598C87.5559 20.7598 87.6527 20.663 87.7402 20.4373C87.8613 20.1059 87.8977 19.7496 87.8462 19.4007C87.7697 18.8616 87.4974 18.3696 87.0814 18.0185C86.8104 17.7938 86.4931 17.6319 86.1522 17.5443C85.8113 17.4566 85.4552 17.4455 85.1095 17.5117L85.3122 17.6729C85.3087 17.2739 85.1773 16.8865 84.9373 16.5676C84.6973 16.2487 84.3615 16.0152 83.979 15.9012C83.5965 15.7873 83.1876 15.799 82.8122 15.9346C82.4369 16.0703 82.115 16.3227 81.8936 16.6547L82.1885 16.6916C81.9219 16.0442 81.4313 15.5144 80.8063 15.1989C80.3271 14.9507 79.7858 14.8482 79.2491 14.904C78.9023 14.9372 78.5656 15.039 78.2585 15.2035C78.0742 15.2772 77.9775 15.3509 77.9867 15.3831Z" fill="#455A64"/>
<path d="M78.0468 3.65774C78.2282 3.4261 78.4597 3.23864 78.7241 3.10948C79.0283 2.97235 79.3743 2.96076 79.687 3.07723C79.8863 3.15342 80.064 3.27722 80.2045 3.43782C80.3451 3.59843 80.4442 3.79098 80.4932 3.99867L80.6453 4.68976L80.7605 3.98946C80.8289 3.64013 80.9952 3.31741 81.2399 3.05886C81.4845 2.80031 81.7976 2.61655 82.1426 2.52896C82.5457 2.4483 82.9641 2.50469 83.3315 2.68919C83.6988 2.87368 83.9939 3.17568 84.1698 3.54716L84.2389 3.70381L84.4002 3.6347C84.6125 3.54389 84.842 3.49989 85.0728 3.5057C85.4679 3.49833 85.8542 3.62239 86.1711 3.85839C86.488 4.09438 86.7175 4.42895 86.8236 4.80955C86.9057 5.15222 86.8905 5.511 86.7798 5.84552C86.6691 6.18005 86.4673 6.47705 86.197 6.70313L85.7732 7.02103L86.2984 6.97035C86.5633 6.95062 86.8286 7.00424 87.0651 7.12534C87.3016 7.24643 87.5002 7.43032 87.6391 7.65683C87.7448 7.83538 87.8081 8.03584 87.8241 8.24273C87.8401 8.44963 87.8083 8.65743 87.7312 8.8501C87.5849 9.19717 87.3398 9.49357 87.0263 9.70244C87.0263 9.70244 87.1415 9.70244 87.3166 9.58726C87.5703 9.41953 87.769 9.18076 87.8879 8.90078C87.9904 8.68326 88.0397 8.44447 88.0317 8.20413C88.0236 7.9638 87.9586 7.72882 87.8418 7.51861C87.6872 7.24126 87.4571 7.01349 87.1782 6.86178C86.8992 6.71008 86.5829 6.64069 86.2661 6.66166L86.3721 6.92888C86.6966 6.67081 86.9414 6.32621 87.0784 5.93489C87.2154 5.54358 87.2388 5.1215 87.1461 4.7174C87.0236 4.26276 86.7534 3.86173 86.3781 3.57734C86.0028 3.29296 85.5437 3.14134 85.0728 3.14633C84.7945 3.14497 84.5187 3.19982 84.262 3.30759L84.4923 3.39973C84.3079 2.98353 83.9933 2.63849 83.5959 2.41653C83.1984 2.19458 82.7396 2.10773 82.2885 2.16905C81.8375 2.23038 81.4185 2.43655 81.0947 2.75655C80.7709 3.07655 80.5599 3.49306 80.4932 3.94339H80.7651C80.7 3.69689 80.5745 3.4705 80.3999 3.28468C80.2254 3.09886 80.0073 2.95947 79.7653 2.87911C79.5845 2.82127 79.3941 2.80003 79.205 2.81665C79.0159 2.83326 78.8321 2.88739 78.6642 2.97587C78.4559 3.08322 78.2783 3.24176 78.1482 3.43659C78.056 3.5702 78.0376 3.65313 78.0468 3.65774Z" fill="#455A64"/>
<path d="M67.7266 6.19188C68.0407 5.98061 68.4123 5.87122 68.7908 5.87858C69.0031 5.88337 69.2113 5.93798 69.3985 6.03802C69.5858 6.13806 69.7469 6.28072 69.8689 6.45449C70.0169 6.67954 70.0996 6.94124 70.1077 7.21047C70.1159 7.4797 70.0491 7.74591 69.915 7.97949L69.3161 8.9424L70.1315 8.14996C70.3626 7.94678 70.6548 7.82648 70.9619 7.80812C71.269 7.78976 71.5734 7.87439 71.827 8.0486C72.0949 8.26729 72.2683 8.58075 72.3112 8.92392C72.3541 9.26708 72.2632 9.61359 72.0574 9.89149L72.3476 10.0758C72.4296 9.90426 72.5446 9.75056 72.686 9.62346C72.8273 9.49637 72.9924 9.39836 73.1716 9.33504C73.3509 9.27172 73.5409 9.24433 73.7307 9.25443C73.9205 9.26454 74.1065 9.31193 74.2781 9.39391C74.4496 9.47589 74.6033 9.59086 74.7304 9.73224C74.8575 9.87362 74.9555 10.0387 75.0188 10.2179C75.0821 10.3972 75.1095 10.5871 75.0994 10.777C75.0893 10.9668 75.0419 11.1528 74.9599 11.3243L75.2272 11.2691C75.1373 11.1646 75.0879 11.0314 75.0879 10.8936C75.0879 10.7558 75.1373 10.6226 75.2272 10.5181C75.3224 10.4153 75.4444 10.341 75.5795 10.3036C75.7146 10.2662 75.8574 10.2671 75.992 10.3061C76.2604 10.4016 76.4982 10.5674 76.6806 10.7862C76.8629 11.0051 76.9831 11.2689 77.0286 11.5501L77.2958 11.458C77.2483 11.3297 77.2392 11.1905 77.2694 11.0571C77.2997 10.9238 77.3681 10.8021 77.4663 10.707C77.5524 10.612 77.6589 10.5378 77.7778 10.4899C77.8967 10.442 78.0249 10.4217 78.1528 10.4305C78.3738 10.4498 78.5888 10.5132 78.7851 10.6168C78.9813 10.7205 79.1548 10.8623 79.2954 11.0341C79.7561 11.6192 79.945 12.0431 79.9864 12.0154C79.9663 11.9102 79.929 11.809 79.8759 11.716C79.7544 11.4373 79.5997 11.1743 79.4151 10.9327C79.2669 10.7336 79.079 10.5673 78.8634 10.4444C78.6477 10.3215 78.4089 10.2446 78.162 10.2186C77.9985 10.2051 77.834 10.2278 77.6803 10.2851C77.5266 10.3425 77.3875 10.433 77.2728 10.5503C77.1355 10.6815 77.0397 10.85 76.9971 11.0351C76.9545 11.2201 76.9671 11.4136 77.0332 11.5916L77.2958 11.4948C77.226 11.1833 77.0978 10.8879 76.918 10.624C76.7168 10.323 76.4117 10.1065 76.0611 10.0159C75.867 9.95868 75.6606 9.95821 75.4663 10.0145C75.272 10.0709 75.0979 10.1817 74.9645 10.3338C74.8225 10.5055 74.7475 10.7229 74.7534 10.9457C74.7593 11.1685 74.8458 11.3816 74.9968 11.5455L75.1673 11.7067L75.2686 11.4902C75.4397 11.0677 75.4433 10.5959 75.2788 10.1707C75.1142 9.74564 74.7939 9.39921 74.3829 9.20195C73.972 9.0047 73.5013 8.97144 73.0667 9.10896C72.6321 9.24648 72.2662 9.54443 72.0435 9.94217L72.3338 10.1265C72.5839 9.80418 72.7026 9.39907 72.6659 8.99277C72.6292 8.58647 72.4399 8.20917 72.1361 7.93691C71.8323 7.66464 71.4366 7.51765 71.0287 7.52556C70.6208 7.53346 70.2311 7.69566 69.938 7.97949L70.1546 8.14996C70.3132 7.86897 70.3872 7.54808 70.3676 7.22599C70.348 6.9039 70.2356 6.59436 70.044 6.3347C69.8013 6.02527 69.4517 5.81777 69.0638 5.75298C68.6759 5.68819 68.2778 5.77079 67.9477 5.98455C67.7818 6.09512 67.722 6.18266 67.7266 6.19188Z" fill="#263238"/>
<path d="M109.03 41.8426C109.03 41.8426 108.92 41.8426 108.745 41.7643C108.623 41.7097 108.513 41.631 108.423 41.5327C108.333 41.4345 108.264 41.3189 108.219 41.193C108.14 41.0015 108.11 40.7934 108.132 40.5874C108.154 40.3815 108.227 40.1842 108.344 40.0135C108.676 39.5615 109.098 39.1834 109.583 38.9032L109.413 38.6636C109.083 38.8797 108.7 38.9994 108.306 39.0091C107.912 39.0189 107.523 38.9184 107.183 38.7189C106.801 38.4885 106.512 38.1327 106.364 37.7125C106.216 37.2923 106.219 36.8337 106.372 36.4152C106.467 36.1251 106.624 35.8594 106.833 35.6366C107.004 35.427 107.244 35.285 107.51 35.2358C107.708 35.2358 107.855 35.4938 107.842 35.7288C107.834 35.845 107.791 35.9561 107.718 36.0474C107.646 36.1387 107.548 36.2059 107.436 36.2402C107.196 36.3106 106.944 36.3302 106.695 36.2977C106.447 36.2652 106.208 36.1813 105.994 36.0513C105.589 35.8381 105.248 35.5199 105.008 35.1298C104.662 34.5581 104.547 33.8761 104.686 33.2224C104.782 32.7617 104.934 32.5221 104.902 32.5083C104.727 32.6987 104.606 32.9326 104.552 33.1856C104.451 33.5298 104.421 33.8908 104.463 34.2471C104.505 34.6033 104.618 34.9474 104.796 35.2588C105.047 35.6938 105.412 36.0522 105.851 36.2955C106.102 36.4536 106.384 36.5563 106.678 36.5968C106.972 36.6373 107.271 36.6147 107.556 36.5304C107.718 36.4697 107.862 36.37 107.975 36.2402C108.1 36.0981 108.171 35.9175 108.178 35.7288C108.189 35.5412 108.142 35.3547 108.044 35.1943C107.99 35.1036 107.915 35.0274 107.825 34.972C107.736 34.9167 107.634 34.8839 107.528 34.8764C107.334 34.878 107.145 34.9373 106.985 35.0469C106.836 35.1422 106.7 35.2552 106.579 35.3832C106.335 35.6473 106.153 35.9619 106.045 36.3047C105.876 36.8117 105.876 37.3595 106.045 37.8665C106.217 38.3516 106.561 38.7565 107.012 39.0045C107.407 39.2315 107.859 39.3416 108.314 39.322C108.769 39.3024 109.209 39.154 109.583 38.8939L109.413 38.659C108.901 38.9694 108.465 39.3896 108.136 39.8891C108.007 40.094 107.933 40.3286 107.92 40.5706C107.907 40.8125 107.956 41.0538 108.063 41.2713C108.121 41.4111 108.21 41.5364 108.322 41.6383C108.434 41.7402 108.568 41.8162 108.712 41.861C108.92 41.8979 109.03 41.8518 109.03 41.8426Z" fill="#263238"/>
<path d="M89.1179 8.33406C89.1179 8.33406 89.1824 8.40317 89.3299 8.49532C89.5411 8.63005 89.7649 8.74422 89.9979 8.83625C90.3768 9.00663 90.8022 9.04397 91.205 8.94222C91.4603 8.86562 91.6897 8.72063 91.8685 8.52296C91.975 8.40816 92.0534 8.27013 92.0974 8.11979C92.1414 7.96945 92.1498 7.81094 92.1219 7.6568L91.9422 7.80884C92.0963 7.8719 92.2615 7.90371 92.4281 7.90242C92.5946 7.90114 92.7593 7.86678 92.9125 7.80134C93.0657 7.7359 93.2043 7.64069 93.3204 7.52123C93.4365 7.40177 93.5277 7.26044 93.5887 7.10545C93.6497 6.95046 93.6793 6.78489 93.6759 6.61835C93.6724 6.45182 93.6358 6.28763 93.5684 6.13533C93.5009 5.98303 93.4039 5.84564 93.2829 5.73115C93.1619 5.61665 93.0194 5.52733 92.8636 5.46836L92.7945 5.79087C93.1347 5.8023 93.4671 5.6878 93.7281 5.4693C93.9891 5.25081 94.1603 4.9437 94.2089 4.6068C94.2524 4.25213 94.1714 3.89337 93.9798 3.59174C93.7883 3.29011 93.498 3.06428 93.1585 2.9528C92.8814 2.84646 92.5823 2.81006 92.2877 2.84684L92.3845 3.17856C92.6147 3.0734 92.8179 2.91707 92.9786 2.72148C93.1393 2.5259 93.2532 2.29621 93.3117 2.04993C93.3702 1.80365 93.3717 1.54727 93.3161 1.30032C93.2605 1.05337 93.1493 0.822371 92.9909 0.624921C92.8325 0.427471 92.6311 0.26878 92.4021 0.160938C92.1731 0.0530963 91.9225 -0.0010504 91.6694 0.00262234C91.4163 0.00629509 91.1673 0.0676909 90.9416 0.182132C90.7158 0.296574 90.5191 0.46104 90.3665 0.663003H90.5969C90.3694 0.396382 90.0723 0.198292 89.7387 0.0908905C89.4051 -0.0165114 89.0482 -0.0289909 88.7079 0.0548472C88.2914 0.170385 87.9313 0.43405 87.6955 0.796306C87.4596 1.15856 87.3642 1.59447 87.4271 2.02214C87.4341 2.13766 87.4723 2.24911 87.5377 2.34465C87.4731 1.92977 87.5324 1.50505 87.7081 1.12373C87.8081 0.913402 87.9546 0.728595 88.1366 0.583314C88.3186 0.438032 88.5313 0.336088 88.7586 0.285209C89.0519 0.223709 89.3565 0.24309 89.6397 0.341281C89.9229 0.439473 90.1742 0.612783 90.3665 0.842685L90.4817 0.990119L90.5969 0.838079C90.8494 0.553496 91.2042 0.38025 91.5839 0.356087C91.9636 0.331923 92.3375 0.458801 92.624 0.709077C92.7653 0.866057 92.8686 1.05331 92.9262 1.25645C92.9838 1.4596 92.9941 1.67324 92.9563 1.88099C92.9185 2.08873 92.8336 2.28504 92.7081 2.45487C92.5826 2.62469 92.4199 2.76351 92.2324 2.86066L91.2281 3.32138L92.3292 3.18777C92.5648 3.15667 92.8044 3.18682 93.0249 3.27531C93.2885 3.35524 93.516 3.52456 93.6682 3.75414C93.8204 3.98371 93.8878 4.25917 93.8588 4.53309C93.8228 4.78524 93.6983 5.01637 93.5075 5.18517C93.3168 5.35397 93.0722 5.44945 92.8176 5.45454L91.3939 5.31171L92.7484 5.77244C92.8727 5.82129 92.9859 5.89478 93.081 5.98847C93.1762 6.08217 93.2514 6.19414 93.3022 6.31766C93.353 6.44117 93.3783 6.57368 93.3765 6.70722C93.3748 6.84076 93.3461 6.97256 93.2921 7.09472C93.1736 7.30474 92.9847 7.46615 92.7588 7.55045C92.5329 7.63475 92.2845 7.63652 92.0574 7.55544L91.8178 7.45408L91.8731 7.70287C91.8919 7.93228 91.8299 8.16105 91.6978 8.34954C91.5657 8.53803 91.3718 8.67436 91.1497 8.73489C90.7898 8.83328 90.4082 8.81718 90.0578 8.68882C89.4497 8.49071 89.1318 8.30181 89.1179 8.33406Z" fill="#263238"/>
<path d="M81.433 34.8488C81.3316 34.7935 77.2864 33.1395 76.9639 37.4289C76.6414 41.7182 81.0367 41.1423 81.0506 41.0179C81.0644 40.8935 81.433 34.8488 81.433 34.8488Z" fill="#FFBE9D"/>
<path d="M79.8526 39.3084C79.8526 39.3084 79.7743 39.3545 79.6453 39.4052C79.4611 39.4664 79.2606 39.4565 79.0832 39.3776C78.6225 39.1794 78.3092 38.4561 78.3461 37.6545C78.3609 37.2864 78.4569 36.9261 78.6271 36.5994C78.6775 36.4685 78.7587 36.3516 78.8637 36.2586C78.9687 36.1655 79.0946 36.0991 79.2307 36.065C79.3182 36.0489 79.4086 36.0635 79.4867 36.1063C79.5647 36.1491 79.6256 36.2175 79.6591 36.2999C79.7052 36.4243 79.6591 36.5072 79.696 36.5165C79.7329 36.5257 79.7928 36.452 79.7697 36.2723C79.7554 36.1641 79.7032 36.0645 79.6223 35.9912C79.509 35.8964 79.3645 35.8471 79.2168 35.853C79.0377 35.8757 78.8674 35.9439 78.7222 36.0512C78.577 36.1585 78.4618 36.3012 78.3875 36.4658C78.1793 36.8252 78.0622 37.2301 78.0466 37.6452C78.0098 38.5114 78.3968 39.3499 79.0049 39.5757C79.118 39.6164 79.2387 39.6313 79.3583 39.6193C79.4779 39.6074 79.5932 39.5689 79.696 39.5066C79.8388 39.4006 79.8665 39.3084 79.8526 39.3084Z" fill="#EB996E"/>
<path d="M92.5642 41.7962C92.736 41.6323 92.9446 41.5118 93.1725 41.445C93.4004 41.3781 93.6409 41.3667 93.8741 41.4118C94.1073 41.4569 94.3262 41.5572 94.5127 41.7042C94.6993 41.8512 94.8479 42.0407 94.9462 42.2569C95.0247 42.4363 95.0652 42.6301 95.0652 42.8259C95.0652 43.0218 95.0247 43.2155 94.9462 43.3949C94.8257 43.6404 94.6333 43.8433 94.3946 43.9766C94.1559 44.11 93.8822 44.1674 93.6101 44.1413C93.3388 44.1039 93.0858 43.9832 92.8861 43.7958C92.6864 43.6085 92.5498 43.3638 92.4951 43.0955C92.3938 42.5564 92.2233 41.9206 92.7024 41.6626" fill="#EB996E"/>
<path d="M92.4994 40.6909C92.6607 40.6909 92.7344 41.7506 93.7111 42.4601C94.6879 43.1696 95.8305 42.9715 95.8535 43.1189C95.8535 43.188 95.6093 43.3493 95.1209 43.3908C94.4889 43.445 93.8583 43.2718 93.3425 42.9024C92.8437 42.5496 92.503 42.0153 92.3935 41.4143C92.3243 40.972 92.4441 40.6909 92.4994 40.6909Z" fill="#263238"/>
<path d="M76.3973 54.5447L79.323 54.0518L95.7846 55.5123L101.659 58.3042L103.221 59.2257C103.221 59.2257 97.0977 67.7491 90.8226 67.2884C84.5476 66.8276 73.7113 57.8804 73.7113 57.8804L73.6606 54.9548L76.3973 54.5447Z" fill="#FFBE9D"/>
<path d="M122.852 68.463L109.394 60.686C107.726 60.1331 99.9541 57.4932 99.9541 57.4932C99.9541 57.4932 93.9186 67.0763 88.9243 66.4589C86.2245 66.1272 82.9349 63.7913 80.5069 61.7226C78.417 59.9465 76.6333 57.8391 75.227 55.4844L74.6833 54.563C72.3198 54.563 64.9666 56.3368 62.3682 56.9864C61.7494 57.1382 61.1887 57.4682 60.7556 57.9355C59.3136 59.4789 56.5262 62.4183 55.9364 65.3071C55.3697 68.0714 53.0615 76.968 53.0615 76.968L119.309 74.9408L122.852 68.463Z" fill="#00C802"/>
<path d="M144.133 68.689C143.124 69.1497 134.776 71.9924 134.402 72.4162C134.029 72.8401 122.58 68.7949 122.58 68.7949L119.309 74.9917L148.842 74.3513L144.133 68.689Z" fill="#FFBE9D"/>
<path d="M68.8505 66.68C68.809 66.68 68.6708 66.1502 68.2654 65.3578C67.7212 64.3299 67.0149 63.3965 66.1737 62.5934C65.3263 61.7971 64.4242 61.0612 63.4739 60.3911C63.0685 60.1256 62.6849 59.8282 62.3267 59.502C62.7625 59.7135 63.1788 59.9633 63.5706 60.2483C64.558 60.8852 65.4835 61.6133 66.335 62.4229C67.1961 63.2368 67.9004 64.2019 68.4128 65.2702C68.5642 65.5933 68.6861 65.9295 68.7768 66.2746C68.825 66.4044 68.8499 66.5416 68.8505 66.68Z" fill="#263238"/>
<path d="M108.616 72.5728C108.544 72.1158 108.516 71.653 108.533 71.1906C108.533 70.3383 108.533 69.1635 108.588 67.8642C108.643 66.565 108.754 65.3947 108.846 64.5516C108.874 64.085 108.946 63.6221 109.063 63.1694C109.082 63.6307 109.067 64.0927 109.017 64.5516C108.966 65.4731 108.901 66.611 108.832 67.8642C108.763 69.1174 108.74 70.2554 108.703 71.1768C108.715 71.6438 108.686 72.1109 108.616 72.5728Z" fill="#263238"/>
<path d="M77.3508 59.0415C77.3508 59.0415 77.3232 59.0921 77.2541 59.1751C77.1522 59.2985 77.038 59.4112 76.9131 59.5114C76.4622 59.8912 75.9291 60.161 75.3559 60.2992C74.4984 60.5175 73.5938 60.4594 72.7712 60.1334C72.2889 59.9335 71.8506 59.6407 71.4812 59.2718C71.0896 58.9032 70.7394 58.484 70.334 58.1154C69.5826 57.414 68.5975 57.0166 67.5697 57.0004C66.7264 56.9848 65.8996 57.2346 65.2061 57.7146C64.7336 58.0354 64.3282 58.4454 64.0129 58.9217C63.7917 59.258 63.7042 59.4699 63.6812 59.4607C63.6883 59.405 63.7038 59.3506 63.7272 59.2995C63.7871 59.1524 63.8564 59.0093 63.9345 58.871C64.3038 58.2342 64.8341 57.7057 65.4721 57.3386C66.1102 56.9714 66.8335 56.7786 67.5697 56.7793C68.6609 56.7813 69.711 57.1961 70.5091 57.9403C70.9283 58.3227 71.2785 58.7466 71.6563 59.1014C72.0044 59.4516 72.4155 59.733 72.868 59.9307C73.5221 60.1961 74.2332 60.2901 74.9338 60.2039C75.6345 60.1176 76.3015 59.8539 76.8717 59.4377C77.185 59.2027 77.3278 59.0184 77.3508 59.0415Z" fill="white"/>
<path d="M108.16 66.2471C108.16 66.2471 108.017 65.9983 107.699 65.5652C107.205 64.9442 106.589 64.4314 105.888 64.0587C104.783 63.4535 103.505 63.2392 102.262 63.4505C101.452 63.6104 100.686 63.9424 100.015 64.4241C99.344 64.9058 98.7844 65.5259 98.3739 66.2425C97.8866 67.0706 97.6558 68.0245 97.7104 68.9838C97.7448 69.4761 97.9033 69.9516 98.1711 70.366C98.4679 70.7909 98.8974 71.1053 99.3921 71.2598C99.6436 71.3388 99.91 71.3587 100.171 71.3179C100.431 71.2772 100.679 71.1769 100.894 71.0248C101.346 70.7052 101.665 70.2318 101.792 69.6933C101.913 69.1355 101.839 68.553 101.58 68.0439C101.325 67.512 100.938 67.0538 100.456 66.7124C99.4236 66.0212 98.1695 65.7417 96.941 65.9292C95.6554 66.1087 94.433 66.599 93.3796 67.3575C91.1773 68.8364 89.4404 71.0847 86.994 72.5959C85.7884 73.3595 84.4062 73.799 82.9811 73.8721C81.5993 73.9459 80.2203 73.6818 78.9635 73.1027C77.7354 72.5615 76.6938 71.6705 75.9688 70.5411C75.6229 69.9957 75.3939 69.3845 75.2964 68.7461C75.1989 68.1077 75.2349 67.456 75.4021 66.8322C75.5417 66.2292 75.8354 65.6726 76.2545 65.2172C76.6737 64.7617 77.2039 64.4228 77.7933 64.2337C78.3544 64.0784 78.9461 64.0706 79.5111 64.2111C80.0761 64.3515 80.5953 64.6355 81.0184 65.0354C81.4095 65.4399 81.6586 65.9606 81.7279 66.5189C81.7828 67.0513 81.6953 67.5887 81.4745 68.0762C81.0619 68.9933 80.3229 69.7241 79.4012 70.1264C78.5604 70.4544 77.6456 70.5452 76.7567 70.389C75.9733 70.2537 75.2142 70.0038 74.5037 69.6473C73.3872 69.0513 72.3277 68.3543 71.3386 67.5648C70.5093 66.9382 69.855 66.4729 69.3897 66.1826C69.1593 66.0398 68.9843 65.9292 68.8599 65.8601C68.7355 65.791 68.6802 65.7495 68.6802 65.7495C68.6802 65.7495 68.7493 65.7772 68.8737 65.8417C68.9981 65.9062 69.1824 66.0029 69.4173 66.1411C69.8781 66.4222 70.5599 66.8737 71.3938 67.4865C72.3841 68.261 73.4436 68.9427 74.559 69.5229C75.2604 69.8681 76.0086 70.1087 76.7797 70.237C77.6405 70.383 78.5248 70.2906 79.3367 69.9698C80.2132 69.5798 80.9141 68.8789 81.304 68.0025C81.5084 67.5445 81.5894 67.041 81.539 66.542C81.4769 66.0205 81.2436 65.5344 80.8756 65.1598C80.4772 64.7836 79.9879 64.5174 79.4556 64.3873C78.9233 64.2573 78.3663 64.2679 77.8394 64.418C77.2862 64.5984 76.7892 64.9189 76.3968 65.3485C76.0044 65.778 75.73 66.3019 75.6003 66.8691C75.4437 67.4641 75.4116 68.0851 75.5059 68.6931C75.6003 69.3012 75.819 69.8832 76.1485 70.4028C76.8537 71.4904 77.8608 72.3486 79.0465 72.8723C80.2712 73.4325 81.6131 73.6885 82.958 73.6187C84.3407 73.5435 85.681 73.1152 86.8511 72.3747C89.2515 70.8958 90.9977 68.6521 93.2322 67.1455C94.323 66.3641 95.5883 65.8611 96.918 65.6804C98.2076 65.4874 99.5228 65.785 100.604 66.5143C101.114 66.8796 101.525 67.3676 101.797 67.9334C102.068 68.4897 102.144 69.1208 102.014 69.7256C101.874 70.3137 101.523 70.8301 101.028 71.1769C100.787 71.3437 100.511 71.4537 100.221 71.4984C99.9314 71.5431 99.6353 71.5213 99.3552 71.4349C98.8196 71.2625 98.3552 70.9194 98.0329 70.4581C97.7358 70.0116 97.5596 69.4957 97.5215 68.9608C97.4672 67.9661 97.7111 66.9779 98.2218 66.1227C98.6477 65.3888 99.2265 64.7551 99.9189 64.2646C100.611 63.7741 101.401 63.4383 102.235 63.28C103.503 63.0742 104.803 63.3066 105.921 63.9389C106.627 64.3259 107.245 64.8582 107.731 65.5007C107.901 65.733 108.045 65.9833 108.16 66.2471Z" fill="white"/>
<path d="M117.632 65.4407C117.603 65.5734 117.553 65.7008 117.485 65.8184C117.32 66.1533 117.121 66.4699 116.89 66.7629C116.55 67.199 116.149 67.5852 115.702 67.9101C115.154 68.3086 114.558 68.6353 113.928 68.8823C112.777 69.3329 111.531 69.4836 110.306 69.32C109.939 69.268 109.577 69.1848 109.224 69.0712C109.09 69.0413 108.964 68.9866 108.851 68.9099C108.851 68.8684 109.408 69.062 110.325 69.1495C111.519 69.2637 112.723 69.0948 113.84 68.6565C114.964 68.2387 115.967 67.5503 116.761 66.6524C117.351 65.9521 117.591 65.4176 117.632 65.4407Z" fill="white"/>
<path d="M121.93 68.3339C121.93 68.3339 121.783 68.2602 121.502 68.1865C121.107 68.0925 120.694 68.102 120.304 68.2142C119.727 68.4033 119.19 68.6969 118.719 69.0803C118.162 69.495 117.567 69.9741 116.968 70.504C115.944 71.4123 114.99 72.3981 114.117 73.4526C113.439 74.2589 113.062 74.7887 113.029 74.7703C113.087 74.6261 113.163 74.4899 113.255 74.3648C113.416 74.1206 113.66 73.7659 113.983 73.3466C114.826 72.2517 115.772 71.2397 116.807 70.3243C117.376 69.8199 117.971 69.3462 118.59 68.9052C119.086 68.5129 119.654 68.2232 120.263 68.0529C120.681 67.9459 121.121 67.9619 121.53 68.099C121.682 68.1387 121.821 68.22 121.93 68.3339Z" fill="white"/>
<path d="M103.571 59.3179C103.392 59.53 103.169 59.6999 102.917 59.8155C101.743 60.4722 100.367 60.6693 99.0558 60.3683C98.7808 60.3276 98.5182 60.2269 98.2864 60.0735C99.1801 60.258 100.097 60.3062 101.005 60.2163C101.901 60.0494 102.766 59.7465 103.571 59.3179Z" fill="white"/>
<path d="M63.838 75.3417C63.8483 74.6634 63.8206 73.9851 63.755 73.3099C63.5505 71.6895 62.9139 70.1539 61.9121 68.8639C61.358 68.164 60.71 67.5438 59.9863 67.021C59.39 66.5962 58.7391 66.2537 58.0513 66.0028C57.4072 65.7939 56.75 65.6277 56.084 65.5053C56.2659 65.48 56.4504 65.48 56.6322 65.5053C57.1339 65.5567 57.6283 65.6633 58.1066 65.8232C58.8192 66.0583 59.4942 66.395 60.1107 66.8229C60.8638 67.3509 61.5345 67.9874 62.101 68.7119C63.1376 70.0308 63.7768 71.6178 63.9439 73.2869C63.9928 73.7879 63.9928 74.2925 63.9439 74.7935C63.932 74.98 63.8964 75.1642 63.838 75.3417Z" fill="white"/>
<g opacity="0.3">
<path opacity="0.3" d="M68.5281 73.0199C68.1666 72.7468 67.7374 72.5775 67.2868 72.5304C66.8362 72.4833 66.3812 72.5602 65.9711 72.7527C65.6256 72.9186 65.3215 73.1674 64.9667 73.3194C64.7951 73.4084 64.6026 73.4494 64.4096 73.438C64.2166 73.4267 64.0302 73.3634 63.8702 73.2549C63.6122 73.0384 63.5385 72.6698 63.3404 72.398C62.9672 71.8958 62.2346 71.8175 61.6173 71.9372C61.0171 72.1102 60.3984 72.2107 59.7744 72.2367C59.1654 72.1223 58.5684 71.9511 57.9914 71.7253C57.3175 71.5564 56.6096 71.5814 55.9493 71.7975C55.289 72.0135 54.7032 72.4117 54.2595 72.9462L53.1445 76.245L69.4081 75.4249C69.4932 74.9819 69.4563 74.5241 69.3013 74.1005C69.1463 73.6769 68.879 73.3034 68.5281 73.0199Z" fill="black"/>
</g>
<path d="M74.0153 75.1435C73.9738 75.1435 73.831 74.715 73.3841 74.1345C72.8139 73.3728 72.0037 72.8253 71.0843 72.5804C70.1648 72.3355 69.1897 72.4074 68.3161 72.7846C67.6389 73.0656 67.2933 73.3835 67.2657 73.3467C67.238 73.3098 67.3348 73.2499 67.4914 73.1117C67.7232 72.9211 67.9769 72.7587 68.247 72.6279C69.1484 72.1813 70.1815 72.0775 71.1537 72.336C72.126 72.5946 72.9711 73.1977 73.5315 74.0332C73.7023 74.279 73.8416 74.5452 73.9462 74.8256C73.9903 74.9258 74.0138 75.034 74.0153 75.1435Z" fill="white"/>
<g opacity="0.3">
<path opacity="0.3" d="M112.573 73.4759C111.47 73.255 110.439 72.7661 109.569 72.0523C108.754 71.2921 108.293 70.0435 108.74 69.0161C107.998 70.7144 106.78 72.1622 105.235 73.1855C103.689 74.2087 101.881 74.7639 100.028 74.7844L115.748 74.5264C114.737 74.0457 113.671 73.6928 112.573 73.4759Z" fill="black"/>
</g>
<path d="M94.255 34.4062C94.2044 34.0186 94.1321 33.634 94.0385 33.2544C93.7459 32.2308 93.118 31.3352 92.2554 30.7112C91.6228 30.2525 90.8853 29.9595 90.1103 29.8589C89.3353 29.7583 88.5475 29.8533 87.8187 30.1353C86.9572 30.4638 86.2141 31.0432 85.6855 31.7985C85.112 32.6054 84.8116 33.5745 84.8282 34.5642C84.8448 35.5539 85.1775 36.5124 85.7777 37.2996C86.0563 37.6767 86.3939 38.0065 86.7774 38.2763C87.1406 38.5402 87.5413 38.7483 87.9661 38.8937C88.5855 39.1058 89.2422 39.1869 89.8946 39.1317C90.547 39.0764 91.1808 38.8862 91.7557 38.5729C92.3306 38.2597 92.8341 37.8303 93.2342 37.3121C93.6343 36.7939 93.9223 36.1981 94.0799 35.5627C94.1581 35.1804 94.2165 34.7945 94.255 34.4062C94.2888 34.7998 94.2608 35.1962 94.1721 35.5811C93.9387 36.6539 93.3432 37.6137 92.4858 38.2994C91.8486 38.8123 91.0916 39.155 90.2857 39.2952C89.4798 39.4354 88.6515 39.3686 87.8786 39.101C86.9634 38.7884 86.1617 38.2112 85.5749 37.4424C84.9431 36.6155 84.5928 35.6078 84.5754 34.5673C84.558 33.5267 84.8744 32.5079 85.4782 31.6603C86.0396 30.873 86.8221 30.2701 87.7265 29.928C88.5413 29.6179 89.4248 29.5335 90.2835 29.6838C91.1958 29.8442 92.0426 30.2641 92.7224 30.8933C93.4022 31.5225 93.8864 32.3342 94.1168 33.2314C94.2245 33.6133 94.2711 34.0098 94.255 34.4062Z" fill="#455A64"/>
<path d="M106.229 34.1992C106.178 33.8117 106.105 33.4272 106.013 33.0474C105.72 32.0241 105.09 31.1296 104.225 30.5088C103.638 30.0789 102.957 29.7932 102.239 29.6749C101.416 29.5413 100.572 29.6288 99.7929 29.9283C99.3714 30.0868 98.9767 30.309 98.6226 30.5871C98.2486 30.8685 97.9233 31.2093 97.6597 31.5961C97.0813 32.401 96.7779 33.3709 96.7945 34.3619C96.8111 35.3529 97.1468 36.3121 97.7518 37.0972C98.0306 37.4729 98.3682 37.8012 98.7516 38.0693C99.1121 38.3376 99.5135 38.546 99.9403 38.6867C100.678 38.9442 101.469 39.0125 102.24 38.8853C103.011 38.7581 103.738 38.4395 104.354 37.9587C105.196 37.3056 105.794 36.389 106.054 35.3556C106.133 34.9735 106.191 34.5875 106.229 34.1992C106.262 34.5945 106.233 34.9926 106.142 35.3787C105.913 36.451 105.319 37.4104 104.46 38.0923C103.823 38.6064 103.067 38.9502 102.261 39.0912C101.455 39.2323 100.626 39.166 99.8527 38.8986C99.4066 38.7495 98.9856 38.5336 98.6042 38.2582C98.2004 37.9773 97.8442 37.6335 97.5491 37.24C96.9209 36.4144 96.5738 35.4091 96.5589 34.3718C96.5439 33.3345 96.8619 32.3196 97.4662 31.4763C97.7471 31.0725 98.0909 30.7163 98.4844 30.4213C98.8568 30.1344 99.2698 29.9046 99.7099 29.7394C100.527 29.4329 101.412 29.3502 102.272 29.4998C103.183 29.6604 104.029 30.0798 104.709 30.708C105.388 31.3362 105.873 32.1467 106.105 33.0428C106.206 33.4195 106.248 33.8096 106.229 34.1992Z" fill="#455A64"/>
<path d="M84.7825 33.6187C84.2479 33.9622 83.6614 34.2174 83.0455 34.3742C82.4556 34.6013 81.8338 34.735 81.2026 34.7705C81.7733 34.5073 82.3671 34.2976 82.9764 34.1439C83.5621 33.9168 84.1664 33.741 84.7825 33.6187Z" fill="#455A64"/>
<path d="M97.1713 33.0427C96.6478 32.9701 96.1189 32.9454 95.591 32.969C95.0722 33.0741 94.5647 33.2284 94.0752 33.4297C94.4639 33.0172 94.9972 32.7712 95.5633 32.7433C96.1179 32.629 96.695 32.7365 97.1713 33.0427Z" fill="#455A64"/>
<path d="M87.8923 38.074C87.619 38.047 87.3572 37.9502 87.1321 37.793C86.5572 37.4613 86.0825 36.9807 85.7581 36.4017C85.4338 35.8227 85.2717 35.1668 85.2892 34.5034C85.2696 34.2305 85.322 33.9572 85.4412 33.7109C85.4781 33.7109 85.4412 34.0196 85.4412 34.5034C85.4723 35.1301 85.6492 35.7409 85.958 36.2872C86.2667 36.8335 86.6987 37.3002 87.2196 37.6501C87.6204 37.9266 87.9061 38.0371 87.8923 38.074Z" fill="white"/>
<path d="M99.7377 37.7331C99.4813 37.7036 99.2369 37.6084 99.0282 37.4566C98.4911 37.1368 98.0466 36.6827 97.7381 36.139C97.4362 35.5932 97.2776 34.9797 97.2774 34.356C97.2549 34.0987 97.2994 33.84 97.4064 33.605C97.4358 33.8511 97.4497 34.0989 97.4479 34.3467C97.4975 34.9342 97.6719 35.5044 97.9593 36.0192C98.2514 36.5301 98.6506 36.9718 99.1295 37.3138C99.3405 37.4412 99.5436 37.5812 99.7377 37.7331Z" fill="white"/>
<path d="M34.2365 75.9869C34.2365 75.9869 33.011 150.067 43.2345 199.894L170.731 199.498L137.356 75.3926L34.2365 75.9869Z" fill="#E0E0E0"/>
<path d="M34.2364 75.987L137.356 75.2959H137.429L137.452 75.365C146.957 110.703 158.434 153.343 170.846 199.466L170.887 199.618H170.731L160.595 199.65L43.2344 200H43.1468V199.917C42.7168 197.626 42.2945 195.361 41.8798 193.122C41.6817 191.997 41.4514 190.887 41.2763 189.772C41.1012 188.657 40.9399 187.551 40.7695 186.45C40.4378 184.242 40.1076 182.063 39.7789 179.913C39.5056 177.763 39.2368 175.628 38.9727 173.508C38.8406 172.458 38.7085 171.412 38.5764 170.371C38.4474 169.33 38.3507 168.293 38.2401 167.266C38.0282 165.205 37.8178 163.174 37.6089 161.175C37.3832 159.175 37.2449 157.194 37.0699 155.245C36.8948 153.297 36.7381 151.38 36.5769 149.496C35.4066 134.379 34.863 121.156 34.5451 110.265C34.2272 99.3734 34.1811 90.7993 34.1765 84.9527C34.1765 82.0271 34.1765 79.788 34.2088 78.2768C34.2088 77.5212 34.218 76.9499 34.2364 76.5629C34.2364 76.1989 34.2364 76.0377 34.2364 75.987C34.2364 76.2081 34.2364 79.1337 34.2364 84.9527C34.2364 90.7716 34.3378 99.3687 34.6603 110.26C34.9828 121.152 35.5817 134.37 36.7427 149.482C36.9086 151.366 37.0745 153.287 37.2403 155.232C37.4062 157.176 37.5582 159.157 37.784 161.156C38.0097 163.156 38.2079 165.188 38.4244 167.243C38.535 168.27 38.6317 169.307 38.7607 170.348C38.8897 171.389 39.0233 172.435 39.1569 173.485C39.4242 175.596 39.6945 177.729 39.9678 179.885C40.2995 182.037 40.6267 184.216 40.963 186.418C41.135 187.518 41.3055 188.625 41.4744 189.74C41.6449 190.855 41.8798 191.965 42.0779 193.085C42.4957 195.324 42.918 197.588 43.3449 199.876L43.2436 199.793L160.604 199.406L170.74 199.378L170.625 199.526C158.231 153.402 146.768 110.753 137.273 75.4203L137.37 75.4894L34.2364 75.987Z" fill="#263238"/>
<path d="M34.2365 75.9869C34.2365 75.9869 34.1305 85.7496 35.7845 103.133C36.8764 114.651 36.7566 129.74 39.8066 148.989C46.2568 189.657 49.6431 195.877 49.6431 195.877L173.993 195.033L140.899 74.167L34.2365 75.9869Z" fill="#EBEBEB"/>
<path d="M34.2364 75.9866L140.899 74.0654H140.977V74.1391C150.496 108.74 161.866 150.278 174.126 195.033L174.168 195.185H174.016L167.238 195.231L49.643 195.978H49.597L49.5693 195.922C49.119 194.873 48.7374 193.796 48.4267 192.697C48.095 191.624 47.8048 190.541 47.5053 189.472C47.2058 188.403 46.9524 187.325 46.699 186.247C46.4456 185.169 46.2014 184.114 45.9619 183.054C45.0066 178.825 44.1589 174.678 43.4186 170.615C41.8983 162.474 40.6174 154.72 39.4795 147.422C38.922 143.773 38.4797 140.225 38.0973 136.788C37.7149 133.351 37.4431 130.043 37.2173 126.855C36.7566 120.474 36.5032 114.605 36.1715 109.311C36.0148 106.662 35.8029 104.16 35.5817 101.806C35.3606 99.4513 35.1855 97.2445 35.0335 95.1896C34.7248 91.0754 34.5267 87.5739 34.4069 84.7312C34.2871 81.8885 34.2318 79.7093 34.2134 78.2396C34.2134 77.5024 34.2134 76.945 34.2134 76.5718C34.2134 76.1986 34.2134 76.0097 34.2134 76.0097C34.2134 76.1157 34.2134 76.7929 34.2456 78.235C34.2779 79.6771 34.3378 81.8885 34.4714 84.7266C34.605 87.5647 34.8123 91.0708 35.1302 95.1804C35.2869 97.2353 35.4712 99.4467 35.6923 101.796C35.9135 104.146 36.13 106.652 36.2912 109.302C36.6322 114.6 36.8948 120.47 37.3647 126.841C37.5951 130.03 37.8915 133.341 38.2539 136.775C38.6179 140.202 39.0648 143.75 39.6361 147.399C40.7787 154.692 42.0641 162.442 43.5937 170.578C44.3493 174.651 45.1986 178.808 46.1415 183.05C46.3765 184.109 46.6023 185.178 46.8787 186.243C47.1551 187.307 47.4039 188.385 47.685 189.468C47.966 190.55 48.2609 191.615 48.6064 192.693C48.9143 193.772 49.2913 194.831 49.7352 195.863L49.643 195.807L167.234 195.015L174.011 194.969L173.896 195.121C161.645 150.343 150.274 108.795 140.82 74.1944L140.917 74.2681L34.2364 75.9866Z" fill="#263238"/>
<path d="M152.15 79.9121L34.3377 81.9163C33.8401 113.867 45.091 163.736 53.338 189.965L176.978 188.671C164.317 155.061 149.763 116.848 152.15 79.9121Z" fill="#F5F5F5"/>
<path d="M152.15 79.9121C152.15 80.0181 152.15 80.6308 152.09 81.9623C152.09 82.6396 152.039 83.4827 152.007 84.4871C151.975 85.4915 151.892 86.6571 151.947 87.9702C152.007 90.6009 151.984 93.849 152.311 97.6454C152.375 98.5976 152.441 99.585 152.509 100.608C152.61 101.626 152.735 102.681 152.854 103.768C152.974 104.856 153.103 105.975 153.232 107.127C153.361 108.279 153.573 109.463 153.748 110.675C153.923 111.886 154.121 113.14 154.32 114.416C154.518 115.692 154.803 116.991 155.052 118.327C155.301 119.663 155.541 121.032 155.854 122.414C156.167 123.796 156.48 125.215 156.803 126.662C156.969 127.385 157.125 128.118 157.305 128.85L157.867 131.071C158.251 132.564 158.64 134.086 159.033 135.637C159.426 137.188 159.868 138.756 160.36 140.341C160.585 141.138 160.82 141.944 161.046 142.75L161.788 145.188C165.727 158.318 171.104 172.831 177.075 188.634L177.125 188.772H176.978L57.4293 190.048L53.3288 190.09H53.2367L53.2136 190.007C50.2327 180.401 47.6849 170.827 45.4504 161.4C43.2159 151.974 41.2532 142.686 39.6038 133.6C37.9544 124.515 36.6091 115.632 35.6462 106.989C34.6556 98.6686 34.1802 90.2951 34.2226 81.9163V81.8149H34.3239L152.136 79.9121L34.3285 82.0222L34.4299 81.9209C34.3925 90.2908 34.8725 98.6551 35.8674 106.966C36.8303 115.595 38.171 124.473 39.8342 133.559C41.4974 142.644 43.4325 151.923 45.6808 161.345C47.9291 170.767 50.4631 180.336 53.4394 189.933L53.3242 189.85L57.4293 189.809L176.978 188.583L176.881 188.721C170.919 172.919 165.557 158.392 161.627 145.252C161.378 144.432 161.134 143.616 160.885 142.81C160.636 142.004 160.424 141.193 160.203 140.396L158.881 135.692C158.491 134.138 158.104 132.614 157.72 131.122C157.531 130.375 157.347 129.633 157.158 128.901C156.969 128.168 156.826 127.431 156.665 126.708C156.342 125.261 156.024 123.847 155.716 122.455C155.407 121.064 155.181 119.691 154.919 118.364C154.656 117.037 154.412 115.729 154.195 114.453L153.629 110.721C153.458 109.504 153.242 108.325 153.117 107.173C152.993 106.021 152.868 104.893 152.749 103.805C152.629 102.718 152.509 101.663 152.412 100.645C152.315 99.6265 152.279 98.6313 152.219 97.6822C151.905 93.8721 151.933 90.6239 151.882 88.007C151.836 86.6894 151.938 85.5376 151.961 84.5332C151.984 83.5288 152.034 82.6903 152.062 82.013C152.122 80.6401 152.145 80.0181 152.15 79.9121Z" fill="#263238"/>
<path d="M152.366 73.9736L34.2362 75.987C33.7386 107.934 38.9771 137.286 47.2286 163.525L81.3222 184.635L180.272 182.949C167.602 149.33 149.979 110.91 152.366 73.9736Z" fill="#FAFAFA"/>
<path d="M152.366 73.9736C152.366 74.0796 152.339 74.7016 152.283 76.0423C152.251 76.7288 152.21 77.5857 152.205 78.5947C152.2 79.6037 152.159 80.7785 152.205 82.1054C152.338 89.7752 153.121 97.4199 154.545 104.957C156.319 114.715 159.443 126.376 163.953 139.443C166.197 145.98 168.768 152.873 171.555 160.115C174.343 167.358 177.356 174.937 180.364 182.907L180.415 183.046H180.268L81.3225 184.75H81.2857H81.258L66.5148 175.609L47.1921 163.631L47.1552 163.608V163.566C42.4852 148.734 39.0322 133.546 36.8304 118.152C34.8578 104.189 33.9705 90.0927 34.1766 75.9916V75.8902H34.278L152.408 73.9828L34.2826 76.0976L34.3839 75.9962C34.1781 90.0752 35.0592 104.149 37.0193 118.093C39.2218 133.472 42.6733 148.646 47.3395 163.465L47.2888 163.4L66.6116 175.379L81.3548 184.524H81.2903L180.235 182.857L180.143 182.995C177.139 175.024 174.131 167.436 171.353 160.194C168.575 152.951 166.004 146.054 163.765 139.512C159.268 126.436 156.158 114.762 154.403 104.994C152.975 97.4501 152.204 89.7965 152.099 82.1192C152.062 80.7923 152.099 79.6175 152.122 78.6085C152.145 77.5995 152.177 76.7656 152.214 76.0653C152.339 74.7062 152.362 74.0796 152.366 73.9736Z" fill="#263238"/>
<path d="M47.3254 163.511L77.3416 160.286L81.3085 184.63L47.3254 163.511Z" fill="#E0E0E0"/>
<path d="M81.3085 184.63C81.294 184.592 81.2847 184.552 81.2809 184.511C81.2809 184.414 81.2394 184.299 81.2072 184.151L80.9584 182.769C80.7511 181.539 80.4516 179.788 80.083 177.613C79.3597 173.227 78.3553 167.15 77.2219 160.313L77.3555 160.415L74.5589 160.714L55.2362 162.755L49.3803 163.345L47.7862 163.497L47.3716 163.529H47.2288C47.2735 163.514 47.3199 163.505 47.367 163.502L47.7816 163.446L49.3711 163.253L55.2177 162.585L74.5359 160.479L77.3279 160.18H77.4431V160.29C78.5396 167.132 79.5163 173.191 80.2074 177.604C80.5437 179.779 80.8202 181.539 81.0091 182.769C81.0951 183.365 81.1642 183.826 81.2164 184.151L81.2625 184.515C81.2852 184.55 81.3009 184.589 81.3085 184.63Z" fill="#263238"/>
<path d="M130.191 107.293C130.191 107.357 114.273 107.685 94.642 108.021C75.0105 108.357 59.0833 108.569 59.0833 108.505C59.0833 108.44 74.9967 108.113 94.6373 107.781C114.278 107.45 130.191 107.228 130.191 107.293Z" fill="#263238"/>
<path d="M132.177 118.373C132.177 118.438 116.259 118.765 96.623 119.101C76.9869 119.438 61.0688 119.65 61.0688 119.585C61.0688 119.521 76.9823 119.193 96.623 118.857C116.264 118.521 132.172 118.309 132.177 118.373Z" fill="#263238"/>
<path d="M136.628 129.412C136.628 129.477 120.71 129.804 101.078 130.136C81.4468 130.467 65.5195 130.688 65.5195 130.624C65.5195 130.559 81.433 130.232 101.074 129.896C120.714 129.56 136.628 129.343 136.628 129.412Z" fill="#263238"/>
<path d="M141.281 141.926C141.281 141.995 125.363 142.318 105.732 142.654C86.1001 142.99 70.1729 143.207 70.1729 143.138C70.1729 143.068 86.0863 142.751 105.727 142.414C125.368 142.078 141.281 141.861 141.281 141.926Z" fill="#263238"/>
<path d="M146.561 153.568C146.561 153.633 130.643 153.96 111.012 154.291C91.3801 154.623 75.4529 154.844 75.4529 154.78C75.4529 154.715 91.3663 154.388 111.007 154.052C130.648 153.715 146.561 153.499 146.561 153.568Z" fill="#263238"/>
<path d="M38.8804 75.964C38.8804 75.964 40.2856 73.9599 41.0596 73.5268C41.8336 73.0937 42.9025 73.066 43.3955 73.4853L43.8838 73.9C43.8838 73.9 46.3257 72.7159 47.5374 73.536C47.5374 73.536 49.841 72.3565 51.0205 73.5959C51.0205 73.5959 52.7989 72.3657 53.5959 73.3701C54.393 74.3745 54.3653 76.1345 54.0198 77.0237C53.6742 77.9129 53.0661 81.0043 52.527 81.0734C52.527 81.0734 51.085 81.2669 50.873 80.4929C50.6611 79.7189 50.5643 79.3411 50.5643 79.3411C50.5643 79.3411 50.1036 82.1055 49.431 82.2805C48.7583 82.4556 47.4959 82.3957 47.4176 81.184C47.4176 81.184 46.8279 82.1055 46.2151 81.8705C45.6023 81.6355 44.8329 81.2024 44.8928 80.4515C44.9527 79.7005 44.9251 78.9449 44.9251 78.9449C44.9251 78.9449 44.6256 80.0506 44.0727 79.8295C43.5199 79.6083 42.9716 79.6728 42.6399 78.756C42.3082 77.8392 41.465 76.0285 41.465 76.0285L38.8804 75.964Z" fill="#FFBE9D"/>
<path d="M44.8791 78.8891C44.8422 78.8891 44.9804 78.5851 45.091 78.0967C45.2425 77.4676 45.2503 76.8125 45.1139 76.18C44.9776 75.5475 44.7004 74.9539 44.3032 74.4431C43.9991 74.0469 43.7595 73.8442 43.7825 73.8119C43.8056 73.7797 44.082 73.9502 44.4322 74.3372C44.8911 74.8435 45.2089 75.4615 45.3536 76.1294C45.4976 76.7972 45.4658 77.4909 45.2615 78.1428C45.1972 78.4192 45.0659 78.6755 44.8791 78.8891Z" fill="#EB996E"/>
<path d="M47.6943 73.5449C47.8625 73.8867 47.979 74.2516 48.0398 74.6276C48.4356 76.4263 48.3643 78.2963 47.8325 80.0596C47.7449 80.4283 47.6003 80.7812 47.4041 81.1054C47.7396 79.8761 47.9541 78.6169 48.0445 77.3459C48.0513 76.0705 47.934 74.7976 47.6943 73.5449Z" fill="#EB996E"/>
<path d="M51.0804 73.6279C51.4087 75.5678 51.2375 77.5593 50.5828 79.4146C50.5137 79.4146 50.827 78.1292 50.9606 76.5351C51.0942 74.941 51.0067 73.6371 51.0804 73.6279Z" fill="#EB996E"/>
<path d="M60.8295 73.9689C60.7636 73.8495 60.6719 73.7462 60.5611 73.6665C60.4504 73.5868 60.3233 73.5328 60.1891 73.5082C59.8719 73.4474 59.5448 73.4638 59.2352 73.556C58.9257 73.6482 58.6429 73.8135 58.4107 74.038C57.952 74.493 57.5693 75.0188 57.2773 75.5952L60.6498 75.5676C60.6038 75.0101 61.0369 74.4619 60.8295 73.9689Z" fill="#FFBE9D"/>
<path d="M188.657 189.564C188.621 189.532 189.206 188.901 189.952 187.749C190.385 187.071 190.767 186.361 191.095 185.625C191.899 183.824 192.368 181.891 192.477 179.921C192.521 179.123 192.502 178.322 192.422 177.526C192.288 176.144 192.048 175.333 192.099 175.319C192.177 175.505 192.237 175.698 192.279 175.895C192.347 176.12 192.4 176.349 192.44 176.581C192.491 176.853 192.56 177.162 192.592 177.503C192.695 178.311 192.73 179.126 192.698 179.94C192.651 180.936 192.514 181.926 192.288 182.898C192.046 183.866 191.72 184.811 191.311 185.722C190.969 186.462 190.567 187.172 190.109 187.846C189.92 188.141 189.717 188.38 189.551 188.602C189.408 188.79 189.254 188.97 189.09 189.141C188.961 189.297 188.816 189.439 188.657 189.564Z" fill="#263238"/>
<path d="M181.572 192.191C181.544 192.163 182.12 191.638 182.954 190.698C185.095 188.243 186.625 185.316 187.418 182.156C187.722 180.949 187.824 180.18 187.879 180.189C187.876 180.378 187.855 180.566 187.814 180.751C187.76 181.244 187.677 181.733 187.566 182.216C186.851 185.435 185.298 188.407 183.064 190.832C182.729 191.199 182.374 191.546 182 191.873C181.872 191.998 181.728 192.105 181.572 192.191Z" fill="#263238"/>
<path d="M163.148 118.543C171.76 114.633 175.572 104.482 171.662 95.8703C167.751 87.2584 157.6 83.447 148.989 87.3571C140.377 91.2672 136.565 101.418 140.475 110.03C144.386 118.642 154.537 122.453 163.148 118.543Z" fill="#00C802"/>
<path d="M155.651 96.9683C155.719 100.94 155.786 104.911 155.854 108.883C155.881 110.362 158.185 110.366 158.157 108.883C158.093 104.911 158.025 100.94 157.955 96.9683C157.932 95.4894 155.628 95.4848 155.651 96.9683Z" fill="white"/>
<path d="M150.533 104.188L163.281 103.967C164.76 103.967 164.764 101.663 163.281 101.663L150.533 101.884C149.054 101.907 149.049 104.211 150.533 104.188Z" fill="white"/>
<g opacity="0.3">
<path opacity="0.3" d="M159.249 86.0723C155.996 85.4103 152.618 85.7658 149.574 87.0905C150.226 88.2136 150.977 89.276 151.818 90.2649C152.537 91.1587 153.615 92.1078 154.697 91.707C154.975 91.554 155.278 91.451 155.591 91.4029C156.08 91.4029 156.407 91.8866 156.679 92.2967C157.405 93.3879 158.327 94.3359 159.397 95.0933C159.973 95.5033 160.844 95.8212 161.309 95.2914C161.509 95.002 161.602 94.6516 161.571 94.3008C161.608 91.6793 160.433 88.4128 159.249 86.0723Z" fill="black"/>
</g>
<path d="M144.133 68.6887L146.897 67.8594C148 67.5543 149.158 67.5065 150.282 67.7198C151.406 67.9331 152.465 68.4017 153.38 69.0896C154.882 70.2183 156.489 71.5038 157.005 72.2041L159.374 75.3877C159.636 75.7282 159.815 76.1261 159.895 76.5488C159.975 76.9715 159.954 77.4072 159.834 77.8203C159.801 78.0001 159.707 78.1629 159.567 78.281L158.729 79.4973C158.729 79.4973 158.977 81.3402 158.987 82.5151C158.996 83.6899 157.853 85.6941 157.853 85.6941L160.092 91.8079C160.2 92.0867 160.223 92.3912 160.158 92.683C160.094 92.9749 159.944 93.241 159.728 93.4481C159.672 93.5133 159.603 93.5666 159.526 93.6046C159.449 93.6427 159.364 93.6647 159.278 93.6694C159.192 93.6742 159.106 93.6615 159.025 93.6322C158.944 93.6028 158.87 93.5575 158.807 93.4987C157.927 92.7892 155.582 87.8042 155.582 87.8042L154.66 86.7353L153.384 86.4174C153.384 86.4174 153.615 88.2603 152.785 88.6243L149.279 85.6019L146.565 80.9947C146.565 80.9947 146.492 74.692 145.81 72.9504L144.133 68.6887Z" fill="#FFBE9D"/>
<path d="M156.199 80.8706C157.15 82.3149 157.713 83.9791 157.835 85.7036C157.766 85.7036 157.554 84.5886 157.102 83.2618C156.651 81.9349 156.139 80.9075 156.199 80.8706Z" fill="#EB996E"/>
<path d="M158.231 78.0418C158.305 78.0095 158.563 78.6131 158.692 79.3779C158.825 79.8352 158.872 80.3132 158.83 80.7877C158.637 80.3565 158.511 79.898 158.457 79.4285C158.342 78.9735 158.267 78.5096 158.231 78.0418Z" fill="#EB996E"/>
<path d="M156.116 88.9101C155.837 88.5078 155.582 88.0894 155.352 87.6569C154.891 86.8737 154.237 85.814 153.476 84.6576C153.099 84.0771 152.725 83.5334 152.385 83.0405C152.104 82.6012 151.756 82.2093 151.353 81.8794C150.964 81.6007 150.503 81.4406 150.026 81.4187C150.151 81.3688 150.288 81.3544 150.422 81.3772C150.792 81.4141 151.145 81.5458 151.449 81.7596C151.886 82.0825 152.263 82.4784 152.564 82.9299C152.919 83.4183 153.297 83.9619 153.679 84.5424C154.439 85.6988 155.061 86.7862 155.499 87.5924C155.751 88.0084 155.958 88.4501 156.116 88.9101Z" fill="#EB996E"/>
<path d="M150.855 81.9487C150.892 81.9487 150.929 82.3127 151.113 82.8702C151.354 83.5927 151.748 84.2544 152.269 84.8098C152.591 85.0974 152.884 85.4152 153.145 85.7589C153.349 86.0665 153.461 86.4263 153.467 86.7956C153.498 87.1233 153.449 87.4536 153.324 87.7585C153.283 87.7585 153.348 87.3853 153.297 86.8094C153.271 86.4779 153.157 86.1595 152.965 85.8879C152.7 85.5579 152.409 85.2497 152.094 84.9665C151.546 84.3894 151.152 83.6823 150.952 82.9116C150.847 82.602 150.814 82.2729 150.855 81.9487Z" fill="#EB996E"/>
<path d="M146.257 75.42C146.188 75.42 146.257 74.3235 146.05 72.9966C145.842 71.6697 145.524 70.6193 145.626 70.6055C145.746 70.8121 145.839 71.0336 145.902 71.2643C146.081 71.8186 146.21 72.3874 146.289 72.9644C146.442 73.7769 146.431 74.6118 146.257 75.42Z" fill="#EB996E"/>
<path d="M202.014 199.429C202.014 199.493 156.789 199.655 101.009 199.784C45.2293 199.913 0 199.963 0 199.894C0 199.825 45.2155 199.673 101.009 199.544C156.803 199.415 202.014 199.36 202.014 199.429Z" fill="#263238"/>
</svg>
