<svg width="260" height="190" viewBox="0 0 260 190" fill="none" xmlns="http://www.w3.org/2000/svg">
<path d="M143 189.535C207.249 189.535 259.334 186.494 259.334 182.743C259.334 178.992 207.249 175.951 143 175.951C78.7505 175.951 26.666 178.992 26.666 182.743C26.666 186.494 78.7505 189.535 143 189.535Z" fill="#F5F5F5"/>
<path d="M101.27 96.4635C100.915 96.4402 100.581 96.2825 100.337 96.0223C100.094 95.7621 99.958 95.419 99.958 95.0625C99.958 94.706 100.094 94.3629 100.337 94.1027C100.581 93.8425 100.915 93.6848 101.27 93.6615C104.702 93.6615 107.594 88.7475 107.594 82.9275C107.618 82.5718 107.775 82.2382 108.035 81.9945C108.296 81.7508 108.639 81.6152 108.995 81.6152C109.352 81.6152 109.695 81.7508 109.955 81.9945C110.215 82.2382 110.373 82.5718 110.396 82.9275C110.396 90.5175 106.4 96.4635 101.27 96.4635Z" fill="#00C802"/>
<path d="M122.444 96.4635C122.088 96.4402 121.755 96.2825 121.511 96.0223C121.267 95.7621 121.132 95.419 121.132 95.0625C121.132 94.706 121.267 94.3629 121.511 94.1027C121.755 93.8425 122.088 93.6848 122.444 93.6615C125.876 93.6615 128.768 88.7475 128.768 82.9275C128.791 82.5718 128.949 82.2382 129.209 81.9945C129.469 81.7508 129.813 81.6152 130.169 81.6152C130.526 81.6152 130.869 81.7508 131.129 81.9945C131.389 82.2382 131.547 82.5718 131.57 82.9275C131.6 90.5175 127.562 96.4635 122.444 96.4635Z" fill="#00C802"/>
<path d="M143.6 96.4653C143.245 96.442 142.911 96.2842 142.667 96.024C142.424 95.7639 142.288 95.4207 142.288 95.0643C142.288 94.7078 142.424 94.3646 142.667 94.1045C142.911 93.8443 143.245 93.6865 143.6 93.6632C147.026 93.6632 149.924 88.7493 149.924 82.9293C149.924 82.5585 150.072 82.2029 150.334 81.9407C150.596 81.6785 150.952 81.5312 151.322 81.5312C151.693 81.5312 152.049 81.6785 152.311 81.9407C152.573 82.2029 152.72 82.5585 152.72 82.9293C152.738 90.5193 148.736 96.4653 143.6 96.4653Z" fill="#00C802"/>
<path d="M164.792 96.4652C164.6 96.4778 164.408 96.4509 164.227 96.3861C164.046 96.3214 163.88 96.2203 163.74 96.0889C163.6 95.9576 163.488 95.7989 163.412 95.6227C163.335 95.4464 163.296 95.2564 163.296 95.0643C163.296 94.8721 163.335 94.6821 163.412 94.5058C163.488 94.3296 163.6 94.1709 163.74 94.0395C163.88 93.9082 164.046 93.8071 164.227 93.7423C164.408 93.6776 164.6 93.6507 164.792 93.6632C168.218 93.6632 171.116 88.7492 171.116 82.9293C171.116 82.5585 171.263 82.2029 171.525 81.9407C171.787 81.6785 172.143 81.5312 172.514 81.5312C172.884 81.5312 173.24 81.6785 173.502 81.9407C173.764 82.2029 173.912 82.5585 173.912 82.9293C173.912 90.5192 169.904 96.4652 164.792 96.4652Z" fill="#00C802"/>
<path d="M185.96 96.4635C185.604 96.4402 185.27 96.2825 185.027 96.0223C184.783 95.7621 184.647 95.419 184.647 95.0625C184.647 94.706 184.783 94.3629 185.027 94.1027C185.27 93.8425 185.604 93.6848 185.96 93.6615C189.392 93.6615 192.284 88.7475 192.284 82.9275C192.307 82.5718 192.465 82.2382 192.725 81.9945C192.985 81.7508 193.328 81.6152 193.685 81.6152C194.041 81.6152 194.384 81.7508 194.645 81.9945C194.905 82.2382 195.062 82.5718 195.086 82.9275C195.086 90.5175 191.078 96.4635 185.96 96.4635Z" fill="#00C802"/>
<path d="M207.134 96.4635C206.778 96.4402 206.444 96.2825 206.201 96.0223C205.957 95.7621 205.821 95.419 205.821 95.0625C205.821 94.706 205.957 94.3629 206.201 94.1027C206.444 93.8425 206.778 93.6848 207.134 93.6615C210.56 93.6615 213.458 88.7475 213.458 82.9275C213.481 82.5718 213.639 82.2382 213.899 81.9945C214.159 81.7508 214.502 81.6152 214.859 81.6152C215.215 81.6152 215.558 81.7508 215.818 81.9945C216.079 82.2382 216.236 82.5718 216.26 82.9275C216.26 90.5175 212.252 96.4635 207.134 96.4635Z" fill="#00C802"/>
<g opacity="0.3">
<path opacity="0.3" d="M101.27 96.4655C100.915 96.4422 100.581 96.2844 100.337 96.0243C100.094 95.7641 99.958 95.421 99.958 95.0645C99.958 94.708 100.094 94.3648 100.337 94.1047C100.581 93.8445 100.915 93.6868 101.27 93.6635C104.702 93.6635 107.594 88.7495 107.594 82.9295C107.618 82.5737 107.775 82.2402 108.035 81.9965C108.296 81.7528 108.639 81.6172 108.995 81.6172C109.352 81.6172 109.695 81.7528 109.955 81.9965C110.215 82.2402 110.373 82.5737 110.396 82.9295C110.396 90.5195 106.4 96.4655 101.27 96.4655Z" fill="black"/>
<path opacity="0.3" d="M122.444 96.4655C122.088 96.4422 121.755 96.2844 121.511 96.0243C121.267 95.7641 121.132 95.421 121.132 95.0645C121.132 94.708 121.267 94.3648 121.511 94.1047C121.755 93.8445 122.088 93.6868 122.444 93.6635C125.876 93.6635 128.768 88.7495 128.768 82.9295C128.791 82.5737 128.949 82.2402 129.209 81.9965C129.469 81.7528 129.813 81.6172 130.169 81.6172C130.526 81.6172 130.869 81.7528 131.129 81.9965C131.389 82.2402 131.547 82.5737 131.57 82.9295C131.6 90.5195 127.562 96.4655 122.444 96.4655Z" fill="black"/>
<path opacity="0.3" d="M143.6 96.4653C143.245 96.442 142.911 96.2842 142.667 96.024C142.424 95.7639 142.288 95.4207 142.288 95.0643C142.288 94.7078 142.424 94.3646 142.667 94.1045C142.911 93.8443 143.245 93.6865 143.6 93.6632C147.026 93.6632 149.924 88.7493 149.924 82.9293C149.924 82.5585 150.072 82.2029 150.334 81.9407C150.596 81.6785 150.952 81.5312 151.322 81.5312C151.693 81.5312 152.049 81.6785 152.311 81.9407C152.573 82.2029 152.72 82.5585 152.72 82.9293C152.738 90.5193 148.736 96.4653 143.6 96.4653Z" fill="black"/>
<path opacity="0.3" d="M164.793 96.4652C164.601 96.4778 164.409 96.4509 164.228 96.3861C164.047 96.3214 163.881 96.2203 163.741 96.0889C163.601 95.9576 163.489 95.7989 163.413 95.6227C163.336 95.4464 163.297 95.2564 163.297 95.0643C163.297 94.8721 163.336 94.6821 163.413 94.5058C163.489 94.3296 163.601 94.1709 163.741 94.0395C163.881 93.9082 164.047 93.8071 164.228 93.7423C164.409 93.6776 164.601 93.6507 164.793 93.6632C168.219 93.6632 171.117 88.7492 171.117 82.9293C171.117 82.5585 171.264 82.2029 171.526 81.9407C171.788 81.6785 172.144 81.5312 172.515 81.5312C172.885 81.5312 173.241 81.6785 173.503 81.9407C173.765 82.2029 173.913 82.5585 173.913 82.9293C173.913 90.5192 169.905 96.4652 164.793 96.4652Z" fill="black"/>
<path opacity="0.3" d="M185.961 96.4655C185.605 96.4422 185.271 96.2844 185.028 96.0243C184.784 95.7641 184.648 95.421 184.648 95.0645C184.648 94.708 184.784 94.3648 185.028 94.1047C185.271 93.8445 185.605 93.6868 185.961 93.6635C189.393 93.6635 192.285 88.7495 192.285 82.9295C192.308 82.5737 192.466 82.2402 192.726 81.9965C192.986 81.7528 193.329 81.6172 193.686 81.6172C194.042 81.6172 194.385 81.7528 194.645 81.9965C194.906 82.2402 195.063 82.5737 195.087 82.9295C195.087 90.5195 191.079 96.4655 185.961 96.4655Z" fill="black"/>
<path opacity="0.3" d="M207.135 96.4655C206.779 96.4422 206.445 96.2844 206.202 96.0243C205.958 95.7641 205.822 95.421 205.822 95.0645C205.822 94.708 205.958 94.3648 206.202 94.1047C206.445 93.8445 206.779 93.6868 207.135 93.6635C210.561 93.6635 213.459 88.7495 213.459 82.9295C213.482 82.5737 213.64 82.2402 213.9 81.9965C214.16 81.7528 214.503 81.6172 214.86 81.6172C215.216 81.6172 215.559 81.7528 215.819 81.9965C216.079 82.2402 216.237 82.5737 216.261 82.9295C216.261 90.5195 212.253 96.4655 207.135 96.4655Z" fill="black"/>
</g>
<path d="M88.0041 84.3621H224.312C226.14 84.3987 227.891 85.1009 229.238 86.3371C230.584 87.5732 231.434 89.2583 231.626 91.0761L239.174 176.174C239.266 177.028 239.175 177.892 238.909 178.708C238.642 179.524 238.204 180.274 237.626 180.909C237.047 181.544 236.341 182.048 235.553 182.39C234.764 182.731 233.913 182.901 233.054 182.888H96.7401C94.9133 182.849 93.1633 182.146 91.8172 180.91C90.4711 179.674 89.6211 177.991 89.4261 176.174L81.8841 91.0761C81.7913 90.222 81.8811 89.358 82.1476 88.5413C82.4142 87.7246 82.8513 86.9739 83.43 86.339C84.0088 85.7041 84.7159 85.1994 85.5045 84.8586C86.2931 84.5178 87.1451 84.3485 88.0041 84.3621Z" fill="#00C802"/>
<path opacity="0.4" d="M88.0041 84.3621H224.312C226.14 84.3987 227.891 85.1009 229.238 86.3371C230.584 87.5732 231.434 89.2583 231.626 91.0761L239.174 176.174C239.266 177.028 239.175 177.892 238.909 178.708C238.642 179.524 238.204 180.274 237.626 180.909C237.047 181.544 236.341 182.048 235.553 182.39C234.764 182.731 233.913 182.901 233.054 182.888H96.7401C94.9133 182.849 93.1633 182.146 91.8172 180.91C90.4711 179.674 89.6211 177.991 89.4261 176.174L81.8841 91.0761C81.7913 90.222 81.8811 89.358 82.1476 88.5413C82.4142 87.7246 82.8513 86.9739 83.43 86.339C84.0088 85.7041 84.7159 85.1994 85.5045 84.8586C86.2931 84.5178 87.1451 84.3485 88.0041 84.3621Z" fill="#FAFAFA"/>
<path d="M223.178 84.3634H86.864C85.061 84.3849 83.3333 85.09 82.0302 86.3363C80.7271 87.5826 79.9457 89.2771 79.844 91.0774L76.004 176.175C75.9582 177.042 76.09 177.909 76.3911 178.724C76.6922 179.538 77.1564 180.282 77.7552 180.911C78.354 181.539 79.0748 182.039 79.8734 182.379C80.6721 182.719 81.5319 182.893 82.4 182.889H218.726C220.529 182.868 222.257 182.163 223.56 180.917C224.863 179.67 225.644 177.976 225.746 176.175L229.592 91.0774C229.637 90.2092 229.504 89.3409 229.202 88.5258C228.899 87.7107 228.433 86.9661 227.833 86.3374C227.232 85.7088 226.509 85.2094 225.709 84.87C224.909 84.5305 224.047 84.3581 223.178 84.3634Z" fill="#00C802"/>
<path opacity="0.2" d="M223.178 84.3634H86.864C85.061 84.3849 83.3333 85.09 82.0302 86.3363C80.7271 87.5826 79.9457 89.2771 79.844 91.0774L76.004 176.175C75.9582 177.042 76.09 177.909 76.3911 178.724C76.6922 179.538 77.1564 180.282 77.7552 180.911C78.354 181.539 79.0748 182.039 79.8734 182.379C80.6721 182.719 81.5319 182.893 82.4 182.889H218.726C220.529 182.868 222.257 182.163 223.56 180.917C224.863 179.67 225.644 177.976 225.746 176.175L229.592 91.0774C229.637 90.2092 229.504 89.3409 229.202 88.5258C228.899 87.7107 228.433 86.9661 227.833 86.3374C227.232 85.7088 226.509 85.2094 225.709 84.87C224.909 84.5305 224.047 84.3581 223.178 84.3634Z" fill="#FAFAFA"/>
<path d="M89.3656 160.401L92.5396 90.1227C92.5776 89.4333 92.8766 88.7843 93.3759 88.3073C93.8751 87.8304 94.5371 87.5613 95.2276 87.5547H214.526C214.858 87.5527 215.188 87.6185 215.494 87.7483C215.8 87.8781 216.077 88.0691 216.306 88.3096C216.536 88.55 216.714 88.8349 216.83 89.1467C216.946 89.4584 216.997 89.7906 216.98 90.1227L213.8 160.401C213.761 161.09 213.462 161.739 212.963 162.216C212.464 162.693 211.802 162.962 211.112 162.969H91.8196C91.487 162.971 91.1575 162.905 90.8513 162.775C90.5451 162.645 90.2686 162.454 90.0388 162.214C89.809 161.973 89.6308 161.689 89.515 161.377C89.3993 161.065 89.3484 160.733 89.3656 160.401Z" fill="#00C802"/>
<path opacity="0.1" d="M89.3656 160.401L92.5396 90.1227C92.5776 89.4333 92.8766 88.7843 93.3759 88.3073C93.8751 87.8304 94.5371 87.5613 95.2276 87.5547H214.526C214.858 87.5527 215.188 87.6185 215.494 87.7483C215.8 87.8781 216.077 88.0691 216.306 88.3096C216.536 88.55 216.714 88.8349 216.83 89.1467C216.946 89.4584 216.997 89.7906 216.98 90.1227L213.8 160.401C213.761 161.09 213.462 161.739 212.963 162.216C212.464 162.693 211.802 162.962 211.112 162.969H91.8196C91.487 162.971 91.1575 162.905 90.8513 162.775C90.5451 162.645 90.2686 162.454 90.0388 162.214C89.809 161.973 89.6308 161.689 89.515 161.377C89.3993 161.065 89.3484 160.733 89.3656 160.401Z" fill="#FAFAFA"/>
<path opacity="0.1" d="M85.9995 166.137L89.3295 92.3367C89.3678 91.6128 89.6809 90.9309 90.205 90.4302C90.7292 89.9295 91.4247 89.6478 92.1495 89.6427H217.43C217.779 89.6397 218.125 89.7083 218.446 89.8442C218.768 89.9801 219.058 90.1804 219.299 90.4328C219.541 90.6853 219.727 90.9844 219.849 91.3118C219.97 91.6393 220.022 91.9881 220.004 92.3367L216.668 166.137C216.629 166.86 216.317 167.542 215.795 168.043C215.272 168.545 214.578 168.829 213.854 168.837H88.5615C88.2127 168.839 87.867 168.77 87.546 168.633C87.225 168.496 86.9355 168.295 86.6953 168.042C86.4552 167.789 86.2695 167.489 86.1498 167.161C86.0302 166.834 85.979 166.485 85.9995 166.137Z" fill="black"/>
<path d="M82.9036 172.089L86.3777 95.109C86.4243 94.3563 86.7527 93.6488 87.2975 93.1273C87.8424 92.6058 88.5636 92.3087 89.3177 92.295H220.004C220.368 92.292 220.73 92.3637 221.065 92.5057C221.401 92.6477 221.704 92.857 221.956 93.1207C222.208 93.3843 222.403 93.6968 222.53 94.0387C222.656 94.3807 222.711 94.7449 222.692 95.109L219.2 172.089C219.153 172.842 218.825 173.549 218.28 174.071C217.735 174.592 217.014 174.889 216.26 174.903H85.5917C85.2268 174.907 84.8651 174.836 84.5288 174.694C84.1926 174.552 83.8891 174.343 83.6371 174.079C83.385 173.815 83.1899 173.503 83.0637 173.16C82.9376 172.818 82.8831 172.453 82.9036 172.089Z" fill="#FAFAFA"/>
<path d="M207.116 96.9092C206.87 96.9096 206.627 96.8598 206.401 96.7626C206.175 96.6655 205.972 96.5232 205.803 96.3444C205.635 96.1656 205.504 95.9542 205.42 95.7232C205.337 95.4922 205.301 95.2465 205.316 95.0012C205.339 94.5198 205.545 94.0654 205.891 93.7308C206.238 93.3962 206.7 93.2067 207.182 93.2012C207.427 93.2007 207.671 93.2506 207.896 93.3478C208.122 93.4449 208.326 93.5872 208.494 93.766C208.663 93.9447 208.793 94.1561 208.877 94.3871C208.961 94.6181 208.996 94.8639 208.982 95.1092C208.959 95.5906 208.753 96.045 208.406 96.3796C208.059 96.7142 207.598 96.9036 207.116 96.9092Z" fill="#00C802"/>
<path d="M185.942 96.9092C185.696 96.9096 185.453 96.8598 185.227 96.7626C185.001 96.6655 184.798 96.5232 184.629 96.3444C184.461 96.1656 184.33 95.9542 184.247 95.7232C184.163 95.4922 184.127 95.2465 184.142 95.0012C184.165 94.5198 184.371 94.0654 184.718 93.7308C185.064 93.3962 185.526 93.2067 186.008 93.2012C186.254 93.2007 186.497 93.2506 186.723 93.3478C186.948 93.4449 187.152 93.5872 187.32 93.766C187.489 93.9447 187.619 94.1561 187.703 94.3871C187.787 94.6181 187.823 94.8639 187.808 95.1092C187.786 95.5911 187.581 96.0463 187.234 96.3812C186.887 96.7161 186.424 96.9051 185.942 96.9092Z" fill="#00C802"/>
<path d="M164.768 96.9092C164.522 96.9096 164.279 96.8598 164.053 96.7626C163.828 96.6655 163.624 96.5232 163.456 96.3444C163.287 96.1656 163.157 95.9542 163.073 95.7232C162.989 95.4922 162.953 95.2465 162.968 95.0012C162.992 94.5203 163.199 94.0667 163.545 93.7324C163.892 93.3981 164.353 93.2082 164.834 93.2012C165.08 93.2007 165.323 93.2506 165.549 93.3478C165.775 93.4449 165.978 93.5872 166.147 93.766C166.315 93.9447 166.446 94.1561 166.529 94.3871C166.613 94.6181 166.649 94.8639 166.634 95.1092C166.613 95.5911 166.407 96.0463 166.06 96.3812C165.713 96.7161 165.25 96.9051 164.768 96.9092Z" fill="#00C802"/>
<path d="M143.6 96.9092C143.354 96.9096 143.111 96.8598 142.885 96.7626C142.66 96.6655 142.456 96.5232 142.288 96.3444C142.119 96.1656 141.989 95.9542 141.905 95.7232C141.821 95.4922 141.785 95.2465 141.8 95.0012C141.826 94.5198 142.034 94.0661 142.381 93.732C142.729 93.3978 143.19 93.2081 143.672 93.2012C143.918 93.2007 144.161 93.2506 144.387 93.3478C144.613 93.4449 144.816 93.5872 144.985 93.766C145.153 93.9447 145.284 94.1561 145.367 94.3871C145.451 94.6181 145.487 94.8639 145.472 95.1092C145.451 95.5921 145.244 96.0482 144.896 96.3833C144.547 96.7183 144.083 96.9066 143.6 96.9092Z" fill="#00C802"/>
<path d="M122.426 96.9092C122.181 96.9096 121.937 96.8598 121.712 96.7626C121.486 96.6655 121.282 96.5232 121.114 96.3444C120.945 96.1656 120.815 95.9542 120.731 95.7232C120.647 95.4922 120.612 95.2465 120.626 95.0012C120.649 94.5198 120.855 94.0654 121.202 93.7308C121.549 93.3962 122.01 93.2067 122.492 93.2012C122.738 93.2007 122.981 93.2506 123.207 93.3478C123.433 93.4449 123.636 93.5872 123.805 93.766C123.973 93.9447 124.104 94.1561 124.188 94.3871C124.271 94.6181 124.307 94.8639 124.292 95.1092C124.269 95.5906 124.063 96.045 123.717 96.3796C123.37 96.7142 122.908 96.9036 122.426 96.9092Z" fill="#00C802"/>
<path d="M101.252 96.9092C101.007 96.9096 100.763 96.8598 100.538 96.7626C100.312 96.6655 100.109 96.5232 99.9399 96.3444C99.7713 96.1656 99.641 95.9542 99.5572 95.7232C99.4734 95.4922 99.4377 95.2465 99.4525 95.0012C99.4754 94.5198 99.6813 94.0654 100.028 93.7308C100.375 93.3962 100.837 93.2067 101.318 93.2012C101.564 93.2007 101.807 93.2506 102.033 93.3478C102.259 93.4449 102.462 93.5872 102.631 93.766C102.8 93.9447 102.93 94.1561 103.014 94.3871C103.098 94.6181 103.133 94.8639 103.118 95.1092C103.097 95.5911 102.891 96.0463 102.544 96.3812C102.197 96.7161 101.735 96.9051 101.252 96.9092Z" fill="#00C802"/>
<g opacity="0.1">
<path opacity="0.1" d="M207.117 96.9092C206.871 96.9096 206.628 96.8598 206.402 96.7626C206.176 96.6655 205.973 96.5232 205.804 96.3444C205.636 96.1656 205.505 95.9542 205.421 95.7232C205.338 95.4922 205.302 95.2465 205.317 95.0012C205.34 94.5198 205.546 94.0654 205.892 93.7308C206.239 93.3962 206.701 93.2067 207.183 93.2012C207.428 93.2007 207.672 93.2506 207.897 93.3478C208.123 93.4449 208.327 93.5872 208.495 93.766C208.664 93.9447 208.794 94.1561 208.878 94.3871C208.962 94.6181 208.997 94.8639 208.983 95.1092C208.96 95.5906 208.754 96.045 208.407 96.3796C208.06 96.7142 207.599 96.9036 207.117 96.9092Z" fill="#FAFAFA"/>
<path opacity="0.1" d="M185.943 96.9092C185.697 96.9096 185.454 96.8598 185.228 96.7626C185.002 96.6655 184.799 96.5232 184.63 96.3444C184.462 96.1656 184.331 95.9542 184.248 95.7232C184.164 95.4922 184.128 95.2465 184.143 95.0012C184.166 94.5198 184.372 94.0654 184.719 93.7308C185.065 93.3962 185.527 93.2067 186.009 93.2012C186.255 93.2007 186.498 93.2506 186.724 93.3478C186.949 93.4449 187.153 93.5872 187.321 93.766C187.49 93.9447 187.62 94.1561 187.704 94.3871C187.788 94.6181 187.824 94.8639 187.809 95.1092C187.787 95.5911 187.582 96.0463 187.235 96.3812C186.888 96.7161 186.425 96.9051 185.943 96.9092Z" fill="#FAFAFA"/>
<path opacity="0.1" d="M164.768 96.9092C164.522 96.9096 164.279 96.8598 164.053 96.7626C163.828 96.6655 163.624 96.5232 163.456 96.3444C163.287 96.1656 163.157 95.9542 163.073 95.7232C162.989 95.4922 162.953 95.2465 162.968 95.0012C162.992 94.5203 163.199 94.0667 163.545 93.7324C163.892 93.3981 164.353 93.2082 164.834 93.2012C165.08 93.2007 165.323 93.2506 165.549 93.3478C165.775 93.4449 165.978 93.5872 166.147 93.766C166.315 93.9447 166.446 94.1561 166.529 94.3871C166.613 94.6181 166.649 94.8639 166.634 95.1092C166.613 95.5911 166.407 96.0463 166.06 96.3812C165.713 96.7161 165.25 96.9051 164.768 96.9092Z" fill="#FAFAFA"/>
<path opacity="0.1" d="M143.6 96.9092C143.354 96.9096 143.111 96.8598 142.885 96.7626C142.66 96.6655 142.456 96.5232 142.288 96.3444C142.119 96.1656 141.989 95.9542 141.905 95.7232C141.821 95.4922 141.785 95.2465 141.8 95.0012C141.826 94.5198 142.034 94.0661 142.381 93.732C142.729 93.3978 143.19 93.2081 143.672 93.2012C143.918 93.2007 144.161 93.2506 144.387 93.3478C144.613 93.4449 144.816 93.5872 144.985 93.766C145.153 93.9447 145.284 94.1561 145.367 94.3871C145.451 94.6181 145.487 94.8639 145.472 95.1092C145.451 95.5921 145.244 96.0482 144.896 96.3833C144.547 96.7183 144.083 96.9066 143.6 96.9092Z" fill="#FAFAFA"/>
<path opacity="0.1" d="M122.426 96.9092C122.181 96.9096 121.937 96.8598 121.712 96.7626C121.486 96.6655 121.282 96.5232 121.114 96.3444C120.945 96.1656 120.815 95.9542 120.731 95.7232C120.647 95.4922 120.612 95.2465 120.626 95.0012C120.649 94.5198 120.855 94.0654 121.202 93.7308C121.549 93.3962 122.01 93.2067 122.492 93.2012C122.738 93.2007 122.981 93.2506 123.207 93.3478C123.433 93.4449 123.636 93.5872 123.805 93.766C123.973 93.9447 124.104 94.1561 124.188 94.3871C124.271 94.6181 124.307 94.8639 124.292 95.1092C124.269 95.5906 124.063 96.045 123.717 96.3796C123.37 96.7142 122.908 96.9036 122.426 96.9092Z" fill="#FAFAFA"/>
<path opacity="0.1" d="M101.252 96.9092C101.007 96.9096 100.763 96.8598 100.538 96.7626C100.312 96.6655 100.109 96.5232 99.9399 96.3444C99.7713 96.1656 99.641 95.9542 99.5572 95.7232C99.4734 95.4922 99.4377 95.2465 99.4525 95.0012C99.4754 94.5198 99.6813 94.0654 100.028 93.7308C100.375 93.3962 100.837 93.2067 101.318 93.2012C101.564 93.2007 101.807 93.2506 102.033 93.3478C102.259 93.4449 102.462 93.5872 102.631 93.766C102.8 93.9447 102.93 94.1561 103.014 94.3871C103.098 94.6181 103.133 94.8639 103.118 95.1092C103.097 95.5911 102.891 96.0463 102.544 96.3812C102.197 96.7161 101.735 96.9051 101.252 96.9092Z" fill="#FAFAFA"/>
</g>
<path d="M106.544 103.617H95.8937C95.7393 103.618 95.5863 103.587 95.4444 103.526C95.3025 103.466 95.1748 103.376 95.0694 103.263C94.9639 103.15 94.883 103.017 94.8318 102.871C94.7805 102.726 94.7601 102.571 94.7717 102.417C94.7836 102.102 94.9138 101.804 95.1364 101.581C95.3589 101.359 95.6573 101.229 95.9717 101.217H106.622C106.776 101.216 106.929 101.246 107.071 101.307C107.213 101.368 107.341 101.458 107.446 101.571C107.552 101.683 107.632 101.817 107.684 101.963C107.735 102.108 107.755 102.263 107.744 102.417C107.732 102.731 107.602 103.03 107.379 103.252C107.157 103.475 106.858 103.605 106.544 103.617Z" fill="#00C802"/>
<path d="M127.718 103.617H117.068C116.913 103.618 116.76 103.587 116.618 103.526C116.476 103.466 116.349 103.376 116.243 103.263C116.138 103.15 116.057 103.017 116.006 102.871C115.954 102.726 115.934 102.571 115.946 102.417C115.958 102.097 116.092 101.795 116.321 101.571C116.55 101.348 116.856 101.221 117.176 101.217H127.82C127.974 101.216 128.127 101.246 128.27 101.307C128.412 101.368 128.54 101.458 128.646 101.57C128.752 101.683 128.833 101.816 128.885 101.962C128.937 102.108 128.958 102.263 128.948 102.417C128.935 102.736 128.801 103.039 128.572 103.262C128.343 103.486 128.037 103.612 127.718 103.617Z" fill="#00C802"/>
<path d="M148.892 103.617H138.242C138.087 103.618 137.934 103.587 137.792 103.526C137.65 103.466 137.522 103.376 137.416 103.263C137.31 103.151 137.228 103.017 137.176 102.872C137.125 102.726 137.103 102.571 137.114 102.417C137.126 102.097 137.261 101.795 137.49 101.571C137.718 101.348 138.024 101.221 138.344 101.217H149C149.154 101.216 149.307 101.246 149.449 101.307C149.591 101.368 149.719 101.458 149.824 101.571C149.93 101.683 150.011 101.817 150.062 101.963C150.113 102.108 150.134 102.263 150.122 102.417C150.111 102.737 149.977 103.04 149.748 103.264C149.519 103.487 149.212 103.614 148.892 103.617Z" fill="#00C802"/>
<path d="M170.06 103.617H159.41C159.256 103.618 159.103 103.587 158.961 103.526C158.819 103.466 158.691 103.376 158.586 103.263C158.481 103.15 158.4 103.017 158.348 102.871C158.297 102.726 158.277 102.571 158.288 102.417C158.3 102.102 158.43 101.804 158.653 101.581C158.875 101.359 159.174 101.229 159.488 101.217H170.138C170.293 101.216 170.446 101.246 170.588 101.307C170.73 101.368 170.857 101.458 170.963 101.571C171.068 101.683 171.149 101.817 171.2 101.963C171.251 102.108 171.272 102.263 171.26 102.417C171.248 102.731 171.118 103.03 170.896 103.252C170.673 103.475 170.375 103.605 170.06 103.617Z" fill="#00C802"/>
<path d="M191.234 103.617H180.584C180.43 103.618 180.277 103.587 180.135 103.526C179.993 103.466 179.865 103.376 179.76 103.263C179.654 103.15 179.573 103.017 179.522 102.871C179.471 102.726 179.451 102.571 179.462 102.417C179.474 102.097 179.609 101.795 179.838 101.571C180.067 101.348 180.372 101.221 180.692 101.217H191.342C191.497 101.216 191.65 101.246 191.791 101.307C191.933 101.368 192.061 101.458 192.167 101.571C192.272 101.683 192.353 101.817 192.404 101.963C192.455 102.108 192.476 102.263 192.464 102.417C192.452 102.736 192.317 103.039 192.089 103.262C191.86 103.486 191.554 103.612 191.234 103.617Z" fill="#00C802"/>
<path d="M212.408 103.617H201.758C201.604 103.618 201.451 103.587 201.309 103.526C201.167 103.466 201.039 103.376 200.934 103.263C200.828 103.15 200.747 103.017 200.696 102.871C200.645 102.726 200.624 102.571 200.636 102.417C200.648 102.097 200.783 101.795 201.012 101.571C201.24 101.348 201.546 101.221 201.866 101.217H212.51C212.665 101.216 212.818 101.246 212.96 101.307C213.102 101.368 213.23 101.458 213.336 101.57C213.442 101.683 213.524 101.816 213.576 101.962C213.627 102.108 213.649 102.263 213.638 102.417C213.626 102.736 213.491 103.039 213.262 103.262C213.034 103.486 212.728 103.612 212.408 103.617Z" fill="#00C802"/>
<g opacity="0.3">
<path opacity="0.3" d="M106.544 103.617H95.8937C95.7393 103.618 95.5863 103.587 95.4444 103.526C95.3025 103.466 95.1748 103.376 95.0694 103.263C94.9639 103.15 94.883 103.017 94.8318 102.871C94.7805 102.726 94.7601 102.571 94.7717 102.417C94.7836 102.102 94.9138 101.804 95.1364 101.581C95.3589 101.359 95.6573 101.229 95.9717 101.217H106.622C106.776 101.216 106.929 101.246 107.071 101.307C107.213 101.368 107.341 101.458 107.446 101.571C107.552 101.683 107.632 101.817 107.684 101.963C107.735 102.108 107.755 102.263 107.744 102.417C107.732 102.731 107.602 103.03 107.379 103.252C107.157 103.475 106.858 103.605 106.544 103.617Z" fill="black"/>
<path opacity="0.3" d="M127.718 103.617H117.068C116.913 103.618 116.76 103.587 116.618 103.526C116.476 103.466 116.349 103.376 116.243 103.263C116.138 103.15 116.057 103.017 116.006 102.871C115.954 102.726 115.934 102.571 115.946 102.417C115.958 102.097 116.092 101.795 116.321 101.571C116.55 101.348 116.856 101.221 117.176 101.217H127.82C127.974 101.216 128.127 101.246 128.27 101.307C128.412 101.368 128.54 101.458 128.646 101.57C128.752 101.683 128.833 101.816 128.885 101.962C128.937 102.108 128.958 102.263 128.948 102.417C128.935 102.736 128.801 103.039 128.572 103.262C128.343 103.486 128.037 103.612 127.718 103.617Z" fill="black"/>
<path opacity="0.3" d="M148.892 103.617H138.242C138.087 103.618 137.934 103.587 137.792 103.526C137.65 103.466 137.522 103.376 137.416 103.263C137.31 103.151 137.228 103.017 137.176 102.872C137.125 102.726 137.103 102.571 137.114 102.417C137.126 102.097 137.261 101.795 137.49 101.571C137.718 101.348 138.024 101.221 138.344 101.217H149C149.154 101.216 149.307 101.246 149.449 101.307C149.591 101.368 149.719 101.458 149.824 101.571C149.93 101.683 150.011 101.817 150.062 101.963C150.113 102.108 150.134 102.263 150.122 102.417C150.111 102.737 149.977 103.04 149.748 103.264C149.519 103.487 149.212 103.614 148.892 103.617Z" fill="black"/>
<path opacity="0.3" d="M170.059 103.617H159.409C159.255 103.618 159.102 103.587 158.96 103.526C158.818 103.466 158.69 103.376 158.585 103.263C158.48 103.15 158.399 103.017 158.347 102.871C158.296 102.726 158.276 102.571 158.287 102.417C158.299 102.102 158.429 101.804 158.652 101.581C158.875 101.359 159.173 101.229 159.487 101.217H170.137C170.292 101.216 170.445 101.246 170.587 101.307C170.729 101.368 170.856 101.458 170.962 101.571C171.067 101.683 171.148 101.817 171.199 101.963C171.251 102.108 171.271 102.263 171.259 102.417C171.247 102.731 171.117 103.03 170.895 103.252C170.672 103.475 170.374 103.605 170.059 103.617Z" fill="black"/>
<path opacity="0.3" d="M191.234 103.617H180.584C180.43 103.618 180.277 103.587 180.135 103.526C179.993 103.466 179.865 103.376 179.76 103.263C179.654 103.15 179.573 103.017 179.522 102.871C179.471 102.726 179.451 102.571 179.462 102.417C179.474 102.097 179.609 101.795 179.838 101.571C180.067 101.348 180.372 101.221 180.692 101.217H191.342C191.497 101.216 191.65 101.246 191.791 101.307C191.933 101.368 192.061 101.458 192.167 101.571C192.272 101.683 192.353 101.817 192.404 101.963C192.455 102.108 192.476 102.263 192.464 102.417C192.452 102.736 192.317 103.039 192.089 103.262C191.86 103.486 191.554 103.612 191.234 103.617Z" fill="black"/>
<path opacity="0.3" d="M212.408 103.617H201.758C201.604 103.618 201.451 103.587 201.309 103.526C201.167 103.466 201.039 103.376 200.934 103.263C200.828 103.15 200.747 103.017 200.696 102.871C200.645 102.726 200.624 102.571 200.636 102.417C200.648 102.097 200.783 101.795 201.012 101.571C201.24 101.348 201.546 101.221 201.866 101.217H212.51C212.665 101.216 212.818 101.246 212.96 101.307C213.102 101.368 213.23 101.458 213.336 101.57C213.442 101.683 213.524 101.816 213.576 101.962C213.627 102.108 213.649 102.263 213.638 102.417C213.626 102.736 213.491 103.039 213.262 103.262C213.034 103.486 212.728 103.612 212.408 103.617Z" fill="black"/>
</g>
<path d="M107.132 126.279H93.2596C92.9554 126.28 92.6541 126.22 92.3741 126.1C92.0942 125.981 91.8415 125.806 91.6314 125.586C91.4214 125.366 91.2585 125.105 91.1526 124.82C91.0467 124.535 91.0001 124.231 91.0156 123.927L91.6156 110.055C91.652 109.425 91.9261 108.831 92.3826 108.395C92.8391 107.958 93.4441 107.711 94.0756 107.703H107.948C108.252 107.702 108.553 107.763 108.833 107.882C109.113 108.001 109.366 108.176 109.576 108.396C109.786 108.616 109.949 108.877 110.055 109.162C110.16 109.447 110.207 109.751 110.192 110.055L109.592 123.927C109.554 124.557 109.279 125.15 108.823 125.586C108.367 126.022 107.763 126.27 107.132 126.279Z" fill="#00C802"/>
<path d="M128.306 126.279H114.434C114.129 126.281 113.828 126.221 113.547 126.102C113.267 125.983 113.014 125.808 112.804 125.588C112.593 125.368 112.431 125.107 112.325 124.821C112.219 124.535 112.173 124.231 112.19 123.927L112.79 110.055C112.826 109.425 113.1 108.831 113.557 108.395C114.013 107.958 114.618 107.711 115.25 107.703H129.14C129.444 107.702 129.746 107.763 130.026 107.882C130.306 108.001 130.559 108.176 130.77 108.396C130.98 108.616 131.144 108.877 131.25 109.162C131.357 109.447 131.404 109.751 131.39 110.055L130.76 123.927C130.725 124.557 130.452 125.15 129.997 125.587C129.541 126.024 128.937 126.271 128.306 126.279Z" fill="#00C802"/>
<path d="M149.474 126.279H135.608C135.304 126.28 135.002 126.22 134.722 126.1C134.442 125.981 134.188 125.806 133.978 125.586C133.767 125.366 133.604 125.106 133.497 124.821C133.391 124.535 133.343 124.231 133.358 123.927L133.958 110.055C133.994 109.425 134.269 108.831 134.725 108.395C135.182 107.958 135.787 107.711 136.418 107.703H150.284C150.589 107.701 150.89 107.761 151.171 107.88C151.451 107.999 151.704 108.174 151.914 108.394C152.124 108.615 152.287 108.876 152.393 109.161C152.498 109.447 152.544 109.751 152.528 110.055L151.928 123.927C151.892 124.557 151.619 125.149 151.163 125.585C150.708 126.022 150.105 126.27 149.474 126.279Z" fill="#00C802"/>
<path d="M170.648 126.279H156.8C156.495 126.281 156.193 126.221 155.912 126.102C155.632 125.983 155.378 125.808 155.168 125.588C154.957 125.368 154.794 125.107 154.687 124.821C154.581 124.536 154.534 124.231 154.55 123.927L155.15 110.055C155.185 109.425 155.457 108.832 155.913 108.395C156.369 107.959 156.973 107.711 157.604 107.703H171.476C171.78 107.702 172.081 107.763 172.361 107.882C172.641 108.001 172.894 108.176 173.104 108.396C173.314 108.616 173.477 108.877 173.583 109.162C173.689 109.447 173.735 109.751 173.72 110.055L173.12 123.927C173.083 124.56 172.807 125.155 172.348 125.591C171.889 126.028 171.281 126.274 170.648 126.279Z" fill="#00C802"/>
<path d="M191.822 126.279H177.95C177.646 126.28 177.344 126.22 177.065 126.1C176.785 125.981 176.532 125.806 176.322 125.586C176.112 125.366 175.949 125.105 175.843 124.82C175.737 124.535 175.691 124.231 175.706 123.927L176.306 110.055C176.342 109.425 176.616 108.831 177.073 108.395C177.529 107.958 178.134 107.711 178.766 107.703H192.632C192.937 107.701 193.239 107.761 193.519 107.88C193.8 107.999 194.053 108.174 194.264 108.394C194.475 108.614 194.638 108.875 194.745 109.161C194.851 109.446 194.898 109.751 194.882 110.055L194.282 123.927C194.244 124.557 193.97 125.15 193.514 125.586C193.057 126.022 192.453 126.27 191.822 126.279Z" fill="#00C802"/>
<path d="M212.99 126.279H199.124C198.82 126.281 198.518 126.221 198.238 126.102C197.957 125.983 197.704 125.808 197.494 125.588C197.284 125.368 197.121 125.107 197.015 124.821C196.91 124.535 196.864 124.231 196.88 123.927L197.48 110.055C197.517 109.425 197.791 108.831 198.247 108.395C198.704 107.958 199.309 107.711 199.94 107.703H213.806C214.111 107.702 214.412 107.763 214.692 107.882C214.973 108.001 215.226 108.176 215.436 108.396C215.647 108.616 215.81 108.877 215.917 109.162C216.023 109.447 216.071 109.751 216.056 110.055L215.426 123.927C215.392 124.554 215.121 125.145 214.67 125.581C214.218 126.017 213.618 126.266 212.99 126.279Z" fill="#00C802"/>
<g opacity="0.8">
<path opacity="0.8" d="M107.132 126.279H93.2596C92.9554 126.28 92.6541 126.22 92.3741 126.1C92.0942 125.981 91.8415 125.806 91.6314 125.586C91.4214 125.366 91.2585 125.105 91.1526 124.82C91.0467 124.535 91.0001 124.231 91.0156 123.927L91.6156 110.055C91.652 109.425 91.9261 108.831 92.3826 108.395C92.8391 107.958 93.4441 107.711 94.0756 107.703H107.948C108.252 107.702 108.553 107.763 108.833 107.882C109.113 108.001 109.366 108.176 109.576 108.396C109.786 108.616 109.949 108.877 110.055 109.162C110.16 109.447 110.207 109.751 110.192 110.055L109.592 123.927C109.554 124.557 109.279 125.15 108.823 125.586C108.367 126.022 107.763 126.27 107.132 126.279Z" fill="#FAFAFA"/>
<path opacity="0.8" d="M128.306 126.279H114.434C114.129 126.281 113.828 126.221 113.547 126.102C113.267 125.983 113.014 125.808 112.804 125.588C112.593 125.368 112.431 125.107 112.325 124.821C112.219 124.535 112.173 124.231 112.19 123.927L112.79 110.055C112.826 109.425 113.1 108.831 113.557 108.395C114.013 107.958 114.618 107.711 115.25 107.703H129.14C129.444 107.702 129.746 107.763 130.026 107.882C130.306 108.001 130.559 108.176 130.77 108.396C130.98 108.616 131.144 108.877 131.25 109.162C131.357 109.447 131.404 109.751 131.39 110.055L130.76 123.927C130.725 124.557 130.452 125.15 129.997 125.587C129.541 126.024 128.937 126.271 128.306 126.279Z" fill="#FAFAFA"/>
<path opacity="0.8" d="M149.474 126.279H135.608C135.304 126.28 135.002 126.22 134.722 126.1C134.442 125.981 134.188 125.806 133.978 125.586C133.767 125.366 133.604 125.106 133.497 124.821C133.391 124.535 133.343 124.231 133.358 123.927L133.958 110.055C133.994 109.425 134.269 108.831 134.725 108.395C135.182 107.958 135.787 107.711 136.418 107.703H150.284C150.589 107.701 150.89 107.761 151.171 107.88C151.451 107.999 151.704 108.174 151.914 108.394C152.124 108.615 152.287 108.876 152.393 109.161C152.498 109.447 152.544 109.751 152.528 110.055L151.928 123.927C151.892 124.557 151.619 125.149 151.163 125.585C150.708 126.022 150.105 126.27 149.474 126.279Z" fill="#FAFAFA"/>
<path opacity="0.8" d="M170.648 126.279H156.8C156.495 126.281 156.193 126.221 155.912 126.102C155.632 125.983 155.378 125.808 155.168 125.588C154.957 125.368 154.794 125.107 154.687 124.821C154.581 124.536 154.534 124.231 154.55 123.927L155.15 110.055C155.185 109.425 155.457 108.832 155.913 108.395C156.369 107.959 156.973 107.711 157.604 107.703H171.476C171.78 107.702 172.081 107.763 172.361 107.882C172.641 108.001 172.894 108.176 173.104 108.396C173.314 108.616 173.477 108.877 173.583 109.162C173.689 109.447 173.735 109.751 173.72 110.055L173.12 123.927C173.083 124.56 172.807 125.155 172.348 125.591C171.889 126.028 171.281 126.274 170.648 126.279Z" fill="#FAFAFA"/>
<path opacity="0.8" d="M191.822 126.279H177.95C177.646 126.28 177.344 126.22 177.065 126.1C176.785 125.981 176.532 125.806 176.322 125.586C176.112 125.366 175.949 125.105 175.843 124.82C175.737 124.535 175.691 124.231 175.706 123.927L176.306 110.055C176.342 109.425 176.616 108.831 177.073 108.395C177.529 107.958 178.134 107.711 178.766 107.703H192.632C192.937 107.701 193.239 107.761 193.519 107.88C193.8 107.999 194.053 108.174 194.264 108.394C194.475 108.614 194.638 108.875 194.745 109.161C194.851 109.446 194.898 109.751 194.882 110.055L194.282 123.927C194.244 124.557 193.97 125.15 193.514 125.586C193.057 126.022 192.453 126.27 191.822 126.279Z" fill="#FAFAFA"/>
<path opacity="0.8" d="M212.989 126.279H199.123C198.819 126.281 198.517 126.221 198.237 126.102C197.956 125.983 197.703 125.808 197.493 125.588C197.283 125.368 197.12 125.107 197.014 124.821C196.909 124.535 196.863 124.231 196.879 123.927L197.479 110.055C197.516 109.425 197.79 108.831 198.246 108.395C198.703 107.958 199.308 107.711 199.939 107.703H213.805C214.11 107.702 214.411 107.763 214.692 107.882C214.972 108.001 215.225 108.176 215.435 108.396C215.646 108.616 215.809 108.877 215.916 109.162C216.022 109.447 216.07 109.751 216.055 110.055L215.425 123.927C215.391 124.554 215.12 125.145 214.669 125.581C214.217 126.017 213.617 126.266 212.989 126.279Z" fill="#FAFAFA"/>
</g>
<path d="M106.16 147.801H92.2879C91.9837 147.802 91.6824 147.741 91.4024 147.622C91.1225 147.503 90.8698 147.328 90.6598 147.108C90.4497 146.887 90.2868 146.627 90.1809 146.342C90.075 146.056 90.0284 145.752 90.0439 145.449L90.6439 131.577C90.6817 130.947 90.9562 130.354 91.4124 129.918C91.8686 129.482 92.4728 129.234 93.1039 129.225H107C107.304 129.223 107.605 129.284 107.885 129.403C108.165 129.523 108.418 129.698 108.628 129.918C108.838 130.138 109.001 130.398 109.107 130.684C109.213 130.969 109.259 131.273 109.244 131.577L108.644 145.449C108.606 146.083 108.328 146.679 107.867 147.115C107.405 147.552 106.795 147.797 106.16 147.801Z" fill="#00C802"/>
<path d="M127.334 147.801H113.462C113.158 147.802 112.856 147.741 112.576 147.622C112.296 147.503 112.044 147.328 111.834 147.108C111.624 146.887 111.461 146.627 111.355 146.342C111.249 146.056 111.202 145.753 111.218 145.449L111.818 131.577C111.854 130.946 112.128 130.353 112.585 129.916C113.041 129.48 113.646 129.233 114.278 129.225H128.144C128.451 129.222 128.755 129.283 129.038 129.404C129.32 129.524 129.575 129.701 129.787 129.923C129.998 130.146 130.162 130.41 130.267 130.698C130.373 130.987 130.418 131.294 130.4 131.601L129.8 145.449C129.765 146.081 129.49 146.676 129.032 147.113C128.574 147.549 127.967 147.796 127.334 147.801Z" fill="#00C802"/>
<path d="M148.502 147.801H134.636C134.331 147.803 134.03 147.742 133.749 147.624C133.469 147.505 133.216 147.33 133.006 147.109C132.796 146.889 132.633 146.628 132.527 146.343C132.422 146.057 132.376 145.753 132.392 145.449L132.992 131.577C133.028 130.946 133.302 130.353 133.759 129.916C134.215 129.48 134.82 129.233 135.452 129.225H149.318C149.622 129.223 149.924 129.283 150.204 129.402C150.485 129.521 150.738 129.696 150.948 129.916C151.158 130.136 151.321 130.397 151.427 130.683C151.532 130.968 151.578 131.273 151.562 131.577L150.962 145.449C150.926 146.079 150.651 146.673 150.195 147.109C149.738 147.545 149.133 147.793 148.502 147.801Z" fill="#00C802"/>
<path d="M169.676 147.801H155.81C155.506 147.802 155.204 147.741 154.924 147.622C154.644 147.503 154.391 147.328 154.18 147.108C153.97 146.888 153.806 146.628 153.7 146.342C153.593 146.057 153.546 145.753 153.56 145.449L154.16 131.577C154.195 130.947 154.468 130.354 154.923 129.917C155.379 129.48 155.983 129.233 156.614 129.225H170.486C170.795 129.219 171.102 129.278 171.387 129.397C171.672 129.515 171.93 129.692 172.143 129.915C172.357 130.138 172.522 130.403 172.628 130.694C172.734 130.984 172.779 131.293 172.76 131.601L172.16 145.473C172.118 146.103 171.838 146.694 171.377 147.126C170.916 147.558 170.308 147.799 169.676 147.801Z" fill="#00C802"/>
<path d="M190.85 147.801H176.978C176.674 147.802 176.373 147.742 176.093 147.622C175.813 147.503 175.56 147.328 175.35 147.108C175.14 146.888 174.977 146.627 174.871 146.342C174.765 146.057 174.719 145.753 174.734 145.449L175.334 131.577C175.366 130.942 175.639 130.343 176.097 129.901C176.555 129.46 177.164 129.21 177.8 129.201H191.672C191.977 129.2 192.278 129.261 192.558 129.38C192.838 129.499 193.09 129.674 193.3 129.894C193.51 130.114 193.673 130.375 193.779 130.66C193.885 130.946 193.932 131.249 193.916 131.553L193.316 145.425C193.284 146.061 193.012 146.66 192.553 147.101C192.095 147.543 191.486 147.793 190.85 147.801Z" fill="#00C802"/>
<path d="M212 147.801H198.152C197.847 147.803 197.545 147.742 197.265 147.624C196.985 147.505 196.732 147.33 196.521 147.109C196.311 146.889 196.148 146.628 196.043 146.343C195.937 146.057 195.891 145.753 195.908 145.449L196.508 131.577C196.544 130.946 196.818 130.353 197.275 129.916C197.731 129.48 198.336 129.233 198.968 129.225H212.834C213.138 129.223 213.44 129.284 213.72 129.403C214 129.522 214.253 129.697 214.464 129.917C214.674 130.137 214.838 130.398 214.944 130.683C215.051 130.969 215.098 131.272 215.084 131.577L214.454 145.449C214.419 146.079 214.146 146.672 213.69 147.108C213.235 147.545 212.63 147.792 212 147.801Z" fill="#00C802"/>
<g opacity="0.8">
<path opacity="0.8" d="M106.16 147.801H92.2879C91.9837 147.802 91.6824 147.741 91.4024 147.622C91.1225 147.503 90.8698 147.328 90.6598 147.108C90.4497 146.887 90.2868 146.627 90.1809 146.342C90.075 146.056 90.0284 145.752 90.0439 145.449L90.6439 131.577C90.6817 130.947 90.9562 130.354 91.4124 129.918C91.8686 129.482 92.4728 129.234 93.1039 129.225H107C107.304 129.223 107.605 129.284 107.885 129.403C108.165 129.523 108.418 129.698 108.628 129.918C108.838 130.138 109.001 130.398 109.107 130.684C109.213 130.969 109.259 131.273 109.244 131.577L108.644 145.449C108.606 146.083 108.328 146.679 107.867 147.115C107.405 147.552 106.795 147.797 106.16 147.801Z" fill="#FAFAFA"/>
<path opacity="0.8" d="M127.334 147.801H113.462C113.158 147.802 112.856 147.741 112.576 147.622C112.296 147.503 112.044 147.328 111.834 147.108C111.624 146.887 111.461 146.627 111.355 146.342C111.249 146.056 111.202 145.753 111.218 145.449L111.818 131.577C111.854 130.946 112.128 130.353 112.585 129.916C113.041 129.48 113.646 129.233 114.278 129.225H128.144C128.451 129.222 128.755 129.283 129.038 129.404C129.32 129.524 129.575 129.701 129.787 129.923C129.998 130.146 130.162 130.41 130.267 130.698C130.373 130.987 130.418 131.294 130.4 131.601L129.8 145.449C129.765 146.081 129.49 146.676 129.032 147.113C128.574 147.549 127.967 147.796 127.334 147.801Z" fill="#FAFAFA"/>
<path opacity="0.8" d="M148.502 147.801H134.636C134.331 147.803 134.03 147.742 133.749 147.624C133.469 147.505 133.216 147.33 133.006 147.109C132.796 146.889 132.633 146.628 132.527 146.343C132.422 146.057 132.376 145.753 132.392 145.449L132.992 131.577C133.028 130.946 133.302 130.353 133.759 129.916C134.215 129.48 134.82 129.233 135.452 129.225H149.318C149.622 129.223 149.924 129.283 150.204 129.402C150.485 129.521 150.738 129.696 150.948 129.916C151.158 130.136 151.321 130.397 151.427 130.683C151.532 130.968 151.578 131.273 151.562 131.577L150.962 145.449C150.926 146.079 150.651 146.673 150.195 147.109C149.738 147.545 149.133 147.793 148.502 147.801Z" fill="#FAFAFA"/>
<path opacity="0.8" d="M169.676 147.801H155.81C155.506 147.802 155.204 147.741 154.924 147.622C154.644 147.503 154.391 147.328 154.18 147.108C153.97 146.888 153.806 146.628 153.7 146.342C153.593 146.057 153.546 145.753 153.56 145.449L154.16 131.577C154.195 130.947 154.468 130.354 154.923 129.917C155.379 129.48 155.983 129.233 156.614 129.225H170.486C170.795 129.219 171.102 129.278 171.387 129.397C171.672 129.515 171.93 129.692 172.143 129.915C172.357 130.138 172.522 130.403 172.628 130.694C172.734 130.984 172.779 131.293 172.76 131.601L172.16 145.473C172.118 146.103 171.838 146.694 171.377 147.126C170.916 147.558 170.308 147.799 169.676 147.801Z" fill="#FAFAFA"/>
<path opacity="0.8" d="M190.85 147.801H176.978C176.674 147.802 176.373 147.742 176.093 147.622C175.813 147.503 175.56 147.328 175.35 147.108C175.14 146.888 174.977 146.627 174.871 146.342C174.765 146.057 174.719 145.753 174.734 145.449L175.334 131.577C175.366 130.942 175.639 130.343 176.097 129.901C176.555 129.46 177.164 129.21 177.8 129.201H191.672C191.977 129.2 192.278 129.261 192.558 129.38C192.838 129.499 193.09 129.674 193.3 129.894C193.51 130.114 193.673 130.375 193.779 130.66C193.885 130.946 193.932 131.249 193.916 131.553L193.316 145.425C193.284 146.061 193.012 146.66 192.553 147.101C192.095 147.543 191.486 147.793 190.85 147.801Z" fill="#FAFAFA"/>
<path opacity="0.8" d="M212 147.801H198.152C197.847 147.803 197.545 147.742 197.265 147.624C196.985 147.505 196.732 147.33 196.521 147.109C196.311 146.889 196.148 146.628 196.043 146.343C195.937 146.057 195.891 145.753 195.908 145.449L196.508 131.577C196.544 130.946 196.818 130.353 197.275 129.916C197.731 129.48 198.336 129.233 198.968 129.225H212.834C213.138 129.223 213.44 129.284 213.72 129.403C214 129.522 214.253 129.697 214.464 129.917C214.674 130.137 214.838 130.398 214.944 130.683C215.051 130.969 215.098 131.272 215.084 131.577L214.454 145.449C214.419 146.079 214.146 146.672 213.69 147.108C213.235 147.545 212.63 147.792 212 147.801Z" fill="#FAFAFA"/>
</g>
<path d="M105.2 169.316H91.3156C91.0111 169.318 90.7094 169.258 90.4291 169.139C90.1487 169.02 89.8957 168.845 89.6855 168.625C89.4753 168.405 89.3124 168.144 89.2068 167.858C89.1012 167.572 89.0552 167.268 89.0716 166.964L89.6716 153.098C89.708 152.468 89.982 151.874 90.4386 151.438C90.8951 151.001 91.5001 150.754 92.1316 150.746H106.004C106.308 150.744 106.61 150.804 106.89 150.923C107.17 151.042 107.424 151.217 107.634 151.437C107.844 151.658 108.007 151.919 108.112 152.204C108.218 152.49 108.264 152.794 108.248 153.098L107.648 166.964C107.613 167.593 107.341 168.186 106.887 168.622C106.432 169.058 105.829 169.306 105.2 169.316Z" fill="#00C802"/>
<path d="M126.362 169.316H112.49C112.186 169.318 111.884 169.258 111.604 169.139C111.324 169.02 111.07 168.845 110.86 168.625C110.65 168.405 110.487 168.144 110.382 167.858C110.276 167.572 110.23 167.268 110.246 166.964L110.846 153.098C110.881 152.467 111.155 151.873 111.612 151.436C112.069 151 112.674 150.753 113.306 150.746H127.172C127.477 150.743 127.78 150.803 128.061 150.921C128.342 151.04 128.596 151.215 128.806 151.435C129.017 151.656 129.181 151.917 129.287 152.203C129.393 152.489 129.439 152.794 129.422 153.098L128.822 166.964C128.789 167.596 128.516 168.191 128.059 168.628C127.601 169.065 126.995 169.311 126.362 169.316Z" fill="#00C802"/>
<path d="M147.53 169.316H133.664C133.36 169.318 133.058 169.258 132.778 169.139C132.497 169.02 132.244 168.845 132.034 168.625C131.824 168.405 131.661 168.144 131.555 167.858C131.45 167.572 131.404 167.268 131.42 166.964L132.02 153.098C132.055 152.467 132.329 151.873 132.786 151.436C133.242 150.999 133.848 150.753 134.48 150.746H148.4C148.705 150.744 149.007 150.804 149.288 150.923C149.568 151.042 149.822 151.217 150.032 151.437C150.243 151.657 150.406 151.918 150.513 152.204C150.619 152.489 150.666 152.794 150.65 153.098L150.02 166.964C149.985 167.6 149.707 168.199 149.244 168.636C148.781 169.074 148.167 169.317 147.53 169.316Z" fill="#00C802"/>
<path d="M168.704 169.316H154.838C154.533 169.318 154.231 169.258 153.951 169.139C153.67 169.02 153.416 168.845 153.206 168.625C152.995 168.405 152.832 168.144 152.725 167.858C152.619 167.573 152.572 167.268 152.588 166.964L153.188 153.098C153.221 152.468 153.494 151.874 153.95 151.437C154.405 151 155.011 150.753 155.642 150.746H169.514C169.818 150.744 170.12 150.804 170.4 150.923C170.681 151.042 170.934 151.217 171.144 151.437C171.354 151.658 171.517 151.919 171.623 152.204C171.728 152.49 171.774 152.794 171.758 153.098L171.158 166.964C171.123 167.594 170.85 168.187 170.395 168.624C169.939 169.061 169.335 169.308 168.704 169.316Z" fill="#00C802"/>
<path d="M189.878 169.316H176C175.696 169.318 175.394 169.258 175.114 169.139C174.833 169.02 174.58 168.845 174.37 168.625C174.16 168.405 173.997 168.144 173.891 167.858C173.786 167.572 173.74 167.268 173.756 166.964L174.356 153.098C174.393 152.468 174.667 151.874 175.123 151.438C175.58 151.001 176.185 150.754 176.816 150.746H190.688C190.993 150.744 191.294 150.804 191.575 150.923C191.855 151.042 192.108 151.217 192.318 151.437C192.528 151.658 192.691 151.919 192.797 152.204C192.903 152.49 192.949 152.794 192.932 153.098L192.332 166.964C192.296 167.594 192.023 168.186 191.567 168.622C191.112 169.059 190.509 169.307 189.878 169.316Z" fill="#00C802"/>
<path d="M211.052 169.316H197.18C196.875 169.318 196.574 169.258 196.293 169.139C196.013 169.02 195.76 168.845 195.55 168.625C195.34 168.405 195.177 168.144 195.071 167.858C194.965 167.572 194.919 167.268 194.936 166.964L195.536 153.098C195.571 152.467 195.844 151.873 196.301 151.436C196.758 150.999 197.364 150.753 197.996 150.746H211.862C212.167 150.744 212.469 150.804 212.749 150.923C213.03 151.042 213.283 151.217 213.494 151.437C213.705 151.657 213.868 151.918 213.974 152.204C214.081 152.489 214.127 152.794 214.112 153.098L213.482 166.964C213.449 167.591 213.18 168.181 212.729 168.618C212.278 169.054 211.679 169.303 211.052 169.316Z" fill="#00C802"/>
<g opacity="0.8">
<path opacity="0.8" d="M105.2 169.316H91.3156C91.0111 169.318 90.7094 169.258 90.4291 169.139C90.1487 169.02 89.8957 168.845 89.6855 168.625C89.4753 168.405 89.3124 168.144 89.2068 167.858C89.1012 167.572 89.0552 167.268 89.0716 166.964L89.6716 153.098C89.708 152.468 89.982 151.874 90.4386 151.438C90.8951 151.001 91.5001 150.754 92.1316 150.746H106.004C106.308 150.744 106.61 150.804 106.89 150.923C107.17 151.042 107.424 151.217 107.634 151.437C107.844 151.658 108.007 151.919 108.112 152.204C108.218 152.49 108.264 152.794 108.248 153.098L107.648 166.964C107.613 167.593 107.341 168.186 106.887 168.622C106.432 169.058 105.829 169.306 105.2 169.316Z" fill="#FAFAFA"/>
<path opacity="0.8" d="M126.361 169.316H112.489C112.185 169.318 111.883 169.258 111.603 169.139C111.323 169.02 111.069 168.845 110.859 168.625C110.649 168.405 110.486 168.144 110.381 167.858C110.275 167.572 110.229 167.268 110.245 166.964L110.845 153.098C110.88 152.467 111.154 151.873 111.611 151.436C112.068 151 112.673 150.753 113.305 150.746H127.171C127.476 150.743 127.779 150.803 128.06 150.921C128.341 151.04 128.595 151.215 128.806 151.435C129.016 151.656 129.18 151.917 129.286 152.203C129.392 152.489 129.438 152.794 129.421 153.098L128.821 166.964C128.788 167.596 128.515 168.191 128.058 168.628C127.6 169.065 126.994 169.311 126.361 169.316Z" fill="#FAFAFA"/>
<path opacity="0.8" d="M147.529 169.316H133.663C133.359 169.318 133.057 169.258 132.777 169.139C132.496 169.02 132.243 168.845 132.033 168.625C131.823 168.405 131.66 168.144 131.554 167.858C131.449 167.572 131.403 167.268 131.419 166.964L132.019 153.098C132.054 152.467 132.328 151.873 132.785 151.436C133.241 150.999 133.847 150.753 134.479 150.746H148.399C148.704 150.744 149.006 150.804 149.287 150.923C149.567 151.042 149.821 151.217 150.031 151.437C150.242 151.657 150.405 151.918 150.512 152.204C150.618 152.489 150.665 152.794 150.649 153.098L150.019 166.964C149.984 167.6 149.706 168.199 149.243 168.636C148.78 169.074 148.166 169.317 147.529 169.316Z" fill="#FAFAFA"/>
<path opacity="0.8" d="M168.704 169.316H154.838C154.533 169.318 154.231 169.258 153.951 169.139C153.67 169.02 153.416 168.845 153.206 168.625C152.995 168.405 152.832 168.144 152.725 167.858C152.619 167.573 152.572 167.268 152.588 166.964L153.188 153.098C153.221 152.468 153.494 151.874 153.95 151.437C154.405 151 155.011 150.753 155.642 150.746H169.514C169.818 150.744 170.12 150.804 170.4 150.923C170.681 151.042 170.934 151.217 171.144 151.437C171.354 151.658 171.517 151.919 171.623 152.204C171.728 152.49 171.774 152.794 171.758 153.098L171.158 166.964C171.123 167.594 170.85 168.187 170.395 168.624C169.939 169.061 169.335 169.308 168.704 169.316Z" fill="#FAFAFA"/>
<path opacity="0.8" d="M189.877 169.316H175.999C175.695 169.318 175.393 169.258 175.113 169.139C174.832 169.02 174.579 168.845 174.369 168.625C174.159 168.405 173.996 168.144 173.89 167.858C173.785 167.572 173.739 167.268 173.755 166.964L174.355 153.098C174.392 152.468 174.666 151.874 175.122 151.438C175.579 151.001 176.184 150.754 176.815 150.746H190.687C190.992 150.744 191.293 150.804 191.574 150.923C191.854 151.042 192.107 151.217 192.317 151.437C192.528 151.658 192.69 151.919 192.796 152.204C192.902 152.49 192.948 152.794 192.931 153.098L192.331 166.964C192.295 167.594 192.022 168.186 191.566 168.622C191.111 169.059 190.508 169.307 189.877 169.316Z" fill="#FAFAFA"/>
<path opacity="0.8" d="M211.052 169.316H197.18C196.875 169.318 196.574 169.258 196.293 169.139C196.013 169.02 195.76 168.845 195.55 168.625C195.34 168.405 195.177 168.144 195.071 167.858C194.965 167.572 194.919 167.268 194.936 166.964L195.536 153.098C195.571 152.467 195.844 151.873 196.301 151.436C196.758 150.999 197.364 150.753 197.996 150.746H211.862C212.167 150.744 212.469 150.804 212.749 150.923C213.03 151.042 213.283 151.217 213.494 151.437C213.705 151.657 213.868 151.918 213.974 152.204C214.081 152.489 214.127 152.794 214.112 153.098L213.482 166.964C213.449 167.591 213.18 168.181 212.729 168.618C212.278 169.054 211.679 169.303 211.052 169.316Z" fill="#FAFAFA"/>
</g>
<path d="M101.27 96.4644C96.1584 96.4644 92.1504 90.5184 92.1504 82.9284C92.1504 75.3384 96.1584 69.3984 101.27 69.3984C106.382 69.3984 110.396 75.3444 110.396 82.9284C110.373 83.2842 110.215 83.6177 109.955 83.8614C109.695 84.1051 109.352 84.2407 108.995 84.2407C108.639 84.2407 108.296 84.1051 108.036 83.8614C107.775 83.6177 107.618 83.2842 107.594 82.9284C107.594 77.1144 104.702 72.1944 101.27 72.1944C97.8384 72.1944 94.9464 77.1144 94.9464 82.9284C94.9464 88.7424 97.8444 93.6624 101.27 93.6624C101.462 93.6499 101.654 93.6768 101.835 93.7415C102.016 93.8063 102.182 93.9074 102.322 94.0387C102.462 94.1701 102.574 94.3288 102.65 94.505C102.727 94.6813 102.766 94.8713 102.766 95.0634C102.766 95.2555 102.727 95.4456 102.65 95.6219C102.574 95.7981 102.462 95.9568 102.322 96.0881C102.182 96.2195 102.016 96.3206 101.835 96.3853C101.654 96.4501 101.462 96.477 101.27 96.4644Z" fill="#00C802"/>
<path d="M122.444 96.4644C117.332 96.4644 113.324 90.5184 113.324 82.9284C113.324 75.3384 117.332 69.3984 122.444 69.3984C127.556 69.3984 131.6 75.3444 131.6 82.9284C131.577 83.2842 131.419 83.6177 131.159 83.8614C130.899 84.1051 130.556 84.2407 130.199 84.2407C129.843 84.2407 129.5 84.1051 129.239 83.8614C128.979 83.6177 128.822 83.2842 128.798 82.9284C128.798 77.1144 125.906 72.1944 122.474 72.1944C119.042 72.1944 116.15 77.1144 116.15 82.9284C116.15 88.7424 119.048 93.6624 122.474 93.6624C122.83 93.6857 123.163 93.8435 123.407 94.1036C123.651 94.3638 123.786 94.707 123.786 95.0635C123.786 95.4199 123.651 95.7631 123.407 96.0232C123.163 96.2834 122.83 96.4412 122.474 96.4644H122.444Z" fill="#00C802"/>
<path d="M143.6 96.4644C138.482 96.4644 134.474 90.5184 134.474 82.9284C134.474 75.3384 138.482 69.3984 143.6 69.3984C148.718 69.3984 152.72 75.3444 152.72 82.9284C152.72 83.2992 152.572 83.6548 152.31 83.917C152.048 84.1792 151.692 84.3264 151.322 84.3264C150.951 84.3264 150.595 84.1792 150.333 83.917C150.071 83.6548 149.924 83.2992 149.924 82.9284C149.924 77.1144 147.026 72.1944 143.6 72.1944C140.174 72.1944 137.276 77.1144 137.276 82.9284C137.276 88.7424 140.174 93.6624 143.6 93.6624C143.955 93.6857 144.289 93.8435 144.533 94.1036C144.776 94.3638 144.912 94.707 144.912 95.0635C144.912 95.4199 144.776 95.7631 144.533 96.0232C144.289 96.2834 143.955 96.4412 143.6 96.4644Z" fill="#00C802"/>
<path d="M164.792 96.4644C159.674 96.4644 155.666 90.5184 155.666 82.9284C155.666 75.3384 159.674 69.3984 164.792 69.3984C169.91 69.3984 173.912 75.3444 173.912 82.9284C173.912 83.2992 173.765 83.6548 173.503 83.917C173.24 84.1792 172.885 84.3264 172.514 84.3264C172.143 84.3264 171.788 84.1792 171.525 83.917C171.263 83.6548 171.116 83.2992 171.116 82.9284C171.116 77.1144 168.218 72.1944 164.792 72.1944C161.366 72.1944 158.468 77.1144 158.468 82.9284C158.468 88.7424 161.36 93.6624 164.792 93.6624C165.148 93.6857 165.481 93.8435 165.725 94.1036C165.969 94.3638 166.104 94.707 166.104 95.0635C166.104 95.4199 165.969 95.7631 165.725 96.0232C165.481 96.2834 165.148 96.4412 164.792 96.4644Z" fill="#00C802"/>
<path d="M185.96 96.4644C180.848 96.4644 176.84 90.5184 176.84 82.9284C176.84 75.3384 180.848 69.3984 185.96 69.3984C191.072 69.3984 195.086 75.3444 195.086 82.9284C195.063 83.2842 194.905 83.6177 194.645 83.8614C194.384 84.1051 194.041 84.2407 193.685 84.2407C193.328 84.2407 192.985 84.1051 192.725 83.8614C192.465 83.6177 192.307 83.2842 192.284 82.9284C192.284 77.1144 189.392 72.1944 185.96 72.1944C182.528 72.1944 179.636 77.1144 179.636 82.9284C179.636 88.7424 182.534 93.6624 185.96 93.6624C186.152 93.6499 186.344 93.6768 186.525 93.7415C186.706 93.8063 186.871 93.9074 187.011 94.0387C187.152 94.1701 187.263 94.3288 187.34 94.505C187.416 94.6813 187.456 94.8713 187.456 95.0634C187.456 95.2555 187.416 95.4456 187.34 95.6219C187.263 95.7981 187.152 95.9568 187.011 96.0881C186.871 96.2195 186.706 96.3206 186.525 96.3853C186.344 96.4501 186.152 96.477 185.96 96.4644Z" fill="#00C802"/>
<path d="M207.134 96.4644C202.022 96.4644 198.014 90.5184 198.014 82.9284C198.014 75.3384 202.022 69.3984 207.134 69.3984C212.246 69.3984 216.26 75.3444 216.26 82.9284C216.236 83.2842 216.079 83.6177 215.818 83.8614C215.558 84.1051 215.215 84.2407 214.859 84.2407C214.502 84.2407 214.159 84.1051 213.899 83.8614C213.639 83.6177 213.481 83.2842 213.458 82.9284C213.458 77.1144 210.56 72.1944 207.134 72.1944C203.708 72.1944 200.81 77.1144 200.81 82.9284C200.81 88.7424 203.708 93.6624 207.134 93.6624C207.489 93.6857 207.823 93.8435 208.067 94.1036C208.31 94.3638 208.446 94.707 208.446 95.0635C208.446 95.4199 208.31 95.7631 208.067 96.0232C207.823 96.2834 207.489 96.4412 207.134 96.4644Z" fill="#00C802"/>
<g opacity="0.3">
<path opacity="0.3" d="M101.27 96.4644C96.1584 96.4644 92.1504 90.5184 92.1504 82.9284C92.1504 75.3384 96.1584 69.3984 101.27 69.3984C106.382 69.3984 110.396 75.3444 110.396 82.9284C110.373 83.2842 110.215 83.6177 109.955 83.8614C109.695 84.1051 109.352 84.2407 108.995 84.2407C108.639 84.2407 108.296 84.1051 108.036 83.8614C107.775 83.6177 107.618 83.2842 107.594 82.9284C107.594 77.1144 104.702 72.1944 101.27 72.1944C97.8384 72.1944 94.9464 77.1144 94.9464 82.9284C94.9464 88.7424 97.8444 93.6624 101.27 93.6624C101.462 93.6499 101.654 93.6768 101.835 93.7415C102.016 93.8063 102.182 93.9074 102.322 94.0387C102.462 94.1701 102.574 94.3288 102.65 94.505C102.727 94.6813 102.766 94.8713 102.766 95.0634C102.766 95.2555 102.727 95.4456 102.65 95.6219C102.574 95.7981 102.462 95.9568 102.322 96.0881C102.182 96.2195 102.016 96.3206 101.835 96.3853C101.654 96.4501 101.462 96.477 101.27 96.4644Z" fill="black"/>
<path opacity="0.3" d="M122.444 96.4644C117.332 96.4644 113.324 90.5184 113.324 82.9284C113.324 75.3384 117.332 69.3984 122.444 69.3984C127.556 69.3984 131.6 75.3444 131.6 82.9284C131.577 83.2842 131.419 83.6177 131.159 83.8614C130.899 84.1051 130.556 84.2407 130.199 84.2407C129.843 84.2407 129.5 84.1051 129.239 83.8614C128.979 83.6177 128.822 83.2842 128.798 82.9284C128.798 77.1144 125.906 72.1944 122.474 72.1944C119.042 72.1944 116.15 77.1144 116.15 82.9284C116.15 88.7424 119.048 93.6624 122.474 93.6624C122.83 93.6857 123.163 93.8435 123.407 94.1036C123.651 94.3638 123.786 94.707 123.786 95.0635C123.786 95.4199 123.651 95.7631 123.407 96.0232C123.163 96.2834 122.83 96.4412 122.474 96.4644H122.444Z" fill="black"/>
<path opacity="0.3" d="M143.601 96.4644C138.483 96.4644 134.475 90.5184 134.475 82.9284C134.475 75.3384 138.483 69.3984 143.601 69.3984C148.719 69.3984 152.721 75.3444 152.721 82.9284C152.721 83.2992 152.573 83.6548 152.311 83.917C152.049 84.1792 151.693 84.3264 151.323 84.3264C150.952 84.3264 150.596 84.1792 150.334 83.917C150.072 83.6548 149.925 83.2992 149.925 82.9284C149.925 77.1144 147.027 72.1944 143.601 72.1944C140.175 72.1944 137.277 77.1144 137.277 82.9284C137.277 88.7424 140.175 93.6624 143.601 93.6624C143.956 93.6857 144.29 93.8435 144.534 94.1036C144.777 94.3638 144.913 94.707 144.913 95.0635C144.913 95.4199 144.777 95.7631 144.534 96.0232C144.29 96.2834 143.956 96.4412 143.601 96.4644Z" fill="black"/>
<path opacity="0.3" d="M164.792 96.4644C159.674 96.4644 155.666 90.5184 155.666 82.9284C155.666 75.3384 159.674 69.3984 164.792 69.3984C169.91 69.3984 173.912 75.3444 173.912 82.9284C173.912 83.2992 173.765 83.6548 173.503 83.917C173.24 84.1792 172.885 84.3264 172.514 84.3264C172.143 84.3264 171.788 84.1792 171.525 83.917C171.263 83.6548 171.116 83.2992 171.116 82.9284C171.116 77.1144 168.218 72.1944 164.792 72.1944C161.366 72.1944 158.468 77.1144 158.468 82.9284C158.468 88.7424 161.36 93.6624 164.792 93.6624C165.148 93.6857 165.481 93.8435 165.725 94.1036C165.969 94.3638 166.104 94.707 166.104 95.0635C166.104 95.4199 165.969 95.7631 165.725 96.0232C165.481 96.2834 165.148 96.4412 164.792 96.4644Z" fill="black"/>
<path opacity="0.3" d="M185.961 96.4644C180.849 96.4644 176.841 90.5184 176.841 82.9284C176.841 75.3384 180.849 69.3984 185.961 69.3984C191.073 69.3984 195.087 75.3444 195.087 82.9284C195.064 83.2842 194.906 83.6177 194.646 83.8614C194.385 84.1051 194.042 84.2407 193.686 84.2407C193.329 84.2407 192.986 84.1051 192.726 83.8614C192.466 83.6177 192.308 83.2842 192.285 82.9284C192.285 77.1144 189.393 72.1944 185.961 72.1944C182.529 72.1944 179.637 77.1144 179.637 82.9284C179.637 88.7424 182.535 93.6624 185.961 93.6624C186.153 93.6499 186.345 93.6768 186.526 93.7415C186.706 93.8063 186.872 93.9074 187.012 94.0387C187.153 94.1701 187.264 94.3288 187.341 94.505C187.417 94.6813 187.457 94.8713 187.457 95.0634C187.457 95.2555 187.417 95.4456 187.341 95.6219C187.264 95.7981 187.153 95.9568 187.012 96.0881C186.872 96.2195 186.706 96.3206 186.526 96.3853C186.345 96.4501 186.153 96.477 185.961 96.4644Z" fill="black"/>
<path opacity="0.3" d="M207.135 96.4644C202.023 96.4644 198.015 90.5184 198.015 82.9284C198.015 75.3384 202.023 69.3984 207.135 69.3984C212.247 69.3984 216.261 75.3444 216.261 82.9284C216.237 83.2842 216.08 83.6177 215.819 83.8614C215.559 84.1051 215.216 84.2407 214.86 84.2407C214.503 84.2407 214.16 84.1051 213.9 83.8614C213.64 83.6177 213.482 83.2842 213.459 82.9284C213.459 77.1144 210.561 72.1944 207.135 72.1944C203.709 72.1944 200.811 77.1144 200.811 82.9284C200.811 88.7424 203.709 93.6624 207.135 93.6624C207.49 93.6857 207.824 93.8435 208.068 94.1036C208.311 94.3638 208.447 94.707 208.447 95.0635C208.447 95.4199 208.311 95.7631 208.068 96.0232C207.824 96.2834 207.49 96.4412 207.135 96.4644Z" fill="black"/>
</g>
<path d="M166.208 127.052C161.312 126.08 155.816 127.214 153.854 132.374C152.276 136.526 154.298 141.026 158.654 142.124C162.494 143.09 169.118 141.908 170.486 137.48C172.052 132.416 165.686 130.772 162.116 130.472C161.042 130.382 161.048 132.062 162.116 132.152C163.742 132.29 165.602 132.38 167.042 133.274C170.042 135.152 168.806 138.164 166.25 139.604C163.694 141.044 159.776 141.404 157.25 139.808C154.49 138.05 154.4 134.186 156.05 131.666C158.216 128.336 162.17 127.964 165.734 128.666C166.79 128.876 167.24 127.256 166.178 127.046L166.208 127.052Z" fill="#00C802"/>
<path opacity="0.1" d="M166.208 127.052C161.312 126.08 155.816 127.214 153.854 132.374C152.276 136.526 154.298 141.026 158.654 142.124C162.494 143.09 169.118 141.908 170.486 137.48C172.052 132.416 165.686 130.772 162.116 130.472C161.042 130.382 161.048 132.062 162.116 132.152C163.742 132.29 165.602 132.38 167.042 133.274C170.042 135.152 168.806 138.164 166.25 139.604C163.694 141.044 159.776 141.404 157.25 139.808C154.49 138.05 154.4 134.186 156.05 131.666C158.216 128.336 162.17 127.964 165.734 128.666C166.79 128.876 167.24 127.256 166.178 127.046L166.208 127.052Z" fill="#FAFAFA"/>
<path d="M112.19 107.727C116.872 113.934 122.093 119.716 127.79 125.007C128.582 125.745 129.776 124.557 128.99 123.807C123.39 118.621 118.256 112.953 113.648 106.869C113.006 106.017 111.548 106.869 112.202 107.715L112.19 107.727Z" fill="#00C802"/>
<path d="M113.924 124.305C117.464 118.011 123.662 112.641 129.524 108.531C130.4 107.931 129.566 106.455 128.678 107.079C122.582 111.363 116.174 116.895 112.478 123.453C112.377 123.644 112.353 123.866 112.411 124.075C112.47 124.283 112.607 124.46 112.793 124.57C112.98 124.68 113.201 124.714 113.412 124.664C113.623 124.615 113.806 124.486 113.924 124.305Z" fill="#00C802"/>
<g opacity="0.2">
<path opacity="0.2" d="M112.19 107.727C116.872 113.934 122.093 119.716 127.79 125.007C128.582 125.745 129.776 124.557 128.99 123.807C123.39 118.621 118.256 112.953 113.648 106.869C113.006 106.017 111.548 106.869 112.202 107.715L112.19 107.727Z" fill="black"/>
<path opacity="0.2" d="M113.924 124.305C117.464 118.011 123.662 112.641 129.524 108.531C130.4 107.931 129.566 106.455 128.678 107.079C122.582 111.363 116.174 116.895 112.478 123.453C112.377 123.644 112.353 123.866 112.411 124.075C112.47 124.283 112.607 124.46 112.793 124.57C112.98 124.68 113.201 124.714 113.412 124.664C113.623 124.615 113.806 124.486 113.924 124.305Z" fill="black"/>
</g>
<path d="M178.922 113.096H189.872C190.082 113.078 190.278 112.982 190.42 112.827C190.562 112.672 190.641 112.469 190.641 112.259C190.641 112.048 190.562 111.846 190.42 111.691C190.278 111.536 190.082 111.44 189.872 111.422H178.922C178.713 111.44 178.517 111.536 178.375 111.691C178.232 111.846 178.153 112.048 178.153 112.259C178.153 112.469 178.232 112.672 178.375 112.827C178.517 112.982 178.713 113.078 178.922 113.096Z" fill="#00C802"/>
<path d="M178.796 116.211H185.144C185.367 116.211 185.58 116.123 185.738 115.965C185.896 115.808 185.984 115.594 185.984 115.371C185.984 115.148 185.896 114.935 185.738 114.777C185.58 114.62 185.367 114.531 185.144 114.531H178.796C178.573 114.531 178.36 114.62 178.202 114.777C178.045 114.935 177.956 115.148 177.956 115.371C177.956 115.594 178.045 115.808 178.202 115.965C178.36 116.123 178.573 116.211 178.796 116.211Z" fill="#00C802"/>
<g opacity="0.1">
<path opacity="0.1" d="M178.922 113.096H189.872C190.082 113.078 190.278 112.982 190.42 112.827C190.562 112.672 190.641 112.469 190.641 112.259C190.641 112.048 190.562 111.846 190.42 111.691C190.278 111.536 190.082 111.44 189.872 111.422H178.922C178.713 111.44 178.517 111.536 178.375 111.691C178.232 111.846 178.153 112.048 178.153 112.259C178.153 112.469 178.232 112.672 178.375 112.827C178.517 112.982 178.713 113.078 178.922 113.096Z" fill="#FAFAFA"/>
<path opacity="0.1" d="M178.796 116.209H185.144C185.367 116.209 185.58 116.121 185.738 115.963C185.896 115.806 185.984 115.592 185.984 115.369C185.984 115.147 185.896 114.933 185.738 114.775C185.58 114.618 185.367 114.529 185.144 114.529H178.796C178.573 114.529 178.36 114.618 178.202 114.775C178.045 114.933 177.956 115.147 177.956 115.369C177.956 115.592 178.045 115.806 178.202 115.963C178.36 116.121 178.573 116.209 178.796 116.209Z" fill="#FAFAFA"/>
</g>
<path d="M113.336 156.08H122.726C122.949 156.08 123.163 155.992 123.32 155.834C123.478 155.677 123.566 155.463 123.566 155.24C123.566 155.018 123.478 154.804 123.32 154.646C123.163 154.489 122.949 154.4 122.726 154.4H113.336C113.113 154.4 112.9 154.489 112.742 154.646C112.585 154.804 112.496 155.018 112.496 155.24C112.496 155.463 112.585 155.677 112.742 155.834C112.9 155.992 113.113 156.08 113.336 156.08Z" fill="#00C802"/>
<path d="M113 159.686H125.18C125.403 159.686 125.617 159.597 125.774 159.44C125.932 159.282 126.02 159.069 126.02 158.846C126.02 158.623 125.932 158.409 125.774 158.252C125.617 158.094 125.403 158.006 125.18 158.006H113C112.777 158.006 112.564 158.094 112.406 158.252C112.249 158.409 112.16 158.623 112.16 158.846C112.16 159.069 112.249 159.282 112.406 159.44C112.564 159.597 112.777 159.686 113 159.686Z" fill="#00C802"/>
<path d="M113 163.401H119.09C119.313 163.401 119.527 163.312 119.684 163.155C119.842 162.997 119.93 162.783 119.93 162.561C119.93 162.338 119.842 162.124 119.684 161.967C119.527 161.809 119.313 161.721 119.09 161.721H113C112.777 161.721 112.564 161.809 112.406 161.967C112.249 162.124 112.16 162.338 112.16 162.561C112.16 162.783 112.249 162.997 112.406 163.155C112.564 163.312 112.777 163.401 113 163.401Z" fill="#00C802"/>
<g opacity="0.1">
<path opacity="0.1" d="M113.336 156.08H122.726C122.949 156.08 123.163 155.992 123.32 155.834C123.478 155.677 123.566 155.463 123.566 155.24C123.566 155.018 123.478 154.804 123.32 154.646C123.163 154.489 122.949 154.4 122.726 154.4H113.336C113.113 154.4 112.9 154.489 112.742 154.646C112.585 154.804 112.496 155.018 112.496 155.24C112.496 155.463 112.585 155.677 112.742 155.834C112.9 155.992 113.113 156.08 113.336 156.08Z" fill="#FAFAFA"/>
<path opacity="0.1" d="M113 159.686H125.18C125.403 159.686 125.617 159.597 125.774 159.44C125.932 159.282 126.02 159.069 126.02 158.846C126.02 158.623 125.932 158.409 125.774 158.252C125.617 158.094 125.403 158.006 125.18 158.006H113C112.777 158.006 112.564 158.094 112.406 158.252C112.249 158.409 112.16 158.623 112.16 158.846C112.16 159.069 112.249 159.282 112.406 159.44C112.564 159.597 112.777 159.686 113 159.686Z" fill="#FAFAFA"/>
<path opacity="0.1" d="M113 163.401H119.09C119.313 163.401 119.527 163.312 119.684 163.155C119.842 162.997 119.93 162.783 119.93 162.561C119.93 162.338 119.842 162.124 119.684 161.967C119.527 161.809 119.313 161.721 119.09 161.721H113C112.777 161.721 112.564 161.809 112.406 161.967C112.249 162.124 112.16 162.338 112.16 162.561C112.16 162.783 112.249 162.997 112.406 163.155C112.564 163.312 112.777 163.401 113 163.401Z" fill="#FAFAFA"/>
</g>
<path d="M7.52132 61.874L10.3593 61.748L9.07532 67.148C8.06248 66.4546 7.13945 65.6384 6.32732 64.718C6.0931 64.4426 5.97687 64.086 6.00383 63.7255C6.03078 63.3649 6.19875 63.0296 6.47132 62.792L7.52132 61.874Z" fill="#E4897B"/>
<path d="M13.6532 64.658L12.3812 69.05L9.0752 67.136L10.3592 61.748L13.6532 64.658Z" fill="#E4897B"/>
<path d="M13.0933 38.5834L7.28613 39.1211L20.6051 182.968L26.4122 182.43L13.0933 38.5834Z" fill="#7BCD8D"/>
<path d="M24.7105 37.5053L18.9033 38.043L32.2222 181.89L38.0294 181.352L24.7105 37.5053Z" fill="#7BCD8D"/>
<path d="M18.9048 38.0443L13.0977 38.582L26.4166 182.429L32.2237 181.891L18.9048 38.0443Z" fill="#00C802"/>
<path d="M17.6791 27.9863L12.4531 28.4723L7.28711 39.1223L24.7111 37.5083L17.6791 27.9863Z" fill="#00C802"/>
<g opacity="0.8">
<path opacity="0.8" d="M17.6791 27.9863L12.4531 28.4723L7.28711 39.1223L24.7111 37.5083L17.6791 27.9863Z" fill="#FAFAFA"/>
</g>
<path d="M14.6671 23.9062L12.4531 28.4722L17.6791 27.9862L14.6671 23.9062Z" fill="#263238"/>
<path d="M58.5753 32.0352C59.1753 32.6352 59.6733 33.2052 60.1893 33.8352C60.7053 34.4652 61.1973 35.0352 61.6893 35.6352C62.6793 36.8352 63.6033 38.1012 64.5033 39.3912C66.3586 42.014 67.9238 44.8305 69.1713 47.7912C69.3213 48.1752 69.4593 48.5772 69.6033 48.9912L69.8193 49.5912C69.9382 49.9503 70.0226 50.32 70.0713 50.6952C70.2015 51.8892 70.0431 53.0971 69.6093 54.2172C68.9617 55.8705 68.0543 57.4099 66.9213 58.7772C64.918 61.2289 62.6116 63.4164 60.0573 65.2872L57.7953 62.8872C59.5755 60.6616 61.2032 58.3183 62.6673 55.8732C63.3086 54.8286 63.8014 53.6997 64.1313 52.5192C64.2225 52.2294 64.2328 51.9203 64.1613 51.6252L63.9573 51.1812C63.8193 50.8872 63.6993 50.5812 63.5493 50.2932C62.2792 47.8287 60.7934 45.4815 59.1093 43.2792C58.2693 42.1332 57.3813 41.0172 56.4813 39.9012C56.0313 39.3492 55.5753 38.7972 55.1073 38.2572L53.7393 36.6792L58.5753 32.0352Z" fill="#E4897B"/>
<path d="M54.165 64.7173L56.721 69.7753L59.223 67.6213L57.171 64.0273L54.165 64.7173Z" fill="#E4897B"/>
<path d="M34.9117 34.9991C33.3557 37.9631 31.7397 40.8931 30.0637 43.7891C29.2417 45.2471 28.3777 46.6811 27.5377 48.1271L26.2477 50.2871L25.9237 50.8271C25.7617 51.0851 25.5817 51.3911 25.4197 51.5951C25.2577 51.7991 25.0957 52.0451 24.9397 52.2311C24.7837 52.4171 24.6157 52.6271 24.4597 52.8011C23.2477 54.1214 21.9574 55.3676 20.5957 56.5331C19.2817 57.6551 17.9677 58.7471 16.6117 59.7851C13.9297 61.8791 11.1757 63.8291 8.31972 65.6891L6.26172 63.0971L13.3717 56.0951C14.5357 54.8951 15.7117 53.7671 16.8217 52.5791C17.9124 51.4611 18.9399 50.2832 19.8997 49.0511C20.0157 48.9071 20.1177 48.7691 20.2057 48.6371C20.3077 48.4931 20.3797 48.3731 20.4517 48.2531C20.5138 48.1566 20.5699 48.0564 20.6197 47.9531L20.8957 47.3951L22.0057 45.1331C22.7677 43.6391 23.5117 42.1331 24.2857 40.6511C25.8177 37.6631 27.4177 34.7091 29.0857 31.7891L34.9117 34.9991Z" fill="#E4897B"/>
<path d="M51.7537 14.7325C51.6757 15.0805 51.8017 15.4105 52.0237 15.4705C52.2457 15.5305 52.4917 15.2905 52.5697 14.9425C52.6477 14.5945 52.5157 14.2645 52.2937 14.2045C52.0717 14.1445 51.8077 14.3845 51.7537 14.7325Z" fill="#263238"/>
<path d="M51.7653 15.4043C51.9533 16.5746 52.2963 17.7146 52.7853 18.7943C52.5092 18.9036 52.2125 18.9511 51.916 18.9335C51.6196 18.9159 51.3306 18.8335 51.0693 18.6923L51.7653 15.4043Z" fill="#DE5753"/>
<path d="M52.6712 12.6196C52.6285 12.6197 52.5868 12.6072 52.5512 12.5836C52.3295 12.4482 52.0783 12.3687 51.819 12.3519C51.5598 12.3352 51.3004 12.3818 51.0632 12.4876C51.0114 12.5078 50.9537 12.5072 50.9023 12.486C50.8509 12.4648 50.8097 12.4245 50.7872 12.3736C50.767 12.3218 50.7676 12.2642 50.7888 12.2127C50.8101 12.1613 50.8503 12.1201 50.9012 12.0976C51.2045 11.9674 51.5348 11.9125 51.8639 11.9376C52.193 11.9626 52.5111 12.067 52.7912 12.2416C52.814 12.2567 52.8335 12.2762 52.8486 12.299C52.8638 12.3217 52.8741 12.3473 52.8792 12.3742C52.8842 12.401 52.8838 12.4287 52.878 12.4554C52.8721 12.4821 52.861 12.5073 52.8452 12.5296C52.8257 12.5576 52.7997 12.5805 52.7693 12.5961C52.739 12.6118 52.7053 12.6199 52.6712 12.6196Z" fill="#263238"/>
<path d="M39.6156 16.0586C40.3716 19.2866 41.2296 25.1906 39.0576 27.3446C39.0576 27.3446 40.0656 30.6146 46.0596 30.6146C52.6596 30.6146 49.0596 27.3446 49.0596 27.3446C45.4296 26.4866 45.4176 23.8166 45.9456 21.3146L39.6156 16.0586Z" fill="#E4897B"/>
<path d="M38.2412 28.4664C37.7252 27.4344 37.1612 26.2464 38.2412 25.8744C39.4052 25.4664 45.8672 25.0524 48.1292 25.8144C48.7319 25.9756 49.2481 26.3652 49.5684 26.9006C49.8888 27.436 49.988 28.075 49.8452 28.6824L38.2412 28.4664Z" fill="#00C802"/>
<path opacity="0.6" d="M38.2412 28.4664C37.7252 27.4344 37.1612 26.2464 38.2412 25.8744C39.4052 25.4664 45.8672 25.0524 48.1292 25.8144C48.7319 25.9756 49.2481 26.3652 49.5684 26.9006C49.8888 27.436 49.988 28.075 49.8452 28.6824L38.2412 28.4664Z" fill="#FAFAFA"/>
<path d="M29.6071 179C29.2197 178.998 28.8337 178.956 28.4551 178.874C28.4356 178.871 28.4177 178.861 28.4037 178.847C28.3898 178.833 28.3805 178.815 28.3771 178.796C28.3731 178.776 28.3749 178.755 28.3823 178.736C28.3898 178.717 28.4025 178.7 28.4191 178.688C28.4671 178.652 29.6191 177.824 30.2911 177.968C30.3636 177.981 30.4325 178.009 30.4927 178.052C30.5529 178.094 30.6029 178.15 30.6391 178.214C30.6931 178.286 30.7223 178.373 30.7223 178.463C30.7223 178.553 30.6931 178.64 30.6391 178.712C30.4951 178.946 30.0571 179 29.6071 179ZM28.7491 178.724C29.4091 178.832 30.3091 178.832 30.4891 178.586C30.4891 178.586 30.5611 178.49 30.4591 178.316C30.4371 178.278 30.4068 178.245 30.3704 178.22C30.3341 178.195 30.2926 178.179 30.2491 178.172C29.7042 178.207 29.1821 178.403 28.7491 178.736V178.724Z" fill="#FAFAFA"/>
<path d="M28.4792 178.893H28.4252C28.4095 178.884 28.3967 178.87 28.3882 178.855C28.3798 178.839 28.3759 178.821 28.3772 178.803C28.3772 178.749 28.4312 177.477 28.9292 177.057C28.9889 177.003 29.0595 176.963 29.1361 176.939C29.2128 176.915 29.2936 176.908 29.3732 176.919C29.4541 176.919 29.5325 176.947 29.5949 176.998C29.6573 177.05 29.6998 177.121 29.7152 177.201C29.8112 177.693 28.9712 178.653 28.5152 178.899L28.4792 178.893ZM29.3012 177.093C29.2149 177.094 29.1319 177.126 29.0672 177.183C28.7729 177.586 28.6095 178.07 28.5992 178.569C29.0312 178.227 29.5652 177.501 29.5112 177.213C29.5112 177.183 29.5112 177.111 29.3492 177.093H29.3012Z" fill="#FAFAFA"/>
<path d="M56.0791 179C55.6242 179 55.1702 178.957 54.7231 178.874C54.7021 178.87 54.6827 178.86 54.6676 178.845C54.6525 178.83 54.6426 178.811 54.6391 178.79C54.6357 178.769 54.6385 178.748 54.647 178.729C54.6555 178.709 54.6695 178.693 54.6871 178.682C54.9091 178.556 56.8651 177.434 57.3391 178.208C57.3866 178.275 57.4121 178.356 57.4121 178.439C57.4121 178.521 57.3866 178.602 57.3391 178.67C57.2071 178.934 56.6431 179 56.0791 179ZM55.0531 178.718C55.8811 178.838 56.9971 178.82 57.1891 178.55C57.1891 178.55 57.2491 178.466 57.1591 178.316C56.8951 177.89 55.7071 178.4 55.0531 178.73V178.718Z" fill="#FAFAFA"/>
<path d="M54.7415 178.891C54.7219 178.897 54.7011 178.897 54.6815 178.891C54.6665 178.881 54.6546 178.866 54.6472 178.849C54.6398 178.832 54.6372 178.814 54.6395 178.795C54.6395 178.747 54.7115 177.559 55.2395 177.097C55.3195 177.024 55.415 176.97 55.5189 176.939C55.6228 176.907 55.7324 176.9 55.8395 176.917C56.1335 176.947 56.2175 177.097 56.2355 177.217C56.3195 177.727 55.3175 178.657 54.7895 178.897L54.7415 178.891ZM55.7495 177.091C55.6163 177.09 55.4875 177.139 55.3895 177.229C55.0741 177.616 54.8911 178.093 54.8675 178.591C55.3955 178.267 56.0675 177.529 56.0255 177.223C56.0255 177.193 56.0255 177.115 55.8095 177.091H55.7495Z" fill="#FAFAFA"/>
<path d="M49.8936 178.784H54.3036L54.3456 168.578H49.9416L49.8936 178.784Z" fill="#E4897B"/>
<path d="M23.4277 178.784H27.8377L29.6617 168.578H25.2517L23.4277 178.784Z" fill="#E4897B"/>
<path d="M28.1316 178.273H23.1816C23.0941 178.272 23.0091 178.302 22.9419 178.359C22.8748 178.415 22.83 178.493 22.8156 178.579L22.0956 182.497C22.0808 182.595 22.0873 182.694 22.1147 182.788C22.1421 182.883 22.1897 182.97 22.2542 183.044C22.3187 183.119 22.3985 183.178 22.4882 183.218C22.5779 183.258 22.6753 183.279 22.7736 183.277C24.5016 183.247 25.3356 183.145 27.5136 183.145C28.8516 183.145 31.6176 183.289 33.4716 183.289C35.3256 183.289 35.4876 181.489 34.7256 181.291C31.2996 180.547 29.9796 179.521 28.8576 178.549C28.6573 178.372 28.3992 178.274 28.1316 178.273Z" fill="#263238"/>
<path d="M54.2552 178.273H49.4552C49.3677 178.272 49.2827 178.302 49.2155 178.359C49.1484 178.415 49.1036 178.493 49.0892 178.579L48.3692 182.497C48.3524 182.594 48.3572 182.693 48.383 182.787C48.4089 182.882 48.4553 182.97 48.5189 183.044C48.5825 183.119 48.6617 183.178 48.751 183.218C48.8402 183.259 48.9373 183.279 49.0352 183.277C50.7692 183.247 53.2712 183.145 55.4552 183.145C58.0112 183.145 60.2192 183.289 63.2132 183.289C65.0132 183.289 65.4512 181.489 64.6892 181.291C61.2092 180.535 58.3892 180.457 55.3412 178.621C55.0188 178.406 54.6426 178.286 54.2552 178.273Z" fill="#263238"/>
<path d="M30.651 28.3393C26.553 29.2873 22.251 40.5493 22.251 40.5493L30.765 46.2373C32.7197 43.2735 34.4332 40.1575 35.889 36.9193C38.139 31.7653 34.833 27.3733 30.651 28.3393Z" fill="#00C802"/>
<path opacity="0.7" d="M30.651 28.3393C26.553 29.2873 22.251 40.5493 22.251 40.5493L30.765 46.2373C32.7197 43.2735 34.4332 40.1575 35.889 36.9193C38.139 31.7653 34.833 27.3733 30.651 28.3393Z" fill="black"/>
<path d="M33.8853 35.5215L30.3633 45.9675L30.7653 46.2375C30.7653 46.2375 32.3733 43.8375 34.0833 40.6395L33.8853 35.5215Z" fill="#00C802"/>
<path opacity="0.8" d="M33.8853 35.5215L30.3633 45.9675L30.7653 46.2375C30.7653 46.2375 32.3733 43.8375 34.0833 40.6395L33.8853 35.5215Z" fill="black"/>
<path d="M58.1494 48.0313C58.1134 52.9513 57.8194 59.0713 57.0874 66.6673H33.5074C33.2014 63.0673 34.7974 45.3913 30.6514 28.3393C33.2449 27.8366 35.8685 27.5039 38.5054 27.3433C41.8426 27.1512 45.1881 27.1512 48.5254 27.3433C50.8269 27.5671 53.1077 27.9683 55.3474 28.5433C55.3474 28.5433 57.3634 30.7273 57.9754 40.9693C58.0954 43.0153 58.1614 45.3433 58.1494 48.0313Z" fill="#00C802"/>
<path opacity="0.7" d="M58.1494 48.0313C58.1134 52.9513 57.8194 59.0713 57.0874 66.6673H33.5074C33.2014 63.0673 34.7974 45.3913 30.6514 28.3393C33.2449 27.8366 35.8685 27.5039 38.5054 27.3433C41.8426 27.1512 45.1881 27.1512 48.5254 27.3433C50.8269 27.5671 53.1077 27.9683 55.3474 28.5433C55.3474 28.5433 57.3634 30.7273 57.9754 40.9693C58.0954 43.0153 58.1614 45.3433 58.1494 48.0313Z" fill="black"/>
<path d="M58.149 48.0324C56.721 45.4284 54.129 40.2024 54.495 37.2324L57.975 41.0004C58.095 43.0164 58.161 45.3444 58.149 48.0324Z" fill="#00C802"/>
<path opacity="0.8" d="M58.149 48.0324C56.721 45.4284 54.129 40.2024 54.495 37.2324L57.975 41.0004C58.095 43.0164 58.161 45.3444 58.149 48.0324Z" fill="black"/>
<path d="M50.7274 32.552C50.3554 36.752 59.8774 46.856 59.8774 46.856L67.5094 40.64C65.5105 37.2668 63.1155 34.1447 60.3754 31.34C55.9114 27.026 51.1474 27.848 50.7274 32.552Z" fill="#00C802"/>
<path opacity="0.7" d="M50.7274 32.552C50.3554 36.752 59.8774 46.856 59.8774 46.856L67.5094 40.64C65.5105 37.2668 63.1155 34.1447 60.3754 31.34C55.9114 27.026 51.1474 27.848 50.7274 32.552Z" fill="black"/>
<path d="M54.345 168.584L54.321 173.84H49.917L49.935 168.584H54.345Z" fill="#CE6F64"/>
<path d="M25.2516 168.584H29.6616L28.7196 173.84H24.3096L25.2516 168.584Z" fill="#CE6F64"/>
<path d="M40.4072 11.0899C39.7652 15.4339 39.1712 17.9299 40.8392 20.6899C41.3694 21.5837 42.1341 22.3154 43.0505 22.8056C43.9669 23.2958 44.9999 23.5258 46.0377 23.4708C47.0755 23.4158 48.0785 23.0778 48.9379 22.4935C49.7973 21.9091 50.4804 21.1007 50.9132 20.1559C52.6352 16.5559 53.4032 10.0519 49.6172 7.30388C48.8183 6.68703 47.871 6.29141 46.8707 6.15681C45.8704 6.02221 44.8523 6.15338 43.9188 6.53713C42.9853 6.92088 42.1693 7.54367 41.5528 8.34287C40.9364 9.14208 40.5412 10.0895 40.4072 11.0899Z" fill="#E4897B"/>
<path d="M53.457 9.03196C52.1584 9.74115 50.7297 10.18 49.257 10.322C48.159 15.344 45.237 21.122 40.5089 19.46C38.7089 18.86 36.9089 14.498 36.7229 10.628C36.4109 11.006 36.2009 11.498 36.0389 11.702C35.7691 9.98207 35.9638 8.22132 36.603 6.60196C37.911 2.89395 38.781 5.35395 40.203 3.10395C41.121 1.61595 42.753 0.847953 45.603 0.751953C44.805 1.16595 44.655 1.83195 45.837 1.73595C47.019 1.63995 52.065 1.36395 55.005 3.34996C53.019 3.79996 54.231 6.94995 56.883 5.26995C55.917 6.83596 54.717 8.32396 53.457 9.03196Z" fill="#263238"/>
<path d="M45.8614 13.7786C45.8781 14.8833 46.2482 15.9535 46.9174 16.8326C47.8114 17.9846 48.8374 17.4326 49.0834 16.1366C49.2994 14.9846 49.0834 12.9926 47.9674 12.2966C46.8514 11.6006 45.8554 12.4586 45.8614 13.7786Z" fill="#E4897B"/>
<path d="M40.485 3.57148C39.8862 3.53351 39.3058 3.34963 38.7944 3.03589C38.283 2.72215 37.8561 2.28806 37.551 1.77148C37.551 1.77148 37.473 5.28748 40.485 3.57148Z" fill="#1E2A4C"/>
<path d="M48.7172 66.6685C48.7172 66.6685 45.0212 100.353 42.7592 112.971C40.2872 126.771 30.7592 172.827 30.7592 172.827H22.6592C22.6592 172.827 28.4072 127.905 29.6072 114.201C30.8972 99.3505 33.5312 66.6445 33.5312 66.6445L48.7172 66.6685Z" fill="#00C802"/>
<path opacity="0.6" d="M48.7172 66.6685C48.7172 66.6685 45.0212 100.353 42.7592 112.971C40.2872 126.771 30.7592 172.827 30.7592 172.827H22.6592C22.6592 172.827 28.4072 127.905 29.6072 114.201C30.8972 99.3505 33.5312 66.6445 33.5312 66.6445L48.7172 66.6685Z" fill="#FAFAFA"/>
<path d="M31.9053 169.85C31.9413 169.85 31.1913 172.952 31.1913 172.952H22.1133L22.1733 170.186L31.9053 169.85Z" fill="#00C802"/>
<path opacity="0.1" d="M31.9053 169.85C31.9413 169.85 31.1913 172.952 31.1913 172.952H22.1133L22.1733 170.186L31.9053 169.85Z" fill="#FAFAFA"/>
<path d="M46.0232 78.6677C40.2812 79.8017 41.7272 101.372 42.8492 112.466C44.2172 104.624 46.0772 89.5337 47.3312 78.8237C46.9252 78.6258 46.4643 78.5709 46.0232 78.6677Z" fill="#00C802"/>
<path opacity="0.4" d="M46.0232 78.6677C40.2812 79.8017 41.7272 101.372 42.8492 112.466C44.2172 104.624 46.0772 89.5337 47.3312 78.8237C46.9252 78.6258 46.4643 78.5709 46.0232 78.6677Z" fill="#FAFAFA"/>
<path d="M57.081 66.668C57.081 66.668 58.965 99.62 59.001 113.066C59.043 127.046 55.929 172.826 55.929 172.826H48.459C48.459 172.826 46.449 127.862 45.585 114.134C44.649 99.164 41.583 66.668 41.583 66.668H57.081Z" fill="#00C802"/>
<path opacity="0.6" d="M57.081 66.668C57.081 66.668 58.965 99.62 59.001 113.066C59.043 127.046 55.929 172.826 55.929 172.826H48.459C48.459 172.826 46.449 127.862 45.585 114.134C44.649 99.164 41.583 66.668 41.583 66.668H57.081Z" fill="#FAFAFA"/>
<path d="M58.887 62.4316L56.793 62.5996C56.6224 62.614 56.4572 62.6661 56.3093 62.7523C56.1614 62.8385 56.0345 62.9566 55.938 63.0979C55.8414 63.2393 55.7776 63.4004 55.7512 63.5695C55.7247 63.7386 55.7363 63.9115 55.785 64.0756L56.649 66.9856C56.7219 67.2221 56.8509 67.4374 57.025 67.6133C57.199 67.7892 57.413 67.9204 57.6486 67.9958C57.8843 68.0712 58.1347 68.0886 58.3785 68.0464C58.6223 68.0043 58.8523 67.9038 59.049 67.7536C60.1307 66.7469 60.9064 65.4554 61.287 64.0276L58.887 62.4316Z" fill="#E4897B"/>
<path d="M54.1589 167.463C54.1388 167.46 54.1204 167.45 54.1071 167.434C54.0939 167.419 54.0867 167.399 54.0869 167.379C54.9149 154.713 56.8349 124.059 56.7989 113.067C56.7989 101.817 55.4309 76.6529 54.9989 69.2069C54.9981 69.197 54.9993 69.1869 55.0026 69.1775C55.0058 69.1681 55.011 69.1594 55.0178 69.1521C55.0245 69.1447 55.0327 69.1389 55.0419 69.1349C55.051 69.1309 55.0609 69.1289 55.0709 69.1289C55.0906 69.1288 55.1096 69.1362 55.124 69.1496C55.1385 69.1629 55.1474 69.1813 55.1489 69.2009C55.5569 76.6469 56.8949 101.811 56.9489 113.067C56.9849 124.065 55.0649 154.719 54.2369 167.391C54.237 167.401 54.2349 167.411 54.2309 167.42C54.2269 167.429 54.2211 167.437 54.2138 167.444C54.2064 167.451 54.1978 167.456 54.1883 167.459C54.1789 167.462 54.1689 167.464 54.1589 167.463Z" fill="#00C802"/>
<path opacity="0.3" d="M54.1589 167.463C54.1388 167.46 54.1204 167.45 54.1071 167.434C54.0939 167.419 54.0867 167.399 54.0869 167.379C54.9149 154.713 56.8349 124.059 56.7989 113.067C56.7989 101.817 55.4309 76.6529 54.9989 69.2069C54.9981 69.197 54.9993 69.1869 55.0026 69.1775C55.0058 69.1681 55.011 69.1594 55.0178 69.1521C55.0245 69.1447 55.0327 69.1389 55.0419 69.1349C55.051 69.1309 55.0609 69.1289 55.0709 69.1289C55.0906 69.1288 55.1096 69.1362 55.124 69.1496C55.1385 69.1629 55.1474 69.1813 55.1489 69.2009C55.5569 76.6469 56.8949 101.811 56.9489 113.067C56.9849 124.065 55.0649 154.719 54.2369 167.391C54.237 167.401 54.2349 167.411 54.2309 167.42C54.2269 167.429 54.2211 167.437 54.2138 167.444C54.2064 167.451 54.1978 167.456 54.1883 167.459C54.1789 167.462 54.1689 167.464 54.1589 167.463Z" fill="#FAFAFA"/>
<path d="M57.2497 169.85C57.2857 169.85 56.9497 172.952 56.9497 172.952H47.8657L47.5117 170.186L57.2497 169.85Z" fill="#00C802"/>
<path opacity="0.1" d="M57.2497 169.85C57.2857 169.85 56.9497 172.952 56.9497 172.952H47.8657L47.5117 170.186L57.2497 169.85Z" fill="#FAFAFA"/>
</svg>
