<svg width="197" height="200" viewBox="0 0 197 200" fill="none" xmlns="http://www.w3.org/2000/svg">
<path d="M178.295 179.299H178.293L37.6291 179.32C37.6287 179.32 37.6284 179.32 37.6281 179.32C29.5345 179.251 22.408 172.503 20.521 164.605L20.5207 164.604C18.6753 157.064 17.9227 149.299 18.2861 141.545L18.2862 141.542C18.7703 126.956 24.7522 111.802 36.9644 103.923C43.9121 99.4423 51.9904 97.7427 60.2835 96.3592C61.3786 96.1766 62.4775 95.9994 63.578 95.822C70.7963 94.6582 78.0812 93.4838 84.7676 90.6743H84.7677C92.7294 87.326 97.7411 81.8886 102.643 76.3265C102.881 76.0556 103.12 75.7845 103.358 75.5132C108.023 70.2092 112.71 64.8786 119.887 61.1163V61.1162C126.866 57.4535 132.104 55.1028 138.044 54.3577C143.983 53.6126 150.649 54.47 160.48 57.2768L160.549 57.0365L160.48 57.2768C175.531 61.5703 185.935 74.6942 190.776 89.6326V89.633C194.107 99.8543 196.516 113.492 196.461 124.252C196.371 141.827 193.537 157.477 191.331 168.675C190.736 171.687 189.108 174.396 186.728 176.336C184.348 178.276 181.365 179.324 178.295 179.299Z" fill="#BEEECB" stroke="black" stroke-width="0.5"/>
<path d="M168.175 59.6874C168.231 59.7757 168.28 59.8685 168.321 59.965C168.418 60.1731 168.55 60.4507 168.723 60.8047C169.077 61.568 169.577 62.6575 170.222 64.0455L171.298 66.3911C171.687 67.2585 171.992 68.2231 172.429 69.2502C172.866 70.2773 173.248 71.3807 173.699 72.5396C174.15 73.6985 174.567 74.9615 174.99 76.28C175.413 77.5986 175.85 78.9934 176.308 80.4438C176.558 81.1378 176.746 81.915 176.94 82.6784C177.134 83.4418 177.335 84.2121 177.537 85.0032L178.154 87.4182C178.258 87.8207 178.37 88.2371 178.474 88.6465C178.578 89.0559 178.647 89.4931 178.73 89.9165C179.077 91.6236 179.424 93.3863 179.785 95.1767C181.159 103.025 181.973 110.961 182.221 118.924C182.381 126.882 182.066 134.842 181.277 142.762C180.84 146.405 180.486 149.875 179.889 153.088C179.633 154.698 179.417 156.259 179.147 157.745C178.876 159.23 178.585 160.659 178.321 162.019C177.828 164.754 177.224 167.189 176.739 169.334C176.489 170.409 176.26 171.416 176.045 172.325L175.351 174.823C174.948 176.301 174.657 177.46 174.421 178.293L174.164 179.188C174.144 179.291 174.111 179.391 174.067 179.486C174.079 179.381 174.1 179.276 174.129 179.174C174.178 178.952 174.254 178.654 174.345 178.272C174.546 177.46 174.83 176.294 175.198 174.802C175.385 174.053 175.601 173.213 175.83 172.304C176.059 171.395 176.253 170.382 176.524 169.306C176.989 167.155 177.571 164.719 178.043 161.985C178.302 160.624 178.571 159.202 178.848 157.717C179.105 156.225 179.313 154.663 179.542 153.06C180.084 149.847 180.424 146.377 180.854 142.748C181.62 134.84 181.922 126.895 181.756 118.952C181.513 111.015 180.713 103.105 179.362 95.2808C179.015 93.4811 178.67 91.7323 178.328 90.0344L178.078 88.7714L177.766 87.5361C177.558 86.7242 177.356 85.9192 177.155 85.1281C176.954 84.337 176.76 83.5667 176.572 82.8033C176.385 82.04 176.197 81.2905 175.955 80.5757L174.657 76.4119C174.254 75.0934 173.873 73.8304 173.401 72.6714C172.929 71.5125 172.547 70.4022 172.165 69.3751C171.784 68.348 171.437 67.3765 171.069 66.509L170.063 64.101C169.452 62.7131 168.973 61.6027 168.633 60.8324L168.272 59.9788C168.229 59.8857 168.196 59.7879 168.175 59.6874Z" fill="#263238"/>
<path d="M38.8065 179.438L25.6767 200L0 183.789C1.70021 181.436 18.0847 184.899 18.0847 184.899L25.9612 171.381L38.8065 179.438Z" fill="#455A64"/>
<g opacity="0.6">
<path opacity="0.6" d="M26.7383 188.799C26.936 189.031 27.0417 189.327 27.0353 189.632C27.0289 189.936 26.9108 190.228 26.7036 190.451C26.4829 190.661 26.1896 190.779 25.8847 190.779C25.5798 190.779 25.2865 190.661 25.0658 190.451C24.8545 190.205 24.7417 189.889 24.7494 189.565C24.7571 189.241 24.8847 188.931 25.1075 188.695C25.3628 188.504 25.6825 188.418 25.9995 188.457C26.3165 188.496 26.6062 188.656 26.8077 188.904" fill="white"/>
</g>
<g opacity="0.6">
<path opacity="0.6" d="M25.6765 200L26.9186 197.876L1.85268 183.13C1.85268 183.13 0.395352 182.908 0.0136719 183.824L25.6765 200Z" fill="white"/>
</g>
<path d="M17.7655 184.504C17.6891 184.636 18.279 185.087 18.6399 185.892C19.0007 186.697 19.0007 187.418 19.1465 187.439C19.2922 187.46 19.5628 186.62 19.1118 185.67C18.6607 184.719 17.8071 184.372 17.7655 184.504Z" fill="#263238"/>
<path d="M14.372 183.921C14.2679 184.025 14.6704 184.58 14.7606 185.378C14.8508 186.176 14.6218 186.815 14.7606 186.884C14.8994 186.953 15.4129 186.301 15.2811 185.309C15.1492 184.316 14.4483 183.803 14.372 183.921Z" fill="#263238"/>
<path d="M10.8051 186.176C10.9022 186.273 11.4991 185.76 11.5823 184.865C11.6656 183.969 11.2839 183.331 11.1659 183.407C11.048 183.484 11.1659 184.101 11.0757 184.795C10.9855 185.489 10.6871 186.086 10.8051 186.176Z" fill="#263238"/>
<path d="M19.9028 181.624C19.9028 181.769 20.5621 181.964 21.2421 182.456C21.9222 182.949 22.3317 183.525 22.4635 183.456C22.5954 183.386 22.3525 182.609 21.5405 182.068C20.7286 181.527 19.9028 181.485 19.9028 181.624Z" fill="#263238"/>
<path d="M22.436 178.966C22.4013 179.015 22.8455 179.403 23.7268 179.771C24.2411 179.982 24.7795 180.129 25.3299 180.208C25.6565 180.253 25.9857 180.276 26.3153 180.278C26.5091 180.291 26.7037 180.272 26.8913 180.222C27.03 180.185 27.1523 180.103 27.2391 179.988C27.3258 179.874 27.3719 179.734 27.3701 179.591C27.363 179.464 27.3259 179.34 27.262 179.231C27.1981 179.121 27.1091 179.028 27.0023 178.959C26.841 178.856 26.6658 178.776 26.4819 178.723C25.6287 178.437 24.7176 178.368 23.8309 178.522C23.3226 178.567 22.8393 178.762 22.443 179.084C22.443 179.167 23.012 178.952 23.9072 178.883C24.4265 178.842 24.9489 178.867 25.4617 178.959C25.7616 179.016 26.0564 179.097 26.3431 179.202C26.6623 179.299 26.8913 179.445 26.8844 179.611C26.8774 179.778 26.8844 179.695 26.7664 179.736C26.6274 179.767 26.4853 179.781 26.3431 179.778C26.0238 179.778 25.7116 179.778 25.4201 179.736C24.8955 179.681 24.3773 179.577 23.8725 179.424C23.4055 179.236 22.9254 179.083 22.436 178.966Z" fill="#263238"/>
<path d="M22.4847 179.251C22.4847 179.292 23.0468 179.001 23.6089 178.223C23.9239 177.759 24.1585 177.246 24.3028 176.704C24.3887 176.381 24.4444 176.051 24.4694 175.718C24.5059 175.504 24.4868 175.285 24.4138 175.081C24.3409 174.877 24.2167 174.695 24.053 174.552C23.9397 174.478 23.807 174.438 23.6713 174.438C23.5357 174.438 23.403 174.478 23.2897 174.552C23.1316 174.662 22.9892 174.793 22.8663 174.941C22.2623 175.644 21.9604 176.557 22.0266 177.481C22.1099 178.466 22.5332 178.945 22.5749 178.91C22.4881 178.435 22.4256 177.956 22.3875 177.474C22.399 176.965 22.5222 176.465 22.7484 176.01C22.878 175.756 23.044 175.522 23.2411 175.316C23.4493 175.066 23.6922 174.913 23.7754 175.003C23.8587 175.094 23.9906 175.427 23.9628 175.697C23.9504 175.999 23.9085 176.299 23.8379 176.593C23.7215 177.096 23.5322 177.58 23.2758 178.029C22.8594 178.799 22.4291 179.188 22.4847 179.251Z" fill="#263238"/>
<path d="M57.1755 115.454L49.3129 138.529L20.5342 128.889C21.6237 126.197 38.3621 125.663 38.3621 125.663L42.7896 110.659L57.1755 115.454Z" fill="#455A64"/>
<g opacity="0.6">
<path opacity="0.6" d="M47.6756 127.397C47.9235 127.574 48.098 127.836 48.1658 128.133C48.2336 128.429 48.19 128.741 48.0434 129.007C47.8767 129.263 47.6177 129.445 47.3205 129.515C47.0232 129.585 46.7104 129.537 46.4473 129.382C46.1835 129.195 45.9985 128.917 45.9279 128.602C45.8574 128.287 45.9065 127.956 46.0656 127.675C46.2673 127.425 46.5583 127.264 46.877 127.225C47.1957 127.186 47.5169 127.273 47.7728 127.467" fill="white"/>
</g>
<g opacity="0.6">
<path opacity="0.6" d="M49.3129 138.529L50.0068 136.169L22.158 127.807C22.158 127.807 20.6868 127.932 20.5342 128.889L49.3129 138.529Z" fill="white"/>
</g>
<path d="M37.9388 125.357C37.8972 125.503 38.5842 125.801 39.1185 126.481C39.6529 127.162 39.8125 127.869 39.9791 127.869C40.1456 127.869 40.1872 126.974 39.521 126.155C38.8548 125.336 37.9527 125.218 37.9388 125.357Z" fill="#263238"/>
<path d="M34.504 125.593C34.4277 125.718 34.9551 126.162 35.2327 126.919C35.5103 127.675 35.4409 128.348 35.5797 128.39C35.7185 128.432 36.0793 127.661 35.7185 126.731C35.3576 125.801 34.5526 125.461 34.504 125.593Z" fill="#263238"/>
<path d="M31.5824 128.64C31.7004 128.716 32.1307 128.078 32.0266 127.189C31.9225 126.301 31.3326 125.801 31.2702 125.864C31.2077 125.926 31.4437 126.509 31.5131 127.252C31.5824 127.994 31.4436 128.577 31.5824 128.64Z" fill="#263238"/>
<path d="M39.3336 122.054C39.3336 122.2 40.0276 122.22 40.8326 122.54C41.6376 122.859 42.1442 123.317 42.2552 123.234C42.3663 123.15 41.9429 122.436 41.0269 122.068C40.1109 121.7 39.2989 121.915 39.3336 122.054Z" fill="#263238"/>
<path d="M41.1592 118.869C41.59 119.151 42.0881 119.314 42.6026 119.341C43.1537 119.426 43.7135 119.44 44.2681 119.382C44.5952 119.351 44.9198 119.298 45.2397 119.223C45.4337 119.187 45.621 119.121 45.7948 119.028C45.9137 118.961 46.008 118.857 46.0641 118.732C46.1203 118.607 46.1353 118.468 46.1071 118.334C46.067 118.214 46.0008 118.105 45.9132 118.014C45.8256 117.922 45.7188 117.852 45.6005 117.807C45.4166 117.746 45.2251 117.711 45.0315 117.703C44.699 117.675 44.3647 117.675 44.0322 117.703C43.4741 117.762 42.9287 117.907 42.4152 118.133C41.5408 118.529 41.1314 118.973 41.173 119.021C41.2147 119.07 41.6935 118.758 42.561 118.473C43.0558 118.312 43.5685 118.212 44.0877 118.175C44.3902 118.151 44.6942 118.151 44.9968 118.175C45.3299 118.175 45.5936 118.279 45.6213 118.438C45.6491 118.598 45.6213 118.522 45.5381 118.591C45.4112 118.656 45.2756 118.703 45.1356 118.73C44.8364 118.808 44.5328 118.868 44.2265 118.91C43.707 118.982 43.1819 119.006 42.6581 118.98C42.162 118.905 41.6609 118.868 41.1592 118.869Z" fill="#263238"/>
<path d="M41.2769 119.132C41.3185 119.167 41.7696 118.758 42.1235 117.862C42.3265 117.337 42.4391 116.781 42.4566 116.218C42.4647 115.885 42.4391 115.553 42.3803 115.225C42.3643 115.007 42.292 114.796 42.1704 114.614C42.0488 114.431 41.882 114.283 41.6863 114.184C41.5575 114.142 41.4191 114.139 41.2884 114.175C41.1577 114.211 41.0403 114.284 40.9507 114.386C40.8219 114.531 40.7122 114.692 40.6246 114.864C40.4666 115.17 40.3566 115.497 40.2984 115.836C40.1952 116.401 40.2357 116.984 40.4164 117.529C40.7287 118.466 41.2561 118.827 41.2838 118.785C41.0849 118.347 40.9111 117.897 40.7634 117.439C40.6554 116.941 40.6554 116.425 40.7634 115.926C40.8269 115.641 40.9297 115.365 41.0687 115.107C41.2144 114.816 41.4157 114.608 41.5198 114.677C41.6239 114.747 41.8251 115.031 41.8668 115.316C41.9236 115.613 41.9538 115.915 41.957 116.218C41.9618 116.736 41.894 117.252 41.7557 117.751C41.5337 118.605 41.2075 119.084 41.2769 119.132Z" fill="#263238"/>
<path d="M104.83 108.848C104.83 108.848 83.1718 74.0871 77.2314 64.4341C70.3473 53.2821 56.232 54.7186 52.8455 64.7672C53.6019 62.5049 50.2084 72.4702 38.7788 109.687L58.0364 115.198L70.4236 104.677L75.3369 118.73L104.83 108.848Z" fill="#263238"/>
<path d="M101.985 70.1176L94.1014 97.0851L64.9341 100.215V105.392L107.794 105.982L113.63 70.8671L101.985 70.1176Z" fill="#FFBE9D"/>
<path d="M108.932 107.03H69.1191C66.0194 107.029 62.955 107.687 60.1282 108.958C57.3014 110.23 54.7766 112.087 52.7207 114.406C51.3421 115.991 50.3197 117.854 49.7228 119.868L20.5762 174.247L39.1953 184.532L74.0046 134.885L93.4356 135.121L136.753 108.077L108.932 107.03Z" fill="#263238"/>
<path d="M69.3967 124.254C69.8001 124.655 70.1458 125.11 70.4237 125.607C71.157 126.766 71.7819 127.99 72.2905 129.264C72.7957 130.536 73.1859 131.851 73.4564 133.192C73.5946 133.743 73.6599 134.31 73.6507 134.878C73.5327 134.878 73.1441 132.338 71.9504 129.396C70.7568 126.454 69.2995 124.316 69.3967 124.254Z" fill="#455A64"/>
<path d="M28.2654 75.1627L44.4556 107.03H95.573L93.4911 102.866L78.6819 102.422L66.6624 75.5652C66.2963 74.7402 65.6991 74.0391 64.9429 73.5465C64.1867 73.0538 63.304 72.7908 62.4015 72.7893H29.7157C29.4359 72.7876 29.1604 72.8583 28.9159 72.9944C28.6714 73.1306 28.4662 73.3276 28.3203 73.5664C28.1744 73.8052 28.0926 74.0776 28.083 74.3573C28.0734 74.637 28.1362 74.9144 28.2654 75.1627Z" fill="#E0E0E0"/>
<path d="M54.4206 89.2642C54.4206 89.6759 54.2985 90.0784 54.0698 90.4208C53.841 90.7632 53.5159 91.03 53.1354 91.1876C52.755 91.3452 52.3364 91.3864 51.9326 91.3061C51.5287 91.2257 51.1578 91.0275 50.8666 90.7363C50.5755 90.4451 50.3772 90.0741 50.2968 89.6702C50.2165 89.2664 50.2577 88.8479 50.4153 88.4675C50.5729 88.087 50.8397 87.7619 51.1821 87.5331C51.5245 87.3044 51.927 87.1823 52.3387 87.1823C52.8909 87.1823 53.4204 87.4016 53.8109 87.7921C54.2013 88.1825 54.4206 88.712 54.4206 89.2642Z" fill="#263238"/>
<path d="M158.037 52.4355C156.336 44.7394 144.851 41.8178 139.674 41.8039C132.45 41.8039 133.102 41.3459 126.003 42.6228H125.066C103.484 41.7484 101 71.3946 101 71.3946L110.84 72.1926L108.238 92.616L100.708 107.071L142.159 107.009L144.476 73.2613L161.826 72.8033C161.826 72.8033 159.758 60.2148 158.037 52.4355Z" fill="#00C802"/>
<path d="M112.034 58.8407C112.145 58.8407 111.416 66.051 110.403 74.9199C109.39 83.7887 108.487 90.9574 108.376 90.9504C108.265 90.9435 108.994 83.7401 110.007 74.8713C111.02 66.0024 111.923 58.8268 112.034 58.8407Z" fill="#263238"/>
<g opacity="0.2">
<path opacity="0.2" d="M143.692 58.8408C141.923 67.2932 139.619 75.9747 137.856 84.4272C137.474 86.2246 137.072 88.0844 135.975 89.5487C135.252 90.4404 134.403 91.2233 133.456 91.8734C129.986 94.4827 126.302 96.9324 122.207 98.4245C128.121 97.9246 133.98 96.9052 139.716 95.378C140.718 95.2071 141.639 94.7209 142.346 93.99C142.836 93.2415 143.11 92.3722 143.137 91.4779C144.407 80.6451 144.039 69.7221 143.692 58.813" fill="black"/>
</g>
<path d="M86.44 96.4396L99.2783 94.899L108.335 100.832L142.998 92.5534L144.011 73.2334L159.556 72.8448L159.188 95.5236C159.149 97.2576 158.768 98.9668 158.066 100.553C157.365 102.14 156.358 103.572 155.102 104.769C153.846 105.965 152.367 106.902 150.748 107.526C149.13 108.15 147.404 108.448 145.67 108.404L94.9549 107.016L92.7967 102.699L81.9292 102.338L86.44 96.4396Z" fill="#FFBE9D"/>
<path d="M142.998 92.5535C142.786 92.6376 142.568 92.7049 142.346 92.7548L140.465 93.2405L133.526 94.9755L110.569 100.527L108.432 101.034H108.349L108.272 100.985L99.2507 95.0379H99.3687L86.5165 96.523L86.5998 96.4744L83.2063 100.784L82.2902 101.922C82.1909 102.059 82.0769 102.185 81.9502 102.297C82.0334 102.15 82.1286 102.011 82.2347 101.88L83.0952 100.701L86.3985 96.3217L86.4332 96.2801H86.4818L99.2785 94.7117H99.3479H99.4034L108.467 100.638H108.307L110.444 100.125L133.435 94.6771L140.41 93.0671L142.311 92.6507C142.537 92.5995 142.767 92.567 142.998 92.5535Z" fill="#EB996E"/>
<path d="M93.9003 100.125C92.2452 100.325 90.5766 100.393 88.9107 100.326H87.9947L88.1265 100.277C87.12 101.197 86.0382 102.03 84.8926 102.769C85.8014 101.758 86.7976 100.829 87.8698 99.9927L87.9253 99.9441H88.9107C90.576 99.8705 92.2446 99.9309 93.9003 100.125Z" fill="#EB996E"/>
<path d="M149.029 95.7666C148.37 94.729 147.511 93.8326 146.503 93.1295C144.782 92.0191 143.033 92.1233 143.033 91.9983C143.39 91.8667 143.777 91.8355 144.15 91.9081C145.061 92.0014 145.938 92.3035 146.713 92.791C147.488 93.2785 148.141 93.9381 148.619 94.7187C148.847 95.0251 148.988 95.387 149.029 95.7666Z" fill="#EB996E"/>
<path d="M161.832 72.9351L158.05 73.0739C154.858 73.1711 150.417 73.2821 145.559 73.3793L143.998 73.414H143.796V73.2197C143.623 68.695 143.699 64.6631 143.796 61.7692C143.838 60.3189 143.893 59.1599 143.942 58.3549C143.945 57.9382 143.985 57.5226 144.06 57.1127C144.104 57.5276 144.116 57.9452 144.095 58.3619C144.095 59.2293 144.095 60.3744 144.095 61.7762C144.095 64.67 144.046 68.7158 144.234 73.1988L144.025 73.0115H145.594C150.451 72.9143 154.893 72.8519 158.085 72.8241H161.874C162.728 72.7825 160.445 72.8796 161.832 72.9351Z" fill="#263238"/>
<path d="M135.129 73.0531C134.99 73.3992 134.822 73.7334 134.629 74.0524C134.463 74.3716 134.254 74.7464 133.977 75.1836C133.699 75.6208 133.415 76.1204 133.04 76.6409C132.189 77.8813 131.262 79.0679 130.264 80.194C129.033 81.5666 127.709 82.8535 126.302 84.0455C124.879 85.2182 123.379 86.2939 121.812 87.2655C120.526 88.0419 119.194 88.7372 117.821 89.3474C117.238 89.625 116.69 89.8262 116.218 90.0414C115.746 90.2565 115.33 90.3814 114.99 90.4855C114.645 90.6254 114.287 90.73 113.921 90.7978C114.249 90.6227 114.59 90.4741 114.941 90.3536C115.274 90.2287 115.684 90.0691 116.142 89.8609C116.6 89.6527 117.141 89.4376 117.71 89.167C119.056 88.5229 120.365 87.8047 121.631 87.0157C124.74 85.0835 127.562 82.7241 130.014 80.0066C131.015 78.9018 131.956 77.7435 132.832 76.5368C133.213 76.0233 133.526 75.5375 133.81 75.1142C134.095 74.6909 134.324 74.33 134.504 74.0246C134.685 73.6838 134.894 73.3588 135.129 73.0531Z" fill="#263238"/>
<path d="M157.28 51.0058C157.112 51.0223 156.942 51.0223 156.773 51.0058L155.323 50.9573L150 50.7491C145.503 50.5964 139.292 50.4784 132.436 50.5686C125.58 50.6589 119.369 50.9642 114.879 51.2626L109.563 51.6096L108.12 51.6998C107.951 51.7153 107.782 51.7153 107.613 51.6998C107.776 51.6542 107.944 51.6285 108.113 51.6235L109.549 51.4639C110.805 51.332 112.617 51.1724 114.858 50.9989C119.348 50.6519 125.559 50.3049 132.429 50.2217C139.299 50.1384 145.517 50.2911 150.014 50.5131C152.256 50.6172 154.074 50.7283 155.33 50.8254L156.773 50.9434C156.944 50.9482 157.114 50.9691 157.28 51.0058Z" fill="#FAFAFA"/>
<path d="M111.159 65.1211C108.129 65.3617 105.085 65.3617 102.054 65.1211C105.085 64.8805 108.129 64.8805 111.159 65.1211Z" fill="#FAFAFA"/>
<path d="M143.623 66.6895C143.521 66.7288 143.413 66.7522 143.304 66.7588L142.367 66.8976C141.555 67.0087 140.382 67.1475 138.897 67.3001C135.982 67.5985 131.957 67.9247 127.474 68.0982C122.991 68.2717 118.959 68.2648 116.031 68.1884C114.567 68.1537 113.38 68.1051 112.561 68.0566L111.624 67.9941C111.514 67.994 111.404 67.9777 111.298 67.9455C111.406 67.9292 111.516 67.9292 111.624 67.9455H112.568H116.038C118.966 67.9455 123.012 67.9455 127.467 67.7512C131.923 67.5569 135.961 67.2932 138.876 67.0573L142.346 66.7727L143.29 66.7033C143.399 66.6795 143.512 66.6749 143.623 66.6895Z" fill="#FAFAFA"/>
<path d="M160.347 63.8512C160.347 63.9483 156.656 64.3647 152.082 64.7741C147.509 65.1836 143.796 65.4265 143.755 65.3293C143.713 65.2322 147.447 64.8158 152.02 64.4133C156.593 64.0108 160.306 63.754 160.347 63.8512Z" fill="#FAFAFA"/>
<path d="M124.324 84.9754C123.604 85.1012 122.875 85.1593 122.145 85.1489C120.791 85.2044 118.925 85.2322 116.857 85.1836C114.789 85.1351 112.929 85.0171 111.583 84.8991C110.852 84.8715 110.125 84.7787 109.41 84.6215C110.138 84.5637 110.869 84.5637 111.596 84.6215C112.95 84.6771 114.809 84.7464 116.871 84.795C118.932 84.8436 120.791 84.8644 122.138 84.8783C122.868 84.8541 123.599 84.8866 124.324 84.9754Z" fill="#FAFAFA"/>
<path d="M143.387 85.5722C143.133 85.6578 142.87 85.7137 142.603 85.7387C142.096 85.8289 141.36 85.9331 140.444 86.051C138.619 86.2731 136.079 86.509 133.269 86.6201C130.458 86.7311 127.911 86.6895 126.072 86.6201C125.149 86.5784 124.407 86.5299 123.893 86.4813C123.626 86.4779 123.36 86.4406 123.102 86.3702C123.367 86.3406 123.635 86.3406 123.9 86.3702H126.079C127.918 86.3702 130.458 86.3702 133.255 86.28C136.052 86.1898 138.585 85.9747 140.417 85.8151L142.589 85.6208C142.852 85.571 143.12 85.5546 143.387 85.5722Z" fill="#FAFAFA"/>
<path d="M113.31 98.8547C112.083 98.7827 110.88 98.4814 109.764 97.9664C108.601 97.5568 107.523 96.9357 106.586 96.1344C106.648 96.0442 108.043 96.8908 109.896 97.6333C111.749 98.3759 113.331 98.7506 113.31 98.8547Z" fill="#FAFAFA"/>
<path d="M130.618 4.26736H129.924C126.776 4.25195 123.736 5.41602 121.403 7.53024C119.071 9.64446 117.615 12.5555 117.321 15.69C116.836 21.6789 116.385 28.2993 116.433 31.5124C116.53 38.1675 123.373 39.1877 123.373 39.1877L123.116 45.0933C123.045 47.2119 123.803 49.2747 125.228 50.8439C126.653 52.413 128.634 53.3648 130.75 53.4972C131.824 53.5599 132.899 53.4089 133.915 53.0529C134.93 52.6969 135.864 52.1431 136.664 51.4234C137.464 50.7037 138.113 49.8326 138.574 48.8603C139.034 47.8881 139.297 46.8342 139.348 45.7595L140.736 17.6609C141.353 10.749 137.724 4.65598 130.618 4.26736Z" fill="#FFBE9D"/>
<path d="M123.283 39.1737C126.446 39.172 129.545 38.2824 132.228 36.6061C132.228 36.6061 130.146 41.4014 123.311 40.8115L123.283 39.1737Z" fill="#EB996E"/>
<path d="M119.716 19.8192C119.718 20.0703 119.817 20.3108 119.993 20.4896C120.17 20.6684 120.409 20.7715 120.66 20.7769C120.782 20.7873 120.906 20.7731 121.023 20.7354C121.14 20.6977 121.249 20.6371 121.343 20.557C121.436 20.477 121.513 20.379 121.569 20.269C121.624 20.159 121.657 20.0392 121.666 19.9164C121.654 19.6719 121.55 19.4411 121.375 19.27C121.2 19.0989 120.967 19.0001 120.722 18.9934C120.48 18.972 120.238 19.0465 120.05 19.2009C119.862 19.3553 119.742 19.5773 119.716 19.8192Z" fill="#263238"/>
<path d="M118.772 18.9378C118.89 19.0627 119.626 18.5283 120.68 18.5283C121.735 18.5283 122.499 19.0419 122.61 18.9169C122.721 18.792 122.547 18.6394 122.207 18.3965C121.752 18.0951 121.219 17.9343 120.673 17.9343C120.128 17.9343 119.595 18.0951 119.14 18.3965C118.821 18.6602 118.71 18.8822 118.772 18.9378Z" fill="#263238"/>
<path d="M129.515 20.1314C129.518 20.3819 129.618 20.6214 129.794 20.7999C129.97 20.9783 130.208 21.0819 130.458 21.0891C130.581 21.0995 130.705 21.0854 130.822 21.0477C130.939 21.0099 131.048 20.9493 131.141 20.8692C131.235 20.7892 131.312 20.6913 131.367 20.5813C131.423 20.4713 131.456 20.3514 131.465 20.2286C131.461 19.9757 131.359 19.7342 131.18 19.5553C131.001 19.3765 130.76 19.2745 130.507 19.2709C130.261 19.2537 130.019 19.3347 129.833 19.496C129.647 19.6573 129.532 19.8858 129.515 20.1314Z" fill="#263238"/>
<path d="M128.571 19.1113C128.689 19.2362 129.431 18.7018 130.479 18.7018C131.527 18.7018 132.297 19.2084 132.415 19.0835C132.533 18.9586 132.346 18.8059 132.006 18.57C131.549 18.2618 131.009 18.1019 130.458 18.112C129.914 18.1073 129.382 18.2749 128.938 18.5908C128.619 18.8337 128.508 19.0558 128.571 19.1113Z" fill="#263238"/>
<path d="M125.295 26.6963C124.74 26.5298 124.167 26.4319 123.588 26.4048C123.324 26.4048 123.068 26.3285 123.019 26.1481C122.997 25.8765 123.06 25.6047 123.199 25.3708L123.991 23.3861C125.08 20.5547 125.871 18.223 125.76 18.1814C125.649 18.1397 124.657 20.402 123.56 23.2334C123.297 23.9274 123.047 24.6213 122.804 25.232C122.639 25.5479 122.593 25.9119 122.672 26.2591C122.713 26.3505 122.773 26.432 122.849 26.4978C122.924 26.5637 123.013 26.6125 123.109 26.6408C123.259 26.6793 123.413 26.7003 123.567 26.7032C124.141 26.7738 124.722 26.7715 125.295 26.6963Z" fill="#263238"/>
<path d="M128.383 27.3972C128.217 27.3972 128.217 28.5006 127.238 29.2917C126.26 30.0829 125.052 29.9857 125.045 30.1176C125.038 30.2494 125.316 30.3327 125.829 30.3396C126.494 30.3519 127.143 30.131 127.662 29.7151C128.153 29.3241 128.472 28.7561 128.55 28.1328C128.591 27.6679 128.467 27.3903 128.383 27.3972Z" fill="#263238"/>
<path d="M128.807 15.1071C128.911 15.3847 129.959 15.2528 131.194 15.3916C132.429 15.5304 133.422 15.8566 133.581 15.6067C133.658 15.4888 133.484 15.232 133.082 14.9614C132.542 14.63 131.936 14.4237 131.307 14.3577C130.677 14.2916 130.041 14.3675 129.445 14.5797C128.994 14.7532 128.765 14.9752 128.807 15.1071Z" fill="#263238"/>
<path d="M119.147 15.9814C119.334 16.2104 120.056 15.9814 120.923 15.9814C121.791 15.9814 122.533 16.1341 122.7 15.8912C122.776 15.7732 122.658 15.5373 122.339 15.3222C121.904 15.0574 121.401 14.925 120.892 14.941C120.384 14.957 119.89 15.1208 119.473 15.4124C119.167 15.6275 119.07 15.8704 119.147 15.9814Z" fill="#263238"/>
<path d="M139.737 22.588C139.855 22.5394 144.428 21.2001 144.289 25.7733C144.15 30.3465 139.487 29.2431 139.487 29.1182C139.487 28.9933 139.737 22.588 139.737 22.588Z" fill="#FFBE9D"/>
<path d="M140.555 27.4318C140.555 27.4318 140.632 27.4943 140.77 27.5567C140.965 27.6329 141.18 27.6329 141.374 27.5567C141.679 27.3842 141.931 27.1326 142.105 26.8284C142.278 26.5242 142.366 26.1788 142.36 25.8288C142.387 25.437 142.32 25.0444 142.165 24.6837C142.126 24.5393 142.051 24.4069 141.948 24.298C141.845 24.1891 141.717 24.1071 141.575 24.0591C141.484 24.033 141.386 24.0387 141.298 24.0752C141.209 24.1117 141.136 24.177 141.09 24.2604C141.02 24.3853 141.048 24.4825 141.02 24.4894C140.993 24.4963 140.923 24.4061 140.972 24.2187C140.999 24.1069 141.066 24.0086 141.159 23.9412C141.295 23.8607 141.454 23.8289 141.61 23.8509C141.794 23.8893 141.966 23.9728 142.111 24.0939C142.255 24.215 142.366 24.37 142.436 24.5449C142.622 24.9437 142.705 25.3826 142.679 25.8218C142.683 26.2305 142.567 26.6313 142.345 26.9744C142.123 27.3175 141.804 27.5876 141.43 27.751C141.305 27.7838 141.174 27.7883 141.046 27.7643C140.919 27.7403 140.799 27.6884 140.694 27.6122C140.555 27.5428 140.535 27.4387 140.555 27.4318Z" fill="#EB996E"/>
<path d="M136.676 9.06959L117.197 9.48597C117.87 8.18942 118.855 7.08052 120.063 6.25903C122.615 4.34692 125.695 3.26854 128.883 3.17089C132.054 3.11538 138.522 6.8836 140.819 9.01407C142.665 10.7212 142.651 12.1994 142.651 12.1994C142.943 14.6629 141.534 17.4527 140.972 19.833C140.68 21.0821 140.118 24.8434 140.118 24.8434C139.043 24.8434 138.647 24.0106 138.814 22.9766L139.008 18.9239C137.942 18.113 137.175 16.9711 136.829 15.6773C136.482 14.3836 136.575 13.0113 137.093 11.7761C137.37 11.443 137.96 9.75662 136.676 9.06959Z" fill="#263238"/>
<path d="M132.589 23.4486C132.604 23.4515 132.619 23.4513 132.635 23.448C132.65 23.4446 132.664 23.4381 132.676 23.429C132.689 23.4199 132.699 23.4082 132.707 23.3949C132.714 23.3815 132.719 23.3667 132.721 23.3514C132.725 23.3364 132.726 23.3206 132.724 23.3051C132.722 23.2897 132.717 23.2747 132.709 23.2611C132.702 23.2476 132.691 23.2357 132.679 23.2262C132.667 23.2167 132.652 23.2097 132.637 23.2057C132.605 23.2017 132.573 23.2103 132.547 23.2297C132.521 23.2491 132.504 23.2778 132.499 23.3098C132.492 23.3401 132.498 23.3717 132.515 23.3976C132.532 23.4236 132.559 23.4419 132.589 23.4486Z" fill="#EB996E"/>
<path d="M130.576 23.0113C130.594 23.0132 130.611 23.0117 130.628 23.0068C130.645 23.0019 130.66 22.9937 130.674 22.9827C130.687 22.9718 130.699 22.9582 130.707 22.9429C130.715 22.9275 130.72 22.9107 130.722 22.8933C130.731 22.8611 130.727 22.8267 130.712 22.7971C130.696 22.7675 130.67 22.7448 130.639 22.7337C130.621 22.7318 130.604 22.7333 130.587 22.7382C130.57 22.7431 130.555 22.7513 130.541 22.7623C130.528 22.7733 130.516 22.7868 130.508 22.8021C130.5 22.8175 130.495 22.8343 130.493 22.8517C130.484 22.8839 130.488 22.9183 130.503 22.9479C130.519 22.9775 130.545 23.0002 130.576 23.0113Z" fill="#EB996E"/>
<path d="M129.23 22.9836C129.292 22.9836 129.355 22.9142 129.369 22.8101C129.383 22.706 129.369 22.6227 129.272 22.6158C129.174 22.6089 129.147 22.6852 129.14 22.7824C129.133 22.8795 129.167 22.9767 129.23 22.9836Z" fill="#EB996E"/>
<path d="M131.603 24.6769C131.666 24.6769 131.721 24.6422 131.714 24.6075C131.707 24.5728 131.666 24.5311 131.603 24.5311C131.541 24.5311 131.485 24.5658 131.485 24.6075C131.485 24.6491 131.541 24.6769 131.603 24.6769Z" fill="#EB996E"/>
<path d="M129.764 24.2674C129.796 24.2674 129.827 24.2552 129.85 24.2333C129.873 24.2113 129.887 24.1813 129.889 24.1494C129.893 24.1173 129.885 24.0849 129.865 24.059C129.846 24.0331 129.817 24.0158 129.785 24.0106C129.753 24.0106 129.722 24.0228 129.699 24.0447C129.676 24.0667 129.662 24.0967 129.66 24.1286C129.657 24.1446 129.658 24.1611 129.661 24.177C129.665 24.1928 129.672 24.2078 129.682 24.2208C129.692 24.2338 129.704 24.2447 129.718 24.2527C129.732 24.2608 129.748 24.2657 129.764 24.2674Z" fill="#EB996E"/>
<path d="M120.188 23.157C120.212 23.1635 120.237 23.1625 120.261 23.1543C120.285 23.146 120.305 23.1309 120.32 23.1108C120.335 23.0907 120.344 23.0666 120.345 23.0416C120.346 23.0166 120.339 22.9919 120.326 22.9706C120.313 22.9493 120.294 22.9325 120.271 22.9223C120.248 22.9121 120.223 22.909 120.198 22.9134C120.173 22.9178 120.151 22.9294 120.133 22.9469C120.115 22.9644 120.103 22.9868 120.098 23.0113C120.091 23.0425 120.097 23.075 120.114 23.1021C120.13 23.1292 120.157 23.1488 120.188 23.157Z" fill="#EB996E"/>
<path d="M118.821 23.053C118.883 23.053 118.939 22.9975 118.952 22.9212C118.95 22.8993 118.941 22.8786 118.927 22.8615C118.913 22.8444 118.894 22.8315 118.874 22.8244C118.853 22.8172 118.83 22.8161 118.809 22.821C118.787 22.826 118.768 22.8369 118.752 22.8526C118.736 22.8682 118.725 22.8878 118.72 22.9093C118.715 22.9308 118.717 22.9533 118.724 22.9742C118.731 22.995 118.744 23.0135 118.761 23.0274C118.778 23.0414 118.799 23.0502 118.821 23.053Z" fill="#EB996E"/>
<path d="M121.395 23.2055C121.423 23.2104 121.451 23.2055 121.475 23.1915C121.499 23.1775 121.518 23.1554 121.527 23.1292C121.53 23.1154 121.53 23.1011 121.527 23.0872C121.524 23.0734 121.518 23.0605 121.509 23.0492C121.501 23.038 121.49 23.0288 121.477 23.0222C121.465 23.0156 121.451 23.0119 121.437 23.0112C121.409 23.004 121.38 23.0071 121.354 23.0199C121.329 23.0326 121.309 23.0542 121.298 23.0806C121.296 23.1098 121.305 23.1387 121.323 23.1618C121.341 23.1848 121.366 23.2004 121.395 23.2055Z" fill="#EB996E"/>
<path d="M120.382 24.5449C120.413 24.5543 120.447 24.5516 120.477 24.5375C120.506 24.5234 120.529 24.4988 120.542 24.4686C120.55 24.4546 120.555 24.4391 120.558 24.4229C120.56 24.4068 120.558 24.3903 120.554 24.3747C120.549 24.359 120.542 24.3445 120.531 24.332C120.521 24.3195 120.508 24.3093 120.493 24.302C120.478 24.2965 120.461 24.2942 120.445 24.295C120.428 24.2959 120.412 24.3 120.397 24.3071C120.383 24.3142 120.369 24.3241 120.358 24.3364C120.347 24.3486 120.339 24.3629 120.333 24.3784C120.318 24.407 120.315 24.4404 120.324 24.4715C120.333 24.5025 120.354 24.5289 120.382 24.5449Z" fill="#EB996E"/>
<path d="M119.216 24.3091C119.23 24.3075 119.243 24.303 119.254 24.2961C119.266 24.2891 119.276 24.2797 119.284 24.2686C119.292 24.2575 119.297 24.2448 119.3 24.2315C119.303 24.2181 119.302 24.2044 119.299 24.1911C119.289 24.165 119.268 24.144 119.242 24.1323C119.217 24.1207 119.187 24.1194 119.161 24.1286C119.134 24.1337 119.111 24.1488 119.095 24.1708C119.08 24.1928 119.073 24.22 119.077 24.2466C119.082 24.2601 119.089 24.2725 119.099 24.2831C119.109 24.2937 119.12 24.3021 119.133 24.308C119.146 24.3139 119.16 24.317 119.175 24.3172C119.189 24.3173 119.203 24.3146 119.216 24.3091Z" fill="#EB996E"/>
<path d="M140.951 9.27778C141.169 8.43934 141.184 7.56082 140.993 6.7157C140.802 5.87058 140.412 5.08341 139.855 4.42003C139.29 3.73916 138.577 3.19726 137.769 2.83626C136.962 2.47526 136.082 2.30483 135.198 2.33813C134.298 2.47186 133.388 2.53682 132.478 2.53244C130.791 2.35201 129.494 1.04042 127.932 0.401977C126.703 -0.0715286 125.352 -0.128358 124.087 0.240219C122.822 0.608795 121.713 1.38239 120.93 2.44222C120.333 3.30274 119.945 4.37145 119.043 4.91275C118.258 5.38464 117.266 5.343 116.385 5.60671C115.514 5.89168 114.759 6.45166 114.233 7.2025C113.707 7.95334 113.44 8.85448 113.47 9.7705C113.557 10.6837 113.894 11.5553 114.444 12.2897C114.993 13.0242 115.734 13.5932 116.586 13.9343C117.455 14.2703 118.387 14.4116 119.316 14.348C120.245 14.2845 121.149 14.0177 121.964 13.5665C123.435 12.7684 124.74 11.4152 126.433 11.4846C128.127 11.554 129.695 13.1362 131.402 12.8031C132.272 12.5346 133.048 12.0273 133.644 11.3389C134.241 10.6484 135.061 10.1892 135.961 10.0411C136.878 9.98562 137.349 11.207 137.023 12.0398L140.951 9.31941" fill="#263238"/>
<path d="M117.578 7.078V7.14739C117.578 7.18903 117.641 7.25149 117.696 7.32783C117.851 7.55932 118.038 7.76734 118.252 7.94545C118.932 8.52457 119.809 8.81893 120.701 8.76722C121.593 8.71551 122.431 8.32172 123.04 7.66786C123.523 7.02531 123.972 6.35822 124.386 5.66925C124.633 5.32306 124.956 5.03816 125.33 4.8365C125.733 4.64526 126.175 4.55023 126.621 4.5589C127.084 4.57284 127.538 4.69399 127.946 4.91283C128.361 5.13657 128.701 5.47669 128.925 5.89131C129.134 6.32851 129.366 6.75471 129.619 7.16822C129.754 7.37943 129.937 7.55601 130.152 7.68377C130.368 7.81152 130.611 7.88689 130.861 7.90382C131.351 7.91845 131.835 7.78548 132.249 7.52214C132.631 7.29451 132.979 7.01417 133.283 6.68938C133.791 6.07507 134.459 5.61184 135.212 5.35002C135.552 5.28657 135.901 5.29388 136.238 5.3715C136.574 5.44911 136.891 5.59537 137.169 5.80111C137.634 6.1298 138.005 6.57489 138.245 7.09188C138.428 7.48114 138.563 7.89129 138.647 8.31325C138.717 8.66024 138.751 8.93782 138.779 9.11826C138.78 9.21456 138.794 9.31029 138.821 9.40277V9.32645C138.821 9.28481 138.821 9.20847 138.821 9.11826C138.803 8.84376 138.77 8.57041 138.723 8.29937C138.652 7.86871 138.526 7.44892 138.349 7.05023C138.106 6.51406 137.731 6.04839 137.259 5.69701C136.966 5.47398 136.629 5.3149 136.27 5.23004C135.912 5.14517 135.539 5.13641 135.177 5.2043C134.389 5.46754 133.691 5.94876 133.165 6.59223C132.866 6.90339 132.528 7.17403 132.159 7.39722C131.782 7.63128 131.346 7.75398 130.902 7.75114C130.677 7.73122 130.459 7.6579 130.267 7.53724C130.075 7.41658 129.915 7.25204 129.799 7.05718C129.535 6.68244 129.362 6.22442 129.105 5.79416C128.864 5.35141 128.5 4.9876 128.057 4.74628C127.63 4.51658 127.154 4.39059 126.669 4.37848C126.189 4.36512 125.713 4.46746 125.281 4.67688C124.883 4.89069 124.541 5.19494 124.282 5.56515C123.769 6.25912 123.463 7.01554 122.964 7.55684C122.487 8.06538 121.868 8.41844 121.187 8.57002C120.621 8.6941 120.032 8.66778 119.48 8.49368C119.064 8.36258 118.675 8.15553 118.335 7.883C118.049 7.64806 117.795 7.37752 117.578 7.078Z" fill="#455A64"/>
<path d="M114.046 7.14746C113.997 7.26161 113.971 7.38421 113.97 7.50832C113.941 7.85144 113.973 8.19704 114.067 8.52845C114.211 9.02212 114.459 9.47897 114.796 9.86781C115.223 10.3402 115.749 10.7123 116.336 10.9574C117.417 11.3803 118.59 11.5096 119.737 11.3321C120.08 11.2846 120.421 11.2174 120.757 11.1309C120.883 11.1123 121.005 11.0724 121.118 11.0129C121.118 11.0129 120.583 11.11 119.73 11.2003C118.609 11.3407 117.472 11.2 116.42 10.7908C115.856 10.5561 115.35 10.2035 114.934 9.75677C114.607 9.39043 114.359 8.96044 114.206 8.49375C114.076 8.05741 114.022 7.60205 114.046 7.14746Z" fill="#455A64"/>
<path d="M164.851 74.5104C164.733 83.4348 159.3 91.6583 152.193 97.0781C145.087 102.498 136.482 105.503 127.905 107.973C119.327 110.444 110.556 112.491 102.478 116.301C91.3047 121.589 80.9647 128.841 74.6357 139.472C68.3068 150.104 66.0722 164.073 66.7801 176.412L161.735 166.933L166.933 112.977L164.851 74.5104Z" fill="#BEEECB"/>
<path d="M79.7849 131.908C79.7163 132.045 79.6349 132.175 79.5421 132.297L78.7856 133.366C78.4525 133.824 78.0362 134.379 77.6128 135.059C77.1895 135.739 76.6482 136.481 76.1625 137.377C75.6767 138.272 75.0799 139.195 74.5594 140.27C74.0389 141.346 73.4768 142.477 72.9355 143.699C71.807 146.374 70.8791 149.13 70.1597 151.943C69.4973 154.765 69.0244 157.628 68.744 160.513C68.6191 161.846 68.508 163.116 68.4733 164.302C68.4386 165.489 68.4039 166.599 68.39 167.613C68.3762 168.626 68.39 169.542 68.4317 170.347C68.4733 171.152 68.4803 171.846 68.515 172.429C68.5497 173.012 68.5566 173.4 68.5705 173.733C68.589 173.886 68.589 174.039 68.5705 174.191C68.5304 174.044 68.5071 173.893 68.5011 173.74C68.4664 173.407 68.4247 172.977 68.3762 172.443C68.3276 171.908 68.2582 171.187 68.2304 170.361C68.2027 169.535 68.1263 168.64 68.1333 167.62C68.1402 166.599 68.1333 165.496 68.168 164.296C68.2027 163.095 68.2998 161.832 68.4109 160.486C68.6899 157.58 69.1722 154.698 69.8543 151.86C70.5663 149.031 71.4943 146.261 72.6302 143.574C73.1853 142.352 73.7128 141.187 74.2957 140.139C74.8786 139.091 75.4199 138.119 75.9404 137.245C76.4608 136.37 77.0022 135.628 77.4463 134.955C77.8904 134.282 78.3207 133.733 78.6746 133.282L79.4796 132.262C79.5684 132.134 79.6707 132.015 79.7849 131.908Z" fill="#263238"/>
</svg>
