<svg width="30" height="30" viewBox="0 0 30 30" fill="none" xmlns="http://www.w3.org/2000/svg">
<path d="M5.51617 18.9839C5.26206 18.9839 5.05579 19.1902 5.05579 19.4443C5.05579 19.6984 5.26206 19.9046 5.51617 19.9046C5.77028 19.9046 5.97655 19.6984 5.97655 19.4443C5.97655 19.1902 5.77028 18.9839 5.51617 18.9839Z" fill="#3F3F3F"/>
<path d="M15.0396 19.8017L15.0397 19.8017C15.101 19.8363 15.1706 19.8544 15.2412 19.8544H18.2225C19.2656 19.8544 20.114 20.703 20.114 21.746C20.114 21.8311 20.1078 21.9152 20.0964 21.998L24.3573 20.5332C24.3574 20.5332 24.3575 20.5331 24.3576 20.5331C25.2223 20.2231 26.1862 20.5596 26.5992 21.3239C27.1575 22.3567 26.6753 23.5306 25.6971 23.9279C25.6969 23.928 25.6966 23.9281 25.6964 23.9282L17.1055 27.711C17.1054 27.711 17.1054 27.7111 17.1053 27.7111C16.3308 28.0629 15.507 28.2413 14.6569 28.2413C13.5839 28.2413 12.5307 27.9495 11.6108 27.3974L9.20314 25.9528C8.84202 25.7361 8.26697 25.5853 7.75778 25.5182C7.54181 26.0351 7.03089 26.3998 6.4369 26.3998H3.67461C3.39271 26.3998 3.16423 26.1713 3.16423 25.8894V17.6027C3.16423 17.3208 3.39271 17.0923 3.67461 17.0923H6.4369C7.0464 17.0923 7.56776 17.4753 7.77359 18.0129H11.0024C11.564 18.0129 12.1189 18.1585 12.6073 18.4337L15.0396 19.8017ZM15.0396 19.8017L12.6074 18.4337L15.0396 19.8017ZM7.86805 19.0339V24.5031C8.49277 24.5824 9.21645 24.7706 9.72827 25.0775L9.72828 25.0775L12.1361 26.5222L12.1361 26.5222C12.8973 26.9791 13.7689 27.2205 14.6569 27.2205C15.3612 27.2205 16.0436 27.0726 16.6854 26.7807L16.686 26.7804L25.2931 22.9905L25.2944 22.99L25.2944 22.99C25.2951 22.9897 25.2961 22.9893 25.2974 22.9888L7.86805 19.0339ZM7.86805 19.0339H11.0024C11.3888 19.0339 11.7705 19.1338 12.1067 19.3232L12.1067 19.3233L14.539 20.6913L7.86805 19.0339ZM24.6991 21.4951L24.6991 21.4951L24.4584 21.5778L23.824 21.7959L21.8999 22.4573L19.9761 23.1186L19.3422 23.3365L19.1646 23.3975L19.1178 23.4136L19.1058 23.4178L19.1055 23.4179C18.8354 23.5611 18.5313 23.6375 18.2225 23.6375H13.5424C13.2605 23.6375 13.032 23.409 13.032 23.1273C13.032 22.8454 13.2605 22.6169 13.5424 22.6169H18.2225C18.7023 22.6169 19.0932 22.2245 19.0932 21.7461C19.0932 21.2659 18.7026 20.8754 18.2225 20.8754H15.2412C14.9956 20.8754 14.7526 20.8117 14.539 20.6913L24.6991 21.4951ZM24.6991 21.4951L24.7003 21.4946M24.6991 21.4951L24.7003 21.4946M24.7003 21.4946C25.0944 21.3524 25.5324 21.4967 25.7012 21.8091L25.7452 21.7854M24.7003 21.4946L25.7452 21.7854M25.7452 21.7854L25.7012 21.8091C25.9613 22.2902 25.7463 22.8086 25.3098 22.9837L25.7452 21.7854ZM9.22886 25.9099L11.6365 27.3545C12.5486 27.9019 13.593 28.1913 14.6569 28.1913C15.4999 28.1913 16.3168 28.0143 17.0848 27.6655L9.22886 25.9099ZM6.84728 24.9707C6.84626 25.1959 6.66238 25.379 6.4369 25.379H4.185V18.1131H6.4369C6.66305 18.1131 6.84728 18.2972 6.84728 18.5235V24.9707Z" fill="#3F3F3F" stroke="#3F3F3F" stroke-width="0.1"/>
<path d="M18.4821 2.14197C18.3342 2.14193 18.2143 2.2618 18.2142 2.40969V7.23125C18.2142 7.37914 18.3341 7.49908 18.482 7.49911H23.3035C23.4514 7.49914 23.5713 7.37928 23.5714 7.23139C23.5682 4.42197 21.2915 2.14515 18.4821 2.14197Z" stroke="#3F3F3F"/>
<path d="M21.1185 9.86799H15.8458V4.59543C15.8459 4.42419 15.7071 4.28532 15.5358 4.28528C12.2813 4.28528 9.64282 6.92361 9.64282 10.1781C9.64282 13.4327 12.2812 16.071 15.5357 16.071C18.7902 16.071 21.4285 13.4327 21.4285 10.1781C21.4286 10.0069 21.2898 9.86802 21.1185 9.86799Z" fill="#CCECD3" stroke="#3F3F3F"/>
</svg>
