<svg width="30" height="30" viewBox="0 0 30 30" fill="none" xmlns="http://www.w3.org/2000/svg">
<path d="M5.51629 18.984C5.26218 18.984 5.05591 19.1902 5.05591 19.4443C5.05591 19.6984 5.26218 19.9047 5.51629 19.9047C5.7704 19.9047 5.97667 19.6984 5.97667 19.4443C5.97667 19.1902 5.7704 18.984 5.51629 18.984Z" fill="white"/>
<path d="M24.3743 20.5804L20.0341 22.0725C20.0533 21.9657 20.0641 21.8567 20.0641 21.7461C20.0641 20.7307 19.2381 19.9045 18.2226 19.9045H15.2413C15.1622 19.9045 15.0841 19.8842 15.0152 19.8454L12.5829 18.4774C12.1021 18.2064 11.5555 18.063 11.0025 18.063H7.73886C7.54895 17.5273 7.03714 17.1424 6.43703 17.1424H3.67474C3.42045 17.1424 3.21436 17.3485 3.21436 17.6028V25.8895C3.21436 26.1438 3.42045 26.3499 3.67474 26.3499H6.43703C7.02347 26.3499 7.52629 25.9814 7.72591 25.4638C8.24708 25.5286 8.85007 25.6827 9.22899 25.91L11.6366 27.3546C12.5488 27.9021 13.5931 28.1914 14.657 28.1914C15.5001 28.1914 16.3169 28.0145 17.085 27.6656L25.6777 23.882C26.6294 23.4959 27.0993 22.3541 26.5553 21.3477C26.1552 20.6072 25.2181 20.2777 24.3743 20.5804V20.5804ZM6.89741 24.9709C6.89633 25.2237 6.69006 25.4291 6.43703 25.4291H4.13512V18.0632H6.43703C6.69077 18.0632 6.89741 18.2697 6.89741 18.5236V24.9709ZM25.3279 23.0305C25.3231 23.0323 25.3182 23.0344 25.3134 23.0364C25.3134 23.0364 16.7078 26.8256 16.7062 26.8263C16.0579 27.1212 15.3684 27.2706 14.657 27.2706C13.76 27.2706 12.8795 27.0268 12.1105 26.5651L9.70268 25.1205C9.18726 24.8114 8.44922 24.6229 7.81817 24.5474V18.984H11.0025C11.3975 18.984 11.7877 19.0861 12.1314 19.2798L14.5637 20.6478C14.7697 20.764 15.0043 20.8255 15.2413 20.8255H18.2226C18.7303 20.8255 19.1434 21.2384 19.1434 21.7463C19.1434 22.2521 18.7301 22.667 18.2226 22.667H13.5425C13.2883 22.667 13.0822 22.8731 13.0822 23.1274C13.0822 23.3815 13.2883 23.5876 13.5425 23.5876H18.2226C18.5246 23.5876 18.8218 23.5126 19.0856 23.372C19.0856 23.372 24.6813 21.4484 24.6834 21.4477C25.096 21.2988 25.5625 21.447 25.7453 21.7855C26.0196 22.2928 25.7928 22.8443 25.3279 23.0305V23.0305Z" fill="white"/>
<path d="M18.4822 2.14202C18.3343 2.14199 18.2144 2.26185 18.2144 2.40974V7.23131C18.2143 7.3792 18.3342 7.49913 18.4821 7.49916H23.3036C23.4515 7.4992 23.5715 7.37933 23.5715 7.23144C23.5683 4.42202 21.2916 2.1452 18.4822 2.14202Z" stroke="white"/>
<path d="M21.1185 9.868H15.8458V4.59544C15.8459 4.4242 15.7071 4.28533 15.5358 4.28529C12.2813 4.28529 9.64282 6.92363 9.64282 10.1782C9.64282 13.4327 12.2812 16.071 15.5357 16.071C18.7902 16.071 21.4285 13.4327 21.4285 10.1782C21.4286 10.0069 21.2898 9.86804 21.1185 9.868Z" fill="#00C802" stroke="white"/>
</svg>
