<svg width="28" height="28" viewBox="0 0 28 28" fill="none" xmlns="http://www.w3.org/2000/svg">
<path d="M5.50175 18.8577C6.09004 20.0725 7.07239 21.0524 8.28876 21.6375C8.37848 21.68 8.47773 21.6984 8.57672 21.6909C8.67571 21.6834 8.77103 21.6502 8.85331 21.5947L10.6399 20.4013C10.7188 20.3477 10.81 20.3151 10.905 20.3063C10.9999 20.2976 11.0956 20.313 11.183 20.3512L14.5274 21.7876C14.6417 21.8352 14.7372 21.919 14.7992 22.0262C14.8611 22.1334 14.8862 22.2579 14.8704 22.3807C14.7644 23.2081 14.3606 23.9685 13.7345 24.5196C13.1084 25.0707 12.3029 25.3748 11.4688 25.375C8.89122 25.375 6.41921 24.3511 4.59657 22.5284C2.77394 20.7058 1.75 18.2338 1.75 15.6562C1.75019 14.8221 2.05429 14.0166 2.60542 13.3905C3.15654 12.7644 3.91691 12.3606 4.74425 12.2546C4.86705 12.2388 4.99163 12.2639 5.09881 12.3258C5.20598 12.3878 5.28981 12.4833 5.33739 12.5976L6.77377 15.9492C6.81112 16.0352 6.82675 16.1291 6.81927 16.2225C6.81179 16.316 6.78144 16.4062 6.73089 16.4851L5.53748 18.3003C5.48435 18.3824 5.45316 18.4767 5.44691 18.5743C5.44065 18.6719 5.45953 18.7695 5.50175 18.8577V18.8577Z" fill="#00C802" stroke="#FFFFFF" stroke-linecap="round" stroke-linejoin="round"/>
<path d="M21.8967 8.3125C22.8632 8.3125 23.6467 7.529 23.6467 6.5625C23.6467 5.596 22.8632 4.8125 21.8967 4.8125C20.9302 4.8125 20.1467 5.596 20.1467 6.5625C20.1467 7.529 20.9302 8.3125 21.8967 8.3125Z" fill="#00C802" stroke="#FFFFFF" stroke-linecap="round" stroke-linejoin="round"/>
<path d="M21.8967 4.8125V3.5" stroke="#FFFFFF" stroke-linecap="round" stroke-linejoin="round"/>
<path d="M20.3766 5.6875L19.25 5.03125" stroke="#FFFFFF" stroke-linecap="round" stroke-linejoin="round"/>
<path d="M20.3766 7.4375L19.25 8.09375" stroke="#FFFFFF" stroke-linecap="round" stroke-linejoin="round"/>
<path d="M21.8967 8.3125V9.625" stroke="#FFFFFF" stroke-linecap="round" stroke-linejoin="round"/>
<path d="M23.4172 7.4375L24.5438 8.09375" stroke="#FFFFFF" stroke-linecap="round" stroke-linejoin="round"/>
<path d="M23.4172 5.6875L24.5438 5.03125" stroke="#FFFFFF" stroke-linecap="round" stroke-linejoin="round"/>
<path d="M14.0445 16.3533C16.3146 16.3533 18.1549 14.513 18.1549 12.2429C18.1549 9.97277 16.3146 8.13248 14.0445 8.13248C11.7744 8.13248 9.93408 9.97277 9.93408 12.2429C9.93408 14.513 11.7744 16.3533 14.0445 16.3533Z" stroke="#FFFFFF" stroke-linecap="round" stroke-linejoin="round"/>
<path d="M19.7358 19.3096C19.094 18.3963 18.2418 17.6509 17.2512 17.1363C16.2606 16.6217 15.1607 16.353 14.0444 16.353C12.9282 16.353 11.8283 16.6217 10.8377 17.1363C10.4735 17.3255 10.1281 17.5458 9.80493 17.7943" stroke="#FFFFFF" stroke-linecap="round" stroke-linejoin="round"/>
</svg>
