<svg xmlns="http://www.w3.org/2000/svg" xmlns:xlink="http://www.w3.org/1999/xlink" version="1.1" width="1000" height="1000" viewBox="0 0 1000 1000" xml:space="preserve">
<desc>Created with Fabric.js 3.5.0</desc>
<defs>
</defs>
<rect x="0" y="0" width="100%" height="100%" fill="#ffffff"/>
<g transform="matrix(1 0 0 1 59.4545 59.4545)" id="548680">
<g style="" vector-effect="non-scaling-stroke">
		<g transform="matrix(1 0 0 1 -5.6875 4.8125)">
<path style="stroke: rgb(255,255,255); stroke-width: 1; stroke-dasharray: none; stroke-linecap: round; stroke-dashoffset: 0; stroke-linejoin: round; stroke-miterlimit: 4; is-custom-font: none; font-file-url: none; fill: rgb(0,200,2); fill-rule: nonzero; opacity: 1;" transform=" translate(-8.3125, -18.8125)" d="M 5.50175 18.8577 C 6.09004 20.0725 7.07239 21.0524 8.28876 21.6375 C 8.37848 21.68 8.47773 21.6984 8.57672 21.6909 C 8.67571 21.6834 8.77103 21.6502 8.85331 21.5947 L 10.6399 20.4013 C 10.7188 20.3477 10.81 20.3151 10.905 20.3063 C 10.9999 20.2976 11.0956 20.313 11.183 20.3512 L 14.5274 21.7876 C 14.6417 21.8352 14.7372 21.919 14.7992 22.0262 C 14.8611 22.1334 14.8862 22.2579 14.8704 22.3807 C 14.7644 23.2081 14.3606 23.9685 13.7345 24.5196 C 13.1084 25.0707 12.3029 25.3748 11.4688 25.375 C 8.89122 25.375 6.41921 24.3511 4.59657 22.5284 C 2.77394 20.7058 1.75 18.2338 1.75 15.6562 C 1.75019 14.8221 2.05429 14.0166 2.60542 13.3905 C 3.15654 12.7644 3.91691 12.3606 4.74425 12.2546 C 4.86705 12.2388 4.99163 12.2639 5.09881 12.3258 C 5.20598 12.3878 5.28981 12.4833 5.33739 12.5976 L 6.77377 15.9492 C 6.81112 16.0352 6.82675 16.1291 6.81927 16.2225 C 6.81179 16.316 6.78144 16.4062 6.73089 16.4851 L 5.53748 18.3003 C 5.48435 18.3824 5.45316 18.4767 5.44691 18.5743 C 5.44065 18.6719 5.45953 18.7695 5.50175 18.8577 V 18.8577 Z" stroke-linecap="round"/>
</g>
		<g transform="matrix(1 0 0 1 7.8967 -7.4375)">
<path style="stroke: rgb(255,255,255); stroke-width: 1; stroke-dasharray: none; stroke-linecap: round; stroke-dashoffset: 0; stroke-linejoin: round; stroke-miterlimit: 4; is-custom-font: none; font-file-url: none; fill: rgb(0,200,2); fill-rule: nonzero; opacity: 1;" transform=" translate(-21.8967, -6.5625)" d="M 21.8967 8.3125 C 22.8632 8.3125 23.6467 7.529 23.6467 6.5625 C 23.6467 5.596 22.8632 4.8125 21.8967 4.8125 C 20.9302 4.8125 20.1467 5.596 20.1467 6.5625 C 20.1467 7.529 20.9302 8.3125 21.8967 8.3125 Z" stroke-linecap="round"/>
</g>
		<g transform="matrix(1 0 0 1 7.8967 -9.8438)">
<path style="stroke: rgb(255,255,255); stroke-width: 1; stroke-dasharray: none; stroke-linecap: round; stroke-dashoffset: 0; stroke-linejoin: round; stroke-miterlimit: 4; is-custom-font: none; font-file-url: none; fill: none; fill-rule: nonzero; opacity: 1;" transform=" translate(-21.8967, -4.1563)" d="M 21.8967 4.8125 V 3.5" stroke-linecap="round"/>
</g>
		<g transform="matrix(1 0 0 1 5.8133 -8.6407)">
<path style="stroke: rgb(255,255,255); stroke-width: 1; stroke-dasharray: none; stroke-linecap: round; stroke-dashoffset: 0; stroke-linejoin: round; stroke-miterlimit: 4; is-custom-font: none; font-file-url: none; fill: none; fill-rule: nonzero; opacity: 1;" transform=" translate(-19.8133, -5.3594)" d="M 20.3766 5.6875 L 19.25 5.03125" stroke-linecap="round"/>
</g>
		<g transform="matrix(1 0 0 1 5.8133 -6.2344)">
<path style="stroke: rgb(255,255,255); stroke-width: 1; stroke-dasharray: none; stroke-linecap: round; stroke-dashoffset: 0; stroke-linejoin: round; stroke-miterlimit: 4; is-custom-font: none; font-file-url: none; fill: none; fill-rule: nonzero; opacity: 1;" transform=" translate(-19.8133, -7.7656)" d="M 20.3766 7.4375 L 19.25 8.09375" stroke-linecap="round"/>
</g>
		<g transform="matrix(1 0 0 1 7.8967 -5.0313)">
<path style="stroke: rgb(255,255,255); stroke-width: 1; stroke-dasharray: none; stroke-linecap: round; stroke-dashoffset: 0; stroke-linejoin: round; stroke-miterlimit: 4; is-custom-font: none; font-file-url: none; fill: none; fill-rule: nonzero; opacity: 1;" transform=" translate(-21.8967, -8.9688)" d="M 21.8967 8.3125 V 9.625" stroke-linecap="round"/>
</g>
		<g transform="matrix(1 0 0 1 9.9805 -6.2344)">
<path style="stroke: rgb(255,255,255); stroke-width: 1; stroke-dasharray: none; stroke-linecap: round; stroke-dashoffset: 0; stroke-linejoin: round; stroke-miterlimit: 4; is-custom-font: none; font-file-url: none; fill: none; fill-rule: nonzero; opacity: 1;" transform=" translate(-23.9805, -7.7656)" d="M 23.4172 7.4375 L 24.5438 8.09375" stroke-linecap="round"/>
</g>
		<g transform="matrix(1 0 0 1 9.9805 -8.6407)">
<path style="stroke: rgb(255,255,255); stroke-width: 1; stroke-dasharray: none; stroke-linecap: round; stroke-dashoffset: 0; stroke-linejoin: round; stroke-miterlimit: 4; is-custom-font: none; font-file-url: none; fill: none; fill-rule: nonzero; opacity: 1;" transform=" translate(-23.9805, -5.3594)" d="M 23.4172 5.6875 L 24.5438 5.03125" stroke-linecap="round"/>
</g>
		<g transform="matrix(1 0 0 1 0.0445 -1.7571)">
<path style="stroke: rgb(255,255,255); stroke-width: 1; stroke-dasharray: none; stroke-linecap: round; stroke-dashoffset: 0; stroke-linejoin: round; stroke-miterlimit: 4; is-custom-font: none; font-file-url: none; fill: none; fill-rule: nonzero; opacity: 1;" transform=" translate(-14.0445, -12.2429)" d="M 14.0445 16.3533 C 16.3146 16.3533 18.1549 14.513 18.1549 12.2429 C 18.1549 9.97277 16.3146 8.13248 14.0445 8.13248 C 11.7744 8.13248 9.93408 9.97277 9.93408 12.2429 C 9.93408 14.513 11.7744 16.3533 14.0445 16.3533 Z" stroke-linecap="round"/>
</g>
		<g transform="matrix(1 0 0 1 0.7703 3.8313)">
<path style="stroke: rgb(255,255,255); stroke-width: 1; stroke-dasharray: none; stroke-linecap: round; stroke-dashoffset: 0; stroke-linejoin: round; stroke-miterlimit: 4; is-custom-font: none; font-file-url: none; fill: none; fill-rule: nonzero; opacity: 1;" transform=" translate(-14.7704, -17.8313)" d="M 19.7358 19.3096 C 19.094 18.3963 18.2418 17.6509 17.2512 17.1363 C 16.2606 16.6217 15.1607 16.353 14.0444 16.353 C 12.9282 16.353 11.8283 16.6217 10.8377 17.1363 C 10.4735 17.3255 10.1281 17.5458 9.80493 17.7943" stroke-linecap="round"/>
</g>
</g>
</g>
</svg>