<svg width="14" height="14" viewBox="0 0 14 14" fill="none" xmlns="http://www.w3.org/2000/svg">
<circle cx="7" cy="7" r="7" fill="#C25E54"/>
<path d="M4.94012 8.58C4.85012 8.74 4.72012 8.91 4.55012 9.04C4.35012 9.19 4.15012 9.25 3.88012 9.25C3.64012 9.25 3.36012 9.21 3.13012 8.98C2.92012 8.77 2.79012 8.43 2.77012 8.13H5.79012V8.01C5.79012 7.57 5.74012 6.79 5.20012 6.23C4.95012 5.97 4.52012 5.68 3.85012 5.68C3.25012 5.68 2.79012 5.9 2.44012 6.25C2.00012 6.7 1.77012 7.33 1.77012 7.98C1.77012 8.61 1.99012 9.19 2.39012 9.59C2.79012 9.99 3.25012 10.13 3.81012 10.13C4.26012 10.13 4.71012 10.03 5.05012 9.81C5.32012 9.64 5.58012 9.36 5.76012 9.04L4.94012 8.58ZM2.84012 7.33C2.89012 7.12 3.00012 6.92 3.14012 6.79C3.27012 6.66 3.49012 6.52 3.83012 6.52C4.15012 6.52 4.36012 6.64 4.49012 6.76C4.64012 6.9 4.75012 7.1 4.79012 7.33H2.84012ZM6.99434 3.33V10H8.37434C9.30434 10 10.0343 9.91 10.8143 9.36C11.6943 8.74 12.1543 7.78 12.1543 6.67C12.1543 5.56 11.6843 4.59 10.8743 3.98C10.1343 3.43 9.32434 3.33 8.39434 3.33H6.99434ZM8.01434 4.29H8.45434C8.94434 4.29 9.65434 4.33 10.2343 4.75C10.7143 5.1 11.1343 5.79 11.1343 6.67C11.1343 7.58 10.6843 8.22 10.2243 8.57C9.64434 9 8.95434 9.04 8.45434 9.04H8.01434V4.29Z" fill="white"/>
</svg>
