<svg width="32" height="32" viewBox="0 0 32 32" fill="none" xmlns="http://www.w3.org/2000/svg">
<path d="M22 0H10C4.47715 0 0 4.47715 0 10V22C0 27.5228 4.47715 32 10 32H22C27.5228 32 32 27.5228 32 22V10C32 4.47715 27.5228 0 22 0Z" fill="#D7F0DC"/>
<path d="M16 6C14.0222 6 12.0888 6.58649 10.4443 7.6853C8.79981 8.78412 7.51809 10.3459 6.76121 12.1732C6.00433 14.0004 5.8063 16.0111 6.19215 17.9509C6.578 19.8907 7.53041 21.6725 8.92894 23.0711C10.3275 24.4696 12.1093 25.422 14.0491 25.8078C15.9889 26.1937 17.9996 25.9957 19.8268 25.2388C21.6541 24.4819 23.2159 23.2002 24.3147 21.5557C25.4135 19.9112 26 17.9778 26 16C25.9949 13.3494 24.9397 10.8088 23.0655 8.93455C21.1912 7.06028 18.6506 6.00508 16 6Z" fill="#00C802"/>
<path d="M20.7828 13.805L15.1481 19.1896C15.0025 19.3266 14.8097 19.4024 14.6097 19.4011C14.5119 19.4025 14.4149 19.3846 14.3241 19.3483C14.2333 19.3119 14.1507 19.258 14.0808 19.1896L11.2635 16.4973C11.1854 16.4291 11.1218 16.3458 11.0767 16.2525C11.0316 16.1591 11.0058 16.0576 11.0009 15.954C10.996 15.8504 11.0121 15.7469 11.0482 15.6497C11.0843 15.5525 11.1397 15.4636 11.2111 15.3883C11.2824 15.3131 11.3682 15.2531 11.4634 15.2118C11.5586 15.1706 11.6611 15.149 11.7648 15.1484C11.8685 15.1478 11.9712 15.1682 12.0668 15.2083C12.1625 15.2484 12.249 15.3075 12.3212 15.3819L14.6097 17.5646L19.7251 12.6896C19.8746 12.5591 20.0689 12.4915 20.2671 12.5009C20.4654 12.5102 20.6524 12.5959 20.7889 12.7399C20.9255 12.884 21.0011 13.0752 21 13.2737C20.9988 13.4722 20.921 13.6625 20.7828 13.805Z" fill="white"/>
</svg>
