<svg width="9" height="8" viewBox="0 0 9 8" fill="none" xmlns="http://www.w3.org/2000/svg">
<path fill-rule="evenodd" clip-rule="evenodd" d="M0.599975 3.49946C0.323833 3.49946 0.0999754 3.72331 0.0999754 3.99946C0.0999754 4.2756 0.323833 4.49946 0.599975 4.49946L7.18861 4.49946L5.12495 6.54487C4.92882 6.73927 4.92742 7.05585 5.12181 7.25197C5.3162 7.4481 5.63278 7.44951 5.82891 7.25511L8.75527 4.35463C8.85 4.26073 8.90329 4.13288 8.90329 3.99951C8.90329 3.86613 8.85 3.73828 8.75527 3.64439L5.82891 0.7439C5.63278 0.549506 5.3162 0.550912 5.12181 0.74704C4.92742 0.943166 4.92882 1.25975 5.12495 1.45414L7.18851 3.49946L0.599975 3.49946Z" fill="#00C802"/>
</svg>
