<svg width="24" height="24" viewBox="0 0 24 24" fill="none" xmlns="http://www.w3.org/2000/svg">
<path d="M12 10.3848L12 21.4302" stroke="#3F3F3F" stroke-width="1.2" stroke-linecap="round"/>
<path d="M12 3.4292L12 6.29284" stroke="#3F3F3F" stroke-width="1.2" stroke-linecap="round"/>
<path d="M11.9999 10.3839C13.1319 10.3839 14.0496 9.4681 14.0496 8.33842C14.0496 7.20875 13.1319 6.29297 11.9999 6.29297C10.8679 6.29297 9.9502 7.20875 9.9502 8.33842C9.9502 9.4681 10.8679 10.3839 11.9999 10.3839Z" stroke="#3F3F3F" stroke-width="1.2" stroke-linecap="round"/>
<path d="M19.3789 18.5645L19.379 21.4281" stroke="#3F3F3F" stroke-width="1.2" stroke-linecap="round"/>
<path d="M19.379 3.4292L19.3789 14.4747" stroke="#3F3F3F" stroke-width="1.2" stroke-linecap="round"/>
<path d="M19.3788 18.5645C20.5108 18.5645 21.4285 17.6488 21.4285 16.5191C21.4285 15.3894 20.5108 14.4736 19.3788 14.4736C18.2468 14.4736 17.3291 15.3894 17.3291 16.5191C17.3291 17.6488 18.2468 18.5645 19.3788 18.5645Z" stroke="#3F3F3F" stroke-width="1.2" stroke-linecap="round"/>
<path d="M4.62018 15.292L4.62012 21.4284" stroke="#3F3F3F" stroke-width="1.2" stroke-linecap="round"/>
<path d="M4.62012 3.4292L4.62018 11.2019" stroke="#3F3F3F" stroke-width="1.2" stroke-linecap="round"/>
<path d="M4.62098 15.2931C5.75299 15.2931 6.67067 14.3773 6.67067 13.2476C6.67067 12.1179 5.75299 11.2021 4.62098 11.2021C3.48897 11.2021 2.57129 12.1179 2.57129 13.2476C2.57129 14.3773 3.48897 15.2931 4.62098 15.2931Z" stroke="#3F3F3F" stroke-width="1.2" stroke-linecap="round"/>
</svg>
