<svg width="83" height="86" viewBox="0 0 83 86" fill="none" xmlns="http://www.w3.org/2000/svg">
<defs>
<linearGradient id="paint0_linear_536:5831" x1="3" y1="27.4444" x2="78.4093" y2="28.7464" gradientUnits="userSpaceOnUse">
<stop stop-color="#79D98E"/>
<stop offset="1" stop-color="#00C802"/>
</linearGradient>
<linearGradient id="paint1_linear_536:5831" x1="42.2002" y1="45.846" x2="49.0554" y2="45.9686" gradientUnits="userSpaceOnUse">
<stop stop-color="#79D98E"/>
<stop offset="1" stop-color="#00C802"/>
</linearGradient>
<linearGradient id="paint2_linear_536:5831" x1="42.2002" y1="45.846" x2="49.0554" y2="45.9686" gradientUnits="userSpaceOnUse">
<stop stop-color="#79D98E"/>
<stop offset="1" stop-color="#00C802"/>
</linearGradient>
</defs>
<path d="M3 35.3068C4.02885 28.3948 10.6135 12.9118 28.7212 6.27617C57.529 -4.28048 76.0482 14.0522 76.0482 14.0522M22.5481 77.816C17.9183 71.7679 10.2019 57.5982 12.7741 43.6012C15.773 27.2817 27.1779 15.6075 45.1828 14.0522C63.1876 12.497 77.2755 28.8091 79.6492 39.9724C81.1925 47.2301 77.5915 55.0061 69.8752 55.5245C62.1588 56.043 60.6155 49.8221 53.4136 40.4908C46.2116 31.1595 32.3222 38.9356 34.8943 50.8589C35.9008 55.5245 38.9218 62.2966 47.2405 69.0031C54.9569 75.2239 65.0739 77.1247 68.3319 76.7791M47.2405 83C43.9825 81.4448 36.1261 76.8528 30.2645 68.4847C24.0914 59.6718 21.0048 50.8589 24.6058 39.9724C28.2068 29.0859 39.5241 24.4203 49.2982 25.9755C59.0722 27.5307 64.7309 33.7516 69.3607 44.638" stroke="url(#paint0_linear_536:5831)" stroke-width="5.5" stroke-linecap="round" stroke-linejoin="round"/>
<path d="M48.7002 47.2105C48.7002 48.8734 47.3559 50.2193 45.7002 50.2193C44.0445 50.2193 42.7002 48.8734 42.7002 47.2105C42.7002 45.5476 44.0445 44.2017 45.7002 44.2017C47.3559 44.2017 48.7002 45.5476 48.7002 47.2105Z" fill="url(#paint1_linear_536:5831)" stroke="url(#paint2_linear_536:5831)"/>
</svg>
