<svg width="28" height="28" viewBox="0 0 28 28" fill="none" xmlns="http://www.w3.org/2000/svg">
<defs>
<linearGradient id="paint0_linear_3404_15404" x1="14.7565" y1="24.5528" x2="11.1505" y2="-1.57965" gradientUnits="userSpaceOnUse">
<stop stop-color="#FF0000"/>
<stop offset="0.2317" stop-color="#FF1500"/>
<stop offset="0.7367" stop-color="#FF3D00"/>
<stop offset="0.9987" stop-color="#FF4C00"/>
</linearGradient>
<linearGradient id="paint1_linear_3404_15404" x1="18.982" y1="23.9697" x2="15.376" y2="-2.16273" gradientUnits="userSpaceOnUse">
<stop stop-color="#FF0000"/>
<stop offset="0.2317" stop-color="#FF1500"/>
<stop offset="0.7367" stop-color="#FF3D00"/>
<stop offset="0.9987" stop-color="#FF4C00"/>
</linearGradient>
<linearGradient id="paint2_linear_3404_15404" x1="12.4623" y1="24.8693" x2="8.85631" y2="-1.26318" gradientUnits="userSpaceOnUse">
<stop stop-color="#FF0000"/>
<stop offset="0.2317" stop-color="#FF1500"/>
<stop offset="0.7367" stop-color="#FF3D00"/>
<stop offset="0.9987" stop-color="#FF4C00"/>
</linearGradient>
<linearGradient id="paint3_linear_3404_15404" x1="14.6594" y1="20.1015" x2="6.77957" y2="-2.40272" gradientUnits="userSpaceOnUse">
<stop stop-color="#FF8000"/>
<stop offset="0.6388" stop-color="#FF5B00"/>
<stop offset="0.9987" stop-color="#FF4C00"/>
</linearGradient>
<radialGradient id="paint4_radial_3404_15404" cx="0" cy="0" r="1" gradientUnits="userSpaceOnUse" gradientTransform="translate(18.0342 1.78671) scale(10.5006)">
<stop offset="0.00134333" stop-color="#FFED1C" stop-opacity="0.6"/>
<stop offset="0.9477" stop-color="#FFED1C" stop-opacity="0.0264782"/>
<stop offset="0.9914" stop-color="#FFED1C" stop-opacity="0"/>
</radialGradient>
<linearGradient id="paint5_linear_3404_15404" x1="11.5996" y1="5.08406" x2="14.4487" y2="21.0663" gradientUnits="userSpaceOnUse">
<stop stop-color="#FF8000"/>
<stop offset="0.022669" stop-color="#FE7F02" stop-opacity="0.9773"/>
<stop offset="0.6663" stop-color="#ED582A" stop-opacity="0.3337"/>
<stop offset="1" stop-color="#E74939" stop-opacity="0"/>
</linearGradient>
<linearGradient id="paint6_linear_3404_15404" x1="13.812" y1="22.3546" x2="14.4278" y2="11.1326" gradientUnits="userSpaceOnUse">
<stop stop-color="#FFBC47"/>
<stop offset="0.1869" stop-color="#FFB137" stop-opacity="0.8131"/>
<stop offset="0.7223" stop-color="#FF940F" stop-opacity="0.2777"/>
<stop offset="1" stop-color="#FF8900" stop-opacity="0"/>
</linearGradient>
<radialGradient id="paint7_radial_3404_15404" cx="0" cy="0" r="1" gradientUnits="userSpaceOnUse" gradientTransform="translate(13.659 19.3262) scale(8.12281 6.59409)">
<stop offset="0.00134333" stop-color="#FFBC47"/>
<stop offset="0.2941" stop-color="#FFBF4B" stop-opacity="0.7068"/>
<stop offset="0.5624" stop-color="#FEC656" stop-opacity="0.4382"/>
<stop offset="0.8201" stop-color="#FCD368" stop-opacity="0.1801"/>
<stop offset="1" stop-color="#FBE07A" stop-opacity="0"/>
</radialGradient>
<radialGradient id="paint8_radial_3404_15404" cx="0" cy="0" r="1" gradientUnits="userSpaceOnUse" gradientTransform="translate(13.659 18.9923) scale(7.87251 6.3909)">
<stop offset="0.00134333" stop-color="white"/>
<stop offset="1" stop-color="white" stop-opacity="0"/>
</radialGradient>
<radialGradient id="paint9_radial_3404_15404" cx="0" cy="0" r="1" gradientUnits="userSpaceOnUse" gradientTransform="translate(10.207 20.4444) scale(9.67082 11.2597)">
<stop offset="0.00134333" stop-color="#FFED1C" stop-opacity="0.6"/>
<stop offset="0.9477" stop-color="#FFED1C" stop-opacity="0.0264782"/>
<stop offset="0.9914" stop-color="#FFED1C" stop-opacity="0"/>
</radialGradient>
<radialGradient id="paint10_radial_3404_15404" cx="0" cy="0" r="1" gradientUnits="userSpaceOnUse" gradientTransform="translate(13.6594 18.9914) rotate(92.8876) scale(3.05644 2.48108)">
<stop offset="0.00134333" stop-color="white"/>
<stop offset="1" stop-color="white" stop-opacity="0"/>
</radialGradient>
<radialGradient id="paint11_radial_3404_15404" cx="0" cy="0" r="1" gradientUnits="userSpaceOnUse" gradientTransform="translate(15.3489 5.74735) scale(3.46931)">
<stop offset="0.00134333" stop-color="#FFED1C"/>
<stop offset="0.1997" stop-color="#FFEE2B" stop-opacity="0.8013"/>
<stop offset="0.5839" stop-color="#FFF254" stop-opacity="0.4167"/>
<stop offset="1" stop-color="#FFF686" stop-opacity="0"/>
</radialGradient>
<radialGradient id="paint12_radial_3404_15404" cx="0" cy="0" r="1" gradientUnits="userSpaceOnUse" gradientTransform="translate(9.62822 7.41666) rotate(-56.4116) scale(2.81021 0.63821)">
<stop offset="0.00134333" stop-color="#FFED1C" stop-opacity="0.6"/>
<stop offset="0.9477" stop-color="#FFED1C" stop-opacity="0.0264782"/>
<stop offset="0.9914" stop-color="#FFED1C" stop-opacity="0"/>
</radialGradient>
<radialGradient id="paint13_radial_3404_15404" cx="0" cy="0" r="1" gradientUnits="userSpaceOnUse" gradientTransform="translate(10.1847 5.213) rotate(95.0573) scale(2.52512 1.01603)">
<stop offset="0.00134333" stop-color="#FFED1C"/>
<stop offset="0.1997" stop-color="#FFEE2B" stop-opacity="0.8013"/>
<stop offset="0.5839" stop-color="#FFF254" stop-opacity="0.4167"/>
<stop offset="1" stop-color="#FFF686" stop-opacity="0"/>
</radialGradient>
<radialGradient id="paint14_radial_3404_15404" cx="0" cy="0" r="1" gradientUnits="userSpaceOnUse" gradientTransform="translate(14.578 5.30217) scale(10.8253)">
<stop offset="0.00134333" stop-color="#FF4C00"/>
<stop offset="0.135" stop-color="#FF5B0C" stop-opacity="0.8661"/>
<stop offset="0.3941" stop-color="#FF842C" stop-opacity="0.6067"/>
<stop offset="0.7491" stop-color="#FFC45F" stop-opacity="0.2512"/>
<stop offset="1" stop-color="#FFF686" stop-opacity="0"/>
</radialGradient>
<radialGradient id="paint15_radial_3404_15404" cx="0" cy="0" r="1" gradientUnits="userSpaceOnUse" gradientTransform="translate(19.5017 14.0723) scale(5.74588)">
<stop offset="0.00134333" stop-color="#FFED1C"/>
<stop offset="0.1997" stop-color="#FFEE2B" stop-opacity="0.8013"/>
<stop offset="0.5839" stop-color="#FFF254" stop-opacity="0.4167"/>
<stop offset="1" stop-color="#FFF686" stop-opacity="0"/>
</radialGradient>
<radialGradient id="paint16_radial_3404_15404" cx="0" cy="0" r="1" gradientUnits="userSpaceOnUse" gradientTransform="translate(7.73968 16.1202) scale(6.12438)">
<stop offset="0.00134333" stop-color="#FFED1C"/>
<stop offset="0.1997" stop-color="#FFEE2B" stop-opacity="0.8013"/>
<stop offset="0.5839" stop-color="#FFF254" stop-opacity="0.4167"/>
<stop offset="1" stop-color="#FFF686" stop-opacity="0"/>
</radialGradient>
<radialGradient id="paint17_radial_3404_15404" cx="0" cy="0" r="1" gradientUnits="userSpaceOnUse" gradientTransform="translate(13.5675 14.8824) rotate(86.1102) scale(10.4906 6.37722)">
<stop stop-color="#FF4C00" stop-opacity="0"/>
<stop offset="0.9874" stop-color="#FF4C00" stop-opacity="0.9888"/>
<stop offset="0.9987" stop-color="#FF4C00"/>
</radialGradient>
</defs>
<path d="M17.6176 12.4647C17.6824 9.21176 12.7412 9.65882 14.0118 4C14.0118 4 10.6941 5.30588 11.2765 9.31176C11.4765 10.6882 10.9941 11.7176 10.9941 11.7176C10.5059 11.8176 9.74706 10.8471 10.0118 9.34706C10.0118 9.34706 8.27059 10.6471 8.27059 12.3176C8.27059 13.9882 9.07647 15.7588 9.07647 15.7588C7.07059 15.3235 7.27059 12.6176 7.27059 12.6176C7.27059 12.6176 6 14.3176 6 17.5235C6 20.0176 8.81177 24 13.3471 24C17.8824 24 21.5235 20.4824 21.5235 17.3529C21.5235 15.9824 21.0588 14.2118 20.0529 13.2471C20.0529 13.2471 20.1882 15.9824 18.8353 15.8529C18.8353 15.8529 19.9529 12.2824 18.7824 10.6471C18.7824 10.6471 18.2176 12.4118 17.6176 12.4647Z" fill="url(#paint0_linear_3404_15404)"/>
<path d="M17.6235 10.0118C18.9411 7.58234 15.6764 7.24705 15.6706 5.75293C15.6706 5.75293 15.0941 7.29411 16.4706 8.34705C17.5941 9.19999 17.6235 10.0118 17.6235 10.0118Z" fill="url(#paint1_linear_3404_15404)"/>
<path d="M10.6941 5.3646C10.1941 5.85872 10.8824 7.8999 9.31765 8.70578C9.31765 8.70578 8.78824 6.4646 10.6941 5.3646Z" fill="url(#paint2_linear_3404_15404)"/>
<path opacity="0.5" d="M7.02941 13.4353C6.59412 14.1824 6 15.5648 6 17.5236C6 19.7118 8.78824 23.7353 13.3471 23.7353C17.8 23.7353 21.2588 20.3059 21.2588 17.3589C21.2588 16.2942 20.9647 14.9353 20.3118 13.9706C20.2647 14.5765 20.1176 15.4 19.6647 15.8295C19.4294 16.053 19.1353 16.153 18.8118 16.1177L18.4824 16.0883L18.5824 15.7765C18.5941 15.7471 19.4471 12.9589 18.8294 11.3059C18.5824 11.9118 18.1588 12.6942 17.6412 12.7353L17.3471 12.7589L17.3529 12.4648C17.3765 11.2471 16.6294 10.6 15.7647 9.85299C14.5294 8.7824 13.1353 7.57063 13.6471 4.49416C12.7882 5.00004 11.1176 6.39416 11.5353 9.27063C11.7471 10.7118 11.2471 11.7824 11.2294 11.8295L11.1706 11.953L11.0412 11.9765C10.7941 12.0236 10.5353 11.9236 10.3 11.7C9.98235 11.3883 9.69412 10.8 9.68235 10C9.2 10.4942 8.53529 11.3471 8.53529 12.3177C8.53529 13.9118 9.31177 15.6295 9.31765 15.6471L9.53529 16.1295L9.01765 16.0177C7.66471 15.7236 7.15882 14.4648 7.02941 13.4353Z" fill="url(#paint3_linear_3404_15404)"/>
<path d="M15.6707 5.75293C15.553 6.64117 15.906 7.91764 16.4707 8.34705C16.9883 8.74117 17.5707 9.41764 17.6177 10.0118C18.5001 8.28234 17.2589 7.64117 16.5471 7.38822C16.2471 7.28234 15.6942 6.66469 15.6707 5.75293Z" fill="url(#paint4_radial_3404_15404)"/>
<path d="M12.9588 5.49988C11.0059 8.5587 13.5412 11.7881 12.2353 13.7234C10.9294 15.6587 9.6059 13.8705 9.51766 12.6587C9.51766 12.6587 9.52943 16.5763 11.4647 18.1234C13.4 19.6705 7.74119 19.3352 6.96472 17.4469C6.96472 17.4469 6.96472 23.7352 13.3471 23.7352C19.7294 23.7352 20.7941 17.8822 20.7941 17.8822C20.7941 17.8822 18.4706 19.8646 16.9235 18.3175C16.9235 18.3175 18.0824 16.2881 18.3765 14.2058C18.3765 14.2058 17.5765 14.7116 16.3471 14.5175C16.3471 14.5175 17.0294 11.594 15.6353 10.6352C13.8471 9.40576 12.3353 6.47635 12.9588 5.49988Z" fill="url(#paint5_linear_3404_15404)"/>
<path d="M13.447 9.09995C12.4234 10.447 14.4176 13.9058 12.3234 15.2764C11.1646 16.0352 10.4999 15.1235 10.4999 15.1235C10.4999 15.1235 10.8117 16.5235 12.0587 17.7705C13.3058 19.0176 10.1823 20.7058 7.64697 18.5235C7.64697 18.5235 8.51756 23.7647 14.4176 22.8823C20.9293 21.9117 20.447 17.0705 20.447 17.0705C20.447 17.0705 18.6823 19.847 16.1705 18.5176C16.1705 18.5176 17.7529 16.3117 17.7529 15.047C17.7529 15.047 16.6823 15.6823 15.4587 15.0705C15.4587 15.0705 16.0411 12.1294 15.347 11.6882C13.6823 10.6235 13.447 9.09995 13.447 9.09995Z" fill="url(#paint6_linear_3404_15404)"/>
<path opacity="0.5" d="M17.6176 12.4647C17.6824 9.21176 12.7412 9.65882 14.0118 4C14.0118 4 10.6941 5.30588 11.2765 9.31176C11.4765 10.6882 10.9941 11.7176 10.9941 11.7176C10.5059 11.8176 9.74706 10.8471 10.0118 9.34706C10.0118 9.34706 8.27059 10.6471 8.27059 12.3176C8.27059 13.9882 9.07647 15.7588 9.07647 15.7588C7.07059 15.3235 7.27059 12.6176 7.27059 12.6176C7.27059 12.6176 6 14.3176 6 17.5235C6 20.0176 8.81177 24 13.3471 24C17.8824 24 21.5235 20.4824 21.5235 17.3529C21.5235 15.9824 21.0588 14.2118 20.0529 13.2471C20.0529 13.2471 20.1882 15.9824 18.8353 15.8529C18.8353 15.8529 19.9529 12.2824 18.7824 10.6471C18.7824 10.6471 18.2176 12.4118 17.6176 12.4647Z" fill="url(#paint7_radial_3404_15404)"/>
<path opacity="0.5" d="M17.6176 12.4647C17.6824 9.21176 12.7412 9.65882 14.0118 4C14.0118 4 10.6941 5.30588 11.2765 9.31176C11.4765 10.6882 10.9941 11.7176 10.9941 11.7176C10.5059 11.8176 9.74706 10.8471 10.0118 9.34706C10.0118 9.34706 8.27059 10.6471 8.27059 12.3176C8.27059 13.9882 9.07647 15.7588 9.07647 15.7588C7.07059 15.3235 7.27059 12.6176 7.27059 12.6176C7.27059 12.6176 6 14.3176 6 17.5235C6 20.0176 8.81177 24 13.3471 24C17.8824 24 21.5235 20.4824 21.5235 17.3529C21.5235 15.9824 21.0588 14.2118 20.0529 13.2471C20.0529 13.2471 20.1882 15.9824 18.8353 15.8529C18.8353 15.8529 19.9529 12.2824 18.7824 10.6471C18.7824 10.6471 18.2176 12.4118 17.6176 12.4647Z" fill="url(#paint8_radial_3404_15404)"/>
<path d="M6.40002 16.1589C6.53532 19.4824 9.27061 23.4648 13.5471 23.4648C17.8236 23.4648 19.9588 18.953 20.0941 16.3118C20.0941 16.3118 19.2941 17.8648 17.4883 18.1766C15.6824 18.4883 17.6118 15.0707 16.3471 13.0471C16.3471 13.0471 15.2294 16.5707 13.6412 16.7001C12.053 16.8295 10.7059 14.3707 10.7059 13.0471C10.7059 13.0471 9.72944 15.4295 9.97061 17.3236C10.3412 20.2001 6.40002 16.1589 6.40002 16.1589Z" fill="url(#paint9_radial_3404_15404)"/>
<path opacity="0.5" d="M17.6176 12.4647C17.6824 9.21176 12.7412 9.65882 14.0118 4C14.0118 4 10.6941 5.30588 11.2765 9.31176C11.4765 10.6882 10.9941 11.7176 10.9941 11.7176C10.5059 11.8176 9.74706 10.8471 10.0118 9.34706C10.0118 9.34706 8.27059 10.6471 8.27059 12.3176C8.27059 13.9882 9.07647 15.7588 9.07647 15.7588C7.07059 15.3235 7.27059 12.6176 7.27059 12.6176C7.27059 12.6176 6 14.3176 6 17.5235C6 20.0176 8.81177 24 13.3471 24C17.8824 24 21.5235 20.4824 21.5235 17.3529C21.5235 15.9824 21.0588 14.2118 20.0529 13.2471C20.0529 13.2471 20.1882 15.9824 18.8353 15.8529C18.8353 15.8529 19.9529 12.2824 18.7824 10.6471C18.7824 10.6471 18.2176 12.4118 17.6176 12.4647Z" fill="url(#paint10_radial_3404_15404)"/>
<path opacity="0.5" d="M17.6235 10.0118C18.9411 7.58234 15.6764 7.24705 15.6706 5.75293C15.6706 5.75293 15.0941 7.29411 16.4706 8.34705C17.5941 9.19999 17.6235 10.0118 17.6235 10.0118Z" fill="url(#paint11_radial_3404_15404)"/>
<path d="M10.6941 5.3646C10.2 5.85872 10.5176 7.41755 9.31765 8.70578C9.31765 8.70578 8.78824 6.4646 10.6941 5.3646Z" fill="url(#paint12_radial_3404_15404)"/>
<path opacity="0.5" d="M10.6941 5.3646C10.1941 5.85872 10.8824 7.8999 9.31765 8.70578C9.31765 8.70578 8.78824 6.4646 10.6941 5.3646Z" fill="url(#paint13_radial_3404_15404)"/>
<path opacity="0.5" d="M17.6176 12.4647C17.6824 9.21176 12.7412 9.65882 14.0118 4C14.0118 4 10.6941 5.30588 11.2765 9.31176C11.4765 10.6882 10.9941 11.7176 10.9941 11.7176C10.5059 11.8176 9.74706 10.8471 10.0118 9.34706C10.0118 9.34706 8.27059 10.6471 8.27059 12.3176C8.27059 13.9882 9.07647 15.7588 9.07647 15.7588C7.07059 15.3235 7.27059 12.6176 7.27059 12.6176C7.27059 12.6176 6 14.3176 6 17.5235C6 20.0176 8.81177 24 13.3471 24C17.8824 24 21.5235 20.4824 21.5235 17.3529C21.5235 15.9824 21.0588 14.2118 20.0529 13.2471C20.0529 13.2471 20.1882 15.9824 18.8353 15.8529C18.8353 15.8529 19.9529 12.2824 18.7824 10.6471C18.7824 10.6471 18.2176 12.4118 17.6176 12.4647Z" fill="url(#paint14_radial_3404_15404)"/>
<path opacity="0.25" d="M17.6176 12.4647C17.6824 9.21176 12.7412 9.65882 14.0118 4C14.0118 4 10.6941 5.30588 11.2765 9.31176C11.4765 10.6882 10.9941 11.7176 10.9941 11.7176C10.5059 11.8176 9.74706 10.8471 10.0118 9.34706C10.0118 9.34706 8.27059 10.6471 8.27059 12.3176C8.27059 13.9882 9.07647 15.7588 9.07647 15.7588C7.07059 15.3235 7.27059 12.6176 7.27059 12.6176C7.27059 12.6176 6 14.3176 6 17.5235C6 20.0176 8.81177 24 13.3471 24C17.8824 24 21.5235 20.4824 21.5235 17.3529C21.5235 15.9824 21.0588 14.2118 20.0529 13.2471C20.0529 13.2471 20.1882 15.9824 18.8353 15.8529C18.8353 15.8529 19.9529 12.2824 18.7824 10.6471C18.7824 10.6471 18.2176 12.4118 17.6176 12.4647Z" fill="url(#paint15_radial_3404_15404)"/>
<path opacity="0.25" d="M17.6176 12.4647C17.6824 9.21176 12.7412 9.65882 14.0118 4C14.0118 4 10.6941 5.30588 11.2765 9.31176C11.4765 10.6882 10.9941 11.7176 10.9941 11.7176C10.5059 11.8176 9.74706 10.8471 10.0118 9.34706C10.0118 9.34706 8.27059 10.6471 8.27059 12.3176C8.27059 13.9882 9.07647 15.7588 9.07647 15.7588C7.07059 15.3235 7.27059 12.6176 7.27059 12.6176C7.27059 12.6176 6 14.3176 6 17.5235C6 20.0176 8.81177 24 13.3471 24C17.8824 24 21.5235 20.4824 21.5235 17.3529C21.5235 15.9824 21.0588 14.2118 20.0529 13.2471C20.0529 13.2471 20.1882 15.9824 18.8353 15.8529C18.8353 15.8529 19.9529 12.2824 18.7824 10.6471C18.7824 10.6471 18.2176 12.4118 17.6176 12.4647Z" fill="url(#paint16_radial_3404_15404)"/>
<path opacity="0.25" d="M17.6176 12.4647C17.6824 9.21176 12.7412 9.65882 14.0118 4C14.0118 4 10.6941 5.30588 11.2765 9.31176C11.4765 10.6882 10.9941 11.7176 10.9941 11.7176C10.5059 11.8176 9.74706 10.8471 10.0118 9.34706C10.0118 9.34706 8.27059 10.6471 8.27059 12.3176C8.27059 13.9882 9.07647 15.7588 9.07647 15.7588C7.07059 15.3235 7.27059 12.6176 7.27059 12.6176C7.27059 12.6176 6 14.3176 6 17.5235C6 20.0176 8.81177 24 13.3471 24C17.8824 24 21.5235 20.4824 21.5235 17.3529C21.5235 15.9824 21.0588 14.2118 20.0529 13.2471C20.0529 13.2471 20.1882 15.9824 18.8353 15.8529C18.8353 15.8529 19.9529 12.2824 18.7824 10.6471C18.7824 10.6471 18.2176 12.4118 17.6176 12.4647Z" fill="url(#paint17_radial_3404_15404)"/>
</svg>
