<svg width="20" height="20" viewBox="0 0 20 20" fill="none" xmlns="http://www.w3.org/2000/svg">
<path d="M4.31561 4.21364C4.34444 4.04954 4.23483 3.89305 4.07069 3.86411C3.90647 3.83505 3.7499 3.94481 3.72096 4.10899C3.71248 4.15696 3.56983 4.98817 3.65369 5.88809L2.69443 3.10079C2.64018 2.94313 2.46834 2.85927 2.31072 2.91356C2.15307 2.96782 2.06924 3.13962 2.1235 3.29727L2.97584 5.77388C2.95744 5.74067 2.93877 5.70735 2.91963 5.6738C2.3692 4.70833 1.80717 4.11032 1.24916 3.89641C1.09358 3.83669 0.918927 3.91458 0.859201 4.07024C0.799513 4.22591 0.877326 4.40052 1.03303 4.4602C1.70061 4.71614 2.35736 5.83227 2.74041 6.63348L2.96436 7.20325L4.42647 6.72036L4.28772 6.10098C4.14858 5.19259 4.31354 4.22559 4.31561 4.21364Z" fill="#77D057"/>
<path d="M16.085 5.67352H12.9559L11.8933 7.71083C11.856 7.78247 11.8364 7.86204 11.8364 7.94282V13.2405C11.8364 13.5176 12.061 13.7422 12.3381 13.7422H16.7028C16.9799 13.7422 17.2044 13.5175 17.2044 13.2405V7.94282C17.2044 7.86204 17.1849 7.78247 17.1476 7.71083L16.085 5.67352Z" fill="#E9EAEB"/>
<path d="M17.1476 7.71083L16.085 5.67352H13.9128L14.9755 7.71083C15.0128 7.78247 15.0323 7.86204 15.0323 7.94282V13.2406C15.0323 13.5176 14.8077 13.7422 14.5307 13.7422H16.7029C16.98 13.7422 17.2045 13.5176 17.2045 13.2406V7.94282C17.2045 7.86204 17.185 7.78243 17.1476 7.71083Z" fill="#C8CBCE"/>
<path d="M16.6107 6.02794H12.4302C12.2622 6.02794 12.126 5.89173 12.126 5.72372V5.27755C12.126 5.10954 12.2622 4.97333 12.4302 4.97333H16.6107C16.7787 4.97333 16.9149 5.10954 16.9149 5.27755V5.72372C16.9148 5.89173 16.7787 6.02794 16.6107 6.02794Z" fill="#FD9727"/>
<path d="M16.6108 4.97333H14.7346V6.02794H16.6108C16.7788 6.02794 16.915 5.89173 16.915 5.72372V5.27751C16.9149 5.10954 16.7788 4.97333 16.6108 4.97333Z" fill="#F9662B"/>
<path d="M15.9983 11.9728H13.0427C12.9741 11.9728 12.9185 11.9172 12.9185 11.8486V8.89302C12.9185 8.82442 12.9741 8.7688 13.0427 8.7688H15.9983C16.0669 8.7688 16.1225 8.82442 16.1225 8.89302V11.8486C16.1225 11.9172 16.0669 11.9728 15.9983 11.9728Z" fill="#5BDCFD"/>
<path d="M15.9982 8.7688H15.0322V11.9728H15.9982C16.0668 11.9728 16.1224 11.9172 16.1224 11.8486V8.89302C16.1224 8.82442 16.0668 8.7688 15.9982 8.7688Z" fill="#48C7E5"/>
<path d="M10.4946 3.63017V0.210876H8.74414V3.63021C8.74414 4.2563 8.50402 4.85857 8.07324 5.31291C7.64246 5.76728 7.40234 6.36951 7.40234 6.9956V16.9217C7.40234 17.2614 7.67773 17.5368 8.01742 17.5368H11.2213C11.561 17.5368 11.8364 17.2614 11.8364 16.9217V6.9956C11.8364 6.36951 11.5962 5.76724 11.1655 5.31291C10.7347 4.85853 10.4946 4.25627 10.4946 3.63017Z" fill="#602952"/>
<path d="M11.1656 5.31291C10.7348 4.85853 10.4947 4.2563 10.4947 3.63021V0.210876H8.74422V3.63021C8.74422 3.97877 8.66961 4.31982 8.5293 4.6322C8.64102 4.88095 8.7943 5.1115 8.98527 5.31295C9.41605 5.76732 9.65617 6.36955 9.65617 6.99564V16.9218C9.65617 17.2615 9.38078 17.5368 9.04109 17.5368H11.2214C11.5611 17.5368 11.8365 17.2615 11.8365 16.9218V6.9956C11.8364 6.36951 11.5964 5.76724 11.1656 5.31291Z" fill="#4C1C40"/>
<path d="M10.6307 3.03129V0.103672C10.6307 0.0464063 10.5843 0 10.5271 0H8.71183C8.65456 0 8.60815 0.0464063 8.60815 0.103672V3.03129C8.60815 3.08855 8.65456 3.13496 8.71183 3.13496H10.5271C10.5843 3.13492 10.6307 3.08852 10.6307 3.03129Z" fill="#FDC74F"/>
<path d="M11.8364 13.0283H9.23809C9.06883 13.0283 8.93164 12.8912 8.93164 12.7219V8.36034C8.93164 8.19108 9.06883 8.05389 9.23809 8.05389H11.8364V13.0283Z" fill="#E8B19C"/>
<path d="M11.8361 8.05389H9.65576V13.0285H11.8361V8.05389Z" fill="#D09C84"/>
<path d="M8.14646 17.3665L6.44681 7.43217C6.29822 6.56357 5.4065 6.03518 4.57326 6.32193L2.62521 6.99236C1.79197 7.27912 1.41431 8.24439 1.83173 9.02045L6.60595 17.8967C7.04896 18.7204 8.30419 18.2884 8.14646 17.3665Z" fill="#FD9727"/>
<path d="M8.14632 17.3665L6.44668 7.43217C6.29808 6.56357 5.40637 6.03518 4.57312 6.32193L3.85059 6.5706L6.60578 17.8967C7.04882 18.7204 8.30406 18.2884 8.14632 17.3665Z" fill="#F9662B"/>
<path d="M15.6266 20H4.37324C3.83941 20 3.37731 19.6289 3.26207 19.1076L1.59082 11.5489H18.409L16.7378 19.1076C16.6225 19.6289 16.1605 20 15.6266 20Z" fill="#FDC74F"/>
<path d="M16.2355 11.5489L14.5643 19.1076C14.4491 19.6289 13.987 20 13.4531 20H15.6268C16.1606 20 16.6227 19.6289 16.7379 19.1076L18.4091 11.5489H16.2355V11.5489Z" fill="#FCA629"/>
<path d="M19.0623 12.8007H0.937754C0.748574 12.8007 0.595215 12.6473 0.595215 12.4581V11.607C0.595215 11.4178 0.748574 11.2645 0.937754 11.2645H19.0622C19.2514 11.2645 19.4048 11.4178 19.4048 11.607V12.4581C19.4048 12.6473 19.2515 12.8007 19.0623 12.8007Z" fill="#FC502A"/>
<path d="M19.0624 11.2645H17.2246V12.8007H19.0624C19.2516 12.8007 19.4049 12.6474 19.4049 12.4582V11.607C19.4049 11.4178 19.2516 11.2645 19.0624 11.2645Z" fill="#E60D28"/>
<path d="M8.34813 18.1561C8.3593 18.3152 8.49184 18.4368 8.64895 18.4368C8.65606 18.4368 8.6632 18.4366 8.67039 18.4361C8.83672 18.4244 8.96207 18.2801 8.95039 18.1138L8.69266 14.4433C8.68098 14.277 8.5366 14.1514 8.37035 14.1633C8.20403 14.175 8.07867 14.3193 8.09035 14.4856L8.34813 18.1561Z" fill="white"/>
<path d="M6.01826 18.4926C5.99729 18.497 5.97635 18.4991 5.95573 18.4991C5.816 18.4991 5.69057 18.4016 5.66061 18.2594L4.88741 14.5889C4.85303 14.4258 4.95745 14.2657 5.12057 14.2313C5.28377 14.1968 5.44381 14.3014 5.47819 14.4645L6.25139 18.135C6.2858 18.2981 6.18139 18.4582 6.01826 18.4926Z" fill="white"/>
<path d="M11.9531 18.1561C11.942 18.3152 11.8094 18.4368 11.6523 18.4368C11.6452 18.4368 11.638 18.4366 11.6309 18.4361C11.4645 18.4244 11.3392 18.2801 11.3509 18.1138L11.6086 14.4433C11.6203 14.277 11.7646 14.1514 11.9309 14.1633C12.0972 14.175 12.2226 14.3193 12.2109 14.4856L11.9531 18.1561Z" fill="white"/>
<path d="M14.2829 18.4926C14.3039 18.497 14.3248 18.4991 14.3454 18.4991C14.4852 18.4991 14.6106 18.4016 14.6406 18.2594L15.4138 14.5889C15.4481 14.4258 15.3437 14.2657 15.1806 14.2313C15.0174 14.1968 14.8574 14.3014 14.823 14.4645L14.0498 18.135C14.0153 18.2981 14.1197 18.4582 14.2829 18.4926Z" fill="white"/>
<path d="M4.50214 9.28093C4.65979 9.22668 4.74362 9.05488 4.68937 8.89722C4.63511 8.73957 4.46335 8.65574 4.30565 8.71L2.0769 9.47644L2.36671 10.0153L4.50214 9.28093Z" fill="#FDC74F"/>
<path d="M3.12277 11.2644L4.6264 10.7756C4.78406 10.7214 4.86789 10.5496 4.81363 10.3919C4.75937 10.2343 4.58762 10.1504 4.42992 10.2047L2.77344 10.7712L3.03871 11.2644H3.12277Z" fill="#FDC74F"/>
</svg>
