<svg width="50" height="50" viewBox="0 0 50 50" fill="none" xmlns="http://www.w3.org/2000/svg">
<g filter="url(#filter0_i_10729_48005)">
<path d="M40 0H10C4.47715 0 0 4.47715 0 10V40C0 45.5228 4.47715 50 10 50H40C45.5228 50 50 45.5228 50 40V10C50 4.47715 45.5228 0 40 0Z" fill="#1D2124"/>
</g>
<path d="M20.0746 22.11V29.4736" stroke="white" stroke-linecap="round" stroke-linejoin="round"/>
<path d="M20.0746 15.3576V17.4615" stroke="white" stroke-linecap="round" stroke-linejoin="round"/>
<path d="M25.9863 25.4357V28.2409" stroke="white" stroke-linecap="round" stroke-linejoin="round"/>
<path d="M25.9863 15.3576V20.7342" stroke="white" stroke-linecap="round" stroke-linejoin="round"/>
<path d="M14.1628 26.0509V27.6873" stroke="white" stroke-linecap="round" stroke-linejoin="round"/>
<path d="M14.1628 15.3576V21.3186" stroke="white" stroke-linecap="round" stroke-linejoin="round"/>
<path d="M20.1 21.6375C21.2297 21.6375 22.1455 20.7217 22.1455 19.5921C22.1455 18.4624 21.2297 17.5466 20.1 17.5466C18.9703 17.5466 18.0546 18.4624 18.0546 19.5921C18.0546 20.7217 18.9703 21.6375 20.1 21.6375Z" fill="#00C802" stroke="white"/>
<path d="M26.0119 24.9669C27.1416 24.9669 28.0573 24.0511 28.0573 22.9214C28.0573 21.7918 27.1416 20.876 26.0119 20.876C24.8822 20.876 23.9664 21.7918 23.9664 22.9214C23.9664 24.0511 24.8822 24.9669 26.0119 24.9669Z" fill="#00C802" stroke="white"/>
<path d="M14.1883 25.579C15.3179 25.579 16.2337 24.6632 16.2337 23.5335C16.2337 22.4039 15.3179 21.4881 14.1883 21.4881C13.0586 21.4881 12.1428 22.4039 12.1428 23.5335C12.1428 24.6632 13.0586 25.579 14.1883 25.579Z" fill="#00C802" stroke="white"/>
<path d="M31.3423 24.1762L34.7455 21.0646L37.8571 24.4678" stroke="white" stroke-linecap="round" stroke-linejoin="round"/>
<path d="M34.6391 22.3703C34.6391 29.4711 28.8827 35.2274 21.7819 35.2274C18.069 35.2274 14.7236 33.6535 12.3766 31.1365" stroke="white" stroke-linecap="round" stroke-linejoin="round"/>
<defs>
<filter id="filter0_i_10729_48005" x="0" y="0" width="50" height="55" filterUnits="userSpaceOnUse" color-interpolation-filters="sRGB">
<feFlood flood-opacity="0" result="BackgroundImageFix"/>
<feBlend mode="normal" in="SourceGraphic" in2="BackgroundImageFix" result="shape"/>
<feColorMatrix in="SourceAlpha" type="matrix" values="0 0 0 0 0 0 0 0 0 0 0 0 0 0 0 0 0 0 127 0" result="hardAlpha"/>
<feOffset dy="5"/>
<feGaussianBlur stdDeviation="7.5"/>
<feComposite in2="hardAlpha" operator="arithmetic" k2="-1" k3="1"/>
<feColorMatrix type="matrix" values="0 0 0 0 0 0 0 0 0 0 0 0 0 0 0 0 0 0 0.05 0"/>
<feBlend mode="normal" in2="shape" result="effect1_innerShadow_10729_48005"/>
</filter>
</defs>
</svg>
