<svg width="45" height="15" viewBox="0 0 45 15" fill="none" xmlns="http://www.w3.org/2000/svg">
<rect width="45" height="15" rx="2" fill="#F2F2F2"/>
<path d="M8.32945 4.33H4.98945V11H6.00945V7.94H8.24945V6.98H6.00945V5.29H8.32945V4.33ZM14.0614 7.87L13.3014 8.73L12.1214 7.29C12.5614 6.96 12.7914 6.73 12.9514 6.52C13.0714 6.36 13.2414 6.08 13.2414 5.65C13.2414 4.94 12.7014 4.21 11.6414 4.21C10.5414 4.21 10.0614 4.99 10.0614 5.75C10.0614 6.39 10.4914 6.9 10.7214 7.13C10.6614 7.17 10.3714 7.37 10.1914 7.5C9.68141 7.88 9.23141 8.34 9.23141 9.22C9.23141 10.3 9.98141 11.13 11.2314 11.13C11.8614 11.13 12.2814 10.96 12.6914 10.67C12.9014 10.52 13.1014 10.34 13.2514 10.18L13.9114 11H15.1514L13.9214 9.46L14.7114 8.55L14.0614 7.87ZM12.6414 9.46C12.5214 9.58 12.2314 9.86 12.0214 10.01C11.7814 10.17 11.5514 10.27 11.2714 10.27C10.6414 10.27 10.2314 9.8 10.2314 9.26C10.2314 9.02 10.3114 8.71 10.5914 8.41C10.7814 8.2 11.1014 7.98 11.3214 7.86L12.6414 9.46ZM11.5314 6.58L11.2314 6.22C11.1214 6.09 11.0014 5.87 11.0014 5.64C11.0014 5.3 11.2314 5.05 11.6414 5.05C12.1114 5.05 12.3014 5.36 12.3014 5.65C12.3014 5.9 12.1414 6.14 11.9014 6.31L11.5314 6.58ZM19.1063 4.21C17.1063 4.21 15.6363 5.71 15.6363 7.67C15.6363 9.63 17.1063 11.13 19.1063 11.13C21.1063 11.13 22.5763 9.63 22.5763 7.67C22.5763 5.71 21.1063 4.21 19.1063 4.21ZM19.1063 10.19C17.6763 10.19 16.6563 9.15 16.6563 7.67C16.6563 6.19 17.6763 5.15 19.1063 5.15C20.5363 5.15 21.5563 6.19 21.5563 7.67C21.5563 9.15 20.5363 10.19 19.1063 10.19ZM26.1906 4.33V11H27.8606C28.3706 11 29.2006 10.91 29.7306 10.35C30.0506 10.01 30.1706 9.63 30.1706 9.15C30.1706 8.74 30.0906 8.28 29.7306 7.9C29.4006 7.56 28.9906 7.45 28.8706 7.42C29.0206 7.35 29.2206 7.22 29.3706 6.96C29.5306 6.7 29.5706 6.43 29.5706 6.17C29.5706 5.62 29.4006 5.19 29.0406 4.85C28.6006 4.44 28.0606 4.33 27.2006 4.33H26.1906ZM27.2106 5.29H27.5606C27.8506 5.29 28.1406 5.32 28.3706 5.54C28.5806 5.74 28.6106 5.98 28.6106 6.18C28.6106 6.41 28.5806 6.72 28.3506 6.94C28.1106 7.17 27.7706 7.2 27.5206 7.2H27.2106V5.29ZM27.2106 8.04H27.8506C28.2106 8.04 28.6206 8.07 28.9006 8.34C29.0706 8.51 29.1706 8.77 29.1706 9.04C29.1706 9.34 29.0406 9.62 28.8406 9.78C28.5806 9.99 28.1206 10.04 27.8306 10.04H27.2106V8.04ZM35.1543 5.33C35.0143 5.05 34.8243 4.82 34.6443 4.66C34.4343 4.48 34.0243 4.21 33.3043 4.21C32.0543 4.21 31.3543 5.07 31.3543 5.97C31.3543 6.97 32.1643 7.43 32.7143 7.66L33.3543 7.93C33.7943 8.11 34.3143 8.39 34.3143 9.07C34.3143 9.74 33.8343 10.19 33.2143 10.19C32.8143 10.19 32.5343 10.03 32.3443 9.79C32.1843 9.58 32.0643 9.27 32.0643 8.94L31.0543 9.16C31.0943 9.62 31.2543 10.06 31.6143 10.46C31.9543 10.84 32.4143 11.13 33.1843 11.13C34.4343 11.13 35.3343 10.26 35.3343 8.99C35.3343 8.23 34.9943 7.53 33.7643 7.03L33.0943 6.76C32.4443 6.5 32.3743 6.15 32.3743 5.95C32.3743 5.52 32.6943 5.15 33.3143 5.15C33.6043 5.15 33.8243 5.22 34.0343 5.39C34.1843 5.52 34.2743 5.66 34.3343 5.81L35.1543 5.33ZM40.2905 4.33H36.6105V11H40.2905V10.04H37.6305V7.94H40.2105V6.98H37.6305V5.29H40.2905V4.33Z" fill="#797979"/>
</svg>
