<svg width="26" height="15" viewBox="0 0 26 15" fill="none" xmlns="http://www.w3.org/2000/svg">
<rect width="26" height="15" rx="2" fill="#F2F2F2"/>
<path d="M4.96699 4.33V11H6.63699C7.14699 11 7.97699 10.91 8.50699 10.35C8.82699 10.01 8.94699 9.63 8.94699 9.15C8.94699 8.74 8.86699 8.28 8.50699 7.9C8.17699 7.56 7.76699 7.45 7.64699 7.42C7.79699 7.35 7.99699 7.22 8.14699 6.96C8.30699 6.7 8.34699 6.43 8.34699 6.17C8.34699 5.62 8.17699 5.19 7.81699 4.85C7.37699 4.44 6.83699 4.33 5.97699 4.33H4.96699ZM5.98699 5.29H6.33699C6.62699 5.29 6.91699 5.32 7.14699 5.54C7.35699 5.74 7.38699 5.98 7.38699 6.18C7.38699 6.41 7.35699 6.72 7.12699 6.94C6.88699 7.17 6.54699 7.2 6.29699 7.2H5.98699V5.29ZM5.98699 8.04H6.62699C6.98699 8.04 7.39699 8.07 7.67699 8.34C7.84699 8.51 7.94699 8.77 7.94699 9.04C7.94699 9.34 7.81699 9.62 7.61699 9.78C7.35699 9.99 6.89699 10.04 6.60699 10.04H5.98699V8.04ZM13.5707 4.33H10.2307V11H11.2507V7.94H13.4907V6.98H11.2507V5.29H13.5707V4.33ZM17.8826 4.21C15.8826 4.21 14.4126 5.71 14.4126 7.67C14.4126 9.63 15.8826 11.13 17.8826 11.13C19.8826 11.13 21.3526 9.63 21.3526 7.67C21.3526 5.71 19.8826 4.21 17.8826 4.21ZM17.8826 10.19C16.4526 10.19 15.4326 9.15 15.4326 7.67C15.4326 6.19 16.4526 5.15 17.8826 5.15C19.3126 5.15 20.3326 6.19 20.3326 7.67C20.3326 9.15 19.3126 10.19 17.8826 10.19Z" fill="#797979"/>
</svg>
