<svg width="30" height="30" viewBox="0 0 30 30" fill="none" xmlns="http://www.w3.org/2000/svg">
<path d="M10.0746 12.11V19.4736" stroke="#3F3F3F" stroke-linecap="round" stroke-linejoin="round"/>
<path d="M10.0746 5.35754V7.46144" stroke="#3F3F3F" stroke-linecap="round" stroke-linejoin="round"/>
<path d="M15.9863 15.4357V18.2409" stroke="#3F3F3F" stroke-linecap="round" stroke-linejoin="round"/>
<path d="M15.9863 5.35754V10.7342" stroke="#3F3F3F" stroke-linecap="round" stroke-linejoin="round"/>
<path d="M4.16284 16.0509V17.6873" stroke="#3F3F3F" stroke-linecap="round" stroke-linejoin="round"/>
<path d="M4.16284 5.35754V11.3186" stroke="#3F3F3F" stroke-linecap="round" stroke-linejoin="round"/>
<path d="M10.1 11.6375C11.2297 11.6375 12.1455 10.7218 12.1455 9.59208C12.1455 8.46241 11.2297 7.54663 10.1 7.54663C8.97035 7.54663 8.05457 8.46241 8.05457 9.59208C8.05457 10.7218 8.97035 11.6375 10.1 11.6375Z" fill="#CCECD3" stroke="#3F3F3F"/>
<path d="M16.0119 14.9669C17.1416 14.9669 18.0573 14.0511 18.0573 12.9214C18.0573 11.7918 17.1416 10.876 16.0119 10.876C14.8822 10.876 13.9664 11.7918 13.9664 12.9214C13.9664 14.0511 14.8822 14.9669 16.0119 14.9669Z" fill="#CCECD3" stroke="#3F3F3F"/>
<path d="M4.18828 15.5791C5.31795 15.5791 6.23373 14.6633 6.23373 13.5336C6.23373 12.4039 5.31795 11.4882 4.18828 11.4882C3.0586 11.4882 2.14282 12.4039 2.14282 13.5336C2.14282 14.6633 3.0586 15.5791 4.18828 15.5791Z" fill="#CCECD3" stroke="#3F3F3F"/>
<path d="M21.3423 14.1761L24.7455 11.0646L27.8571 14.4678" stroke="#3F3F3F" stroke-linecap="round" stroke-linejoin="round"/>
<path d="M24.6391 12.3702C24.6391 19.471 18.8827 25.2274 11.7819 25.2274C8.06896 25.2274 4.72359 23.6535 2.37659 21.1365" stroke="#3F3F3F" stroke-linecap="round" stroke-linejoin="round"/>
</svg>
