<svg width="30" height="30" viewBox="0 0 30 30" fill="none" xmlns="http://www.w3.org/2000/svg">
<path d="M10.0747 12.11V19.4736" stroke="white" stroke-linecap="round" stroke-linejoin="round"/>
<path d="M10.0747 5.35756V7.46146" stroke="white" stroke-linecap="round" stroke-linejoin="round"/>
<path d="M15.9863 15.4357V18.2409" stroke="white" stroke-linecap="round" stroke-linejoin="round"/>
<path d="M15.9863 5.35756V10.7342" stroke="white" stroke-linecap="round" stroke-linejoin="round"/>
<path d="M4.16284 16.0509V17.6873" stroke="white" stroke-linecap="round" stroke-linejoin="round"/>
<path d="M4.16284 5.35756V11.3186" stroke="white" stroke-linecap="round" stroke-linejoin="round"/>
<path d="M10.1001 11.6375C11.2298 11.6375 12.1456 10.7217 12.1456 9.59205C12.1456 8.46238 11.2298 7.5466 10.1001 7.5466C8.97047 7.5466 8.05469 8.46238 8.05469 9.59205C8.05469 10.7217 8.97047 11.6375 10.1001 11.6375Z" fill="#00C802" stroke="white"/>
<path d="M16.0118 14.9669C17.1414 14.9669 18.0572 14.0511 18.0572 12.9214C18.0572 11.7918 17.1414 10.876 16.0118 10.876C14.8821 10.876 13.9663 11.7918 13.9663 12.9214C13.9663 14.0511 14.8821 14.9669 16.0118 14.9669Z" fill="#00C802" stroke="white"/>
<path d="M4.18828 15.579C5.31795 15.579 6.23373 14.6632 6.23373 13.5335C6.23373 12.4039 5.31795 11.4881 4.18828 11.4881C3.0586 11.4881 2.14282 12.4039 2.14282 13.5335C2.14282 14.6632 3.0586 15.579 4.18828 15.579Z" fill="#00C802" stroke="white"/>
<path d="M21.3423 14.1762L24.7455 11.0646L27.8571 14.4678" stroke="white" stroke-linecap="round" stroke-linejoin="round"/>
<path d="M24.639 12.3703C24.639 19.4711 18.8826 25.2274 11.7818 25.2274C8.06884 25.2274 4.72347 23.6535 2.37646 21.1365" stroke="white" stroke-linecap="round" stroke-linejoin="round"/>
</svg>
