<svg width="30" height="18" viewBox="0 0 30 18" fill="none" xmlns="http://www.w3.org/2000/svg">
<path d="M2.99527 4.662H1.56727V14H2.99527V9.702H6.99927V14H8.42727V4.662H6.99927V8.358H2.99527V4.662Z" fill="#00C802"/>
<path fill-rule="evenodd" clip-rule="evenodd" d="M12.6001 8.49949C12.324 8.49949 12.1001 8.72335 12.1001 8.99949C12.1001 9.27563 12.324 9.49949 12.6001 9.49949L19.1887 9.49949L17.1251 11.5449C16.9289 11.7393 16.9275 12.0559 17.1219 12.252C17.3163 12.4481 17.6329 12.4495 17.829 12.2551L20.7554 9.35466C20.8501 9.26076 20.9034 9.13291 20.9034 8.99954C20.9034 8.86616 20.8501 8.73831 20.7554 8.64442L17.829 5.74393C17.6329 5.54954 17.3163 5.55094 17.1219 5.74707C16.9275 5.9432 16.9289 6.25978 17.1251 6.45417L19.1886 8.49949L12.6001 8.49949Z" fill="#00C802"/>
<path d="M25.3651 4.662V14H29.5371V12.656H26.7931V4.662H25.3651Z" fill="#00C802"/>
</svg>
