<svg width="28" height="28" viewBox="0 0 28 28" fill="none" xmlns="http://www.w3.org/2000/svg">
<defs>
<radialGradient id="paint0_radial_3404_15425" cx="0" cy="0" r="1" gradientUnits="userSpaceOnUse" gradientTransform="translate(9.48338 7.78923) scale(12.552 12.5596)">
<stop stop-color="#FFE343"/>
<stop offset="0.5492" stop-color="#FFE241"/>
<stop offset="0.7469" stop-color="#FFDF3A"/>
<stop offset="0.8874" stop-color="#FEDA2F"/>
<stop offset="1" stop-color="#FED31E"/>
</radialGradient>
<radialGradient id="paint1_radial_3404_15425" cx="0" cy="0" r="1" gradientUnits="userSpaceOnUse" gradientTransform="translate(11.8697 7.82711) scale(14.6962 14.705)">
<stop stop-color="#FFEC5F"/>
<stop offset="1" stop-color="#FFEC5F" stop-opacity="0"/>
</radialGradient>
<radialGradient id="paint2_radial_3404_15425" cx="0" cy="0" r="1" gradientUnits="userSpaceOnUse" gradientTransform="translate(29.8578 21.581) scale(34.0975 34.118)">
<stop stop-color="#D86D00"/>
<stop offset="0.3292" stop-color="#DC6C0A" stop-opacity="0.6708"/>
<stop offset="0.8792" stop-color="#E86823" stop-opacity="0.1208"/>
<stop offset="1" stop-color="#EB672A" stop-opacity="0"/>
</radialGradient>
<radialGradient id="paint3_radial_3404_15425" cx="0" cy="0" r="1" gradientUnits="userSpaceOnUse" gradientTransform="translate(13.164 3.7654) rotate(71.7336) scale(26.3436 10.9718)">
<stop stop-color="white"/>
<stop offset="1" stop-color="white" stop-opacity="0"/>
</radialGradient>
<radialGradient id="paint4_radial_3404_15425" cx="0" cy="0" r="1" gradientUnits="userSpaceOnUse" gradientTransform="translate(20.0904 4.45359) scale(18.812 18.8233)">
<stop stop-color="#FF8000" stop-opacity="0"/>
<stop offset="0.5434" stop-color="#FD7F00" stop-opacity="0.5434"/>
<stop offset="0.7391" stop-color="#F67C00" stop-opacity="0.7391"/>
<stop offset="0.8781" stop-color="#EB7600" stop-opacity="0.8781"/>
<stop offset="0.9903" stop-color="#DA6E00" stop-opacity="0.9903"/>
<stop offset="1" stop-color="#D86D00"/>
</radialGradient>
<radialGradient id="paint5_radial_3404_15425" cx="0" cy="0" r="1" gradientUnits="userSpaceOnUse" gradientTransform="translate(13.903 15.9507) rotate(58.3384) scale(6.73511 3.2086)">
<stop stop-color="#FFEC5F"/>
<stop offset="1" stop-color="#FFEC5F" stop-opacity="0"/>
</radialGradient>
<radialGradient id="paint6_radial_3404_15425" cx="0" cy="0" r="1" gradientUnits="userSpaceOnUse" gradientTransform="translate(12.2488 9.14092) rotate(58.3384) scale(6.73511 3.2086)">
<stop stop-color="white"/>
<stop offset="1" stop-color="white" stop-opacity="0"/>
</radialGradient>
</defs>
<path d="M7 12.6556H12.5889L8.92778 4L20.4444 15.3444H14.8556L18.5167 24L7 12.6556Z" fill="url(#paint0_radial_3404_15425)"/>
<path d="M7.92212 13.0334L17.4221 22.3945L14.2777 14.9667H19.5166L10.0166 5.6056L13.161 13.0334H7.92212Z" fill="url(#paint1_radial_3404_15425)"/>
<path d="M20.4444 15.3444L8.92778 4L12.5944 12.6556H7L18.5167 24L14.85 15.3444H20.4444ZM17.4278 22.3944L7.92778 13.0333H13.1667L10.0167 5.60556L19.5167 14.9667H14.2778L17.4278 22.3944Z" fill="url(#paint2_radial_3404_15425)"/>
<path opacity="0.24" d="M7 12.6556H12.5889L8.92778 4L20.4444 15.3444H14.8556L18.5167 24L7 12.6556Z" fill="url(#paint3_radial_3404_15425)"/>
<path d="M7 12.6556H12.5889L8.92778 4L20.4444 15.3444H14.8556L18.5167 24L7 12.6556Z" fill="url(#paint4_radial_3404_15425)"/>
<path d="M7 12.6556H12.5889L8.92778 4L20.4444 15.3444H14.8556L18.5167 24L7 12.6556Z" fill="url(#paint5_radial_3404_15425)"/>
<path opacity="0.24" d="M7 12.6556H12.5889L8.92778 4L20.4444 15.3444H14.8556L18.5167 24L7 12.6556Z" fill="url(#paint6_radial_3404_15425)"/>
</svg>
