<svg width="355" height="322" viewBox="0 0 355 322" fill="none" xmlns="http://www.w3.org/2000/svg">
<defs>
<linearGradient id="paint0_linear_548:20931" x1="252.934" y1="24.8768" x2="252.934" y2="86.1961" gradientUnits="userSpaceOnUse">
<stop offset="0.0797454" stop-color="#92E3A9"/>
<stop offset="1" stop-color="#6FDE8F"/>
</linearGradient>
<linearGradient id="paint1_linear_548:20931" x1="185.762" y1="37.4719" x2="185.762" y2="124.216" gradientUnits="userSpaceOnUse">
<stop offset="0.0797454" stop-color="#92E3A9"/>
<stop offset="1" stop-color="#6FDE8F"/>
</linearGradient>
<linearGradient id="paint2_linear_548:20931" x1="84.044" y1="119.828" x2="84.044" y2="202.311" gradientUnits="userSpaceOnUse">
<stop offset="0.0797454" stop-color="#92E3A9"/>
<stop offset="1" stop-color="#6FDE8F"/>
</linearGradient>
</defs>
<g opacity="0.8">
<path d="M306.114 110.19C300.87 105.382 295.042 101.194 288.754 97.7181C268.252 86.2007 245.356 78.1529 221.707 75.5216C219.424 75.2723 217.13 75.0654 214.836 74.9168C161.558 71.4208 125.625 101.702 103.46 130.811C81.296 159.92 49.3517 142.069 16.6594 184.382C-16.0329 226.695 1.69851 269.778 49.7285 291.905C97.7586 314.033 159.519 300.441 199.077 291.126C238.635 281.81 277.384 314.028 314.924 268.224C343.101 233.841 343.078 182.095 327.586 142.684C322.416 129.538 315.578 118.949 306.114 110.19Z" fill="#92E3A9"/>
<path opacity="0.7" d="M306.114 110.19C300.87 105.382 295.042 101.194 288.754 97.7181C268.252 86.2007 245.356 78.1529 221.707 75.5216C219.424 75.2723 217.13 75.0654 214.836 74.9168C161.558 71.4208 125.625 101.702 103.46 130.811C81.296 159.92 49.3517 142.069 16.6594 184.382C-16.0329 226.695 1.69851 269.778 49.7285 291.905C97.7586 314.033 159.519 300.441 199.077 291.126C238.635 281.81 277.384 314.028 314.924 268.224C343.101 233.841 343.078 182.095 327.586 142.684C322.416 129.538 315.578 118.949 306.114 110.19Z" fill="white"/>
</g>
<path opacity="0.3" d="M301.745 84.4008C301.745 84.4008 297.423 63.2568 283.002 64.6974C276.448 65.3512 272.059 68.6411 268.259 73.7445C263.38 80.2936 261.618 76.4878 254.65 78.6334C248.402 80.5593 249.362 85.8465 245.516 86.8069C241.669 87.7673 238.788 83.4404 233.5 84.4008C228.213 85.3612 225.327 90.6485 225.327 90.6485H321.453C321.198 88.8556 320.426 87.1761 319.231 85.8152C318.036 84.4543 316.47 83.4711 314.726 82.9858C308.473 81.0395 305.592 85.8466 301.745 84.4008Z" stroke="black" stroke-miterlimit="10"/>
<path opacity="0.3" d="M115.962 120.181C115.962 120.181 113.229 106.833 104.131 107.742C99.988 108.161 97.2243 110.23 94.8233 113.453C91.7582 117.586 90.6445 115.185 86.2359 116.518C82.2921 117.734 82.9 121.07 80.4684 121.678C78.0367 122.286 76.2232 119.553 72.8874 120.145C69.5515 120.738 67.7278 124.089 67.7278 124.089H128.396C128.239 122.954 127.753 121.89 126.999 121.028C126.245 120.166 125.255 119.543 124.151 119.236C120.207 118.056 118.389 121.09 115.962 120.181Z" stroke="black" stroke-miterlimit="10"/>
<path opacity="0.3" d="M232.278 273.691C232.278 273.691 229.877 261.967 221.882 262.769C218.25 263.132 215.819 264.956 213.709 267.786C211.001 271.413 210.036 269.318 206.164 270.493C202.7 271.561 203.231 274.493 201.101 275.025C198.971 275.556 197.372 273.16 194.46 273.691C191.548 274.223 189.934 277.155 189.934 277.155H243.215C243.077 276.158 242.65 275.224 241.988 274.467C241.325 273.71 240.456 273.164 239.486 272.894C235.997 271.827 234.398 274.493 232.278 273.691Z" stroke="black" stroke-miterlimit="10"/>
<path opacity="0.3" d="M61.1233 256.68C61.1233 256.68 58.7223 244.961 50.7275 245.758C47.0954 246.12 44.6637 247.944 42.5539 250.774C39.8515 254.401 38.886 252.307 35.0138 253.482C31.5502 254.549 32.0815 257.482 29.9512 258.013C27.821 258.544 26.222 256.148 23.3102 256.68C20.3983 257.211 18.7841 260.143 18.7841 260.143H72.0657C71.9271 259.147 71.5003 258.213 70.8377 257.456C70.1752 256.699 69.3058 256.152 68.3365 255.883C64.8525 254.789 63.2535 257.456 61.1233 256.68Z" stroke="black" stroke-miterlimit="10"/>
<path d="M292.316 148.725L303.201 156.788L227.001 203.155L213.288 228.959L125.8 261.212L34.707 321.313H88.2693L145.553 278.149L232.644 246.293L247.966 218.074L321.345 167.673L336.666 179.368L354 137.029V132.169L292.316 148.725Z" fill="#263238" stroke="#263238" stroke-linecap="round" stroke-linejoin="round"/>
<path d="M292.316 143.859L303.201 151.922L227.001 198.29L213.289 224.094L125.801 256.352L29.3122 321.313H82.8427L145.553 273.283L232.644 241.433L247.966 213.209L321.345 162.813L336.667 174.502L354 132.169L292.316 143.859Z" fill="white" stroke="#263238" stroke-linecap="round" stroke-linejoin="round"/>
<path d="M227.234 236.308L229.013 237.801" stroke="#263238" stroke-linecap="round" stroke-linejoin="round"/>
<path d="M216.518 227.318L225.015 234.449" stroke="#263238" stroke-linecap="round" stroke-linejoin="round"/>
<path d="M230.225 199.502L235.869 203.531" stroke="#263238" stroke-linecap="round" stroke-linejoin="round"/>
<path d="M142.732 271.668L126.536 260.291" stroke="#263238" stroke-linecap="round" stroke-linejoin="round"/>
<path d="M292.316 148.724V143.859L303.201 151.922L299.617 154.146L292.316 148.724Z" fill="white" stroke="#263238" stroke-linecap="round" stroke-linejoin="round"/>
<path d="M336.667 179.368V174.502L321.345 162.812V167.673L336.667 179.368Z" fill="white" stroke="#263238" stroke-miterlimit="10"/>
<path d="M146.01 120.642L141.143 129.79C141.143 129.79 142.319 131.339 142.766 131.088C143.212 130.837 145.604 126.692 145.604 126.692L143.69 133.773C143.69 133.773 144.461 134.997 144.939 134.462C145.418 133.927 147.161 128.858 147.599 128.785C148.037 128.712 149.067 126.879 149.067 126.879L147.299 132.629C147.299 132.629 146.634 135.33 147.81 135.143C148.986 134.957 149.067 132.345 149.067 132.345L151.565 128.509L150.632 132.629C150.632 132.629 152.254 133.781 152.506 132.791C152.757 131.802 153.641 127.925 153.641 127.925C153.641 127.925 157.696 123.059 158.167 122.516C158.637 121.972 161.03 116.1 161.03 116.1L157.413 111.007L146.01 120.642Z" fill="#FFBE9D" stroke="#263238" stroke-linecap="round" stroke-linejoin="round"/>
<path d="M156.739 112.143L147.104 114.649C147.104 114.649 144.177 121.786 143.341 123.018C142.506 124.251 143.512 124.486 145.012 123.886C146.512 123.286 149.116 119.896 149.116 119.896C149.116 119.896 153.698 120.577 155.215 118.095" fill="#FFBE9D"/>
<path d="M156.739 112.143L147.104 114.649C147.104 114.649 144.177 121.786 143.341 123.018C142.506 124.251 143.512 124.486 145.012 123.886C146.512 123.286 149.116 119.896 149.116 119.896C149.116 119.896 153.698 120.577 155.215 118.095" stroke="#263238" stroke-linecap="round" stroke-linejoin="round"/>
<path d="M148.037 124L152.181 126.384" stroke="#263238" stroke-linecap="round" stroke-linejoin="round"/>
<path d="M215.879 33.0358L235.919 84.1787L237.687 89.718C237.687 89.718 218.393 97.7795 214.387 98.4202C212.516 98.6752 210.668 99.0682 208.855 99.5962L188.669 48.9724L195.514 38.0723L211.913 31.2516L215.879 33.0358Z" fill="white" stroke="#263238" stroke-linecap="round" stroke-linejoin="round"/>
<path d="M215.984 59.8887L225.417 89.572" stroke="#263238" stroke-linecap="round" stroke-linejoin="round"/>
<path d="M210.721 202.774C210.439 205.438 210.02 208.085 209.464 210.706C208.847 212.952 206.885 219.1 207.177 220.706C207.469 222.311 209.034 229.189 209.991 229.7C210.948 230.211 212.375 230.332 213.154 229.7C213.932 229.067 217.89 221.346 218.263 218.654C218.636 215.961 218.385 207.178 218.442 206.488C218.498 205.799 210.721 202.774 210.721 202.774Z" fill="#455A64" stroke="#263238" stroke-linecap="round" stroke-linejoin="round"/>
<path d="M295.27 152.588C295.27 152.588 301.758 155.589 302.618 155.662C303.477 155.735 310.874 156.473 310.874 156.473C310.874 156.473 317.005 155.273 317.962 155.784C318.919 156.294 318.587 158.565 318.587 158.565C318.587 158.565 306.251 165.118 304.499 165.54C302.747 165.962 300.647 165.216 299.471 165.54L298.295 165.873L299.284 167.681L291.912 171.647C291.912 171.647 288.668 167.916 288.538 165.759C288.409 163.602 288.327 159.855 288.327 159.855L287.273 155.451L295.27 152.588Z" fill="#455A64" stroke="#263238" stroke-linecap="round" stroke-linejoin="round"/>
<path d="M214.184 31.8354C214.184 31.8354 227.971 67.0255 230.583 72.4431C233.194 77.8607 235.514 84.3976 237.525 86.0926C239.536 87.7876 232.343 68.1528 231.661 64.2924C230.98 60.4319 231.086 53.2139 231.086 53.2139L291.685 32.4274L289.414 24.8768L238.807 30.9351C238.807 30.9351 228.507 29.7997 226.349 29.8727C224.192 29.9457 214.184 31.8354 214.184 31.8354Z" fill="url(#paint0_linear_548:20931)" stroke="#263238" stroke-linecap="round" stroke-linejoin="round"/>
<path d="M218.782 31C216.293 31.438 214.184 31.811 214.184 31.811C214.184 31.811 223.835 56.3768 228.515 67.6175C228.125 61.1481 227.172 54.7249 225.668 48.4207C223.993 42.3875 221.685 36.5482 218.782 31V31Z" fill="#92E3A9" stroke="#263238" stroke-linecap="round" stroke-linejoin="round"/>
<path d="M232.935 37.5287L231.086 53.2219L235.911 38.2992" stroke="#263238" stroke-linecap="round" stroke-linejoin="round"/>
<path d="M289.414 24.877L293.137 24.3093L294.597 30.9029L291.677 32.4276L289.414 24.877Z" fill="#526772" stroke="#263238" stroke-linecap="round" stroke-linejoin="round"/>
<path d="M306.486 22.4114C306.486 22.4114 309.608 22.9304 309.544 23.6847C309.479 24.4389 308.368 28.5508 308.368 28.5508C306.871 28.9241 305.306 28.9241 303.81 28.5508C301.839 27.8776 301.198 26.4259 301.693 25.0715C302.188 23.7171 306.486 22.4114 306.486 22.4114Z" fill="#FFBE9D" stroke="#263238" stroke-linecap="round" stroke-linejoin="round"/>
<path d="M304.199 23.863L306.778 24.8444L306.51 27.9911" stroke="#263238" stroke-linecap="round" stroke-linejoin="round"/>
<path d="M303.258 24.5443L304.791 25.9393C304.882 26.315 304.882 26.707 304.791 27.0828" stroke="#263238" stroke-linecap="round" stroke-linejoin="round"/>
<path d="M293.145 24.3089L302.877 22.0948C302.877 22.0948 312.212 18.2101 312.544 18.7453C312.735 18.9813 312.827 19.2818 312.802 19.5841C312.776 19.8863 312.634 20.167 312.407 20.3674C311.855 20.8297 305.051 23.287 304.248 23.8548C303.445 24.4225 302.942 25.7688 303.518 26.4581C303.858 26.9354 304.307 27.3248 304.827 27.5942C305.347 27.8636 305.924 28.0051 306.51 28.0072C307.922 27.8693 311.377 27.407 311.466 27.9261C311.555 28.4451 311.871 29.1021 310.655 29.5481C309.438 29.9942 307.589 29.7914 306.689 29.9699C305.789 30.1483 302.147 31.2269 300.76 31.1053C299.492 30.9111 298.245 30.5933 297.038 30.1564L294.564 30.9674L293.145 24.3089Z" fill="#FFBE9D" stroke="#263238" stroke-linecap="round" stroke-linejoin="round"/>
<path d="M234.751 84.2841C234.751 84.2841 244.889 103.992 245.684 104.008C246.479 104.024 255.659 97.1064 255.903 96.7901C256.146 96.4738 243.673 89.3449 240.153 85.6791C236.633 82.0133 233.527 77.9501 233.527 77.9501L234.751 84.2841Z" fill="#92E3A9" stroke="#263238" stroke-linecap="round" stroke-linejoin="round"/>
<path d="M237.687 89.718L242.553 98.2013C242.553 98.2013 267.995 95.2735 276.616 94.6977C285.237 94.1219 288.279 95.0383 288.279 95.0383L296.843 152.564L283.161 158.63L270.371 115.598C270.371 115.598 241.888 123.359 237.728 123.83C235.639 124.016 233.571 124.388 231.548 124.941C231.548 124.941 223.697 178.103 223.097 185.126C222.497 192.15 222.546 204.996 222.546 204.996L218.604 208.776C218.604 208.776 210.096 204.258 209.683 203.561C209.269 202.863 204.955 137.641 204.955 137.641L203.333 112.159L208.847 99.6287L237.687 89.718Z" fill="#263238" stroke="#263238" stroke-linecap="round" stroke-linejoin="round"/>
<path d="M211.994 101.34L238.88 92.0862L237.679 89.718L211.621 98.5744L211.994 101.34Z" fill="#263238" stroke="#263238" stroke-linecap="round" stroke-linejoin="round"/>
<path d="M223.292 94.5595L224.549 97.5684L230.575 95.4354L229.447 92.5482L223.292 94.5595Z" fill="white" stroke="#263238" stroke-linecap="round" stroke-linejoin="round"/>
<path d="M217.598 150.253L217.542 146.984" stroke="#263238" stroke-linecap="round" stroke-linejoin="round"/>
<path d="M218.596 208.743L217.655 153.699" stroke="#263238" stroke-linecap="round" stroke-linejoin="round"/>
<path d="M231.548 124.908C231.548 124.908 233.129 113.975 236.373 107.487" stroke="#263238" stroke-linecap="round" stroke-linejoin="round"/>
<path d="M237.995 102.402C237.995 102.402 233.283 110.107 232.562 111.786" stroke="#263238" stroke-linecap="round" stroke-linejoin="round"/>
<path d="M279.001 112.84L281.336 112.102" stroke="#263238" stroke-linecap="round" stroke-linejoin="round"/>
<path d="M270.363 115.565L276.576 113.602" stroke="#263238" stroke-linecap="round" stroke-linejoin="round"/>
<path d="M207.988 51.6163L214.865 55.9714L217.039 45.8661L209.269 43.4574L207.988 51.6163Z" fill="#263238" stroke="#263238" stroke-linecap="round" stroke-linejoin="round"/>
<path d="M211.086 47.4719L205.206 60.3671L197.42 39.5401L214.176 31.8354L223.413 49.3129L211.086 47.4719Z" fill="#526772" stroke="#263238" stroke-linecap="round" stroke-linejoin="round"/>
<path d="M159.164 108.809L155.993 112.134L161.054 117.82L162.684 115.249L159.164 108.809Z" fill="#526772" stroke="#263238" stroke-linecap="round" stroke-linejoin="round"/>
<path d="M195.514 38.0721L176.358 53.1489L174.428 92.5807L158.207 109.612L162.96 116.83L186.479 98.2497L189.675 75.7926L194.127 88.6067L188.977 119.928C192.525 121.329 196.154 122.513 199.845 123.472C205.238 124.803 212.132 123.943 212.132 123.943L213.316 86.3359L198.215 37.4719L195.514 38.0721Z" fill="url(#paint1_linear_548:20931)" stroke="#263238" stroke-linecap="round" stroke-linejoin="round"/>
<path d="M196.277 94.6001L210.08 95.9302V101.242L196.009 99.1175" fill="#92E3A9"/>
<path d="M196.277 94.6001L210.08 95.9302V101.242L196.009 99.1175" stroke="#263238" stroke-linecap="round" stroke-linejoin="round"/>
<path d="M198.182 37.4313L195.514 38.072L192.019 40.8213C193.629 46.8602 195.717 52.7614 198.264 58.4691C201.199 64.9573 206.755 72.4673 210.429 77.1226L198.182 37.4313Z" fill="#92E3A9" stroke="#263238" stroke-linecap="round" stroke-linejoin="round"/>
<path d="M214.873 55.9714L201.427 67.3257L176.471 64.0249L164.655 73.311L162.108 79.3288L172.27 80.9508L181.857 70.6022C181.857 70.6022 201.135 74.1464 202.181 73.7976C203.227 73.4489 213.535 59.4021 213.535 59.4021L214.873 55.9714Z" fill="#263238" stroke="#263238" stroke-linecap="round" stroke-linejoin="round"/>
<path d="M186.561 12.1843C186.561 12.1843 183.098 13.1819 181.5 11.1138C179.902 9.04569 178.848 6.36933 180.259 6.81539C181.45 7.26878 182.589 7.84787 183.657 8.54286C183.657 8.54286 183.114 3.67674 184.257 3.43344C185.401 3.19013 185.879 5.34744 185.879 5.34744C185.879 5.34744 190.859 1.74652 196.423 1.08959C201.986 0.432663 210.21 3.5632 211.41 4.78784C212.611 6.01248 211.808 17.0667 211.572 17.8534C211.337 18.6401 210.867 20.5297 210.007 21.0974C209.148 21.6652 207.152 22.46 206.106 21.5678C205.06 20.6757 205.165 19.3943 203.26 19.0699C201.354 18.7455 196.682 18.6644 196.374 16.7017C196.066 14.739 198.126 11.2192 196.196 11.2111C194.265 11.203 189.448 12.8899 188.158 12.9386C186.869 12.9872 186.561 12.1843 186.561 12.1843Z" fill="#263238" stroke="#263238" stroke-linecap="round" stroke-linejoin="round"/>
<path d="M186.561 12.1846V22.0142L188.523 24.6013L187.712 33.8794L191.767 33.5793C191.767 33.5793 194.468 41.5435 195.255 41.7706C196.041 41.9977 199.448 39.8728 199.448 39.8728C199.448 39.8728 210.518 47.91 211.037 47.4721C211.556 47.0341 213.705 33.2062 214.07 32.7521C214.435 32.2979 212.448 25.0474 212.448 25.0474C212.448 25.0474 214.022 21.8033 213.584 19.3702C213.146 16.9372 212.367 16.6858 212.367 16.6858C212.367 16.6858 210.672 15.7369 210.113 16.6858C209.553 17.6347 207.85 20.5219 207.85 20.5219L205.376 17.4076C205.376 17.4076 198.345 16.8074 198.426 15.8423C198.507 14.8772 200.048 10.0273 199.61 9.50013C199.172 8.97296 190.835 9.35414 186.561 12.1846Z" fill="#FFBE9D"/>
<path d="M196.09 23.8388C196.415 24.6498 196.35 25.4608 195.944 25.6068C195.539 25.7528 194.947 25.2418 194.614 24.4308C194.282 23.6198 194.355 22.8088 194.76 22.6709C195.166 22.533 195.758 23.0278 196.09 23.8388Z" fill="#263238"/>
<path d="M190.291 22.906C190.291 22.906 192.643 27.8776 194.071 28.2669C195.498 28.6562 199.545 27.8046 200.064 26.3934C200.583 24.9822 199.156 19.962 199.156 19.962L190.291 22.906Z" stroke="#263238" stroke-width="0.5" stroke-linecap="round" stroke-linejoin="round"/>
<path d="M199.148 19.9621L210.178 16.6288" stroke="#263238" stroke-width="0.5" stroke-linecap="round" stroke-linejoin="round"/>
<path d="M190.291 22.9062L183.292 25.7529C183.292 25.7529 184.874 28.9402 187.558 28.5023" stroke="#263238" stroke-width="0.5" stroke-linecap="round" stroke-linejoin="round"/>
<path d="M196.634 32.5897C196.634 32.5897 200.51 32.1274 201.346 28.6238" stroke="#263238" stroke-width="0.5" stroke-linecap="round" stroke-linejoin="round"/>
<path d="M199.496 39.8724C199.496 39.8724 205.344 35.8579 206.058 35.2577C206.771 34.6576 207.493 32.4597 207.493 32.4597C207.493 32.4597 206.682 39.1506 206.131 40.5699C205.579 41.9892 204.955 43.5139 204.955 43.5139L199.496 39.8724Z" fill="#EB996E"/>
<path d="M192.465 20.7083C192.944 19.9855 193.637 19.4305 194.447 19.1208C195.257 18.811 196.143 18.7621 196.982 18.9808" stroke="#263238" stroke-width="0.5" stroke-linecap="round" stroke-linejoin="round"/>
<path d="M132.815 135.789L134.607 131.077L138.338 127.55C138.338 127.55 139.635 125.189 140.422 125.668C141.209 126.146 140.746 126.657 140.422 127.59C139.83 128.585 139.104 129.494 138.265 130.291C138.265 130.291 145.564 125.425 145.969 125.319C146.375 125.214 147.591 126 146.943 126.779C146.294 127.558 141.379 130.834 141.379 130.834L149.376 127.258C149.376 127.258 150.016 129.374 149.149 129.845C148.281 130.315 143.771 133.373 143.771 133.373C143.771 133.373 147.283 132.432 148.281 131.97C149.278 131.507 149.7 133.056 148.97 133.543C148.24 134.03 143.747 136.787 143.747 136.787C143.747 136.787 148.094 135.781 147.908 136.317C147.721 136.852 147.827 137.274 146.57 137.574C145.312 137.874 140.3 140.193 140.3 140.193L133.399 142.213L132.815 135.789Z" fill="#FFBE9D" stroke="#263238" stroke-linecap="round" stroke-linejoin="round"/>
<path d="M130.292 137.444L132.815 135.79L135.832 142.351L132.231 144.589L130.292 137.444Z" fill="#526772" stroke="#263238" stroke-linecap="round" stroke-linejoin="round"/>
<path d="M35.6625 197.573C35.6625 197.573 36.3681 206.186 36.2951 207.046C36.2221 207.905 39.9447 211.855 40.9017 212.512C41.8587 213.169 45.2812 212.163 45.2812 212.163C45.2812 212.163 49.0444 207.127 48.7362 205.675C48.5828 204.834 48.1342 204.074 47.471 203.534L42.8238 199.179L41.3397 197.338L35.6625 197.573Z" fill="#FFBE9D" stroke="#263238" stroke-linecap="round" stroke-linejoin="round"/>
<path d="M42.2156 207.411L40.2935 209.56C40.2935 209.56 41.1856 210.947 42.0778 210.728L42.9618 210.517" stroke="#263238" stroke-linecap="round" stroke-linejoin="round"/>
<path d="M41.3397 197.338C41.3397 197.338 46.2059 201.661 47.171 202.034C47.5763 202.217 47.9152 202.521 48.1416 202.905C48.368 203.288 48.4708 203.731 48.4362 204.175C46.9272 205.751 45.3005 207.209 43.57 208.538C42.6455 209.187 41.8182 208.676 42.2156 207.411C42.613 206.146 43.5052 204.167 43.5052 204.167C43.5052 204.167 41.6074 204.288 41.1613 202.804" fill="#FFBE9D"/>
<path d="M41.3397 197.338C41.3397 197.338 46.2059 201.661 47.171 202.034C47.5763 202.217 47.9152 202.521 48.1416 202.905C48.368 203.288 48.4708 203.731 48.4362 204.175C46.9272 205.751 45.3005 207.209 43.57 208.538C42.6455 209.187 41.8182 208.676 42.2156 207.411C42.613 206.146 43.5052 204.167 43.5052 204.167C43.5052 204.167 41.6074 204.288 41.1613 202.804" stroke="#263238" stroke-linecap="round" stroke-linejoin="round"/>
<path d="M35.2814 193.631L35.6707 197.573C35.6707 197.573 37.7307 198.911 39.1906 198.749C40.3597 198.509 41.4772 198.064 42.4914 197.435L43.6755 194.718L35.2814 193.631Z" fill="#526772" stroke="#263238" stroke-linecap="round" stroke-linejoin="round"/>
<path d="M116.927 252.885C116.927 252.885 114.202 262.682 114.169 264.717C114.26 266.876 114.466 269.028 114.786 271.165C114.786 271.165 115.597 271.976 117.649 271.7C119.113 271.59 120.538 271.167 121.825 270.459C122.296 270.062 122.239 267.296 122.239 267.296C122.239 267.296 124.25 267.613 125.678 267.88C127.105 268.148 131.785 266.258 133.601 265.358C135.418 264.458 138.816 262.171 139.278 260.322C139.741 258.472 138.467 257.637 137.908 257.588C137.348 257.54 130.211 257.507 128.638 257.223C127.065 256.94 124.38 254.247 124.275 253.801C124.169 253.355 116.927 252.885 116.927 252.885Z" fill="#455A64" stroke="#263238" stroke-linecap="round" stroke-linejoin="round"/>
<path d="M78.5411 291.911L78.8818 296.444C78.8818 296.444 82.1258 300.654 83.1315 301.173C84.1372 301.692 86.2783 301.732 86.4567 303.054C86.6351 304.376 87.0163 304.993 85.962 305.487C84.9076 305.982 80.6985 307.507 79.0926 307.515C77.4868 307.523 74.5509 306.25 74.5509 306.25L74.113 307.961C73.1719 308.32 72.1668 308.48 71.1609 308.431C69.9915 308.414 68.8317 308.217 67.7221 307.847C67.7221 307.847 67.0247 304.157 67.341 302.17C67.6573 300.183 68.963 294.871 68.963 294.871L70.0984 290.167L78.5411 291.911Z" fill="#455A64" stroke="#263238" stroke-linecap="round" stroke-linejoin="round"/>
<path d="M61.453 199.349L65.1431 207.054L75.4025 244.304L69.2226 291.011C69.2226 291.011 71.534 292.803 73.4074 292.965C75.2809 293.127 79.9361 292.795 79.9361 292.795L90.8281 243.452L92.6529 206.956L121.104 208.092L115.426 254.069C115.426 254.069 118.971 254.953 120.292 255.058C122.305 254.972 124.309 254.758 126.294 254.417C126.294 254.417 139.643 197.07 140.041 195.797C140.221 195.414 140.307 194.993 140.293 194.571C140.279 194.148 140.165 193.734 139.96 193.364C139.595 192.601 106.943 184.734 106.943 184.734C106.943 184.734 68.6467 199.965 61.453 199.349Z" fill="#263238" stroke="#263238" stroke-linecap="round" stroke-linejoin="round"/>
<path d="M92.6772 206.948L76.3595 205.87L91.9473 217.346L92.6772 206.948Z" fill="#263238" stroke="#263238" stroke-linecap="round" stroke-linejoin="round"/>
<path d="M61.5017 123.721C61.5017 123.721 51.7695 129.528 51.1288 131.515C50.4881 133.502 37.1063 166.065 36.9927 167.419C36.8792 168.774 34.4461 195.115 34.4461 195.115C35.7851 195.64 37.1863 195.989 38.6147 196.154C40.6423 196.324 43.6755 194.718 43.6755 194.718L49.6122 167.143L60.2609 154.11L63.3671 165.611L55.9381 200.703C55.9381 200.703 68.3954 204.321 81.4771 200.703C94.5589 197.086 109.417 184.54 109.417 184.54C109.417 184.54 101.785 170.266 99.6845 167.362C97.584 164.459 95.7673 161.41 95.7673 161.41L95.9538 155.294C95.9538 155.294 107.178 167.322 108.403 166.916C109.628 166.511 133.642 144.565 133.642 144.565L130.333 137.468L108.476 148.198C108.476 148.198 97.5029 123.251 95.1996 122.375C92.8963 121.499 87.8355 120.891 87.8355 120.891C87.8355 120.891 72.1099 117.144 61.5017 123.721Z" fill="url(#paint2_linear_548:20931)" stroke="#263238" stroke-linecap="round" stroke-linejoin="round"/>
<path d="M77.43 80.8347C78.4032 81.9513 79.2366 83.1823 79.9118 84.5005C81.1688 86.8687 81.4851 89.4234 83.3991 90.3885C85.3131 91.3536 87.9814 91.1995 87.9084 92.0998C87.8354 93 86.3269 95.0276 86.3269 95.0276C86.3269 95.0276 88.541 103.324 88.022 104.76C87.5029 106.195 80.9742 109.342 80.9742 109.342V116.795L71.3312 117.566C69.7138 113.471 68.3859 109.268 67.3572 104.987C66.2217 99.5693 71.542 96.4387 71.4123 90.0479C71.2825 83.6571 72.3936 80.1535 73.748 79.8696C75.1024 79.5857 77.43 80.8347 77.43 80.8347Z" fill="#FFBE9D"/>
<path d="M81.5744 90.567C81.8988 91.378 81.8583 92.189 81.4852 92.3107C81.1121 92.4323 80.5444 91.9214 80.22 91.1104C79.8956 90.2994 79.9361 89.4883 80.3092 89.3586C80.6823 89.2288 81.25 89.7479 81.5744 90.567Z" fill="#263238"/>
<path d="M78.8899 88.6694C78.8899 88.6694 78.7601 87.0473 80.3254 87.4609" stroke="#263238" stroke-width="0.5" stroke-linecap="round" stroke-linejoin="round"/>
<path d="M87.0974 98.4176C86.7765 98.7611 86.3595 98.9999 85.9008 99.1026C85.4421 99.2053 84.9631 99.1673 84.5264 98.9934" stroke="#263238" stroke-width="0.5" stroke-linecap="round" stroke-linejoin="round"/>
<path d="M76.1082 83.9085C76.1082 83.9085 78.233 88.6124 77.1544 91.8484C76.4404 93.9172 75.4675 95.8874 74.259 97.7121C74.259 97.7121 72.126 100.859 72.4829 102.886C72.8397 104.914 74.9808 112.537 75.6134 112.992L76.2379 113.446L77.5761 114.889C77.5761 114.889 70.5527 119.212 62.8966 120.153C55.2406 121.094 50.2042 119.196 49.1985 118.58C48.5415 118.168 47.9129 117.713 47.317 117.217C47.317 117.217 51.218 110.502 51.291 103.43C51.364 96.3576 49.2066 92.0755 51.291 85.8793C53.3753 79.6831 69.2469 76.512 69.2469 76.512C69.2469 76.512 69.9768 74.1763 73.0182 74.4358C76.0595 74.6953 79.1008 81.078 79.1008 81.078L76.1082 83.9085Z" fill="#263238" stroke="#263238" stroke-linecap="round" stroke-linejoin="round"/>
<path d="M75.2566 100.064C75.2566 100.064 72.8884 96.6657 71.5908 99.3502C70.2931 102.035 74.4456 106.374 76.5542 105.092" fill="#FFBE9D"/>
<path d="M72.0449 115.944C72.0449 115.944 79.7658 115.246 81.1121 115.36C82.4584 115.473 85.6863 117.623 85.6863 117.623L85.4673 120.161C85.4673 120.161 77.9816 118.158 73.8211 118.993C69.6605 119.829 63.7158 121.67 63.7158 121.67L64.908 117.679C64.908 117.679 68.9712 115.993 72.0449 115.944Z" fill="#526772" stroke="#263238" stroke-linecap="round" stroke-linejoin="round"/>
<path d="M61.5016 123.722L62.8966 120.153C62.8966 120.153 73.0749 117.663 77.0408 117.225C80.4992 116.925 83.9738 117.576 87.0893 119.107C88.1378 119.677 88.9613 120.586 89.425 121.686C89.425 121.686 81.4122 119.813 74.3563 120.737C69.9872 121.326 65.6833 122.325 61.5016 123.722V123.722Z" fill="#92E3A9" stroke="#263238" stroke-linecap="round" stroke-linejoin="round"/>
<path d="M95.9132 155.27L85.7106 145.189C85.7106 145.189 83.4235 142.099 84.713 136.933" stroke="#263238" stroke-linecap="round" stroke-linejoin="round"/>
<path d="M60.2609 154.086L54.2512 138.766" stroke="#263238" stroke-linecap="round" stroke-linejoin="round"/>
</svg>
