<svg width="355" height="349" viewBox="0 0 355 349" fill="none" xmlns="http://www.w3.org/2000/svg">
<defs>
<linearGradient id="paint0_linear_548:20269" x1="135.609" y1="134.534" x2="135.609" y2="234.524" gradientUnits="userSpaceOnUse">
<stop offset="0.0797454" stop-color="#92E3A9"/>
<stop offset="1" stop-color="#6FDE8F"/>
</linearGradient>
</defs>
<g opacity="0.8">
<path d="M246.956 16.8719C228.91 27.1934 216.181 44.5532 200.757 58.489C181.572 75.7542 158.222 87.7257 133.005 93.225C112.329 97.6994 90.7264 97.7655 70.8027 104.804C31.9314 118.442 5.30872 158.918 4.63881 200.072C3.9689 241.225 27.3827 281.122 61.7962 303.684C73.5165 311.372 86.3473 317.216 99.8404 321.011C125.148 328.132 151.986 327.818 178.137 325.097C223.311 320.391 270.667 294.736 299.143 258.569C311.836 242.404 322.563 224.788 331.1 206.092C345.203 175.351 353.213 142.167 354.687 108.377C355.887 79.4299 354.687 47.3404 331.72 26.2423C308.753 5.14431 273.876 1.46394 246.956 16.8719Z" fill="#92E3A9"/>
<path opacity="0.7" d="M246.956 16.8719C228.91 27.1934 216.181 44.5532 200.757 58.489C181.572 75.7542 158.222 87.7257 133.005 93.225C112.329 97.6994 90.7264 97.7655 70.8027 104.804C31.9314 118.442 5.30872 158.918 4.63881 200.072C3.9689 241.225 27.3827 281.122 61.7962 303.684C73.5165 311.372 86.3473 317.216 99.8404 321.011C125.148 328.132 151.986 327.818 178.137 325.097C223.311 320.391 270.667 294.736 299.143 258.569C311.836 242.404 322.563 224.788 331.1 206.092C345.203 175.351 353.213 142.167 354.687 108.377C355.887 79.4299 354.687 47.3404 331.72 26.2423C308.753 5.14431 273.876 1.46394 246.956 16.8719Z" fill="white"/>
</g>
<path d="M199.475 348.287C281.387 348.287 347.79 330.402 347.79 308.341C347.79 286.279 281.387 268.394 199.475 268.394C117.563 268.394 51.1604 286.279 51.1604 308.341C51.1604 330.402 117.563 348.287 199.475 348.287Z" fill="#92E3A9"/>
<path opacity="0.5" d="M199.475 348.287C281.387 348.287 347.79 330.402 347.79 308.341C347.79 286.279 281.387 268.394 199.475 268.394C117.563 268.394 51.1604 286.279 51.1604 308.341C51.1604 330.402 117.563 348.287 199.475 348.287Z" fill="white"/>
<path d="M217.555 20.5687H43.1878C39.0998 20.5687 35.7857 23.8828 35.7857 27.9708V125.72C35.7857 129.808 39.0998 133.122 43.1878 133.122H217.555C221.643 133.122 224.957 129.808 224.957 125.72V27.9708C224.957 23.8828 221.643 20.5687 217.555 20.5687Z" fill="white"/>
<path d="M224.957 27.9708V30.8985H35.7857V27.9708C35.7857 26.0038 36.5642 24.1168 37.9512 22.722C39.3382 21.3273 41.2209 20.5383 43.1878 20.5273H217.588C218.561 20.5306 219.524 20.7259 220.421 21.102C221.318 21.4781 222.133 22.0277 222.817 22.7192C223.502 23.4108 224.043 24.2306 224.411 25.1318C224.778 26.033 224.963 26.9977 224.957 27.9708V27.9708Z" fill="#92E3A9"/>
<path d="M217.555 20.5687H43.1878C39.0998 20.5687 35.7857 23.8828 35.7857 27.9708V125.72C35.7857 129.808 39.0998 133.122 43.1878 133.122H217.555C221.643 133.122 224.957 129.808 224.957 125.72V27.9708C224.957 23.8828 221.643 20.5687 217.555 20.5687Z" stroke="#263238" stroke-linecap="round" stroke-linejoin="round"/>
<path d="M224.957 27.9708V30.8985H35.7857V27.9708C35.7857 26.0038 36.5642 24.1168 37.9512 22.722C39.3382 21.3273 41.2209 20.5383 43.1878 20.5273H217.588C218.561 20.5306 219.524 20.7259 220.421 21.102C221.318 21.4781 222.133 22.0277 222.817 22.7192C223.502 23.4108 224.043 24.2306 224.411 25.1318C224.778 26.033 224.963 26.9977 224.957 27.9708V27.9708Z" stroke="#263238" stroke-linecap="round" stroke-linejoin="round"/>
<path d="M57.0326 25.7294C57.0343 26.1044 56.9246 26.4713 56.7175 26.7839C56.5103 27.0964 56.2151 27.3405 55.8692 27.4851C55.5233 27.6297 55.1422 27.6684 54.7743 27.5962C54.4063 27.5241 54.0681 27.3444 53.8024 27.0798C53.5367 26.8153 53.3555 26.4778 53.2818 26.1102C53.208 25.7426 53.245 25.3614 53.3881 25.0148C53.5312 24.6683 53.774 24.372 54.0856 24.1635C54.3972 23.955 54.7637 23.8438 55.1387 23.8438C55.6396 23.8437 56.12 24.0421 56.475 24.3955C56.8299 24.7489 57.0304 25.2286 57.0326 25.7294Z" fill="#263238"/>
<path d="M66.9159 25.7294C66.9175 26.1044 66.8078 26.4713 66.6007 26.7839C66.3936 27.0964 66.0984 27.3405 65.7525 27.4851C65.4065 27.6297 65.0255 27.6684 64.6575 27.5962C64.2896 27.5241 63.9514 27.3444 63.6857 27.0798C63.42 26.8153 63.2388 26.4778 63.165 26.1102C63.0913 25.7426 63.1283 25.3614 63.2714 25.0148C63.4145 24.6683 63.6572 24.372 63.9689 24.1635C64.2805 23.955 64.647 23.8438 65.0219 23.8438C65.5228 23.8437 66.0033 24.0421 66.3582 24.3955C66.7132 24.7489 66.9137 25.2286 66.9159 25.7294V25.7294Z" fill="#263238"/>
<path d="M74.9052 27.6233C75.9512 27.6233 76.7991 26.7754 76.7991 25.7294C76.7991 24.6834 75.9512 23.8354 74.9052 23.8354C73.8592 23.8354 73.0112 24.6834 73.0112 25.7294C73.0112 26.7754 73.8592 27.6233 74.9052 27.6233Z" fill="#263238"/>
<path d="M103.538 39.0946H50.0523C48.3669 39.0946 47.0005 40.4609 47.0005 42.1464V67.8759C47.0005 69.5614 48.3669 70.9277 50.0523 70.9277H103.538C105.223 70.9277 106.589 69.5614 106.589 67.8759V42.1464C106.589 40.4609 105.223 39.0946 103.538 39.0946Z" stroke="#263238" stroke-linecap="round" stroke-linejoin="round"/>
<path d="M50.5072 66.9249H102.173" stroke="#263238" stroke-linecap="round" stroke-linejoin="round"/>
<path d="M60.3408 60.8459H54.3447V66.8421H60.3408V60.8459Z" fill="#92E3A9" stroke="#263238" stroke-miterlimit="10"/>
<path d="M69.1158 52.9644H63.1197V66.9249H69.1158V52.9644Z" fill="#92E3A9" stroke="#263238" stroke-miterlimit="10"/>
<path d="M78.9991 55.3627H73.003V67.0654H78.9991V55.3627Z" fill="#92E3A9" stroke="#263238" stroke-miterlimit="10"/>
<path d="M89.3868 43.7095H83.3907V66.6601H89.3868V43.7095Z" fill="#92E3A9" stroke="#263238" stroke-miterlimit="10"/>
<path d="M99.7662 43.8915H93.7701V66.8421H99.7662V43.8915Z" fill="#92E3A9" stroke="#263238" stroke-miterlimit="10"/>
<path d="M180.604 72.5735C189.863 72.5735 197.369 65.0679 197.369 55.8092C197.369 46.5506 189.863 39.0449 180.604 39.0449C171.346 39.0449 163.84 46.5506 163.84 55.8092C163.84 65.0679 171.346 72.5735 180.604 72.5735Z" fill="#92E3A9" stroke="#263238" stroke-miterlimit="10"/>
<path d="M45.6111 87.1875H50.5072" stroke="#263238" stroke-linecap="round" stroke-linejoin="round"/>
<path d="M45.6111 96.6489H50.5072" stroke="#263238" stroke-linecap="round" stroke-linejoin="round"/>
<path d="M45.6111 106.119H50.5072" stroke="#263238" stroke-linecap="round" stroke-linejoin="round"/>
<path d="M45.6111 115.58H50.5072" stroke="#263238" stroke-linecap="round" stroke-linejoin="round"/>
<path d="M61.3002 122.726V118.921" stroke="#263238" stroke-linecap="round" stroke-linejoin="round"/>
<path d="M69.0579 122.726V118.921" stroke="#263238" stroke-linecap="round" stroke-linejoin="round"/>
<path d="M76.8157 122.726V118.921" stroke="#263238" stroke-linecap="round" stroke-linejoin="round"/>
<path d="M84.5816 122.726V118.921" stroke="#263238" stroke-linecap="round" stroke-linejoin="round"/>
<path d="M92.3394 122.726V118.921" stroke="#263238" stroke-linecap="round" stroke-linejoin="round"/>
<path d="M100.097 122.726V118.921" stroke="#263238" stroke-linecap="round" stroke-linejoin="round"/>
<path d="M107.855 122.726V118.921" stroke="#263238" stroke-linecap="round" stroke-linejoin="round"/>
<path d="M115.621 122.726V118.921" stroke="#263238" stroke-linecap="round" stroke-linejoin="round"/>
<path d="M123.379 122.726V118.921" stroke="#263238" stroke-linecap="round" stroke-linejoin="round"/>
<path d="M131.136 122.726V118.921" stroke="#263238" stroke-linecap="round" stroke-linejoin="round"/>
<path d="M138.894 122.726V118.921" stroke="#263238" stroke-linecap="round" stroke-linejoin="round"/>
<path d="M146.66 122.726V118.921" stroke="#263238" stroke-linecap="round" stroke-linejoin="round"/>
<path d="M154.418 122.726V118.921" stroke="#263238" stroke-linecap="round" stroke-linejoin="round"/>
<path d="M162.175 122.726V118.921" stroke="#263238" stroke-linecap="round" stroke-linejoin="round"/>
<path d="M169.933 122.726V118.921" stroke="#263238" stroke-linecap="round" stroke-linejoin="round"/>
<path d="M177.401 122.726V118.921" stroke="#263238" stroke-linecap="round" stroke-linejoin="round"/>
<path d="M184.87 122.726V118.921" stroke="#263238" stroke-linecap="round" stroke-linejoin="round"/>
<path d="M192.33 122.726V118.921" stroke="#263238" stroke-linecap="round" stroke-linejoin="round"/>
<path d="M212.08 81.3982V118.169C212.08 120.691 209.516 122.726 206.356 122.726H51.3508C50.407 122.759 49.4682 122.574 48.6075 122.186C47.7468 121.797 46.9874 121.215 46.3885 120.485C45.8711 119.822 45.5811 119.01 45.5615 118.169V81.3982C45.5615 78.9171 48.1253 76.8412 51.2846 76.8412H206.356C209.516 76.8412 212.08 78.8757 212.08 81.3982Z" stroke="#92E3A9" stroke-linecap="round" stroke-linejoin="round"/>
<path d="M164.905 10.1809L115.422 76.8411L96.4994 102.331L75.8232 89.1641L50.5238 122.726H50.1599C49.3666 122.726 48.5869 122.52 47.8979 122.127C47.2089 121.734 46.6345 121.168 46.2314 120.484L74.6571 82.7627L95.3333 95.9045L109.484 76.8824L161.084 7.41028L164.905 10.1809Z" fill="#263238"/>
<path d="M152.35 11.0246L170.537 0L165.508 19.0718L162.299 10.2471L152.35 11.0246Z" fill="#263238"/>
<path d="M324.467 220.896H33.6023L1 249.885" stroke="#263238" stroke-linecap="round" stroke-linejoin="round"/>
<path d="M33.7842 200.601V144.237" stroke="#263238" stroke-linecap="round" stroke-linejoin="round"/>
<path d="M33.7842 217.621V206.721" stroke="#263238" stroke-linecap="round" stroke-linejoin="round"/>
<path d="M306.958 83.7717C306.958 83.7717 306.958 80.3643 302.186 75.6005C297.414 70.8367 294.354 68.1074 294.354 68.1074C294.354 68.1074 291.964 75.9396 296.397 80.7117C299.653 84.0732 303.186 87.1552 306.958 89.925V83.7717Z" fill="#92E3A9"/>
<path d="M300.036 105.052C300.036 105.052 300.036 101.644 295.264 96.8722C290.492 92.1001 287.432 89.3792 287.432 89.3792C287.432 89.3792 285.05 97.2113 289.475 101.983C292.735 105.343 296.267 108.428 300.036 111.205V105.052Z" fill="#92E3A9"/>
<path d="M306.652 89.5777C306.652 89.5777 307.016 86.1868 312.26 81.944C317.503 77.7013 320.845 75.3276 320.845 75.3276C320.845 75.3276 322.383 83.3914 317.478 87.6424C313.885 90.634 310.048 93.3203 306.007 95.6731L306.652 89.5777Z" fill="#92E3A9"/>
<path d="M298.291 114.703C298.291 114.703 299.01 111.395 304.667 107.707C310.325 104.018 313.889 102.016 313.889 102.016C313.889 102.016 314.576 110.179 309.274 113.918C305.388 116.515 301.291 118.781 297.026 120.691L298.291 114.703Z" fill="#92E3A9"/>
<path d="M299.871 142.087C299.871 142.087 299.871 138.68 304.634 133.916C309.398 129.152 312.467 126.423 312.467 126.423C312.467 126.423 314.857 134.263 310.424 139.027C307.173 142.393 303.642 145.478 299.871 148.249V142.087Z" fill="#92E3A9"/>
<path d="M299.788 148.778C299.788 148.778 300.268 145.403 296.223 140.011C292.179 134.619 289.541 131.476 289.541 131.476C289.541 131.476 286.084 138.919 289.781 144.246C292.529 148.029 295.589 151.575 298.928 154.848L299.788 148.778Z" fill="#92E3A9"/>
<path d="M295.082 168.586C295.082 168.586 295.082 165.186 299.854 160.414C304.626 155.642 307.686 152.971 307.686 152.971C307.686 152.971 310.076 160.803 305.643 165.567C302.388 168.931 298.855 172.016 295.082 174.789V168.586Z" fill="#92E3A9"/>
<path d="M298.266 186.557C298.266 186.557 297.439 183.249 300.822 177.46C304.204 171.671 306.504 168.238 306.504 168.238C306.504 168.238 310.788 175.219 307.719 180.95C305.418 185.023 302.778 188.896 299.829 192.529L298.266 186.557Z" fill="#92E3A9"/>
<path d="M307.388 82.9282C307.148 86.4728 306.711 90.0014 306.082 93.4979C304.196 103.241 299.465 109.526 297.596 118.309C295.727 127.093 301.128 138.448 299.68 149.737C298.233 161.026 293.825 167.32 295.065 174.863C296.306 182.406 302.922 202.817 302.922 202.817" stroke="#263238" stroke-width="1.17749" stroke-linecap="round" stroke-linejoin="round"/>
<path d="M306.611 91.8439L311.747 87.8906" stroke="#263238" stroke-width="1.17749" stroke-linecap="round" stroke-linejoin="round"/>
<path d="M306.843 87.3032L304.701 83.474" stroke="#263238" stroke-width="1.17749" stroke-linecap="round" stroke-linejoin="round"/>
<path d="M297.886 117.912C297.886 117.912 302.186 114.679 306.611 111.453" stroke="#263238" stroke-width="1.17749" stroke-linecap="round" stroke-linejoin="round"/>
<path d="M300.036 111.164C300.036 111.164 296.447 104.134 292.386 99.4691" stroke="#263238" stroke-width="1.17749" stroke-linecap="round" stroke-linejoin="round"/>
<path d="M300.036 146.934C302.5 142.408 305.606 138.263 309.258 134.627" stroke="#263238" stroke-width="1.17749" stroke-linecap="round" stroke-linejoin="round"/>
<path d="M299.201 151.714C297.882 148.637 296.31 145.674 294.503 142.856C292.022 139.151 291.625 138.671 291.625 138.671" stroke="#263238" stroke-width="1.17749" stroke-linecap="round" stroke-linejoin="round"/>
<path d="M295.082 174.855C296.174 172.147 297.471 169.525 298.961 167.014C300.449 164.676 302.125 162.463 303.973 160.398" stroke="#263238" stroke-width="1.17749" stroke-linecap="round" stroke-linejoin="round"/>
<path d="M299.821 192.487C299.571 189.903 300.017 187.299 301.111 184.945C302.906 181.479 304.932 176.931 305.776 175.144" stroke="#263238" stroke-width="1.17749" stroke-linecap="round" stroke-linejoin="round"/>
<path d="M275.729 129.276C275.729 129.276 275.357 127.151 277.83 123.636C280.303 120.121 281.965 118.078 281.965 118.078C281.965 118.078 284.306 122.726 282.048 126.2C280.37 128.658 278.489 130.971 276.424 133.114L275.729 129.276Z" fill="#92E3A9"/>
<path d="M282.379 141.897C282.379 141.897 282.006 139.755 284.479 136.248C286.952 132.741 288.614 130.699 288.614 130.699C288.614 130.699 290.955 135.355 288.697 138.82C287.022 141.28 285.14 143.593 283.073 145.734L282.379 141.897Z" fill="#92E3A9"/>
<path d="M276.548 132.882C276.548 132.882 275.969 130.798 272.206 128.747C268.443 126.696 266.102 125.521 266.102 125.521C266.102 125.521 266.011 130.707 269.559 132.882C272.136 134.368 274.834 135.636 277.623 136.67L276.548 132.882Z" fill="#92E3A9"/>
<path d="M284.521 147.727C284.521 147.727 283.694 145.718 279.757 144.039C275.82 142.36 273.347 141.475 273.347 141.475C273.347 141.475 273.802 146.661 277.549 148.43C280.269 149.637 283.085 150.613 285.968 151.35L284.521 147.727Z" fill="#92E3A9"/>
<path d="M286.505 165.054C286.505 165.054 286.133 162.92 282.627 160.447C279.12 157.975 276.895 156.593 276.895 156.593C276.895 156.593 276.25 161.779 279.55 164.277C281.955 166.024 284.503 167.565 287.167 168.883L286.505 165.054Z" fill="#92E3A9"/>
<path d="M287.275 169.264C287.275 169.264 286.605 167.204 288.557 163.383C290.508 159.563 291.865 157.305 291.865 157.305C291.865 157.305 294.842 161.572 293.105 165.335C291.781 168.006 290.237 170.562 288.49 172.977L287.275 169.264Z" fill="#92E3A9"/>
<path d="M293.262 186.491C293.262 186.491 293.511 184.341 296.868 181.67C300.226 178.998 302.368 177.534 302.368 177.534C302.368 177.534 303.311 182.662 300.16 185.358C297.859 187.24 295.405 188.928 292.824 190.403L293.262 186.491Z" fill="#92E3A9"/>
<path d="M292.378 181.182C292.378 181.182 292.005 179.04 288.499 176.567C284.992 174.094 282.775 172.721 282.775 172.721C282.775 172.721 282.13 177.907 285.422 180.404C287.831 182.15 290.381 183.691 293.047 185.011L292.378 181.182Z" fill="#92E3A9"/>
<path d="M292.328 192.793C292.328 192.793 292.518 190.626 289.748 187.351C286.977 184.076 285.182 182.166 285.182 182.166C285.182 182.166 283.247 187.004 285.803 190.271C287.69 192.575 289.765 194.718 292.005 196.68L292.328 192.793Z" fill="#92E3A9"/>
<path d="M275.357 128.78C275.895 130.979 276.555 133.146 277.334 135.272C279.567 141.169 283.206 144.601 285.339 149.911C287.473 155.221 285.339 162.92 287.448 169.843C289.557 176.765 293.031 180.214 293.056 185.102C293.081 189.99 291.195 203.495 291.195 203.495" stroke="#263238" stroke-width="1.17749" stroke-linecap="round" stroke-linejoin="round"/>
<path d="M276.821 134.296L273.173 132.386" stroke="#263238" stroke-width="1.17749" stroke-linecap="round" stroke-linejoin="round"/>
<path d="M276.176 131.476L277.11 128.846" stroke="#263238" stroke-width="1.17749" stroke-linecap="round" stroke-linejoin="round"/>
<path d="M285.124 149.688C285.124 149.688 282.073 148.133 278.955 146.586" stroke="#263238" stroke-width="1.17749" stroke-linecap="round" stroke-linejoin="round"/>
<path d="M283.04 145.734C283.937 142.903 285.121 140.171 286.572 137.58" stroke="#263238" stroke-width="1.17749" stroke-linecap="round" stroke-linejoin="round"/>
<path d="M286.927 168.131C284.892 165.561 282.497 163.299 279.815 161.415" stroke="#263238" stroke-width="1.17749" stroke-linecap="round" stroke-linejoin="round"/>
<path d="M287.969 171.042C288.452 168.975 289.108 166.953 289.929 164.996C291.079 162.391 291.278 162.052 291.278 162.052" stroke="#263238" stroke-width="1.17749" stroke-linecap="round" stroke-linejoin="round"/>
<path d="M292.899 188.79C294.082 187.321 295.394 185.959 296.819 184.721C297.726 184.049 298.578 183.305 299.366 182.497" stroke="#263238" stroke-width="1.17749" stroke-linecap="round" stroke-linejoin="round"/>
<path d="M293.056 185.102C292.067 183.524 290.961 182.023 289.748 180.611C288.56 179.314 287.268 178.116 285.885 177.03" stroke="#263238" stroke-width="1.17749" stroke-linecap="round" stroke-linejoin="round"/>
<path d="M292.022 196.68C291.89 195.025 291.319 193.435 290.368 192.074C288.863 190.089 287.06 187.459 286.381 186.425" stroke="#263238" stroke-width="1.17749" stroke-linecap="round" stroke-linejoin="round"/>
<path d="M307.885 226.785H286.166C285.735 226.785 285.32 226.617 285.011 226.315C284.702 226.014 284.523 225.604 284.512 225.172L281.394 201.138H312.591L309.473 225.172C309.462 225.593 309.293 225.993 308.998 226.293C308.703 226.592 308.305 226.768 307.885 226.785Z" fill="#263238"/>
<path d="M312.343 205.199H281.427C280.784 205.201 280.166 204.948 279.709 204.496C279.251 204.043 278.992 203.428 278.988 202.784V202.784C278.998 202.142 279.258 201.529 279.711 201.074C280.165 200.619 280.777 200.357 281.419 200.344H312.343C312.663 200.343 312.98 200.405 313.276 200.527C313.572 200.649 313.841 200.828 314.067 201.054C314.294 201.28 314.474 201.548 314.596 201.843C314.719 202.139 314.782 202.456 314.782 202.776V202.776C314.781 203.095 314.717 203.411 314.594 203.706C314.471 204 314.291 204.268 314.064 204.493C313.838 204.718 313.569 204.896 313.274 205.017C312.978 205.138 312.662 205.2 312.343 205.199V205.199Z" fill="#263238"/>
<path d="M242.647 109.071C242.646 115.859 240.345 122.446 236.12 127.758C231.895 133.07 225.995 136.795 219.382 138.324H219.291C218.506 138.498 217.72 138.655 216.909 138.771C215.488 138.973 214.053 139.075 212.617 139.077C204.767 139.048 197.24 135.948 191.649 130.439C186.057 124.929 182.844 117.449 182.7 109.601C182.555 101.752 185.489 94.159 190.873 88.4471C196.258 82.7352 203.665 79.3589 211.509 79.0411C211.782 79.0411 212.071 79.0411 212.336 79.0411C212.424 79.0329 212.512 79.0329 212.601 79.0411C212.702 79.0329 212.805 79.0329 212.907 79.0411C216.958 79.0672 220.961 79.9258 224.667 81.5636C230.013 83.9055 234.561 87.7544 237.754 92.6397C240.947 97.525 242.647 103.235 242.647 109.071Z" fill="#92E3A9"/>
<path opacity="0.4" d="M224.684 81.572C190.006 79.769 189.84 118.268 189.84 118.268C189.84 118.268 184.547 105.705 193.19 91.8026C198.02 84.0201 206.422 80.5878 212.923 79.066C216.974 79.087 220.977 79.9399 224.684 81.572V81.572Z" fill="white"/>
<path d="M242.647 109.071C242.647 115.875 240.336 122.478 236.093 127.797C231.849 133.116 225.925 136.836 219.291 138.349C217.102 138.853 214.863 139.105 212.617 139.101C204.653 139.248 196.956 136.225 191.22 130.698C185.485 125.17 182.18 117.59 182.033 109.625C181.886 101.661 184.909 93.9641 190.437 88.2285C195.964 82.4928 203.544 79.188 211.509 79.041C211.873 79.041 212.245 79.041 212.617 79.041C220.581 79.0432 228.218 82.2078 233.849 87.8391C239.48 93.4703 242.645 101.107 242.647 109.071V109.071Z" stroke="#263238" stroke-linecap="round" stroke-linejoin="round"/>
<path d="M242.647 109.071C242.647 115.875 240.336 122.478 236.093 127.797C231.849 133.116 225.925 136.836 219.291 138.349C218.927 138.349 218.555 138.349 218.183 138.349C210.812 138.329 203.705 135.6 198.215 130.681C192.726 125.761 189.237 118.995 188.412 111.67C187.588 104.344 189.486 96.972 193.745 90.9554C198.004 84.9389 204.326 80.6983 211.509 79.041C211.873 79.041 212.245 79.041 212.617 79.041C220.581 79.0432 228.218 82.2078 233.849 87.8391C239.48 93.4703 242.645 101.107 242.647 109.071V109.071Z" stroke="#263238" stroke-linecap="round" stroke-linejoin="round"/>
<path d="M197.267 134.892L203.611 134.602" stroke="#263238" stroke-linecap="round" stroke-linejoin="round"/>
<path d="M194.215 132.783L199.748 132.311" stroke="#263238" stroke-linecap="round" stroke-linejoin="round"/>
<path d="M191.734 130.558L197.267 130.087" stroke="#263238" stroke-linecap="round" stroke-linejoin="round"/>
<path d="M190.973 88.2461H195.712" stroke="#263238" stroke-linecap="round" stroke-linejoin="round"/>
<path d="M193.314 86.0627L198.036 85.8477" stroke="#263238" stroke-linecap="round" stroke-linejoin="round"/>
<path d="M196.275 83.8711L201.253 83.3997" stroke="#263238" stroke-linecap="round" stroke-linejoin="round"/>
<path opacity="0.3" d="M219.382 138.324H219.291C217.102 138.828 214.863 139.08 212.617 139.077C204.767 139.048 197.24 135.948 191.649 130.438C186.057 124.929 182.844 117.449 182.7 109.601C182.555 101.752 185.489 94.159 190.873 88.4471C196.258 82.7352 203.665 79.3588 211.509 79.041C211.782 79.041 212.071 79.041 212.336 79.041C205.016 81.3485 192.735 87.2453 189.451 99.5436C184.812 117.019 195.257 136.86 219.382 138.324Z" fill="black"/>
<path opacity="0.1" d="M242.647 109.071C242.646 115.859 240.345 122.446 236.12 127.758C231.895 133.071 225.995 136.795 219.382 138.324H219.291C218.506 138.498 217.72 138.655 216.909 138.771L224.684 81.5471C230.029 83.8926 234.575 87.7452 237.765 92.6335C240.956 97.5218 242.652 103.234 242.647 109.071Z" fill="black"/>
<path d="M259.684 61.7971C257.306 65.1559 253.86 67.6094 249.908 68.757C245.956 69.9046 241.732 69.6785 237.925 68.1158L237.817 68.0662C237.253 67.8179 236.701 67.5419 236.163 67.2391C235.556 66.9128 234.97 66.5482 234.41 66.1474C230.746 63.3495 228.281 59.2653 227.513 54.7199C226.744 50.1746 227.73 45.507 230.27 41.6602C232.81 37.8135 236.716 35.0744 241.198 33.9964C245.68 32.9184 250.404 33.5818 254.416 35.8526L254.821 36.109C255.012 36.2165 255.194 36.3488 255.384 36.4812C255.574 36.6135 255.938 36.8864 256.211 37.1014C259.826 40.0012 262.198 44.1713 262.844 48.7606C263.49 53.3499 262.359 58.0126 259.684 61.7971Z" fill="#92E3A9"/>
<path opacity="0.4" d="M232.276 62.0454C232.276 62.0454 229.307 53.3035 233.252 46.869C238.214 38.8053 245.815 35.1249 256.161 37.1098C256.161 37.1098 250.554 33.3219 241.167 36.0099C231.78 38.6978 226.743 51.6163 232.276 62.0454Z" fill="white"/>
<path d="M259.684 61.8054C257.304 65.1613 253.857 67.6114 249.905 68.756C245.953 69.9005 241.73 69.6719 237.925 68.1075C236.669 67.5944 235.476 66.9395 234.368 66.1557C230.682 63.3276 228.217 59.1964 227.479 54.6091C226.741 50.0217 227.786 45.3258 230.399 41.4843C233.013 37.6427 236.997 34.9465 241.535 33.9486C246.073 32.9507 250.821 33.7266 254.805 36.1172C254.987 36.2247 255.177 36.3488 255.359 36.4811C259.284 39.2706 261.944 43.5025 262.755 48.2494C263.566 52.9963 262.461 57.8711 259.684 61.8054Z" stroke="#263238" stroke-linecap="round" stroke-linejoin="round"/>
<path d="M259.684 61.8054C257.304 65.1613 253.857 67.6114 249.905 68.756C245.953 69.9006 241.73 69.672 237.925 68.1075L237.371 67.7436C233.778 65.1392 231.26 61.3113 230.292 56.9804C229.324 52.6495 229.973 48.1142 232.115 44.2278C234.257 40.3415 237.746 37.372 241.925 35.8783C246.104 34.3846 250.684 34.4696 254.805 36.1173C254.987 36.2248 255.177 36.3489 255.359 36.4812C259.284 39.2707 261.944 43.5026 262.755 48.2495C263.566 52.9964 262.461 57.8711 259.684 61.8054Z" stroke="#263238" stroke-linecap="round" stroke-linejoin="round"/>
<path opacity="0.3" d="M254.375 35.8609C249.412 34.9759 243.127 34.488 239.736 36.6879C233.508 40.6826 229.629 45.7193 229.687 53.8823C229.745 62.0452 237.371 67.7684 237.371 67.7684L237.817 68.091C236.601 67.583 235.444 66.9423 234.368 66.1805C230.705 63.3826 228.24 59.2983 227.471 54.753C226.703 50.2076 227.688 45.54 230.229 41.6933C232.769 37.8466 236.675 35.1075 241.157 34.0295C245.639 32.9514 250.363 33.6149 254.375 35.8857V35.8609Z" fill="black"/>
<path opacity="0.1" d="M259.684 61.7972C257.307 65.1559 253.86 67.6094 249.908 68.757C245.956 69.9046 241.732 69.6786 237.925 68.1158L237.817 68.0662C237.253 67.8179 236.701 67.5419 236.163 67.2391L256.161 37.1097C259.782 40.0022 262.163 44.1672 262.817 48.7549C263.472 53.3427 262.351 58.0073 259.684 61.7972Z" fill="black"/>
<path d="M250.322 294.702C242.624 303.963 233.447 311.885 223.162 318.149C219.957 320.067 216.643 321.795 213.237 323.327C189.741 333.888 162.961 334.574 137.918 328.504C85.2598 315.743 57.3221 269.262 53.774 217.663C52.8229 203.719 50.6891 188.658 56.3379 175.392C61.9866 162.126 73.4082 153.889 86.3267 148.166C95.7054 143.989 105.837 141.186 115.042 138.895C131.7 134.779 149.272 136.592 164.739 144.022C175.565 149.158 183.273 158.082 192.379 165.6C193.344 166.394 194.314 167.185 195.29 167.974C204.489 175.377 214.158 182.176 224.237 188.327C239.546 197.665 255.218 206.473 265.002 222.154C280.609 247.147 267.442 274.357 250.322 294.702Z" fill="#92E3A9"/>
<path opacity="0.4" d="M250.322 294.702C242.624 303.963 233.447 311.885 223.162 318.149C219.957 320.067 216.643 321.795 213.237 323.327C189.741 333.888 162.961 334.574 137.918 328.504C85.2598 315.743 57.3221 269.262 53.774 217.663C52.8229 203.719 50.6891 188.658 56.3379 175.392C61.9866 162.126 73.4082 153.889 86.3267 148.166C95.7054 143.989 105.837 141.186 115.042 138.895C131.7 134.779 149.272 136.592 164.739 144.022C175.565 149.158 183.273 158.082 192.379 165.6C193.344 166.394 194.314 167.185 195.29 167.974C204.489 175.377 214.158 182.176 224.237 188.327C239.546 197.665 255.218 206.473 265.002 222.154C280.609 247.147 267.442 274.357 250.322 294.702Z" fill="white"/>
<path d="M195.257 167.974C194.281 167.191 193.311 166.397 192.346 165.592C183.249 158.057 175.524 149.158 164.706 144.022C149.238 136.596 131.668 134.784 115.009 138.895C93.1167 144.328 65.9647 152.698 56.2882 175.401C50.6395 188.633 52.7733 203.719 53.7327 217.663C57.3221 269.262 85.2598 315.743 137.918 328.504C166.567 335.451 197.466 333.549 223.162 318.149C233.447 311.885 242.624 303.962 250.322 294.702C267.442 274.357 280.609 247.147 265.019 222.154C255.243 206.44 239.571 197.665 224.254 188.327C214.157 182.178 204.472 175.379 195.257 167.974V167.974Z" stroke="#263238" stroke-miterlimit="10"/>
<path d="M115.488 259.983C111.104 261.31 106.85 263.031 102.777 265.127" stroke="#263238" stroke-linecap="round" stroke-linejoin="round"/>
<path d="M142.326 254.872C135.922 255.426 129.565 256.435 123.304 257.89" stroke="#263238" stroke-linecap="round" stroke-linejoin="round"/>
<path d="M136.744 253.549C136.744 253.549 112.031 239.174 82.2079 250.695" stroke="#263238" stroke-linecap="round" stroke-linejoin="round"/>
<path opacity="0.1" d="M250.322 294.702C242.624 303.963 233.447 311.885 223.162 318.149C219.957 320.067 216.643 321.795 213.237 323.327C210.548 322.503 207.906 321.534 205.323 320.424C189.89 313.807 176.938 302.617 164.284 291.584C156.651 284.968 148.893 278.186 139.754 273.828C127.396 267.984 113.336 266.826 100.188 270.569C106.988 262.894 116.233 257.807 126.356 256.17C119.822 250.224 110.733 247.726 101.9 247.569C93.0671 247.412 88.2041 248.495 79.5697 250.43C82.4561 245.121 90.1146 240.316 96.1603 240.456C90.413 240.38 84.6749 239.974 78.9742 239.241C71.1751 237.983 67.685 228.803 66.5188 220.996C63.2934 199.493 66.5602 176.592 78.296 158.314C80.6195 154.668 83.3074 151.268 86.3184 148.166C95.6971 143.989 105.828 141.186 115.034 138.895C131.692 134.779 149.264 136.592 164.731 144.022C175.557 149.158 183.265 158.082 192.371 165.6C193.336 166.394 194.306 167.185 195.282 167.974C204.48 175.377 214.15 182.176 224.229 188.327C239.538 197.665 255.21 206.473 264.994 222.154C280.609 247.147 267.442 274.357 250.322 294.702Z" fill="black"/>
<path d="M258.94 294.074C263.577 297.929 268.429 301.519 273.471 304.826C283.305 305.487 278.897 317.372 278.897 317.372L270.477 322.789C270.477 322.789 256.062 311.334 248.188 307.621C240.315 303.908 258.94 294.074 258.94 294.074Z" fill="white"/>
<path opacity="0.3" d="M189.063 168.941C189.063 168.941 187.715 155.601 185.564 151.854L152.912 145.205V142.674C152.912 142.674 153.665 138.274 146.387 135.52C139.109 132.766 123.941 136.347 120.029 139.308C116.117 142.269 117.548 147.364 117.548 147.364C117.548 147.364 104.398 154.005 98.4926 156.536C93.6587 158.766 88.9462 161.251 84.3749 163.979C84.3749 163.979 81.6952 194.646 82.2245 201.767C82.7538 208.888 81.7945 215.587 82.4065 219.532C83.0185 223.477 83.4982 225.718 87.6334 229.076C91.7687 232.434 95.5318 237.347 106.374 232.475L104.861 231.276L176.235 207.234L189.063 168.941Z" fill="black"/>
<path d="M189.063 168.941C189.063 168.941 187.715 155.601 185.564 151.854L152.912 145.205V142.674C152.912 142.674 153.665 138.274 146.387 135.52C139.109 132.766 123.941 136.347 120.029 139.308C116.117 142.269 117.548 147.364 117.548 147.364C117.548 147.364 104.398 154.005 98.4926 156.536C93.6587 158.766 88.9462 161.251 84.3749 163.979C84.3749 163.979 81.6952 194.646 82.2245 201.767C82.7538 208.888 81.7945 215.587 82.4065 219.532C83.0185 223.477 83.4982 225.718 87.6334 229.076C91.7687 232.434 95.5318 237.347 106.374 232.475L104.861 231.276L176.235 207.234L189.063 168.941Z" fill="url(#paint0_linear_548:20269)" stroke="#263238" stroke-width="0.5" stroke-linecap="round" stroke-linejoin="round"/>
<path opacity="0.4" d="M142.616 133.386C142.616 133.386 150.373 135.537 151.63 138.142C152.888 140.747 152.755 147.339 152.755 147.339C150.873 151.744 148.02 155.668 144.41 158.818L138.621 147.339L139.142 160.357C139.142 160.357 128.159 158.529 123.494 155.022L118.838 151.507C118.838 151.507 116.828 144.891 117.118 142.649C117.407 140.408 125.785 135.859 125.785 135.859L142.616 133.386Z" fill="white"/>
<path d="M271.834 334.12C271.619 333.648 275.018 327.644 272.355 321.532C269.692 315.42 265.449 317.777 265.449 317.777C265.449 317.777 253.366 310.086 248.288 307.654C244.629 305.816 241.105 303.721 237.743 301.385L232.375 308.613L237.338 323.963L271.834 334.12Z" fill="#92E3A9"/>
<path d="M265.011 317.405L280.526 326.883C280.526 326.883 291.435 319.886 296.637 315.056C301.839 310.226 313.525 299.938 313.525 299.938L320.969 289.922C320.969 289.922 315.808 283.537 307.207 288.665C296.091 295.281 282.536 304.892 273.496 304.801C273.496 304.801 275.274 315.908 265.069 317.405" fill="#92E3A9"/>
<path d="M139.986 93.2913C139.986 93.2913 147.151 100.131 148.306 107.392C149.588 110.841 150.621 115.944 150.365 118.4C150.109 120.857 147.528 134.015 146.23 134.396L144.981 135.81L145.808 141.384C145.808 141.384 140.3 150.904 124.106 143.923C124.106 143.923 123.478 132.808 121.509 129.318C119.541 125.827 116.597 129.979 113.644 119.897C110.692 109.816 120.095 99.2212 120.095 99.2212L139.986 93.2913Z" fill="#FFBE9D"/>
<path opacity="0.5" d="M314.212 286.812C314.212 286.812 306.231 288.202 303.642 292.924C301.053 297.647 296.083 306.422 294.387 310.664C292.692 314.907 278.673 325.154 278.673 325.154L280.534 326.883C280.534 326.883 291.948 319.828 298.837 313.121C305.726 306.413 320.919 289.542 320.919 289.542C320.919 289.542 319.827 288.458 314.212 286.812Z" fill="white"/>
<path opacity="0.5" d="M234.352 305.958L232.375 308.613L238.446 321.201L271.834 333.201L273.38 328.314C273.38 328.314 273.893 323.351 262.174 319.58C250.455 315.809 243.309 313.319 239.976 310.731C236.643 308.142 234.352 305.958 234.352 305.958Z" fill="white"/>
<path d="M124.131 212.469C124.131 212.469 113.909 210.931 109.137 219.292C104.365 227.654 104.853 231.276 104.853 231.276C104.853 231.276 111.61 237.413 120.897 237.065C130.185 236.718 143.707 226.082 148.116 222.617C152.524 219.151 163.639 209.235 171.223 211.286L172.05 204.116C172.05 204.116 171.306 200.899 164.822 201.767C158.338 202.635 155.791 206.332 153.698 206.332C151.606 206.332 149.629 204.322 145.428 211.501C145.419 211.501 130.673 214.115 124.131 212.469Z" fill="#FFBE9D"/>
<path d="M137.414 108.608C137.631 109.948 137.941 111.272 138.34 112.57C138.489 113.203 138.771 113.798 139.167 114.315C139.944 115.142 141.201 115.357 142.351 115.531C142.541 115.544 142.721 115.62 142.864 115.746C142.957 115.894 143 116.067 142.988 116.242C142.981 117.544 142.59 118.816 141.863 119.897" stroke="#263238" stroke-linecap="round" stroke-linejoin="round"/>
<path opacity="0.1" d="M241.208 297.382L234.352 305.925C234.352 305.925 241.878 312.881 249.669 315.461C257.46 318.042 271.098 322.905 273.38 326.651L272.504 322.194C272.504 322.194 251.174 309.11 246.278 305.983C244.83 305.034 243.62 303.765 242.741 302.273C241.862 300.782 241.338 299.108 241.208 297.382V297.382Z" fill="black"/>
<path opacity="0.1" d="M265.011 317.405L278.665 325.154C278.665 325.154 285.406 320.539 288.714 317.14C292.022 313.741 296.099 309.97 298.638 302.353C302.104 291.824 312.028 286.812 312.028 286.812C312.028 286.812 298.225 293.313 291.038 298.391C283.851 303.469 276.846 305.619 272.777 305.272C272.735 305.297 276.002 315.635 265.011 317.405Z" fill="black"/>
<path d="M132.6 121.775C132.6 121.775 137.968 125.984 143.542 124.405C143.542 124.405 138.282 134.825 132.6 121.775Z" fill="#EB996E"/>
<path d="M132.402 112.677C132.559 113.835 132.203 114.836 131.624 114.918C131.045 115.001 130.441 114.091 130.284 112.958C130.127 111.825 130.475 110.8 131.062 110.717C131.649 110.634 132.278 111.519 132.402 112.677Z" fill="#263238"/>
<path d="M144.088 110.568C144.237 111.734 143.889 112.735 143.31 112.81C142.731 112.884 142.119 111.983 141.971 110.858C141.822 109.733 142.161 108.691 142.748 108.617C143.335 108.542 143.931 109.41 144.088 110.568Z" fill="#263238"/>
<path d="M131.575 107.764C131.575 107.764 128.448 106.152 126.224 109.609" stroke="#263238" stroke-linecap="round" stroke-linejoin="round"/>
<path d="M139.589 105.614C139.589 105.614 142.897 102.777 144.807 105.614" stroke="#263238" stroke-linecap="round" stroke-linejoin="round"/>
<path d="M120.045 116.945C120.519 116.595 120.894 116.128 121.134 115.591C121.375 115.053 121.473 114.463 121.418 113.876C121.286 112.537 120.36 111.296 120.542 109.956C120.694 109.315 120.933 108.697 121.253 108.12C121.735 107.008 121.947 105.797 121.872 104.587C121.797 103.377 121.438 102.201 120.823 101.156C120.823 101.156 132.12 101.686 137.414 98.3196C142.707 94.9535 146.743 86.344 143.542 82.2335C140.341 78.1231 134.105 83.7305 129.482 84.3508C124.859 84.9711 108.417 87.5928 105.795 93.928C103.174 100.263 107.168 102.538 107.292 108.583C107.416 114.629 107.416 126.084 116.456 125.033C116.456 125.033 113.073 120.658 115.422 116.151C117.018 114.257 120.045 116.945 120.045 116.945Z" fill="#263238"/>
<path d="M142.202 89.3792C143.736 90.574 145.008 92.0717 145.939 93.779C146.869 95.4864 147.438 97.367 147.611 99.3037C148.116 103.836 156.154 112.644 150.357 117.664C150.357 117.664 149.009 112.33 148.215 109.7C147.421 107.07 146.404 102.256 145.072 100.602C143.74 98.9481 136.677 93.1588 136.677 93.1588L142.202 89.3792Z" fill="#263238"/>
<path d="M121.997 142.65C121.997 142.65 127.572 146.322 137.926 146.47L139.142 160.357C139.142 160.357 127.497 159.472 118.838 151.507C118.838 151.507 116.497 145.313 117.118 142.65C117.738 139.986 123.304 137.348 123.304 137.348" stroke="#263238" stroke-linecap="round" stroke-linejoin="round"/>
<path d="M145.419 136.438L145.75 141.401C143.567 143.674 140.89 145.415 137.926 146.487L144.41 158.835C144.41 158.835 152.143 152.814 152.912 146.487C152.912 146.487 152.979 140.011 151.63 138.159C150.282 136.306 145.37 135.438 145.37 135.438" stroke="#263238" stroke-linecap="round" stroke-linejoin="round"/>
<path opacity="0.8" d="M114.041 98.0633C114.868 95.9874 117.134 94.7551 119.342 94.4243C121.551 94.0934 123.817 94.325 126.05 94.2671C129.142 94.2422 132.17 93.3852 134.817 91.786C136.131 90.9852 137.276 89.9332 138.184 88.6901C139.092 87.447 139.747 86.0371 140.11 84.541" stroke="white" stroke-linecap="round" stroke-linejoin="round"/>
<path opacity="0.8" d="M108.707 97.658C110.104 93.4152 114.637 90.7935 119.094 90.4213C121.303 90.2311 123.536 90.4875 125.711 90.2311C127.886 89.9747 130.202 89.065 131.351 87.171" stroke="white" stroke-linecap="round" stroke-linejoin="round"/>
<path d="M106.358 232.475C95.6062 238.049 91.7852 232.31 85.7974 227.562C79.8095 222.815 83.738 214.33 82.4892 200.725C81.2403 187.12 84.35 163.979 84.35 163.979C84.35 163.979 87.0297 163.367 94.4649 158.818C101.9 154.269 117.548 147.339 117.548 147.339" stroke="#263238" stroke-linecap="round" stroke-linejoin="round"/>
<path d="M117.01 211.882C117.01 211.882 115.306 206.481 110.493 206.34C105.68 206.2 98.0873 208.367 92.6784 218.597" stroke="#263238" stroke-linecap="round" stroke-linejoin="round"/>
<path d="M109.393 206.018C109.094 205.998 108.8 205.928 108.525 205.811C104.557 204.383 100.25 204.187 96.1685 205.249" stroke="#263238" stroke-linecap="round" stroke-linejoin="round"/>
<path d="M93.3979 171.365C102.156 181.041 106.424 193.844 110.468 206.25" stroke="#263238" stroke-linecap="round" stroke-linejoin="round"/>
<path d="M152.912 145.205C152.912 145.205 168.792 148.993 176.549 149.894C184.307 150.796 185.564 151.879 185.564 151.879L187.012 157.288" stroke="#263238" stroke-linecap="round" stroke-linejoin="round"/>
<path d="M226.908 154.617L172.828 156.693L168.411 212.312H177.674L224.634 201.8L230.539 155.948L226.908 154.617Z" fill="white"/>
<path d="M171.223 213.958L230.374 157.263L224.634 201.8L171.223 213.958Z" fill="#92E3A9"/>
<path opacity="0.7" d="M171.223 213.958L230.374 157.263L224.634 201.8L171.223 213.958Z" fill="white"/>
<path d="M171.223 212.469L175.954 158.818L230.539 155.948L224.634 201.8L171.223 212.469Z" stroke="#263238" stroke-linecap="round" stroke-linejoin="round"/>
<path d="M207.531 181.943C207.167 185.209 205.422 187.691 203.635 187.492C201.849 187.294 200.708 184.473 201.071 181.206C201.435 177.94 203.189 175.459 204.975 175.657C206.762 175.855 207.903 178.676 207.531 181.943Z" fill="#263238"/>
<path d="M224.634 201.8C224.634 201.8 249.628 201.089 257.443 206.25C265.259 211.41 269.849 237.289 268.765 251.034C267.682 264.78 258.254 296.324 258.254 296.324L240.191 275.879C240.191 275.879 231.292 243.525 236.147 230.854C236.147 230.854 212.162 232.202 202.717 229.242C202.717 229.242 194.257 215.388 179.75 210.807L224.634 201.8Z" fill="#263238"/>
<path d="M262.066 296.861C255.651 290.872 249.89 284.218 244.88 277.012C236.138 263.506 224.055 250.546 211.625 240.432C201.609 232.31 199.343 219.077 186.987 212.436C166.517 201.461 148.819 223.27 142.202 227.687C135.586 232.103 124.131 237.107 124.131 237.107C124.131 237.107 128.316 252.821 140.606 254.682C152.896 256.542 165.326 248.065 171.207 252.159C177.087 256.253 181.437 274.531 200.856 285.241C216.728 293.991 238.355 302.526 249.512 308.283C251.993 309.573 253.845 310.929 255.251 311.698C259.106 313.799 263.224 316.272 267.111 318.72L280.501 326.875C280.501 326.875 293.941 318.927 299.102 311.599C299.788 310.615 301.219 307.993 302.559 305.462C305.478 299.929 309.175 294.967 314.295 292.23C317.834 290.319 320.985 289.748 320.911 289.55C320.572 288.921 314.154 285.638 309.795 287.433C300.565 291.245 282.114 305.892 273.405 304.801C269.355 302.564 265.554 299.903 262.066 296.861V296.861Z" stroke="#263238" stroke-miterlimit="10"/>
<path d="M262.066 296.861C254.019 300.111 250.777 305.131 249.537 308.291C238.38 302.501 216.752 293.999 200.881 285.249C181.462 274.498 177.145 256.253 171.232 252.167C165.318 248.082 152.879 256.584 140.631 254.69C128.382 252.796 124.131 237.098 124.131 237.098C124.131 237.098 135.594 232.136 142.21 227.72C148.827 223.303 164.086 201.486 186.987 212.469C199.632 218.531 201.609 232.318 211.625 240.464C224.03 250.546 236.138 263.539 244.88 277.045C249.878 284.251 255.64 290.895 262.066 296.861V296.861Z" fill="#263238"/>
<path d="M201.592 226.744C201.592 226.744 195.398 214.156 185.465 211.716" stroke="white" stroke-linecap="round" stroke-linejoin="round"/>
<path d="M169.123 201.684C162.291 200.196 154.79 207.747 151.63 206.332C149.282 205.282 145.419 211.501 145.419 211.501C139.062 212.419 132.633 212.743 126.215 212.469C117.01 211.882 112.652 213.677 109.393 218.597L104.844 230.648C104.844 230.648 116.845 241.399 129.656 235.138C142.467 228.878 159.487 209.988 171.215 210.054" stroke="#263238" stroke-linecap="round" stroke-linejoin="round"/>
<path d="M264.49 317.082C264.49 317.082 275.704 318 273.074 304.602" stroke="#263238" stroke-miterlimit="10"/>
<path d="M317.338 296.323C316.511 297.977 306.231 306.728 297.373 314.378C297.373 314.262 299.854 309.589 300.88 307.596C303.237 303.196 309.324 291.129 320.911 289.542C322.557 290.534 317.338 296.323 317.338 296.323Z" fill="#263238"/>
<path d="M312.93 286.903C301.211 289.236 298.547 304.271 294.387 310.664C290.227 317.058 278.673 325.75 278.673 325.75" stroke="#263238" stroke-miterlimit="10"/>
<path d="M272.355 321.912C274.265 325.403 273.364 329.455 272.355 331.994C271.861 333.255 271.246 334.466 270.519 335.608C253.928 332.879 237.338 323.964 237.338 323.964L233.062 310.731L232.375 308.613L238.818 299.938" stroke="#263238" stroke-miterlimit="10"/>
<path d="M272.355 331.994C271.861 333.255 271.246 334.465 270.519 335.608C253.928 332.879 237.338 323.963 237.338 323.963L233.062 310.731C235.204 313.526 239.174 317.62 245.128 319.299C253.209 321.59 268.12 324.269 272.355 331.994Z" fill="#263238"/>
<path d="M168.411 210.377L172.828 156.693L226.908 154.617L230.539 155.948" stroke="#263238" stroke-linecap="round" stroke-linejoin="round"/>
<path d="M273 310.664C273 310.664 280.394 311.988 286.076 307.356C291.757 302.725 300.913 292.246 300.913 292.246" stroke="#263238" stroke-miterlimit="10"/>
<path d="M280.526 303.999C280.526 303.999 278.74 306.686 280.526 312.079" stroke="#263238" stroke-linecap="round" stroke-linejoin="round"/>
<path d="M285.77 301.426C284.957 304.107 285.196 306.996 286.439 309.507" stroke="#263238" stroke-linecap="round" stroke-linejoin="round"/>
<path d="M292.022 297.804C292.022 297.804 290.525 302.295 292.022 306.256" stroke="#263238" stroke-linecap="round" stroke-linejoin="round"/>
<path d="M240.282 298.821L234.352 305.959C234.352 305.959 240.323 312.484 248.751 315.197C257.178 317.909 272.231 322.516 273.48 327.421" stroke="#263238" stroke-miterlimit="10"/>
<path d="M145.129 138.06V134.52C144.623 135.363 141.791 137.049 138.554 137.049C135.318 137.049 131.474 134.014 129.451 132.497C130.126 135.194 132.486 140.69 136.531 141.094C140.577 141.499 143.78 139.409 145.129 138.06Z" fill="#EB996E"/>
<path d="M218.551 95.7826L225.478 94.7768L227.634 90.7994L203.62 94.2867L201.464 98.264L210.984 96.8816C211.972 97.0217 212.917 97.3632 213.758 97.884C214.599 98.4048 215.318 99.0932 215.867 99.9047L204.671 101.531L202.516 105.512L217.033 103.403C217.109 105.125 216.526 106.817 215.398 108.151C214.27 109.485 212.678 110.365 210.931 110.621L204.729 111.522L205.392 116.091L220.912 129.367L226.747 128.519L211.894 115.146L211.595 115.19C214.583 114.753 217.295 113.219 219.178 110.902C221.061 108.584 221.973 105.659 221.727 102.722L226.531 102.024L228.686 98.0433L220.834 99.1835C220.287 97.9247 219.514 96.773 218.551 95.7826Z" fill="#263238"/>
<path d="M217.497 94.9959L224.424 93.99L226.58 90.0127L202.566 93.5L200.41 97.4773L209.93 96.0948C210.918 96.2349 211.863 96.5764 212.704 97.0972C213.545 97.618 214.264 98.3065 214.813 99.118L203.617 100.744L201.462 104.725L215.979 102.617C216.055 104.339 215.472 106.031 214.344 107.364C213.216 108.698 211.624 109.578 209.877 109.834L203.675 110.735L204.338 115.304L219.858 128.58L225.693 127.733L210.84 114.36L210.541 114.403C213.529 113.966 216.241 112.432 218.124 110.115C220.007 107.798 220.919 104.872 220.673 101.935L225.477 101.238L227.632 97.2565L219.78 98.3967C219.233 97.138 218.46 95.9862 217.497 94.9959Z" fill="#669F76" stroke="black" stroke-width="0.8"/>
<path d="M182.362 49.0202H186.194L187.675 47.0349H174.39L172.909 49.0202H178.176C178.7 49.1738 179.185 49.4332 179.6 49.7816C180.015 50.1299 180.35 50.5594 180.584 51.0423H174.39L172.909 53.0297H180.94C180.846 53.9684 180.397 54.8394 179.681 55.4733C178.965 56.1072 178.033 56.4588 177.066 56.4599H173.635V58.9875L180.999 67.4015H184.227L177.232 58.9875H177.066C178.72 58.9857 180.31 58.3681 181.512 57.2608C182.715 56.1536 183.439 54.6402 183.537 53.0297H186.194L187.675 51.0423H183.331C183.134 50.3173 182.806 49.6325 182.362 49.0202Z" fill="#263238"/>
<path d="M181.853 48.511L185.685 48.511L187.166 46.5258L173.881 46.5258L172.4 48.511L177.667 48.511C178.191 48.6647 178.676 48.924 179.091 49.2724C179.506 49.6208 179.841 50.0503 180.075 50.5332L173.881 50.5332L172.4 52.5205L180.431 52.5205C180.336 53.4593 179.887 54.3302 179.172 54.9641C178.456 55.5981 177.524 55.9497 176.557 55.9507L173.126 55.9507L173.126 58.4784L180.49 66.8923L183.718 66.8923L176.723 58.4784L176.557 58.4784C178.21 58.4765 179.801 57.8589 181.003 56.7517C182.206 55.6444 182.93 54.131 183.028 52.5205L185.685 52.5205L187.166 50.5332L182.822 50.5332C182.625 49.8082 182.297 49.1234 181.853 48.511Z" fill="#669F76" stroke="black" stroke-width="0.6"/>
<path d="M249.615 46.2649L253.346 46.7697L255.049 45.032L242.116 43.2822L240.413 45.0198L245.54 45.7135C246.03 45.9321 246.468 46.2485 246.826 46.6423C247.184 47.0361 247.453 47.4984 247.617 47.9992L241.588 47.1834L239.884 48.9231L247.703 49.9809C247.487 50.8823 246.935 51.6711 246.155 52.1939C245.374 52.7167 244.421 52.9363 243.48 52.81L240.139 52.358L239.806 54.8187L245.867 63.9796L249.009 64.4048L243.308 55.2925L243.147 55.2707C244.756 55.4866 246.386 55.0948 247.702 54.1753C249.019 53.2558 249.923 51.8779 250.23 50.3229L252.817 50.6729L254.521 48.9332L250.292 48.3611C250.196 47.6294 249.967 46.9195 249.615 46.2649Z" fill="#263238"/>
<path d="M249.186 45.7021L252.917 46.2068L254.62 44.4692L241.687 42.7193L239.984 44.457L245.111 45.1507C245.601 45.3692 246.039 45.6857 246.397 46.0794C246.755 46.4732 247.025 46.9355 247.189 47.4364L241.159 46.6206L239.456 48.3602L247.274 49.418C247.058 50.3194 246.506 51.1082 245.726 51.631C244.946 52.1538 243.992 52.3734 243.051 52.2471L239.71 51.7951L239.378 54.2558L245.438 63.4168L248.581 63.8419L242.879 54.7296L242.718 54.7078C244.328 54.9237 245.957 54.532 247.274 53.6124C248.59 52.6929 249.494 51.315 249.802 49.76L252.389 50.11L254.092 48.3704L249.863 47.7983C249.767 47.0665 249.538 46.3566 249.186 45.7021Z" fill="#669F76" stroke="black" stroke-width="0.5"/>
</svg>
