<svg width="28" height="28" viewBox="0 0 28 28" fill="none" xmlns="http://www.w3.org/2000/svg">
<path fill-rule="evenodd" clip-rule="evenodd" d="M14 6.5C9.85786 6.5 6.5 9.85786 6.5 14C6.5 18.1421 9.85786 21.5 14 21.5C18.1421 21.5 21.5 18.1421 21.5 14C21.5 9.85786 18.1421 6.5 14 6.5ZM5.5 14C5.5 9.30558 9.30558 5.5 14 5.5C18.6944 5.5 22.5 9.30558 22.5 14C22.5 18.6944 18.6944 22.5 14 22.5C9.30558 22.5 5.5 18.6944 5.5 14ZM13 14.001C13 13.7248 13.2239 13.501 13.5 13.501H14H14.5V14.001V17.501C14.7762 17.501 15 17.7248 15 18.001C15 18.2771 14.7762 18.501 14.5 18.501H14H13.5V18.001V14.501C13.2239 14.501 13 14.2771 13 14.001ZM15 11.001C15 11.5533 14.5523 12.001 14 12.001C13.4477 12.001 13 11.5533 13 11.001C13 10.4487 13.4477 10.001 14 10.001C14.5523 10.001 15 10.4487 15 11.001Z" fill="#3F3F3F"/>
</svg>
