<svg width="20" height="20" viewBox="0 0 20 20" fill="none" xmlns="http://www.w3.org/2000/svg">
<g clip-path="url(#clip0_1202_8712)">
<path d="M17.4784 14.2479L17.0852 12.4582C16.7396 10.8276 15.571 9.49405 13.9999 8.93745L11.8582 8.18646H8.13673L5.9999 8.93745C4.42855 9.49546 3.25857 10.8279 2.90845 12.4582L2.52112 14.2479H17.4784Z" fill="#575B6D"/>
<path d="M8.13892 7.48621H11.8584V9.02035H8.13892V7.48621Z" fill="#F4BB87"/>
<path d="M12.9291 4.29083C13.3009 4.29083 13.6023 4.59221 13.6023 4.96402C13.6023 5.33579 13.3009 5.6372 12.9291 5.6372H12.7255V4.29087L12.9291 4.29083Z" fill="#F4BB87"/>
<path d="M7.06845 4.29083C6.69668 4.29083 6.39526 4.59221 6.39526 4.96402C6.39526 5.33579 6.69664 5.6372 7.06845 5.6372H7.27211V4.29087L7.06845 4.29083Z" fill="#F4BB87"/>
<path d="M7.14136 2.10767V5.33084C7.14231 6.90686 8.42068 8.18374 9.9967 8.18279C10.0918 8.18275 10.1867 8.1779 10.2813 8.16838C11.7655 8.03181 12.8516 6.69621 12.8516 5.20619V2.10866L7.14136 2.10767Z" fill="#FED19A"/>
<path d="M8.33969 0.891056C8.78115 -0.0228274 9.7543 -0.0964943 10.6199 0.0715325C11.777 0.296175 12.7819 1.09054 13.0733 2.2325C13.2539 2.84224 13.1745 3.49944 12.8538 4.04859C12.725 4.07297 12.3416 3.70029 12.2819 3.46054C12.038 2.49861 11.6679 2.51761 11.6679 2.51761C11.171 2.79977 10.5832 2.8758 10.0309 2.72929C9.52668 2.61573 9.00613 2.59425 8.49431 2.66589C7.12455 2.87808 7.14235 4.26711 7.14235 4.26711C6.62896 2.48619 6.9009 0.853768 8.33969 0.891056V0.891056Z" fill="#414451"/>
<path d="M9.80924 14.2479H10.1907H10.5722L10.7951 13.4498V13.444L12.0156 9.01959H11.857H11.687H11.6282H10.8126H9.99701H9.18142H8.36583H8.3129H8.1368H7.98438L9.20484 13.4323V13.4381L9.35168 13.984L9.35752 13.9957L9.42775 14.2479H9.49827H9.80924Z" fill="#EEEFEE"/>
<path d="M10.8156 9.02008L10.4636 10.0415H9.53408L9.18213 9.02008H10.8156Z" fill="#DA364C"/>
<path d="M9.49825 14.2479L9.35749 13.9957L9.35166 13.984L9.1814 13.661L9.20482 13.4381V13.4322L9.30456 12.4171V12.4113L9.53334 10.0406H10.4665L10.6953 12.4171L10.7951 13.444V13.4498L10.8126 13.661L10.6014 14.2479H10.5721H10.1907H9.80922H9.49825Z" fill="#EF5261"/>
<path d="M11.8585 8.18396L9.99878 9.02008L11.4058 10.361L11.8585 8.18396Z" fill="#DBD8DD"/>
<path d="M8.13928 8.18396L9.9988 9.02008L8.59196 10.361L8.13928 8.18396Z" fill="#DBD8DD"/>
<path d="M10.5721 14.2479H10.1907L10.6953 12.4171L11.288 10.252L11.6282 9.01958L11.857 8.1864L13.0307 9.53008L11.9568 10.3164L13.0307 11.6132L10.7716 14.2479H10.6014H10.5721Z" fill="#414451"/>
<path d="M9.4983 14.2479H9.42777H9.22829L6.96924 11.6132L8.03708 10.3164L6.96924 9.53008L8.13682 8.1864L8.36585 9.01958L8.70608 10.2579L9.30461 12.4113V12.4171L9.80927 14.2479H9.4983Z" fill="#414451"/>
<path d="M17.676 12.1779L17.2182 18.6639C17.1837 19.1541 16.776 19.5341 16.2846 19.5342H3.71558C3.2242 19.5341 2.81651 19.1541 2.78191 18.6639L2.32389 12.1779C2.28751 11.6621 2.67609 11.2146 3.1918 11.1782C3.21369 11.1767 3.23558 11.1759 3.25752 11.1759H16.7423C17.2593 11.176 17.6784 11.5951 17.6783 12.1121C17.6784 12.1341 17.6776 12.156 17.676 12.1779V12.1779Z" fill="#A9ADBD"/>
<path d="M1.70728 19.3185H18.2926V20H1.70728V19.3185Z" fill="#575B6D"/>
<path d="M9.99988 17.0228C10.7684 17.0228 11.3914 16.3998 11.3914 15.6313C11.3914 14.8628 10.7684 14.2398 9.99988 14.2398C9.23138 14.2398 8.6084 14.8628 8.6084 15.6313C8.6084 16.3998 9.23138 17.0228 9.99988 17.0228Z" fill="#DBD8DD"/>
</g>
<defs>
<clipPath id="clip0_1202_8712">
<rect width="20" height="20" fill="white"/>
</clipPath>
</defs>
</svg>
