<svg width="30" height="18" viewBox="0 0 30 18" fill="none" xmlns="http://www.w3.org/2000/svg">
<path d="M1.36512 4.662V14H5.53712V12.656H2.79312V4.662H1.36512Z" fill="#00C802"/>
<path fill-rule="evenodd" clip-rule="evenodd" d="M10.6001 8.49949C10.324 8.49949 10.1001 8.72335 10.1001 8.99949C10.1001 9.27563 10.324 9.49949 10.6001 9.49949L17.1887 9.49949L15.1251 11.5449C14.9289 11.7393 14.9275 12.0559 15.1219 12.252C15.3163 12.4481 15.6329 12.4495 15.829 12.2551L18.7554 9.35466C18.8501 9.26076 18.9034 9.13291 18.9034 8.99954C18.9034 8.86616 18.8501 8.73831 18.7554 8.64442L15.829 5.74393C15.6329 5.54954 15.3163 5.55094 15.1219 5.74707C14.9275 5.9432 14.9289 6.25978 15.1251 6.45417L17.1886 8.49949L10.6001 8.49949Z" fill="#00C802"/>
<path d="M22.9953 4.662H21.5673V14H22.9953V9.702H26.9993V14H28.4273V4.662H26.9993V8.358H22.9953V4.662Z" fill="#00C802"/>
</svg>
