<svg width="30" height="10" viewBox="0 0 30 10" fill="none" xmlns="http://www.w3.org/2000/svg">
<circle cx="3" cy="5" r="3" fill="#00C802"/>
<path d="M11.032 0.995999V9H14.128V8.16H11.92V0.995999H11.032ZM15.1168 4.02V9H15.9808V4.02H15.1168ZM14.9368 2.136C14.9368 2.472 15.2128 2.748 15.5488 2.748C15.8848 2.748 16.1608 2.472 16.1608 2.136C16.1608 1.8 15.8848 1.524 15.5488 1.524C15.2128 1.524 14.9368 1.8 14.9368 2.136ZM16.8929 4.02L19.3409 9.324L21.7889 4.02H20.8289L19.3409 7.38L17.8529 4.02H16.8929ZM26.3948 7.332C26.2868 7.572 26.1068 7.824 25.8788 8.016C25.5908 8.256 25.2668 8.376 24.8588 8.376C23.9948 8.376 23.2868 7.716 23.2748 6.684H27.1508C27.1748 6.024 26.9948 5.256 26.6828 4.812C26.3828 4.38 25.7708 3.9 24.7988 3.9C23.2988 3.9 22.3868 5.052 22.3868 6.54C22.3868 8.388 23.6468 9.144 24.8468 9.144C25.4828 9.144 26.0468 8.94 26.5028 8.532C26.7548 8.304 26.9708 8.004 27.1148 7.728L26.3948 7.332ZM23.3348 5.964C23.4668 5.22 24.0668 4.668 24.7988 4.668C25.5308 4.668 26.1188 5.184 26.2628 5.964H23.3348Z" fill="#797979"/>
</svg>
