<svg width="247" height="200" viewBox="0 0 247 200" fill="none" xmlns="http://www.w3.org/2000/svg">
<path d="M123.191 200C191.227 200 246.381 196.78 246.381 192.808C246.381 188.835 191.227 185.615 123.191 185.615C55.1543 185.615 0 188.835 0 192.808C0 196.78 55.1543 200 123.191 200Z" fill="#F5F5F5"/>
<path d="M5.54578 101.215L4.9021 101.29L6.04597 111.071L6.68965 110.996L5.54578 101.215Z" fill="#00C802"/>
<path d="M7.11609 114.634L6.47241 114.709L7.04951 119.644L7.69319 119.569L7.11609 114.634Z" fill="#00C802"/>
<path d="M49.8632 81.2695L49.1007 79.1283C48.5763 77.6566 47.5679 76.4065 46.2406 75.5824C44.9133 74.7583 43.3457 74.4091 41.7941 74.5918L11.43 78.1435C9.61104 78.3568 7.95129 79.2839 6.81579 80.7209C5.68029 82.1578 5.16204 83.987 5.375 85.806L14.0159 159.699C14.0877 160.317 14.2806 160.915 14.5836 161.458C14.8866 162.001 15.2937 162.48 15.7817 162.866C16.2697 163.252 16.8291 163.538 17.4277 163.707C18.0263 163.877 18.6525 163.927 19.2704 163.854L127.918 151.147C128.537 151.077 129.136 150.885 129.681 150.583C130.226 150.28 130.706 149.873 131.093 149.385C131.48 148.897 131.767 148.337 131.937 147.738C132.108 147.138 132.158 146.511 132.086 145.892L124.588 82.0129C124.443 80.7659 123.809 79.6276 122.825 78.8483C121.841 78.0691 120.587 77.7127 119.34 77.8576L56.2486 85.2405C54.8921 85.3975 53.5225 85.0904 52.3629 84.3693C51.2033 83.6482 50.3222 82.5555 49.8632 81.2695Z" fill="#257D38"/>
<path d="M52.8951 49.1362L18.5679 55.9768L27.9924 103.271L62.3197 96.4305L52.8951 49.1362Z" fill="#00C802"/>
<path d="M53.0422 49.1069L53.0129 48.9598L52.8658 48.9891L18.5386 55.8297L18.3914 55.859L18.4208 56.0061L27.8453 103.3L27.8746 103.447L28.0218 103.418L62.349 96.5776L62.4961 96.5482L62.4668 96.4011L53.0422 49.1069Z" fill="#FAFAFA" stroke="#263238" stroke-width="0.3"/>
<g opacity="0.4">
<path d="M48.313 60.4995L27.1681 64.7184C26.6755 64.814 26.1651 64.7115 25.7476 64.4331C25.3301 64.1548 25.0392 63.7231 24.938 63.2316C24.8424 62.739 24.9449 62.2286 25.2232 61.8111C25.5015 61.3936 25.9333 61.1027 26.4248 61.0015L47.5824 56.8017C48.075 56.7061 48.5854 56.8086 49.0029 57.0869C49.4204 57.3653 49.7113 57.797 49.8125 58.2885C49.9022 58.78 49.7954 59.2871 49.5149 59.7007C49.2345 60.1142 48.8029 60.4011 48.313 60.4995Z" fill="#E0E0E0"/>
<path d="M49.8697 68.3335L28.7248 72.5714C28.2332 72.6651 27.7244 72.5618 27.3083 72.2836C26.8923 72.0054 26.6023 71.5748 26.501 71.0846C26.4073 70.593 26.5106 70.0842 26.7888 69.6681C27.067 69.2521 27.4976 68.9621 27.9878 68.8608L49.1327 64.6484C49.6243 64.5546 50.1331 64.658 50.5492 64.9362C50.9653 65.2143 51.2552 65.645 51.3565 66.1351C51.4429 66.6229 51.3361 67.1252 51.0585 67.5356C50.781 67.9459 50.3546 68.2321 49.8697 68.3335Z" fill="#E0E0E0"/>
<path opacity="0.4" d="M51.4266 76.1549L30.2817 80.3673C29.7901 80.4611 29.2813 80.3577 28.8652 80.0796C28.4491 79.8014 28.1592 79.3707 28.0579 78.8806C27.9642 78.3889 28.0675 77.8802 28.3457 77.4641C28.6239 77.048 29.0545 76.7581 29.5447 76.6568L50.6896 72.438C51.1812 72.3442 51.69 72.4476 52.1061 72.7258C52.5221 73.0039 52.8121 73.4346 52.9134 73.9247C53.009 74.4173 52.9065 74.9277 52.6282 75.3453C52.3498 75.7628 51.9181 76.0537 51.4266 76.1549Z" fill="#00C802"/>
<path opacity="0.4" d="M52.9895 84.008L31.8446 88.2204C31.3521 88.3161 30.8416 88.2136 30.4241 87.9352C30.0066 87.6569 29.7157 87.2252 29.6145 86.7337C29.5189 86.2411 29.6214 85.7307 29.8997 85.3132C30.1781 84.8957 30.6098 84.6048 31.1013 84.5036L52.2462 80.2911C52.7388 80.1955 53.2492 80.298 53.6667 80.5763C54.0842 80.8546 54.3751 81.2864 54.4763 81.7779C54.5719 82.2704 54.4694 82.7809 54.1911 83.1984C53.9128 83.6159 53.481 83.9068 52.9895 84.008Z" fill="#00C802"/>
<path opacity="0.4" d="M48.7641 92.9475L33.401 96.01C32.9094 96.1038 32.4006 96.0004 31.9845 95.7222C31.5685 95.444 31.2785 95.0134 31.1773 94.5232C31.0817 94.0306 31.1841 93.5202 31.4625 93.1027C31.7408 92.6852 32.1725 92.3943 32.664 92.2931L48.0271 89.2307C48.5187 89.1369 49.0275 89.2403 49.4436 89.5184C49.8597 89.7966 50.1496 90.2273 50.2509 90.7174C50.3465 91.21 50.244 91.7204 49.9657 92.1379C49.6873 92.5554 49.2556 92.8463 48.7641 92.9475Z" fill="#00C802"/>
</g>
<path d="M101.807 40.0219L67.1282 44.7662L73.6646 92.5452L108.344 87.801L101.807 40.0219Z" fill="#00C802"/>
<path d="M101.956 40.0016L101.936 39.8529L101.787 39.8733L67.1078 44.6176L66.9592 44.6379L66.9796 44.7865L73.516 92.5656L73.5363 92.7142L73.6849 92.6939L108.364 87.9496L108.513 87.9292L108.492 87.7806L101.956 40.0016Z" fill="#FAFAFA" stroke="#263238" stroke-width="0.3"/>
<g opacity="0.4">
<path d="M96.5437 51.0961L75.1828 54.0188C74.6853 54.084 74.1822 53.9505 73.7825 53.6472C73.3829 53.3439 73.1189 52.8953 73.0479 52.3986C72.9827 51.9011 73.1162 51.398 73.4195 50.9984C73.7228 50.5987 74.1715 50.3348 74.6681 50.2638L96.029 47.3411C96.5265 47.2758 97.0296 47.4093 97.4293 47.7127C97.8289 48.016 98.0929 48.4646 98.1639 48.9613C98.2291 49.4587 98.0956 49.9618 97.7923 50.3615C97.489 50.7611 97.0403 51.0251 96.5437 51.0961Z" fill="#E0E0E0"/>
<path d="M97.6237 58.9937L76.2628 61.9163C75.7653 61.9816 75.2622 61.8481 74.8625 61.5448C74.4629 61.2415 74.1989 60.7928 74.1279 60.2962C74.0645 59.7997 74.1988 59.2982 74.502 58.9C74.8051 58.5018 75.2527 58.2387 75.7481 58.1677L97.109 55.245C97.6055 55.1796 98.1078 55.3123 98.5073 55.6143C98.9068 55.9163 99.1714 56.3633 99.2439 56.8588C99.3091 57.3563 99.1756 57.8594 98.8723 58.2591C98.569 58.6587 98.1204 58.9227 97.6237 58.9937Z" fill="#E0E0E0"/>
<path d="M83.2261 69.0134L77.3427 69.8203C76.8452 69.8856 76.3421 69.7521 75.9424 69.4488C75.5428 69.1455 75.2788 68.6968 75.2078 68.2002C75.1426 67.7027 75.2761 67.1996 75.5794 66.7999C75.8827 66.4003 76.3314 66.1363 76.828 66.0653L82.7179 65.2584C83.2143 65.195 83.7158 65.3293 84.114 65.6325C84.5122 65.9356 84.7753 66.3832 84.8463 66.8786C84.9116 67.3761 84.7781 67.8792 84.4748 68.2788C84.1715 68.6785 83.7228 68.9424 83.2261 69.0134Z" fill="#E0E0E0"/>
<path opacity="0.4" d="M94.6439 67.4504L88.754 68.2573C88.2576 68.3208 87.7561 68.1864 87.3579 67.8833C86.9596 67.5801 86.6966 67.1325 86.6256 66.6371C86.5603 66.1397 86.6938 65.6366 86.9971 65.2369C87.3004 64.8373 87.7491 64.5733 88.2458 64.5023L94.1292 63.7017C94.6257 63.6364 95.128 63.769 95.5275 64.071C95.927 64.373 96.1915 64.8201 96.264 65.3156C96.3293 65.813 96.1958 66.3161 95.8925 66.7158C95.5892 67.1154 95.1405 67.3794 94.6439 67.4504Z" fill="#00C802"/>
<path d="M99.7841 74.7951L78.4232 77.7178C77.9257 77.7831 77.4226 77.6495 77.0229 77.3462C76.6233 77.0429 76.3593 76.5943 76.2883 76.0976C76.2249 75.6012 76.3592 75.0997 76.6624 74.7015C76.9655 74.3032 77.4131 74.0402 77.9085 73.9692L99.2695 71.0401C99.7669 70.9749 100.27 71.1084 100.67 71.4117C101.069 71.715 101.333 72.1636 101.404 72.6603C101.47 73.1578 101.336 73.6609 101.033 74.0605C100.729 74.4602 100.281 74.7241 99.7841 74.7951Z" fill="#E0E0E0"/>
<path d="M95.0315 83.4933L79.5032 85.6154C79.0077 85.679 78.5071 85.5455 78.109 85.2437C77.7109 84.9419 77.4473 84.4958 77.3747 84.0016C77.3093 83.5051 77.442 83.0028 77.744 82.6033C78.046 82.2038 78.493 81.9393 78.9885 81.8668L94.5168 79.7446C95.0123 79.6811 95.513 79.8145 95.911 80.1164C96.3091 80.4182 96.5728 80.8642 96.6453 81.3585C96.7107 81.855 96.578 82.3572 96.276 82.7567C95.974 83.1562 95.527 83.4208 95.0315 83.4933Z" fill="#E0E0E0"/>
</g>
<path d="M69.0834 46.993L34.2134 50.0314L38.3996 98.0735L73.2697 95.035L69.0834 46.993Z" fill="#00C802"/>
<path d="M69.2329 46.9799L69.2199 46.8305L69.0704 46.8435L34.2004 49.882L34.0509 49.895L34.0639 50.0445L38.2502 98.0865L38.2632 98.236L38.4126 98.2229L73.2827 95.1845L73.4321 95.1714L73.4191 95.022L69.2329 46.9799Z" fill="#FAFAFA" stroke="#263238" stroke-width="0.3"/>
<g opacity="0.4">
<path d="M63.2826 57.8056L41.8009 59.6735C41.3011 59.7142 40.8055 59.5562 40.4213 59.2339C40.0372 58.9116 39.7955 58.451 39.7487 57.9517C39.7098 57.453 39.8686 56.9589 40.1907 56.5762C40.5128 56.1934 40.9725 55.9527 41.4705 55.9058L62.9522 53.9997C63.452 53.9591 63.9476 54.1171 64.3318 54.4393C64.7159 54.7616 64.9576 55.2223 65.0044 55.7216C65.0289 55.9716 65.0038 56.224 64.9304 56.4643C64.857 56.7045 64.7368 56.9279 64.5768 57.1216C64.4168 57.3153 64.2201 57.4754 63.998 57.5928C63.7759 57.7102 63.5327 57.7825 63.2826 57.8056Z" fill="#E0E0E0"/>
<path d="M63.975 65.7477L42.4933 67.6538C41.9935 67.6944 41.4979 67.5365 41.1137 67.2142C40.7296 66.8919 40.4879 66.4312 40.4411 65.9319C40.4005 65.4321 40.5584 64.9365 40.8807 64.5523C41.203 64.1682 41.6637 63.9265 42.1629 63.8797L63.6446 61.9736C64.1444 61.933 64.64 62.0909 65.0242 62.4132C65.4083 62.7355 65.65 63.1962 65.6968 63.6954C65.7374 64.1952 65.5795 64.6909 65.2572 65.0751C64.9349 65.4592 64.4742 65.7008 63.975 65.7477Z" fill="#E0E0E0"/>
<path d="M64.6676 73.6896L43.1859 75.5957C42.6862 75.6364 42.1905 75.4784 41.8063 75.1561C41.4222 74.8338 41.1805 74.3731 41.1337 73.8739C41.0931 73.3741 41.251 72.8784 41.5733 72.4943C41.8956 72.1101 42.3563 71.8685 42.8555 71.8217L64.3372 69.9156C64.837 69.8749 65.3327 70.0329 65.7168 70.3552C66.1009 70.6775 66.3426 71.1382 66.3894 71.6374C66.4301 72.1372 66.2721 72.6329 65.9498 73.017C65.6275 73.4011 65.1668 73.6428 64.6676 73.6896Z" fill="#E0E0E0"/>
<path d="M65.3729 81.6317L43.8913 83.5378C43.3915 83.5784 42.8958 83.4205 42.5117 83.0982C42.1275 82.7759 41.8859 82.3152 41.839 81.8159C41.7984 81.3161 41.9563 80.8205 42.2786 80.4363C42.6009 80.0522 43.0616 79.8105 43.5609 79.7637L65.0425 77.8957C65.5423 77.8551 66.038 78.013 66.4221 78.3353C66.8063 78.6576 67.0479 79.1183 67.0948 79.6176C67.125 80.111 66.9623 80.597 66.6411 80.9727C66.3198 81.3485 65.8651 81.5848 65.3729 81.6317Z" fill="#E0E0E0"/>
<path opacity="0.4" d="M60.1816 90.0884L44.5707 91.4481C44.0678 91.494 43.5672 91.3385 43.1789 91.0157C42.7905 90.6929 42.5462 90.2291 42.4994 89.7263C42.4588 89.2265 42.6167 88.7308 42.939 88.3467C43.2613 87.9625 43.722 87.7209 44.2213 87.6741L59.8322 86.3144C60.3319 86.2737 60.8276 86.4317 61.2118 86.754C61.5959 87.0763 61.8376 87.537 61.8844 88.0362C61.9253 88.533 61.7699 89.026 61.4516 89.4097C61.1333 89.7933 60.6774 90.037 60.1816 90.0884Z" fill="#00C802"/>
</g>
<path d="M111.573 44.6587L76.6116 46.3441L78.9337 94.5123L113.895 92.8268L111.573 44.6587Z" fill="#00C802"/>
<path d="M111.723 44.6515L111.716 44.5016L111.566 44.5088L76.6043 46.1943L76.4545 46.2015L76.4617 46.3513L78.7839 94.5195L78.7911 94.6693L78.9409 94.6621L113.902 92.9767L114.052 92.9694L114.045 92.8196L111.723 44.6515Z" fill="#FAFAFA" stroke="#263238" stroke-width="0.3"/>
<g opacity="0.4">
<path d="M105.362 55.226L83.8299 56.268C83.3296 56.2888 82.8411 56.1118 82.4701 55.7753C82.0992 55.4389 81.8755 54.9699 81.8476 54.4699C81.8268 53.9695 82.0037 53.481 82.3402 53.1101C82.6767 52.7391 83.1456 52.5155 83.6457 52.4876L105.185 51.4456C105.685 51.4247 106.173 51.6017 106.544 51.9382C106.915 52.2746 107.139 52.7436 107.167 53.2436C107.188 53.7451 107.01 54.2345 106.672 54.6056C106.334 54.9767 105.864 55.1996 105.362 55.226Z" fill="#E0E0E0"/>
<path d="M105.75 63.1936L84.211 64.2292C83.7106 64.25 83.2222 64.0731 82.8512 63.7366C82.4803 63.4001 82.2566 62.9312 82.2287 62.4311C82.2079 61.9297 82.3857 61.4403 82.7236 61.0692C83.0614 60.698 83.5319 60.4751 84.0331 60.4488L105.566 59.4068C106.067 59.386 106.556 59.5638 106.928 59.9017C107.299 60.2395 107.522 60.71 107.548 61.2112C107.569 61.7116 107.392 62.2001 107.055 62.571C106.719 62.942 106.25 63.1656 105.75 63.1936Z" fill="#E0E0E0"/>
<path d="M90.533 71.9362L84.5987 72.2221C84.0983 72.2429 83.6099 72.0659 83.2389 71.7295C82.868 71.393 82.6443 70.924 82.6164 70.424C82.5956 69.9236 82.7725 69.4352 83.109 69.0642C83.4455 68.6932 83.9144 68.4696 84.4145 68.4417L90.3488 68.1494C90.8502 68.1286 91.3396 68.3065 91.7107 68.6443C92.0818 68.9821 92.3048 69.4527 92.3311 69.9538C92.3519 70.4542 92.175 70.9427 91.8385 71.3136C91.502 71.6846 91.0331 71.9082 90.533 71.9362Z" fill="#E0E0E0"/>
<path d="M102.039 71.3516L96.1051 71.6376C95.6047 71.6584 95.1162 71.4814 94.7453 71.1449C94.3743 70.8085 94.1507 70.3395 94.1227 69.8395C94.1019 69.3391 94.2789 68.8506 94.6154 68.4797C94.9518 68.1087 95.4208 67.8851 95.9208 67.8571L101.855 67.5712C102.356 67.5504 102.844 67.7274 103.215 68.0638C103.586 68.4003 103.81 68.8693 103.837 69.3693C103.858 69.8697 103.681 70.3582 103.345 70.7291C103.008 71.1001 102.539 71.3237 102.039 71.3516Z" fill="#E0E0E0"/>
<path d="M106.519 79.122L84.9798 80.1577C84.4794 80.1785 83.991 80.0015 83.62 79.665C83.249 79.3286 83.0254 78.8596 82.9975 78.3596C82.9767 77.8582 83.1545 77.3688 83.4924 76.9976C83.8302 76.6265 84.3007 76.4036 84.8019 76.3772L106.334 75.3353C106.836 75.3145 107.325 75.4923 107.696 75.8301C108.067 76.168 108.29 76.6385 108.317 77.1397C108.338 77.6401 108.161 78.1285 107.824 78.4995C107.488 78.8704 107.019 79.0941 106.519 79.122Z" fill="#E0E0E0"/>
<path opacity="0.4" d="M101.017 87.369L85.3675 88.1251C84.8671 88.1459 84.3787 87.969 84.0077 87.6325C83.6368 87.296 83.4131 86.8271 83.3852 86.327C83.3644 85.8267 83.5413 85.3382 83.8778 84.9672C84.2143 84.5963 84.6832 84.3727 85.1833 84.3447L100.832 83.5886C101.333 83.5678 101.821 83.7448 102.192 84.0812C102.563 84.4177 102.787 84.8867 102.815 85.3867C102.835 85.8871 102.658 86.3756 102.322 86.7465C101.986 87.1175 101.517 87.3411 101.017 87.369Z" fill="#00C802"/>
</g>
<path d="M59.5592 82.6355L59 80.5452C58.6084 79.0985 57.6988 77.8462 56.4442 77.0262C55.1897 76.2062 53.6775 75.8758 52.1953 76.0977L21.8313 79.6493C19.9891 79.8751 18.2926 80.7651 17.0598 82.1523C15.8269 83.5396 15.1424 85.3289 15.1345 87.1847L16.8564 159.521C16.8666 160.117 17.0043 160.703 17.2602 161.242C17.5161 161.78 17.8843 162.257 18.3399 162.641C18.7956 163.025 19.3282 163.307 19.9019 163.468C20.4756 163.629 21.0771 163.665 21.6661 163.575L130.313 150.867C131.575 150.714 132.737 150.107 133.583 149.158C134.428 148.209 134.899 146.985 134.907 145.714L133.42 83.182C133.409 82.5859 133.27 81.9991 133.014 81.4609C132.757 80.9228 132.389 80.4458 131.932 80.0618C131.476 79.6779 130.943 79.396 130.369 79.235C129.795 79.074 129.193 79.0376 128.604 79.1283L65.5189 86.5049C64.2239 86.7026 62.9014 86.4177 61.8027 85.7044C60.7039 84.991 59.9055 83.8989 59.5592 82.6355Z" fill="#00C802"/>
<path opacity="0.3" d="M59.5592 82.6355L59 80.5452C58.6084 79.0985 57.6988 77.8462 56.4442 77.0262C55.1897 76.2062 53.6775 75.8758 52.1953 76.0977L21.8313 79.6493C19.9891 79.8751 18.2926 80.7651 17.0598 82.1523C15.8269 83.5396 15.1424 85.3289 15.1345 87.1847L16.8564 159.521C16.8666 160.117 17.0043 160.703 17.2602 161.242C17.5161 161.78 17.8843 162.257 18.3399 162.641C18.7956 163.025 19.3282 163.307 19.9019 163.468C20.4756 163.629 21.0771 163.665 21.6661 163.575L130.313 150.867C131.575 150.714 132.737 150.107 133.583 149.158C134.428 148.209 134.899 146.985 134.907 145.714L133.42 83.182C133.409 82.5859 133.27 81.9991 133.014 81.4609C132.757 80.9228 132.389 80.4458 131.932 80.0618C131.476 79.6779 130.943 79.396 130.369 79.235C129.795 79.074 129.193 79.0376 128.604 79.1283L65.5189 86.5049C64.2239 86.7026 62.9014 86.4177 61.8027 85.7044C60.7039 84.991 59.9055 83.8989 59.5592 82.6355Z" fill="#00C802"/>
<path d="M165.76 47.8622C165.29 50.2194 164.788 52.5448 164.223 54.8512C163.657 57.1576 163.104 59.4893 162.488 61.7957L161.548 65.2457L161.427 65.6905C161.37 65.8811 161.306 66.0717 161.23 66.2687C161.067 66.7012 160.854 67.1128 160.595 67.4949C160.28 67.9697 159.876 68.3796 159.406 68.7021C158.889 69.0529 158.293 69.2711 157.672 69.3375C156.731 69.4059 155.79 69.2054 154.959 68.7593C154.328 68.4156 153.735 68.0045 153.193 67.5331C152.211 66.6745 151.342 65.6945 150.607 64.6167L152.417 63.041C153.282 63.7134 154.195 64.3208 155.15 64.8582C155.564 65.0932 156.003 65.2828 156.458 65.4236C156.846 65.5507 157.189 65.5317 157.189 65.4681C157.189 65.4046 157.126 65.4681 157.094 65.4681C157.062 65.4681 157.094 65.4681 157.094 65.3601C157.094 65.2521 157.17 65.1377 157.214 64.9725L157.361 64.2673L158.098 60.7982L159.591 53.86C160.074 51.5473 160.595 49.2282 161.097 46.9409L165.76 47.8622Z" fill="#FFC3BD"/>
<path d="M163.65 40.5998C158.231 44.7487 158.453 52.5701 158.453 52.5701L168.142 54.8891C168.142 54.8891 171.122 47.0233 169.915 44.1451C168.657 41.1462 166.707 38.2617 163.65 40.5998Z" fill="#263238"/>
<path d="M152.9 63.1362L149.336 59.5718L147.43 65.1503C147.43 65.1503 150.441 66.7705 153.32 65.2393L152.9 63.1362Z" fill="#FFC3BD"/>
<path d="M144.399 59.019L143.745 63.4285L147.411 65.1503L149.336 59.5718L144.399 59.019Z" fill="#FFC3BD"/>
<path d="M195.063 188.119L189.612 188.652L183.938 175.672L189.389 175.138L195.063 188.119Z" fill="#FFC3BD"/>
<path d="M230.186 168.931L226.088 172.775L217.25 163.06L221.348 159.216L230.186 168.931Z" fill="#FFC3BD"/>
<path d="M224.214 170.932L227.289 165.392C227.34 165.295 227.426 165.22 227.529 165.181C227.632 165.143 227.745 165.143 227.848 165.182L232.581 166.987C232.698 167.036 232.804 167.109 232.89 167.202C232.977 167.294 233.043 167.404 233.084 167.524C233.126 167.644 233.141 167.771 233.13 167.898C233.119 168.024 233.081 168.146 233.02 168.257C231.914 170.163 231.285 171.04 229.932 173.48C229.1 174.979 227.479 178.417 226.329 180.469C225.179 182.521 223.07 181.517 223.362 180.552C224.677 176.218 224.43 173.81 224.061 171.904C223.998 171.572 224.052 171.229 224.214 170.932Z" fill="#263238"/>
<path d="M188.887 186.969H195.584C195.705 186.969 195.822 187.009 195.917 187.082C196.012 187.156 196.081 187.259 196.112 187.375L197.567 192.668C197.602 192.793 197.608 192.924 197.584 193.052C197.56 193.18 197.506 193.3 197.427 193.403C197.348 193.506 197.246 193.589 197.129 193.646C197.012 193.703 196.883 193.731 196.753 193.729C194.39 193.729 193.272 193.729 190.33 193.729H181.333C178.881 193.729 178.372 191.257 179.382 191.029C183.925 190.025 186.537 188.64 187.941 187.318C188.201 187.087 188.539 186.962 188.887 186.969Z" fill="#263238"/>
<path opacity="0.2" d="M183.944 175.678L186.867 182.369H192.554L189.396 175.145L183.944 175.678Z" fill="black"/>
<path opacity="0.2" d="M221.348 159.222L217.25 163.066L221.812 168.073L225.91 164.223L221.348 159.222Z" fill="black"/>
<path d="M165.29 39.7993C165.29 39.7993 162.837 40.873 171.059 73.4037L193.894 71.4277C192.712 62.1704 192.204 56.4395 194.993 36.9783C191.74 36.5935 188.464 36.447 185.19 36.5399C181.716 36.5919 178.251 36.8912 174.82 37.4357C171.606 38.0617 168.425 38.8505 165.29 39.7993Z" fill="#263238"/>
<path d="M185.19 36.3557C185.19 36.3557 186.46 36.3557 188.011 36.3557C188.932 37.7726 185.946 43.9801 181.022 48.0401C180.272 45.7829 178.894 43.7862 177.051 42.2837L185.19 36.3557Z" fill="white"/>
<path d="M174.82 37.3531C174.82 37.3531 174.242 37.4357 172.863 37.7534C171.942 39.1703 170.385 45.2253 173.098 48.3132C173.782 45.9716 175.152 43.8888 177.031 42.3344L174.82 37.3531Z" fill="white"/>
<path d="M183.15 24.9509C182.788 28.3438 182.661 34.4814 185.19 36.54C185.19 36.54 182.489 39.2974 177.032 42.3345C173.061 39.5897 174.82 37.4358 174.82 37.4358C178.461 36.2286 178.124 33.4775 177.254 30.9361L183.15 24.9509Z" fill="#FFC3BD"/>
<path d="M176.936 42.3534C176.936 42.3534 180.284 38.7064 182.019 39.4053C183.753 40.1042 182.413 41.3559 182.26 42.5313C182.108 43.7068 182.934 46.8327 180.615 46.0195C178.296 45.2062 176.936 42.3534 176.936 42.3534Z" fill="#00C802"/>
<path d="M176.803 42.2773C176.803 42.2773 175.221 39.4817 173.512 39.8566C171.803 40.2314 172.819 41.2099 172.972 42.2646C173.169 43.6116 171.745 46.2038 173.804 45.4414C175.863 44.679 176.803 42.2773 176.803 42.2773Z" fill="#00C802"/>
<g opacity="0.2">
<path opacity="0.2" d="M175.926 41.6738C175.903 42.2375 176.012 42.7988 176.244 43.3131C176.454 42.9846 176.639 42.6405 176.796 42.2838C176.562 41.8854 176.292 41.509 175.989 41.1592C175.937 41.3254 175.915 41.4998 175.926 41.6738Z" fill="black"/>
<path opacity="0.2" d="M178.156 41.1719C177.438 41.8073 176.942 42.3537 176.942 42.3537C177.127 42.7351 177.339 43.1025 177.578 43.4529C177.962 43.0679 178.188 42.5537 178.213 42.0106C178.274 41.7313 178.254 41.4404 178.156 41.1719Z" fill="black"/>
</g>
<path d="M176.898 43.4972C176.422 43.4972 176.129 42.9826 176.097 41.7563C176.066 40.5301 177.006 41.2099 177.006 41.2099C177.006 41.2099 178.277 40.5746 178.048 42.0422C177.883 43.205 177.387 43.4972 176.898 43.4972Z" fill="#00C802"/>
<path opacity="0.2" d="M180.748 27.397L177.26 30.936C177.469 31.5252 177.629 32.1309 177.737 32.7467C179.141 32.4227 181.174 30.9614 181.193 29.4619C181.17 28.7524 181.02 28.0529 180.748 27.397Z" fill="black"/>
<path d="M177.756 13.4826C177.756 13.4826 173.944 18.7625 173.308 21.1069C170.716 22.6191 170.195 15.179 171.567 10.5917C175.85 13.2793 177.756 13.4826 177.756 13.4826Z" fill="#263238"/>
<path d="M186.136 19.652C184.719 25.0717 184.23 27.3971 180.914 29.6653C175.913 33.0836 169.566 30.1609 169.331 24.4236C169.121 19.2644 171.472 11.2652 177.273 10.1406C178.551 9.88112 179.875 9.95393 181.117 10.3521C182.359 10.7502 183.478 11.4604 184.368 12.4147C185.257 13.369 185.887 14.5355 186.196 15.8026C186.506 17.0698 186.485 18.3951 186.136 19.652Z" fill="#FFC3BD"/>
<path d="M189.084 17.4853C189.084 17.4853 186.358 21.9011 185.99 23.839C184.014 25.1796 183.182 19.2961 184.014 15.5792C184.922 12.269 189.084 17.4853 189.084 17.4853Z" fill="#263238"/>
<path d="M187.998 14.4166C187.21 15.0138 186.378 12.8091 187.159 11.119C185.653 11.2143 183.843 10.3185 184.23 8.8635C181.263 9.86102 180.164 6.84304 180.507 4.75269C180.92 2.21124 183.131 1.67118 184.434 2.33831C184.434 1.20101 187.305 -1.1689 188.398 0.686363C190.425 -0.0315976 193.691 0.190779 193.621 2.68141C194.962 2.71953 198.92 4.23805 197.433 7.76432C199.18 7.86597 200.127 10.0834 199.155 11.7607C199.538 11.9636 199.866 12.2556 200.113 12.6121C200.359 12.9687 200.516 13.3792 200.57 13.8092C200.624 14.2391 200.574 14.6758 200.424 15.0823C200.274 15.4888 200.028 15.8532 199.708 16.1448C200.515 17.8221 198.068 20.3191 196.766 20.0205C195.775 21.539 194.256 22.6827 193.265 21.3865C191.359 22.7907 189.167 21.0053 189.656 19.6329C187.496 19.3025 185.291 15.7 187.998 14.4166Z" fill="#263238"/>
<path d="M191.226 9.07949C192.649 11.4557 192.528 14.1624 190.965 15.0837C189.402 16.005 186.969 14.8613 185.545 12.485C184.122 10.1088 184.237 7.40213 185.806 6.48085C187.375 5.55958 189.802 6.70958 191.226 9.07949Z" fill="#00C802"/>
<path d="M178.01 12.8472C177.927 13.5271 176.053 13.3492 175.513 12.1483C174.738 12.9616 172.914 13.3809 172.292 12.4978C171.237 14.4801 169.115 13.9591 168.568 13.0124C168.022 12.0657 167.66 10.3058 168.759 9.95633C168.124 9.40992 168.314 6.8367 169.979 7.16074C170.678 5.78835 172.59 4.23171 173.988 5.44525C174.75 4.80989 177.8 3.48833 179.033 5.90907C179.303 5.72433 179.612 5.60326 179.936 5.55497C180.26 5.50668 180.59 5.53243 180.903 5.63027C181.215 5.72811 181.501 5.8955 181.74 6.11986C181.978 6.34422 182.163 6.61972 182.28 6.92565C184.255 6.411 185.113 7.91046 185.107 8.72373C186.511 9.10495 186.606 11.532 185.742 12.053C186.079 13.2793 185.901 14.5945 184.611 14.4801C184.364 16.1321 182.152 16.3862 181.631 15.4904C180.196 16.4116 177.266 14.8105 178.01 12.8472Z" fill="#263238"/>
<path d="M174.655 8.15829C176.262 5.93452 182.127 4.98147 187.203 8.34255C191.778 11.3478 191.479 18.3305 187.839 17.9556C184.198 17.5807 180.602 13.3174 180.602 13.3174L174.655 8.15829Z" fill="#263238"/>
<path d="M186.581 24.5443C186.074 25.4997 185.211 26.2167 184.179 26.5393C182.8 26.9523 182.089 25.7324 182.445 24.4172C182.769 23.2354 183.868 21.5962 185.259 21.7614C185.563 21.8017 185.851 21.9173 186.099 22.0977C186.346 22.278 186.545 22.5173 186.676 22.7939C186.807 23.0705 186.867 23.3755 186.851 23.6812C186.834 23.9869 186.741 24.2836 186.581 24.5443Z" fill="#FFC3BD"/>
<path d="M171.059 73.4037C171.059 73.4037 163.333 107.586 168.517 131.686C171.974 147.824 184.402 180.424 184.402 180.424L194.148 180.177C194.148 180.177 184.713 145.962 182.762 132.524C179.427 109.511 187.782 71.9805 187.782 71.9805L171.059 73.4037Z" fill="#00C802"/>
<path opacity="0.2" d="M179.967 80.3101L184.821 87.9917C183.353 97.0996 182.422 106.286 182.032 115.503C175.201 103.24 178.467 86.7972 179.967 80.3101Z" fill="black"/>
<path d="M183.029 180.933L195.063 180.621L194.37 176.93L182.089 177.508L183.029 180.933Z" fill="#263238"/>
<path d="M176.053 73.0416C176.053 73.0416 180.583 109.289 190.412 129.081C198.348 145.066 219.525 167.838 219.525 167.838L224.938 162.259C224.938 162.259 210.636 137.531 204.74 126.914C190.272 100.864 202.097 81.0091 193.894 71.4468L176.053 73.0416Z" fill="#00C802"/>
<path d="M218.978 168.569L225.967 161.757L223.648 158.6L216.233 165.995L218.978 168.569Z" fill="#263238"/>
<path d="M194.123 70.0616L195.33 72.0186C195.425 72.1647 195.247 72.3426 194.987 72.368L171.034 74.4393C170.83 74.4393 170.652 74.3694 170.627 74.2423L170.246 72.2155C170.214 72.0757 170.386 71.9423 170.608 71.9233L193.735 69.9219C193.806 69.9085 193.88 69.9145 193.948 69.939C194.016 69.9636 194.076 70.0059 194.123 70.0616Z" fill="#00C802"/>
<path opacity="0.5" d="M194.123 70.0616L195.33 72.0186C195.425 72.1647 195.247 72.3426 194.987 72.368L171.034 74.4393C170.83 74.4393 170.652 74.3694 170.627 74.2423L170.246 72.2155C170.214 72.0757 170.386 71.9423 170.608 71.9233L193.735 69.9219C193.806 69.9085 193.88 69.9145 193.948 69.939C194.016 69.9636 194.076 70.0059 194.123 70.0616Z" fill="white"/>
<path d="M191.238 72.9145L191.874 72.8637C191.994 72.8637 192.083 72.7811 192.07 72.7048L191.549 70.0744C191.549 69.9918 191.422 69.941 191.295 69.9537L190.66 70.0046C190.533 70.0046 190.444 70.0871 190.463 70.1634L190.984 72.7938C191.003 72.87 191.117 72.9272 191.238 72.9145Z" fill="#00C802"/>
<path d="M172.794 74.5094L173.429 74.4585C173.55 74.4585 173.639 74.3759 173.626 74.2997L173.105 71.6693C173.082 71.6237 173.045 71.5871 172.999 71.5652C172.953 71.5433 172.901 71.5375 172.851 71.5486L172.215 71.5994C172.088 71.5994 171.999 71.682 172.018 71.7582L172.539 74.3886C172.559 74.4776 172.673 74.5221 172.794 74.5094Z" fill="#00C802"/>
<path d="M182.019 73.7151L182.655 73.658C182.782 73.658 182.871 73.5754 182.852 73.4991L182.331 70.8687C182.331 70.7925 182.204 70.7353 182.083 70.748L181.447 70.8052C181.327 70.8052 181.238 70.8878 181.25 70.964L181.771 73.5944C181.784 73.6707 181.892 73.7215 182.019 73.7151Z" fill="#00C802"/>
<path d="M176.962 19.4677C176.873 19.9125 176.568 20.2302 176.276 20.173C175.983 20.1158 175.818 19.7028 175.901 19.2581C175.983 18.8133 176.301 18.4956 176.593 18.5528C176.885 18.61 177.051 19.0166 176.962 19.4677Z" fill="#263238"/>
<path d="M171.903 18.4693C171.991 18.0216 171.825 17.6122 171.533 17.5546C171.24 17.4971 170.931 17.8133 170.843 18.2609C170.755 18.7085 170.921 19.118 171.214 19.1756C171.507 19.2331 171.815 18.9169 171.903 18.4693Z" fill="#263238"/>
<path d="M171.669 17.6125L170.653 17.0915C170.653 17.0915 171.04 18.0382 171.669 17.6125Z" fill="#263238"/>
<path d="M173.645 19.5884C173.05 20.5306 172.327 21.3859 171.497 22.1298C171.69 22.3421 171.927 22.5091 172.192 22.6189C172.457 22.7287 172.742 22.7787 173.029 22.7652L173.645 19.5884Z" fill="#ED847E"/>
<path d="M175.094 24.862C176.032 24.8719 176.94 24.527 177.635 23.8962C177.649 23.8862 177.66 23.8733 177.668 23.8585C177.675 23.8437 177.68 23.8273 177.681 23.8105C177.682 23.7937 177.679 23.777 177.673 23.7614C177.666 23.7458 177.657 23.7318 177.644 23.7204C177.632 23.7091 177.617 23.7005 177.601 23.6954C177.585 23.6904 177.568 23.6889 177.552 23.6911C177.535 23.6934 177.519 23.6992 177.505 23.7083C177.491 23.7174 177.479 23.7295 177.47 23.7437C177.042 24.1207 176.532 24.3915 175.98 24.5339C175.428 24.6763 174.85 24.6864 174.293 24.5634C174.279 24.5606 174.264 24.5608 174.25 24.5638C174.236 24.5668 174.222 24.5726 174.211 24.5809C174.199 24.5892 174.189 24.5998 174.181 24.6121C174.173 24.6243 174.168 24.638 174.166 24.6523C174.162 24.6666 174.162 24.6815 174.164 24.696C174.167 24.7106 174.173 24.7243 174.181 24.7364C174.189 24.7485 174.2 24.7586 174.213 24.7661C174.226 24.7735 174.24 24.778 174.255 24.7794C174.531 24.8372 174.812 24.8649 175.094 24.862Z" fill="#263238"/>
<path d="M179.992 17.7332C180.032 17.7325 180.072 17.7216 180.107 17.7014C180.157 17.6711 180.194 17.6219 180.208 17.5647C180.222 17.5075 180.213 17.447 180.183 17.3964C179.973 17.0394 179.68 16.7378 179.33 16.5168C178.98 16.2957 178.581 16.1616 178.169 16.1257C178.14 16.1249 178.11 16.1298 178.083 16.1402C178.056 16.1506 178.031 16.1663 178.01 16.1863C177.988 16.2064 177.971 16.2304 177.959 16.2571C177.947 16.2838 177.941 16.3125 177.94 16.3417C177.939 16.3709 177.944 16.4 177.954 16.4273C177.965 16.4546 177.981 16.4796 178.001 16.5009C178.021 16.5221 178.045 16.5392 178.071 16.5511C178.098 16.5631 178.127 16.5696 178.156 16.5705C178.497 16.608 178.824 16.726 179.11 16.915C179.396 17.1039 179.633 17.3582 179.802 17.6569C179.825 17.684 179.854 17.7051 179.888 17.7184C179.921 17.7316 179.957 17.7367 179.992 17.7332Z" fill="#263238"/>
<path d="M170.513 15.9414C170.548 15.9495 170.585 15.9495 170.621 15.9414C170.916 15.7667 171.248 15.6642 171.59 15.6421C171.932 15.62 172.275 15.679 172.59 15.8143C172.642 15.8358 172.7 15.8372 172.752 15.8181C172.805 15.7989 172.848 15.7608 172.874 15.7111C172.899 15.6615 172.905 15.604 172.89 15.5501C172.876 15.4963 172.841 15.4499 172.794 15.4204C172.413 15.248 171.997 15.1701 171.58 15.1933C171.162 15.2166 170.757 15.3402 170.398 15.5538C170.348 15.5831 170.312 15.6306 170.296 15.6864C170.281 15.7421 170.288 15.8017 170.316 15.8524C170.337 15.8838 170.367 15.9086 170.402 15.9243C170.436 15.9399 170.475 15.9458 170.513 15.9414Z" fill="#263238"/>
<path d="M195.965 42.1757C196.397 42.595 196.696 42.9254 197.033 43.3002C197.369 43.6751 197.668 44.0436 197.973 44.4185C198.577 45.1746 199.155 45.9497 199.695 46.7439C200.769 48.3451 201.72 50.0251 202.541 51.7696C203.36 53.5224 204.022 55.3446 204.517 57.2147C204.765 58.1487 204.987 59.1208 205.153 60.0548C205.468 61.4042 205.313 62.8207 204.714 64.0703C204.366 64.7267 203.883 65.3025 203.297 65.7604C202.79 66.1508 202.232 66.4713 201.639 66.7134C200.619 67.1067 199.55 67.359 198.462 67.4631C196.532 67.6486 194.586 67.623 192.661 67.3869C188.976 66.9583 185.338 66.1862 181.797 65.0805L182.381 62.7742C184.109 63.0601 185.888 63.3269 187.642 63.5112C189.396 63.6954 191.162 63.8606 192.896 63.8988C194.577 63.9593 196.259 63.8657 197.922 63.6192C198.638 63.5027 199.335 63.2889 199.993 62.9838C200.397 62.8312 200.73 62.5347 200.927 62.1515C200.981 62.005 201.007 61.8499 201.004 61.694C201.012 61.5798 201.012 61.4651 201.004 61.3509C201.004 61.2239 200.959 61.1095 200.902 60.8744C200.724 60.0548 200.489 59.2479 200.235 58.4473C199.718 56.8512 199.081 55.2964 198.329 53.7965C197.573 52.2877 196.707 50.8372 195.737 49.4569C195.26 48.758 194.758 48.0782 194.237 47.4238C193.977 47.0934 193.703 46.7884 193.437 46.4644C193.17 46.1403 192.865 45.829 192.655 45.6003L195.965 42.1757Z" fill="#FFC3BD"/>
<path d="M183.836 63.1235L179.389 60.7663L179.185 66.6561C179.185 66.6561 182.362 66.8594 184.179 65.3854L183.836 63.1235Z" fill="#FFC3BD"/>
<path d="M176.034 94.8092L179.706 54.902L171.86 48.8915L147.906 46.6868L143.745 91.8357L176.034 94.8092Z" fill="#00C802"/>
<path d="M176.02 94.9586L176.17 94.9723L176.183 94.823L179.856 54.9158L179.863 54.8333L179.798 54.7829L171.951 48.7724L171.917 48.7461L171.873 48.7421L147.92 46.5374L147.771 46.5237L147.757 46.673L143.596 91.822L143.582 91.9713L143.731 91.9851L176.02 94.9586Z" fill="#FAFAFA" stroke="#263238" stroke-width="0.3"/>
<path d="M179.736 55.049L180.059 54.9831L179.797 54.7829L171.951 48.7724L171.59 48.4964L171.715 48.9328L173.774 56.1251L173.812 56.2585L173.948 56.2308L179.736 55.049Z" fill="#E0E0E0" stroke="#263238" stroke-width="0.3"/>
<path d="M173.848 63.1744C173.816 63.5237 173.716 63.8633 173.553 64.1737C173.389 64.4841 173.167 64.7593 172.897 64.9835C172.627 65.2078 172.316 65.3766 171.981 65.4805C171.646 65.5844 171.294 65.6212 170.945 65.5888L153.472 63.9813C152.767 63.9153 152.118 63.5726 151.665 63.0283C151.212 62.4841 150.994 61.7827 151.058 61.0777C151.09 60.7285 151.19 60.3889 151.353 60.0785C151.517 59.7681 151.739 59.4929 152.009 59.2686C152.279 59.0444 152.59 58.8755 152.925 58.7717C153.26 58.6678 153.612 58.631 153.961 58.6634L171.434 60.2708C171.783 60.3027 172.123 60.4032 172.433 60.5664C172.743 60.7296 173.019 60.9525 173.243 61.2221C173.467 61.4918 173.636 61.803 173.74 62.138C173.844 62.473 173.881 62.8252 173.848 63.1744Z" fill="#E0E0E0"/>
<path d="M167.895 70.3857C167.863 70.735 167.762 71.0745 167.599 71.385C167.436 71.6954 167.213 71.9706 166.943 72.1948C166.674 72.419 166.363 72.5879 166.028 72.6918C165.693 72.7956 165.34 72.8324 164.991 72.8001L152.78 71.6755C152.43 71.6436 152.091 71.5431 151.78 71.3799C151.47 71.2167 151.195 70.9939 150.97 70.7242C150.746 70.4545 150.577 70.1433 150.473 69.8083C150.37 69.4733 150.333 69.1211 150.365 68.7719C150.397 68.4226 150.497 68.0831 150.661 67.7726C150.824 67.4622 151.047 67.187 151.316 66.9628C151.586 66.7386 151.897 66.5697 152.232 66.4658C152.567 66.362 152.92 66.3252 153.269 66.3575L165.48 67.4885C166.184 67.5546 166.833 67.8964 167.285 68.4392C167.737 68.982 167.957 69.6818 167.895 70.3857Z" fill="#E0E0E0"/>
<path d="M176.669 61.1157L177.336 65.5188L179.179 66.6561L179.382 60.7663L176.669 61.1157Z" fill="#FFC3BD"/>
<path d="M194.987 36.9911C197.789 37.4866 201.715 45.5176 201.715 45.5176L194.656 51.8713C194.656 51.8713 189.04 45.7464 189.338 42.0994C189.599 39.0179 191.429 36.3557 194.987 36.9911Z" fill="#263238"/>
<path d="M223.12 173.912C223.194 173.911 223.266 173.9 223.336 173.88C224.01 173.651 224.448 172.412 224.652 171.695C224.656 171.674 224.655 171.652 224.648 171.632C224.641 171.612 224.629 171.594 224.614 171.58C224.597 171.566 224.575 171.559 224.553 171.559C224.531 171.559 224.51 171.566 224.493 171.58C224.29 171.682 222.498 172.641 222.441 173.346C222.432 173.423 222.446 173.501 222.479 173.571C222.513 173.64 222.566 173.699 222.631 173.74C222.77 173.852 222.943 173.913 223.12 173.912ZM224.391 171.891C224.08 172.883 223.68 173.537 223.298 173.664C223.212 173.691 223.12 173.694 223.032 173.674C222.944 173.654 222.863 173.611 222.796 173.55C222.762 173.53 222.734 173.501 222.716 173.466C222.698 173.431 222.691 173.392 222.695 173.353C222.695 172.921 223.743 172.241 224.359 171.891H224.391Z" fill="#00C802"/>
<path d="M222.841 172.171C223.452 172.168 224.053 172.027 224.601 171.758C224.617 171.748 224.63 171.733 224.639 171.717C224.647 171.7 224.652 171.682 224.652 171.663C224.653 171.643 224.648 171.624 224.638 171.607C224.627 171.59 224.613 171.576 224.595 171.567C224.538 171.536 223.121 170.754 222.358 171.027C222.262 171.055 222.174 171.106 222.102 171.174C222.029 171.243 221.973 171.327 221.939 171.421C221.891 171.51 221.875 171.613 221.894 171.712C221.912 171.812 221.964 171.902 222.041 171.968C222.277 172.123 222.559 172.194 222.841 172.171ZM224.296 171.663C223.693 171.923 222.517 172.082 222.187 171.803C222.13 171.752 222.072 171.675 222.149 171.504C222.171 171.441 222.208 171.384 222.257 171.337C222.305 171.291 222.364 171.257 222.428 171.237C222.943 171.053 223.896 171.466 224.296 171.688V171.663Z" fill="#00C802"/>
<path d="M185.92 188.049C186.534 188.034 187.145 187.955 187.743 187.814C187.764 187.806 187.782 187.792 187.795 187.774C187.808 187.756 187.815 187.734 187.815 187.712C187.815 187.69 187.808 187.668 187.795 187.65C187.782 187.632 187.764 187.618 187.743 187.61C187.47 187.477 185.037 186.34 184.427 186.772C184.371 186.808 184.326 186.86 184.298 186.92C184.27 186.981 184.26 187.048 184.268 187.115C184.269 187.239 184.3 187.361 184.358 187.472C184.415 187.582 184.497 187.677 184.598 187.75C184.996 187.988 185.459 188.093 185.92 188.049ZM187.362 187.668C186.644 187.801 185.31 187.979 184.757 187.566C184.686 187.51 184.628 187.44 184.587 187.36C184.545 187.28 184.521 187.192 184.516 187.102C184.51 187.074 184.513 187.045 184.525 187.019C184.536 186.993 184.555 186.971 184.579 186.956C184.916 186.721 186.352 187.223 187.362 187.668Z" fill="#00C802"/>
<path d="M187.718 187.82C187.743 187.828 187.77 187.828 187.795 187.82C187.811 187.806 187.822 187.788 187.828 187.768C187.833 187.747 187.833 187.726 187.826 187.706C187.826 187.604 187.255 185.209 185.92 185.361C185.59 185.406 185.495 185.565 185.482 185.698C185.399 186.333 186.931 187.534 187.661 187.839L187.718 187.82ZM186.054 185.552C186.899 185.552 187.388 186.95 187.553 187.509C186.759 187.089 185.647 186.092 185.717 185.704C185.717 185.673 185.717 185.584 185.965 185.558L186.054 185.552Z" fill="#00C802"/>
<path d="M176.714 18.6036L175.703 18.0826C175.703 18.0826 176.091 19.0293 176.714 18.6036Z" fill="#263238"/>
</svg>
