<svg width="28" height="28" viewBox="0 0 28 28" fill="none" xmlns="http://www.w3.org/2000/svg">
<circle cx="17" cy="9" r="6" fill="#CCECD3" stroke="#3F3F3F" stroke-linecap="round" stroke-linejoin="round"/>
<path d="M14.75 7.46777H19.25" stroke="#3F3F3F" stroke-linecap="round" stroke-linejoin="round"/>
<path d="M14.75 6H19.25" stroke="#3F3F3F" stroke-linecap="round" stroke-linejoin="round"/>
<path d="M16.0156 6C16.5005 6 16.9655 6.20098 17.3083 6.55873C17.6511 6.91647 17.8438 7.40168 17.8438 7.90761C17.8438 8.41354 17.6511 8.89875 17.3083 9.25649C16.9655 9.61424 16.5005 9.81522 16.0156 9.81522H14.75L17.8438 12.75" stroke="#3F3F3F" stroke-linecap="round" stroke-linejoin="round"/>
<path d="M5.14844 16.7188C4.91127 16.7188 4.71875 16.9113 4.71875 17.1484C4.71875 17.3856 4.91127 17.5781 5.14844 17.5781C5.38561 17.5781 5.57813 17.3856 5.57813 17.1484C5.57813 16.9113 5.38561 16.7188 5.14844 16.7188Z" fill="#3F3F3F"/>
<path d="M14.0387 17.4792L14.0387 17.4792C14.0954 17.5112 14.1598 17.528 14.2251 17.528H17.0077C17.9832 17.528 18.7765 18.3214 18.7765 19.2967C18.7765 19.3745 18.7709 19.4514 18.7607 19.5271L22.7324 18.1617C22.7325 18.1616 22.7326 18.1616 22.7327 18.1616C23.5411 17.8717 24.4426 18.1863 24.8289 18.9012C25.351 19.867 24.9001 20.9647 23.9853 21.3363C23.9851 21.3364 23.9848 21.3365 23.9846 21.3366L15.9666 24.8671C15.9665 24.8671 15.9664 24.8672 15.9663 24.8672C15.243 25.1957 14.4737 25.3624 13.6798 25.3624C12.6777 25.3624 11.6942 25.0898 10.8351 24.5743L8.58793 23.2259C8.25205 23.0244 7.71716 22.8838 7.24273 22.8211C7.0401 23.3035 6.56271 23.6436 6.00782 23.6436H3.42969C3.16474 23.6436 2.95 23.4289 2.95 23.1639V15.4297C2.95 15.1647 3.16474 14.95 3.42969 14.95H6.00782C6.57731 14.95 7.06454 15.3073 7.25769 15.8092H10.269C10.7937 15.8092 11.3122 15.9452 11.7685 16.2024L14.0387 17.4792ZM14.0387 17.4792L11.7686 16.2024L14.0387 17.4792ZM7.34689 16.7688V21.8671C7.92954 21.9414 8.60403 22.117 9.08148 22.4033L9.08149 22.4033L11.3288 23.7517L11.3288 23.7517C12.0387 24.1779 12.8516 24.403 13.6798 24.403C14.3367 24.403 14.9731 24.265 15.5717 23.9927L15.5721 23.9925L19.5895 22.2236L22.3506 21.0079L23.2605 20.6072L23.5154 20.495L23.5826 20.4654L23.5998 20.4578L23.6041 20.4559L23.6052 20.4554L23.6055 20.4553C23.6056 20.4553 23.6056 20.4553 23.6258 20.501L23.6056 20.4553L23.6069 20.4547L23.6069 20.4547C23.6092 20.4538 23.616 20.4509 23.6213 20.4489M7.34689 16.7688L13.5682 18.3153C13.768 18.4279 13.9953 18.4875 14.2251 18.4875H17.0077C17.4539 18.4875 17.8171 18.8505 17.8171 19.2969C17.8171 19.7415 17.4537 20.1063 17.0077 20.1063H12.6396C12.3747 20.1063 12.16 20.321 12.16 20.586C12.16 20.8508 12.3747 21.0655 12.6396 21.0655H17.0077C17.2964 21.0655 17.5806 20.9941 17.8332 20.8602L17.8332 20.8602L17.8444 20.8564L17.8881 20.8414L18.0539 20.7844L18.6455 20.581L20.441 19.9638L22.2369 19.3465L22.829 19.1429L23.0536 19.0657L23.0536 19.0657L23.0548 19.0653C23.4214 18.933 23.8283 19.0674 23.9849 19.3573C24.2267 19.8045 24.0268 20.2861 23.6213 20.4489M7.34689 16.7688H10.269C10.629 16.7688 10.9848 16.8619 11.298 17.0384L11.298 17.0384L13.5681 18.3152L7.34689 16.7688ZM23.6213 20.4489C23.6215 20.4488 23.6218 20.4487 23.622 20.4486L23.6394 20.4955L23.6208 20.4491C23.6209 20.449 23.6211 20.4489 23.6213 20.4489ZM8.61366 23.1831L10.8608 24.5314C11.7121 25.0423 12.6868 25.3124 13.6798 25.3124C14.4667 25.3124 15.229 25.1472 15.9459 24.8216L8.61366 23.1831ZM6.38751 22.3065C6.38657 22.5149 6.21643 22.6842 6.00782 22.6842H3.90938V15.9094H6.00782C6.21706 15.9094 6.38751 16.0797 6.38751 16.2891V22.3065Z" fill="#3F3F3F" stroke="#3F3F3F" stroke-width="0.1"/>
</svg>
