<svg width="43" height="23" viewBox="0 0 43 23" fill="none" xmlns="http://www.w3.org/2000/svg">
<path d="M22.0993 22.6528L25.9068 16.0442C25.9678 15.9384 25.9999 15.8184 26 15.6963C26.0001 15.5741 25.9682 15.454 25.9074 15.3482C25.8467 15.2423 25.7592 15.1544 25.6539 15.0933C25.5486 15.0322 25.4292 15 25.3075 15L17.6925 15C17.5709 15 17.4514 15.0322 17.3461 15.0933C17.2408 15.1544 17.1533 15.2423 17.0926 15.3482C17.0318 15.454 16.9999 15.5741 17 15.6963C17.0001 15.8184 17.0322 15.9384 17.0932 16.0442L20.9007 22.6528C20.9615 22.7584 21.0489 22.8461 21.1541 22.907C21.2593 22.9679 21.3786 23 21.5 23C21.6214 23 21.7407 22.9679 21.8459 22.907C21.9511 22.8461 22.0385 22.7584 22.0993 22.6528Z" fill="#3F3F3F"/>
<rect width="43" height="16" rx="3" fill="#3F3F3F"/>
</svg>
