<svg width="28" height="28" viewBox="0 0 28 28" fill="none" xmlns="http://www.w3.org/2000/svg">
<path d="M14 26C20.6274 26 26 20.6274 26 14C26 7.37258 20.6274 2 14 2C7.37258 2 2 7.37258 2 14C2 20.6274 7.37258 26 14 26Z" fill="#00C802"/>
<path fill-rule="evenodd" clip-rule="evenodd" d="M17.4697 19.5303C17.7626 19.8232 18.2374 19.8232 18.5303 19.5303C18.8232 19.2374 18.8232 18.7626 18.5303 18.4697L14.5303 14.4697L14 13.9393L13.4697 14.4697L9.46967 18.4697C9.17678 18.7626 9.17678 19.2374 9.46967 19.5303C9.76256 19.8232 10.2374 19.8232 10.5303 19.5303L14 16.0607L17.4697 19.5303ZM19.4697 14.5303C19.7626 14.8232 20.2374 14.8232 20.5303 14.5303C20.8232 14.2374 20.8232 13.7626 20.5303 13.4697L14.5303 7.46967L14 6.93934L13.4697 7.46967L7.46967 13.4697C7.17678 13.7626 7.17678 14.2374 7.46967 14.5303C7.76256 14.8232 8.23744 14.8232 8.53033 14.5303L14 9.06066L19.4697 14.5303Z" fill="white"/>
</svg>
