<svg width="20" height="20" viewBox="0 0 20 20" fill="none" xmlns="http://www.w3.org/2000/svg">
<path d="M20.0001 8.62069V9.31034L11.0346 18.6207H5.51733V10.3448H11.0346L15.5173 5.86206L15.3449 6.72413C15.3446 7.22722 15.5444 7.70976 15.9001 8.0655C16.2558 8.42124 16.7383 8.62097 17.2414 8.62065H20.0001V8.62069Z" fill="#7F8C8D"/>
<path d="M19.9999 8.62073V10.6897L17.9309 12.7587L11.0344 20H10.3447V17.931H11.0344L17.9309 10.6897L19.9999 8.62073Z" fill="#D1D4D1"/>
<path d="M20 0V1.03449L11.0345 9.65516H0V8.96551L8.96551 0H20Z" fill="#999B9B"/>
<path d="M4.48277 13.4483H4.82758V18.2759H0V17.931L4.48277 13.4483Z" fill="#7F8C8D"/>
<path d="M20 0V2.06898L11.0345 11.0345H10.6897V8.96551H11.0345L20 0Z" fill="#D1D4D1"/>
<path d="M6.55172 12.931V16.0345C6.55145 16.5376 6.75117 17.0201 7.10688 17.3758C7.46262 17.7316 7.94516 17.9313 8.44824 17.931H11.0345V20H0V17.931H2.58621C3.0893 17.9313 3.57184 17.7316 3.92758 17.3759C4.28332 17.0202 4.48305 16.5376 4.48273 16.0345V12.9311C4.48301 12.428 4.28328 11.9454 3.92758 11.5897C3.57184 11.234 3.0893 11.0342 2.58621 11.0346H0V8.96558H11.0345V11.0346H8.44828C7.9452 11.0343 7.46262 11.234 7.10691 11.5897C6.75117 11.9454 6.55145 12.428 6.55172 12.931Z" fill="#B8BFC6"/>
<path d="M8.27597 16.5344C8.18425 16.5353 8.09601 16.4992 8.03117 16.4344C7.96632 16.3695 7.93027 16.2813 7.93117 16.1896C7.93117 15.9991 8.08554 15.8447 8.27601 15.8447C8.46644 15.8447 8.62086 15.9991 8.62086 16.1896C8.62175 16.2813 8.5857 16.3695 8.52086 16.4344C8.45593 16.4992 8.36769 16.5353 8.27597 16.5344Z" fill="#95A5A5"/>
<path d="M9.31049 15.4515C9.17248 15.4516 9.04771 15.3693 8.99342 15.2424C8.93908 15.1155 8.96568 14.9684 9.06096 14.8686L9.4058 14.5073C9.49084 14.4181 9.61701 14.3811 9.73674 14.4102C9.85646 14.4393 9.95158 14.53 9.98627 14.6483C10.021 14.7665 9.9899 14.8943 9.90486 14.9834L9.56002 15.3448C9.49498 15.4131 9.40478 15.4517 9.31049 15.4515Z" fill="#95A5A5"/>
<path d="M10.6899 14.0066C10.5519 14.0066 10.4271 13.9243 10.3728 13.7974C10.3185 13.6706 10.3451 13.5235 10.4404 13.4236L10.7852 13.0623C10.9167 12.9245 11.135 12.9194 11.2728 13.0509C11.4106 13.1824 11.4158 13.4007 11.2843 13.5385L10.9394 13.8998C10.8744 13.9681 10.7842 14.0067 10.6899 14.0066Z" fill="#95A5A5"/>
<path d="M12.069 12.5616C11.931 12.5617 11.8063 12.4794 11.752 12.3525C11.6976 12.2256 11.7242 12.0785 11.8195 11.9787L12.1643 11.6174C12.2958 11.4796 12.5142 11.4744 12.652 11.6059C12.7898 11.7374 12.7949 11.9557 12.6634 12.0935L12.3186 12.4549C12.2535 12.5232 12.1633 12.5617 12.069 12.5616Z" fill="#95A5A5"/>
<path d="M13.4484 11.1166C13.3104 11.1167 13.1857 11.0344 13.1314 10.9075C13.077 10.7806 13.1036 10.6335 13.1989 10.5337L13.5437 10.1724C13.6752 10.0345 13.8936 10.0294 14.0314 10.1609C14.1692 10.2924 14.1743 10.5107 14.0428 10.6485L13.698 11.0099C13.6329 11.0782 13.5427 11.1168 13.4484 11.1166Z" fill="#95A5A5"/>
<path d="M14.8278 9.67233C14.7357 9.67202 14.6475 9.63476 14.583 9.56894C14.5176 9.50581 14.4814 9.41835 14.483 9.32749C14.4821 9.18741 14.5662 9.06073 14.6955 9.00702C14.8249 8.95331 14.9739 8.98319 15.0726 9.08268C15.1361 9.14846 15.1719 9.23608 15.1726 9.32753C15.1741 9.41839 15.1379 9.50581 15.0726 9.56897C15.0081 9.63476 14.9199 9.67202 14.8278 9.67233Z" fill="#95A5A5"/>
</svg>
