<svg width="28" height="28" viewBox="0 0 28 28" fill="none" xmlns="http://www.w3.org/2000/svg">
<path d="M4.94849 17.4103C4.71132 17.4103 4.5188 17.6028 4.5188 17.8399C4.5188 18.0771 4.71132 18.2696 4.94849 18.2696C5.18566 18.2696 5.37818 18.0771 5.37818 17.8399C5.37818 17.6028 5.18566 17.4103 4.94849 17.4103Z" fill="white"/>
<path d="M18.5608 20.2191L22.5324 18.8537C22.5325 18.8536 22.5326 18.8536 22.5327 18.8536C23.3412 18.5637 24.2427 18.8783 24.6289 19.5932C25.151 20.559 24.7001 21.6567 23.7854 22.0283C23.7851 22.0284 23.7849 22.0285 23.7847 22.0286L15.7666 25.5591C15.7665 25.5591 15.7664 25.5592 15.7663 25.5592C15.0431 25.8877 14.2737 26.0544 13.4798 26.0544C12.4778 26.0544 11.4942 25.7818 10.6351 25.2662L8.38798 23.9179C8.0521 23.7164 7.51721 23.5758 7.04278 23.5131C6.84015 23.9955 6.36276 24.3356 5.80787 24.3356H3.22974C2.96479 24.3356 2.75005 24.1209 2.75005 23.8559V16.1217C2.75005 15.8567 2.96479 15.642 3.22974 15.642H5.80787C6.37735 15.642 6.86459 15.9993 7.05774 16.5012H10.069C10.5937 16.5012 11.1123 16.6372 11.5686 16.8943L18.5608 20.2191ZM18.5608 20.2191C18.571 20.1434 18.5765 20.0665 18.5765 19.9887C18.5765 19.0134 17.7832 18.22 16.8078 18.22H14.0252C13.9599 18.22 13.8955 18.2032 13.8388 18.1712L13.8387 18.1712L11.5686 16.8944L18.5608 20.2191ZM23.4213 21.1409C23.416 21.1429 23.4093 21.1458 23.4069 21.1467L23.4069 21.1467L23.4057 21.1473L23.4258 21.193C23.4057 21.1473 23.4056 21.1473 23.4056 21.1473L23.4053 21.1474L23.4042 21.1479L23.3998 21.1498L23.3826 21.1574L23.3155 21.187L23.0605 21.2992L22.1507 21.6999L19.3896 22.9156L15.3722 24.6845L15.3718 24.6847C14.7732 24.957 14.1367 25.095 13.4798 25.095C12.6517 25.095 11.8388 24.8698 11.1289 24.4437L11.1288 24.4436L8.88154 23.0953L8.88153 23.0953C8.40408 22.809 7.72959 22.6334 7.14694 22.5591V17.4608H10.069C10.429 17.4608 10.7848 17.5539 11.098 17.7304L11.0981 17.7304L13.3682 19.0072C13.568 19.1199 13.7954 19.1795 14.0252 19.1795H16.8078C17.254 19.1795 17.6171 19.5425 17.6171 19.9889C17.6171 20.4335 17.2537 20.7983 16.8078 20.7983H12.4397C12.1747 20.7983 11.96 21.013 11.96 21.278C11.96 21.5427 12.1748 21.7575 12.4397 21.7575H16.8078C17.0965 21.7575 17.3807 21.6861 17.6332 21.5522L17.6333 21.5522L17.6445 21.5484L17.6882 21.5333L17.8539 21.4764L18.4456 21.273L20.241 20.6558L22.0369 20.0384L22.629 19.8349L22.8536 19.7577L22.8537 19.7577L22.8548 19.7573C23.2214 19.625 23.6283 19.7594 23.785 20.0492L23.8266 20.0267L23.785 20.0493C24.0268 20.4965 23.8269 20.9782 23.4213 21.1409ZM23.4213 21.1409C23.4216 21.1408 23.4218 21.1407 23.422 21.1406L23.4394 21.1875L23.4208 21.1411C23.421 21.141 23.4212 21.1409 23.4213 21.1409ZM6.18756 22.9985C6.18662 23.2068 6.01648 23.3762 5.80787 23.3762H3.70943V16.6014H5.80787C6.01711 16.6014 6.18756 16.7717 6.18756 16.9811V22.9985Z" fill="white" stroke="white" stroke-width="0.1"/>
<path d="M15.1864 10.7959C17.3846 7.36122 14.4537 3.92651 8.22538 4.26998C7.85901 10.109 11.5227 12.8568 15.1864 10.7959Z" fill="#00C802" stroke="white"/>
<path d="M18.0136 9.35013C15.8153 5.91542 18.7463 2.48071 24.9746 2.82418C25.3409 8.66319 21.6772 11.411 18.0136 9.35013Z" fill="#00C802" stroke="white"/>
<path d="M12.5233 8.92268C12.3225 8.73307 12.3135 8.41662 12.5031 8.21586C12.6927 8.01511 13.0092 8.00607 13.2099 8.19568L12.5233 8.92268ZM17.856 16.582C17.831 16.857 17.5878 17.0597 17.3128 17.0347C17.0378 17.0097 16.8351 16.7665 16.8601 16.4915L17.856 16.582ZM12.8666 8.55918C13.2099 8.19568 13.2099 8.19569 13.21 8.19571C13.21 8.19573 13.21 8.19576 13.2101 8.19579C13.2101 8.19586 13.2102 8.19597 13.2104 8.1961C13.2107 8.19638 13.2111 8.19678 13.2117 8.19732C13.2128 8.19839 13.2145 8.19999 13.2167 8.20209C13.2212 8.20631 13.2278 8.21257 13.2365 8.22078C13.2539 8.2372 13.2795 8.26141 13.3125 8.29265C13.3785 8.35511 13.474 8.44565 13.5925 8.55804C13.8294 8.78282 14.1578 9.09509 14.5239 9.44512C15.2552 10.1442 16.1407 10.9972 16.7476 11.6041L16.0405 12.3112C15.4423 11.7131 14.5641 10.8669 13.8329 10.168C13.4679 9.819 13.1404 9.5076 12.9042 9.28344C12.7861 9.17137 12.6908 9.08113 12.6251 9.01892C12.5922 8.98783 12.5667 8.96374 12.5495 8.94744C12.5409 8.93929 12.5343 8.93308 12.5299 8.92893C12.5277 8.92685 12.526 8.92528 12.5249 8.92423C12.5244 8.92371 12.524 8.92332 12.5237 8.92306C12.5236 8.92293 12.5235 8.92283 12.5234 8.92277C12.5234 8.92274 12.5233 8.92272 12.5233 8.9227C12.5233 8.92269 12.5233 8.92268 12.8666 8.55918ZM16.7476 11.6041C17.426 12.2826 17.7635 12.9942 17.8942 13.8262C18.0199 14.6267 17.9514 15.5325 17.856 16.582L16.8601 16.4915C16.9575 15.4202 17.0095 14.6389 16.9063 13.9813C16.808 13.3553 16.5671 12.8378 16.0405 12.3112L16.7476 11.6041Z" fill="white"/>
<path d="M20.6514 7.54457C20.8645 7.3689 20.8948 7.05377 20.7191 6.84071C20.5435 6.62765 20.2283 6.59734 20.0153 6.77301L20.6514 7.54457ZM16.6489 13.0973C16.7459 13.3559 17.0341 13.4869 17.2927 13.3899C17.5512 13.2929 17.6822 13.0047 17.5853 12.7462L16.6489 13.0973ZM20.3333 7.15879C20.0153 6.77301 20.0153 6.77303 20.0152 6.77305C20.0152 6.77307 20.0152 6.7731 20.0151 6.77313C20.015 6.77321 20.0149 6.77331 20.0147 6.77345C20.0144 6.77373 20.0139 6.77414 20.0133 6.77467C20.012 6.77574 20.01 6.77732 20.0075 6.77939C20.0025 6.78354 19.9951 6.78968 19.9854 6.79768C19.9661 6.81368 19.9377 6.83715 19.9015 6.86715C19.8292 6.92716 19.7255 7.01335 19.5999 7.11824C19.349 7.32794 19.0101 7.61286 18.6594 7.91318C18.3091 8.21307 17.9445 8.53038 17.643 8.80433C17.3562 9.06487 17.0869 9.32099 16.9616 9.48415L17.7547 10.0932C17.8144 10.0154 18.0096 9.82228 18.3154 9.54452C18.6064 9.28018 18.9625 8.97014 19.3097 8.6728C19.6565 8.3759 19.9921 8.09372 20.2411 7.88562C20.3656 7.78162 20.4683 7.69623 20.5399 7.6369C20.5756 7.60723 20.6036 7.58408 20.6226 7.56838C20.6321 7.56053 20.6393 7.55455 20.6442 7.55054C20.6466 7.54854 20.6485 7.54703 20.6497 7.54603C20.6503 7.54553 20.6507 7.54515 20.651 7.54491C20.6512 7.54479 20.6513 7.5447 20.6513 7.54464C20.6514 7.54461 20.6514 7.5446 20.6514 7.54458C20.6514 7.54457 20.6514 7.54457 20.3333 7.15879ZM16.9616 9.48415C16.7781 9.72302 16.4696 10.1037 16.339 10.7072C16.2085 11.3099 16.2649 12.0733 16.6489 13.0973L17.5853 12.7462C17.2463 11.8422 17.2381 11.28 17.3164 10.9188C17.3944 10.5582 17.5679 10.3364 17.7547 10.0932L16.9616 9.48415Z" fill="white"/>
</svg>
