<svg width="28" height="28" viewBox="0 0 28 28" fill="none" xmlns="http://www.w3.org/2000/svg">
<path d="M4.94843 17.4102C4.71127 17.4102 4.51875 17.6027 4.51875 17.8398C4.51875 18.077 4.71127 18.2695 4.94843 18.2695C5.1856 18.2695 5.37812 18.077 5.37812 17.8398C5.37812 17.6027 5.1856 17.4102 4.94843 17.4102Z" fill="#3F3F3F"/>
<path d="M13.8386 18.1711L13.8387 18.1711C13.8954 18.2031 13.9598 18.2199 14.0251 18.2199H16.8077C17.7831 18.2199 18.5764 19.0133 18.5764 19.9886C18.5764 20.0664 18.5709 20.1433 18.5607 20.219L22.5324 18.8536C22.5325 18.8535 22.5326 18.8535 22.5327 18.8535C23.3411 18.5636 24.2426 18.8782 24.6289 19.5931C25.151 20.5589 24.7001 21.6566 23.7853 22.0282C23.7851 22.0283 23.7848 22.0284 23.7846 22.0285L15.7666 25.559C15.7665 25.559 15.7664 25.5591 15.7663 25.5591C15.043 25.8876 14.2737 26.0543 13.4798 26.0543C12.4777 26.0543 11.4941 25.7817 10.6351 25.2661L8.38792 23.9178C8.05203 23.7163 7.51715 23.5757 7.04272 23.513C6.84009 23.9954 6.3627 24.3355 5.80781 24.3355H3.22968C2.96473 24.3355 2.74999 24.1208 2.74999 23.8558V16.1216C2.74999 15.8566 2.96473 15.6419 3.22968 15.6419H5.80781C6.37729 15.6419 6.86453 15.9992 7.05768 16.5011H10.069C10.5937 16.5011 11.1122 16.6371 11.5685 16.8942L13.8386 18.1711ZM13.8386 18.1711L11.5685 16.8943L13.8386 18.1711ZM7.14688 17.4607V22.559C7.72953 22.6333 8.40402 22.8089 8.88147 23.0952L8.88148 23.0952L11.1288 24.4435L11.1288 24.4436C11.8387 24.8697 12.6516 25.0949 13.4798 25.0949C14.1366 25.0949 14.7731 24.9569 15.3717 24.6846L15.3721 24.6844L19.3895 22.9155L22.1506 21.6998L23.0605 21.2991L23.3154 21.1869L23.3826 21.1573L23.3998 21.1497L23.4041 21.1478L23.4052 21.1473L23.4055 21.1472C23.4056 21.1472 23.4056 21.1472 23.4257 21.1929L23.4056 21.1472L23.4069 21.1466L23.4069 21.1466C23.4092 21.1457 23.416 21.1428 23.4213 21.1408M7.14688 17.4607L13.3682 19.0072C13.568 19.1198 13.7953 19.1794 14.0251 19.1794H16.8077C17.2539 19.1794 17.6171 19.5424 17.6171 19.9888C17.6171 20.4334 17.2537 20.7982 16.8077 20.7982H12.4396C12.1747 20.7982 11.9599 21.0129 11.9599 21.2779C11.9599 21.5426 12.1747 21.7574 12.4396 21.7574H16.8077C17.0964 21.7574 17.3806 21.686 17.6332 21.5521L17.6332 21.5521L17.6444 21.5483L17.6881 21.5332L17.8539 21.4763L18.4455 21.2729L20.241 20.6557L22.0368 20.0383L22.629 19.8348L22.8536 19.7576L22.8536 19.7576L22.8548 19.7572C23.2214 19.6249 23.6283 19.7593 23.7849 20.0491C24.0267 20.4964 23.8268 20.978 23.4213 21.1408M7.14688 17.4607H10.069C10.429 17.4607 10.7847 17.5538 11.098 17.7303L11.098 17.7303L13.3681 19.0071L7.14688 17.4607ZM23.4213 21.1408C23.4215 21.1407 23.4217 21.1406 23.422 21.1405L23.4393 21.1874L23.4208 21.141C23.4209 21.1409 23.4211 21.1408 23.4213 21.1408ZM8.41364 23.875L10.6608 25.2233C11.5121 25.7342 12.4868 26.0043 13.4798 26.0043C14.2666 26.0043 15.029 25.8391 15.7459 25.5135L8.41364 23.875ZM6.1875 22.9984C6.18655 23.2067 6.01642 23.3761 5.80781 23.3761H3.70937V16.6013H5.80781C6.01704 16.6013 6.1875 16.7716 6.1875 16.981V22.9984Z" fill="#3F3F3F" stroke="#3F3F3F" stroke-width="0.1"/>
<path d="M15.1863 10.7958C17.3845 7.36112 14.4536 3.92641 8.22532 4.26988C7.85895 10.1089 11.5226 12.8567 15.1863 10.7958Z" fill="#CCECD3" stroke="#3F3F3F"/>
<path d="M18.0136 9.35003C15.8153 5.91532 18.7463 2.48061 24.9746 2.82408C25.3409 8.66309 21.6772 11.4109 18.0136 9.35003Z" fill="#CCECD3" stroke="#3F3F3F"/>
<path d="M12.5233 8.92258C12.3226 8.73297 12.3136 8.41652 12.5032 8.21576C12.6928 8.01501 13.0092 8.00597 13.21 8.19558L12.5233 8.92258ZM17.856 16.5819C17.831 16.8569 17.5878 17.0596 17.3128 17.0346C17.0378 17.0096 16.8351 16.7664 16.8601 16.4914L17.856 16.5819ZM12.8667 8.55908C13.21 8.19558 13.21 8.19559 13.21 8.19561C13.21 8.19563 13.2101 8.19566 13.2101 8.19569C13.2102 8.19576 13.2103 8.19587 13.2104 8.196C13.2107 8.19628 13.2111 8.19668 13.2117 8.19722C13.2129 8.19829 13.2145 8.19989 13.2168 8.202C13.2212 8.20621 13.2279 8.21247 13.2365 8.22068C13.2539 8.2371 13.2795 8.26132 13.3125 8.29255C13.3785 8.35501 13.4741 8.44555 13.5925 8.55794C13.8294 8.78272 14.1578 9.09499 14.524 9.44502C15.2553 10.1441 16.1407 10.9971 16.7476 11.604L16.0405 12.3111C15.4424 11.713 14.5642 10.8668 13.833 10.1679C13.4679 9.8189 13.1404 9.5075 12.9042 9.28334C12.7861 9.17127 12.6908 9.08103 12.6251 9.01883C12.5922 8.98773 12.5668 8.96364 12.5495 8.94734C12.5409 8.93919 12.5344 8.93299 12.53 8.92883C12.5278 8.92675 12.5261 8.92518 12.525 8.92413C12.5244 8.92361 12.524 8.92322 12.5237 8.92296C12.5236 8.92283 12.5235 8.92273 12.5234 8.92267C12.5234 8.92264 12.5234 8.92262 12.5234 8.9226C12.5234 8.92259 12.5233 8.92258 12.8667 8.55908ZM16.7476 11.604C17.4261 12.2825 17.7636 12.9941 17.8942 13.8261C18.0199 14.6266 17.9514 15.5324 17.856 16.5819L16.8601 16.4914C16.9575 15.4201 17.0096 14.6388 16.9063 13.9812C16.808 13.3552 16.5671 12.8377 16.0405 12.3111L16.7476 11.604Z" fill="#3F3F3F"/>
<path d="M20.6514 7.54447C20.8645 7.3688 20.8948 7.05367 20.7191 6.84061C20.5434 6.62755 20.2283 6.59724 20.0153 6.77291L20.6514 7.54447ZM16.6489 13.0972C16.7459 13.3558 17.0341 13.4868 17.2927 13.3898C17.5512 13.2928 17.6822 13.0046 17.5853 12.7461L16.6489 13.0972ZM20.3333 7.15869C20.0153 6.77291 20.0152 6.77293 20.0152 6.77295C20.0152 6.77297 20.0152 6.773 20.0151 6.77304C20.015 6.77311 20.0149 6.77322 20.0147 6.77335C20.0144 6.77363 20.0139 6.77404 20.0132 6.77457C20.0119 6.77564 20.01 6.77722 20.0075 6.7793C20.0025 6.78344 19.9951 6.78958 19.9854 6.79758C19.966 6.81358 19.9377 6.83705 19.9015 6.86705C19.8291 6.92706 19.7255 7.01325 19.5999 7.11814C19.3489 7.32784 19.0101 7.61276 18.6593 7.91309C18.3091 8.21297 17.9445 8.53028 17.6429 8.80423C17.3561 9.06477 17.0869 9.32089 16.9616 9.48405L17.7547 10.0931C17.8144 10.0153 18.0096 9.82218 18.3154 9.54442C18.6063 9.28008 18.9624 8.97004 19.3097 8.6727C19.6565 8.3758 19.9921 8.09362 20.2411 7.88552C20.3656 7.78152 20.4683 7.69613 20.5399 7.6368C20.5756 7.60713 20.6036 7.58398 20.6226 7.56828C20.6321 7.56043 20.6393 7.55445 20.6442 7.55044C20.6466 7.54844 20.6484 7.54693 20.6496 7.54593C20.6503 7.54543 20.6507 7.54505 20.651 7.54481C20.6511 7.54469 20.6513 7.5446 20.6513 7.54454C20.6514 7.54452 20.6514 7.5445 20.6514 7.54448C20.6514 7.54447 20.6514 7.54447 20.3333 7.15869ZM16.9616 9.48405C16.7781 9.72292 16.4696 10.1036 16.339 10.7071C16.2085 11.3098 16.2649 12.0732 16.6489 13.0972L17.5853 12.7461C17.2463 11.8421 17.2381 11.2799 17.3163 10.9187C17.3944 10.5581 17.5679 10.3363 17.7547 10.0931L16.9616 9.48405Z" fill="#3F3F3F"/>
</svg>
