<svg width="30" height="30" viewBox="0 0 30 30" fill="none" xmlns="http://www.w3.org/2000/svg">
<path d="M15 19C18.866 19 22 15.866 22 12C22 8.13401 18.866 5 15 5C11.134 5 8 8.13401 8 12C8 15.866 11.134 19 15 19Z" fill="#00C802" stroke="#00C802" stroke-width="1.2" stroke-linecap="round" stroke-linejoin="round"/>
<path d="M5 25C6.01334 23.1758 7.47096 21.6609 9.22634 20.6077C10.9817 19.5545 12.973 19 15 19C17.027 19 19.0183 19.5545 20.7737 20.6077C22.529 21.6609 23.9867 23.1758 25 25" fill="#00C802"/>
<path d="M5 25C6.01334 23.1758 7.47096 21.6609 9.22634 20.6077C10.9817 19.5545 12.973 19 15 19C17.027 19 19.0183 19.5545 20.7737 20.6077C22.529 21.6609 23.9867 23.1758 25 25" stroke="#00C802" stroke-width="1.2" stroke-linecap="round" stroke-linejoin="round"/>
</svg>
