<svg width="28" height="28" viewBox="0 0 28 28" fill="none" xmlns="http://www.w3.org/2000/svg">
<path d="M14 24.5C19.799 24.5 24.5 19.799 24.5 14C24.5 8.20101 19.799 3.5 14 3.5C8.20101 3.5 3.5 8.20101 3.5 14C3.5 19.799 8.20101 24.5 14 24.5Z" stroke="white" stroke-linecap="round" stroke-linejoin="round"/>
<path d="M14 20.125C14.4832 20.125 14.875 19.7332 14.875 19.25C14.875 18.7668 14.4832 18.375 14 18.375C13.5168 18.375 13.125 18.7668 13.125 19.25C13.125 19.7332 13.5168 20.125 14 20.125Z" fill="#00C802"/>
<path d="M14 16.625V14.875C14.6057 14.875 15.1978 14.6954 15.7014 14.3589C16.2051 14.0224 16.5976 13.5441 16.8294 12.9845C17.0612 12.4249 17.1218 11.8091 17.0037 11.215C16.8855 10.621 16.5938 10.0753 16.1655 9.64699C15.7372 9.21869 15.1915 8.92701 14.5975 8.80885C14.0034 8.69068 13.3876 8.75133 12.828 8.98312C12.2684 9.21491 11.7901 9.60744 11.4536 10.1111C11.1171 10.6147 10.9375 11.2068 10.9375 11.8125" stroke="#00C802" stroke-linecap="round" stroke-linejoin="round"/>
</svg>
