<svg width="224" height="150" viewBox="0 0 224 150" fill="none" xmlns="http://www.w3.org/2000/svg">
<path d="M180.543 74.8959L180.543 74.8959C177.802 75.3065 175.911 77.8427 176.325 80.5618C176.739 83.2806 179.297 85.1501 182.038 84.7395C184.779 84.3288 186.671 81.7928 186.257 79.0737C185.846 76.3516 183.287 74.4853 180.543 74.8959Z" fill="#00C802" stroke="#263238" stroke-width="0.3"/>
<path d="M182.841 79.0313L182.707 79.489H180L180.134 79.0313H182.841ZM181.628 82.2178L180.085 80.4275L180.082 80.0683H180.793C181 80.0683 181.17 80.0345 181.304 79.9669C181.44 79.8974 181.542 79.8038 181.61 79.686C181.678 79.5681 181.712 79.4359 181.712 79.2891C181.712 79.1249 181.68 78.9811 181.616 78.8575C181.552 78.7319 181.451 78.6344 181.313 78.5649C181.177 78.4934 180.998 78.4577 180.776 78.4577H180.006L180.143 78H180.776C181.114 78 181.393 78.0512 181.613 78.1535C181.835 78.254 182 78.4007 182.109 78.5938C182.218 78.787 182.272 79.0206 182.272 79.2949C182.272 79.5305 182.227 79.742 182.135 79.9293C182.046 80.1147 181.897 80.2605 181.689 80.3667C181.483 80.4729 181.205 80.526 180.855 80.526L182.29 82.183V82.2178H181.628ZM182.841 78L182.707 78.4577H180.525L180.659 78H182.841Z" fill="white"/>
<path d="M88.1993 3.03771L88.1993 3.03772C81.593 4.03646 77.0402 10.2029 78.0369 16.8084C79.0335 23.4138 85.1944 27.9612 91.8008 26.9625C98.407 25.9637 102.96 19.7973 101.963 13.1919C100.974 6.57875 94.813 2.03898 88.1993 3.03771Z" fill="white" stroke="#263238" stroke-width="0.2"/>
<path d="M88.5149 4.9902L88.5149 4.99021C82.9376 5.8257 79.0922 10.9849 79.9339 16.5134C80.7757 22.0415 85.9785 25.8454 91.5556 25.0099C97.1328 24.1744 100.978 19.0152 100.137 13.4868C99.3011 7.95218 94.0981 4.15477 88.5149 4.9902Z" fill="#00C802" stroke="#263238" stroke-width="0.25"/>
<path d="M93.246 13.3712L92.968 14.3191H87.3613L87.6392 13.3712H93.246ZM90.7326 19.9707L87.5365 16.263L87.5305 15.5191H89.0047C89.4316 15.5191 89.7841 15.4491 90.062 15.3091C90.3439 15.1651 90.5554 14.9711 90.6964 14.7271C90.8373 14.4831 90.9078 14.2091 90.9078 13.9052C90.9078 13.5652 90.8414 13.2672 90.7084 13.0112C90.5755 12.7512 90.3661 12.5493 90.0801 12.4053C89.7982 12.2573 89.4276 12.1833 88.9684 12.1833H87.3734L87.6574 11.2354H88.9684C89.6693 11.2354 90.2473 11.3413 90.7024 11.5533C91.1616 11.7613 91.5039 12.0653 91.7295 12.4653C91.9551 12.8652 92.0678 13.3492 92.0678 13.9172C92.0678 14.4051 91.9732 14.8431 91.7839 15.2311C91.5986 15.615 91.2905 15.917 90.8595 16.137C90.4325 16.357 89.8566 16.467 89.1316 16.467L92.1041 19.8987V19.9707H90.7326ZM93.246 11.2354L92.968 12.1833H88.4488L88.7268 11.2354H93.246Z" fill="white"/>
<path d="M32.123 101C32.6768 104.661 36.123 107.176 39.8126 106.624C43.5053 106.071 46.0505 102.659 45.4936 98.9982C44.9367 95.3374 41.4936 92.8218 37.804 93.3743C34.1111 93.9269 31.5692 97.3387 32.123 101Z" fill="#00C802" stroke="#263238" stroke-width="0.3"/>
<path d="M40.6258 98.6208L40.4541 99.2065H36.9902L37.1619 98.6208H40.6258ZM39.073 102.698L37.0985 100.407L37.0947 99.9478H38.0055C38.2693 99.9478 38.487 99.9045 38.6587 99.818C38.8329 99.7291 38.9635 99.6092 39.0506 99.4585C39.1377 99.3078 39.1813 99.1385 39.1813 98.9507C39.1813 98.7407 39.1402 98.5566 39.0581 98.3984C38.976 98.2378 38.8466 98.113 38.6699 98.0241C38.4957 97.9326 38.2668 97.8869 37.9831 97.8869H36.9977L37.1731 97.3013H37.9831C38.4161 97.3013 38.7732 97.3668 39.0544 97.4977C39.3381 97.6262 39.5496 97.814 39.6889 98.0611C39.8283 98.3082 39.8979 98.6072 39.8979 98.9581C39.8979 99.2596 39.8395 99.5302 39.7225 99.7699C39.608 100.007 39.4177 100.194 39.1514 100.33C38.8877 100.465 38.5318 100.533 38.0839 100.533L39.9203 102.654V102.698H39.073ZM40.6258 97.3013L40.4541 97.8869H37.6621L37.8338 97.3013H40.6258Z" fill="white"/>
<path d="M222.847 144.076C222.847 144.247 175.063 144.394 116.129 144.394C57.1715 144.394 9.39648 144.247 9.39648 144.076C9.39648 143.904 57.1715 143.757 116.129 143.757C175.058 143.757 222.847 143.892 222.847 144.076Z" fill="#263238"/>
<path d="M137.207 58.04H135.063C134.534 58.04 134.105 57.6143 134.105 57.0889V54.9603C134.105 54.435 134.534 54.0093 135.063 54.0093H137.207C137.736 54.0093 138.164 54.435 138.164 54.9603V57.0889C138.164 57.6143 137.736 58.04 137.207 58.04Z" fill="white"/>
<path d="M55.0581 51.326L53.0484 51.0844C51.7744 51.9298 50.2329 52.4099 48.5637 52.3676C44.6293 52.268 41.3548 49.1551 41.0781 45.2542C40.7588 40.7495 44.4043 36.9362 48.9833 37.0539C52.872 37.1536 56.1192 40.194 56.4537 44.0435C56.6179 45.9547 56.0706 47.7421 55.0368 49.1702L55.0399 49.1672L55.0581 51.326Z" fill="white"/>
<path d="M55.0601 51.3242C55.0601 51.3242 55.057 51.2729 55.054 51.1793C55.0509 51.0797 55.0479 50.9408 55.0449 50.7626C55.0388 50.3943 55.0266 49.8599 55.0145 49.1685L55.0601 49.1896L55.057 49.1926C55.0449 49.2017 55.0266 49.2017 55.0175 49.1896C55.0084 49.1805 55.0084 49.1654 55.0175 49.1564C55.5648 48.3835 56.1729 47.2392 56.3705 45.7446C56.4708 45.0019 56.4587 44.1806 56.3067 43.3262C56.1455 42.4748 55.8202 41.5962 55.3094 40.7659C54.7955 39.9416 54.0932 39.1717 53.2267 38.5527C52.3601 37.9368 51.3325 37.4568 50.2044 37.2545C49.0825 37.0461 47.8724 37.0884 46.7079 37.4054C45.5404 37.7164 44.4336 38.3474 43.5245 39.2049C43.0502 39.6276 42.6702 40.1348 42.3205 40.6451C42.1655 40.9138 42.0043 41.1795 41.8736 41.4543L41.6911 41.877L41.5999 42.0883L41.533 42.3057C41.1469 43.456 41.0587 44.6667 41.2168 45.802C41.3689 46.9433 41.8158 47.9909 42.4057 48.8816C42.9985 49.7723 43.7526 50.503 44.5705 51.0464C45.3914 51.5869 46.2701 51.9432 47.1245 52.1364C47.3403 52.1726 47.5532 52.2119 47.763 52.2481C47.9727 52.2783 48.1825 52.2843 48.3862 52.3025C48.7937 52.3326 49.1889 52.3145 49.5659 52.2813C51.0801 52.1334 52.2507 51.5688 53.0382 51.0585C53.0442 51.0555 53.0503 51.0525 53.0564 51.0555C53.6949 51.14 54.1935 51.2034 54.5371 51.2487C54.7043 51.2729 54.832 51.288 54.9263 51.3031C55.0114 51.3152 55.0601 51.3242 55.0601 51.3242C55.0601 51.3242 55.0175 51.3212 54.9324 51.3152C54.8412 51.3061 54.7135 51.291 54.5493 51.2759C54.1996 51.2367 53.6949 51.1823 53.0473 51.1129L53.0655 51.1098C52.2811 51.6352 51.1044 52.2149 49.572 52.3749C49.192 52.4111 48.7906 52.4353 48.3771 52.4051C48.1704 52.387 47.9575 52.384 47.7447 52.3538C47.5319 52.3175 47.316 52.2813 47.0971 52.2451C46.2275 52.0549 45.3367 51.6986 44.5005 51.1521C43.6675 50.6026 42.9013 49.8629 42.2932 48.9601C41.6911 48.0574 41.232 46.9886 41.077 45.8292C40.9158 44.6728 41.001 43.4439 41.3962 42.2695L41.4662 42.049L41.5574 41.8347C41.6182 41.6928 41.682 41.5479 41.7428 41.4059C41.8766 41.1252 42.0408 40.8534 42.1989 40.5817C42.5546 40.0594 42.9438 39.5461 43.4242 39.1143C44.3516 38.2387 45.4796 37.5987 46.6684 37.2816C47.8542 36.9586 49.0825 36.9193 50.2257 37.1337C51.375 37.339 52.4179 37.8311 53.2966 38.4592C54.1753 39.0902 54.8868 39.8722 55.4036 40.7115C55.9175 41.5539 56.2458 42.4476 56.4039 43.3111C56.556 44.1776 56.5621 45.0079 56.4556 45.7597C56.2458 47.2724 55.6195 48.4227 55.0601 49.1926L55.0205 49.1534L55.0236 49.1503C55.0357 49.1413 55.054 49.1413 55.0631 49.1534C55.0661 49.1594 55.0692 49.1654 55.0692 49.1715C55.0692 49.8689 55.0661 50.4094 55.0661 50.7807C55.0661 50.9559 55.0631 51.0917 55.0631 51.1914C55.0631 51.2789 55.0601 51.3242 55.0601 51.3242Z" fill="#263238"/>
<path d="M45.3535 45.1922L46.3204 44.1656L48.3058 45.8021L51.9696 42.0552L52.9334 43.0183L48.2298 47.7223L45.3535 45.1922Z" fill="#00C802"/>
<path d="M157.512 26.9114L159.522 26.6699C160.796 27.5153 162.337 27.9953 164.007 27.9531C167.941 27.8534 171.216 24.7406 171.492 20.8397C171.811 16.3349 168.166 12.5216 163.587 12.6394C159.698 12.739 156.451 15.7794 156.117 19.629C155.952 21.5402 156.5 23.3276 157.533 24.7557L157.53 24.7526L157.512 26.9114Z" fill="white"/>
<path d="M157.51 26.9097C157.51 26.9097 157.513 26.8583 157.516 26.7647C157.519 26.6651 157.522 26.5262 157.525 26.3481C157.532 25.9797 157.544 25.4453 157.556 24.7539L157.51 24.775L157.513 24.7781C157.525 24.7871 157.544 24.7871 157.553 24.775C157.562 24.766 157.562 24.7509 157.553 24.7418C157.006 23.9689 156.397 22.8246 156.2 21.3301C156.099 20.5873 156.112 19.7661 156.264 18.9116C156.425 18.0602 156.75 17.1816 157.261 16.3513C157.775 15.5271 158.477 14.7571 159.344 14.1382C160.21 13.5223 161.238 13.0422 162.366 12.8399C163.488 12.6316 164.698 12.6739 165.862 12.9909C167.03 13.3019 168.137 13.9329 169.046 14.7904C169.52 15.2131 169.9 15.7203 170.25 16.2305C170.405 16.4993 170.566 16.765 170.697 17.0397L170.879 17.4624L170.97 17.6737L171.037 17.8911C171.423 19.0415 171.512 20.2522 171.353 21.3874C171.201 22.5287 170.755 23.5764 170.165 24.4671C169.572 25.3578 168.818 26.0884 168 26.6319C167.179 27.1723 166.3 27.5286 165.446 27.7218C165.23 27.7581 165.017 27.7973 164.807 27.8336C164.598 27.8637 164.388 27.8698 164.184 27.8879C163.777 27.9181 163.381 27.9 163.004 27.8668C161.49 27.7188 160.32 27.1542 159.532 26.644C159.526 26.6409 159.52 26.6379 159.514 26.6409C158.875 26.7255 158.377 26.7889 158.033 26.8342C157.866 26.8583 157.738 26.8734 157.644 26.8885C157.559 26.9006 157.51 26.9097 157.51 26.9097C157.51 26.9097 157.553 26.9066 157.638 26.9006C157.729 26.8915 157.857 26.8765 158.021 26.8614C158.371 26.8221 158.875 26.7678 159.523 26.6983L159.505 26.6953C160.289 27.2206 161.466 27.8003 162.998 27.9604C163.378 27.9966 163.78 28.0207 164.193 27.9906C164.4 27.9724 164.613 27.9694 164.826 27.9392C165.038 27.903 165.254 27.8668 165.473 27.8305C166.343 27.6403 167.234 27.2841 168.07 26.7376C168.903 26.1881 169.669 25.4483 170.277 24.5456C170.879 23.6428 171.338 22.574 171.493 21.4146C171.654 20.2582 171.569 19.0294 171.174 17.8549L171.104 17.6345L171.013 17.4201C170.952 17.2782 170.888 17.1333 170.827 16.9914C170.694 16.7106 170.53 16.4389 170.371 16.1671C170.016 15.6448 169.626 15.1315 169.146 14.6998C168.219 13.8242 167.091 13.1841 165.902 12.8671C164.716 12.544 163.488 12.5048 162.345 12.7191C161.195 12.9245 160.152 13.4166 159.274 14.0446C158.395 14.6756 157.684 15.4576 157.167 16.297C156.653 17.1393 156.324 18.033 156.166 18.8965C156.014 19.7631 156.008 20.5934 156.115 21.3452C156.324 22.8578 156.951 24.0082 157.51 24.7781L157.55 24.7388L157.547 24.7358C157.535 24.7267 157.516 24.7267 157.507 24.7388C157.504 24.7449 157.501 24.7509 157.501 24.7569C157.501 25.4544 157.504 25.9948 157.504 26.3662C157.504 26.5413 157.507 26.6772 157.507 26.7768C157.507 26.8644 157.51 26.9097 157.51 26.9097Z" fill="#263238"/>
<path d="M163.916 16.7919L163.884 16.7684C163.776 16.6903 163.64 16.6472 163.499 16.6472C163.358 16.6472 163.222 16.6903 163.114 16.7684L160.301 18.8008L163.916 16.7919ZM163.916 16.7919L163.917 16.7914M163.916 16.7919L163.917 16.7914M163.917 16.7914L166.697 18.8009L166.697 18.8009C166.849 18.9108 166.879 19.0712 166.826 19.2046C166.772 19.3391 166.631 19.4503 166.431 19.4503H166.311H166.261V19.5003V21.6003V21.6326L166.291 21.6459C166.61 21.7906 166.824 22.0835 166.824 22.4168V22.7503C166.824 22.8014 166.801 22.8517 166.758 22.8898C166.715 22.928 166.656 22.9503 166.593 22.9503H160.405C160.342 22.9503 160.283 22.928 160.24 22.8898C160.197 22.8517 160.174 22.8014 160.174 22.7503V22.4168C160.174 22.0831 160.388 21.7906 160.707 21.6459L160.736 21.6326V21.6003V19.5003V19.4503H160.686H160.567C160.367 19.4503 160.226 19.3392 160.172 19.2048C160.119 19.0715 160.149 18.911 160.301 18.8009L163.917 16.7914ZM163.5 17.0473C163.497 17.0473 163.493 17.0474 163.49 17.0475V17.0175L163.411 17.0748L160.802 18.9598L160.677 19.0503H160.832H166.166H166.32L166.195 18.9598L163.588 17.0753L163.588 17.0752C163.562 17.0568 163.531 17.0473 163.5 17.0473ZM165.749 21.5503H165.799V21.5003V19.5003V19.4503H165.749H165.186H165.136V19.5003V21.5003V21.5503H165.186H165.749ZM164.624 21.5503H164.674V21.5003V19.5003V19.4503H164.624H163.78H163.73V19.5003V21.5003V21.5503H163.78H164.624ZM163.218 21.5503H163.268V21.5003V19.5003V19.4503H163.218H162.374H162.324V19.5003V21.5003V21.5503H162.374H163.218ZM166.311 22.5503H166.361V22.5003V22.4168C166.361 22.1539 166.124 21.9503 165.843 21.9503H161.155C160.874 21.9503 160.636 22.1539 160.636 22.4168V22.5003V22.5503H160.686H166.311ZM161.811 21.5503H161.861V21.5003V19.5003V19.4503H161.811H161.249H161.199V19.5003V21.5003V21.5503H161.249H161.811ZM163.764 18.3531C163.695 18.4148 163.599 18.4503 163.499 18.4503C163.399 18.4503 163.303 18.4148 163.234 18.3531C163.165 18.2916 163.127 18.2095 163.127 18.1253C163.127 18.0412 163.165 17.9591 163.234 17.8976C163.303 17.8359 163.399 17.8003 163.499 17.8003C163.599 17.8003 163.695 17.8359 163.764 17.8976C163.833 17.9591 163.871 18.0412 163.871 18.1253C163.871 18.2095 163.833 18.2916 163.764 18.3531Z" fill="#00C802" stroke="white" stroke-width="0.1"/>
<path d="M75.0452 39.8298C74.58 36.8438 71.8862 34.7152 68.8548 34.9356L68.5538 34.9567C65.3188 35.3794 63.8715 38.3473 64.3884 41.5478L65.5164 52.9062L65.5711 55.2552L73.2787 55.9496L73.1145 50.992C73.1145 50.992 76.2037 50.2825 76.0151 47.1787C75.9179 45.6781 75.477 42.6075 75.0452 39.8298Z" fill="#FFBF9D" stroke="#263238" stroke-width="0.2" stroke-miterlimit="10"/>
<path opacity="0.1" d="M73.1356 50.9752C73.1356 50.9752 71.1502 51.2379 68.955 50.0815C68.955 50.0815 70.0404 52.3218 73.1387 51.8146L73.1356 50.9752Z" fill="#263238"/>
<path d="M73.82 42.912C73.8443 43.1445 73.668 43.3589 73.4217 43.3891C73.1785 43.4193 72.9596 43.2562 72.9322 43.0238C72.9079 42.7913 73.0842 42.5769 73.3275 42.5467C73.5768 42.5135 73.7957 42.6796 73.82 42.912Z" fill="#263238"/>
<path d="M74.47 41.3944C74.4183 41.4548 74.0626 41.2314 73.5822 41.2676C73.1018 41.2978 72.7673 41.5665 72.7126 41.5122C72.6853 41.488 72.7339 41.3793 72.8798 41.2585C73.0228 41.1378 73.2721 41.011 73.5731 40.9898C73.871 40.9687 74.1325 41.0623 74.2845 41.1619C74.4396 41.2646 74.4974 41.3672 74.47 41.3944Z" fill="#263238"/>
<path d="M69.3454 43.3417C69.3697 43.5742 69.1934 43.7886 68.9471 43.8188C68.7039 43.849 68.485 43.6859 68.4576 43.4534C68.4333 43.221 68.6096 43.0066 68.8559 42.9764C69.1022 42.9432 69.3211 43.1092 69.3454 43.3417Z" fill="#263238"/>
<path d="M69.7857 41.8207C69.734 41.8811 69.3782 41.6576 68.8978 41.6939C68.4175 41.7241 68.083 41.9928 68.0283 41.9384C68.0009 41.9143 68.0496 41.8056 68.1955 41.6848C68.3384 41.564 68.5877 41.4372 68.8857 41.4161C69.1836 41.395 69.4451 41.4886 69.5972 41.5882C69.7522 41.6939 69.81 41.7935 69.7857 41.8207Z" fill="#263238"/>
<path d="M71.7883 45.2408C71.7852 45.2136 72.0771 45.1412 72.5575 45.0446C72.6791 45.0234 72.7947 44.9902 72.8068 44.9057C72.8281 44.8151 72.7673 44.6883 72.6974 44.5494C72.5606 44.2626 72.4177 43.9637 72.2656 43.6497C71.6667 42.3665 71.2228 41.3067 71.2744 41.2856C71.3261 41.2614 71.8552 42.2819 72.4572 43.5651C72.6031 43.8821 72.74 44.1841 72.8737 44.4709C72.9315 44.6068 73.0227 44.7577 72.971 44.9449C72.9437 45.0385 72.8585 45.111 72.7825 45.1382C72.7065 45.1683 72.6366 45.1744 72.5758 45.1834C72.0923 45.2408 71.7913 45.265 71.7883 45.2408Z" fill="#263238"/>
<path d="M70.3857 45.6603C70.4647 45.6512 70.5012 46.1675 70.9755 46.5026C71.4468 46.8378 72.0002 46.7412 72.0093 46.8136C72.0184 46.8468 71.8938 46.9223 71.6596 46.9465C71.4316 46.9706 71.088 46.9223 70.7992 46.717C70.5103 46.5117 70.3705 46.2188 70.337 46.0075C70.3006 45.7901 70.3492 45.6573 70.3857 45.6603Z" fill="#263238"/>
<path d="M69.752 39.9452C69.7155 40.078 69.229 40.0508 68.6726 40.1595C68.1132 40.2561 67.6693 40.4524 67.5872 40.3437C67.5507 40.2894 67.6206 40.1625 67.7939 40.0237C67.9672 39.8848 68.247 39.7459 68.5844 39.6825C68.9189 39.6221 69.2321 39.6523 69.4449 39.7187C69.6577 39.7882 69.7702 39.8818 69.752 39.9452Z" fill="#263238"/>
<path d="M74.2112 40.0195C74.1352 40.1343 73.7947 40.0467 73.3964 40.0679C72.9981 40.0769 72.6667 40.1947 72.5816 40.086C72.5451 40.0346 72.5876 39.9199 72.7275 39.8082C72.8643 39.6965 73.1015 39.5938 73.3751 39.5818C73.6488 39.5697 73.892 39.6512 74.0379 39.7539C74.19 39.8565 74.2447 39.9652 74.2112 40.0195Z" fill="#263238"/>
<path d="M65.1155 44.5298C65.0607 44.0528 64.6168 43.7055 64.1395 43.784C63.5618 43.8807 62.9354 44.2551 63.0631 45.4477C63.2881 47.5642 65.38 46.9029 65.3769 46.8426C65.3769 46.8033 65.2158 45.4145 65.1155 44.5298Z" fill="#FFBF9D"/>
<path d="M64.8227 46.0869C64.8136 46.0808 64.7893 46.1171 64.7285 46.1503C64.6707 46.1835 64.5673 46.2137 64.4518 46.1835C64.2177 46.1261 63.9896 45.791 63.941 45.4105C63.9167 45.2173 63.938 45.0301 63.9896 44.8731C64.0383 44.7101 64.1265 44.5923 64.239 44.5621C64.3484 44.5259 64.4366 44.5833 64.47 44.6406C64.5035 44.698 64.4944 44.7403 64.5065 44.7433C64.5126 44.7493 64.5491 44.704 64.5217 44.6165C64.5096 44.5742 64.4792 44.5289 64.4244 44.4927C64.3697 44.4565 64.2906 44.4444 64.2146 44.4595C64.0504 44.4867 63.9197 44.6527 63.8619 44.8278C63.795 45.0029 63.7677 45.2143 63.795 45.4317C63.8528 45.8574 64.1143 46.2318 64.4336 46.2892C64.5886 46.3133 64.7072 46.2529 64.768 46.1986C64.8258 46.1382 64.8319 46.0899 64.8227 46.0869Z" fill="#FF9A6C"/>
<path d="M63.3995 42.3658C63.5758 42.9727 63.512 43.9811 64.0593 43.8422C65.1417 43.5705 64.8832 45.7776 65.4032 45.5602C65.917 45.3458 66.37 44.7178 66.4004 43.3622C66.44 41.6382 65.7437 40.3942 66.4278 38.4227C66.8869 37.6316 67.7018 37.0912 68.62 37.07C69.5382 37.0489 70.426 37.5108 70.9216 38.2807C71.0189 37.6799 71.3138 36.7741 71.852 36.4843C72.3901 36.1944 73.1107 36.2276 73.5759 36.6262C74.0411 37.0247 74.1688 37.7826 73.8009 38.2717C74.0472 38.3502 74.3421 38.2475 74.482 38.0271C74.5033 38.3079 74.4029 38.5947 74.2114 38.8001C74.4333 38.7457 74.631 38.6068 74.7617 38.4196C74.707 38.6672 74.6553 38.9178 74.6006 39.1654C75.5127 39.1895 76.4066 38.3109 76.662 37.529C77.0451 36.3454 76.7502 35.1498 76.0843 34.0961C75.4184 33.0423 74.2235 32.2996 72.9709 32.3117C71.7182 32.3237 70.6662 32.9125 70.1828 34.0598C69.3679 33.4892 67.72 33.2899 66.8139 33.7005C65.9079 34.1111 65.2481 35.0199 65.1478 36.0042C64.5792 35.7657 63.8981 35.9499 63.4208 36.3363C63.3813 36.3696 63.3417 36.4028 63.3052 36.436C62.6485 37.0368 62.3809 37.9516 62.5482 38.8212C62.6151 39.1654 62.7336 39.5247 62.8066 39.7994C63.0164 40.6297 63.3995 42.3658 63.3995 42.3658Z" fill="#263238"/>
<path d="M74.6258 37.9827C74.6289 37.9857 74.6532 37.9646 74.6988 37.9253C74.7444 37.8861 74.8083 37.8227 74.8782 37.7291C75.0211 37.5479 75.1883 37.243 75.237 36.8293C75.2887 36.4247 75.1944 35.8873 74.8113 35.4707C74.4465 35.06 73.8292 34.7672 73.1816 34.8608C72.8624 34.9061 72.5674 35.0329 72.3181 35.1959C72.0658 35.362 71.8529 35.5612 71.6827 35.7756C71.333 36.1983 71.1323 36.6633 71.029 37.0588C70.9256 37.4573 70.9134 37.7955 70.9226 38.0249C70.9317 38.1397 70.9378 38.2272 70.9499 38.2876C70.959 38.348 70.9651 38.3782 70.9682 38.3782C70.9955 38.3812 70.8769 37.8649 71.0928 37.0769C71.2023 36.6904 71.406 36.2406 71.7496 35.83C72.0871 35.4254 72.5857 35.0419 73.1968 34.9544C73.808 34.8668 74.3978 35.1416 74.7475 35.531C75.1123 35.9205 75.2127 36.4308 75.1701 36.8233C75.1306 37.2248 74.9785 37.5268 74.8478 37.7109C74.7171 37.8921 74.6167 37.9736 74.6258 37.9827Z" fill="#455A64"/>
<path d="M75.0468 38.9185C75.0498 38.9185 75.0711 38.8853 75.1106 38.8159C75.1502 38.7465 75.2079 38.6438 75.2779 38.5109C75.4147 38.2422 75.6245 37.8528 75.7795 37.3304C75.8555 37.0708 75.9133 36.7719 75.9194 36.4518C75.9255 36.1318 75.8799 35.7815 75.7339 35.4464C75.591 35.1113 75.3356 34.8003 75.0012 34.5829C74.6667 34.3655 74.2654 34.2266 73.8428 34.2025C73.4201 34.1753 73.0066 34.2568 72.6357 34.3927C72.2648 34.5316 71.9333 34.7278 71.6475 34.9512C71.0729 35.3951 70.6959 35.9718 70.5682 36.5062C70.4344 37.0406 70.5195 37.4995 70.632 37.7803C70.6868 37.9222 70.7506 38.0248 70.7901 38.0913C70.8357 38.1577 70.8631 38.1909 70.8661 38.1879C70.8753 38.1819 70.7658 38.049 70.6655 37.7682C70.5682 37.4904 70.4952 37.0406 70.632 36.5243C70.7658 36.008 71.1367 35.4524 71.6992 35.0207C72.2556 34.592 73.0127 34.2478 73.8336 34.2961C74.2411 34.3202 74.6272 34.4531 74.9495 34.6614C75.2687 34.8697 75.515 35.1626 75.6518 35.4826C75.7917 35.8027 75.8403 36.1408 75.8373 36.4548C75.8343 36.7688 75.7826 37.0587 75.7096 37.3183C75.5637 37.8346 75.366 38.2302 75.2383 38.5019C75.1775 38.6317 75.1258 38.7344 75.0863 38.8159C75.062 38.8763 75.0437 38.9155 75.0468 38.9185Z" fill="#455A64"/>
<path d="M64.1577 40.9906C64.1699 40.9755 63.9601 40.8306 63.7016 40.5256C63.4432 40.2237 63.1452 39.7406 63.0206 39.1428C62.8959 38.545 62.975 37.9834 63.0905 37.606C63.206 37.2226 63.3398 37.0082 63.3216 36.9991C63.3155 36.9961 63.279 37.0475 63.2212 37.1441C63.1635 37.2437 63.0905 37.3917 63.0236 37.5849C62.8868 37.9683 62.7956 38.545 62.9233 39.1609C63.051 39.7769 63.3702 40.272 63.6469 40.5679C63.7868 40.7189 63.9114 40.8276 64.0026 40.894C64.0999 40.9634 64.1547 40.9967 64.1577 40.9906Z" fill="#455A64"/>
<path d="M66.1015 40.9362C66.1045 40.9272 65.9951 40.8879 65.8248 40.7732C65.6606 40.6584 65.4326 40.4562 65.2867 40.1301L65.1954 39.9278L65.2198 40.1482C65.2471 40.4471 65.2775 40.7913 65.311 41.1627L65.3809 41.1204C65.1286 40.9513 64.8853 40.7218 64.6846 40.4411C64.4292 40.0878 64.2742 39.6953 64.2073 39.3239C64.1434 38.9526 64.1617 38.6084 64.2134 38.3276C64.3228 37.763 64.5357 37.461 64.5144 37.452C64.5113 37.449 64.4992 37.4671 64.4749 37.5033C64.4505 37.5395 64.4201 37.5939 64.3806 37.6664C64.3046 37.8113 64.2103 38.0287 64.1495 38.3155C64.0887 38.5993 64.0613 38.9556 64.1222 39.339C64.186 39.7225 64.3441 40.1301 64.6086 40.4954C64.8154 40.7822 65.0708 41.0208 65.3323 41.1929L65.4113 41.2442L65.4022 41.1506C65.3627 40.7792 65.3262 40.435 65.2927 40.1391L65.2228 40.1572C65.384 40.4984 65.6272 40.6977 65.8066 40.8064C65.8947 40.8607 65.9708 40.8939 66.0224 40.9121C66.0741 40.9332 66.1015 40.9392 66.1015 40.9362Z" fill="#455A64"/>
<path d="M66.6913 36.4736C66.7096 36.4857 66.8008 36.1717 67.1839 35.8607C67.3754 35.7098 67.6369 35.5679 67.9531 35.5075C68.2663 35.4441 68.6311 35.4712 68.9808 35.6011C69.3305 35.7309 69.6254 35.9392 69.8413 36.1778C70.0602 36.4133 70.2061 36.6699 70.3034 36.8933C70.498 37.3432 70.5162 37.6572 70.5375 37.6511C70.5436 37.6511 70.5436 37.5726 70.5223 37.4368C70.501 37.2979 70.4585 37.1016 70.3673 36.8692C70.273 36.6367 70.1301 36.371 69.9081 36.1204C69.6862 35.8698 69.3791 35.6494 69.0173 35.5135C68.6524 35.3807 68.2693 35.3535 67.941 35.426C67.6095 35.4954 67.3389 35.6524 67.1474 35.8154C66.9558 35.9815 66.8373 36.1506 66.7734 36.2774C66.743 36.3408 66.7187 36.3891 66.7096 36.4253C66.6944 36.4525 66.6883 36.4736 66.6913 36.4736Z" fill="#455A64"/>
<path d="M67.1954 34.8481C67.2045 34.8662 67.4021 34.7092 67.7852 34.6217C68.1592 34.5311 68.7278 34.5462 69.2507 34.827C69.7737 35.1108 70.1081 35.5607 70.2875 35.8988C70.473 36.24 70.5308 36.4785 70.549 36.4755C70.5551 36.4725 70.546 36.4121 70.5156 36.3064C70.4852 36.2007 70.4335 36.0468 70.3453 35.8686C70.175 35.5154 69.8375 35.0413 69.2933 34.7455C68.746 34.4496 68.1501 34.4496 67.767 34.5583C67.5724 34.6126 67.4264 34.682 67.3322 34.7424C67.2379 34.8028 67.1923 34.8451 67.1954 34.8481Z" fill="#455A64"/>
<path d="M74.0552 134.812L73.8393 140.618C73.8393 140.618 79.7105 142.786 79.7773 143.86L68.4243 143.851L68.3847 134.791L74.0552 134.812Z" fill="#00C802"/>
<path d="M70.3366 140.131C70.1177 140.191 69.9657 140.436 70.0143 140.656C70.066 140.877 70.3153 141.034 70.5342 140.976C70.7562 140.922 70.9477 140.632 70.8717 140.418C70.7957 140.203 70.4917 140.037 70.291 140.143" fill="#E0E0E0"/>
<path d="M68.4255 143.9L68.459 142.985L79.3316 143.335C79.3316 143.335 79.8364 143.552 79.7786 143.909L68.4255 143.9Z" fill="#00C802"/>
<path d="M74.0114 140.572C74.0084 140.627 73.7317 140.651 73.458 140.829C73.1813 140.998 73.0384 141.236 72.9898 141.215C72.9381 141.203 73.0202 140.874 73.3547 140.669C73.6891 140.454 74.0236 140.521 74.0114 140.572Z" fill="white"/>
<path d="M75.2124 141.057C75.2246 141.111 74.9844 141.205 74.7959 141.437C74.6013 141.664 74.5527 141.918 74.4979 141.915C74.4463 141.924 74.4067 141.601 74.6469 141.317C74.8841 141.027 75.2094 141.006 75.2124 141.057Z" fill="white"/>
<path d="M75.8856 142.483C75.8339 142.495 75.7579 142.22 75.9008 141.918C76.0406 141.616 76.3021 141.498 76.3264 141.544C76.3569 141.589 76.1896 141.752 76.0771 141.999C75.9555 142.244 75.9403 142.477 75.8856 142.483Z" fill="white"/>
<path d="M73.918 139.247C73.8936 139.298 73.6413 139.22 73.3281 139.241C73.0149 139.256 72.7717 139.359 72.7413 139.313C72.7078 139.274 72.948 139.069 73.3159 139.051C73.6838 139.026 73.9453 139.202 73.918 139.247Z" fill="white"/>
<path d="M61.0208 135.364L60.5678 142.381L61.8205 148.033C61.9117 148.44 61.635 148.839 61.2185 148.899C60.9874 148.932 60.7533 148.857 60.5891 148.688C59.5523 147.616 55.7578 143.655 55.8186 143.141C55.8916 142.55 55.8004 135.711 55.8004 135.711L61.0208 135.364Z" fill="#00C802"/>
<path d="M61.2246 148.902L55.846 142.67L55.8339 142.969C55.8247 143.226 55.9038 143.48 56.0649 143.682C56.4937 144.225 57.7068 145.696 60.577 148.691C60.7412 148.863 60.9875 148.944 61.2246 148.902Z" fill="#00C802"/>
<g opacity="0.6">
<g opacity="0.6">
<g opacity="0.6">
<g opacity="0.6">
<g opacity="0.6">
<g opacity="0.6">
<g opacity="0.6">
<g opacity="0.6">
<g opacity="0.6">
<g opacity="0.6">
<g opacity="0.6">
<path opacity="0.6" d="M57.3949 140.463C57.5682 140.593 57.6138 140.862 57.4922 141.037C57.3706 141.212 57.0939 141.263 56.9206 141.136C56.7473 141.009 56.6804 140.689 56.8202 140.529C56.9631 140.369 57.2885 140.327 57.4253 140.49" fill="white"/>
</g>
</g>
</g>
</g>
</g>
</g>
</g>
</g>
</g>
</g>
</g>
<path d="M59.7384 145.756C59.7779 145.777 59.9512 145.415 60.3799 145.234C60.8026 145.04 61.1887 145.155 61.2009 145.113C61.2069 145.095 61.1218 145.037 60.9546 145.007C60.7904 144.977 60.5502 144.989 60.3161 145.092C60.082 145.194 59.9087 145.363 59.8235 145.502C59.7354 145.644 59.7202 145.75 59.7384 145.756Z" fill="white"/>
<path d="M60.1947 146.722C60.2281 146.756 60.4622 146.535 60.8332 146.445C61.2011 146.348 61.5142 146.427 61.5264 146.384C61.5477 146.348 61.2132 146.185 60.7936 146.294C60.374 146.399 60.1582 146.701 60.1947 146.722Z" fill="white"/>
<path d="M58.8472 144.507C58.8776 144.54 59.2395 144.202 59.805 144.015C60.3644 143.818 60.86 143.861 60.8631 143.815C60.8752 143.779 60.3553 143.658 59.7533 143.87C59.1482 144.072 58.8138 144.486 58.8472 144.507Z" fill="white"/>
<path d="M58.8088 142.375C58.827 142.418 59.2223 142.273 59.7331 142.276C60.2439 142.273 60.6391 142.415 60.6574 142.372C60.6787 142.339 60.2804 142.116 59.7331 142.122C59.1858 142.119 58.7875 142.342 58.8088 142.375Z" fill="white"/>
<path d="M58.8851 140.302C58.9064 140.345 59.3077 140.124 59.8428 140.172C60.381 140.206 60.7459 140.483 60.7702 140.444C60.7823 140.429 60.7094 140.338 60.5482 140.239C60.3901 140.139 60.1408 140.04 59.852 140.018C59.5631 139.997 59.3016 140.058 59.1314 140.133C58.9642 140.206 58.876 140.284 58.8851 140.302Z" fill="white"/>
<path d="M59.8502 139.778C59.8593 139.778 59.8775 139.684 59.8714 139.512C59.8623 139.34 59.8228 139.089 59.689 138.808C59.6191 138.675 59.5461 138.503 59.3515 138.404C59.2542 138.352 59.1083 138.365 59.0201 138.455C58.9319 138.543 58.9015 138.657 58.8955 138.769C58.8833 139.216 59.2512 139.663 59.7529 139.747C60.2576 139.823 60.7289 139.554 60.9447 139.177C60.9934 139.08 61.0268 138.959 60.9782 138.836C60.9295 138.715 60.7866 138.66 60.6863 138.672C60.4735 138.694 60.3366 138.808 60.2089 138.893C59.9566 139.077 59.7985 139.276 59.7042 139.418C59.61 139.563 59.5765 139.654 59.5856 139.657C59.61 139.675 59.7772 139.319 60.2728 138.98C60.3974 138.902 60.5403 138.805 60.6924 138.796C60.7653 138.793 60.8292 138.823 60.8535 138.884C60.8778 138.941 60.8596 139.029 60.817 139.107C60.6346 139.415 60.2029 139.66 59.7772 139.59C59.3546 139.524 59.0292 139.128 59.0353 138.772C59.0384 138.685 59.0657 138.6 59.1144 138.552C59.163 138.503 59.2329 138.491 59.2968 138.522C59.4336 138.582 59.5187 138.733 59.5887 138.86C59.8654 139.385 59.8198 139.784 59.8502 139.778Z" fill="white"/>
<path d="M79.0266 85.7629C79.0266 85.7629 79.9631 89.0509 79.7442 93.0907C79.659 94.6516 74.6058 139.799 74.6058 139.799L68.1752 139.225L69.288 97.0157L69.0174 97.2542C69.0174 97.2542 65.1864 115.014 64.9341 117.818C64.706 120.343 61.6473 140.614 61.6473 140.614L55.4083 140.318L56.8221 114.693L58.7133 91.4301L59.4704 84.6519L79.0266 85.7629Z" fill="#263238"/>
<path d="M68.0518 93.3603C68.0488 93.3693 68.1552 93.4267 68.3528 93.5203C68.5535 93.6079 68.8484 93.7437 69.2467 93.8071C69.4443 93.8373 69.6693 93.8434 69.9065 93.7981C70.1406 93.7528 70.3899 93.6471 70.5875 93.4539C70.7852 93.2606 70.9129 92.995 70.9889 92.7172C71.0679 92.4394 71.1075 92.1496 71.1622 91.8567C71.3629 90.6822 71.4936 89.6073 71.5635 88.8314C71.6 88.4419 71.6213 88.1279 71.6335 87.9105C71.6456 87.6931 71.6456 87.5724 71.6335 87.5693C71.6243 87.5693 71.6031 87.6871 71.5726 87.9045C71.5422 88.1521 71.5027 88.457 71.4541 88.8193C71.3537 89.5922 71.2078 90.658 71.0071 91.8325C70.9037 92.4122 70.8399 93.001 70.4842 93.3542C70.1284 93.7015 69.6268 93.7467 69.2558 93.7015C68.8727 93.6531 68.5747 93.5354 68.371 93.466C68.1704 93.3905 68.0548 93.3512 68.0518 93.3603Z" fill="#455A64"/>
<path d="M70.0825 87.8275C70.0856 87.8215 70.0339 87.7913 69.9336 87.7883C69.8332 87.7822 69.6842 87.8154 69.5353 87.9241C69.3954 88.0328 69.2464 88.2231 69.2464 88.4797C69.2403 88.7394 69.4501 88.99 69.7177 89.0805C69.9822 89.1771 70.3045 89.1107 70.4626 88.9024C70.6237 88.7001 70.6268 88.4616 70.5842 88.2895C70.5386 88.1144 70.4413 87.9936 70.3592 87.9362C70.2771 87.8758 70.2194 87.8698 70.2194 87.8758C70.2011 87.897 70.4231 87.9906 70.4808 88.3106C70.5052 88.4616 70.4869 88.6639 70.3562 88.8118C70.2315 88.9628 69.9883 89.0141 69.7663 88.9356C69.5444 88.8601 69.3863 88.6699 69.3832 88.4737C69.3741 88.2774 69.4866 88.1053 69.5991 88.0026C69.8515 87.7913 70.0856 87.8547 70.0825 87.8275Z" fill="#455A64"/>
<path d="M58.8128 90.9992C58.8128 91.0083 58.8979 91.0203 59.056 91.0324C59.2141 91.0445 59.4452 91.0445 59.7279 91.0234C60.2935 90.9841 61.0749 90.8301 61.8715 90.4769C62.665 90.1206 63.3035 89.6436 63.7079 89.248C63.9116 89.0518 64.0636 88.8827 64.1609 88.7559C64.2582 88.6321 64.3069 88.5596 64.2977 88.5536C64.2765 88.5355 64.0545 88.8042 63.6349 89.1695C63.2184 89.5379 62.586 89.9908 61.8106 90.338C61.0323 90.6822 60.2722 90.8513 59.7188 90.9147C59.1624 90.9841 58.8128 90.972 58.8128 90.9992Z" fill="#455A64"/>
<path d="M76.1435 87.8236C76.1283 87.8327 76.256 88.1165 76.5327 88.5392C76.8063 88.9619 77.2411 89.5144 77.8097 90.0398C78.3782 90.5621 78.965 90.9516 79.412 91.1931C79.8559 91.4347 80.1539 91.5403 80.1599 91.5252C80.1691 91.5041 79.8924 91.3622 79.4667 91.1025C79.041 90.8429 78.4725 90.4443 77.913 89.9311C77.3536 89.4148 76.9158 88.8834 76.6208 88.4818C76.3259 88.0773 76.1648 87.8116 76.1435 87.8236Z" fill="#455A64"/>
<path d="M82.5146 62.3062C83.4723 65.0748 83.3659 64.8393 85.1507 73.1091C85.479 74.6338 84.8983 77.022 83.5119 77.7587C82.1254 78.4954 79.6626 77.6862 78.8387 76.3578L77.51 63.8731L82.5146 62.3062Z" fill="#FFBF9D" stroke="#263238" stroke-width="0.2" stroke-miterlimit="10"/>
<path d="M59.4627 77.3018L59.4992 70.7229L59.4718 70.0768L52.7494 68.5188C52.7494 68.5188 54.0689 64.2013 55.279 59.5607C55.9783 56.8826 58.3043 55.533 58.8668 55.2431V55.2401L58.9884 55.1828L65.4585 52.4624C66.7659 53.8482 68.6692 54.9563 70.5026 54.4249C71.506 54.1351 72.5337 53.3984 73.163 52.6224L77.5261 54.1079V54.1109C78.645 54.5185 79.8308 55.2914 80.5422 56.5384C81.4544 58.1416 84.3702 65.4905 84.4219 65.6566L79.022 66.1396C79.022 66.1396 79.9798 83.5336 79.6423 86.6434C79.6423 86.6434 78.3318 87.5432 75.0208 87.7002C68.3105 88.0142 58.3225 87.5401 58.3225 87.5401C58.4776 86.5347 58.6418 84.859 58.736 84.0106L59.4627 77.3018Z" fill="#00C802"/>
<path d="M78.8516 59.6592C78.8242 59.6592 78.9671 63.8076 79.1708 68.9253C79.3745 74.0429 79.563 78.1884 79.5904 78.1884C79.6178 78.1884 79.4749 74.0399 79.2711 68.9223C79.0674 63.8046 78.8789 59.6562 78.8516 59.6592Z" fill="#263238"/>
<path d="M60.2089 60.8257C60.2576 60.8287 60.1208 64.5092 59.9049 69.0471C59.689 73.5881 59.4762 77.2625 59.4275 77.2625C59.3789 77.2595 59.5157 73.579 59.7316 69.0411C59.9474 64.5001 60.1603 60.8227 60.2089 60.8257Z" fill="#263238"/>
<path d="M55.6384 72.6414C55.605 72.6112 56.0975 72.0798 56.8212 71.5635C57.5418 71.0442 58.2046 70.7513 58.2259 70.7936C58.2502 70.8389 57.633 71.1951 56.9245 71.7054C56.21 72.2096 55.6749 72.6776 55.6384 72.6414Z" fill="#263238"/>
<mask id="path-61-inside-1_4086_101729" fill="white">
<path fill-rule="evenodd" clip-rule="evenodd" d="M67.84 60.0884L69.6855 61.0244C69.5883 61.8365 67.8005 61.287 67.8035 61.284L66.9978 61.7399C66.9978 61.7399 67.919 62.066 68.1045 62.2441C68.29 62.4223 68.1714 62.9174 68.1714 62.9174C68.1714 62.9174 68.3295 62.9657 68.4906 63.168C68.6518 63.3703 68.6123 63.9168 68.6123 63.9168L69.0166 64.5025C69.0166 64.5025 69.0227 64.7894 68.8737 65.1547C68.7248 65.523 67.9251 65.9035 67.9251 65.9035C67.9251 65.9035 67.6758 66.3775 67.1224 67.244C66.5691 68.1136 65.1826 68.7144 65.1826 68.7144L65.1741 68.7298C65.0753 68.9365 63.324 72.5884 62.2931 74.0346C60.9127 75.9729 58.7418 78.9258 55.7743 78.6782C53.0318 78.4427 52.3355 74.5992 52.7278 71.6675C52.9467 70.0341 53.1291 68.5909 53.1291 68.5909L58.5047 69.8318L58.2736 70.6923L62.4102 66.5214L62.431 66.4952L64.2553 61.9301L65.4441 60.8432L67.84 60.0884Z"/>
</mask>
<path fill-rule="evenodd" clip-rule="evenodd" d="M67.84 60.0884L69.6855 61.0244C69.5883 61.8365 67.8005 61.287 67.8035 61.284L66.9978 61.7399C66.9978 61.7399 67.919 62.066 68.1045 62.2441C68.29 62.4223 68.1714 62.9174 68.1714 62.9174C68.1714 62.9174 68.3295 62.9657 68.4906 63.168C68.6518 63.3703 68.6123 63.9168 68.6123 63.9168L69.0166 64.5025C69.0166 64.5025 69.0227 64.7894 68.8737 65.1547C68.7248 65.523 67.9251 65.9035 67.9251 65.9035C67.9251 65.9035 67.6758 66.3775 67.1224 67.244C66.5691 68.1136 65.1826 68.7144 65.1826 68.7144L65.1741 68.7298C65.0753 68.9365 63.324 72.5884 62.2931 74.0346C60.9127 75.9729 58.7418 78.9258 55.7743 78.6782C53.0318 78.4427 52.3355 74.5992 52.7278 71.6675C52.9467 70.0341 53.1291 68.5909 53.1291 68.5909L58.5047 69.8318L58.2736 70.6923L62.4102 66.5214L62.431 66.4952L64.2553 61.9301L65.4441 60.8432L67.84 60.0884Z" fill="#FFBF9D"/>
<path d="M69.6855 61.0244L69.7534 60.8906L69.847 60.938L69.8345 61.0422L69.6855 61.0244ZM67.84 60.0884L67.7949 59.9453L67.8533 59.9269L67.9078 59.9546L67.84 60.0884ZM67.8035 61.284L67.7296 61.1535L67.9092 61.3904L67.8035 61.284ZM66.9978 61.7399L66.9477 61.8813L66.6374 61.7715L66.9239 61.6094L66.9978 61.7399ZM68.1045 62.2441L68.0006 62.3523L68.0006 62.3523L68.1045 62.2441ZM68.1714 62.9174L68.1276 63.0609L67.9927 63.0197L68.0255 62.8825L68.1714 62.9174ZM68.4906 63.168L68.608 63.0746L68.608 63.0746L68.4906 63.168ZM68.6123 63.9168L68.4888 64.002L68.4588 63.9586L68.4627 63.906L68.6123 63.9168ZM69.0166 64.5025L69.1401 64.4173L69.1657 64.4544L69.1666 64.4994L69.0166 64.5025ZM68.8737 65.1547L68.7347 65.0985L68.7348 65.0981L68.8737 65.1547ZM67.9251 65.9035L67.7924 65.8336L67.8156 65.7895L67.8607 65.768L67.9251 65.9035ZM67.1224 67.244L66.9959 67.1635L66.996 67.1633L67.1224 67.244ZM65.1826 68.7144L65.0513 68.6419L65.076 68.5971L65.123 68.5768L65.1826 68.7144ZM65.1741 68.7298L65.0386 68.665L65.0428 68.6574L65.1741 68.7298ZM62.2931 74.0346L62.1709 73.9476L62.1709 73.9475L62.2931 74.0346ZM55.7743 78.6782L55.7618 78.8277L55.7615 78.8276L55.7743 78.6782ZM52.7278 71.6675L52.5791 71.6476L52.5791 71.6476L52.7278 71.6675ZM53.1291 68.5909L52.9803 68.5721L53.0011 68.4074L53.1628 68.4447L53.1291 68.5909ZM58.5047 69.8318L58.5384 69.6856L58.6898 69.7206L58.6495 69.8707L58.5047 69.8318ZM58.2736 70.6923L58.3801 70.7979L57.9822 71.1991L58.1287 70.6534L58.2736 70.6923ZM62.4102 66.5214L62.5276 66.6148L62.5225 66.6212L62.5167 66.627L62.4102 66.5214ZM62.431 66.4952L62.5703 66.5509L62.5621 66.5714L62.5484 66.5886L62.431 66.4952ZM64.2553 61.9301L64.116 61.8745L64.1287 61.8426L64.1541 61.8194L64.2553 61.9301ZM65.4441 60.8432L65.3429 60.7325L65.3674 60.7101L65.399 60.7001L65.4441 60.8432ZM69.6177 61.1581L67.7721 60.2222L67.9078 59.9546L69.7534 60.8906L69.6177 61.1581ZM67.9092 61.3904C67.945 61.3339 67.9427 61.228 67.9226 61.1928C67.9118 61.1803 67.8933 61.1639 67.8867 61.1592C67.8766 61.1525 67.8679 61.1486 67.8667 61.148C67.8618 61.1457 67.8579 61.1443 67.8576 61.1442C67.8557 61.1435 67.8548 61.1432 67.856 61.1436C67.8577 61.1442 67.8613 61.1453 67.8673 61.1472C67.8788 61.1507 67.8967 61.156 67.9201 61.1626C67.9669 61.1758 68.0347 61.1938 68.1166 61.2128C68.2811 61.2511 68.4995 61.293 68.7187 61.3103C68.9413 61.3279 69.1491 61.3187 69.301 61.2662C69.3753 61.2405 69.4296 61.2067 69.4667 61.1668C69.5023 61.1284 69.528 61.0781 69.5366 61.0065L69.8345 61.0422C69.8187 61.1737 69.7674 61.2838 69.6866 61.3709C69.6073 61.4563 69.506 61.5128 69.399 61.5498C69.1884 61.6226 68.9312 61.6281 68.6951 61.6094C68.4556 61.5905 68.2215 61.5452 68.0486 61.505C67.9619 61.4848 67.8897 61.4657 67.8389 61.4514C67.8135 61.4443 67.7932 61.4383 67.7789 61.4339C67.7718 61.4317 67.7656 61.4297 67.7607 61.4281C67.7586 61.4274 67.7552 61.4262 67.7517 61.4249C67.7506 61.4245 67.7461 61.4228 67.7408 61.4203C67.7395 61.4197 67.7306 61.4157 67.7204 61.4089C67.7137 61.4042 67.6952 61.3878 67.6844 61.3752C67.6643 61.34 67.662 61.2342 67.6978 61.1776L67.9092 61.3904ZM66.9239 61.6094L67.7296 61.1535L67.8774 61.4146L67.0716 61.8705L66.9239 61.6094ZM68.0006 62.3523C67.9731 62.3259 67.9007 62.281 67.7868 62.2246C67.6789 62.1713 67.55 62.1153 67.4248 62.064C67.2999 62.0129 67.1805 61.9672 67.0921 61.9342C67.048 61.9177 67.0118 61.9044 66.9866 61.8953C66.974 61.8907 66.9642 61.8872 66.9576 61.8848C66.9543 61.8837 66.9518 61.8828 66.9501 61.8822C66.9493 61.8819 66.9487 61.8817 66.9483 61.8815C66.9481 61.8814 66.9479 61.8814 66.9478 61.8814C66.9478 61.8813 66.9478 61.8813 66.9477 61.8813C66.9477 61.8813 66.9477 61.8813 66.9477 61.8813C66.9477 61.8813 66.9477 61.8813 66.9978 61.7399C67.0478 61.5985 67.0478 61.5985 67.0479 61.5985C67.0479 61.5985 67.0479 61.5985 67.0479 61.5985C67.0479 61.5985 67.048 61.5986 67.0481 61.5986C67.0482 61.5986 67.0484 61.5987 67.0486 61.5988C67.0491 61.599 67.0498 61.5992 67.0507 61.5995C67.0526 61.6002 67.0552 61.6011 67.0587 61.6024C67.0657 61.6049 67.0759 61.6085 67.0889 61.6133C67.1148 61.6227 67.152 61.6363 67.1971 61.6531C67.2873 61.6868 67.4098 61.7337 67.5384 61.7864C67.6667 61.8389 67.8029 61.8979 67.9198 61.9557C68.0309 62.0107 68.1432 62.0733 68.2084 62.1359L68.0006 62.3523ZM68.1714 62.9174C68.0255 62.8825 68.0255 62.8825 68.0255 62.8826C68.0255 62.8826 68.0255 62.8826 68.0255 62.8826C68.0255 62.8826 68.0255 62.8826 68.0255 62.8827C68.0255 62.8827 68.0255 62.8827 68.0255 62.8826C68.0255 62.8826 68.0255 62.8824 68.0256 62.8821C68.0258 62.8815 68.026 62.8805 68.0263 62.879C68.027 62.8761 68.028 62.8714 68.0293 62.8653C68.0318 62.8531 68.0353 62.835 68.0391 62.8126C68.0466 62.7673 68.0548 62.7062 68.0576 62.641C68.0606 62.5749 68.0578 62.5099 68.0464 62.4552C68.0346 62.3991 68.0167 62.3677 68.0006 62.3523L68.2084 62.1359C68.2851 62.2096 68.3219 62.307 68.34 62.3937C68.3585 62.482 68.3609 62.5742 68.3574 62.6542C68.3538 62.735 68.3439 62.8088 68.335 62.862C68.3305 62.8888 68.3262 62.9107 68.323 62.9263C68.3214 62.934 68.32 62.9402 68.319 62.9447C68.3186 62.9469 68.3181 62.9486 68.3178 62.9499C68.3177 62.9506 68.3176 62.9511 68.3175 62.9515C68.3174 62.9517 68.3174 62.9519 68.3174 62.952C68.3173 62.9521 68.3173 62.9522 68.3173 62.9522C68.3173 62.9522 68.3173 62.9523 68.3173 62.9523C68.3173 62.9523 68.3173 62.9524 68.1714 62.9174ZM68.3733 63.2615C68.3042 63.1747 68.2375 63.1232 68.191 63.094C68.1676 63.0794 68.1492 63.0703 68.1378 63.0653C68.1321 63.0627 68.1283 63.0612 68.1265 63.0606C68.1256 63.0602 68.1252 63.0601 68.1253 63.0602C68.1254 63.0602 68.1257 63.0603 68.126 63.0604C68.1262 63.0605 68.1264 63.0605 68.1267 63.0606C68.1268 63.0606 68.1269 63.0607 68.1271 63.0607C68.1272 63.0608 68.1272 63.0608 68.1273 63.0608C68.1274 63.0608 68.1274 63.0608 68.1274 63.0608C68.1275 63.0609 68.1276 63.0609 68.1714 62.9174C68.2152 62.774 68.2153 62.774 68.2154 62.774C68.2154 62.774 68.2154 62.774 68.2155 62.7741C68.2156 62.7741 68.2157 62.7741 68.2158 62.7741C68.2159 62.7742 68.2161 62.7743 68.2163 62.7743C68.2168 62.7744 68.2172 62.7746 68.2177 62.7747C68.2187 62.7751 68.2198 62.7754 68.2211 62.7759C68.2237 62.7767 68.2268 62.7778 68.2306 62.7792C68.238 62.782 68.2478 62.7858 68.2594 62.791C68.2828 62.8014 68.3139 62.817 68.3502 62.8397C68.423 62.8853 68.5159 62.959 68.608 63.0746L68.3733 63.2615ZM68.6123 63.9168C68.4627 63.906 68.4627 63.906 68.4627 63.906C68.4627 63.906 68.4627 63.906 68.4626 63.906C68.4626 63.9061 68.4626 63.9061 68.4626 63.9061C68.4626 63.9061 68.4627 63.906 68.4627 63.906C68.4627 63.9058 68.4627 63.9056 68.4627 63.9052C68.4628 63.9044 68.4628 63.9031 68.463 63.9014C68.4632 63.8979 68.4635 63.8925 68.4638 63.8854C68.4645 63.8713 68.4654 63.8506 68.466 63.825C68.4671 63.7735 68.467 63.7033 68.4622 63.6278C68.4574 63.5516 68.448 63.4735 68.4317 63.4051C68.4148 63.334 68.3935 63.2868 68.3733 63.2615L68.608 63.0746C68.6683 63.1504 68.7026 63.2474 68.7236 63.3356C68.7452 63.4266 68.7561 63.523 68.7616 63.6088C68.7671 63.6951 68.7671 63.7742 68.7659 63.8315C68.7653 63.8603 68.7643 63.8838 68.7635 63.9004C68.763 63.9087 68.7627 63.9153 68.7624 63.9199C68.7622 63.9222 68.7621 63.924 68.762 63.9253C68.762 63.9259 68.762 63.9265 68.7619 63.9268C68.7619 63.927 68.7619 63.9272 68.7619 63.9273C68.7619 63.9274 68.7619 63.9275 68.7619 63.9275C68.7619 63.9275 68.7619 63.9276 68.7619 63.9276C68.7619 63.9276 68.7619 63.9276 68.6123 63.9168ZM68.8932 64.5878L68.4888 64.002L68.7357 63.8316L69.1401 64.4173L68.8932 64.5878ZM68.7348 65.0981C68.8039 64.9286 68.8369 64.7777 68.8526 64.67C68.8605 64.6162 68.8639 64.5735 68.8655 64.545C68.8663 64.5307 68.8665 64.5201 68.8666 64.5134C68.8667 64.51 68.8667 64.5077 68.8667 64.5064C68.8667 64.5058 68.8667 64.5054 68.8667 64.5053C68.8667 64.5052 68.8667 64.5052 68.8667 64.5053C68.8667 64.5053 68.8667 64.5054 68.8667 64.5054C68.8667 64.5055 68.8667 64.5055 68.8667 64.5056C68.8667 64.5056 68.8667 64.5056 68.8667 64.5056C68.8667 64.5057 68.8667 64.5057 69.0166 64.5025C69.1666 64.4994 69.1666 64.4994 69.1666 64.4994C69.1666 64.4995 69.1666 64.4995 69.1666 64.4995C69.1666 64.4996 69.1666 64.4997 69.1666 64.4997C69.1666 64.4999 69.1666 64.5 69.1666 64.5002C69.1666 64.5006 69.1666 64.501 69.1666 64.5015C69.1667 64.5025 69.1667 64.5037 69.1667 64.5053C69.1667 64.5084 69.1667 64.5125 69.1666 64.5178C69.1664 64.5282 69.166 64.5428 69.1651 64.5611C69.1631 64.5978 69.1588 64.6496 69.1495 64.7132C69.131 64.8403 69.0925 65.0154 69.0126 65.2113L68.7348 65.0981ZM67.9251 65.9035C67.8607 65.768 67.8607 65.768 67.8606 65.768C67.8606 65.768 67.8606 65.768 67.8606 65.768C67.8606 65.768 67.8606 65.768 67.8607 65.768C67.8607 65.768 67.8608 65.768 67.8609 65.7679C67.8612 65.7678 67.8617 65.7675 67.8623 65.7672C67.8636 65.7666 67.8656 65.7656 67.8683 65.7643C67.8738 65.7617 67.8819 65.7576 67.8925 65.7524C67.9136 65.7418 67.9442 65.7261 67.9815 65.7061C68.0564 65.666 68.1573 65.609 68.2622 65.5412C68.3676 65.4731 68.474 65.3961 68.5616 65.3163C68.6515 65.2343 68.7099 65.1596 68.7347 65.0985L69.0128 65.2109C68.9631 65.3339 68.8657 65.445 68.7637 65.5379C68.6595 65.633 68.5381 65.7201 68.4249 65.7932C68.3113 65.8666 68.203 65.9278 68.1232 65.9705C68.0833 65.9919 68.0503 66.0088 68.0271 66.0205C68.0155 66.0263 68.0063 66.0308 67.9999 66.0339C67.9967 66.0355 67.9943 66.0367 67.9925 66.0375C67.9916 66.0379 67.991 66.0383 67.9905 66.0385C67.9902 66.0386 67.99 66.0387 67.9899 66.0388C67.9898 66.0388 67.9897 66.0388 67.9897 66.0389C67.9897 66.0389 67.9896 66.0389 67.9896 66.0389C67.9896 66.0389 67.9896 66.0389 67.9251 65.9035ZM66.996 67.1633C67.2715 66.7319 67.4711 66.3986 67.6015 66.1736C67.6667 66.0611 67.7147 65.9756 67.7462 65.9186C67.762 65.89 67.7736 65.8686 67.7813 65.8544C67.7851 65.8473 67.7879 65.842 67.7898 65.8385C67.7907 65.8368 67.7914 65.8355 67.7918 65.8347C67.792 65.8343 67.7922 65.834 67.7923 65.8338C67.7923 65.8337 67.7923 65.8337 67.7924 65.8337C67.7924 65.8336 67.7924 65.8336 67.7924 65.8336C67.7924 65.8336 67.7924 65.8336 67.7924 65.8336C67.7924 65.8336 67.7924 65.8336 67.9251 65.9035C68.0579 65.9733 68.0579 65.9733 68.0579 65.9733C68.0579 65.9733 68.0579 65.9733 68.0578 65.9734C68.0578 65.9734 68.0578 65.9734 68.0578 65.9735C68.0577 65.9736 68.0577 65.9737 68.0576 65.9738C68.0575 65.9741 68.0572 65.9745 68.057 65.975C68.0564 65.9761 68.0556 65.9776 68.0546 65.9795C68.0525 65.9834 68.0494 65.9892 68.0454 65.9967C68.0372 66.0118 68.0251 66.0342 68.0088 66.0636C67.9763 66.1225 67.9273 66.2097 67.8611 66.324C67.7285 66.5527 67.5267 66.8897 67.2489 67.3248L66.996 67.1633ZM65.1826 68.7144C65.123 68.5768 65.123 68.5768 65.1229 68.5768C65.1229 68.5768 65.1229 68.5768 65.1229 68.5768C65.1229 68.5768 65.123 68.5768 65.123 68.5768C65.1231 68.5767 65.1233 68.5766 65.1236 68.5765C65.1241 68.5763 65.125 68.5759 65.1261 68.5754C65.1285 68.5744 65.1321 68.5727 65.137 68.5706C65.1467 68.5662 65.1612 68.5596 65.18 68.5509C65.2177 68.5333 65.2726 68.5072 65.3404 68.473C65.476 68.4046 65.6625 68.3045 65.8657 68.178C66.2766 67.9221 66.7378 67.569 66.9959 67.1635L67.249 67.3246C66.9537 67.7886 66.445 68.1707 66.0243 68.4326C65.8118 68.565 65.6171 68.6694 65.4754 68.7409C65.4046 68.7766 65.3468 68.8042 65.3065 68.8229C65.2864 68.8323 65.2706 68.8394 65.2597 68.8443C65.2542 68.8468 65.25 68.8486 65.2471 68.8499C65.2456 68.8506 65.2445 68.8511 65.2437 68.8514C65.2433 68.8516 65.243 68.8517 65.2427 68.8518C65.2426 68.8519 65.2425 68.8519 65.2424 68.852C65.2424 68.852 65.2424 68.852 65.2423 68.852C65.2423 68.852 65.2423 68.852 65.1826 68.7144ZM65.0428 68.6574L65.0513 68.6419L65.314 68.7869L65.3054 68.8023L65.0428 68.6574ZM65.3094 68.7946C65.2132 68.9958 63.4556 72.6623 62.4152 74.1217L62.1709 73.9475C63.1924 72.5146 64.9374 68.8772 65.0388 68.6651L65.3094 68.7946ZM62.4153 74.1216C61.7258 75.0898 60.8288 76.3264 59.7276 77.2891C58.6258 78.2523 57.3023 78.9562 55.7618 78.8277L55.7868 78.5287C57.2138 78.6478 58.4596 77.9991 59.5301 77.0632C60.6014 76.1267 61.48 74.9178 62.1709 73.9476L62.4153 74.1216ZM55.7615 78.8276C54.3059 78.7027 53.411 77.617 52.9337 76.2328C52.4563 74.8483 52.3808 73.1298 52.5791 71.6476L52.8764 71.6874C52.6825 73.1369 52.7591 74.806 53.2173 76.135C53.6757 77.4644 54.5002 78.4182 55.7871 78.5287L55.7615 78.8276ZM52.5791 71.6476C52.6885 70.8312 52.7888 70.0623 52.8618 69.4974C52.8982 69.215 52.9279 68.9837 52.9484 68.8229C52.9586 68.7425 52.9666 68.6798 52.972 68.6372C52.9747 68.6159 52.9768 68.5996 52.9782 68.5886C52.9789 68.5831 52.9794 68.579 52.9798 68.5762C52.9799 68.5748 52.9801 68.5738 52.9802 68.5731C52.9802 68.5727 52.9802 68.5725 52.9803 68.5723C52.9803 68.5722 52.9803 68.5722 52.9803 68.5721C52.9803 68.5721 52.9803 68.5721 52.9803 68.5721C52.9803 68.5721 52.9803 68.5721 53.1291 68.5909C53.2779 68.6097 53.2779 68.6097 53.2779 68.6097C53.2779 68.6097 53.2779 68.6097 53.2779 68.6097C53.2779 68.6098 53.2779 68.6099 53.2779 68.6099C53.2779 68.6101 53.2778 68.6104 53.2778 68.6107C53.2777 68.6114 53.2776 68.6125 53.2774 68.6139C53.277 68.6167 53.2765 68.6208 53.2758 68.6263C53.2744 68.6373 53.2724 68.6536 53.2696 68.675C53.2642 68.7176 53.2562 68.7804 53.246 68.8609C53.2254 69.0218 53.1958 69.2533 53.1593 69.5359C53.0863 70.101 52.9859 70.8704 52.8764 71.6874L52.5791 71.6476ZM53.1628 68.4447L58.5384 69.6856L58.4709 69.9779L53.0954 68.737L53.1628 68.4447ZM58.6495 69.8707L58.4184 70.7312L58.1287 70.6534L58.3598 69.7929L58.6495 69.8707ZM58.1671 70.5866L62.3037 66.4158L62.5167 66.627L58.3801 70.7979L58.1671 70.5866ZM62.5484 66.5886L62.5276 66.6148L62.2928 66.428L62.3136 66.4019L62.5484 66.5886ZM64.3946 61.9858L62.5703 66.5509L62.2917 66.4396L64.116 61.8745L64.3946 61.9858ZM65.5453 60.9539L64.3565 62.0408L64.1541 61.8194L65.3429 60.7325L65.5453 60.9539ZM67.8851 60.2314L65.4892 60.9863L65.399 60.7001L67.7949 59.9453L67.8851 60.2314Z" fill="#263238" mask="url(#path-61-inside-1_4086_101729)"/>
<path d="M66.9422 62.6704C66.9422 62.6946 67.225 62.7006 67.5625 62.7731C67.8999 62.8425 68.1614 62.9512 68.1736 62.9301C68.1827 62.912 67.9304 62.7701 67.5807 62.6976C67.231 62.6221 66.9422 62.6523 66.9422 62.6704Z" fill="#263238"/>
<path d="M67.4922 63.7151C67.4922 63.7393 67.7354 63.7363 68.0273 63.7816C68.3192 63.8238 68.5503 63.8963 68.5564 63.8752C68.5655 63.857 68.3405 63.7484 68.0365 63.7061C67.7354 63.6578 67.4892 63.694 67.4922 63.7151Z" fill="#263238"/>
<path d="M68.2826 65.3068C68.3039 65.3068 68.3191 65.2011 68.316 65.0743C68.313 64.9444 68.2947 64.8418 68.2704 64.8418C68.2491 64.8418 68.2339 64.9475 68.237 65.0743C68.24 65.2041 68.2583 65.3068 68.2826 65.3068Z" fill="#263238"/>
<path d="M67.9235 65.7966C67.9448 65.7966 67.9326 65.5732 68.0938 65.3739C68.2489 65.1686 68.4708 65.1294 68.4647 65.1082C68.4647 65.0992 68.407 65.0931 68.3188 65.1203C68.2306 65.1475 68.1181 65.2139 68.0299 65.3256C67.9418 65.4373 67.9022 65.5611 67.8992 65.6517C67.8962 65.7453 67.9144 65.7966 67.9235 65.7966Z" fill="#263238"/>
<path d="M66.4761 64.3332C66.4974 64.3422 66.5764 64.1399 66.7984 64.0191C67.0173 63.8923 67.2332 63.9346 67.2362 63.9105C67.2392 63.9014 67.1876 63.8772 67.0994 63.8712C67.0112 63.8652 66.8835 63.8833 66.7619 63.9527C66.6403 64.0191 66.5582 64.1188 66.5156 64.1973C66.473 64.2758 66.467 64.3301 66.4761 64.3332Z" fill="#263238"/>
<path d="M65.6366 63.3255C65.6579 63.3346 65.7309 63.1443 65.9316 63.0206C66.1292 62.8907 66.3329 62.9058 66.3359 62.8817C66.3359 62.8726 66.2873 62.8545 66.2022 62.8545C66.117 62.8545 65.9984 62.8847 65.889 62.9541C65.7795 63.0236 65.7035 63.1172 65.667 63.1927C65.6336 63.2712 65.6275 63.3225 65.6366 63.3255Z" fill="#263238"/>
<path d="M65.0743 62.8302C65.0865 62.8272 65.0804 62.7668 65.0926 62.6732C65.1047 62.5796 65.1412 62.4528 65.2264 62.3381C65.3115 62.2234 65.424 62.1509 65.5122 62.1117C65.6003 62.0724 65.6611 62.0603 65.6581 62.0483C65.6581 62.0392 65.5912 62.0301 65.4909 62.0603C65.3905 62.0875 65.2598 62.16 65.1625 62.2898C65.0652 62.4196 65.0348 62.5676 65.0348 62.6702C65.0378 62.7729 65.0652 62.8333 65.0743 62.8302Z" fill="#263238"/>
<path d="M65.8566 61.628C65.8536 61.6552 66.2428 61.6612 66.708 61.7337C67.1732 61.8061 67.5259 61.9661 67.535 61.945C67.5441 61.9299 67.2005 61.7306 66.7201 61.6552C66.483 61.6159 66.2641 61.6099 66.109 61.6099C65.9539 61.6099 65.8566 61.6189 65.8566 61.628Z" fill="#263238"/>
<g opacity="0.3">
<g opacity="0.3">
<path opacity="0.3" d="M71.1192 71.9414C71.1861 71.41 71.2651 70.8575 71.5752 70.4197C72.1164 69.6619 73.1776 69.5018 74.111 69.5471C75.0444 69.5924 76.0113 69.7736 76.89 69.4565L79.5078 77.1828C78.5349 76.9473 77.6683 76.3193 77.1423 75.4739C76.8748 75.0422 76.6802 74.541 76.2758 74.233C75.7194 73.8073 74.9441 73.8707 74.2417 73.8616C73.5059 73.8526 72.7732 73.7469 72.0648 73.5446C71.7637 73.4571 71.4536 73.3423 71.2682 73.0917C71.031 72.7717 71.0705 72.3339 71.1192 71.9414Z" fill="#263238"/>
</g>
</g>
<path d="M77.8559 62.8994L77.0411 71.4952C76.9955 71.9722 76.81 72.3044 76.506 72.4855L71.2551 72.3738C71.0423 72.1806 70.8081 71.5677 70.8538 70.9125L71.4345 62.685C71.4679 62.1899 71.6564 61.8336 71.8814 61.8275L77.412 61.7007C77.6948 61.6947 77.9137 62.2865 77.8559 62.8994Z" fill="#263238"/>
<path d="M78.6182 64.6394C78.8401 64.3857 78.8097 63.9721 78.5999 63.7064C78.3902 63.4407 78.0405 63.3139 77.7 63.3079C77.3594 63.3018 77.028 63.4075 76.7149 63.5343C76.3257 63.6913 75.9547 63.8876 75.6051 64.117C75.3588 64.2801 75.1034 64.4884 75.0609 64.7782C75.0183 65.0681 75.3436 65.3911 75.596 65.2402C75.2646 65.3881 74.9362 65.7474 74.8906 66.1128C74.845 66.4811 75.0487 66.6743 75.4075 66.771C75.1369 66.8827 74.9727 67.2269 75.1034 67.4835C75.2402 67.7552 75.6264 67.8217 75.9091 67.7069C76.1919 67.5922 76.3987 67.3476 76.5932 67.1091C76.3987 67.4624 76.4139 68.027 76.499 68.4195C77.2804 68.1326 78.0527 67.2691 77.8216 66.4479C78.2016 66.149 78.375 65.5361 78.1348 65.1164C78.451 65.0107 78.8006 64.5216 78.7672 64.1895" fill="#FFBF9D"/>
<path d="M78.7145 63.8774L78.7783 67.5519L79.7391 68.986L84.1387 72.8929C84.1387 72.8929 83.485 78.2038 81.4996 77.6241C79.5141 77.0444 79.0307 76.667 77.8571 74.5233C77.2277 73.376 76.8416 71.5101 76.4767 70.4383C76.2639 69.8103 76.4524 67.7874 76.4524 67.7874L78.7145 63.8774Z" fill="#FFBF9D"/>
<path d="M75.4287 66.7589C75.4378 66.768 75.5594 66.6593 75.7631 66.4933C75.9669 66.3302 76.2648 66.1068 76.651 66.0162C76.8425 65.9709 77.0341 65.9679 77.1982 66.0041C77.3624 66.0404 77.5023 66.1158 77.6026 66.1943C77.8063 66.3544 77.855 66.5234 77.8702 66.5144C77.8732 66.5144 77.8702 66.4721 77.8367 66.4027C77.8063 66.3332 77.7425 66.2396 77.6421 66.1491C77.5388 66.0585 77.3959 65.9739 77.2165 65.9286C77.0401 65.8834 76.8334 65.8864 76.6297 65.9347C76.2192 66.0313 75.9182 66.2759 75.7206 66.451C75.529 66.6261 75.4226 66.7499 75.4287 66.7589Z" fill="#263238"/>
<path d="M75.4797 65.2572C75.4858 65.2693 75.6439 65.2029 75.8902 65.0761C76.0148 65.0157 76.1577 64.9402 76.328 64.8738C76.4952 64.8104 76.6898 64.756 76.8935 64.7138C77.0972 64.6745 77.2949 64.6655 77.4712 64.6956C77.6445 64.7258 77.7935 64.7923 77.903 64.8708C78.1249 65.0278 78.1736 65.2029 78.1888 65.1938C78.1918 65.1938 78.1857 65.1485 78.1523 65.0761C78.1188 65.0066 78.0519 64.907 77.9394 64.8194C77.8269 64.7319 77.6719 64.6504 77.4864 64.6141C77.3009 64.5779 77.0912 64.587 76.8783 64.6262C76.6685 64.6685 76.4739 64.7258 76.3006 64.7953C76.1273 64.8677 75.9844 64.9493 75.8628 65.0157C75.6226 65.1636 75.4767 65.2482 75.4797 65.2572Z" fill="#263238"/>
<path d="M83.6644 75.0036C83.6279 75.0006 83.862 74.4813 83.7191 73.6359C83.6492 73.2192 83.485 72.7301 83.1992 72.247C82.9164 71.7609 82.509 71.2839 82.0377 70.831C81.5634 70.3781 81.077 69.9796 80.6422 69.6082C80.2074 69.2368 79.8273 68.8836 79.5294 68.5665C79.2344 68.2495 79.0186 67.9657 78.8878 67.7634C78.754 67.5611 78.6993 67.4373 78.7054 67.4343C78.7145 67.4283 78.7905 67.54 78.9334 67.7302C79.0794 67.9204 79.3013 68.1891 79.6023 68.4941C79.9033 68.799 80.2895 69.1402 80.7273 69.5055C81.1651 69.8709 81.6577 70.2664 82.135 70.7253C82.6124 71.1842 83.0259 71.6734 83.3117 72.1776C83.5975 72.6818 83.7586 73.186 83.8164 73.6178C83.8742 74.0525 83.8377 74.4088 83.783 74.6443C83.7526 74.7621 83.7282 74.8526 83.7009 74.913C83.6826 74.9764 83.6674 75.0066 83.6644 75.0036Z" fill="#263238"/>
<path d="M151.833 26.4806V23.515C151.833 20.6392 149.508 18.3096 146.639 18.3096H127.257L127.24 18.3683C126.757 20.1104 125.643 21.2441 124.411 21.2441H123.704C122.47 21.2441 121.359 20.1104 120.876 18.3683L120.859 18.3096H101.47C98.6041 18.3096 96.2793 20.6392 96.2793 23.5115V26.4806H151.833Z" fill="#263238" stroke="#263238" stroke-width="0.412583" stroke-miterlimit="10"/>
<path d="M96.2754 125.469V128.265C96.2754 131.141 98.6002 133.47 101.47 133.47H146.638C149.508 133.47 151.833 131.141 151.833 128.265V125.469H96.2754Z" fill="#263238" stroke="#263238" stroke-width="0.412583" stroke-miterlimit="10"/>
<path d="M155.364 48.5339V38.0713H154.419V24.6778C154.419 20.1188 150.732 16.4204 146.179 16.4204H101.926C97.3762 16.4204 93.6855 20.1153 93.6855 24.6778V131.107C93.6855 135.666 97.3727 139.365 101.926 139.365H146.179C150.729 139.365 154.419 135.67 154.419 131.107V57.4514H155.364V51.2679H154.419V48.5339H155.364ZM151.832 125.211C151.832 129.773 148.142 133.468 143.592 133.468H104.516C99.9666 133.468 96.2759 129.773 96.2759 125.211V26.565C96.2759 22.006 99.9666 18.3111 104.516 18.3111H120.855L120.872 18.3698C121.355 20.1118 122.469 21.2455 123.701 21.2455H124.408C125.642 21.2455 126.753 20.1118 127.236 18.3698L127.253 18.3111H143.589C148.138 18.3111 151.829 22.006 151.829 26.565V125.211H151.832Z" fill="#92E3A9" stroke="#263238" stroke-width="0.412583" stroke-miterlimit="10" stroke-linecap="round" stroke-linejoin="round"/>
<path d="M145.52 17.5605H102.588C98.2002 17.5605 94.6406 21.1241 94.6406 25.5241V130.267C94.6406 134.663 98.1968 138.23 102.588 138.23H145.52C149.907 138.23 153.467 134.667 153.467 130.267V25.5206C153.467 21.1241 149.907 17.5605 145.52 17.5605ZM151.832 125.504C151.832 129.901 148.276 133.468 143.885 133.468H104.223C99.8351 133.468 96.2756 129.904 96.2756 125.504V26.2707C96.2756 21.8741 99.8317 18.3106 104.219 18.3106H120.855L120.872 18.3693C121.355 20.1114 122.469 21.2451 123.7 21.2451H124.407C125.642 21.2451 126.753 20.1114 127.236 18.3693L127.253 18.3106H143.882C148.269 18.3106 151.828 21.8741 151.828 26.2741V125.504H151.832Z" fill="#263238" stroke="#263238" stroke-width="0.412583" stroke-miterlimit="10" stroke-linecap="round" stroke-linejoin="round"/>
<rect x="96.1309" y="26.4824" width="55.5527" height="98.985" fill="white"/>
<path d="M151.646 73.4576C151.646 73.4963 139.226 73.5295 123.909 73.5295C108.587 73.5295 96.1699 73.4963 96.1699 73.4576C96.1699 73.4189 108.587 73.3857 123.909 73.3857C139.226 73.3857 151.646 73.4189 151.646 73.4576Z" fill="#E0E0E0"/>
<path d="M101.831 21.6743C101.831 22.4588 100.952 22.7423 100.948 23.3402V23.3817H101.8V23.6443H100.662V23.4197C100.662 22.5798 101.542 22.4174 101.542 21.6846C101.542 21.4185 101.452 21.2768 101.238 21.2768C101.028 21.2768 100.935 21.4289 100.935 21.6604V21.892H100.666V21.6812C100.666 21.2837 100.848 21.021 101.248 21.021C101.649 21.0176 101.831 21.2768 101.831 21.6743Z" fill="white"/>
<path d="M103.247 21.6689V21.7346C103.247 22.0007 103.14 22.1908 102.933 22.2703C103.15 22.3533 103.247 22.5503 103.247 22.8095V23.01C103.247 23.4074 103.061 23.6666 102.661 23.6666C102.264 23.6666 102.078 23.4074 102.078 23.01V22.8302H102.347V23.0272C102.347 23.2623 102.443 23.404 102.65 23.404C102.861 23.404 102.954 23.2657 102.954 23.003V22.8026C102.954 22.5468 102.847 22.4224 102.626 22.4155H102.471V22.1563H102.64C102.833 22.1493 102.95 22.0249 102.95 21.8003V21.6827C102.95 21.4166 102.857 21.2784 102.647 21.2784C102.44 21.2784 102.343 21.4235 102.343 21.6586V21.7933H102.074V21.6758C102.074 21.2784 102.26 21.0226 102.657 21.0226C103.064 21.0157 103.247 21.2714 103.247 21.6689Z" fill="white"/>
<path d="M103.811 21.8696V22.2291H103.531V21.8696H103.811ZM103.811 23.2867V23.6462H103.531V23.2867H103.811Z" fill="white"/>
<path d="M104.398 22.1016C104.481 21.9599 104.608 21.8873 104.784 21.8873C105.119 21.8873 105.267 22.1327 105.267 22.5025V23.0106C105.267 23.4081 105.077 23.6673 104.681 23.6673C104.284 23.6673 104.098 23.4081 104.098 23.0106V22.8343H104.367V23.0279C104.367 23.2629 104.463 23.4046 104.67 23.4046C104.877 23.4046 104.974 23.2629 104.974 23.0279V22.5233C104.974 22.2882 104.877 22.1465 104.67 22.1465C104.512 22.1465 104.405 22.2364 104.377 22.4265V22.4853H104.108L104.177 21.0405H105.201V21.2997H104.439L104.398 22.1016Z" fill="white"/>
<path d="M106.709 21.6669V21.7153H106.44V21.6496C106.44 21.4146 106.344 21.2798 106.133 21.2798C105.916 21.2798 105.819 21.4215 105.819 21.698V22.2821C105.888 22.1024 106.03 22.0022 106.24 22.0022C106.575 22.0022 106.723 22.2441 106.723 22.6174V23.0114C106.723 23.4089 106.527 23.6681 106.13 23.6681C105.73 23.6681 105.533 23.4089 105.533 23.0114V21.6842C105.533 21.2729 105.719 21.0137 106.13 21.0137C106.523 21.0171 106.709 21.2694 106.709 21.6669ZM105.816 22.6416V23.0321C105.816 23.2672 105.913 23.4089 106.123 23.4089C106.33 23.4089 106.43 23.2672 106.43 23.0321V22.6416C106.43 22.4066 106.33 22.2648 106.123 22.2648C105.913 22.2648 105.816 22.4066 105.816 22.6416Z" fill="white"/>
<path d="M135.046 21.7808H134.314V23.616H135.046V21.7808Z" fill="white"/>
<path d="M136.026 21.4116H135.291V23.6167H136.026V21.4116Z" fill="white"/>
<path d="M137 21.1523H136.266V23.6167H137V21.1523Z" fill="white"/>
<path d="M137.975 20.6978H137.244V23.6183H137.975V20.6978Z" fill="white"/>
<path d="M147.05 23.5586H142.652V20.8662H147.05V23.5586ZM142.897 23.3133H146.805V21.1116H142.897V23.3133Z" fill="white"/>
<path d="M145.585 21.3774H143.264V23.0468H145.585V21.3774Z" fill="white"/>
<path d="M147.45 21.8979H146.898V22.5339H147.45V21.8979Z" fill="white"/>
<path d="M141.038 22.9874C141.011 22.9874 140.98 22.9805 140.956 22.9632C140.062 22.431 139.469 22.9252 139.445 22.946C139.376 23.0047 139.272 22.9978 139.214 22.9287C139.155 22.8596 139.162 22.7559 139.228 22.6971C139.259 22.6695 140.017 22.0197 141.125 22.6798C141.204 22.7248 141.228 22.8285 141.183 22.9045C141.149 22.9563 141.097 22.9874 141.038 22.9874Z" fill="white"/>
<path d="M141.368 22.4278C141.34 22.4278 141.309 22.4209 141.285 22.4036C139.992 21.6329 139.122 22.3794 139.112 22.3863C139.043 22.4451 138.94 22.4382 138.881 22.3725C138.822 22.3034 138.826 22.1997 138.895 22.1409C138.905 22.1306 139.954 21.2319 141.454 22.1237C141.533 22.1686 141.557 22.2723 141.513 22.3483C141.478 22.4002 141.426 22.4278 141.368 22.4278Z" fill="white"/>
<path d="M141.67 21.7881C141.642 21.7881 141.611 21.7812 141.587 21.764C139.949 20.7858 138.859 21.7052 138.814 21.7467C138.745 21.8054 138.642 21.7985 138.583 21.7294C138.524 21.6603 138.531 21.5566 138.597 21.4978C138.611 21.4874 139.904 20.378 141.756 21.4805C141.835 21.5255 141.86 21.6292 141.815 21.7052C141.78 21.7605 141.725 21.7881 141.67 21.7881Z" fill="white"/>
<path d="M140.544 23.2541C140.544 23.4822 140.361 23.6654 140.133 23.6654C139.905 23.6654 139.723 23.4822 139.723 23.2541C139.723 23.026 139.905 22.8428 140.133 22.8428C140.361 22.8428 140.544 23.026 140.544 23.2541Z" fill="white"/>
<path d="M146.33 69.6249H104.145C103.408 69.6249 102.807 69.0282 102.807 68.2955V42.6912C102.807 41.9585 103.408 41.3618 104.145 41.3618H146.33C147.068 41.3618 147.669 41.9585 147.669 42.6912V68.2955C147.669 69.0282 147.068 69.6249 146.33 69.6249Z" fill="#EBEBEB"/>
<path d="M145.096 67.7855H102.911C102.173 67.7855 101.572 67.1889 101.572 66.4562V40.8518C101.572 40.1191 102.173 39.5225 102.911 39.5225H145.096C145.834 39.5225 146.435 40.1191 146.435 40.8518V66.4562C146.435 67.1889 145.834 67.7855 145.096 67.7855Z" fill="#E0E0E0"/>
<path d="M143.675 66.2621H101.487C100.749 66.2621 100.148 65.6685 100.148 64.9327V39.3284C100.148 38.5957 100.749 37.999 101.487 37.999H143.672C144.41 37.999 145.011 38.5957 145.011 39.3284V64.9327C145.014 65.6685 144.413 66.2621 143.675 66.2621Z" fill="#00C802"/>
<path d="M107.537 44.4549C107.537 44.8166 107.247 45.0268 106.693 45.0268H105.604V42.937H106.634C107.16 42.937 107.431 43.1565 107.431 43.4811C107.431 43.6913 107.322 43.8521 107.151 43.9417C107.384 44.0128 107.537 44.1921 107.537 44.4549ZM106.089 43.3018V43.7933H106.575C106.811 43.7933 106.942 43.7099 106.942 43.546C106.942 43.3822 106.811 43.3018 106.575 43.3018H106.089ZM107.045 44.4054C107.045 44.2292 106.911 44.1457 106.656 44.1457H106.086V44.662H106.656C106.911 44.662 107.045 44.5847 107.045 44.4054Z" fill="white"/>
<path d="M109.291 44.5785H108.314L108.127 45.0268H107.629L108.566 42.937H109.048L109.989 45.0268H109.478L109.291 44.5785ZM109.139 44.2107L108.806 43.41L108.473 44.2107H109.139Z" fill="white"/>
<path d="M112.138 42.937V45.0268H111.737L110.688 43.7562V45.0268H110.205V42.937H110.61L111.656 44.2076V42.937H112.138Z" fill="white"/>
<path d="M113.404 44.2045L113.12 44.4982V45.0268H112.635V42.937H113.12V43.9139L114.054 42.937H114.596L113.724 43.8675L114.649 45.0268H114.079L113.404 44.2045Z" fill="white"/>
<path d="M107.14 53.1468H106.754V53.6507H106.554V53.1468H105.465V53.0046L106.489 51.731H106.71L105.72 52.9706H106.561V52.5254H106.754V52.9706H107.14V53.1468Z" fill="white"/>
<path d="M108.562 53.1004C108.562 53.422 108.328 53.6693 107.861 53.6693C107.581 53.6693 107.313 53.5734 107.164 53.422L107.261 53.2643C107.385 53.3941 107.609 53.4869 107.861 53.4869C108.182 53.4869 108.36 53.3385 108.36 53.1004C108.36 52.8686 108.198 52.7202 107.836 52.7202H107.7V52.5749L108.235 51.9072H107.245V51.731H108.487V51.8701L107.939 52.5533C108.353 52.578 108.562 52.7944 108.562 53.1004Z" fill="white"/>
<path d="M110.123 53.0881C110.123 53.4158 109.893 53.6693 109.423 53.6693C109.143 53.6693 108.878 53.5734 108.729 53.422L108.825 53.2643C108.95 53.3941 109.171 53.4869 109.42 53.4869C109.75 53.4869 109.921 53.3292 109.921 53.0943C109.921 52.847 109.765 52.6924 109.273 52.6924H108.862L108.962 51.731H110.02V51.9072H109.136L109.071 52.5193H109.32C109.902 52.5193 110.123 52.748 110.123 53.0881Z" fill="white"/>
<path d="M111.827 53.0824C111.827 53.441 111.544 53.6728 111.167 53.6728C110.653 53.6728 110.373 53.3204 110.373 52.7145C110.373 52.0622 110.731 51.7222 111.257 51.7222C111.432 51.7222 111.593 51.7531 111.715 51.8273L111.634 51.9849C111.534 51.92 111.403 51.8953 111.257 51.8953C110.84 51.8953 110.572 52.1611 110.572 52.6836C110.572 52.7269 110.575 52.7825 110.582 52.8413C110.678 52.631 110.905 52.5136 111.173 52.5136C111.559 52.5074 111.827 52.7331 111.827 53.0824ZM111.631 53.0886C111.631 52.8351 111.444 52.6743 111.145 52.6743C110.849 52.6743 110.647 52.8567 110.647 53.0947C110.647 53.305 110.824 53.5059 111.158 53.5059C111.438 53.5059 111.631 53.3421 111.631 53.0886Z" fill="white"/>
<path d="M116.005 53.6618L115.544 53.059L115.08 53.6618H114.859L115.435 52.9229L114.887 52.2212H115.108L115.544 52.7869L115.98 52.2212H116.195L115.647 52.9229L116.226 53.6618H116.005Z" fill="white"/>
<path d="M117.482 53.6618L117.021 53.059L116.557 53.6618H116.336L116.912 52.9229L116.364 52.2212H116.585L117.021 52.7869L117.457 52.2212H117.671L117.124 52.9229L117.703 53.6618H117.482Z" fill="white"/>
<path d="M118.954 53.6618L118.493 53.059L118.03 53.6618H117.809L118.385 52.9229L117.837 52.2212H118.058L118.493 52.7869L118.929 52.2212H119.144L118.596 52.9229L119.175 53.6618H118.954Z" fill="white"/>
<path d="M120.427 53.6618L119.966 53.059L119.502 53.6618H119.281L119.857 52.9229L119.309 52.2212H119.53L119.966 52.7869L120.402 52.2212H120.617L120.069 52.9229L120.648 53.6618H120.427Z" fill="white"/>
<path d="M125.521 53.6618L125.06 53.059L124.596 53.6618H124.375L124.951 52.9229L124.403 52.2212H124.624L125.06 52.7869L125.496 52.2212H125.71L125.163 52.9229L125.742 53.6618H125.521Z" fill="white"/>
<path d="M126.995 53.6618L126.534 53.059L126.071 53.6618H125.85L126.426 52.9229L125.878 52.2212H126.099L126.534 52.7869L126.97 52.2212H127.185L126.637 52.9229L127.216 53.6618H126.995Z" fill="white"/>
<path d="M128.472 53.6618L128.011 53.059L127.547 53.6618H127.326L127.902 52.9229L127.354 52.2212H127.575L128.011 52.7869L128.447 52.2212H128.662L128.114 52.9229L128.693 53.6618H128.472Z" fill="white"/>
<path d="M129.944 53.6618L129.484 53.059L129.02 53.6618H128.799L129.375 52.9229L128.827 52.2212H129.048L129.484 52.7869L129.92 52.2212H130.134L129.586 52.9229L130.165 53.6618H129.944Z" fill="white"/>
<path d="M134.517 51.7363V53.6561H134.318V51.9125H133.863V51.7363H134.517V51.7363Z" fill="white"/>
<path d="M136.257 53.1004C136.257 53.422 136.024 53.6693 135.557 53.6693C135.277 53.6693 135.009 53.5734 134.859 53.422L134.956 53.2643C135.08 53.3941 135.305 53.4869 135.557 53.4869C135.877 53.4869 136.055 53.3385 136.055 53.1004C136.055 52.8686 135.893 52.7202 135.532 52.7202H135.395V52.5749L135.93 51.9072H134.94V51.731H136.182V51.8701L135.635 52.5533C136.049 52.578 136.257 52.7944 136.257 53.1004Z" fill="white"/>
<path d="M138.179 53.1468H137.793V53.6507H137.593V53.1468H136.504V53.0046L137.528 51.731H137.749L136.759 52.9706H137.6V52.5254H137.793V52.9706H138.179V53.1468Z" fill="white"/>
<path d="M139.669 53.4812V53.6574H138.312V53.5183L139.115 52.7361C139.333 52.5228 139.373 52.393 139.373 52.2632C139.373 52.0406 139.218 51.9046 138.922 51.9046C138.695 51.9046 138.52 51.9726 138.396 52.1179L138.256 51.9973C138.405 51.8211 138.645 51.7222 138.941 51.7222C139.333 51.7222 139.582 51.92 139.582 52.2415C139.582 52.4239 139.523 52.5909 139.265 52.8413L138.608 53.4843H139.669V53.4812Z" fill="white"/>
<path d="M104.473 57.6341C104.473 57.359 104.687 57.1611 104.974 57.1611C105.133 57.1611 105.266 57.2199 105.354 57.3219L105.217 57.4486C105.154 57.3775 105.077 57.3404 104.986 57.3404C104.815 57.3404 104.691 57.461 104.691 57.6341C104.691 57.8072 104.812 57.9278 104.986 57.9278C105.08 57.9278 105.158 57.8907 105.217 57.8196L105.354 57.9464C105.266 58.0515 105.133 58.1102 104.974 58.1102C104.687 58.1102 104.473 57.9123 104.473 57.6341Z" fill="white"/>
<path d="M106.086 57.8975H105.656L105.575 58.0923H105.357L105.768 57.1772H105.98L106.391 58.0923H106.167L106.086 57.8975ZM106.017 57.7368L105.871 57.3875L105.725 57.7368H106.017Z" fill="white"/>
<path d="M107.081 58.0923L106.903 57.8357H106.894H106.707V58.0923H106.492V57.1772H106.891C107.137 57.1772 107.292 57.304 107.292 57.5111C107.292 57.6471 107.224 57.7492 107.102 57.8017L107.311 58.0954H107.081V58.0923ZM106.881 57.3504H106.707V57.6688H106.881C107.012 57.6688 107.077 57.61 107.077 57.508C107.077 57.4091 107.012 57.3504 106.881 57.3504Z" fill="white"/>
<path d="M107.391 58.002L107.462 57.8412C107.54 57.8969 107.655 57.9371 107.767 57.9371C107.895 57.9371 107.945 57.8938 107.945 57.8382C107.945 57.6681 107.409 57.7856 107.409 57.4455C107.409 57.291 107.537 57.1611 107.798 57.1611C107.914 57.1611 108.032 57.189 108.119 57.2415L108.054 57.4023C107.967 57.3528 107.879 57.3312 107.798 57.3312C107.671 57.3312 107.624 57.3775 107.624 57.4363C107.624 57.6063 108.16 57.4888 108.16 57.8258C108.16 57.9804 108.032 58.1102 107.767 58.1102C107.618 58.1102 107.472 58.0669 107.391 58.002Z" fill="white"/>
<path d="M109.522 57.1772V58.0923H109.307V57.7182H108.887V58.0923H108.672V57.1772H108.887V57.5389H109.307V57.1772H109.522Z" fill="white"/>
<path d="M109.686 57.6341C109.686 57.3621 109.9 57.1611 110.19 57.1611C110.479 57.1611 110.694 57.3621 110.694 57.6341C110.694 57.9062 110.479 58.1071 110.19 58.1071C109.9 58.1102 109.686 57.9062 109.686 57.6341ZM110.479 57.6341C110.479 57.461 110.355 57.3404 110.19 57.3404C110.025 57.3404 109.9 57.461 109.9 57.6341C109.9 57.8072 110.025 57.9278 110.19 57.9278C110.355 57.9278 110.479 57.8103 110.479 57.6341Z" fill="white"/>
<path d="M110.859 57.1772H111.074V57.9192H111.538V58.0923H110.859V57.1772Z" fill="white"/>
<path d="M111.654 57.1772H112.075C112.377 57.1772 112.582 57.3565 112.582 57.6348C112.582 57.913 112.377 58.0923 112.075 58.0923H111.654V57.1772ZM112.062 57.9192C112.246 57.9192 112.364 57.811 112.364 57.6348C112.364 57.4586 112.243 57.3504 112.062 57.3504H111.866V57.9192H112.062V57.9192Z" fill="white"/>
<path d="M113.457 57.9223V58.0923H112.744V57.1772H113.441V57.3473H112.956V57.5451H113.385V57.709H112.956V57.9223H113.457Z" fill="white"/>
<path d="M114.216 58.0923L114.039 57.8357H114.029H113.843V58.0923H113.631V57.1772H114.029C114.275 57.1772 114.431 57.304 114.431 57.5111C114.431 57.6471 114.362 57.7492 114.241 57.8017L114.45 58.0954H114.216V58.0923ZM114.017 57.3504H113.843V57.6688H114.017C114.148 57.6688 114.213 57.61 114.213 57.508C114.213 57.4091 114.148 57.3504 114.017 57.3504Z" fill="white"/>
<path d="M117.45 61.5492H104.755C104.481 61.5492 104.26 61.3297 104.26 61.0577V60.866C104.26 60.594 104.481 60.3745 104.755 60.3745H117.45C117.724 60.3745 117.945 60.594 117.945 60.866V61.0577C117.942 61.3297 117.721 61.5492 117.45 61.5492Z" fill="white"/>
<path d="M140.066 61.5492H133.454C133.18 61.5492 132.959 61.3297 132.959 61.0577V60.866C132.959 60.594 133.18 60.3745 133.454 60.3745H140.066C140.34 60.3745 140.561 60.594 140.561 60.866V61.0577C140.561 61.3297 140.34 61.5492 140.066 61.5492Z" fill="white"/>
<g opacity="0.2">
<g opacity="0.2">
<g opacity="0.2">
<path opacity="0.2" d="M143.532 37.999H101.643C100.821 37.999 100.158 38.6606 100.158 39.4737V46.9367C102.804 48.77 106.441 49.0916 109.666 48.4207C113.467 47.6323 116.911 45.7001 120.454 44.1203C123.997 42.5374 127.885 41.2668 131.714 41.9191C135.326 42.5343 138.405 44.7695 141.671 46.4235C142.726 46.9584 143.862 47.4283 145.024 47.7653V39.4768C145.02 38.6606 144.354 37.999 143.532 37.999Z" fill="white"/>
</g>
</g>
</g>
<path d="M144.627 81.246H102.337C101.05 81.246 100.004 80.6187 100.004 79.8466V79.2935C100.004 78.5214 101.05 77.894 102.337 77.894H144.627C145.914 77.894 146.96 78.5214 146.96 79.2935V79.8466C146.966 80.6187 145.92 81.246 144.627 81.246Z" fill="#E0E0E0"/>
<path d="M121.41 87.8334H102.345C101.058 87.8334 100.012 87.2061 100.012 86.434V85.8809C100.012 85.1088 101.058 84.4814 102.345 84.4814H121.41C122.697 84.4814 123.743 85.1088 123.743 85.8809V86.434C123.743 87.2061 122.697 87.8334 121.41 87.8334Z" fill="#E0E0E0"/>
<path d="M135.887 105.539H111.929C109.334 105.539 107.229 103.448 107.229 100.871V99.034C107.229 96.4568 109.334 94.3662 111.929 94.3662H135.887C138.483 94.3662 140.588 96.4568 140.588 99.034V100.871C140.585 103.448 138.483 105.539 135.887 105.539Z" fill="#00C802"/>
<path d="M123.25 99.4265C123.25 99.9879 122.824 100.336 122.145 100.336H121.713V100.981H121.012V98.5137H122.148C122.824 98.5137 123.25 98.8621 123.25 99.4265ZM122.54 99.4265C122.54 99.1961 122.395 99.0636 122.105 99.0636H121.713V99.7864H122.105C122.395 99.7835 122.54 99.6511 122.54 99.4265Z" fill="white"/>
<path d="M125.128 100.502H124.078L123.884 100.98H123.168L124.264 98.5122H124.957L126.056 100.98H125.325L125.128 100.502ZM124.922 99.9865L124.603 99.1975L124.284 99.9865H124.922Z" fill="white"/>
<path d="M127.431 100.096V100.98H126.729V100.084L125.781 98.5122H126.524L127.112 99.4912L127.701 98.5122H128.382L127.431 100.096Z" fill="white"/>
<path d="M147.887 30.0913C147.887 30.3442 147.679 30.5509 147.422 30.5509C147.167 30.5509 146.959 30.3442 146.959 30.0886C146.959 29.8356 147.167 29.6289 147.425 29.6289C147.682 29.6289 147.887 29.8356 147.887 30.0913Z" fill="#263238"/>
<path d="M147.88 31.7534C147.88 32.0063 147.672 32.213 147.414 32.213C147.159 32.213 146.951 32.0063 146.951 31.7507C146.951 31.4977 147.159 31.291 147.417 31.291C147.674 31.2937 147.882 31.5004 147.88 31.7534Z" fill="#263238"/>
<path d="M147.872 33.4096C147.872 33.6626 147.664 33.8693 147.406 33.8693C147.152 33.8693 146.943 33.6626 146.943 33.4069C146.943 33.154 147.152 32.9473 147.409 32.9473C147.666 32.9473 147.872 33.154 147.872 33.4096Z" fill="#263238"/>
<path d="M104.381 32.2159C104.642 31.124 103.961 30.0292 102.862 29.7706C101.762 29.512 100.66 30.1874 100.399 31.2793C100.139 32.3712 100.819 33.466 101.919 33.7247C103.018 33.9833 104.121 33.3078 104.381 32.2159Z" fill="#00C802"/>
<path d="M132.809 32.6423H118.989C118.575 32.6423 118.238 32.3105 118.238 31.8971V31.6061C118.238 31.1954 118.572 30.8608 118.989 30.8608H132.809C133.223 30.8608 133.56 31.1927 133.56 31.6061V31.8998C133.557 32.3078 133.223 32.6423 132.809 32.6423Z" fill="#E0E0E0"/>
<path d="M145.121 114.105H102.436V116.937H145.121V114.105Z" fill="#263238"/>
<path d="M104.453 115.517C104.827 115.639 109.828 115.639 109.828 125.446C109.828 135.253 109.578 147.414 114.826 147.785C120.075 148.156 147.695 147.785 147.695 147.785V123.178C147.695 119.076 144.361 115.747 140.23 115.721L104.453 115.517Z" fill="#FAFAFA"/>
<path d="M104.453 115.517C104.988 115.517 112.442 115.539 125.215 115.58C128.437 115.591 131.962 115.606 135.749 115.617C136.694 115.621 137.659 115.624 138.638 115.632C139.61 115.654 140.615 115.58 141.621 115.776C142.619 115.966 143.598 116.359 144.462 116.942C145.325 117.529 146.077 118.304 146.641 119.21C147.206 120.116 147.583 121.155 147.722 122.239C147.789 122.781 147.789 123.334 147.785 123.876C147.785 124.422 147.785 124.971 147.785 125.524C147.785 127.733 147.785 129.986 147.789 132.28C147.789 136.868 147.789 141.623 147.793 146.49C147.793 146.931 147.793 147.373 147.793 147.781V147.878H147.695C138.036 147.993 128.848 148.078 120.501 148.015C119.458 148.008 118.426 147.989 117.409 147.967C116.389 147.93 115.395 147.941 114.393 147.804C113.896 147.696 113.432 147.473 113.04 147.173C112.655 146.857 112.337 146.482 112.068 146.078C111.544 145.265 111.212 144.37 110.954 143.483C110.445 141.701 110.225 139.927 110.064 138.223C109.911 136.519 109.844 134.878 109.806 133.316C109.724 130.186 109.788 127.358 109.75 124.878C109.702 122.406 109.317 120.264 108.543 118.698C108.165 117.911 107.683 117.295 107.208 116.823C106.719 116.363 106.218 116.081 105.799 115.888C104.95 115.554 104.442 115.546 104.453 115.517C104.509 115.524 104.603 115.539 104.808 115.569C105.04 115.613 105.392 115.684 105.821 115.858C106.244 116.044 106.756 116.326 107.253 116.786C107.735 117.258 108.233 117.877 108.618 118.668C109.406 120.246 109.806 122.399 109.862 124.878C109.911 127.362 109.855 130.19 109.945 133.312C109.989 134.875 110.057 136.512 110.214 138.208C110.374 139.904 110.602 141.671 111.107 143.435C111.365 144.311 111.694 145.194 112.206 145.985C112.468 146.375 112.774 146.738 113.144 147.039C113.522 147.325 113.959 147.536 114.43 147.637C115.387 147.763 116.404 147.755 117.417 147.789C118.434 147.807 119.462 147.826 120.505 147.833C128.848 147.889 138.036 147.796 147.695 147.681L147.598 147.778C147.598 147.369 147.598 146.928 147.598 146.486C147.598 141.619 147.598 136.868 147.602 132.276C147.602 129.982 147.602 127.729 147.606 125.52C147.606 124.967 147.606 124.418 147.606 123.872C147.609 123.323 147.606 122.785 147.542 122.258C147.411 121.2 147.041 120.186 146.492 119.299C145.942 118.412 145.21 117.655 144.365 117.079C143.52 116.508 142.567 116.122 141.587 115.936C140.612 115.743 139.614 115.81 138.642 115.788C137.67 115.78 136.709 115.773 135.767 115.769C131.999 115.739 128.489 115.713 125.286 115.687C112.471 115.587 104.992 115.524 104.453 115.517Z" fill="#263238"/>
<path d="M114.953 147.788C114.953 147.788 119.274 147.788 120.201 141.459C121.304 133.916 120.201 127.312 126.074 127.064C131.946 126.815 147.695 127.064 147.695 127.064V147.788H114.953V147.788Z" fill="#E0E0E0"/>
<path d="M125.338 127.139C125.338 127.139 130.074 126.567 130.074 134.389C130.074 142.206 130.197 147.377 135.449 147.956C140.698 148.535 172.942 147.956 172.942 147.956C172.942 147.956 167.817 145.558 167.444 138.483C167.07 131.408 165.571 127.095 160.446 126.953C155.321 126.816 125.338 127.139 125.338 127.139Z" fill="#FAFAFA"/>
<path d="M125.338 127.14C125.394 127.136 125.477 127.133 125.656 127.125C125.873 127.121 126.183 127.114 126.587 127.107C127.413 127.095 128.62 127.077 130.175 127.055C133.3 127.021 137.812 126.973 143.393 126.91C146.185 126.891 149.243 126.869 152.529 126.847C154.174 126.843 155.871 126.843 157.624 126.839C158.499 126.843 159.388 126.847 160.289 126.865C161.194 126.902 162.125 127.014 162.996 127.381C163.859 127.756 164.622 128.372 165.194 129.137C165.769 129.902 166.18 130.785 166.491 131.702C167.074 133.551 167.336 135.518 167.478 137.515C167.511 138.016 167.537 138.517 167.593 139.015L167.668 139.765L167.81 140.507L167.881 140.878L167.982 141.246L168.192 141.977C168.378 142.452 168.543 142.935 168.786 143.388C169.687 145.218 171.137 146.866 172.987 147.868L173.316 148.046L172.95 148.053C172.67 148.057 172.363 148.065 172.057 148.068C163.403 148.209 155.161 148.302 147.662 148.302C143.913 148.295 140.35 148.284 137.016 148.143C136.182 148.087 135.356 148.068 134.564 147.879C133.775 147.69 133.027 147.337 132.437 146.817C131.846 146.301 131.416 145.641 131.121 144.961C130.818 144.278 130.628 143.577 130.489 142.883C130.22 141.494 130.134 140.147 130.086 138.881C130.037 137.612 130.033 136.416 130.033 135.299C130.037 134.739 130.033 134.2 130.007 133.684C129.992 133.424 129.996 133.172 129.97 132.923C129.94 132.675 129.91 132.433 129.88 132.196C129.865 132.077 129.85 131.962 129.835 131.843C129.809 131.728 129.783 131.617 129.76 131.505C129.712 131.283 129.659 131.064 129.611 130.852C129.54 130.648 129.473 130.447 129.405 130.251C129.372 130.154 129.338 130.058 129.304 129.961C129.259 129.872 129.215 129.783 129.173 129.694C128.852 128.977 128.396 128.428 127.932 128.042C127.473 127.649 126.998 127.43 126.598 127.311C126.202 127.185 125.884 127.151 125.671 127.14C125.566 127.133 125.484 127.133 125.428 127.136C125.379 127.14 125.357 127.14 125.338 127.14C125.334 127.144 125.364 127.133 125.42 127.129C125.473 127.125 125.555 127.121 125.663 127.125C125.876 127.129 126.198 127.155 126.602 127.277C127.005 127.389 127.491 127.608 127.959 128.001C128.43 128.387 128.901 128.94 129.23 129.664C129.97 131.086 130.142 133.072 130.13 135.299C130.138 136.416 130.145 137.612 130.198 138.877C130.254 140.143 130.34 141.483 130.613 142.857C130.751 143.543 130.942 144.238 131.241 144.906C131.532 145.574 131.951 146.209 132.527 146.706C133.095 147.211 133.82 147.545 134.59 147.731C135.364 147.912 136.186 147.931 137.016 147.983C140.343 148.117 143.909 148.12 147.655 148.124C155.153 148.117 163.396 148.016 172.049 147.875C172.356 147.872 172.662 147.864 172.943 147.86L172.902 148.046C170.991 147.007 169.534 145.34 168.61 143.473C168.363 143.013 168.195 142.519 168.008 142.036L167.795 141.294L167.691 140.923L167.62 140.544L167.478 139.791L167.403 139.03C167.347 138.525 167.321 138.024 167.287 137.526C167.149 135.537 166.891 133.58 166.315 131.758C166.012 130.852 165.609 129.987 165.048 129.245C164.491 128.502 163.758 127.908 162.925 127.545C162.084 127.188 161.175 127.077 160.286 127.04C159.388 127.021 158.499 127.014 157.624 127.01C155.875 127.01 154.174 127.01 152.533 127.006C149.247 127.021 146.189 127.032 143.397 127.047C137.816 127.081 133.304 127.11 130.179 127.129C128.624 127.136 127.413 127.144 126.59 127.147C126.183 127.147 125.873 127.147 125.656 127.147C125.477 127.14 125.391 127.14 125.338 127.14Z" fill="#263238"/>
<path d="M126.588 127.118C126.588 127.141 126.211 127.104 125.542 127.196C124.884 127.289 123.897 127.575 123.03 128.41C122.148 129.223 121.493 130.556 121.164 132.096C120.824 133.648 120.806 135.404 120.727 137.241C120.649 139.078 120.529 140.845 120.125 142.404C119.931 143.184 119.643 143.897 119.352 144.546C119.052 145.196 118.72 145.779 118.331 146.254C117.946 146.729 117.497 147.082 117.068 147.312C116.634 147.542 116.223 147.649 115.89 147.716C115.554 147.768 115.288 147.794 115.109 147.787C114.929 147.787 114.836 147.787 114.836 147.779C114.836 147.772 114.929 147.761 115.109 147.75C115.288 147.742 115.546 147.705 115.879 147.642C116.204 147.564 116.604 147.449 117.019 147.215C117.43 146.981 117.856 146.636 118.226 146.165C118.596 145.697 118.918 145.122 119.206 144.476C119.49 143.83 119.766 143.125 119.953 142.356C120.342 140.816 120.458 139.064 120.537 137.23C120.619 135.396 120.641 133.629 120.996 132.055C121.34 130.489 122.024 129.13 122.944 128.306C123.848 127.456 124.873 127.185 125.542 127.115C125.71 127.092 125.863 127.081 125.994 127.085C126.125 127.081 126.237 127.081 126.327 127.089C126.495 127.104 126.588 127.111 126.588 127.118Z" fill="#263238"/>
<path d="M142.316 121.197C142.316 121.249 136.261 121.294 128.792 121.294C121.32 121.294 115.268 121.249 115.268 121.197C115.268 121.145 121.323 121.101 128.792 121.101C136.257 121.101 142.316 121.141 142.316 121.197Z" fill="#E0E0E0"/>
<path d="M142.874 125.196C142.874 125.248 137.02 125.292 129.798 125.292C122.573 125.292 116.719 125.248 116.719 125.196C116.719 125.144 122.573 125.099 129.798 125.099C137.02 125.099 142.874 125.144 142.874 125.196Z" fill="#E0E0E0"/>
<path d="M161.316 132.971C161.316 133.023 155.261 133.068 147.792 133.068C140.32 133.068 134.268 133.023 134.268 132.971C134.268 132.919 140.323 132.875 147.792 132.875C155.261 132.875 161.316 132.919 161.316 132.971Z" fill="#E0E0E0"/>
<path d="M161.653 137.628C161.653 137.68 156.098 137.725 149.247 137.725C142.395 137.725 136.84 137.68 136.84 137.628C136.84 137.576 142.395 137.532 149.247 137.532C156.095 137.532 161.653 137.576 161.653 137.628Z" fill="#E0E0E0"/>
</svg>
