<svg width="50" height="50" viewBox="0 0 50 50" fill="none" xmlns="http://www.w3.org/2000/svg">
<g filter="url(#filter0_i_10700_47983)">
<path d="M40 0H10C4.47715 0 0 4.47715 0 10V40C0 45.5228 4.47715 50 10 50H40C45.5228 50 50 45.5228 50 40V10C50 4.47715 45.5228 0 40 0Z" fill="#1D2124"/>
</g>
<path d="M14 29H36V31C36 31.5523 35.5523 32 35 32H15C14.4477 32 14 31.5523 14 31V29Z" fill="#00C802"/>
<path d="M15.625 31.5625H34.375C35.4105 31.5625 36.25 30.723 36.25 29.6875V16.5625C36.25 15.527 35.4105 14.6875 34.375 14.6875H15.625C14.5895 14.6875 13.75 15.527 13.75 16.5625V29.6875C13.75 30.723 14.5895 31.5625 15.625 31.5625Z" stroke="white" stroke-linecap="round" stroke-linejoin="round"/>
<path d="M24.0271 21.5723H21.1699V25.3818H24.0271V21.5723Z" fill="#00C802"/>
<path d="M28.7888 21.5723H25.9316V25.3818H28.7888V21.5723Z" fill="#00C802"/>
<path d="M21.229 21.334V25.5007" stroke="white" stroke-linecap="round" stroke-linejoin="round"/>
<path d="M23.729 21.334V25.5007" stroke="white" stroke-linecap="round" stroke-linejoin="round"/>
<path d="M26.229 21.334V25.5007" stroke="white" stroke-linecap="round" stroke-linejoin="round"/>
<path d="M28.729 21.334V25.5007" stroke="white" stroke-linecap="round" stroke-linejoin="round"/>
<path d="M19.979 25.5H29.979" stroke="white" stroke-linecap="round" stroke-linejoin="round"/>
<path d="M19.5625 21.3333H30.3958L24.9792 18L19.5625 21.3333Z" stroke="white" stroke-linecap="round" stroke-linejoin="round"/>
<path d="M28.75 35.3125H21.25" stroke="white" stroke-linecap="round" stroke-linejoin="round"/>
<path d="M36.25 28.6875H13.75" stroke="white" stroke-linecap="round" stroke-linejoin="round"/>
<path d="M25 31.5625V35.3125" stroke="white" stroke-linecap="round" stroke-linejoin="round"/>
<defs>
<filter id="filter0_i_10700_47983" x="0" y="0" width="50" height="55" filterUnits="userSpaceOnUse" color-interpolation-filters="sRGB">
<feFlood flood-opacity="0" result="BackgroundImageFix"/>
<feBlend mode="normal" in="SourceGraphic" in2="BackgroundImageFix" result="shape"/>
<feColorMatrix in="SourceAlpha" type="matrix" values="0 0 0 0 0 0 0 0 0 0 0 0 0 0 0 0 0 0 127 0" result="hardAlpha"/>
<feOffset dy="5"/>
<feGaussianBlur stdDeviation="7.5"/>
<feComposite in2="hardAlpha" operator="arithmetic" k2="-1" k3="1"/>
<feColorMatrix type="matrix" values="0 0 0 0 0 0 0 0 0 0 0 0 0 0 0 0 0 0 0.05 0"/>
<feBlend mode="normal" in2="shape" result="effect1_innerShadow_10700_47983"/>
</filter>
</defs>
</svg>
