<svg width="354" height="360" viewBox="0 0 354 360" fill="none" xmlns="http://www.w3.org/2000/svg">
<mask id="mask0_6833_40690" style="mask-type:alpha" maskUnits="userSpaceOnUse" x="0" y="0" width="354" height="360">
<rect width="354" height="360" fill="#C4C4C4"/>
</mask>
<g mask="url(#mask0_6833_40690)">
<path d="M225.114 34.6942C284.188 32.7721 318.011 115.69 300.136 163.465C282.26 211.241 265.868 232.171 292.488 253.462C319.108 274.752 333.77 311.741 295.008 334.017C256.247 356.294 192.739 347.919 152.591 303.57C112.443 259.222 63.2064 284.336 38.4051 211.164C24.8871 171.268 64.6262 149.937 100.526 138.234C136.425 126.531 156.591 36.9293 225.114 34.6942Z" fill="#C25E54"/>
<path opacity="0.9" d="M225.114 34.6942C284.188 32.7721 318.011 115.69 300.136 163.465C282.26 211.241 265.868 232.171 292.488 253.462C319.108 274.752 333.77 311.741 295.008 334.017C256.247 356.294 192.739 347.919 152.591 303.57C112.443 259.222 63.2064 284.336 38.4051 211.164C24.8871 171.268 64.6262 149.937 100.526 138.234C136.425 126.531 156.591 36.9293 225.114 34.6942Z" fill="white"/>
<path d="M174.507 363.617C270.885 363.617 349.014 359.056 349.014 353.429C349.014 347.802 270.885 343.241 174.507 343.241C78.1295 343.241 0 347.802 0 353.429C0 359.056 78.1295 363.617 174.507 363.617Z" fill="#F5F5F5"/>
<path d="M45.9556 323.728C45.9556 323.728 40.0334 310.812 46.7926 298.085C53.5519 285.358 55.5229 282.351 51.2118 279.741C46.9006 277.131 44.9116 289.93 44.9116 289.93C44.9116 289.93 41.3114 281.127 44.2725 271.929C47.2336 262.73 49.1597 247.717 45.0646 246.105C40.9694 244.494 44.2815 264.818 40.7264 271.749C38.9137 266.884 37.7428 261.804 37.2433 256.636C36.7573 249.238 37.5223 237.429 34.2822 234.396C31.0421 231.362 28.981 233.495 32.1581 249.787C34.072 259.55 35.132 269.461 35.3262 279.408C35.3262 279.408 28.297 257.986 23.6258 257.365C18.9547 256.744 18.9187 263.666 22.9598 269.687C27.0009 275.709 34.7322 286.456 36.0012 292.009C36.0012 292.009 28.297 275.889 21.3577 280.83C14.4185 285.772 27.397 295.502 33.2022 299.012C39.0074 302.522 43.0035 324.583 43.0035 324.583L45.9556 323.728Z" fill="#00C802"/>
<path opacity="0.2" d="M45.9556 323.728C45.9556 323.728 40.0334 310.812 46.7926 298.085C53.5519 285.358 55.5229 282.351 51.2118 279.741C46.9006 277.131 44.9116 289.93 44.9116 289.93C44.9116 289.93 41.3114 281.127 44.2725 271.929C47.2336 262.73 49.1597 247.717 45.0646 246.105C40.9694 244.494 44.2815 264.818 40.7264 271.749C38.9137 266.884 37.7428 261.804 37.2433 256.636C36.7573 249.238 37.5223 237.429 34.2822 234.396C31.0421 231.362 28.981 233.495 32.1581 249.787C34.072 259.55 35.132 269.461 35.3262 279.408C35.3262 279.408 28.297 257.986 23.6258 257.365C18.9547 256.744 18.9187 263.666 22.9598 269.687C27.0009 275.709 34.7322 286.456 36.0012 292.009C36.0012 292.009 28.297 275.889 21.3577 280.83C14.4185 285.772 27.397 295.502 33.2022 299.012C39.0074 302.522 43.0035 324.583 43.0035 324.583L45.9556 323.728Z" fill="black"/>
<path d="M41.3024 329.029C41.3024 329.029 47.0716 316.023 40.1593 303.395C33.2471 290.767 31.24 287.797 35.5242 285.124C39.8083 282.451 41.9324 295.214 41.9324 295.214C41.9324 295.214 45.4605 286.357 42.3554 277.212C39.2503 268.067 37.1802 253.072 41.2574 251.407C45.3345 249.742 42.2654 270.111 45.9015 276.978C47.6573 272.091 48.7647 266.996 49.1956 261.821C49.6006 254.413 48.6916 242.613 51.8957 239.535C55.0998 236.457 57.1879 238.527 54.2088 254.899C52.4122 264.679 51.4726 274.596 51.4007 284.539C51.4007 284.539 58.1689 263.018 62.8761 262.325C67.5833 261.632 67.6553 268.562 63.6951 274.638C59.735 280.713 52.0847 291.604 50.8697 297.14C50.8697 297.14 58.385 280.938 65.3782 285.745C72.3714 290.551 59.519 300.515 53.7858 304.115C48.0526 307.716 44.2635 329.812 44.2635 329.812L41.3024 329.029Z" fill="#00C802"/>
<path d="M67.8624 319.759H20.2507L24.1029 353.836H64.0102L67.8624 319.759Z" fill="#263238"/>
<path d="M299.377 130.96V353.513H158.189V254.901L173.202 233.992L259.038 114.471L299.377 130.96Z" fill="#263238"/>
<path opacity="0.2" d="M299.377 130.96V353.513H158.189V254.901L173.202 233.992L259.038 114.471L299.377 130.96Z" fill="white"/>
<path opacity="0.2" d="M236.708 233.991V353.836H158.189V254.9L173.202 233.991H236.708Z" fill="white"/>
<path opacity="0.2" d="M218.995 325.043H170.475V278.959H218.995V325.043ZM171.294 324.215H218.158V279.787H171.303L171.294 324.215Z" fill="black"/>
<path d="M264.735 110.618H200.275C200.275 110.618 152.141 207.205 152.141 226.395V256.151C152.141 257.715 152.762 259.214 153.868 260.32C154.973 261.426 156.473 262.047 158.036 262.047H237.68C238.454 262.047 239.221 261.894 239.936 261.598C240.651 261.302 241.301 260.867 241.849 260.32C242.396 259.773 242.83 259.123 243.127 258.407C243.423 257.692 243.575 256.925 243.575 256.151V225.63C243.575 199.645 268.929 114.471 268.929 114.471L264.735 110.618Z" fill="#00C802"/>
<path opacity="0.2" d="M230.813 262.047C232.376 262.047 233.876 261.426 234.981 260.32C236.087 259.214 236.708 257.715 236.708 256.151V226.395C236.708 200.959 264.735 110.618 264.735 110.618H200.275C200.275 110.618 152.141 207.205 152.141 226.395V256.151C152.141 257.715 152.762 259.214 153.868 260.32C154.973 261.426 156.473 262.047 158.036 262.047H230.813Z" fill="white"/>
<path opacity="0.2" d="M169.251 196.683H229.76L251.433 129.061H200.455L169.251 196.683Z" fill="black"/>
<path opacity="0.2" d="M208.681 141.229L200.455 129.061H251.433L247.598 141.229H208.681Z" fill="black"/>
<path d="M208.213 217.196H174.336L178.449 201.022H212.326L208.213 217.196Z" fill="#263238"/>
<path opacity="0.2" d="M208.213 217.196H174.336L178.449 201.022H212.326L208.213 217.196Z" fill="white"/>
<path d="M208.708 203.047H180.726C180.471 203.05 180.225 203.142 180.03 203.306C179.835 203.47 179.702 203.696 179.655 203.947L178.89 207.214C178.86 207.337 178.858 207.466 178.885 207.591C178.912 207.715 178.968 207.831 179.047 207.931C179.126 208.031 179.226 208.111 179.341 208.166C179.456 208.222 179.582 208.25 179.709 208.249H187.044C187.169 208.249 187.293 208.276 187.406 208.33C187.519 208.384 187.619 208.463 187.698 208.561C187.776 208.658 187.832 208.772 187.86 208.895C187.889 209.017 187.89 209.143 187.863 209.266L186.963 213.595C186.938 213.717 186.94 213.843 186.969 213.964C186.998 214.084 187.054 214.197 187.133 214.294C187.211 214.39 187.31 214.468 187.422 214.522C187.535 214.575 187.658 214.603 187.782 214.603H194.982C195.372 214.604 195.751 214.472 196.056 214.228C196.36 213.984 196.572 213.643 196.656 213.262L197.466 209.599C197.549 209.216 197.76 208.873 198.065 208.628C198.369 208.382 198.749 208.248 199.14 208.249H206.728C207.117 208.25 207.494 208.119 207.799 207.877C208.103 207.635 208.316 207.296 208.402 206.917L209.14 203.722C209.163 203.649 209.17 203.572 209.159 203.496C209.149 203.42 209.123 203.347 209.082 203.283C209.04 203.219 208.986 203.164 208.921 203.123C208.856 203.082 208.784 203.056 208.708 203.047Z" fill="#263238"/>
<path d="M247.599 141.229H208.681L188.979 190.409H231.776L247.599 141.229Z" fill="#263238"/>
<path opacity="0.5" d="M247.599 141.229H208.681L188.979 190.409H231.776L247.599 141.229Z" fill="white"/>
<path d="M245.978 146.09H210.364L200.455 170.707H237.824" fill="#00C802"/>
<path opacity="0.2" d="M205.531 170.707L214.963 146.09H210.364L200.455 170.707H205.531Z" fill="black"/>
<path opacity="0.2" d="M198.304 176.512L196.432 181.768H215.728L217.231 176.512H198.304Z" fill="black"/>
<path opacity="0.4" d="M198.259 178.511L198.034 179.141H215.522L215.702 178.511H198.259Z" fill="black"/>
<path opacity="0.2" d="M236.231 176.512H224.908L223.045 181.768H234.683" fill="black"/>
<path opacity="0.2" d="M206.908 169.384L215.737 147.179H242.459C242.459 147.179 229.139 154.91 219.112 161.652C222.847 157.655 226.798 153.866 230.948 150.302H227.348C227.348 150.302 214.396 158.691 206.908 169.384Z" fill="white"/>
<path d="M169.251 196.682L188.979 190.409H231.776L229.76 196.682H169.251Z" fill="#263238"/>
<path opacity="0.6" d="M169.251 196.682L188.979 190.409H231.776L229.76 196.682H169.251Z" fill="white"/>
<path d="M182.292 194.603L184.812 186.332H205.531L209.041 191.093L204.442 194.603H182.292Z" fill="#263238"/>
<path opacity="0.2" d="M182.292 194.603L184.812 186.332H205.531L209.041 191.093L204.442 194.603H182.292Z" fill="white"/>
<path d="M183.39 194.604L185.586 187.368H203.344V194.604H183.39Z" fill="#263238"/>
<path d="M227.537 123.434C237.722 121.805 245.691 118.689 245.337 116.476C244.982 114.262 236.439 113.789 226.254 115.418C216.07 117.048 208.1 120.163 208.454 122.377C208.809 124.591 217.352 125.064 227.537 123.434Z" fill="white"/>
<path opacity="0.2" d="M224.747 239.554H208.438V255.863H224.747V239.554Z" fill="white"/>
<path opacity="0.2" d="M206.872 239.554H190.563V255.863H206.872V239.554Z" fill="white"/>
<path opacity="0.2" d="M164.976 248.527H158.594V254.908H164.976V248.527Z" fill="white"/>
<path d="M325.505 332.135C325.69 331.757 325.781 331.339 325.77 330.918C325.759 330.497 325.645 330.085 325.44 329.717C325.235 329.349 324.944 329.037 324.592 328.806C324.239 328.575 323.837 328.433 323.417 328.391C323.773 327.313 323.791 326.152 323.469 325.063C323.148 323.974 322.502 323.01 321.617 322.298C321.406 322.106 321.137 321.989 320.852 321.965C320.545 321.992 320.254 322.118 320.024 322.325L315.146 325.826C314.753 326.066 314.423 326.396 314.183 326.789C313.184 328.715 316.775 331.19 315.299 332.792C314.876 333.252 314.192 333.342 313.661 333.693C312.5 334.413 312.365 336.015 311.861 337.293C311.357 338.571 309.431 339.534 308.711 338.364C309.242 337.158 307.631 336.123 306.317 335.97C305.003 335.817 303.617 335.745 302.915 334.512C301.052 336.141 296.893 331.604 296.992 329.777C295.462 329.894 294.418 331.325 294.085 332.756C293.868 334.264 293.816 335.792 293.932 337.311C293.878 340.272 292.924 343.17 292.978 346.132C293.023 348.427 293.878 350.983 296.02 351.91C297.066 352.287 298.18 352.437 299.288 352.351L323.291 352.198C323.87 352.243 324.45 352.147 324.983 351.919C326.063 351.352 326.297 349.93 326.396 348.715C326.828 343.494 327.257 338.277 327.684 333.062L325.505 332.135Z" fill="#00C802"/>
<path opacity="0.3" d="M325.505 332.135C325.69 331.757 325.781 331.339 325.77 330.918C325.759 330.497 325.645 330.085 325.44 329.717C325.235 329.349 324.944 329.037 324.592 328.806C324.239 328.575 323.837 328.433 323.417 328.391C323.773 327.313 323.791 326.152 323.469 325.063C323.148 323.974 322.502 323.01 321.617 322.298C321.406 322.106 321.137 321.989 320.852 321.965C320.545 321.992 320.254 322.118 320.024 322.325L315.146 325.826C314.753 326.066 314.423 326.396 314.183 326.789C313.184 328.715 316.775 331.19 315.299 332.792C314.876 333.252 314.192 333.342 313.661 333.693C312.5 334.413 312.365 336.015 311.861 337.293C311.357 338.571 309.431 339.534 308.711 338.364C309.242 337.158 307.631 336.123 306.317 335.97C305.003 335.817 303.617 335.745 302.915 334.512C301.052 336.141 296.893 331.604 296.992 329.777C295.462 329.894 294.418 331.325 294.085 332.756C293.868 334.264 293.816 335.792 293.932 337.311C293.878 340.272 292.924 343.17 292.978 346.132C293.023 348.427 293.878 350.983 296.02 351.91C297.066 352.287 298.18 352.437 299.288 352.351L323.291 352.198C323.87 352.243 324.45 352.147 324.983 351.919C326.063 351.352 326.297 349.93 326.396 348.715C326.828 343.494 327.257 338.277 327.684 333.062L325.505 332.135Z" fill="white"/>
<path d="M326.9 306.763H289.657L289.963 310.525L290.179 313.225L290.746 320.219L291.07 324.242L291.502 329.589L291.682 331.875L291.745 332.559L291.961 335.259L292.267 338.95L292.447 341.245L292.636 343.576L292.861 346.276L293.023 348.319L293.212 350.614L293.284 351.605H327.485L327.557 350.614L327.746 348.328L327.908 346.267L328.133 343.567L328.322 341.245L328.502 338.95L328.799 335.25L329.024 332.55L329.078 331.866L329.258 329.58L329.699 324.233L330.023 320.219L330.581 313.216L330.797 310.516L331.103 306.754L326.9 306.763ZM329.141 309.229L328.43 308.509H329.204L329.141 309.229ZM328.961 311.515L328.889 312.415L325.559 315.746L321.734 311.92L325.154 308.5H325.955L328.961 311.515ZM327.998 323.432L325.559 325.871L321.734 322.046L325.559 318.23L328.196 320.876L327.998 323.432ZM292.555 320.876L295.192 318.23L299.017 322.046L295.192 325.871L292.762 323.432L292.555 320.876ZM324.326 316.988L320.501 320.813L316.712 316.988L320.537 313.162L324.326 316.988ZM318.305 308.509H322.688L320.501 310.696L318.305 308.509ZM319.25 322.01L315.443 325.835L311.618 322.01L315.443 318.194L319.25 322.01ZM306.56 327.114L310.376 323.297L314.192 327.114L310.412 330.93L306.56 327.114ZM309.134 332.181L305.309 335.997L301.492 332.181L305.318 328.365L309.134 332.181ZM315.434 328.365L319.241 332.181L315.434 335.997L311.609 332.181L315.434 328.365ZM310.412 320.813L306.596 316.988L310.412 313.162L314.228 316.988L310.412 320.813ZM309.17 322.046L305.354 325.871L301.528 322.046L305.354 318.23L309.17 322.046ZM300.25 320.813L296.434 316.988L300.25 313.162L304.075 316.988L300.25 320.813ZM300.25 323.288L304.111 327.114L300.286 330.939L296.434 327.114L300.25 323.288ZM304.075 337.239L300.25 341.056L296.434 337.239L300.25 333.414L304.075 337.239ZM305.309 338.472L309.134 342.298L305.318 346.123L301.492 342.298L305.309 338.472ZM306.56 337.239L310.412 333.414L314.228 337.239L310.412 341.056L306.56 337.239ZM315.443 338.472L319.25 342.298L315.443 346.123L311.618 342.298L315.443 338.472ZM320.501 343.531L324.326 347.356L321.842 349.831H319.142L316.712 347.356L320.501 343.531ZM316.676 337.23L320.501 333.405L324.326 337.23L320.501 341.047L316.676 337.23ZM316.712 327.114L320.537 323.297L324.362 327.114L320.537 330.939L316.712 327.114ZM319.286 311.938L315.479 315.764L311.654 311.938L315.074 308.518H315.812L319.286 311.938ZM310.412 310.696L308.225 308.509H312.599L310.412 310.696ZM309.17 311.929L305.354 315.755L301.528 311.929L304.958 308.509H305.759L309.17 311.929ZM302.473 308.509L300.286 310.696L298.108 308.509H302.473ZM295.633 308.509L299.053 311.929L295.228 315.755L291.907 312.424L291.835 311.524L294.832 308.518L295.633 308.509ZM292.357 308.509L291.655 309.22L291.592 308.509H292.357ZM292.123 315.116L293.995 316.988L292.411 318.581L292.123 315.116ZM293.167 327.942L293.014 326.141L293.995 327.114L293.167 327.951V327.942ZM293.347 330.246L295.228 328.356L299.053 332.172L295.228 335.988L293.689 334.449L293.347 330.246ZM293.914 337.311V337.149L294.004 337.239L293.923 337.311H293.914ZM294.58 345.466L294.103 339.598L295.228 338.472L299.053 342.298L295.228 346.114L294.58 345.466ZM294.931 349.831L294.859 348.931L295.228 348.562L296.47 349.804L294.931 349.831ZM296.47 347.356L300.286 343.531L304.111 347.356L301.636 349.831H298.936L296.47 347.356ZM304.111 349.831L305.354 348.589L306.596 349.831H304.111ZM309.071 349.831L306.596 347.356L310.412 343.531L314.228 347.356L311.762 349.831H309.071ZM314.228 349.831L315.479 348.589L316.721 349.831H314.228ZM325.928 349.831H324.389L325.631 348.589L326 348.958L325.928 349.831ZM326.288 345.466L325.631 346.114L321.806 342.298L325.631 338.472L326.756 339.598L326.288 345.466ZM326.954 337.14V337.311L326.882 337.239L326.972 337.14H326.954ZM327.179 334.44L325.631 335.979L321.806 332.163L325.631 328.347L327.521 330.237L327.179 334.44ZM327.701 327.942L326.864 327.096L327.854 326.123L327.701 327.942ZM328.745 315.098L328.466 318.581L326.864 316.979L328.745 315.098Z" fill="#00C802"/>
<g opacity="0.6">
<path opacity="0.6" d="M326.901 306.762H289.657L289.963 310.524L290.179 313.224L290.746 320.218L291.07 324.241L291.502 329.588L291.682 331.874L291.745 332.558L291.961 335.258L292.267 338.948L292.447 341.244L292.636 343.575L292.861 346.275L293.023 348.318L293.212 350.613L293.284 351.603H327.486L327.558 350.613L327.747 348.327L327.909 346.266L328.134 343.566L328.323 341.244L328.503 338.948L328.8 335.249L329.025 332.549L329.079 331.865L329.259 329.579L329.7 324.232L330.024 320.218L330.582 313.215L330.798 310.515L331.104 306.753L326.901 306.762ZM329.142 309.228L328.431 308.508H329.205L329.142 309.228ZM328.962 311.514L328.89 312.414L325.559 315.744L321.734 311.919L325.154 308.499H325.955L328.962 311.514ZM327.999 323.431L325.559 325.87L321.734 322.045L325.559 318.229L328.197 320.875L327.999 323.431ZM292.555 320.875L295.192 318.229L299.018 322.045L295.192 325.87L292.762 323.431L292.555 320.875ZM324.326 316.987L320.501 320.812L316.712 316.987L320.537 313.161L324.326 316.987ZM318.305 308.508H322.688L320.501 310.695L318.305 308.508ZM319.25 322.009L315.443 325.834L311.618 322.009L315.443 318.193L319.25 322.009ZM306.56 327.112L310.376 323.296L314.192 327.112L310.412 330.929L306.56 327.112ZM309.134 332.18L305.309 335.996L301.493 332.18L305.318 328.363L309.134 332.18ZM315.434 328.363L319.241 332.18L315.434 335.996L311.609 332.18L315.434 328.363ZM310.412 320.812L306.596 316.987L310.412 313.161L314.228 316.987L310.412 320.812ZM309.17 322.045L305.354 325.87L301.529 322.045L305.354 318.229L309.17 322.045ZM300.251 320.812L296.434 316.987L300.251 313.161L304.076 316.987L300.251 320.812ZM300.251 323.287L304.112 327.112L300.287 330.938L296.434 327.112L300.251 323.287ZM304.076 337.238L300.251 341.054L296.434 337.238L300.251 333.413L304.076 337.238ZM305.309 338.471L309.134 342.297L305.318 346.122L301.493 342.297L305.309 338.471ZM306.56 337.238L310.412 333.413L314.228 337.238L310.412 341.054L306.56 337.238ZM315.443 338.471L319.25 342.297L315.443 346.122L311.618 342.297L315.443 338.471ZM320.501 343.53L324.326 347.355L321.842 349.83H319.142L316.712 347.355L320.501 343.53ZM316.676 337.229L320.501 333.404L324.326 337.229L320.501 341.045L316.676 337.229ZM316.712 327.112L320.537 323.296L324.362 327.112L320.537 330.938L316.712 327.112ZM319.286 311.937L315.479 315.762L311.654 311.937L315.074 308.517H315.812L319.286 311.937ZM310.412 310.695L308.225 308.508H312.599L310.412 310.695ZM309.17 311.928L305.354 315.753L301.529 311.928L304.958 308.508H305.759L309.17 311.928ZM302.474 308.508L300.287 310.695L298.109 308.508H302.474ZM295.633 308.508L299.054 311.928L295.228 315.753L291.907 312.423L291.835 311.523L294.832 308.517L295.633 308.508ZM292.357 308.508L291.655 309.219L291.592 308.508H292.357ZM292.123 315.114L293.995 316.987L292.411 318.58L292.123 315.114ZM293.167 327.94L293.014 326.14L293.995 327.112L293.167 327.949V327.94ZM293.347 330.245L295.228 328.354L299.054 332.171L295.228 335.987L293.689 334.448L293.347 330.245ZM293.914 337.31V337.148L294.004 337.238L293.923 337.31H293.914ZM294.58 345.465L294.103 339.596L295.228 338.471L299.054 342.297L295.228 346.113L294.58 345.465ZM294.931 349.83L294.859 348.93L295.228 348.561L296.47 349.803L294.931 349.83ZM296.47 347.355L300.287 343.53L304.112 347.355L301.637 349.83H298.937L296.47 347.355ZM304.112 349.83L305.354 348.588L306.596 349.83H304.112ZM309.071 349.83L306.596 347.355L310.412 343.53L314.228 347.355L311.762 349.83H309.071ZM314.228 349.83L315.479 348.588L316.721 349.83H314.228ZM325.928 349.83H324.389L325.631 348.588L326 348.957L325.928 349.83ZM326.288 345.465L325.631 346.113L321.806 342.297L325.631 338.471L326.757 339.596L326.288 345.465ZM326.955 337.139V337.31L326.882 337.238L326.973 337.139H326.955ZM327.18 334.439L325.631 335.978L321.806 332.162L325.631 328.345L327.522 330.236L327.18 334.439ZM327.702 327.94L326.865 327.094L327.855 326.122L327.702 327.94ZM328.746 315.096L328.467 318.58L326.865 316.978L328.746 315.096Z" fill="white"/>
</g>
<path d="M289.045 310.074H331.697C332.682 310.074 333.479 309.276 333.479 308.292V306.987C333.479 306.003 332.682 305.205 331.697 305.205H289.045C288.061 305.205 287.263 306.003 287.263 306.987V308.292C287.263 309.276 288.061 310.074 289.045 310.074Z" fill="#00C802"/>
<path d="M328.367 348.958H292.384C291.4 348.958 290.602 349.756 290.602 350.74V352.045C290.602 353.029 291.4 353.827 292.384 353.827H328.367C329.352 353.827 330.149 353.029 330.149 352.045V350.74C330.149 349.756 329.352 348.958 328.367 348.958Z" fill="#00C802"/>
<path d="M129.109 73.191H102.045C100.539 73.191 99.3184 74.4121 99.3184 75.9183V102.983C99.3184 104.49 100.539 105.711 102.045 105.711H129.109C130.616 105.711 131.836 104.49 131.836 102.983V75.9183C131.836 74.4121 130.616 73.191 129.109 73.191Z" fill="#C25E54"/>
<circle cx="115.345" cy="78.7032" r="1.21737" fill="white"/>
<path d="M115.443 99.1596C115.171 99.271 114.636 94.1581 114.751 87.7431L114.852 83.8754L114.867 83.3452C114.934 82.5563 116.227 82.5105 116.173 83.4794L116.132 87.3151C116.037 93.7464 115.72 99.0422 115.443 99.1596Z" fill="white"/>
<path d="M111.847 102.821C111.847 102.821 113.512 111.984 125.617 116.115C125.617 116.115 118.732 109.473 118.732 102.821H111.847Z" fill="#C25E54"/>
<path d="M109.759 183.101C108.634 182.786 101.758 196.601 101.875 197.906C101.992 199.211 111.244 200.201 111.244 200.201L109.759 183.101Z" fill="#00C802"/>
<path opacity="0.4" d="M109.759 183.101C108.634 182.786 101.758 196.601 101.875 197.906C101.992 199.211 111.244 200.201 111.244 200.201L109.759 183.101Z" fill="black"/>
<path d="M109.759 183.101C109.759 183.101 101.659 203.326 103.711 208.07C105.763 212.813 130.181 212.939 132.791 212.57C135.401 212.201 137.075 187.269 137.075 187.269C127.845 186.879 118.685 185.482 109.759 183.101Z" fill="#00C802"/>
<path opacity="0.2" d="M109.759 183.101C109.759 183.101 101.659 203.326 103.711 208.07C105.763 212.813 130.181 212.939 132.791 212.57C135.401 212.201 137.075 187.269 137.075 187.269C127.845 186.879 118.685 185.482 109.759 183.101Z" fill="black"/>
<path d="M126.4 156.477C125.959 156.882 125.356 157.458 124.825 157.971C124.294 158.484 123.745 159.042 123.214 159.6C122.17 160.716 121.117 161.842 120.127 163.021C118.151 165.344 116.346 167.808 114.727 170.392L114.151 171.364L113.863 171.85L113.719 172.093C113.719 172.183 113.719 172.093 113.719 172.093C113.766 171.923 113.793 171.748 113.8 171.571C113.815 171.296 113.788 171.02 113.719 170.752C113.624 170.352 113.443 169.977 113.188 169.654C112.863 169.224 112.409 168.908 111.892 168.754C111.667 168.7 111.622 168.754 111.622 168.754C112.12 168.834 112.627 168.834 113.125 168.754C113.809 168.682 114.547 168.556 115.294 168.403C118.3 167.782 121.477 166.927 124.6 166.135L126.247 169.87C123.36 171.705 120.307 173.265 117.13 174.533C116.302 174.848 115.456 175.154 114.529 175.433C113.434 175.762 112.297 175.928 111.154 175.928C110.654 175.913 110.159 175.838 109.678 175.703C108.921 175.49 108.234 175.079 107.688 174.513C107.143 173.946 106.757 173.245 106.573 172.48C106.466 172.011 106.43 171.529 106.465 171.049C106.508 170.462 106.641 169.885 106.861 169.339L107.086 168.817L107.23 168.52L107.509 167.917L108.094 166.72C109.714 163.593 111.627 160.628 113.809 157.863C114.898 156.504 116.023 155.163 117.238 153.912C117.841 153.273 118.462 152.652 119.092 152.04C119.722 151.428 120.352 150.87 121.144 150.24L126.4 156.477Z" fill="#E9B376"/>
<path d="M120.55 148.512C117.735 150.216 115.429 152.643 113.872 155.542L122.062 164.542C122.062 164.542 131.692 141.852 120.55 148.512Z" fill="#00C802"/>
<path opacity="0.6" d="M124.609 157.385C123.88 159.802 123.03 162.181 122.062 164.513L118.696 160.823L113.872 155.54C115.429 152.642 117.735 150.214 120.55 148.511C127.399 144.398 126.4 151.4 124.609 157.385Z" fill="white"/>
<path opacity="0.2" d="M124.609 157.386C123.88 159.803 123.03 162.182 122.062 164.514L118.696 160.824C119.838 158.65 121.671 156.917 123.907 155.901C124.187 156.373 124.422 156.87 124.609 157.386Z" fill="black"/>
<path d="M160.007 121.303C160.007 121.303 168.693 150.177 150.404 154.047C132.115 157.918 130.198 144.633 130.198 144.633C130.198 144.633 145.175 121.897 160.007 121.303Z" fill="#263238"/>
<path d="M163.923 128.071C163.894 128.071 163.866 128.066 163.84 128.055C163.813 128.044 163.789 128.028 163.77 128.008C163.415 127.666 162.989 127.408 162.521 127.252C162.054 127.096 161.558 127.047 161.07 127.108C161.016 127.113 160.962 127.099 160.918 127.068C160.873 127.037 160.842 126.991 160.829 126.939C160.816 126.886 160.822 126.831 160.846 126.782C160.871 126.734 160.912 126.696 160.962 126.676C161.525 126.585 162.101 126.627 162.645 126.799C163.189 126.971 163.685 127.268 164.094 127.666C164.123 127.698 164.143 127.738 164.15 127.78C164.158 127.823 164.153 127.867 164.135 127.908C164.118 127.948 164.09 127.982 164.054 128.006C164.018 128.03 163.975 128.043 163.932 128.044L163.923 128.071Z" fill="#263238"/>
<path d="M162.573 132.265C163.026 133.301 163.6 134.28 164.283 135.181C164.069 135.439 163.787 135.633 163.469 135.739C163.151 135.846 162.809 135.861 162.483 135.784L162.573 132.265Z" fill="#D58745"/>
<path d="M163.878 130.536C163.878 131.085 163.518 131.508 163.158 131.49C162.798 131.472 162.528 131.004 162.555 130.455C162.582 129.906 162.906 129.483 163.275 129.555C163.644 129.627 163.905 129.996 163.878 130.536Z" fill="#263238"/>
<path d="M163.122 129.529L164.337 129.133C164.337 129.133 163.707 130.096 163.122 129.529Z" fill="#263238"/>
<path d="M147.605 140.725C147.661 140.795 147.725 140.858 147.794 140.914C148.718 141.839 149.812 142.576 151.016 143.084C154.553 144.425 157.119 144.272 158.973 142.841C161.601 140.68 162.771 136.36 163.185 131.023C163.412 128.919 163.309 126.793 162.879 124.722C162.879 124.722 162.879 124.641 162.879 124.623L162.825 124.389C162.532 123.206 161.948 122.115 161.126 121.216C160.304 120.317 159.27 119.638 158.118 119.241C157.119 118.871 156.084 118.608 155.03 118.458C144.716 116.882 140.504 133.732 147.605 140.725Z" fill="#EBB376"/>
<path opacity="0.2" d="M147.794 140.914C148.732 141.794 149.832 142.482 151.034 142.939C154.571 144.28 157.155 144.01 159.018 142.552C156.758 142.793 154.482 142.288 152.537 141.112C151.813 140.723 151.01 140.503 150.188 140.468C149.367 140.434 148.548 140.586 147.794 140.914Z" fill="black"/>
<path d="M162.897 124.596C162.897 124.596 162.474 131.922 155.174 134.082C155.174 134.082 151.196 141.202 146.84 140.716C140.9 140.041 136.85 130.905 140.081 122.615C144.266 111.868 161.24 113.282 162.897 124.596Z" fill="#263238"/>
<path d="M158.937 132.5C159.09 131.366 158.451 129.341 156.651 129.359C154.851 129.377 153.176 133.715 157.551 135.335C158.127 135.569 158.622 134.858 158.937 132.5Z" fill="#EBB376"/>
<path d="M151.34 115.173C151.34 115.173 158.541 114.372 161.934 117.675C165.948 121.536 167.181 125.127 161.178 129.609C161.178 129.609 150.089 124.254 146.12 124.515C143.805 124.664 141.505 125.002 139.244 125.523C139.487 117.747 147.704 113.066 151.34 115.173Z" fill="#263238"/>
<path d="M152.834 142.697C152.834 142.697 149.234 147.368 149.666 153.029L132.565 149.15C132.565 149.15 143.06 143.012 143.636 138.035C143.645 138.035 151.484 136.594 152.834 142.697Z" fill="#EBB376"/>
<path d="M118.399 190.419C124.06 191.436 136.085 190.959 147.713 193.119C161.564 154.992 158.189 156.081 158.189 156.081C158.189 156.081 155.309 152.229 151.592 150.879L151.196 150.735C149.324 150.096 148.928 149.997 146.417 149.322C142.097 148.368 138.083 147.584 133.105 146.909L132.16 146.792C131.26 146.684 130.36 146.594 129.46 146.522C128.884 146.459 128.299 146.423 127.75 146.387L125.851 146.288C124.854 146.282 123.866 146.48 122.948 146.87C122.03 147.26 121.201 147.834 120.514 148.557C122.233 172.3 120.847 179.42 118.399 190.419Z" fill="#00C802"/>
<path opacity="0.6" d="M157.919 161.32C156.34 167.776 154.423 174.146 152.177 180.402C150.944 184.047 149.477 188.241 147.677 193.066C136.049 190.95 124.024 191.427 118.363 190.365C120.811 179.366 122.197 172.247 120.514 148.458C121.202 147.735 122.03 147.161 122.948 146.771C123.866 146.381 124.854 146.183 125.851 146.19L127.75 146.289C128.299 146.289 128.884 146.361 129.46 146.424C130.36 146.496 131.215 146.586 132.161 146.694L133.106 146.811C138.083 147.486 142.106 148.269 146.417 149.223C148.928 149.898 149.324 149.997 151.196 150.636L151.592 150.78C155.309 152.13 158.189 155.983 158.189 155.983C158.189 155.983 159.206 155.722 157.919 161.32Z" fill="white"/>
<path opacity="0.2" d="M157.92 161.318C156.34 167.774 154.423 174.143 152.177 180.399C150.866 178.308 150.047 175.945 149.784 173.491C149.52 171.037 149.819 168.554 150.656 166.232C151.817 163.064 154.706 161.714 157.92 161.318Z" fill="black"/>
<path d="M158.855 158.628C159.413 160.59 160.007 162.714 160.655 164.739C161.303 166.764 161.942 168.835 162.653 170.851C163.364 172.867 164.111 174.874 164.903 176.845C165.29 177.835 165.714 178.807 166.128 179.788C166.326 180.274 166.551 180.751 166.767 181.229L167.1 181.949L167.253 182.3C167.253 182.3 167.253 182.3 167.253 182.381C167.571 182.883 167.991 183.312 168.486 183.641C169.222 184.163 170.002 184.621 170.817 185.009C172.66 185.885 174.564 186.628 176.514 187.232C180.519 188.501 184.785 189.554 188.988 190.445L188.61 194.523C184.038 194.503 179.478 194.069 174.984 193.227C172.641 192.788 170.338 192.155 168.099 191.336C166.873 190.876 165.689 190.31 164.561 189.644C163.153 188.83 161.94 187.718 161.006 186.386C160.862 186.184 160.73 185.974 160.61 185.756L160.403 185.369L159.989 184.604C159.71 184.1 159.431 183.587 159.17 183.074C158.639 182.057 158.135 181.022 157.658 179.977C156.686 177.907 155.786 175.801 154.958 173.677C154.13 171.553 153.356 169.411 152.663 167.25C151.97 165.09 151.331 162.948 150.782 160.626L158.855 158.628Z" fill="#E9B376"/>
<path d="M187.675 190.994L192.976 188.87L193.876 193.875C193.876 193.875 189.088 196.773 187.099 193.325L187.675 190.994Z" fill="#EBB376"/>
<path d="M195.604 189.176L197.305 193.047L193.876 193.875L192.976 188.87L195.604 189.176Z" fill="#EBB376"/>
<path d="M155.417 153.588C159.981 156.576 162.897 163.21 163.671 167.017L153.068 175.658C153.068 175.658 147.29 162.76 149.189 159.457C151.088 156.153 153.689 152.499 155.417 153.588Z" fill="#00C802"/>
<path d="M170.565 346.392L175.407 345.114C173.607 320.686 168.846 291.199 164.769 269.094C164.13 265.628 163.509 262.352 162.915 259.301L162.105 255.115C160.809 248.482 159.72 243.252 159.036 240.012C158.541 237.654 158.262 236.358 158.262 236.358L140.837 241.407L142.286 245.8L147.074 260.291L147.623 261.947L150.791 271.515L156.191 287.806C156.92 312.711 170.565 346.392 170.565 346.392Z" fill="#EBB376"/>
<path d="M128.318 345.213L133.322 344.727C135.932 318.229 136.022 285.241 135.68 262.316C135.617 258.761 135.554 255.449 135.491 252.415C135.491 252.253 135.491 252.109 135.491 251.965C135.347 245.998 135.194 241.254 135.086 238.248L134.933 234.648L116.932 236.664L118.057 244.162L119.695 255.188L120.019 257.339L121.144 264.854L124.105 284.98C120.604 309.669 128.318 345.213 128.318 345.213Z" fill="#EBB376"/>
<path opacity="0.2" d="M119.65 255.179L135.491 252.479C135.491 252.317 135.491 252.173 135.491 252.029C135.347 246.061 135.194 241.318 135.086 238.312L117.985 244.189L119.65 255.179Z" fill="black"/>
<path opacity="0.2" d="M160.782 248.446L144.113 251.272L142.313 245.755L159.054 239.967C159.468 242.028 160.107 244.909 160.782 248.446Z" fill="black"/>
<path d="M117.598 189.06C117.598 189.06 106.798 214.316 116.887 250.94C116.887 250.94 122.476 252.857 136.58 250.769C144.812 249.45 152.866 247.191 160.584 244.036C154.517 214.334 149.045 200.833 149.045 200.833L148.802 192.48L117.598 189.06Z" fill="#263238"/>
<path d="M125.905 344.215C125.905 343.594 133.646 344.08 133.646 344.08C133.646 344.08 138.398 348.913 143.015 350.002C147.632 351.091 145.049 353.863 139.892 353.863H127.165C123.493 353.836 125.788 350.713 125.905 344.215Z" fill="#263238"/>
<path d="M137.75 346.014C136.632 345.877 135.548 345.545 134.546 345.033C134.516 345.023 134.491 345.004 134.474 344.979C134.456 344.926 134.456 344.869 134.474 344.817C134.474 344.745 135.149 342.935 136.202 342.503C136.358 342.432 136.529 342.395 136.701 342.395C136.873 342.395 137.044 342.432 137.201 342.503C137.552 342.674 137.723 342.89 137.705 343.151C137.705 343.556 137.129 343.97 136.508 344.303C137.09 344.204 137.689 344.27 138.236 344.492C138.337 344.546 138.427 344.62 138.498 344.71C138.57 344.799 138.621 344.903 138.65 345.015C138.708 345.154 138.721 345.308 138.687 345.454C138.653 345.601 138.574 345.734 138.461 345.834C138.254 345.978 138.001 346.042 137.75 346.014ZM135.248 344.906C136.391 345.384 137.804 345.807 138.173 345.519C138.173 345.519 138.299 345.411 138.218 345.105C138.201 345.047 138.174 344.994 138.137 344.948C138.1 344.902 138.054 344.863 138.002 344.835C137.444 344.537 136.121 344.736 135.248 344.925V344.906ZM136.634 342.782C136.525 342.781 136.418 342.803 136.319 342.845C135.713 343.242 135.249 343.823 134.996 344.502C136.139 344.069 137.246 343.466 137.264 343.124C137.264 343.016 137.093 342.917 136.985 342.863C136.874 342.817 136.754 342.796 136.634 342.8V342.782Z" fill="#00C802"/>
<path d="M169.188 344.215C169.188 343.594 176.928 344.08 176.928 344.08C176.928 344.08 181.68 348.913 186.297 350.002C190.915 351.091 188.331 353.863 183.174 353.863H170.412C166.74 353.836 169.035 350.713 169.188 344.215Z" fill="#263238"/>
<path d="M180.996 346.014C179.879 345.877 178.794 345.545 177.792 345.033C177.763 345.023 177.738 345.004 177.72 344.979C177.702 344.926 177.702 344.869 177.72 344.817C177.72 344.745 178.395 342.935 179.448 342.503C179.605 342.432 179.775 342.395 179.948 342.395C180.12 342.395 180.29 342.432 180.447 342.503C180.798 342.674 180.969 342.89 180.951 343.151C180.951 343.556 180.375 343.97 179.754 344.303C180.337 344.204 180.935 344.27 181.482 344.492C181.584 344.546 181.673 344.62 181.745 344.71C181.816 344.799 181.868 344.903 181.896 345.015C181.955 345.154 181.968 345.308 181.934 345.454C181.9 345.601 181.821 345.734 181.707 345.834C181.5 345.978 181.247 346.042 180.996 346.014ZM178.494 344.906C179.637 345.384 181.05 345.807 181.419 345.519C181.419 345.519 181.545 345.411 181.464 345.105C181.448 345.047 181.42 344.994 181.383 344.948C181.346 344.902 181.3 344.863 181.248 344.835C180.69 344.537 179.367 344.736 178.494 344.925V344.906ZM179.88 342.782C179.772 342.781 179.665 342.803 179.565 342.845C178.959 343.242 178.496 343.823 178.242 344.502C179.385 344.069 180.492 343.466 180.51 343.124C180.51 343.016 180.339 342.917 180.231 342.863C180.129 342.821 180.018 342.799 179.907 342.8L179.88 342.782Z" fill="#00C802"/>
<path d="M124.276 194.802L140.882 196.539V192.767L124.762 191.201C124.636 192.101 124.429 193.586 124.276 194.802Z" fill="black"/>
<path d="M142.178 192.885V196.665L149.054 197.385V193.56L142.178 192.885Z" fill="black"/>
<path d="M123.439 191.03L116.455 190.337L115.582 193.883L122.782 194.63L123.439 191.03Z" fill="black"/>
<path opacity="0.6" d="M155.417 153.588C159.981 156.576 162.897 163.21 163.671 167.017L153.068 175.658C153.068 175.658 147.29 162.76 149.189 159.457C151.088 156.153 153.689 152.499 155.417 153.588Z" fill="white"/>
<path d="M128.407 145.459C128.407 145.459 120.865 153.308 110.713 185.557L109.093 185.152C109.093 185.152 119.893 148.402 128.407 145.459Z" fill="#00C802"/>
<path d="M155.174 134.092C155.174 134.092 155.228 144.569 146.129 148.043C137.03 151.517 142.709 162.822 132.575 161.49C127.174 160.779 119.506 149.15 132.575 138.907C140.198 132.94 131.135 113.327 151.34 115.172C151.34 115.172 150.998 128.61 155.174 134.092Z" fill="#263238"/>
</g>
</svg>
