<svg width="50" height="50" viewBox="0 0 50 50" fill="none" xmlns="http://www.w3.org/2000/svg">
<rect x="0.5" y="0.5" width="49" height="49" rx="7.5" fill="white" stroke="#E0E0E0"/>
<rect x="14" y="29" width="22" height="3" fill="#CCECD3"/>
<path d="M15.625 31.5625L34.375 31.5625C35.4105 31.5625 36.25 30.723 36.25 29.6875V16.5625C36.25 15.527 35.4105 14.6875 34.375 14.6875L15.625 14.6875C14.5895 14.6875 13.75 15.527 13.75 16.5625L13.75 29.6875C13.75 30.723 14.5895 31.5625 15.625 31.5625Z" stroke="#3F3F3F" stroke-width="1.2" stroke-linecap="round" stroke-linejoin="round"/>
<rect x="21.1699" y="21.5723" width="2.85714" height="3.80952" fill="#CCECD3"/>
<rect x="25.9316" y="21.5723" width="2.85714" height="3.80952" fill="#CCECD3"/>
<path d="M21.229 21.334V25.5007" stroke="#3F3F3F" stroke-width="1.2" stroke-linecap="round" stroke-linejoin="round"/>
<path d="M23.729 21.334V25.5007" stroke="#3F3F3F" stroke-width="1.2" stroke-linecap="round" stroke-linejoin="round"/>
<path d="M26.229 21.334V25.5007" stroke="#3F3F3F" stroke-width="1.2" stroke-linecap="round" stroke-linejoin="round"/>
<path d="M28.729 21.334V25.5007" stroke="#3F3F3F" stroke-width="1.2" stroke-linecap="round" stroke-linejoin="round"/>
<path d="M19.9795 25.5H29.9795" stroke="#3F3F3F" stroke-width="1.2" stroke-linecap="round" stroke-linejoin="round"/>
<path d="M19.5625 21.3333H30.3958L24.9792 18L19.5625 21.3333Z" stroke="#3F3F3F" stroke-width="1.2" stroke-linecap="round" stroke-linejoin="round"/>
<path d="M28.75 35.3125H21.25" stroke="#3F3F3F" stroke-width="1.2" stroke-linecap="round" stroke-linejoin="round"/>
<path d="M36.25 28.6875L13.75 28.6875" stroke="#3F3F3F" stroke-width="1.2" stroke-linecap="round" stroke-linejoin="round"/>
<path d="M25 31.5625V35.3125" stroke="#3F3F3F" stroke-width="1.2" stroke-linecap="round" stroke-linejoin="round"/>
</svg>
