<svg width="251" height="150" viewBox="0 0 251 150" fill="none" xmlns="http://www.w3.org/2000/svg">
<g clip-path="url(#clip0_6833_43738)">
<path d="M162.915 3.84003L145.524 26.2411L157.091 35.2943L174.481 12.8933L162.915 3.84003Z" fill="white" stroke="#263238" stroke-width="0.468861" stroke-miterlimit="10"/>
<path d="M171.637 12.194L164.286 6.44271C163.775 7.10119 162.827 7.22123 162.173 6.71046L148.111 24.8148C148.765 25.3256 148.881 26.2781 148.371 26.9366L155.722 32.6879C156.233 32.0294 157.181 31.9094 157.835 32.4201L171.897 14.3158C171.237 13.8031 171.123 12.8545 171.637 12.194Z" fill="#00C802" stroke="#263238" stroke-width="0.468861" stroke-miterlimit="10"/>
<path d="M163.494 21.1968C164.398 19.2544 163.567 16.9487 161.637 16.0468C159.708 15.1449 157.411 15.9883 156.507 17.9307C155.603 19.873 156.435 22.1788 158.364 23.0807C160.293 23.9826 162.59 23.1391 163.494 21.1968Z" stroke="white" stroke-width="0.468861" stroke-miterlimit="10"/>
<path d="M160.46 18.1591L160.568 18.4777L158.459 20.0307L158.349 19.7139L160.46 18.1591ZM161.651 21.3294L159.294 20.7542L159.133 20.5383L159.518 20.2543C159.707 20.1153 159.837 19.9644 159.908 19.8015C159.98 19.6387 160.005 19.4752 159.983 19.3111C159.961 19.1469 159.9 18.9971 159.802 18.8618C159.683 18.6987 159.545 18.5826 159.387 18.5134C159.229 18.4442 159.058 18.426 158.874 18.4586C158.689 18.4895 158.499 18.5775 158.302 18.7225L157.821 19.0766L157.715 18.7562L158.113 18.4632C158.367 18.2762 158.615 18.1587 158.857 18.1105C159.098 18.0606 159.324 18.0809 159.535 18.1712C159.747 18.2603 159.936 18.4182 160.101 18.6449C160.235 18.8292 160.321 19.0278 160.359 19.2407C160.397 19.4508 160.368 19.6636 160.273 19.8792C160.177 20.092 159.997 20.2961 159.732 20.4914L161.974 21.0424L161.997 21.0742L161.651 21.3294ZM159.785 17.2319L159.893 17.5506L158.001 18.9436L157.893 18.625L159.785 17.2319Z" fill="white"/>
<path d="M172.307 9.21663L151.476 28.4475L161.386 39.2863L182.217 20.0554L172.307 9.21663Z" fill="white" stroke="#263238" stroke-width="0.468861" stroke-miterlimit="10"/>
<path d="M179.535 18.8984L173.232 12.0133C172.62 12.5786 171.665 12.5405 171.104 11.9288L154.256 27.4653C154.817 28.0769 154.775 29.0356 154.163 29.6008L160.465 36.4859C161.077 35.9207 162.032 35.9588 162.593 36.5704L179.441 21.034C178.875 20.4195 178.918 19.465 179.535 18.8984Z" fill="#00C802" stroke="#263238" stroke-width="0.468861" stroke-miterlimit="10"/>
<path d="M170.02 26.4364C171.231 24.6686 170.791 22.256 169.038 21.0477C167.285 19.8394 164.882 20.2929 163.671 22.0607C162.46 23.8285 162.899 26.2411 164.652 27.4495C166.406 28.6578 168.809 28.2042 170.02 26.4364Z" stroke="white" stroke-width="0.468861" stroke-miterlimit="10"/>
<path d="M167.529 22.9391L167.583 23.2713L165.247 24.4557L165.19 24.1248L167.529 22.9391ZM168.181 26.2637L165.951 25.3072L165.828 25.0676L166.255 24.851C166.464 24.745 166.617 24.6175 166.714 24.4687C166.811 24.3198 166.863 24.1625 166.868 23.9969C166.873 23.8313 166.839 23.6736 166.764 23.5238C166.673 23.3433 166.556 23.2059 166.412 23.1116C166.268 23.0173 166.102 22.9711 165.916 22.9729C165.728 22.973 165.525 23.0283 165.307 23.1389L164.775 23.4089L164.723 23.0753L165.164 22.8519C165.445 22.7093 165.709 22.6342 165.956 22.6266C166.202 22.6173 166.422 22.6745 166.614 22.7984C166.809 22.9214 166.969 23.1083 167.095 23.3593C167.197 23.5632 167.249 23.7733 167.251 23.9896C167.254 24.2031 167.19 24.4084 167.06 24.6053C166.932 24.7996 166.72 24.9712 166.427 25.1202L168.547 26.0338L168.565 26.069L168.181 26.2637ZM167.016 21.9129L167.07 22.2451L164.975 23.3075L164.92 22.9752L167.016 21.9129Z" fill="white"/>
<path d="M181.048 15.6422L156.039 28.9137L162.859 41.9425L187.868 28.671L181.048 15.6422Z" fill="white" stroke="#263238" stroke-width="0.468861" stroke-miterlimit="10"/>
<path d="M185.573 26.8619L181.235 18.587C180.5 18.9771 179.587 18.6957 179.201 17.9604L158.972 28.6781C159.358 29.4134 159.073 30.3302 158.339 30.7203L162.677 38.9953C163.412 38.6051 164.325 38.8865 164.711 39.6219L184.94 28.9042C184.55 28.1647 184.834 27.2524 185.573 26.8619Z" fill="#00C802" stroke="#263238" stroke-width="0.468861" stroke-miterlimit="10"/>
<path d="M174.464 31.7193C176.083 30.3189 176.271 27.8713 174.884 26.2523C173.498 24.6333 171.061 24.4561 169.442 25.8565C167.824 27.2568 167.635 29.7045 169.022 31.3235C170.409 32.9425 172.845 33.1197 174.464 31.7193Z" stroke="white" stroke-width="0.468861" stroke-miterlimit="10"/>
<path d="M172.947 27.6962L172.915 28.0317L170.357 28.5795L170.386 28.2447L172.947 27.6962ZM172.732 31.0805L170.82 29.5837L170.762 29.3203L171.23 29.2201C171.459 29.1711 171.639 29.087 171.771 28.9678C171.903 28.8487 171.992 28.7096 172.039 28.5507C172.087 28.3918 172.093 28.2303 172.059 28.0661C172.018 27.8683 171.939 27.7054 171.824 27.5772C171.708 27.449 171.56 27.3619 171.379 27.3159C171.198 27.2679 170.988 27.2694 170.749 27.3206L170.166 27.4455L170.201 27.1094L170.684 27.0061C170.992 26.9402 171.266 26.9351 171.506 26.9911C171.747 27.045 171.944 27.1567 172.099 27.326C172.256 27.4949 172.363 27.7168 172.421 27.9918C172.467 28.2153 172.464 28.4319 172.411 28.6416C172.359 28.849 172.246 29.0314 172.071 29.1888C171.897 29.3438 171.649 29.4557 171.327 29.5246L173.144 30.9519L173.152 30.9905L172.732 31.0805ZM172.712 26.5718L172.68 26.9072L170.385 27.3986L170.417 27.0632L172.712 26.5718Z" fill="white"/>
<path d="M147.722 149.803L140.397 133.354H135.884L146.444 149.803H147.722Z" fill="#E0E0E0"/>
<path d="M209.105 87.4835C205.874 89.1679 203.393 92.0661 201.613 95.2566C199.83 98.4472 198.681 101.95 197.543 105.427L196.546 123.359C200.306 116.925 203.327 109.361 204.141 101.944C203.308 101.869 202.471 101.794 201.638 101.718C203.316 101.46 204.725 100.237 205.622 98.7896C206.519 97.3391 206.979 95.6687 207.43 94.0233C206.411 94.1764 205.395 94.3267 204.376 94.4799C206.768 92.8763 208.502 90.3093 209.105 87.4835Z" fill="#00C802"/>
<path d="M195.989 127.563C195.989 127.563 187.827 117.738 187.921 108.359H191.219C191.219 108.359 187.636 105.99 187.921 104.664C188.204 103.339 188.298 98.3167 188.298 98.3167L191.313 99.074C191.313 99.074 189.051 97.9381 188.769 96.1368C188.486 94.3355 189.428 86 189.428 86C189.428 86 193.102 89.8838 194.234 93.8622C195.364 97.8406 198.332 102.484 197.46 114.612C196.587 126.739 195.989 127.563 195.989 127.563Z" fill="#00C802"/>
<path d="M200.131 128.49C200.131 128.49 208.974 122.566 210.94 115.004L208.287 114.277C208.287 114.277 211.682 113.161 211.743 112.033C211.804 110.906 212.82 106.847 212.82 106.847L210.231 106.794C210.231 106.794 212.296 106.376 212.917 104.993C213.537 103.609 214.592 96.696 214.592 96.696C214.592 96.696 210.793 99.0096 209.018 101.961C207.243 104.912 203.846 107.991 201.908 117.933C199.97 127.875 200.131 128.49 200.131 128.49Z" fill="#00C802"/>
<path d="M191.659 94.567C191.662 94.567 191.67 94.6004 191.687 94.67C191.704 94.7452 191.729 94.8454 191.759 94.9735C191.82 95.2491 191.906 95.6389 192.017 96.14C192.13 96.6467 192.26 97.2676 192.404 97.9886C192.548 98.7097 192.717 99.5338 192.883 100.444C193.232 102.265 193.6 104.445 193.98 106.867C194.348 109.292 194.716 111.965 195.043 114.777C195.364 117.591 195.61 120.275 195.804 122.722C195.984 125.169 196.12 127.374 196.192 129.229C196.239 130.156 196.258 130.994 196.283 131.731C196.308 132.469 196.322 133.101 196.327 133.622C196.333 134.134 196.339 134.535 196.341 134.816C196.341 134.947 196.341 135.05 196.341 135.128C196.341 135.198 196.339 135.234 196.336 135.234C196.333 135.234 196.33 135.198 196.325 135.128C196.322 135.05 196.316 134.947 196.311 134.819C196.303 134.538 196.289 134.137 196.269 133.625C196.255 133.107 196.233 132.472 196.203 131.737C196.172 131.002 196.145 130.164 196.092 129.237C196.006 127.386 195.86 125.181 195.671 122.736C195.472 120.292 195.22 117.608 194.899 114.796C194.572 111.987 194.209 109.317 193.849 106.892C193.478 104.47 193.119 102.29 192.784 100.466C192.626 99.5533 192.462 98.7292 192.324 98.0081C192.188 97.2843 192.066 96.6606 191.961 96.1539C191.862 95.6528 191.784 95.2575 191.729 94.9818C191.704 94.8538 191.687 94.7535 191.673 94.6756C191.659 94.6032 191.657 94.567 191.659 94.567Z" fill="#263238"/>
<path d="M194.86 133.578C194.86 133.578 187.39 125.056 185.069 119.903L186.819 119.151C185.551 119.363 184.25 118.814 183.264 117.979C182.279 117.144 181.556 116.05 180.85 114.969L183.156 114.577C181.058 113.984 179.211 112.545 178.117 110.651C180.839 111.102 183.303 112.606 185.332 114.485C186.977 116.008 188.367 117.773 189.704 119.577C190.355 120.457 190.928 121.395 191.401 122.383C192.656 124.995 194.865 130.449 194.86 133.578Z" fill="#00C802"/>
<path d="M211.056 101.658C211.059 101.658 211.047 101.688 211.02 101.744C210.989 101.808 210.953 101.889 210.903 101.992C210.796 102.217 210.643 102.532 210.449 102.938C210.048 103.757 209.48 104.946 208.794 106.424C208.104 107.899 207.312 109.67 206.46 111.65C205.615 113.632 204.715 115.823 203.821 118.142C202.932 120.464 202.132 122.694 201.429 124.732C200.737 126.773 200.139 128.618 199.66 130.178C199.181 131.734 198.804 133.001 198.552 133.875C198.425 134.306 198.328 134.643 198.256 134.883C198.223 134.991 198.195 135.077 198.176 135.144C198.156 135.203 198.145 135.233 198.143 135.231C198.14 135.231 198.145 135.2 198.159 135.139C198.176 135.072 198.198 134.983 198.226 134.874C198.289 134.632 198.381 134.292 198.494 133.858C198.73 132.976 199.089 131.706 199.557 130.144C200.022 128.582 200.612 126.731 201.299 124.687C201.994 122.647 202.791 120.414 203.68 118.089C204.574 115.767 205.48 113.576 206.332 111.597C207.191 109.62 207.994 107.852 208.697 106.382C209.397 104.909 209.979 103.726 210.394 102.916C210.599 102.518 210.76 102.203 210.873 101.983C210.926 101.883 210.97 101.802 211 101.741C211.039 101.683 211.053 101.658 211.056 101.658Z" fill="#263238"/>
<path d="M195.491 137.23C195.485 137.23 195.474 137.177 195.455 137.074C195.436 136.954 195.413 136.804 195.383 136.62C195.355 136.423 195.319 136.183 195.267 135.905C195.217 135.626 195.167 135.309 195.092 134.961C194.959 134.262 194.766 133.438 194.522 132.533C194.27 131.628 193.96 130.646 193.583 129.63C193.199 128.616 192.786 127.672 192.379 126.826C191.966 125.982 191.568 125.236 191.211 124.624C191.039 124.312 190.865 124.042 190.721 123.8C190.577 123.557 190.446 123.351 190.338 123.187C190.239 123.031 190.159 122.9 190.095 122.8C190.039 122.711 190.015 122.661 190.017 122.658C190.02 122.655 190.056 122.697 190.117 122.783C190.186 122.881 190.275 123.006 190.383 123.157C190.499 123.318 190.637 123.518 190.787 123.758C190.939 123.997 191.119 124.265 191.296 124.571C191.667 125.178 192.074 125.921 192.495 126.765C192.908 127.611 193.329 128.56 193.714 129.577C194.093 130.596 194.4 131.587 194.647 132.497C194.885 133.41 195.067 134.24 195.189 134.941C195.258 135.292 195.3 135.612 195.342 135.891C195.386 136.169 195.413 136.411 195.433 136.612C195.452 136.798 195.466 136.949 195.477 137.069C195.494 137.174 195.497 137.23 195.491 137.23Z" fill="#263238"/>
<path d="M205.35 135.227H189V138.582H205.35V135.227Z" fill="#455A64"/>
<path d="M190.56 138.578L192.326 149.86H202.208L203.855 138.578H190.56Z" fill="#455A64"/>
<path d="M204.347 138.581C204.347 138.62 201.254 138.653 197.439 138.653C193.623 138.653 190.531 138.62 190.531 138.581C190.531 138.542 193.623 138.509 197.439 138.509C201.254 138.509 204.347 138.542 204.347 138.581Z" fill="#263238"/>
<path d="M148.346 38.8706L148.254 39.1894H146.392L146.484 38.8706H148.346ZM147.511 41.0901L146.45 39.8432L146.448 39.593H146.937C147.079 39.593 147.196 39.5694 147.289 39.5224C147.382 39.4739 147.452 39.4087 147.499 39.3266C147.546 39.2446 147.569 39.1524 147.569 39.0502C147.569 38.9359 147.547 38.8357 147.503 38.7496C147.459 38.6621 147.39 38.5942 147.295 38.5458C147.201 38.496 147.078 38.4711 146.925 38.4711H146.396L146.49 38.1523H146.925C147.158 38.1523 147.35 38.188 147.501 38.2593C147.654 38.3292 147.767 38.4315 147.842 38.566C147.917 38.7005 147.955 38.8632 147.955 39.0543C147.955 39.2184 147.923 39.3657 147.86 39.4961C147.799 39.6253 147.697 39.7268 147.553 39.8008C147.412 39.8748 147.22 39.9118 146.98 39.9118L147.967 41.0659V41.0901H147.511ZM148.346 38.1523L148.254 38.4711H146.753L146.845 38.1523H148.346Z" fill="#263238"/>
<path d="M157.39 16.9561V13.4723C157.39 10.0941 154.669 7.35742 151.309 7.35742H128.62L128.6 7.42645C128.035 9.47286 126.73 10.8046 125.289 10.8046H124.461C123.016 10.8046 121.715 9.47286 121.15 7.42645L121.13 7.35742H98.4326C95.077 7.35742 92.3555 10.0941 92.3555 13.4682V16.9561H157.39Z" fill="#263238" stroke="#263238" stroke-width="0.412583" stroke-miterlimit="10"/>
<path d="M92.3516 133.236V136.521C92.3516 139.899 95.0731 142.636 98.4327 142.636H151.309C154.669 142.636 157.391 139.899 157.391 136.521V133.236H92.3516Z" fill="#263238" stroke="#263238" stroke-width="0.412583" stroke-miterlimit="10"/>
<path d="M161.525 42.8607V30.5703H160.418V14.8367C160.418 9.48121 156.102 5.13672 150.772 5.13672H98.9661C93.6401 5.13672 89.3196 9.47715 89.3196 14.8367V139.861C89.3196 145.216 93.6361 149.561 98.9661 149.561H150.772C156.098 149.561 160.418 145.22 160.418 139.861V53.3362H161.525V46.0724H160.418V42.8607H161.525ZM157.39 132.934C157.39 138.293 153.069 142.634 147.744 142.634H101.998C96.6725 142.634 92.352 138.293 92.352 132.934V17.0536C92.352 11.6981 96.6725 7.35768 101.998 7.35768H121.126L121.146 7.42671C121.711 9.47309 123.016 10.8049 124.457 10.8049H125.285C126.73 10.8049 128.031 9.47309 128.596 7.42671L128.616 7.35768H147.739C153.065 7.35768 157.386 11.6981 157.386 17.0536V132.934H157.39Z" fill="#92E3A9" stroke="#263238" stroke-width="0.412583" stroke-miterlimit="10" stroke-linecap="round" stroke-linejoin="round"/>
<path d="M150 6.47461H99.7408C94.6046 6.47461 90.4375 10.6607 90.4375 15.8295V138.872C90.4375 144.037 94.6005 148.227 99.7408 148.227H150C155.136 148.227 159.303 144.041 159.303 138.872V15.8254C159.303 10.6607 155.136 6.47461 150 6.47461ZM157.389 133.277C157.389 138.442 153.226 142.632 148.086 142.632H101.655C96.5185 142.632 92.3515 138.446 92.3515 133.277V16.7065C92.3515 11.5418 96.5145 7.35569 101.651 7.35569H121.125L121.146 7.42471C121.711 9.47109 123.015 10.8029 124.457 10.8029H125.284C126.73 10.8029 128.03 9.47109 128.595 7.42471L128.616 7.35569H148.082C153.218 7.35569 157.385 11.5418 157.385 16.7106V133.277H157.389Z" fill="#263238" stroke="#263238" stroke-width="0.412583" stroke-miterlimit="10" stroke-linecap="round" stroke-linejoin="round"/>
<path d="M98.853 11.3085C98.853 12.2302 97.8233 12.5631 97.8193 13.2655V13.3143H98.8166V13.6228H97.4841V13.3589C97.4841 12.3723 98.5138 12.1814 98.5138 11.3206C98.5138 11.008 98.4088 10.8415 98.1585 10.8415C97.9121 10.8415 97.8031 11.0202 97.8031 11.2922V11.5643H97.4882V11.3166C97.4882 10.8496 97.7022 10.5411 98.1706 10.5411C98.639 10.537 98.853 10.8415 98.853 11.3085Z" fill="white"/>
<path d="M100.512 11.3024V11.3796C100.512 11.6922 100.387 11.9155 100.144 12.0089C100.399 12.1064 100.512 12.3378 100.512 12.6423V12.8778C100.512 13.3448 100.294 13.6493 99.8254 13.6493C99.361 13.6493 99.143 13.3448 99.143 12.8778V12.6667H99.4579V12.8981C99.4579 13.1742 99.571 13.3407 99.8132 13.3407C100.06 13.3407 100.169 13.1783 100.169 12.8697V12.6342C100.169 12.3337 100.043 12.1876 99.785 12.1794H99.6033V11.8749H99.8011C100.027 11.8668 100.165 11.7206 100.165 11.4567V11.3187C100.165 11.006 100.056 10.8436 99.8092 10.8436C99.5669 10.8436 99.4539 11.0141 99.4539 11.2902V11.4486H99.1389V11.3105C99.1389 10.8436 99.357 10.5431 99.8213 10.5431C100.298 10.535 100.512 10.8355 100.512 11.3024Z" fill="white"/>
<path d="M101.172 11.5391V11.9613H100.844V11.5391H101.172ZM101.172 13.2038V13.6261H100.844V13.2038H101.172Z" fill="white"/>
<path d="M101.857 11.8129C101.954 11.6465 102.103 11.5612 102.309 11.5612C102.701 11.5612 102.875 11.8495 102.875 12.2839V12.8808C102.875 13.3477 102.653 13.6523 102.188 13.6523C101.724 13.6523 101.506 13.3477 101.506 12.8808V12.6737H101.821V12.9011C101.821 13.1772 101.934 13.3437 102.176 13.3437C102.418 13.3437 102.531 13.1772 102.531 12.9011V12.3083C102.531 12.0322 102.418 11.8657 102.176 11.8657C101.99 11.8657 101.865 11.9713 101.833 12.1946V12.2636H101.518L101.599 10.5664H102.798V10.8709H101.906L101.857 11.8129Z" fill="white"/>
<path d="M104.563 11.3006V11.3575H104.248V11.2803C104.248 11.0042 104.135 10.8459 103.888 10.8459C103.634 10.8459 103.521 11.0123 103.521 11.3372V12.0233C103.602 11.8122 103.767 11.6945 104.014 11.6945C104.405 11.6945 104.579 11.9787 104.579 12.4172V12.8801C104.579 13.347 104.349 13.6515 103.884 13.6515C103.416 13.6515 103.186 13.347 103.186 12.8801V11.3209C103.186 10.8377 103.404 10.5332 103.884 10.5332C104.345 10.5373 104.563 10.8337 104.563 11.3006ZM103.517 12.4456V12.9044C103.517 13.1805 103.63 13.347 103.876 13.347C104.119 13.347 104.236 13.1805 104.236 12.9044V12.4456C104.236 12.1695 104.119 12.003 103.876 12.003C103.63 12.003 103.517 12.1695 103.517 12.4456Z" fill="white"/>
<path d="M137.737 11.4355H136.881V13.5916H137.737V11.4355Z" fill="white"/>
<path d="M138.885 11.0059H138.025V13.5964H138.885V11.0059Z" fill="white"/>
<path d="M140.026 10.6973H139.166V13.5923H140.026V10.6973Z" fill="white"/>
<path d="M141.168 10.1641H140.312V13.595H141.168V10.1641Z" fill="white"/>
<path d="M151.79 13.5321H146.642V10.3691H151.79V13.5321ZM146.929 13.2439H151.504V10.6574H146.929V13.2439Z" fill="white"/>
<path d="M150.074 10.9668H147.357V12.9279H150.074V10.9668Z" fill="white"/>
<path d="M152.259 11.5781H151.613V12.3252H152.259V11.5781Z" fill="white"/>
<path d="M144.751 12.8525C144.719 12.8525 144.682 12.8444 144.654 12.8241C143.608 12.1988 142.914 12.7794 142.885 12.8038C142.805 12.8728 142.684 12.8647 142.615 12.7835C142.546 12.7023 142.554 12.5805 142.631 12.5115C142.667 12.479 143.556 11.7156 144.852 12.4912C144.945 12.544 144.973 12.6658 144.921 12.7551C144.88 12.816 144.82 12.8525 144.751 12.8525Z" fill="white"/>
<path d="M145.138 12.1954C145.106 12.1954 145.07 12.1872 145.041 12.1669C143.527 11.2615 142.51 12.1385 142.497 12.1466C142.417 12.2157 142.296 12.2075 142.227 12.1304C142.158 12.0492 142.162 11.9274 142.243 11.8583C142.255 11.8462 143.483 10.7905 145.239 11.838C145.332 11.8908 145.36 12.0126 145.308 12.102C145.267 12.1629 145.207 12.1954 145.138 12.1954Z" fill="white"/>
<path d="M145.495 11.4443C145.462 11.4443 145.426 11.4361 145.398 11.4158C143.48 10.2668 142.204 11.3468 142.151 11.3955C142.071 11.4646 141.949 11.4564 141.881 11.3752C141.812 11.294 141.82 11.1722 141.897 11.1032C141.913 11.091 143.427 9.78764 145.596 11.0829C145.689 11.1357 145.717 11.2575 145.664 11.3468C145.624 11.4118 145.559 11.4443 145.495 11.4443Z" fill="white"/>
<path d="M144.174 13.1687C144.174 13.4367 143.96 13.6519 143.693 13.6519C143.427 13.6519 143.213 13.4367 143.213 13.1687C143.213 12.9007 143.427 12.6855 143.693 12.6855C143.96 12.6855 144.174 12.9007 144.174 13.1687Z" fill="white"/>
<rect x="92.3555" y="16.9551" width="65.0336" height="116.279" fill="white"/>
<path d="M151.487 24.0983C151.487 24.432 151.218 24.7025 150.886 24.7025C150.554 24.7025 150.285 24.432 150.285 24.0983C150.285 23.7646 150.554 23.4941 150.886 23.4941C151.218 23.4941 151.487 23.7646 151.487 24.0983Z" fill="#263238"/>
<path d="M150.886 26.3548C151.218 26.3548 151.487 26.0843 151.487 25.7507C151.487 25.417 151.218 25.1465 150.886 25.1465C150.554 25.1465 150.285 25.417 150.285 25.7507C150.285 26.0843 150.554 26.3548 150.886 26.3548Z" fill="#263238"/>
<path d="M150.886 28.0052C151.218 28.0052 151.487 27.7347 151.487 27.4011C151.487 27.0674 151.218 26.7969 150.886 26.7969C150.554 26.7969 150.285 27.0674 150.285 27.4011C150.285 27.7347 150.554 28.0052 150.886 28.0052Z" fill="#263238"/>
<path d="M155.043 30.7324C155.043 30.7815 141.534 30.8202 124.875 30.8202C108.208 30.8202 94.7029 30.7815 94.7029 30.7324C94.7029 30.6832 108.208 30.6445 124.875 30.6445C141.534 30.6445 155.043 30.6832 155.043 30.7324Z" fill="#E0E0E0"/>
<path d="M96.728 27V25.136L98.664 27.164V24.332H98.256V26.18L96.32 24.152V27H96.728ZM100.776 24.332H99.3044V27H100.776V26.616H99.7124V25.776H100.744V25.392H99.7124V24.716H100.776V24.332ZM102.656 24.716V24.332H101.024V24.716H101.636V27H102.044V24.716H102.656ZM103.015 24.332V27H103.683C103.887 27 104.219 26.964 104.431 26.74C104.559 26.604 104.607 26.452 104.607 26.26C104.607 26.096 104.575 25.912 104.431 25.76C104.299 25.624 104.135 25.58 104.087 25.568C104.147 25.54 104.227 25.488 104.287 25.384C104.351 25.28 104.367 25.172 104.367 25.068C104.367 24.848 104.299 24.676 104.155 24.54C103.979 24.376 103.763 24.332 103.419 24.332H103.015ZM103.423 24.716H103.563C103.679 24.716 103.795 24.728 103.887 24.816C103.971 24.896 103.983 24.992 103.983 25.072C103.983 25.164 103.971 25.288 103.879 25.376C103.783 25.468 103.647 25.48 103.547 25.48H103.423V24.716ZM103.423 25.816H103.679C103.823 25.816 103.987 25.828 104.099 25.936C104.167 26.004 104.207 26.108 104.207 26.216C104.207 26.336 104.155 26.448 104.075 26.512C103.971 26.596 103.787 26.616 103.671 26.616H103.423V25.816ZM106.969 27H107.409L106.145 24.176L104.817 27H105.257L105.549 26.356H106.689L106.969 27ZM105.717 25.972L106.129 25.068L106.525 25.972H105.717ZM108.154 27V25.136L110.09 27.164V24.332H109.682V26.18L107.746 24.152V27H108.154ZM111.138 24.332H110.73V27H111.138V25.896L111.218 25.816L112.17 27H112.714L111.502 25.54L112.706 24.332H112.17L111.138 25.396V24.332ZM113.074 24.332V27H113.482V24.332H113.074ZM114.529 27V25.136L116.465 27.164V24.332H116.057V26.18L114.121 24.152V27H114.529ZM118.485 25.988H119.149C119.133 26.14 119.073 26.296 118.925 26.44C118.753 26.608 118.561 26.676 118.329 26.676C118.073 26.676 117.845 26.604 117.661 26.408C117.485 26.22 117.385 25.952 117.385 25.684C117.385 25.396 117.493 25.112 117.669 24.936C117.801 24.804 118.025 24.66 118.373 24.66C118.537 24.66 118.697 24.688 118.845 24.776C118.973 24.848 119.093 24.968 119.173 25.08L119.497 24.852C119.421 24.732 119.285 24.576 119.065 24.452C118.857 24.336 118.609 24.284 118.369 24.284C117.957 24.284 117.593 24.452 117.365 24.684C117.145 24.904 116.977 25.264 116.977 25.68C116.977 26.064 117.113 26.42 117.373 26.688C117.617 26.94 117.893 27.052 118.281 27.052C118.585 27.052 118.913 26.98 119.189 26.712C119.449 26.46 119.585 26.088 119.585 25.632V25.612H118.485V25.988Z" fill="black"/>
<path d="M103.433 39.7561C102.755 39.7561 102.203 39.2011 102.203 38.5197C102.203 37.8382 102.755 37.2832 103.433 37.2832C104.111 37.2832 104.663 37.8382 104.663 38.5197C104.659 39.2011 104.111 39.7561 103.433 39.7561ZM103.433 37.638C102.947 37.638 102.553 38.0349 102.553 38.5232C102.553 39.0114 102.947 39.4084 103.433 39.4084C103.919 39.4084 104.313 39.0114 104.313 38.5232C104.31 38.0349 103.919 37.638 103.433 37.638Z" fill="#263238"/>
<path d="M102.724 40.5894C102.046 40.5894 101.494 40.0344 101.494 39.3529C101.494 38.8401 101.812 38.3764 102.291 38.1973L102.413 38.5275C102.074 38.6574 101.844 38.9876 101.844 39.3529C101.844 39.8412 102.238 40.2381 102.724 40.2381C103.147 40.2381 103.51 39.936 103.587 39.518L103.929 39.5813C103.824 40.1644 103.314 40.5894 102.724 40.5894Z" fill="#263238"/>
<path d="M102.022 41.3101C101.344 41.3101 100.792 40.7551 100.792 40.0736C100.792 39.5643 101.11 39.0971 101.589 38.918L101.711 39.2482C101.372 39.3781 101.142 39.7083 101.142 40.0736C101.142 40.5619 101.536 40.9588 102.022 40.9588C102.445 40.9588 102.808 40.6567 102.885 40.2387L103.227 40.302C103.119 40.8886 102.612 41.3101 102.022 41.3101Z" fill="#263238"/>
<path d="M106.706 39.2838C106.706 38.6094 107.219 38.1211 107.911 38.1211C108.278 38.1211 108.592 38.2546 108.802 38.5005L108.533 38.7569C108.368 38.5777 108.166 38.4934 107.932 38.4934C107.467 38.4934 107.128 38.8236 107.128 39.2873C107.128 39.751 107.467 40.0812 107.932 40.0812C108.166 40.0812 108.368 39.9934 108.533 39.8142L108.802 40.0741C108.592 40.32 108.278 40.4535 107.907 40.4535C107.219 40.4465 106.706 39.9582 106.706 39.2838Z" fill="#263238"/>
<path d="M111.205 38.1523V40.4145H110.786V39.445H109.623V40.4145H109.203V38.1523H109.623V39.0867H110.786V38.1523H111.205Z" fill="#263238"/>
<path d="M111.649 39.2838C111.649 38.6164 112.162 38.1211 112.861 38.1211C113.56 38.1211 114.073 38.6129 114.073 39.2838C114.073 39.9547 113.56 40.4465 112.861 40.4465C112.166 40.4465 111.649 39.9512 111.649 39.2838ZM113.654 39.2838C113.654 38.8201 113.315 38.4899 112.865 38.4899C112.41 38.4899 112.075 38.8236 112.075 39.2838C112.075 39.7475 112.414 40.0777 112.865 40.0777C113.315 40.0777 113.654 39.744 113.654 39.2838Z" fill="#263238"/>
<path d="M114.359 39.2838C114.359 38.6164 114.873 38.1211 115.572 38.1211C116.27 38.1211 116.784 38.6129 116.784 39.2838C116.784 39.9547 116.27 40.4465 115.572 40.4465C114.873 40.4465 114.359 39.9512 114.359 39.2838ZM116.361 39.2838C116.361 38.8201 116.022 38.4899 115.572 38.4899C115.117 38.4899 114.782 38.8236 114.782 39.2838C114.782 39.7475 115.121 40.0777 115.572 40.0777C116.022 40.0777 116.361 39.744 116.361 39.2838Z" fill="#263238"/>
<path d="M117.039 40.176L117.182 39.8493C117.36 39.9934 117.647 40.0987 117.923 40.0987C118.272 40.0987 118.422 39.9723 118.422 39.8037C118.422 39.3154 117.084 39.6351 117.084 38.7955C117.084 38.4302 117.374 38.1211 117.989 38.1211C118.258 38.1211 118.541 38.1913 118.737 38.3213L118.604 38.648C118.401 38.5286 118.181 38.4689 117.982 38.4689C117.636 38.4689 117.493 38.6058 117.493 38.7745C117.493 39.2557 118.827 38.9431 118.827 39.7721C118.827 40.1339 118.534 40.443 117.919 40.443C117.573 40.4465 117.224 40.3376 117.039 40.176Z" fill="#263238"/>
<path d="M120.937 40.0593V40.4106H119.25V38.1484H120.892V38.4997H119.666V39.0863H120.752V39.4306H119.666V40.0558H120.937V40.0593Z" fill="#263238"/>
<path d="M123.752 39.8911H122.628L122.404 40.4145H121.974L122.987 38.1523H123.4L124.416 40.4145H123.98L123.752 39.8911ZM123.613 39.5609L123.19 38.5704L122.767 39.5609H123.613Z" fill="#263238"/>
<path d="M126.767 40.4141L126.764 38.9142L126.023 40.1542H125.838L125.098 38.9318V40.4106H124.699V38.1484H125.042L125.936 39.6483L126.813 38.1484H127.155L127.159 40.4106H126.767V40.4141Z" fill="#263238"/>
<path d="M127.613 39.2838C127.613 38.6164 128.127 38.1211 128.825 38.1211C129.524 38.1211 130.037 38.6129 130.037 39.2838C130.037 39.9547 129.524 40.4465 128.825 40.4465C128.127 40.4465 127.613 39.9512 127.613 39.2838ZM129.615 39.2838C129.615 38.8201 129.276 38.4899 128.825 38.4899C128.371 38.4899 128.036 38.8236 128.036 39.2838C128.036 39.7475 128.375 40.0777 128.825 40.0777C129.279 40.0777 129.615 39.744 129.615 39.2838Z" fill="#263238"/>
<path d="M130.463 39.4274V38.1523H130.883V39.4134C130.883 39.8806 131.092 40.0808 131.455 40.0808C131.819 40.0808 132.025 39.8806 132.025 39.4134V38.1523H132.437V39.4274C132.437 40.0878 132.067 40.4461 131.452 40.4461C130.834 40.4461 130.463 40.0878 130.463 39.4274Z" fill="#263238"/>
<path d="M135.019 38.1523V40.4145H134.676L133.436 38.883V40.4145H133.021V38.1523H133.363L134.603 39.6839V38.1523H135.019Z" fill="#263238"/>
<path d="M136.081 38.5071H135.337V38.1523H137.244V38.5071H136.5V40.4145H136.081V38.5071Z" fill="#263238"/>
<path d="M138.417 39.5296C138.417 38.9359 138.56 38.402 138.808 38.0156H139.189C138.924 38.4863 138.808 38.9746 138.808 39.5296C138.808 40.0811 138.92 40.5693 139.189 41.0436H138.808C138.557 40.6501 138.417 40.1232 138.417 39.5296Z" fill="#263238"/>
<path d="M141.949 41.0398C142.215 40.5691 142.33 40.0808 142.33 39.5258C142.33 38.9743 142.215 38.4861 141.949 38.0118H142.33C142.585 38.3947 142.721 38.9286 142.721 39.5258C142.721 40.1194 142.582 40.6464 142.33 41.0398H141.949Z" fill="#263238"/>
<path d="M131.39 59.237H119.932C119.072 59.237 118.377 58.538 118.377 57.6739V46.7565C118.377 45.8924 119.072 45.1934 119.932 45.1934H131.39C132.249 45.1934 132.944 45.8924 132.944 46.7565V57.6739C132.944 58.538 132.249 59.237 131.39 59.237Z" fill="#00C802"/>
<path d="M125.203 53.3001V53.9535H122.146V53.4336L123.792 51.8599C124.193 51.4735 124.267 51.2276 124.267 50.9958C124.267 50.6129 124.005 50.3951 123.498 50.3951C123.096 50.3951 122.758 50.5321 122.527 50.8307L121.989 50.4127C122.31 49.9771 122.883 49.7207 123.564 49.7207C124.466 49.7207 125.046 50.1809 125.046 50.9185C125.046 51.3225 124.934 51.6913 124.357 52.2358L123.25 53.2966H125.203V53.3001Z" fill="white"/>
<path d="M125.629 51.8693C125.629 50.4994 126.376 49.7266 127.358 49.7266C128.347 49.7266 129.094 50.4994 129.094 51.8693C129.094 53.2392 128.347 54.012 127.358 54.012C126.373 54.0155 125.629 53.2392 125.629 51.8693ZM128.319 51.8693C128.319 50.8647 127.927 50.3975 127.358 50.3975C126.796 50.3975 126.404 50.8612 126.404 51.8693C126.404 52.8774 126.796 53.3411 127.358 53.3411C127.927 53.3411 128.319 52.8774 128.319 51.8693Z" fill="white"/>
<path d="M108.184 49.7871V53.9567H107.415V50.437H106.539V49.7871H108.184Z" fill="#263238"/>
<path d="M109.005 51.8713C109.005 50.5013 109.753 49.7285 110.735 49.7285C111.723 49.7285 112.471 50.5013 112.471 51.8713C112.471 53.2412 111.723 54.014 110.735 54.014C109.753 54.0175 109.005 53.2412 109.005 51.8713ZM111.695 51.8713C111.695 50.8666 111.304 50.3994 110.735 50.3994C110.172 50.3994 109.781 50.8631 109.781 51.8713C109.781 52.8794 110.172 53.3431 110.735 53.3431C111.304 53.3431 111.695 52.8794 111.695 51.8713Z" fill="#263238"/>
<path d="M115.342 59.4125H103.884C102.93 59.4125 102.155 58.6327 102.155 57.6738V46.7564C102.155 45.7974 102.93 45.0176 103.884 45.0176H115.342C116.296 45.0176 117.071 45.7974 117.071 46.7564V57.6738C117.068 58.6327 116.292 59.4125 115.342 59.4125ZM103.88 45.3688C103.119 45.3688 102.501 45.9906 102.501 46.7564V57.6738C102.501 58.4395 103.119 59.0613 103.88 59.0613H115.339C116.1 59.0613 116.718 58.4395 116.718 57.6738V46.7564C116.718 45.9906 116.1 45.3688 115.339 45.3688H103.88Z" fill="#E0E0E0"/>
<path d="M147.441 59.4125H135.983C135.029 59.4125 134.254 58.6327 134.254 57.6738V46.7564C134.254 45.7974 135.029 45.0176 135.983 45.0176H147.441C148.395 45.0176 149.17 45.7974 149.17 46.7564V57.6738C149.17 58.6327 148.395 59.4125 147.441 59.4125ZM135.983 45.3688C135.222 45.3688 134.603 45.9906 134.603 46.7564V57.6738C134.603 58.4395 135.222 59.0613 135.983 59.0613H147.441C148.203 59.0613 148.821 58.4395 148.821 57.6738V46.7564C148.821 45.9906 148.203 45.3688 147.441 45.3688H135.983Z" fill="#E0E0E0"/>
<path d="M141.265 52.6745C141.265 53.4087 140.737 54.0129 139.623 54.0129C139.036 54.0129 138.445 53.8337 138.065 53.5316L138.39 52.931C138.693 53.1804 139.141 53.3419 139.609 53.3419C140.161 53.3419 140.486 53.0996 140.486 52.7061C140.486 52.3057 140.231 52.0563 139.371 52.0563H138.369L138.582 49.7871H141.017V50.437H139.235L139.148 51.4029H139.546C140.776 51.3994 141.265 51.9369 141.265 52.6745Z" fill="#263238"/>
<path d="M141.708 51.8713C141.708 50.5013 142.456 49.7285 143.438 49.7285C144.426 49.7285 145.174 50.5013 145.174 51.8713C145.174 53.2412 144.426 54.014 143.438 54.014C142.456 54.0175 141.708 53.2412 141.708 51.8713ZM144.398 51.8713C144.398 50.8666 144.007 50.3994 143.438 50.3994C142.875 50.3994 142.484 50.8631 142.484 51.8713C142.484 52.8794 142.875 53.3431 143.438 53.3431C144.007 53.3431 144.398 52.8794 144.398 51.8713Z" fill="#263238"/>
<path d="M131.39 75.7875H119.932C118.978 75.7875 118.202 75.0077 118.202 74.0488V63.1314C118.202 62.1724 118.978 61.3926 119.932 61.3926H131.39C132.343 61.3926 133.119 62.1724 133.119 63.1314V74.0488C133.119 75.0077 132.343 75.7875 131.39 75.7875ZM119.932 61.7438C119.17 61.7438 118.552 62.3656 118.552 63.1314V74.0488C118.552 74.8145 119.17 75.4363 119.932 75.4363H131.39C132.151 75.4363 132.769 74.8145 132.769 74.0488V63.1314C132.769 62.3656 132.151 61.7438 131.39 61.7438H119.932Z" fill="#E0E0E0"/>
<path d="M123.226 69.6751V70.3285H120.169V69.8086L121.814 68.2349C122.216 67.8485 122.289 67.6026 122.289 67.3708C122.289 66.9914 122.027 66.7701 121.521 66.7701C121.119 66.7701 120.78 66.9071 120.55 67.2057L120.012 66.7877C120.33 66.3521 120.906 66.0957 121.587 66.0957C122.488 66.0957 123.068 66.5559 123.068 67.2935C123.068 67.6975 122.957 68.0663 122.38 68.6108L121.273 69.6716H123.226V69.6751Z" fill="#263238"/>
<path d="M123.652 68.2443C123.652 66.8744 124.399 66.1016 125.381 66.1016C126.369 66.1016 127.117 66.8744 127.117 68.2443C127.117 69.6142 126.369 70.387 125.381 70.387C124.396 70.387 123.652 69.6142 123.652 68.2443ZM126.341 68.2443C126.341 67.2397 125.95 66.7725 125.381 66.7725C124.818 66.7725 124.427 67.2362 124.427 68.2443C124.427 69.2524 124.818 69.7161 125.381 69.7161C125.95 69.7161 126.341 69.2489 126.341 68.2443Z" fill="#263238"/>
<path d="M127.635 68.2443C127.635 66.8744 128.382 66.1016 129.364 66.1016C130.352 66.1016 131.1 66.8744 131.1 68.2443C131.1 69.6142 130.352 70.387 129.364 70.387C128.382 70.387 127.635 69.6142 127.635 68.2443ZM130.324 68.2443C130.324 67.2397 129.933 66.7725 129.364 66.7725C128.801 66.7725 128.41 67.2362 128.41 68.2443C128.41 69.2524 128.801 69.7161 129.364 69.7161C129.933 69.7161 130.324 69.2489 130.324 68.2443Z" fill="#263238"/>
<path d="M106.193 66.1602V70.3297H105.425V66.81H104.548V66.1602H106.193Z" fill="#263238"/>
<path d="M107.015 68.2443C107.015 66.8744 107.762 66.1016 108.744 66.1016C109.732 66.1016 110.48 66.8744 110.48 68.2443C110.48 69.6142 109.732 70.387 108.744 70.387C107.762 70.387 107.015 69.6142 107.015 68.2443ZM109.705 68.2443C109.705 67.2397 109.313 66.7725 108.744 66.7725C108.181 66.7725 107.79 67.2362 107.79 68.2443C107.79 69.2524 108.181 69.7161 108.744 69.7161C109.313 69.7161 109.705 69.2489 109.705 68.2443Z" fill="#263238"/>
<path d="M111 68.2443C111 66.8744 111.748 66.1016 112.729 66.1016C113.718 66.1016 114.466 66.8744 114.466 68.2443C114.466 69.6142 113.718 70.387 112.729 70.387C111.744 70.387 111 69.6142 111 68.2443ZM113.687 68.2443C113.687 67.2397 113.295 66.7725 112.726 66.7725C112.164 66.7725 111.772 67.2362 111.772 68.2443C111.772 69.2524 112.164 69.7161 112.726 69.7161C113.295 69.7161 113.687 69.2489 113.687 68.2443Z" fill="#263238"/>
<path d="M115.342 75.7875H103.884C102.93 75.7875 102.155 75.0077 102.155 74.0488V63.1314C102.155 62.1724 102.93 61.3926 103.884 61.3926H115.342C116.296 61.3926 117.071 62.1724 117.071 63.1314V74.0488C117.068 75.0077 116.292 75.7875 115.342 75.7875ZM103.88 61.7438C103.119 61.7438 102.501 62.3656 102.501 63.1314V74.0488C102.501 74.8145 103.119 75.4363 103.88 75.4363H115.339C116.1 75.4363 116.718 74.8145 116.718 74.0488V63.1314C116.718 62.3656 116.1 61.7438 115.339 61.7438H103.88Z" fill="#E0E0E0"/>
<path d="M147.441 75.7875H135.983C135.029 75.7875 134.254 75.0077 134.254 74.0488V63.1314C134.254 62.1724 135.029 61.3926 135.983 61.3926H147.441C148.395 61.3926 149.17 62.1724 149.17 63.1314V74.0488C149.17 75.0077 148.395 75.7875 147.441 75.7875ZM135.983 61.7438C135.222 61.7438 134.603 62.3656 134.603 63.1314V74.0488C134.603 74.8145 135.222 75.4363 135.983 75.4363H147.441C148.203 75.4363 148.821 74.8145 148.821 74.0488V63.1314C148.821 62.3656 148.203 61.7438 147.441 61.7438H135.983Z" fill="#E0E0E0"/>
<path d="M139.322 69.0476C139.322 69.7817 138.795 70.3859 137.681 70.3859C137.094 70.3859 136.503 70.2068 136.123 69.9047L136.447 69.304C136.751 69.5534 137.199 69.715 137.667 69.715C138.219 69.715 138.543 69.4726 138.543 69.0792C138.543 68.6788 138.288 68.4294 137.429 68.4294H136.426L136.64 66.1602H139.074V66.81H137.293L137.205 67.776H137.604C138.83 67.7725 139.322 68.3099 139.322 69.0476Z" fill="#263238"/>
<path d="M139.766 68.2443C139.766 66.8744 140.514 66.1016 141.496 66.1016C142.484 66.1016 143.232 66.8744 143.232 68.2443C143.232 69.6142 142.484 70.387 141.496 70.387C140.51 70.387 139.766 69.6142 139.766 68.2443ZM142.453 68.2443C142.453 67.2397 142.061 66.7725 141.492 66.7725C140.93 66.7725 140.538 67.2362 140.538 68.2443C140.538 69.2524 140.93 69.7161 141.492 69.7161C142.065 69.7161 142.453 69.2489 142.453 68.2443Z" fill="#263238"/>
<path d="M143.748 68.2443C143.748 66.8744 144.496 66.1016 145.477 66.1016C146.466 66.1016 147.214 66.8744 147.214 68.2443C147.214 69.6142 146.466 70.387 145.477 70.387C144.496 70.387 143.748 69.6142 143.748 68.2443ZM146.438 68.2443C146.438 67.2397 146.047 66.7725 145.477 66.7725C144.915 66.7725 144.524 67.2362 144.524 68.2443C144.524 69.2524 144.915 69.7161 145.477 69.7161C146.047 69.7161 146.438 69.2489 146.438 68.2443Z" fill="#263238"/>
<path d="M101.088 87.0491L101.232 86.7224C101.41 86.8664 101.696 86.9718 101.972 86.9718C102.322 86.9718 102.472 86.8453 102.472 86.6767C102.472 86.1885 101.134 86.5081 101.134 85.6686C101.134 85.3033 101.424 84.9941 102.039 84.9941C102.308 84.9941 102.59 85.0644 102.786 85.1944L102.653 85.521C102.451 85.4016 102.231 85.3419 102.032 85.3419C101.686 85.3419 101.543 85.4789 101.543 85.6475C101.543 86.1287 102.877 85.8161 102.877 86.6451C102.877 87.0069 102.584 87.316 101.969 87.316C101.623 87.3195 101.274 87.2106 101.088 87.0491Z" fill="#263238"/>
<path d="M104.987 86.9363V87.2876H103.3V85.0254H104.942V85.3767H103.719V85.9633H104.805V86.311H103.719V86.9363H104.987Z" fill="#263238"/>
<path d="M105.455 85.0254H105.874V86.9328H107.051V87.2876H105.458V85.0254H105.455Z" fill="#263238"/>
<path d="M109.071 86.9363V87.2876H107.384V85.0254H109.025V85.3767H107.799V85.9633H108.886V86.311H107.799V86.9363H109.071Z" fill="#263238"/>
<path d="M109.368 86.1568C109.368 85.4824 109.881 84.9941 110.573 84.9941C110.94 84.9941 111.254 85.1276 111.464 85.3735L111.195 85.6299C111.03 85.4508 110.828 85.3665 110.594 85.3665C110.129 85.3665 109.79 85.6967 109.79 86.1603C109.79 86.6275 110.129 86.9542 110.594 86.9542C110.828 86.9542 111.03 86.8664 111.195 86.6872L111.464 86.9472C111.254 87.1931 110.94 87.3266 110.569 87.3266C109.881 87.3195 109.368 86.8348 109.368 86.1568Z" fill="#263238"/>
<path d="M112.295 85.3802H111.551V85.0254H113.458V85.3802H112.714V87.2876H112.295V85.3802Z" fill="#263238"/>
<path d="M116.546 85.8298C116.546 86.3286 116.18 86.6342 115.589 86.6342H115.083V87.2876H114.664V85.0254H115.589C116.183 85.0254 116.546 85.331 116.546 85.8298ZM116.127 85.8298C116.127 85.5453 115.939 85.3802 115.572 85.3802H115.083V86.2794H115.572C115.939 86.2794 116.127 86.1143 116.127 85.8298Z" fill="#263238"/>
<path d="M118.314 86.7642H117.189L116.966 87.2876H116.536L117.549 85.0254H117.961L118.978 87.2876H118.541L118.314 86.7642ZM118.174 86.434L117.752 85.4434L117.329 86.434H118.174Z" fill="#263238"/>
<path d="M120.099 86.4902V87.2876H119.68V86.4972L118.796 85.0254H119.243L119.903 86.1284L120.571 85.0254H120.983L120.099 86.4902Z" fill="#263238"/>
<path d="M123.288 87.2891L123.285 85.7892L122.544 87.0292H122.359L121.618 85.8068V87.2856H121.22V85.0234H121.562L122.457 86.5234L123.333 85.0234H123.676L123.679 87.2856H123.288V87.2891Z" fill="#263238"/>
<path d="M125.982 86.9363V87.2876H124.295V85.0254H125.937V85.3767H124.714V85.9633H125.8V86.311H124.714V86.9363H125.982Z" fill="#263238"/>
<path d="M128.448 85.0254V87.2876H128.106L126.865 85.756V87.2876H126.45V85.0254H126.792L128.032 86.5569V85.0254H128.448Z" fill="#263238"/>
<path d="M129.51 85.3802H128.766V85.0254H130.673V85.3802H129.929V87.2876H129.51V85.3802Z" fill="#263238"/>
<path d="M133.946 87.2891L133.943 85.7892L133.202 87.0292H133.017L132.277 85.8068V87.2856H131.878V85.0234H132.221L133.115 86.5234L133.992 85.0234H134.334L134.338 87.2856H133.946V87.2891Z" fill="#263238"/>
<path d="M136.637 86.9363V87.2876H134.949V85.0254H136.591V85.3767H135.365V85.9633H136.452V86.311H135.365V86.9363H136.637Z" fill="#263238"/>
<path d="M137.562 85.3802H136.818V85.0254H138.725V85.3802H137.981V87.2876H137.562V85.3802Z" fill="#263238"/>
<path d="M141.042 85.0254V87.2876H140.623V86.3181H139.459V87.2876H139.04V85.0254H139.459V85.9598H140.623V85.0254H141.042Z" fill="#263238"/>
<path d="M141.485 86.1568C141.485 85.4894 141.999 84.9941 142.698 84.9941C143.396 84.9941 143.91 85.4859 143.91 86.1568C143.91 86.8278 143.396 87.3195 142.698 87.3195C142.002 87.3195 141.485 86.8278 141.485 86.1568ZM143.49 86.1568C143.49 85.6932 143.152 85.363 142.701 85.363C142.247 85.363 141.912 85.6967 141.912 86.1568C141.912 86.6205 142.25 86.9507 142.701 86.9507C143.152 86.9542 143.49 86.6205 143.49 86.1568Z" fill="#263238"/>
<path d="M144.356 85.0254H145.341C146.071 85.0254 146.567 85.4785 146.567 86.1565C146.567 86.8344 146.068 87.2876 145.341 87.2876H144.356V85.0254ZM145.32 86.9328C145.823 86.9328 146.148 86.6272 146.148 86.1565C146.148 85.6893 145.823 85.3802 145.32 85.3802H144.775V86.9328H145.32Z" fill="#263238"/>
<path d="M150.058 104.212H101.218C100.082 104.212 99.1567 103.281 99.1567 102.14V92.8733C99.1567 91.7316 100.082 90.8008 101.218 90.8008H150.058C151.193 90.8008 152.119 91.7316 152.119 92.8733V102.14C152.119 103.281 151.193 104.212 150.058 104.212ZM101.218 91.152C100.275 91.152 99.5061 91.9248 99.5061 92.8733V102.14C99.5061 103.088 100.275 103.861 101.218 103.861H150.058C151.001 103.861 151.769 103.088 151.769 102.14V92.8733C151.769 91.9248 151.001 91.152 150.058 91.152H101.218Z" fill="#E0E0E0"/>
<path d="M109.435 94.1328H102.866C102.314 94.1328 101.866 94.5805 101.866 95.1328V99.8802C101.866 100.432 102.314 100.88 102.866 100.88H109.435C109.987 100.88 110.435 100.432 110.435 99.8802V95.1328C110.435 94.5805 109.987 94.1328 109.435 94.1328Z" fill="#00C802"/>
<path d="M148.697 98.402C148.645 98.402 148.593 98.3795 148.559 98.3419L147.283 96.9234C147.216 96.8446 147.219 96.7283 147.298 96.657C147.376 96.5894 147.492 96.5932 147.563 96.672L148.701 97.9367L149.839 96.672C149.91 96.5969 150.026 96.5894 150.104 96.6607C150.179 96.7283 150.186 96.8484 150.116 96.9272L148.839 98.3457C148.802 98.3795 148.753 98.402 148.697 98.402Z" fill="#E0E0E0"/>
<path d="M115.401 98.1312V97.0448L116.523 98.2268V96.5761H116.287V97.6533L115.165 96.4712V98.1312H115.401Z" fill="#263238"/>
<path d="M117.748 96.5761H116.894V98.1312H117.748V97.9074H117.131V97.4178H117.729V97.194H117.131V96.8H117.748V96.5761Z" fill="#263238"/>
<path d="M118.828 96.5761H118.054V98.1312H118.29V97.4178H118.81V97.194H118.29V96.8H118.828V96.5761Z" fill="#263238"/>
<path d="M119.881 96.8V96.5761H118.935V96.8H119.29V98.1312H119.527V96.8H119.881Z" fill="#263238"/>
<path d="M119.904 98.5439L120.089 98.6278L121.309 96.4316L121.123 96.3477L119.904 98.5439Z" fill="#263238"/>
<path d="M121.674 96.5761V98.1312H121.911V97.4947H121.953L122.395 98.1312H122.681L122.198 97.4668C122.405 97.4201 122.542 97.2569 122.542 97.0331C122.542 96.9655 122.528 96.7813 122.358 96.6671C122.259 96.5995 122.138 96.5761 121.95 96.5761H121.674ZM121.911 96.7953H121.992C122.108 96.7953 122.314 96.8163 122.314 97.0354C122.314 97.2826 122.05 97.2896 121.985 97.2896H121.911V96.7953Z" fill="#263238"/>
<path d="M123.697 96.8V96.5761H122.751V96.8H123.105V98.1312H123.342V96.8H123.697Z" fill="#263238"/>
<path d="M124.659 97.5414H125.044C125.035 97.63 125 97.7209 124.914 97.8048C124.815 97.9028 124.703 97.9424 124.569 97.9424C124.421 97.9424 124.288 97.9004 124.182 97.7862C124.08 97.6766 124.022 97.5204 124.022 97.3642C124.022 97.1963 124.084 97.0308 124.186 96.9282C124.263 96.8513 124.393 96.7673 124.594 96.7673C124.689 96.7673 124.782 96.7836 124.868 96.8349C124.942 96.8769 125.012 96.9468 125.058 97.0121L125.246 96.8792C125.202 96.8093 125.123 96.7184 124.996 96.6461C124.875 96.5785 124.731 96.5482 124.592 96.5482C124.353 96.5482 124.142 96.6461 124.01 96.7813C123.883 96.9095 123.785 97.1194 123.785 97.3619C123.785 97.5857 123.864 97.7932 124.015 97.9494C124.156 98.0963 124.316 98.1615 124.541 98.1615C124.717 98.1615 124.907 98.1196 125.067 97.9634C125.218 97.8165 125.297 97.5997 125.297 97.3339V97.3222H124.659V97.5414Z" fill="#263238"/>
<path d="M126.452 96.8093C126.419 96.744 126.375 96.6904 126.333 96.6531C126.285 96.6111 126.19 96.5482 126.023 96.5482C125.733 96.5482 125.571 96.7487 125.571 96.9585C125.571 97.1917 125.758 97.2989 125.886 97.3525L126.034 97.4155C126.136 97.4574 126.257 97.5227 126.257 97.6813C126.257 97.8375 126.146 97.9424 126.002 97.9424C125.909 97.9424 125.844 97.9051 125.8 97.8491C125.763 97.8002 125.735 97.7279 125.735 97.651L125.501 97.7022C125.51 97.8095 125.547 97.9121 125.631 98.0053C125.71 98.0939 125.816 98.1615 125.995 98.1615C126.285 98.1615 126.493 97.9587 126.493 97.6626C126.493 97.4854 126.415 97.3222 126.129 97.2056L125.974 97.1427C125.823 97.0821 125.807 97.0005 125.807 96.9538C125.807 96.8536 125.881 96.7673 126.025 96.7673C126.092 96.7673 126.143 96.7836 126.192 96.8233C126.227 96.8536 126.248 96.8862 126.262 96.9212L126.452 96.8093Z" fill="#263238"/>
<path d="M126.604 98.5439L126.789 98.6278L128.009 96.4316L127.823 96.3477L126.604 98.5439Z" fill="#263238"/>
<path d="M128.374 96.5761V98.1312H128.611V96.5761H128.374Z" fill="#263238"/>
<path d="M129.176 98.1312L129.338 97.1917L129.783 98.2035L130.233 97.194L130.391 98.1312H130.632L130.34 96.4596L129.797 97.6673L129.259 96.4596L128.935 98.1312H129.176Z" fill="#263238"/>
<path d="M130.956 96.5761V98.1312H131.192V97.4994H131.299C131.412 97.4994 131.554 97.4831 131.677 97.3782C131.804 97.2686 131.827 97.1287 131.827 97.0378C131.827 96.8956 131.765 96.7463 131.635 96.6601C131.524 96.5855 131.392 96.5761 131.297 96.5761H130.956ZM131.192 96.7953H131.297C131.565 96.7953 131.6 96.9492 131.6 97.0354C131.6 97.18 131.503 97.2802 131.299 97.2802H131.192V96.7953Z" fill="#263238"/>
<path d="M132.928 96.8093C132.895 96.744 132.851 96.6904 132.809 96.6531C132.761 96.6111 132.666 96.5482 132.499 96.5482C132.209 96.5482 132.047 96.7487 132.047 96.9585C132.047 97.1917 132.234 97.2989 132.362 97.3525L132.51 97.4155C132.612 97.4574 132.733 97.5227 132.733 97.6813C132.733 97.8375 132.622 97.9424 132.478 97.9424C132.385 97.9424 132.32 97.9051 132.276 97.8491C132.239 97.8002 132.211 97.7279 132.211 97.651L131.977 97.7022C131.986 97.8095 132.023 97.9121 132.107 98.0053C132.186 98.0939 132.292 98.1615 132.471 98.1615C132.761 98.1615 132.969 97.9587 132.969 97.6626C132.969 97.4854 132.89 97.3222 132.605 97.2056L132.45 97.1427C132.299 97.0821 132.283 97.0005 132.283 96.9538C132.283 96.8536 132.357 96.7673 132.501 96.7673C132.568 96.7673 132.619 96.7836 132.668 96.8233C132.703 96.8536 132.724 96.8862 132.737 96.9212L132.928 96.8093Z" fill="#263238"/>
<path d="M104.397 120.701C104.397 120.125 104.837 119.707 105.428 119.707C105.742 119.707 106.011 119.819 106.189 120.03L105.959 120.248C105.819 120.097 105.644 120.023 105.445 120.023C105.047 120.023 104.761 120.304 104.761 120.701C104.761 121.098 105.05 121.379 105.445 121.379C105.644 121.379 105.819 121.305 105.959 121.151L106.189 121.372C106.011 121.583 105.742 121.695 105.428 121.695C104.837 121.692 104.397 121.277 104.397 120.701Z" fill="#E0E0E0"/>
<path d="M107.737 121.218H106.777L106.588 121.664H106.221L107.088 119.732H107.44L108.307 121.664H107.933L107.737 121.218ZM107.619 120.937L107.255 120.091L106.895 120.937H107.619Z" fill="#E0E0E0"/>
<path d="M110.256 119.734V121.666H109.962L108.904 120.36V121.666H108.551V119.734H108.844L109.903 121.041V119.734H110.256Z" fill="#E0E0E0"/>
<path d="M110.633 120.701C110.633 120.125 111.073 119.707 111.664 119.707C111.978 119.707 112.247 119.819 112.425 120.03L112.195 120.248C112.055 120.097 111.88 120.023 111.681 120.023C111.283 120.023 110.996 120.304 110.996 120.701C110.996 121.098 111.286 121.379 111.681 121.379C111.88 121.379 112.055 121.305 112.195 121.151L112.425 121.372C112.247 121.583 111.978 121.695 111.664 121.695C111.073 121.692 110.633 121.277 110.633 120.701Z" fill="#E0E0E0"/>
<path d="M114.207 121.364V121.666H112.764V119.734H114.168V120.036H113.124V120.539H114.053V120.834H113.124V121.368H114.207V121.364Z" fill="#E0E0E0"/>
<path d="M114.608 119.734H114.964V121.364H115.971V121.666H114.608V119.734Z" fill="#E0E0E0"/>
<path d="M148.402 126.693H125.979C124.61 126.693 123.502 125.576 123.502 124.203V117.571C123.502 116.194 124.613 115.08 125.979 115.08H148.402C149.772 115.08 150.879 116.197 150.879 117.571V124.203C150.879 125.576 149.768 126.693 148.402 126.693Z" fill="#00C802"/>
<path d="M128.232 121.801H127.91L128.84 119.256H129.156L130.085 121.801H129.764L129.008 119.658H128.988L128.232 121.801ZM128.35 120.807H129.646V121.08H128.35V120.807Z" fill="white"/>
<path d="M131.157 121.841C130.999 121.841 130.859 121.801 130.738 121.72C130.617 121.639 130.522 121.525 130.454 121.377C130.385 121.229 130.351 121.054 130.351 120.851C130.351 120.651 130.385 120.477 130.454 120.33C130.522 120.182 130.617 120.068 130.739 119.988C130.861 119.907 131.002 119.867 131.162 119.867C131.286 119.867 131.383 119.888 131.455 119.929C131.527 119.97 131.583 120.016 131.62 120.069C131.659 120.12 131.689 120.162 131.711 120.195H131.735V119.256H132.027V121.801H131.745V121.508H131.711C131.689 121.542 131.659 121.586 131.619 121.639C131.58 121.692 131.523 121.738 131.45 121.78C131.377 121.82 131.279 121.841 131.157 121.841ZM131.197 121.577C131.314 121.577 131.412 121.547 131.493 121.485C131.574 121.423 131.635 121.337 131.677 121.228C131.719 121.118 131.74 120.991 131.74 120.847C131.74 120.704 131.72 120.579 131.679 120.472C131.637 120.365 131.576 120.281 131.496 120.221C131.415 120.161 131.315 120.131 131.197 120.131C131.073 120.131 130.97 120.163 130.888 120.226C130.806 120.289 130.745 120.375 130.703 120.484C130.663 120.591 130.643 120.712 130.643 120.847C130.643 120.982 130.663 121.106 130.705 121.217C130.747 121.327 130.808 121.415 130.89 121.48C130.972 121.545 131.075 121.577 131.197 121.577Z" fill="white"/>
<path d="M133.318 121.841C133.16 121.841 133.021 121.801 132.9 121.72C132.778 121.639 132.684 121.525 132.615 121.377C132.547 121.229 132.513 121.054 132.513 120.851C132.513 120.651 132.547 120.477 132.615 120.33C132.684 120.182 132.779 120.068 132.901 119.988C133.023 119.907 133.164 119.867 133.323 119.867C133.447 119.867 133.545 119.888 133.616 119.929C133.689 119.97 133.744 120.016 133.782 120.069C133.821 120.12 133.851 120.162 133.872 120.195H133.897V119.256H134.189V121.801H133.907V121.508H133.872C133.851 121.542 133.82 121.586 133.781 121.639C133.741 121.692 133.685 121.738 133.611 121.78C133.538 121.82 133.44 121.841 133.318 121.841ZM133.358 121.577C133.475 121.577 133.574 121.547 133.655 121.485C133.735 121.423 133.797 121.337 133.839 121.228C133.881 121.118 133.902 120.991 133.902 120.847C133.902 120.704 133.881 120.579 133.84 120.472C133.799 120.365 133.738 120.281 133.657 120.221C133.576 120.161 133.477 120.131 133.358 120.131C133.234 120.131 133.131 120.163 133.049 120.226C132.968 120.289 132.906 120.375 132.865 120.484C132.825 120.591 132.804 120.712 132.804 120.847C132.804 120.982 132.825 121.106 132.866 121.217C132.908 121.327 132.97 121.415 133.052 121.48C133.134 121.545 133.236 121.577 133.358 121.577Z" fill="white"/>
<path d="M135.782 119.256H136.147L137.008 121.368H137.037L137.897 119.256H138.263V121.801H137.976V119.867H137.952L137.161 121.801H136.884L136.093 119.867H136.068V121.801H135.782V119.256Z" fill="white"/>
<path d="M139.609 121.841C139.438 121.841 139.288 121.8 139.158 121.718C139.03 121.636 138.929 121.521 138.857 121.373C138.785 121.226 138.749 121.054 138.749 120.856C138.749 120.658 138.785 120.484 138.857 120.336C138.929 120.187 139.03 120.072 139.158 119.99C139.288 119.908 139.438 119.867 139.609 119.867C139.781 119.867 139.931 119.908 140.059 119.99C140.188 120.072 140.289 120.187 140.361 120.336C140.433 120.484 140.469 120.658 140.469 120.856C140.469 121.054 140.433 121.226 140.361 121.373C140.289 121.521 140.188 121.636 140.059 121.718C139.931 121.8 139.781 121.841 139.609 121.841ZM139.609 121.577C139.739 121.577 139.847 121.544 139.931 121.477C140.015 121.409 140.077 121.321 140.117 121.212C140.158 121.103 140.178 120.984 140.178 120.856C140.178 120.729 140.158 120.61 140.117 120.5C140.077 120.39 140.015 120.301 139.931 120.233C139.847 120.165 139.739 120.131 139.609 120.131C139.479 120.131 139.372 120.165 139.288 120.233C139.204 120.301 139.142 120.39 139.101 120.5C139.061 120.61 139.041 120.729 139.041 120.856C139.041 120.984 139.061 121.103 139.101 121.212C139.142 121.321 139.204 121.409 139.288 121.477C139.372 121.544 139.479 121.577 139.609 121.577Z" fill="white"/>
<path d="M141.206 120.653V121.801H140.915V119.892H141.196V120.19H141.221C141.266 120.093 141.333 120.016 141.424 119.957C141.514 119.897 141.631 119.867 141.775 119.867C141.903 119.867 142.016 119.894 142.112 119.947C142.209 119.999 142.284 120.079 142.337 120.185C142.391 120.291 142.417 120.426 142.417 120.588V121.801H142.126V120.608C142.126 120.458 142.087 120.341 142.01 120.257C141.932 120.173 141.826 120.131 141.691 120.131C141.598 120.131 141.514 120.151 141.441 120.192C141.369 120.232 141.311 120.291 141.269 120.369C141.227 120.447 141.206 120.542 141.206 120.653Z" fill="white"/>
<path d="M143.746 121.841C143.563 121.841 143.406 121.8 143.273 121.719C143.141 121.637 143.039 121.523 142.968 121.376C142.897 121.228 142.861 121.057 142.861 120.861C142.861 120.666 142.897 120.494 142.968 120.344C143.039 120.195 143.139 120.078 143.267 119.994C143.395 119.91 143.545 119.867 143.717 119.867C143.815 119.867 143.913 119.884 144.01 119.917C144.106 119.95 144.194 120.004 144.273 120.079C144.352 120.152 144.415 120.25 144.462 120.372C144.509 120.494 144.532 120.644 144.532 120.822V120.946H143.069V120.692H144.236C144.236 120.585 144.214 120.489 144.171 120.404C144.129 120.32 144.069 120.253 143.991 120.204C143.914 120.155 143.822 120.131 143.717 120.131C143.6 120.131 143.5 120.16 143.415 120.218C143.331 120.275 143.266 120.349 143.221 120.441C143.176 120.533 143.153 120.632 143.153 120.737V120.906C143.153 121.05 143.178 121.173 143.227 121.273C143.277 121.372 143.347 121.448 143.436 121.5C143.525 121.552 143.628 121.577 143.746 121.577C143.823 121.577 143.892 121.566 143.954 121.545C144.017 121.523 144.07 121.489 144.116 121.446C144.161 121.401 144.196 121.345 144.221 121.279L144.503 121.359C144.473 121.455 144.423 121.539 144.353 121.612C144.283 121.684 144.197 121.74 144.094 121.781C143.991 121.821 143.875 121.841 143.746 121.841Z" fill="white"/>
<path d="M145.106 122.517C145.057 122.517 145.013 122.513 144.974 122.504C144.935 122.497 144.908 122.489 144.893 122.482L144.968 122.223C145.038 122.242 145.101 122.248 145.155 122.243C145.21 122.238 145.258 122.214 145.3 122.17C145.343 122.127 145.382 122.057 145.417 121.96L145.472 121.811L144.77 119.892H145.086L145.61 121.413H145.63L146.154 119.892H146.47L145.665 122.079C145.628 122.178 145.583 122.259 145.53 122.324C145.476 122.39 145.414 122.438 145.343 122.47C145.273 122.501 145.194 122.517 145.106 122.517Z" fill="white"/>
<path d="M154.546 110.984C154.546 111.033 141.352 111.075 125.08 111.075C108.802 111.075 95.6108 111.033 95.6108 110.984C95.6108 110.935 108.802 110.893 125.08 110.893C141.352 110.893 154.546 110.935 154.546 110.984Z" fill="#E0E0E0"/>
<path d="M55.6721 42.1374L55.4764 25.9791C55.2983 21.9606 57.4746 18.5076 61.4744 18.4374L61.8447 18.4514C65.5686 18.606 68.5484 21.6093 68.6951 25.3538C68.8313 28.8384 68.9361 32.6883 68.8383 34.55C68.6322 38.4035 64.7721 38.846 64.7721 38.846C64.7651 38.846 64.7477 41.1925 64.7512 42.3236L62.498 44.1959L55.6721 42.1374Z" fill="#FFBF9D" stroke="#263238" stroke-width="0.2" stroke-miterlimit="10"/>
<path d="M64.7712 38.8512C64.7712 38.8512 62.3468 38.8933 59.8386 37.1581C59.8386 37.1581 60.9215 40.1087 64.7607 39.919L64.7712 38.8512Z" fill="#263238" fill-opacity="0.1"/>
<path d="M67.4753 28.8109C67.4753 29.1025 67.2273 29.3413 66.9234 29.3449C66.6229 29.3484 66.3784 29.1165 66.3784 28.825C66.3784 28.5334 66.6264 28.2946 66.9304 28.291C67.2308 28.284 67.4753 28.5194 67.4753 28.8109Z" fill="#263238"/>
<path d="M67.8114 27.0312C67.7415 27.1014 67.3398 26.7747 66.7494 26.7501C66.1625 26.7185 65.7154 27.0066 65.656 26.9293C65.6246 26.8942 65.7014 26.7677 65.8935 26.6377C66.0857 26.5078 66.4071 26.3883 66.7738 26.4059C67.1406 26.4235 67.4446 26.571 67.6157 26.7185C67.7904 26.8661 67.8463 26.9995 67.8114 27.0312Z" fill="#263238"/>
<path d="M62.0891 28.676C62.0891 28.9676 61.8411 29.2065 61.5371 29.21C61.2367 29.2135 60.9922 28.9816 60.9922 28.6901C60.9922 28.3985 61.2402 28.1597 61.5441 28.1562C61.848 28.1527 62.0891 28.388 62.0891 28.676Z" fill="#263238"/>
<path d="M62.025 26.9276C61.9551 26.9979 61.5499 26.6712 60.963 26.6466C60.3761 26.615 59.929 26.9031 59.8696 26.8258C59.8382 26.7906 59.915 26.6642 60.1072 26.5342C60.2993 26.4042 60.6207 26.2848 60.9875 26.3024C61.3543 26.3199 61.6582 26.4675 61.8294 26.615C62.004 26.7661 62.0599 26.8995 62.025 26.9276Z" fill="#263238"/>
<path d="M63.9543 31.5725C63.9543 31.5374 64.3211 31.4917 64.9185 31.4391C65.0687 31.4285 65.2119 31.4039 65.2434 31.3021C65.2818 31.1932 65.2259 31.0281 65.163 30.8489C65.0372 30.4766 64.9045 30.0867 64.7648 29.6792C64.2128 28.0142 63.8216 26.6442 63.888 26.6232C63.9543 26.6021 64.4539 27.9334 65.0058 29.6019C65.1386 30.0129 65.2643 30.4028 65.3831 30.7787C65.432 30.9543 65.5228 31.151 65.4355 31.3758C65.3901 31.4882 65.2748 31.5655 65.1805 31.5866C65.0827 31.6112 64.9988 31.6112 64.922 31.6112C64.3246 31.6182 63.9543 31.6042 63.9543 31.5725Z" fill="#263238"/>
<path d="M62.2949 25.0812C62.2076 25.2288 61.6417 25.0461 60.9465 25.0039C60.2513 24.9442 59.6645 25.0426 59.6016 24.8845C59.5736 24.8072 59.6959 24.6773 59.9474 24.5649C60.1954 24.4525 60.5727 24.3717 60.9884 24.4033C61.4041 24.4349 61.7674 24.5684 61.998 24.7159C62.2285 24.8634 62.3333 25.011 62.2949 25.0812Z" fill="#263238"/>
<path d="M67.9091 25.2816C67.7834 25.4116 67.3083 25.2605 66.7284 25.2394C66.152 25.2008 65.6595 25.3027 65.5512 25.1586C65.5023 25.0884 65.5826 24.9549 65.8027 24.8355C66.0158 24.7125 66.3721 24.6212 66.7668 24.6388C67.1616 24.6598 67.5039 24.7898 67.6995 24.9338C67.9021 25.0778 67.965 25.2184 67.9091 25.2816Z" fill="#263238"/>
<path d="M55.6713 28.8501C55.6084 28.8184 53.0688 27.9578 53.0444 30.5959C53.0199 33.2339 55.6608 32.7175 55.6643 32.6402C55.6713 32.563 55.6713 28.8501 55.6713 28.8501Z" fill="#FFBF9D"/>
<path d="M54.8752 31.6347C54.8647 31.6277 54.8298 31.6663 54.7529 31.7014C54.6761 31.7366 54.5468 31.7576 54.4106 31.7049C54.1346 31.5996 53.9041 31.1535 53.8971 30.6792C53.8936 30.4404 53.946 30.2121 54.0298 30.0224C54.1102 29.8292 54.2359 29.6957 54.3757 29.6711C54.5154 29.6395 54.6132 29.7238 54.6446 29.8011C54.6796 29.8748 54.6621 29.9275 54.6761 29.931C54.6831 29.9381 54.732 29.8889 54.711 29.7765C54.7005 29.7238 54.6691 29.6606 54.6097 29.6114C54.5468 29.5587 54.456 29.5306 54.3582 29.5411C54.1556 29.5517 53.9704 29.7378 53.8761 29.9451C53.7713 30.1523 53.7049 30.4088 53.7119 30.6792C53.7224 31.2097 53.9914 31.712 54.3687 31.8244C54.5538 31.8736 54.7075 31.8209 54.7879 31.7576C54.8682 31.6979 54.8822 31.6382 54.8752 31.6347Z" fill="#263238"/>
<path d="M62.103 31.9257C62.1938 31.9187 62.1973 32.5264 62.7143 32.9549C63.2314 33.3835 63.8741 33.3132 63.8776 33.3975C63.8846 33.4362 63.7344 33.517 63.4654 33.524C63.1999 33.5345 62.8122 33.4502 62.4943 33.1868C62.1799 32.9233 62.0401 32.5721 62.0192 32.3227C61.9947 32.0733 62.0611 31.9222 62.103 31.9257Z" fill="#263238"/>
<path d="M73.994 21.8822C73.9556 21.7277 73.8438 21.5977 73.7075 21.5134C73.4071 21.3308 73.0613 21.3518 72.7259 21.3413C71.8945 21.3167 71.0701 21.0954 70.3295 20.7055C70.5915 20.5755 70.8326 20.4175 71.0422 20.2137C71.4718 19.7922 71.7233 19.1424 71.5347 18.5733C71.4998 18.4644 71.4404 18.352 71.3321 18.3169C71.1609 18.2607 71.0107 18.4293 70.8919 18.5628C70.4972 18.9983 70.1339 19.181 69.5505 19.1178C69.1872 19.0756 68.8379 18.9913 68.5549 18.8087C68.5444 18.7981 68.534 18.7841 68.5235 18.77C68.3872 18.626 68.258 18.489 68.1252 18.359C67.1471 17.3614 66.3087 16.6694 65.4354 16.3076C64.1604 15.7737 62.019 15.5383 60.6775 15.8756C59.3361 16.2128 58.1239 17.2877 57.9248 18.6646C57.1842 18.0183 56.0559 18.0113 55.1407 18.3696L55.1162 18.359C54.0962 18.7103 53.5058 19.7852 53.1949 20.8249C53.1774 20.8811 53.1634 20.9409 53.146 20.9971C52.7966 21.5415 52.3251 22.0052 51.7626 22.3248C51.6648 22.381 51.5495 22.4513 51.5356 22.5637C51.5216 22.6761 51.6159 22.771 51.7067 22.8377C51.9478 23.0168 52.2307 23.1363 52.5242 23.1925C52.4298 23.4384 52.3181 23.6772 52.1783 23.9056C52.0631 24.0987 51.9233 24.3306 52.0211 24.5378C52.098 24.6959 52.2936 24.7626 52.4683 24.7381C52.6429 24.7135 52.7966 24.6186 52.9434 24.5273C52.8281 24.7978 52.7093 25.0718 52.594 25.3422C52.9608 25.4125 53.3416 25.3844 53.7014 25.279C53.9075 26.2555 54.0472 28.0646 54.2918 28.7285C54.9869 28.7495 55.1581 28.6758 55.5074 28.7952C55.9616 28.9533 55.7764 29.7577 56.3703 29.5364C56.6742 29.424 57.1493 28.2788 57.2541 27.9732C57.9458 25.9324 58.1938 23.744 57.9737 21.6012C58.3999 21.1551 58.9134 20.7933 59.4723 20.5369L59.4339 20.579C60.5099 20.2172 61.729 19.8625 62.7421 20.3788C63.5281 20.7793 63.9822 21.6118 64.5656 22.2757C65.6695 23.5367 66.9305 24.2147 68.5968 24.306C68.7331 25.4722 68.7575 27.3796 68.8029 28.4685L69.7496 26.3012V26.3117C69.8265 26.1853 69.8894 26.0588 69.9488 25.9289L69.9697 25.8902V25.8832C70.0675 25.6759 70.1583 25.4722 70.2806 25.2685C70.2841 25.272 70.2876 25.2755 70.2911 25.279C70.871 25.8059 71.7443 25.0191 71.2902 24.3833C71.1994 24.2568 71.0911 24.1444 70.9688 24.0496C71.2343 24.306 71.6325 24.4325 71.9853 24.3271C72.3382 24.2217 72.6141 23.8669 72.5862 23.5016C72.5687 23.2487 72.3906 23.0239 72.167 22.922C72.6386 22.9642 73.1242 22.8658 73.5399 22.634C73.8123 22.4759 74.0813 22.223 73.994 21.8822Z" fill="#263238"/>
<path d="M59.1296 19.1211C59.1366 19.1316 58.9689 19.223 58.7419 19.4724C58.5183 19.7218 58.2633 20.1538 58.1375 20.7475C58.0746 21.0425 58.0327 21.3727 58.0292 21.7275C58.0222 22.0823 58.0467 22.4652 58.0711 22.8656C58.0921 23.2661 58.1166 23.6911 58.0851 24.1337C58.0711 24.355 58.0397 24.5763 57.9908 24.8011C57.9384 25.0189 57.879 25.2577 57.7113 25.4474C57.5786 25.5985 57.3585 25.6652 57.1664 25.6231C56.9742 25.5879 56.8066 25.4826 56.6808 25.3385C56.4363 25.047 56.3804 24.6782 56.321 24.3515L56.4013 24.362C56.2651 24.6536 56.1289 24.9381 55.9263 25.1664C55.7271 25.3947 55.4512 25.5458 55.1752 25.5669C55.0355 25.5774 54.8992 25.5528 54.7805 25.4931C54.6617 25.4334 54.5743 25.3315 54.515 25.2226C54.4591 25.1137 54.4311 24.9943 54.4381 24.8784C54.4451 24.7625 54.4905 24.6571 54.5639 24.5798L54.6058 24.6184C54.3054 24.9557 53.991 25.1348 53.7744 25.2332C53.6661 25.2823 53.5753 25.3104 53.5159 25.3315C53.4565 25.3491 53.425 25.3561 53.425 25.3526C53.425 25.3491 53.453 25.3385 53.5124 25.3175C53.5683 25.2929 53.6556 25.2613 53.7604 25.2086C53.97 25.1032 54.2774 24.9205 54.5639 24.5868L54.6058 24.6255C54.4765 24.7625 54.4661 25.0048 54.5743 25.198C54.6302 25.2964 54.7106 25.3842 54.8154 25.4369C54.9202 25.4896 55.0459 25.5107 55.1752 25.5001C55.4302 25.479 55.6852 25.3385 55.8739 25.1208C56.066 24.903 56.1987 24.6255 56.3315 24.3339L56.3874 24.211L56.4118 24.3445C56.4712 24.6676 56.5306 25.0224 56.7542 25.2859C56.866 25.4123 57.0197 25.5072 57.1873 25.5388C57.355 25.5739 57.5332 25.5212 57.6485 25.3877C57.7952 25.2261 57.8546 25.0013 57.907 24.7835C57.9559 24.5658 57.9838 24.348 58.0013 24.1302C58.0327 23.6981 58.0118 23.2766 57.9908 22.8726C57.9698 22.4722 57.9489 22.0893 57.9594 21.7275C57.9663 21.3657 58.0118 21.032 58.0816 20.7334C58.2144 20.1327 58.4834 19.6937 58.7209 19.4478C58.9515 19.2019 59.1296 19.1211 59.1296 19.1211Z" fill="#263238"/>
<path d="M70.9728 23.0181C70.9728 23.0181 70.9623 23.0286 70.9414 23.0427C70.9169 23.0602 70.882 23.0848 70.8435 23.1129C70.8016 23.1445 70.7457 23.1797 70.6794 23.2148C70.613 23.2534 70.5361 23.2991 70.4453 23.3342C70.0855 23.4993 69.5126 23.6644 68.7965 23.6117C68.0873 23.5626 67.242 23.3026 66.4874 22.723C65.7259 22.161 65.0621 21.3355 64.5207 20.3906C64.2482 19.9199 64.0246 19.4387 63.7766 18.9926C63.5321 18.5464 63.2631 18.1319 62.9312 17.8053C62.6063 17.4751 62.2256 17.2327 61.8308 17.1168C61.6352 17.0571 61.4361 17.0395 61.2475 17.043C61.0588 17.05 60.8772 17.0887 60.713 17.1414C60.3811 17.2503 60.1121 17.4294 59.906 17.6156C59.6999 17.8053 59.5602 18.0055 59.4659 18.1776C59.2877 18.5324 59.2737 18.7572 59.2598 18.7537C59.2598 18.7537 59.2598 18.7396 59.2633 18.7115C59.2702 18.6799 59.2737 18.6413 59.2842 18.5921C59.3052 18.4902 59.3506 18.3392 59.4344 18.1565C59.5253 17.9774 59.665 17.7701 59.8711 17.5734C60.0772 17.3802 60.3497 17.1906 60.692 17.0746C60.8632 17.0184 61.0483 16.9798 61.244 16.9693C61.4396 16.9657 61.6492 16.9798 61.8518 17.0395C62.2605 17.1554 62.6553 17.4048 62.9871 17.742C63.326 18.0757 63.6054 18.4938 63.85 18.9434C64.098 19.393 64.3216 19.8742 64.594 20.3414C65.1285 21.2758 65.7852 22.0943 66.5328 22.6528C67.2734 23.2253 68.1013 23.4888 68.7965 23.545C69.4986 23.6012 70.068 23.4537 70.4243 23.2991C70.7946 23.1481 70.9658 23.0075 70.9728 23.0181Z" fill="#263238"/>
<path d="M71.3393 21.3298C71.3428 21.3368 71.2939 21.3684 71.1996 21.4246C71.1087 21.4808 70.969 21.5546 70.7908 21.6284C70.6127 21.7057 70.3926 21.7759 70.1411 21.8356C69.8896 21.8883 69.6101 21.927 69.3132 21.9375C69.0163 21.941 68.7333 21.9164 68.4818 21.8708C68.2303 21.8216 68.0067 21.7619 67.825 21.6916C67.6434 21.6249 67.5002 21.5581 67.4058 21.5054C67.3115 21.4527 67.2591 21.4211 67.2626 21.4176C67.2696 21.4036 67.4827 21.516 67.8425 21.6319C68.0242 21.6916 68.2442 21.7478 68.4923 21.79C68.7403 21.8286 69.0163 21.8532 69.3062 21.8497C69.5961 21.8427 69.8721 21.8075 70.1166 21.7583C70.3612 21.7057 70.5813 21.6424 70.7594 21.5757C71.1262 21.4352 71.3323 21.3122 71.3393 21.3298Z" fill="#263238"/>
<path d="M53.9142 136.462L47.6751 141.51C47.6751 141.51 51.116 149.192 50.0541 150.239L39.4519 138.812L48.8524 130.547L53.9142 136.462Z" fill="#00C802"/>
<g opacity="0.6">
<g opacity="0.6">
<g opacity="0.6">
<g opacity="0.6">
<g opacity="0.6">
<g opacity="0.6">
<g opacity="0.6">
<g opacity="0.6">
<g opacity="0.6">
<g opacity="0.6">
<path opacity="0.6" d="M45.0415 137.411C44.783 137.235 44.3918 137.302 44.2066 137.555C44.0215 137.808 44.0843 138.208 44.3394 138.387C44.5944 138.567 45.066 138.503 45.2232 138.233C45.3769 137.962 45.2791 137.495 44.9891 137.383" fill="white"/>
</g>
</g>
</g>
</g>
</g>
</g>
</g>
</g>
</g>
</g>
<g opacity="0.6">
<g opacity="0.6">
<g opacity="0.6">
<g opacity="0.6">
<g opacity="0.6">
<g opacity="0.6">
<g opacity="0.6">
<g opacity="0.6">
<g opacity="0.6">
<path opacity="0.6" d="M39.4519 138.813L40.3986 137.98L50.2532 149.369C50.2532 149.369 50.4313 149.885 50.0226 150.37L39.4519 138.813Z" fill="white"/>
</g>
</g>
</g>
</g>
</g>
</g>
</g>
</g>
</g>
<path d="M47.8983 141.647C47.8389 141.696 47.5664 141.43 47.1368 141.307C46.7106 141.173 46.3368 141.243 46.3124 141.17C46.2774 141.106 46.6931 140.896 47.2101 141.054C47.7306 141.208 47.9647 141.616 47.8983 141.647Z" fill="#263238"/>
<path d="M48.4574 143.336C48.412 143.399 48.1011 143.234 47.6889 143.248C47.2767 143.252 46.9728 143.431 46.9239 143.371C46.868 143.326 47.1684 142.992 47.6819 142.985C48.1954 142.971 48.5098 143.287 48.4574 143.336Z" fill="#263238"/>
<path d="M47.5882 145.321C47.5323 145.279 47.7489 144.949 48.1891 144.826C48.6292 144.696 48.9891 144.861 48.9611 144.928C48.9436 145.001 48.6223 144.973 48.2624 145.082C47.8991 145.181 47.6441 145.374 47.5882 145.321Z" fill="#263238"/>
<path d="M49.1942 140.342C49.1209 140.363 48.9742 140.03 48.6702 139.724C48.3733 139.411 48.0449 139.253 48.0694 139.179C48.0834 139.109 48.5061 139.172 48.8589 139.541C49.2152 139.9 49.2641 140.332 49.1942 140.342Z" fill="#263238"/>
<g opacity="0.3">
<g opacity="0.3">
<g opacity="0.3">
<g opacity="0.3">
<g opacity="0.3">
<g opacity="0.3">
<g opacity="0.3">
<g opacity="0.3">
<g opacity="0.3">
<path opacity="0.3" d="M52.6777 137.463L51.5668 138.362L46.2395 132.851L47.5879 131.66L52.6777 137.463Z" fill="#263238"/>
</g>
</g>
</g>
</g>
</g>
</g>
</g>
</g>
</g>
<path d="M50.4354 139.297C50.411 139.318 50.1804 139.121 49.9289 138.703C49.8032 138.496 49.6809 138.229 49.5866 137.92C49.5412 137.765 49.4992 137.6 49.4748 137.425C49.4643 137.34 49.4433 137.246 49.4608 137.126C49.4643 137.01 49.5866 136.842 49.7438 136.835C49.887 136.817 50.0162 136.891 50.0931 136.972C50.1699 137.056 50.2154 137.144 50.2538 137.221C50.3341 137.379 50.397 137.541 50.4459 137.699C50.5367 138.015 50.5682 138.31 50.5577 138.556C50.5402 139.051 50.4075 139.329 50.3795 139.318C50.3376 139.308 50.404 139.02 50.3726 138.559C50.3551 138.331 50.3097 138.061 50.2154 137.776C50.1665 137.636 50.1036 137.488 50.0267 137.344C49.9534 137.189 49.8625 137.084 49.7787 137.098C49.7473 137.105 49.7368 137.112 49.7228 137.168C49.7123 137.225 49.7228 137.305 49.7333 137.386C49.7542 137.551 49.7857 137.706 49.8241 137.853C49.901 138.148 49.9988 138.405 50.0966 138.616C50.2922 139.034 50.4669 139.272 50.4354 139.297Z" fill="#263238"/>
<path d="M50.2876 139.3C50.2597 139.286 50.368 138.994 50.7208 138.65C50.8955 138.481 51.1365 138.306 51.4334 138.169C51.5837 138.102 51.7443 138.046 51.919 138.007C52.0937 137.975 52.3242 137.923 52.5408 138.126C52.6456 138.239 52.6386 138.414 52.5897 138.516C52.5443 138.625 52.4814 138.692 52.4255 138.766C52.3068 138.906 52.1705 139.022 52.0308 139.11C51.7478 139.289 51.4509 139.37 51.2064 139.387C50.7033 139.423 50.4274 139.24 50.4413 139.219C50.4553 139.173 50.7383 139.279 51.1819 139.201C51.402 139.163 51.657 139.075 51.8946 138.906C52.0133 138.822 52.1286 138.72 52.2264 138.601C52.3347 138.474 52.3941 138.337 52.3417 138.302C52.2928 138.242 52.1111 138.225 51.9714 138.263C51.8142 138.295 51.664 138.341 51.5278 138.393C51.2518 138.506 51.0212 138.65 50.8431 138.79C50.4868 139.075 50.3226 139.324 50.2876 139.3Z" fill="#263238"/>
<path d="M53.5414 137.5L54.1457 145.53C54.1457 145.53 46.2194 148.259 46.188 149.756L61.7262 149.721L61.293 137.17L53.5414 137.5Z" fill="#00C802"/>
<g opacity="0.6">
<g opacity="0.6">
<g opacity="0.6">
<g opacity="0.6">
<g opacity="0.6">
<g opacity="0.6">
<g opacity="0.6">
<g opacity="0.6">
<g opacity="0.6">
<g opacity="0.6">
<path opacity="0.6" d="M58.9169 144.669C59.2208 144.739 59.4409 145.069 59.385 145.379C59.3256 145.688 58.9937 145.916 58.6898 145.849C58.3859 145.783 58.1064 145.396 58.2008 145.094C58.2916 144.796 58.6968 144.546 58.9798 144.683" fill="white"/>
</g>
</g>
</g>
</g>
</g>
</g>
</g>
</g>
</g>
</g>
<g opacity="0.6">
<g opacity="0.6">
<g opacity="0.6">
<g opacity="0.6">
<g opacity="0.6">
<g opacity="0.6">
<g opacity="0.6">
<g opacity="0.6">
<g opacity="0.6">
<path opacity="0.6" d="M61.7264 149.714L61.6845 148.449L46.6807 149.008C46.6807 149.008 46.1847 149.229 46.1113 149.861L61.7264 149.714Z" fill="white"/>
</g>
</g>
</g>
</g>
</g>
</g>
</g>
</g>
</g>
<path d="M53.8911 145.465C53.8981 145.543 54.2753 145.56 54.6596 145.792C55.0474 146.013 55.2535 146.333 55.3233 146.301C55.3932 146.284 55.2605 145.834 54.7923 145.564C54.3277 145.29 53.8701 145.399 53.8911 145.465Z" fill="#263238"/>
<path d="M52.2905 146.207C52.2765 146.281 52.6084 146.397 52.8808 146.709C53.1603 147.015 53.2406 147.359 53.314 147.352C53.3874 147.363 53.4223 146.913 53.0765 146.53C52.7341 146.147 52.287 146.133 52.2905 146.207Z" fill="#263238"/>
<path d="M51.4418 148.189C51.5116 148.203 51.6024 147.816 51.3894 147.409C51.1798 146.998 50.8165 146.847 50.7885 146.914C50.7466 146.977 50.9876 147.191 51.1553 147.532C51.33 147.866 51.3649 148.185 51.4418 148.189Z" fill="#263238"/>
<path d="M53.9526 143.622C53.9876 143.689 54.3299 143.573 54.7596 143.584C55.1892 143.587 55.5281 143.717 55.5665 143.65C55.6084 143.594 55.2731 143.324 54.7666 143.317C54.26 143.306 53.9142 143.563 53.9526 143.622Z" fill="#263238"/>
<g opacity="0.3">
<g opacity="0.3">
<g opacity="0.3">
<g opacity="0.3">
<g opacity="0.3">
<g opacity="0.3">
<g opacity="0.3">
<g opacity="0.3">
<g opacity="0.3">
<path opacity="0.3" d="M53.8904 142.095L53.9952 143.525L61.5058 143.391L61.4534 141.863L53.8904 142.095Z" fill="#263238"/>
</g>
</g>
</g>
</g>
</g>
</g>
</g>
</g>
</g>
<path d="M53.8633 141.985C53.8633 142.016 54.1637 142.052 54.6423 141.95C54.8799 141.897 55.1558 141.809 55.4458 141.665C55.589 141.595 55.7392 141.507 55.8824 141.409C55.9523 141.36 56.0361 141.31 56.1095 141.216C56.1898 141.131 56.2318 140.927 56.127 140.808C56.0431 140.692 55.8999 140.646 55.7881 140.646C55.6728 140.646 55.582 140.675 55.4982 140.699C55.327 140.748 55.1663 140.812 55.0231 140.885C54.7331 141.033 54.4991 141.216 54.3244 141.388C53.9786 141.739 53.8668 142.027 53.8913 142.041C53.9262 142.066 54.0939 141.82 54.4467 141.528C54.6248 141.384 54.8519 141.233 55.1244 141.107C55.2606 141.047 55.4073 140.991 55.5645 140.952C55.7287 140.903 55.8685 140.896 55.9139 140.966C55.9313 140.994 55.9313 141.005 55.8999 141.054C55.865 141.1 55.8021 141.145 55.7322 141.194C55.5995 141.289 55.4632 141.374 55.3305 141.447C55.065 141.595 54.81 141.697 54.5899 141.767C54.1533 141.911 53.8598 141.946 53.8633 141.985Z" fill="#263238"/>
<path d="M53.9643 142.092C53.9922 142.103 54.132 141.825 54.1389 141.33C54.1424 141.084 54.104 140.789 53.9992 140.48C53.9468 140.325 53.8735 140.167 53.7826 140.013C53.6848 139.862 53.566 139.661 53.2726 139.637C53.1189 139.637 52.9966 139.763 52.9582 139.869C52.9093 139.977 52.9058 140.069 52.8883 140.16C52.8674 140.343 52.8779 140.522 52.9093 140.687C52.9722 141.017 53.1189 141.288 53.2726 141.481C53.5905 141.874 53.9119 141.952 53.9189 141.927C53.9433 141.888 53.6708 141.751 53.4263 141.372C53.304 141.186 53.1923 140.936 53.1503 140.648C53.1294 140.504 53.1259 140.35 53.1469 140.195C53.1643 140.027 53.2202 139.893 53.2831 139.907C53.3599 139.904 53.4962 140.023 53.566 140.153C53.6499 140.29 53.7198 140.431 53.7756 140.568C53.8839 140.845 53.9363 141.116 53.9573 141.34C53.9922 141.793 53.9224 142.082 53.9643 142.092Z" fill="#263238"/>
<path d="M47.7593 79.6875C47.7593 79.6875 49.443 103.732 50.0998 109.247C50.5155 112.752 52.5276 142.227 52.5276 142.227L62.6652 141.911L61.0303 95.2311V80.9099L47.7593 79.6875Z" fill="#263238"/>
<path d="M46.3967 131.146L53.1074 137.986C53.1074 137.986 73.4279 118.076 74.2523 116.583C75.0767 115.09 74.8287 96.6764 74.8287 96.6764L74.2348 80.1738L59.7272 80.9185L61.1594 97.3368L63.0912 112.441L46.3967 131.146Z" fill="#263238"/>
<path d="M64.8309 126.387C64.8309 126.387 64.7646 126.464 64.6248 126.608C64.4816 126.756 64.272 126.963 64.0065 127.237C63.4546 127.789 62.6581 128.59 61.6416 129.605C59.591 131.642 56.6706 134.551 53.1598 138.039L53.1109 138.088L53.062 138.039C51.0219 135.963 48.7548 133.658 46.3444 131.207L46.292 131.154L46.3409 131.098C48.0561 129.173 49.8796 127.128 51.7555 125.024C55.8846 120.405 59.7552 116.07 63.0424 112.393L63.0249 112.449C62.4206 107.296 61.914 102.996 61.5577 99.9788C61.3865 98.4789 61.2503 97.2952 61.1595 96.4802C61.1176 96.0798 61.0826 95.7742 61.0582 95.5564C61.0477 95.4545 61.0407 95.3772 61.0337 95.321C61.0302 95.2683 61.0267 95.2402 61.0302 95.2402C61.0337 95.2402 61.0372 95.2683 61.0442 95.321C61.0512 95.3807 61.0652 95.458 61.0791 95.5564C61.1071 95.7706 61.149 96.0798 61.2014 96.4767C61.3027 97.2881 61.4529 98.4719 61.6416 99.9718C62.0118 102.989 62.5358 107.285 63.1681 112.435L63.1716 112.466L63.1507 112.491C59.867 116.176 56.0034 120.514 51.8813 125.137C50.0054 127.241 48.1784 129.282 46.4632 131.207L46.4597 131.094C48.8666 133.553 51.1267 135.864 53.1633 137.94H53.062C56.5902 134.466 59.5281 131.575 61.5857 129.549C62.6127 128.544 63.4231 127.754 63.9786 127.209C64.2511 126.946 64.4641 126.738 64.6109 126.598C64.7541 126.454 64.8309 126.387 64.8309 126.387Z" fill="#00C802"/>
<path d="M66.2738 113.872C66.2529 113.914 65.5927 113.626 64.7962 113.232C63.9997 112.839 63.3709 112.484 63.3919 112.446C63.4128 112.403 64.0731 112.691 64.8695 113.085C65.666 113.478 66.2948 113.829 66.2738 113.872Z" fill="#00C802"/>
<path d="M62.2706 94.4322C62.2706 94.4462 62.0505 94.4673 61.6593 94.4919C61.2331 94.513 60.6811 94.5446 60.0279 94.5797L59.958 94.5832V94.5095C59.958 93.6594 59.9545 92.6232 59.9301 91.5061C59.9021 90.0519 59.8462 88.7381 59.8043 87.7862C59.7834 87.3366 59.7694 86.9572 59.7554 86.6586C59.7449 86.3917 59.7449 86.2441 59.7554 86.2441C59.7659 86.2441 59.7869 86.3882 59.8183 86.6551C59.8462 86.9221 59.8812 87.305 59.9196 87.7792C59.993 88.7311 60.0663 90.0484 60.0943 91.5026C60.1152 92.6232 60.1117 93.6629 60.0908 94.513L60.0209 94.4427C60.6742 94.4322 61.2261 94.4217 61.6558 94.4146C62.047 94.4111 62.2706 94.4181 62.2706 94.4322Z" fill="#00C802"/>
<path d="M61.5651 86.7933C61.5651 86.7863 61.621 86.7617 61.7258 86.7757C61.8306 86.7863 61.9843 86.8425 62.1241 86.976C62.2568 87.1095 62.3861 87.3308 62.3651 87.6012C62.3476 87.8752 62.1171 88.1281 61.8306 88.2159C61.5477 88.3073 61.2123 88.2335 61.0411 88.0192C60.8665 87.8085 60.849 87.5556 60.8839 87.3694C60.9223 87.1797 61.0167 87.0462 61.097 86.976C61.1774 86.9057 61.2367 86.8917 61.2402 86.8987C61.2612 86.9198 61.0411 87.0427 61.0027 87.387C60.9852 87.5485 61.0202 87.7628 61.1599 87.9174C61.2961 88.0754 61.5511 88.1316 61.7852 88.0579C62.0193 87.9841 62.1974 87.7909 62.2184 87.5837C62.2463 87.3764 62.152 87.1832 62.0437 87.0568C61.8097 86.7968 61.5581 86.8249 61.5651 86.7933Z" fill="#00C802"/>
<path d="M95.9143 60.7691L95.9144 60.7691C96.3264 60.5681 96.767 60.3637 97.1042 60.2098C97.2729 60.1328 97.4159 60.0683 97.5168 60.0231L97.6344 59.9705L97.6657 59.9566L97.6729 59.9534L98.4798 59.5442L98.6604 59.4526L98.6954 59.652C98.7087 59.7274 98.7082 59.803 98.7045 59.8672C98.7009 59.9904 98.7021 60.0713 98.7332 60.1322C98.7599 60.1826 98.8109 60.2218 98.8894 60.245C98.9689 60.2686 99.0652 60.2717 99.1559 60.257C99.5562 60.192 99.9133 59.8956 100.052 59.5145L95.9143 60.7691ZM95.9143 60.7691C95.6504 60.8979 95.2825 60.9328 94.8854 60.9096C94.4924 60.8866 94.0901 60.808 93.7709 60.7269L93.72 60.714L93.6722 60.7356L92.0655 61.4612L90.6152 57.7911L92.9796 57.0996L93.0031 57.0927L93.0232 57.0787L95.0352 55.6762M95.9143 60.7691L95.0352 55.6762M95.0352 55.6762L95.045 55.6702L95.0847 55.6459L95.2354 55.5534C95.3655 55.4736 95.5519 55.3592 95.7767 55.2208C96.2265 54.9441 96.8306 54.5717 97.4478 54.1887C98.0649 53.8057 98.6956 53.4119 99.1983 53.0928C99.6959 52.7768 100.08 52.5268 100.193 52.4358L100.193 52.4355C100.417 52.2544 100.577 52.2145 100.68 52.221C100.779 52.2272 100.849 52.2788 100.895 52.3421C100.961 52.4371 100.974 52.5732 100.913 52.7414C100.853 52.9096 100.723 53.0926 100.536 53.2514L100.536 53.2517C100.469 53.3089 99.8667 53.7853 99.2757 54.2517C98.9814 54.4839 98.6915 54.7124 98.4752 54.8829L98.2145 55.0883L98.1417 55.1455L98.1226 55.1606L98.1177 55.1644L98.1165 55.1654L98.1162 55.1657L98.1161 55.1657L98.2088 55.2836L98.1161 55.1657L98.2357 55.4309L98.2358 55.4312L98.2358 55.4312L98.237 55.431L98.2447 55.4297C98.2522 55.4286 98.2641 55.4268 98.281 55.4246C98.3146 55.4203 98.3677 55.4143 98.4426 55.4081C98.5924 55.3957 98.8296 55.3827 99.1737 55.3809L99.1745 55.3809C99.4796 55.3778 99.8425 55.5085 100.212 55.7503C100.58 55.9907 100.942 56.333 101.243 56.7333C101.557 57.1514 101.721 57.4094 101.776 57.5872C101.802 57.6706 101.799 57.7231 101.787 57.7611C101.774 57.8002 101.745 57.8438 101.68 57.8972L101.679 57.898C101.602 57.9629 101.498 57.9773 101.37 57.9533L101.368 57.953C101.165 57.918 100.98 57.7974 100.85 57.6269L100.85 57.6261C100.324 56.9466 99.8014 56.6506 99.3996 56.5285C99.1996 56.4677 99.0322 56.4508 98.9125 56.4496C98.8527 56.4489 98.8048 56.4522 98.7708 56.4559C98.7538 56.4578 98.7403 56.4597 98.7304 56.4613L98.7184 56.4634L98.7145 56.4642L98.7131 56.4645L98.7125 56.4646L98.7122 56.4647C98.7121 56.4647 98.712 56.4647 98.7433 56.6114L98.712 56.4647L98.6824 56.471L98.6575 56.4884L98.3955 56.671L98.1355 56.8523L95.0352 55.6762ZM98.4405 56.9384L98.4405 56.9384L98.4406 56.9384L98.4408 56.9385L98.4427 56.939L98.4513 56.9416C98.4592 56.944 98.4712 56.9477 98.4867 56.9528C98.5178 56.9629 98.5631 56.9784 98.6186 56.9996C98.7299 57.0421 98.8805 57.1068 99.0385 57.1954C99.3604 57.376 99.6836 57.6397 99.7986 57.9919C99.8343 58.1058 99.8432 58.2101 99.8372 58.3095L99.8337 58.3667L99.8693 58.4117C100.11 58.7159 100.184 59.1497 100.052 59.5143L98.4405 56.9384Z" fill="white" stroke="#263238" stroke-width="0.3"/>
<path d="M93.3918 57.2023C93.5176 57.4904 93.8879 57.5958 94.2023 57.5536C94.5167 57.515 94.8066 57.3674 95.1175 57.3042C96.0433 57.118 97.0109 57.6801 97.9261 57.4482C98.0554 57.4166 98.2021 57.3358 98.1951 57.2058C98.1916 57.0829 98.0589 57.0126 97.9471 56.967C96.983 56.5736 96.0153 56.1766 95.0512 55.7832" fill="white"/>
<path d="M95.0473 55.7753C95.0508 55.7647 95.1696 55.7999 95.3722 55.8701C95.5783 55.9439 95.8718 56.0528 96.2386 56.1933C96.6158 56.3408 97.0455 56.5094 97.5136 56.6921C97.6324 56.7413 97.7547 56.7904 97.8804 56.8396C97.9922 56.8958 98.1669 56.9169 98.2647 57.1101C98.3101 57.2085 98.2647 57.3349 98.1948 57.3981C98.1249 57.4614 98.0481 57.4965 97.9712 57.5211C97.821 57.5597 97.6708 57.5808 97.5136 57.5843C96.8918 57.5984 96.3434 57.4087 95.8438 57.3595C95.5923 57.3314 95.3548 57.3279 95.1382 57.37C94.9216 57.4087 94.7225 57.486 94.5303 57.5386C94.1496 57.6616 93.7863 57.6054 93.6011 57.4719C93.4055 57.3384 93.388 57.1944 93.395 57.1944C93.409 57.1839 93.4509 57.3103 93.6361 57.4122C93.8177 57.5141 94.1321 57.5492 94.4954 57.4192C94.6771 57.363 94.8762 57.2787 95.1102 57.226C95.3443 57.1768 95.5993 57.1733 95.8613 57.1979C96.3853 57.2436 96.9337 57.4227 97.5101 57.4087C97.6533 57.4052 97.7931 57.3841 97.9223 57.3525C98.0481 57.3173 98.1389 57.2366 98.104 57.1768C98.076 57.1031 97.9433 57.0504 97.821 57.0012C97.6953 56.9485 97.5765 56.8993 97.4577 56.8502C96.9966 56.6535 96.5704 56.4743 96.1966 56.3162C95.8403 56.1617 95.5504 56.0317 95.3548 55.9404C95.1521 55.842 95.0439 55.7858 95.0473 55.7753Z" fill="#263238"/>
<path d="M98.1738 57.6086C98.1703 57.6156 98.2297 57.6437 98.331 57.6999C98.4253 57.7526 98.586 57.8474 98.6279 58.0336C98.6489 58.1249 98.614 58.2233 98.5336 58.3006C98.4568 58.3813 98.3415 58.4411 98.2227 58.5148C98.1074 58.5851 97.9642 58.6834 97.9118 58.852C97.8629 59.0171 97.9013 59.1998 98.0096 59.3403C98.1179 59.4843 98.2891 59.5546 98.4498 59.5721C98.6105 59.5862 98.7677 59.5581 98.9004 59.4878C99.1484 59.3438 99.3301 59.1682 99.4733 59.0136C99.6165 58.8556 99.7109 58.7115 99.7528 58.5991C99.7982 58.4867 99.7947 58.42 99.7877 58.42C99.7772 58.42 99.7633 58.4797 99.7109 58.5816C99.655 58.6799 99.5572 58.8134 99.4104 58.9574C99.2637 59.0979 99.0751 59.2665 98.8445 59.393C98.6279 59.5054 98.2751 59.4984 98.097 59.2701C98.0096 59.1576 97.9782 59.0066 98.0166 58.8837C98.055 58.7607 98.1633 58.6729 98.2786 58.6026C98.3904 58.5289 98.5127 58.4621 98.6035 58.3638C98.6978 58.2725 98.7432 58.1249 98.7083 58.0125C98.6419 57.7842 98.4533 57.6999 98.352 57.6542C98.2402 57.6156 98.1773 57.6015 98.1738 57.6086Z" fill="#263238" stroke="#263238" stroke-width="0.2"/>
<path d="M95.8898 59.212C95.8968 59.2049 95.8479 59.1101 95.7117 58.9977C95.5789 58.8853 95.3449 58.7623 95.048 58.7553L95.0864 58.8501C95.1737 58.7658 95.2645 58.6675 95.3484 58.5586C95.827 57.9614 95.9492 57.3362 95.9213 57.3362C95.8898 57.3221 95.7222 57.9123 95.261 58.4883C95.1772 58.5937 95.0934 58.6886 95.0095 58.7729L94.9187 58.8677H95.048C95.3134 58.8677 95.5335 58.9661 95.6733 59.0539C95.8095 59.1452 95.8759 59.2225 95.8898 59.212Z" fill="#263238"/>
<path d="M73.2565 43.0898C73.2565 43.0898 74.818 44.5019 75.597 46.599C76.1664 48.1341 79.6143 59.8664 79.6143 59.8664L91.6208 57.2951L93.6155 62.8733C93.6155 62.8733 80.1138 68.2652 78.1262 68.3144C75.4782 68.3776 73.2914 66.5475 73.2565 63.7268C73.2216 60.9097 73.2565 43.0898 73.2565 43.0898Z" fill="#00C802"/>
<path d="M55.8362 40C55.8362 40 58.4581 42.9025 65.3201 40.5875L69.6575 47.0152L74.1165 83.6112L59.4999 86L48.1165 84.1706L51.7454 47.0152L55.8362 40Z" fill="#455A64"/>
<path d="M56.3664 40.5364C56.9288 41.7728 58.2807 44.6813 58.2807 44.6813C58.2807 44.6813 54.8678 67.4575 54.508 71.0615C54.1132 75.0274 56.555 89.0711 56.555 89.0711L44.5835 87.1883L47.951 50.0487L46.3162 42.8828C46.3162 42.8828 49.2296 41.6745 52.129 41.0597L54.6407 40.7014L55.2031 39.4474L55.6293 38.6992L56.3664 40.5364Z" fill="#00C802"/>
<g opacity="0.3">
<g opacity="0.3">
<g opacity="0.3">
<path opacity="0.3" d="M56.9915 68.315C55.5278 68.2834 51.2625 69.5199 49.8093 69.678C48.3037 69.8396 47.2976 70.0363 46.0645 70.925L45.8828 72.8675C46.7317 73.289 47.6923 73.3909 48.6285 73.549C49.5648 73.7105 50.5953 73.5665 51.3184 72.9553C51.7166 72.6216 52.0066 72.1579 52.4502 71.8875C52.8589 71.6381 53.2991 71.2376 53.7672 71.3289C57.2919 72.0174 58.1897 68.9579 56.9915 68.315Z" fill="#263238"/>
</g>
</g>
</g>
<path d="M54.9275 40.9493C54.938 40.9458 54.9764 41.0652 55.0393 41.283C55.0987 41.5008 55.1825 41.8134 55.2804 42.2068C55.4795 42.9866 55.7415 44.0686 56.0209 45.2664C56.1222 45.7055 56.22 46.127 56.3109 46.5169H56.1572C56.2655 46.0638 56.4331 45.6598 56.6183 45.3191C56.8069 44.9854 56.9851 44.6833 57.2296 44.5041C57.3484 44.4198 57.4881 44.3742 57.6069 44.3882C57.7257 44.3987 57.82 44.4409 57.8829 44.4936C58.0121 44.606 57.9981 44.7114 57.9911 44.7079C57.9772 44.7149 57.9702 44.6165 57.8479 44.5357C57.7326 44.4549 57.4916 44.4093 57.2855 44.5849C57.0794 44.75 56.9117 45.0521 56.7371 45.3823C56.5659 45.7195 56.4122 46.1129 56.3109 46.5555L56.234 46.8857L56.1572 46.5555C56.0629 46.1621 55.965 45.7441 55.8602 45.305C55.5808 44.1072 55.3362 43.0218 55.1686 42.2349C55.0847 41.8415 55.0184 41.5219 54.9764 41.3006C54.9345 41.0758 54.9171 40.9528 54.9275 40.9493Z" fill="#263238"/>
<path d="M47.6366 71.6738L50.6687 72.5625C50.6687 72.5625 51.6504 74.8704 51.8285 77.5295C52.0067 80.1886 50.8469 99.4451 50.8469 99.4451L41.125 99.0236L40.8316 98.1348C40.6814 97.6817 40.622 97.2005 40.6569 96.7263C40.9015 93.5613 41.3346 82.5772 43.6961 76.1876C44.8245 73.1351 47.6366 71.6738 47.6366 71.6738Z" fill="#455A64"/>
<path d="M51.0355 41.1234C51.0355 41.1234 51.9578 42.8727 51.8495 46.7296C51.7412 50.5866 46.4209 77.4199 46.4209 77.4199L49.8094 77.7185C49.8094 77.7185 53.2573 55.4305 53.4354 53.1859C53.6136 50.9448 54.8642 42.7673 53.4354 40.9794C53.4354 40.9829 52.0242 40.3576 51.0355 41.1234Z" fill="#455A64"/>
<path d="M45.1919 73.6953C45.1919 73.6953 41.6252 78.1634 40.4375 86.5904L42.013 86.9311L45.1919 73.6953Z" fill="#455A64"/>
<path d="M47.2595 75.623C47.2665 75.623 47.2595 75.6793 47.2455 75.7881C47.2246 75.9146 47.2036 76.0656 47.1722 76.2518C47.1093 76.6558 47.015 77.2354 46.9172 77.959C46.7076 79.3992 46.5154 81.4084 46.1067 83.6003C46.0019 84.1483 45.8936 84.6787 45.7679 85.1951C45.6351 85.7044 45.4605 86.2032 45.1496 86.5967C44.8491 87.0006 44.3671 87.2289 43.9234 87.2254C43.4798 87.2289 43.092 87.1376 42.7357 87.0849C42.0161 86.962 41.4536 86.7899 41.0554 86.7196C40.8738 86.6845 40.72 86.6529 40.5978 86.6283C40.493 86.6072 40.4371 86.5931 40.4406 86.5861C40.4406 86.5791 40.4965 86.5826 40.6048 86.5932C40.7096 86.6037 40.8668 86.6248 41.0694 86.6529C41.4746 86.7056 42.044 86.8566 42.7566 86.9655C43.113 87.0112 43.5077 87.0955 43.9234 87.0849C44.3356 87.0814 44.7548 86.8742 45.0343 86.4983C45.3172 86.1295 45.4884 85.6482 45.6142 85.1494C45.7364 84.6436 45.8412 84.1097 45.9495 83.5652C46.3582 81.3838 46.5678 79.3781 46.8089 77.9379C46.9207 77.2178 47.0359 76.6382 47.1163 76.2378C47.1582 76.0551 47.1931 75.9041 47.2211 75.7776C47.2351 75.6757 47.2525 75.623 47.2595 75.623Z" fill="#263238"/>
<path d="M50.7389 72.7412C50.7494 72.7412 50.7389 72.9309 50.711 73.2681C50.676 73.6334 50.6306 74.1182 50.5747 74.6978C50.5433 75.0034 50.5084 75.3335 50.4734 75.6848C50.4315 76.0396 50.4106 76.419 50.3127 76.8229C50.2219 77.2234 49.9984 77.6379 49.6281 77.9083C49.2683 78.1823 48.7652 78.3193 48.2901 78.1999C47.8185 78.084 47.4133 77.7503 47.2352 77.3217C47.057 76.8897 47.0849 76.44 47.1199 76.0431C47.2002 75.2422 47.312 74.5256 47.4238 73.9285C47.5356 73.3313 47.6509 72.8536 47.7347 72.5234C47.822 72.1932 47.8779 72.0176 47.8884 72.0176C47.8989 72.0211 47.8639 72.2037 47.7976 72.5375C47.7312 72.8712 47.6369 73.3524 47.5391 73.9496C47.4413 74.5467 47.3434 75.2633 47.2701 76.0572C47.2386 76.4506 47.2212 76.8756 47.3819 77.2585C47.5391 77.6379 47.9024 77.9364 48.3286 78.0383C48.7512 78.1472 49.2019 78.0278 49.5337 77.7784C49.8726 77.5325 50.0787 77.1672 50.1695 76.7878C50.2673 76.4084 50.2918 76.0255 50.3407 75.6743C50.3861 75.323 50.4245 74.9928 50.463 74.6907C50.5398 74.1111 50.6027 73.6299 50.6516 73.2646C50.697 72.9238 50.7285 72.7412 50.7389 72.7412Z" fill="#263238"/>
<path d="M50.8718 99.466C50.8614 99.473 50.7391 99.3466 50.5155 99.1147C50.2919 98.8829 49.9706 98.5492 49.5584 98.1488C49.1496 97.7483 48.6501 97.2776 48.0807 96.7788C47.7942 96.5294 47.4903 96.273 47.1724 96.0131C46.8545 95.7601 46.5052 95.5037 46.1 95.4089C45.8974 95.3632 45.6948 95.3702 45.5061 95.437C45.3175 95.5037 45.1498 95.6196 44.9926 95.7461C44.6817 96.0166 44.3813 96.2765 44.0948 96.5259C43.5254 97.0177 43.0084 97.4603 42.5648 97.8431C42.1421 98.1979 41.7927 98.493 41.5238 98.7213C41.2757 98.925 41.136 99.0339 41.1255 99.0269C41.1185 99.0199 41.2443 98.8934 41.4783 98.6721C41.7368 98.4368 42.0757 98.1277 42.4844 97.7553C42.9211 97.3654 43.4311 96.9123 43.9935 96.4135C44.28 96.1606 44.5804 95.8971 44.8913 95.6232C45.052 95.4897 45.2336 95.3597 45.4502 95.2824C45.6668 95.2051 45.9079 95.1981 46.1349 95.2508C46.589 95.3597 46.9489 95.6302 47.2737 95.8901C47.5951 96.1536 47.8955 96.4135 48.182 96.6699C48.7514 97.1793 49.2405 97.657 49.6422 98.0715C50.0439 98.486 50.3548 98.8337 50.5644 99.0796C50.774 99.3185 50.8823 99.459 50.8718 99.466Z" fill="#263238"/>
<path d="M48.1327 78.3477C48.1781 78.3547 47.6925 82.1378 47.0463 86.7992C46.4 91.464 45.8411 95.2366 45.7957 95.2296C45.7503 95.2226 46.2358 91.4394 46.8821 86.7746C47.5248 82.1168 48.0873 78.3406 48.1327 78.3477Z" fill="#263238"/>
<path d="M49.5961 76.5104C49.5821 76.5104 49.5786 76.4331 49.5367 76.3032C49.4948 76.1767 49.404 75.9905 49.2118 75.8535C49.0267 75.713 48.7263 75.6393 48.4398 75.7517C48.1569 75.8535 47.9123 76.1592 47.9158 76.5139C47.9123 76.8687 48.1569 77.1743 48.4398 77.2762C48.7263 77.3851 49.0267 77.3113 49.2118 77.1743C49.404 77.0373 49.4948 76.8511 49.5367 76.7247C49.5786 76.5877 49.5821 76.5104 49.5961 76.5104C49.6031 76.5104 49.624 76.5912 49.5996 76.7352C49.5751 76.8757 49.4913 77.09 49.2817 77.2621C49.0791 77.4343 48.7298 77.5396 48.3839 77.4167C48.0416 77.3043 47.7412 76.939 47.7447 76.5104C47.7412 76.0819 48.0416 75.7166 48.3839 75.6041C48.7298 75.4812 49.0791 75.5866 49.2817 75.7587C49.4913 75.9308 49.5751 76.1451 49.5996 76.2856C49.624 76.4296 49.6031 76.5104 49.5961 76.5104Z" fill="white"/>
<path d="M75.4782 89.0715C75.4782 89.0715 74.2975 70.9215 74.3848 70.6862C74.4722 70.4543 74.1822 59.2489 74.3848 59.0732C74.5874 58.8976 73.2565 43.087 73.2565 43.087L66.3293 40.9338L66.4201 40.9478L64.8342 39.2617C64.8342 39.2617 62.8465 45.7496 62.9233 45.8269C65.8193 48.7284 69.6444 68.2448 66.7205 81.4244C66.7205 81.6598 66.3502 89.0715 66.3502 89.0715H75.4782Z" fill="#00C802"/>
<path d="M74.0779 60.0961C74.0814 60.1031 74.001 60.1664 73.8438 60.2788C73.6692 60.4017 73.4351 60.5668 73.1452 60.7741L73.1277 60.7881L73.1067 60.7776C72.2614 60.3666 70.9793 59.7413 69.4283 58.9861L69.3899 58.9685L69.3864 58.9264C69.2956 57.725 69.1942 56.3621 69.086 54.9254C68.9916 53.5766 68.9008 52.2944 68.817 51.1423L68.8135 51.0755L68.8764 51.0615C70.4728 50.7208 71.8736 50.8859 72.8098 51.0896C73.2814 51.1915 73.6482 51.3109 73.8927 51.3987C74.1373 51.49 74.263 51.5533 74.2595 51.5603C74.256 51.5673 74.1268 51.5181 73.8753 51.4444C73.6272 51.3706 73.2604 51.2687 72.7923 51.1774C71.8596 51.0018 70.4763 50.8613 68.9113 51.209L68.9707 51.1282C69.058 52.2804 69.1523 53.559 69.2536 54.9114C69.3549 56.3516 69.4527 57.711 69.5366 58.9123L69.4947 58.8526C71.0317 59.6324 72.3033 60.2823 73.1417 60.7073L73.1032 60.7108C73.4002 60.5176 73.6412 60.3666 73.8229 60.2472C73.987 60.1418 74.0744 60.0891 74.0779 60.0961Z" fill="#263238"/>
<path d="M74.1892 48.6992C74.1997 48.6992 74.2171 48.8678 74.2381 49.1734C74.259 49.479 74.28 49.9216 74.301 50.4696C74.3394 51.5656 74.3499 53.0795 74.3394 54.7516C74.3289 56.4236 74.3219 57.9341 74.3289 59.03C74.3324 59.5534 74.3359 59.989 74.3394 60.3262C74.3394 60.6318 74.3359 60.8004 74.3254 60.8039C74.3149 60.8039 74.2975 60.6353 74.2765 60.3297C74.2556 60.0241 74.2346 59.5815 74.2136 59.0335C74.1752 57.9376 74.1647 56.4236 74.1752 54.7516C74.1857 53.0795 74.1927 51.5691 74.1857 50.4731C74.1822 49.9497 74.1787 49.5142 74.1752 49.1769C74.1752 48.8678 74.1787 48.6992 74.1892 48.6992Z" fill="#263238"/>
<path d="M66.42 40.9492C66.4305 40.9492 66.4235 41.1038 66.3991 41.3848C66.3746 41.6623 66.3327 42.0662 66.2768 42.5615C66.165 43.5521 65.9939 44.9221 65.7598 46.429C65.676 46.9735 65.5886 47.4969 65.5013 47.9781L65.4594 48.2099L65.3511 48.0027C65.0926 47.4969 64.8236 47.0402 64.5651 46.6433C64.4359 46.443 64.3101 46.2604 64.1878 46.0918C64.0691 45.9232 63.9538 45.7686 63.8245 45.6667C63.6953 45.5614 63.552 45.5052 63.4298 45.5192C63.304 45.5333 63.2027 45.593 63.1398 45.6527C63.0141 45.7862 63.056 45.9091 63.0385 45.9056C63.0385 45.9161 62.9652 45.7862 63.0979 45.6141C63.1643 45.5368 63.2726 45.4595 63.4158 45.4384C63.566 45.4138 63.7372 45.4735 63.8839 45.586C64.0306 45.6948 64.1564 45.8529 64.2821 46.0215C64.4079 46.1901 64.5406 46.3728 64.6734 46.5695C64.9424 46.9664 65.2218 47.4231 65.4873 47.9324L65.3371 47.9535C65.4175 47.4688 65.5013 46.9489 65.5886 46.4079C65.8227 44.9045 66.0113 43.5381 66.1546 42.551C66.2244 42.0838 66.2838 41.6904 66.3292 41.3813C66.3816 41.1003 66.4096 40.9492 66.42 40.9492Z" fill="#263238"/>
<path d="M74.2036 52.9646C74.1966 52.9892 73.9102 52.94 73.4456 52.8768C72.981 52.8101 72.3382 52.7328 71.6221 52.6942C70.9095 52.6555 70.2597 52.659 69.7916 52.6731C69.3235 52.6871 69.0301 52.7012 69.0301 52.6766C69.0266 52.6555 69.3165 52.5993 69.7846 52.5572C70.2562 52.515 70.9095 52.4904 71.6326 52.5291C72.3522 52.5712 73.0019 52.6661 73.4665 52.7609C73.9312 52.8557 74.2106 52.9436 74.2036 52.9646Z" fill="#263238"/>
<path d="M46.5886 42.7852C46.5886 42.7852 45.1005 43.0591 43.6857 46.0449C42.2744 49.0342 38.6379 58.954 38.4038 59.6179L45.8341 64.5848L50.0295 52.0832L46.5886 42.7852Z" fill="#00C802"/>
<path d="M50.4663 69.7236L50.5292 65.4838L45.7329 63.8504L46.6376 60.833L39.2458 57.3379C39.2458 57.3379 35.9376 66.0388 35.9586 67.6371C35.9656 68.2272 37.2826 71.2305 40.0353 71.4975C41.8273 71.6731 45.8796 71.912 48.6078 72.0103C49.8445 72.056 50.7877 70.9249 50.4663 69.7236Z" fill="#00C802"/>
<path d="M49.1106 54.1602C49.1525 54.1743 48.5062 56.3802 47.6608 59.085C46.8155 61.7898 46.0959 63.9747 46.0539 63.9606C46.012 63.9466 46.6583 61.7441 47.5037 59.0358C48.349 56.3311 49.0687 54.1462 49.1106 54.1602Z" fill="#263238"/>
<path d="M48.0666 64.6435C48.0631 64.6541 47.9514 64.6295 47.7557 64.5733C47.5566 64.5171 47.2737 64.4293 46.9243 64.3204C46.5715 64.2185 46.1698 64.0429 45.7052 63.9199C45.2441 63.79 44.7236 63.6846 44.1716 63.6354C43.0642 63.5265 42.0617 63.7127 41.3735 63.9445C40.6853 64.1834 40.301 64.4293 40.2836 64.4012C40.2766 64.3906 40.3709 64.3274 40.5456 64.215C40.7237 64.1061 40.9892 63.9691 41.335 63.8321C42.0232 63.5687 43.0572 63.3579 44.1856 63.4668C45.3209 63.5546 46.2885 63.9445 46.9662 64.208C47.3121 64.3309 47.5881 64.4363 47.7802 64.5101C47.9688 64.5873 48.0701 64.633 48.0666 64.6435Z" fill="#263238"/>
<path d="M43.3292 61.2127C43.3362 61.1952 43.5598 61.2373 43.8951 61.3848C44.2305 61.5324 44.6707 61.8064 45.0689 62.2068C45.4671 62.6108 45.7361 63.0534 45.8828 63.3906C46.0295 63.7278 46.0715 63.9561 46.054 63.9596C46.0051 63.9842 45.7326 63.099 44.9501 62.3262C44.1851 61.5394 43.3083 61.2619 43.3292 61.2127Z" fill="#263238"/>
<path d="M49.0409 50.0081C49.0094 50.0046 49.0688 49.6041 49.0514 48.9613C49.0339 48.3185 48.9116 47.4298 48.5728 46.513C48.2269 45.5962 47.7379 44.8444 47.3292 44.3527C46.9205 43.8574 46.6165 43.5939 46.6375 43.5729C46.6445 43.5658 46.7248 43.622 46.8646 43.7379C47.0078 43.8504 47.1964 44.033 47.4165 44.2754C47.6366 44.5143 47.8706 44.8269 48.1047 45.1922C48.3283 45.561 48.5483 45.9861 48.7265 46.4533C48.8977 46.9239 49.0129 47.3876 49.0863 47.8127C49.1492 48.2412 49.1771 48.6311 49.1701 48.9578C49.1632 49.2845 49.1422 49.5479 49.1073 49.7271C49.0723 49.9132 49.0514 50.0116 49.0409 50.0081Z" fill="#263238"/>
<g opacity="0.3">
<g opacity="0.3">
<g opacity="0.3">
<path opacity="0.3" d="M42.9142 62.8594C41.8103 62.8945 40.7204 63.3125 39.8716 64.0221C39.7982 64.0853 39.7213 64.1591 39.7144 64.2539C39.7074 64.3839 39.8471 64.4822 39.9764 64.4858C40.1056 64.4893 40.2244 64.4225 40.3397 64.3628C42.0409 63.4741 44.1054 63.3125 45.922 63.9237L46.0233 63.8289C45.136 63.1755 44.0216 62.8278 42.9142 62.8594Z" fill="#263238"/>
</g>
</g>
</g>
<path d="M50.5297 70.582C50.5367 70.582 50.5297 70.6207 50.5157 70.698C50.5052 70.7717 50.4773 70.8806 50.4214 71.0176C50.3201 71.2811 50.0755 71.6674 49.6005 71.9028C49.3699 72.0152 49.0799 72.1065 48.776 72.0855C48.4756 72.089 48.1577 72.0819 47.8224 72.0749C47.1516 72.0574 46.4181 72.0293 45.646 71.9836C44.102 71.8958 42.7082 71.7834 41.7021 71.692C41.1991 71.6464 40.7903 71.6042 40.5109 71.5691C40.2314 71.5375 40.0742 71.5129 40.0742 71.4988C40.0742 71.4883 40.2314 71.4918 40.5144 71.5024C40.8288 71.5199 41.2305 71.5445 41.7091 71.5726C42.7501 71.6358 44.1299 71.7201 45.653 71.815C46.4215 71.8571 47.1586 71.8923 47.8259 71.9169C48.1577 71.9274 48.4756 71.9344 48.7725 71.9414C49.066 71.966 49.3245 71.8887 49.5481 71.7904C49.9987 71.5867 50.2432 71.2354 50.362 70.986C50.4214 70.8595 50.4598 70.7577 50.4808 70.6874C50.5087 70.6172 50.5262 70.582 50.5297 70.582Z" fill="#263238"/>
<path d="M51.5294 70.3398L55.6725 70.4943C56.0882 70.5084 56.4724 70.129 56.6471 69.5319L59.8889 58.1051C60.095 57.3148 59.6583 56.679 58.9527 56.6333L53.4787 56.2891C52.5984 56.2891 52.1268 56.6684 51.9696 57.3358L49.8352 66.381C49.3845 68.2989 50.2369 70.2906 51.5294 70.3398Z" fill="#263238"/>
<path d="M47.9866 64.942L49.087 62.5991L50.8965 61.9914L50.3411 64.2325C51.0502 64.5767 52.1191 64.7558 52.734 64.4151C53.3488 64.0744 55.7522 61.6717 56.2028 61.9C56.6569 62.1319 57.0622 62.6798 56.6465 63.2103C56.2308 63.7372 53.9776 65.3741 54.4457 65.8588C54.9103 66.3436 57.5058 64.2219 58.2709 64.38C59.0359 64.5381 59.5005 64.9842 59.0743 65.3108C58.6551 65.634 57.6036 66.6913 57.4185 67.1515C57.4639 67.7276 57.7364 68.546 57.4849 68.6865C57.1181 68.8938 55.836 69.3399 55.574 69.3539C55.4378 69.361 54.4666 69.7403 53.5793 70.1022C52.5768 70.5096 51.4659 70.5342 50.4459 70.1759L49.9254 69.9933C49.1149 69.7087 48.5769 68.9359 48.5874 68.0753L48.6049 66.3436L47.9866 64.942Z" fill="#FFBF9D" stroke="#263238" stroke-width="0.2" stroke-miterlimit="10"/>
<path d="M50.767 64.3984C50.781 64.4019 50.8404 64.2052 50.9417 63.8469C51.0465 63.4535 51.1862 62.9407 51.3504 62.3224C51.5181 61.6655 51.7172 60.9033 51.9338 60.0567C52.0421 59.6282 52.1538 59.1821 52.2726 58.7184C52.4054 58.2653 52.4543 57.7349 52.7687 57.3906C53.0935 57.0499 53.621 57.0323 54.0786 57.0534C54.5537 57.0885 55.0114 57.1236 55.448 57.1553C56.3144 57.2185 57.0969 57.2747 57.7676 57.3239C58.4034 57.3625 58.9308 57.3941 59.3326 57.4187C59.7029 57.4363 59.909 57.4398 59.909 57.4292C59.909 57.4152 59.7064 57.3871 59.3396 57.3449C58.9378 57.3063 58.4103 57.2536 57.7781 57.1869C57.1073 57.1272 56.3248 57.0569 55.4585 56.9796C55.0218 56.9445 54.5607 56.9059 54.0856 56.8637C53.8446 56.8497 53.5931 56.8497 53.3381 56.8953C53.0865 56.941 52.8211 57.0499 52.6289 57.2536C52.4368 57.4574 52.339 57.7138 52.2691 57.9562C52.2027 58.202 52.1469 58.4339 52.091 58.6692C51.9792 59.1329 51.8674 59.5825 51.7626 60.0111C51.56 60.8576 51.3748 61.6269 51.2176 62.2873C51.0744 62.9126 50.9556 63.4289 50.8648 63.8259C50.7915 64.1912 50.753 64.3949 50.767 64.3984Z" fill="#00C802"/>
<path d="M55.7415 58.8704C55.7415 59.0952 55.9231 59.2778 56.1467 59.2778C56.3702 59.2778 56.5519 59.0952 56.5519 58.8704C56.5519 58.6456 56.3702 58.4629 56.1467 58.4629C55.9231 58.4629 55.7415 58.6456 55.7415 58.8704Z" fill="white"/>
<path d="M74.2591 69.1395C74.2102 69.1395 74.1508 64.5625 74.1333 58.9211C74.1158 53.2762 74.1403 48.6992 74.1892 48.6992C74.2381 48.6992 74.294 53.2727 74.315 58.9211C74.3359 64.5625 74.308 69.1395 74.2591 69.1395Z" fill="#263238"/>
<path d="M242.416 149.651C242.416 149.839 190.034 150.001 125.43 150.001C60.7996 150.001 8.42798 149.839 8.42798 149.651C8.42798 149.462 60.7996 149.301 125.43 149.301C190.029 149.301 242.416 149.449 242.416 149.651Z" fill="#263238"/>
</g>
<defs>
<clipPath id="clip0_6833_43738">
<rect width="250.61" height="150" fill="white" transform="translate(0.117188)"/>
</clipPath>
</defs>
</svg>
