<svg width="28" height="15" viewBox="0 0 28 15" fill="none" xmlns="http://www.w3.org/2000/svg">
<rect width="28" height="15" rx="2" fill="#F2F2F2"/>
<path d="M5.88836 11V6.34L10.7284 11.41V4.33H9.70836V8.95L4.86836 3.88V11H5.88836ZM15.6693 4.33H12.3293V11H13.3493V7.94H15.5893V6.98H13.3493V5.29H15.6693V4.33ZM19.9813 4.21C17.9813 4.21 16.5113 5.71 16.5113 7.67C16.5113 9.63 17.9813 11.13 19.9813 11.13C21.9813 11.13 23.4513 9.63 23.4513 7.67C23.4513 5.71 21.9813 4.21 19.9813 4.21ZM19.9813 10.19C18.5513 10.19 17.5313 9.15 17.5313 7.67C17.5313 6.19 18.5513 5.15 19.9813 5.15C21.4113 5.15 22.4313 6.19 22.4313 7.67C22.4313 9.15 21.4113 10.19 19.9813 10.19Z" fill="#797979"/>
</svg>
