<svg width="354" height="264" viewBox="0 0 354 264" fill="none" xmlns="http://www.w3.org/2000/svg">
<mask id="mask0_624_6696" style="mask-type:luminance" maskUnits="userSpaceOnUse" x="0" y="-81" width="363" height="363">
<path d="M0 -80.8134H362.174V281.704H0V-80.8134Z" fill="white"/>
</mask>
<g mask="url(#mask0_624_6696)">
<path d="M10.7659 141.336L164.341 54.1956C168.09 52.0692 172.334 50.9617 176.647 50.9841C180.96 51.0065 185.191 52.1578 188.918 54.323L347.192 146.207C349.269 147.41 350.992 149.137 352.187 151.215C353.382 153.292 354.007 155.647 354 158.042C353.993 160.436 353.354 162.787 352.147 164.858C350.94 166.928 349.207 168.645 347.123 169.837L199.417 254.389C194.413 257.257 188.742 258.766 182.97 258.766C177.199 258.766 171.528 257.257 166.524 254.389L10.7168 165.025C8.62509 163.827 6.88813 162.099 5.68188 160.017C4.47562 157.934 3.84294 155.571 3.84793 153.166C3.85292 150.761 4.49541 148.4 5.71029 146.323C6.92518 144.245 8.66929 142.525 10.7659 141.336V141.336Z" fill="#D2F4DB"/>
<path d="M281.432 167.702L276.509 170.545L210.966 208.396C210.793 208.494 210.62 208.584 210.44 208.66C209.357 209.104 208.147 209.104 207.065 208.66C206.885 208.584 206.704 208.494 206.531 208.396L82.0818 136.479L76.0611 133.003C75.8278 132.867 75.6402 132.717 75.4975 132.559C74.8739 131.874 75.0687 131.002 76.0611 130.423L146.497 89.7199C147.392 89.2081 148.317 88.8398 149.234 88.9601C149.459 88.9898 149.677 89.0507 149.902 89.1406C150.015 89.1863 150.136 89.2385 150.249 89.3067L281.432 165.121C282.424 165.693 282.424 167.13 281.432 167.702ZM298.329 170.922C298.299 170.854 298.261 170.794 298.216 170.734C298.187 170.689 298.156 170.658 298.118 170.613C298.089 170.569 298.051 170.523 298.006 170.478C297.969 170.44 297.924 170.395 297.878 170.358C297.751 170.244 297.593 170.132 297.412 170.027L140.5 79.3454C139.064 78.5174 136.734 78.5174 135.298 79.3454L58.3674 123.802C58.2551 123.869 58.1501 123.929 58.0596 123.997C58.0219 124.027 57.9842 124.05 57.9545 124.08C57.7662 124.238 57.6235 124.396 57.5185 124.569C57.4881 124.607 57.4656 124.652 57.4432 124.697C57.4055 124.764 57.3751 124.833 57.3606 124.9C57.3454 124.953 57.3302 125.005 57.3229 125.058C57.3005 125.149 57.2925 125.231 57.2925 125.321C57.2925 125.381 57.3005 125.442 57.3077 125.502C57.3229 125.57 57.3374 125.637 57.3606 125.706C57.383 125.773 57.4127 125.84 57.4432 125.901C57.6083 126.232 57.9169 126.541 58.3674 126.803L215.281 217.485C215.724 217.741 216.265 217.913 216.829 218.012C217.167 218.072 217.528 218.095 217.881 218.102C218.235 218.102 218.587 218.072 218.926 218.019C219.046 218.004 219.159 217.981 219.264 217.952C219.595 217.876 219.91 217.771 220.203 217.636C220.301 217.591 220.391 217.538 220.481 217.485L297.412 173.029C298.397 172.457 298.705 171.644 298.329 170.922Z" fill="#8ADCA0"/>
<path d="M58.0625 124C56.7666 124.919 55.767 126.768 55.7605 128.313L55.7627 131.752C55.7605 133.419 56.918 135.435 58.3631 136.27L215.264 226.943C215.811 227.259 216.474 227.45 217.174 227.526C217.404 227.554 217.633 227.568 217.869 227.571C217.873 227.565 217.879 227.569 217.879 227.569L217.877 218.106L217.881 218.101C217.525 218.097 217.17 218.07 216.83 218.015C216.261 217.917 215.724 217.741 215.278 217.483L58.3645 126.803C57.0426 126.039 56.9361 124.831 58.0625 124Z" fill="#035314"/>
<path d="M256.771 189.384C254.253 187.932 250.006 187.932 247.488 189.384C246.841 189.761 246.36 190.197 246.098 190.655C245.263 192.1 246.789 193.191 247.488 193.597C250.006 195.05 254.253 195.05 256.771 193.597C257.41 193.221 257.891 192.785 258.161 192.326C258.996 190.881 257.462 189.791 256.771 189.384Z" fill="#41B059"/>
<path d="M103.127 105.649C103.829 105.243 103.829 104.586 103.127 104.18C102.426 103.774 101.287 103.774 100.584 104.18C99.8824 104.586 99.8824 105.243 100.584 105.649C101.287 106.055 102.426 106.055 103.127 105.649Z" fill="#587D60"/>
<path d="M99.1306 112.611C99.7535 112.251 99.7535 111.668 99.1306 111.307C98.5077 110.948 97.4979 110.948 96.875 111.307C96.2513 111.668 96.2513 112.251 96.875 112.611C97.4979 112.971 98.5077 112.971 99.1306 112.611Z" fill="#587D60"/>
<path d="M102.951 110.456L115.582 103.157C116.274 102.757 116.308 102.128 115.659 101.754C115.01 101.378 113.923 101.398 113.231 101.799L100.6 109.097C99.9076 109.498 99.8728 110.126 100.523 110.501C101.172 110.876 102.259 110.856 102.951 110.456Z" fill="#587D60"/>
<path d="M297.754 170.255C298.832 171.094 298.716 172.277 297.412 173.028L220.48 217.488C219.765 217.902 218.821 218.108 217.878 218.107L217.879 227.568C218.825 227.564 219.755 227.357 220.473 226.938L297.405 182.492C298.839 181.668 300.004 179.647 300.006 177.981L300.017 174.533C300.01 173.01 299.032 171.187 297.754 170.255Z" fill="#587D60"/>
<path d="M95.063 150.666C95.8055 151.095 96.4074 152.096 96.4074 152.901C96.4074 153.29 96.2669 153.559 96.0372 153.686C95.8757 153.776 95.2636 154.141 95.0949 154.235C94.8508 154.371 94.5067 154.345 94.125 154.124L76.632 144.014C75.8895 143.585 75.2876 142.585 75.2869 141.78C75.2869 141.409 75.4158 141.146 75.6273 141.013C75.7932 140.908 76.4299 140.54 76.5979 140.447C76.842 140.309 77.1868 140.335 77.57 140.557L95.063 150.666Z" fill="#8ADCA0"/>
<path d="M94.125 151.208L76.632 141.099C75.8895 140.67 75.2869 140.974 75.2869 141.78C75.2869 142.585 75.8895 143.585 76.632 144.014L94.125 154.124C94.8674 154.554 95.4694 154.248 95.4694 153.443C95.4694 152.638 94.8674 151.637 94.125 151.208Z" fill="#587D60"/>
<path d="M71.647 137.134C72.3895 137.563 72.9914 138.564 72.9914 139.369C72.9914 139.758 72.8509 140.027 72.6213 140.154C72.4598 140.243 71.8477 140.609 71.6796 140.703C71.4355 140.839 71.0907 140.813 70.7097 140.592L62.4623 135.826C61.7199 135.397 61.1179 134.397 61.1179 133.591C61.1179 133.22 61.2469 132.958 61.4576 132.824C61.6242 132.719 62.2609 132.351 62.4283 132.258C62.6731 132.121 63.0179 132.147 63.4003 132.368L71.647 137.134Z" fill="#8ADCA0"/>
<path d="M70.7092 137.676L62.4625 132.911C61.7194 132.481 61.1174 132.786 61.1174 133.591C61.1174 134.397 61.7194 135.397 62.4625 135.827L70.7092 140.592C71.4517 141.022 72.0536 140.716 72.0536 139.911C72.0536 139.106 71.4517 138.105 70.7092 137.676Z" fill="#587D60"/>
<path d="M281.432 167.664L276.509 170.508L210.966 208.359C210.793 208.457 210.62 208.547 210.44 208.623C209.357 209.066 208.147 209.066 207.065 208.623C206.885 208.547 206.704 208.457 206.531 208.359L82.0818 136.442L76.061 132.965C75.8278 132.831 75.6402 132.68 75.4975 132.522C74.8738 131.837 75.0686 130.964 76.061 130.385L146.497 89.6823C147.392 89.1712 148.317 88.8021 149.234 88.9225C149.459 88.9529 149.677 89.0131 149.902 89.1037C150.015 89.1487 150.136 89.2009 150.249 89.269L281.432 165.084C282.424 165.655 282.424 167.092 281.432 167.664Z" fill="#41B059"/>
<mask id="mask1_624_6696" style="mask-type:luminance" maskUnits="userSpaceOnUse" x="75" y="88" width="208" height="121">
<path d="M75.1401 88.8997H282.176V208.955H75.1401V88.8997Z" fill="white"/>
</mask>
<g mask="url(#mask1_624_6696)">
<g opacity="0.800003">
<path d="M281.432 167.664L276.509 170.508L210.966 208.359C210.793 208.457 210.62 208.547 210.44 208.623C209.357 209.066 208.147 209.066 207.065 208.623C206.885 208.547 206.704 208.457 206.531 208.359L82.0818 136.442L76.061 132.965C75.8278 132.831 75.6402 132.68 75.4975 132.522C74.8738 131.837 75.0686 130.964 76.061 130.385L146.497 89.6823C147.392 89.1711 148.317 88.8021 149.234 88.9225C149.459 88.9529 149.677 89.0131 149.902 89.1037C150.015 89.1487 150.136 89.2009 150.249 89.269L281.432 165.084C282.424 165.655 282.424 167.092 281.432 167.664Z" fill="white"/>
</g>
</g>
<path d="M90.25 127.204L89.3888 126.705L89.6459 127.553L90.25 127.204ZM90.9367 127.638C90.9055 127.637 90.8715 127.626 90.8353 127.605L90.489 127.406L89.6568 127.887C89.6111 127.913 89.564 127.913 89.5148 127.884L89.3909 127.813C89.3627 127.796 89.3431 127.782 89.333 127.77C89.3236 127.758 89.3141 127.742 89.3062 127.721L88.9534 126.494C88.9476 126.471 88.9462 126.455 88.9505 126.443C88.9541 126.431 88.9694 126.418 88.9962 126.403L89.1121 126.336C89.1468 126.315 89.1809 126.306 89.2156 126.307C89.249 126.309 89.2852 126.321 89.3236 126.343L90.5318 127.041L90.7158 126.935C90.7505 126.914 90.7831 126.905 90.8143 126.907C90.8461 126.909 90.8809 126.921 90.9186 126.943L91.0012 126.99C91.0381 127.011 91.0569 127.031 91.0591 127.048C91.0613 127.066 91.0453 127.085 91.0098 127.105L90.8259 127.211L91.1714 127.411C91.2083 127.432 91.2271 127.451 91.2286 127.47C91.2293 127.488 91.2119 127.507 91.175 127.528L91.0352 127.609C91.0004 127.629 90.9678 127.639 90.9367 127.638Z" fill="#8ADCA0"/>
<path d="M91.7167 126.945C91.3676 126.932 91.0199 126.825 90.6744 126.626C90.3296 126.426 90.1463 126.226 90.1231 126.023C90.0999 125.82 90.2368 125.633 90.5324 125.463C90.6512 125.393 90.7765 125.337 90.909 125.294C91.0401 125.25 91.1662 125.224 91.2871 125.215C91.3154 125.213 91.3364 125.216 91.3509 125.224C91.3603 125.23 91.3697 125.239 91.3762 125.251L91.4516 125.383C91.4595 125.4 91.4588 125.411 91.448 125.417C91.4422 125.42 91.4255 125.424 91.3987 125.428C91.2024 125.453 91.022 125.512 90.8576 125.608C90.6584 125.723 90.5657 125.851 90.5824 125.993C90.5997 126.134 90.7395 126.281 91.0054 126.434C91.2719 126.588 91.5262 126.671 91.7652 126.682C92.005 126.693 92.2208 126.643 92.4142 126.532C92.4845 126.491 92.5461 126.448 92.5989 126.402C92.6525 126.356 92.688 126.313 92.7069 126.275L92.1448 125.951L91.7978 126.151C91.763 126.172 91.7305 126.181 91.6986 126.178C91.6674 126.177 91.6327 126.165 91.5943 126.143L91.5153 126.097C91.4762 126.075 91.4574 126.055 91.4566 126.038C91.4552 126.022 91.4719 126.003 91.5066 125.983L92.0608 125.662C92.0991 125.64 92.1383 125.63 92.1759 125.633C92.2143 125.635 92.2549 125.65 92.2998 125.676L93.1009 126.139C93.1313 126.156 93.1509 126.17 93.161 126.183C93.1712 126.194 93.1734 126.209 93.1676 126.226C93.1241 126.386 92.9633 126.547 92.6866 126.707C92.3882 126.88 92.0651 126.959 91.7167 126.945Z" fill="#8ADCA0"/>
<path d="M98.6086 122.815C98.8759 122.969 98.8759 123.22 98.6086 123.374C98.3414 123.528 97.9089 123.528 97.6424 123.374C97.3751 123.22 97.3751 122.97 97.6424 122.815C97.9089 122.661 98.3414 122.661 98.6086 122.815Z" fill="#8ADCA0"/>
<path d="M96.8506 122.358C96.3639 122.64 96.2139 123.042 96.4001 123.398C96.4385 123.47 96.5616 123.516 96.6913 123.506H96.6927C96.8557 123.494 96.9651 123.401 96.9158 123.31C96.7811 123.059 96.8876 122.775 97.2294 122.577C97.5735 122.379 98.0646 122.318 98.4978 122.396C98.6557 122.424 98.8187 122.361 98.8382 122.267V122.266C98.8534 122.192 98.7745 122.12 98.6499 122.099C98.0342 121.99 97.3374 122.077 96.8506 122.358Z" fill="#8ADCA0"/>
<path d="M96.0765 121.911C95.3529 122.33 95.0943 122.916 95.2985 123.456C95.329 123.536 95.455 123.591 95.5941 123.581H95.597C95.7556 123.57 95.8599 123.482 95.8251 123.393C95.6542 122.952 95.8643 122.472 96.4561 122.13C97.0478 121.789 97.8794 121.666 98.6421 121.765C98.7979 121.785 98.95 121.725 98.9688 121.634C98.9855 121.552 98.8906 121.48 98.7537 121.463C97.8214 121.342 96.8023 121.492 96.0765 121.911Z" fill="#8ADCA0"/>
<path d="M110.328 115.011C110.294 115.008 110.267 114.999 110.246 114.984C110.226 114.968 110.218 114.951 110.223 114.931L110.37 114.214C110.374 114.197 110.379 114.18 110.386 114.163C110.392 114.145 110.406 114.131 110.427 114.119L110.677 113.974C110.701 113.96 110.729 113.954 110.764 113.954C110.797 113.954 110.825 113.96 110.849 113.974L112.915 115.168C112.938 115.181 112.95 115.198 112.95 115.218C112.95 115.237 112.939 115.254 112.915 115.268L112.656 115.418C112.632 115.431 112.605 115.437 112.569 115.437C112.536 115.437 112.506 115.432 112.483 115.418L110.903 114.505L110.805 114.972C110.801 114.991 110.785 115.007 110.759 115.018C110.735 115.029 110.704 115.034 110.667 115.033L110.328 115.011Z" fill="#8ADCA0"/>
<path d="M111.946 114.076C111.913 114.074 111.885 114.064 111.865 114.049C111.845 114.034 111.837 114.016 111.84 113.997L111.988 113.279C111.992 113.262 111.997 113.245 112.004 113.227C112.01 113.211 112.025 113.196 112.046 113.183L112.294 113.039C112.318 113.026 112.347 113.019 112.381 113.019C112.415 113.019 112.444 113.026 112.467 113.039L114.533 114.233C114.557 114.247 114.568 114.263 114.569 114.283C114.568 114.303 114.557 114.319 114.533 114.332L114.274 114.483C114.251 114.496 114.222 114.503 114.188 114.503C114.154 114.503 114.125 114.496 114.102 114.483L112.522 113.57L112.423 114.037C112.418 114.057 112.404 114.072 112.378 114.083C112.352 114.095 112.322 114.1 112.285 114.098L111.946 114.076Z" fill="#8ADCA0"/>
<path d="M115.099 113.444C115.122 113.43 115.151 113.424 115.186 113.424C115.22 113.424 115.248 113.43 115.271 113.444L115.585 113.625C115.609 113.638 115.62 113.656 115.62 113.675C115.62 113.695 115.608 113.711 115.585 113.725L115.287 113.897C115.264 113.91 115.236 113.917 115.201 113.917C115.168 113.917 115.138 113.91 115.115 113.897L114.801 113.716C114.778 113.702 114.766 113.686 114.766 113.666C114.767 113.646 114.778 113.629 114.802 113.616L115.099 113.444ZM113.98 112.797C114.003 112.784 114.032 112.777 114.066 112.777C114.101 112.777 114.129 112.784 114.152 112.797L114.466 112.978C114.49 112.992 114.501 113.008 114.501 113.028C114.501 113.048 114.489 113.064 114.465 113.078L114.168 113.25C114.145 113.264 114.117 113.27 114.082 113.27C114.049 113.27 114.019 113.264 113.996 113.25L113.682 113.069C113.659 113.055 113.647 113.039 113.647 113.019C113.647 113 113.659 112.982 113.683 112.969L113.98 112.797Z" fill="#8ADCA0"/>
<path d="M116.333 112.283L115.649 111.888L115.786 112.599L116.333 112.283ZM117.293 112.738C117.269 112.752 117.241 112.758 117.206 112.758C117.173 112.758 117.143 112.752 117.12 112.738L116.733 112.514L115.741 113.087C115.718 113.1 115.689 113.108 115.655 113.108C115.621 113.108 115.592 113.1 115.569 113.087L115.342 112.956C115.312 112.939 115.293 112.92 115.284 112.899C115.276 112.877 115.268 112.855 115.262 112.829L115.019 111.558C115.008 111.502 115.026 111.461 115.07 111.436L115.313 111.295C115.337 111.281 115.365 111.274 115.4 111.274C115.434 111.274 115.462 111.281 115.486 111.295L116.765 112.034L117.04 111.875C117.063 111.861 117.092 111.855 117.126 111.855C117.16 111.855 117.189 111.861 117.212 111.875L117.439 112.006C117.462 112.019 117.476 112.037 117.475 112.056C117.475 112.076 117.462 112.093 117.439 112.106L117.164 112.265L117.552 112.488C117.575 112.502 117.587 112.519 117.587 112.539C117.587 112.558 117.575 112.575 117.552 112.589L117.293 112.738Z" fill="#8ADCA0"/>
<path d="M116.425 110.752C116.402 110.738 116.39 110.721 116.391 110.702C116.39 110.682 116.402 110.666 116.425 110.652L117.628 109.957C117.652 109.943 117.68 109.937 117.714 109.937C117.749 109.937 117.778 109.943 117.801 109.957L118.028 110.088C118.051 110.102 118.063 110.119 118.062 110.138C118.062 110.158 118.051 110.175 118.027 110.188L117.129 110.707L117.504 110.964C117.537 110.918 117.581 110.877 117.633 110.842C117.685 110.806 117.729 110.778 117.765 110.757C117.885 110.689 118.012 110.634 118.146 110.593C118.28 110.552 118.416 110.528 118.553 110.521C118.691 110.515 118.827 110.526 118.961 110.555C119.096 110.582 119.222 110.631 119.341 110.7C119.478 110.779 119.573 110.859 119.626 110.94C119.68 111.022 119.7 111.102 119.687 111.182C119.674 111.262 119.631 111.341 119.557 111.416C119.484 111.492 119.389 111.563 119.275 111.629C119.127 111.715 118.984 111.778 118.845 111.819C118.705 111.86 118.571 111.884 118.443 111.89C118.315 111.896 118.195 111.887 118.085 111.864C117.975 111.841 117.875 111.806 117.788 111.76C117.759 111.747 117.748 111.731 117.749 111.711C117.751 111.691 117.765 111.674 117.788 111.661L118.047 111.511C118.068 111.499 118.094 111.492 118.125 111.49C118.156 111.488 118.186 111.492 118.217 111.501C118.278 111.523 118.339 111.535 118.397 111.536C118.455 111.538 118.512 111.533 118.566 111.523C118.621 111.513 118.674 111.496 118.724 111.475C118.776 111.452 118.826 111.427 118.875 111.399C118.997 111.328 119.062 111.253 119.07 111.172C119.078 111.09 119.025 111.016 118.91 110.95C118.814 110.894 118.696 110.869 118.558 110.876C118.419 110.882 118.289 110.919 118.165 110.988C118.101 111.025 118.055 111.057 118.027 111.084C118 111.111 117.98 111.135 117.97 111.156C117.96 111.177 117.95 111.196 117.939 111.213C117.93 111.23 117.91 111.246 117.88 111.264L117.586 111.433C117.563 111.447 117.533 111.454 117.5 111.454C117.466 111.454 117.437 111.447 117.414 111.433L116.425 110.752Z" fill="#8ADCA0"/>
<path d="M81.994 133.103L81.3276 132.718L82.2164 132.204L82.8828 132.59L81.994 133.103Z" fill="#8ADCA0"/>
<path d="M83.3269 132.333L81.9941 131.563L82.8829 131.049L84.2157 131.82L83.3269 132.333Z" fill="#8ADCA0"/>
<path d="M84.6606 131.563L82.6606 130.407L83.5494 129.894L85.5493 131.049L84.6606 131.563Z" fill="#8ADCA0"/>
<path d="M85.9935 130.792L83.3271 129.251L84.2159 128.737L86.8822 130.278L85.9935 130.792Z" fill="#8ADCA0"/>
<path d="M144.292 96.7311C144.213 96.7246 144.122 96.6941 144.042 96.6477L142.83 95.9474C142.619 95.8255 142.574 95.645 142.734 95.5537L146.058 93.6388C146.096 93.6164 146.144 93.6019 146.194 93.5953C146.221 93.5924 146.248 93.5917 146.277 93.5946C146.356 93.6011 146.447 93.6316 146.527 93.6773L147.739 94.3769C147.95 94.4995 147.995 94.68 147.837 94.7713L144.512 96.6869C144.452 96.7217 144.374 96.7376 144.292 96.7311ZM146.247 93.4714C146.028 93.4532 145.843 93.4815 145.724 93.5504L142.4 95.4659C142.184 95.5899 142.24 95.8176 142.526 95.9829L143.738 96.6833C143.898 96.7753 144.105 96.8362 144.323 96.8536C144.416 96.8616 144.505 96.8609 144.586 96.8515C144.691 96.8391 144.778 96.8138 144.846 96.7746L148.171 94.8591C148.385 94.7351 148.33 94.5082 148.043 94.3421L146.831 93.6425C146.672 93.5504 146.465 93.4895 146.247 93.4714Z" fill="#8ADCA0"/>
<path d="M143.574 95.3116L145.007 96.1403L144.484 96.4404C144.439 96.4658 144.34 96.4745 144.307 96.4557L143.241 95.8401C143.088 95.7517 143.055 95.6146 143.167 95.5472L143.574 95.3116Z" fill="#8ADCA0"/>
<path d="M143.819 95.1742L144.441 94.8124L145.874 95.6411L145.249 96L143.819 95.1742Z" fill="#8ADCA0"/>
<path d="M144.687 94.6754L145.308 94.3144L146.746 95.1453L146.12 95.5042L144.687 94.6754Z" fill="#8ADCA0"/>
<path d="M146.27 93.8703L147.303 94.467C147.493 94.5772 147.452 94.7375 147.197 94.8839L146.987 95.005L145.554 94.177L146.05 93.8899C146.108 93.8573 146.229 93.8464 146.27 93.8703Z" fill="#8ADCA0"/>
<path d="M146.963 93.5754C147.054 93.5217 147.33 93.595 147.578 93.7385L147.804 93.8683C148.052 94.0126 148.184 94.1757 148.096 94.2323L147.939 94.3359L146.798 93.6725C146.798 93.6725 146.872 93.629 146.963 93.5754Z" fill="#8ADCA0"/>
<path d="M137.781 99.0667L140.358 96.8256L141.717 98.7614L139.935 98.2756L137.781 99.0667Z" fill="#8ADCA0"/>
<path d="M192.649 193.289V193.923C192.649 194.936 193.36 196.168 194.236 196.675L206.664 203.851C207.54 204.358 208.962 204.358 209.838 203.851L271.094 168.429C271.971 167.922 272.681 166.69 272.681 165.677V165.043C272.681 164.031 271.971 162.798 271.094 162.292L258.667 155.115C257.79 154.609 256.368 154.609 255.492 155.115L194.236 190.537C193.359 191.044 192.649 192.276 192.649 193.289Z" fill="#41B059"/>
<mask id="mask2_624_6696" style="mask-type:luminance" maskUnits="userSpaceOnUse" x="208" y="162" width="65" height="43">
<path d="M208.25 162.433H272.681V204.226H208.25V162.433Z" fill="white"/>
</mask>
<g mask="url(#mask2_624_6696)">
<g opacity="0.149994">
<path d="M271.307 162.433C271.966 162.938 271.893 163.665 271.098 164.128L209.834 199.55C209.398 199.806 208.821 199.924 208.25 199.932L208.25 204.226C208.823 204.23 209.397 204.101 209.841 203.848L271.093 168.43C271.973 167.919 272.683 166.687 272.68 165.677L272.681 165.043C272.678 164.119 272.085 162.998 271.307 162.433Z" fill="black"/>
</g>
</g>
<mask id="mask3_624_6696" style="mask-type:luminance" maskUnits="userSpaceOnUse" x="192" y="190" width="17" height="15">
<path d="M192.646 190.708H208.251V204.227H192.646V190.708Z" fill="white"/>
</mask>
<g mask="url(#mask3_624_6696)">
<g opacity="0.300003">
<path d="M193.994 190.708C193.233 191.278 192.65 192.372 192.651 193.285L192.646 193.926C192.648 194.937 193.36 196.165 194.239 196.673L206.664 203.847C207.103 204.101 207.68 204.232 208.25 204.226L208.251 199.932C207.677 199.927 207.096 199.803 206.664 199.553L194.233 192.374C193.447 191.92 193.368 191.211 193.994 190.708Z" fill="black"/>
</g>
</g>
<path d="M214.5 188.844L215.745 188.124L213.278 187.417L214.5 188.844ZM212.386 186.183C212.489 186.123 212.595 186.094 212.705 186.096C212.815 186.097 212.909 186.109 212.986 186.13L219.505 187.96C219.576 187.978 219.626 187.993 219.65 188.008C219.697 188.034 219.72 188.068 219.72 188.106C219.72 188.145 219.697 188.177 219.65 188.203L218.682 188.763C218.58 188.823 218.484 188.852 218.398 188.852C218.31 188.852 218.241 188.844 218.19 188.826L217.337 188.581L215.292 189.763L215.714 190.257C215.745 190.286 215.76 190.326 215.761 190.376C215.76 190.426 215.71 190.481 215.607 190.54L214.638 191.1C214.593 191.127 214.537 191.14 214.469 191.14C214.403 191.14 214.347 191.127 214.3 191.1C214.275 191.085 214.245 191.057 214.216 191.016L211.049 187.248C211.013 187.204 210.993 187.15 210.991 187.087C210.988 187.023 211.038 186.961 211.141 186.902L212.386 186.183Z" fill="#CFFFDC"/>
<path d="M220.427 183.979C219.807 183.656 219.163 183.687 218.498 184.072L217.714 184.525L220.635 186.214L221.457 185.738C222.102 185.365 222.143 185.001 221.581 184.645C221.477 184.58 221.379 184.52 221.284 184.465C221.19 184.411 221.097 184.357 221.008 184.306C220.918 184.253 220.827 184.201 220.735 184.148C220.643 184.095 220.539 184.039 220.427 183.979ZM217.305 183.339C217.66 183.135 218.035 182.979 218.432 182.87C218.829 182.762 219.229 182.702 219.631 182.688C220.034 182.675 220.427 182.71 220.812 182.792C221.196 182.876 221.552 183.003 221.88 183.175C221.993 183.234 222.093 183.29 222.183 183.341C222.273 183.393 222.359 183.443 222.44 183.491C222.523 183.538 222.608 183.586 222.695 183.637C222.782 183.688 222.874 183.743 222.971 183.806C223.273 183.998 223.496 184.204 223.641 184.423C223.783 184.643 223.847 184.867 223.829 185.097C223.811 185.326 223.711 185.554 223.528 185.78C223.347 186.007 223.079 186.223 222.726 186.426L220.65 187.626C220.593 187.658 220.524 187.675 220.443 187.675C220.361 187.675 220.291 187.658 220.235 187.626L215.269 184.756C215.213 184.724 215.185 184.684 215.184 184.636C215.185 184.589 215.213 184.549 215.269 184.517L217.305 183.339Z" fill="#CFFFDC"/>
<path d="M225.985 180.767C225.365 180.444 224.722 180.475 224.055 180.86L223.272 181.313L226.192 183.002L227.014 182.526C227.66 182.154 227.701 181.789 227.138 181.434C227.035 181.368 226.936 181.308 226.841 181.253C226.747 181.199 226.654 181.145 226.565 181.094C226.475 181.041 226.384 180.989 226.292 180.935C226.2 180.883 226.097 180.827 225.985 180.767ZM222.863 180.127C223.217 179.923 223.592 179.767 223.989 179.659C224.387 179.551 224.786 179.49 225.188 179.476C225.591 179.463 225.984 179.498 226.369 179.58C226.754 179.664 227.109 179.791 227.437 179.963C227.55 180.022 227.652 180.078 227.741 180.129C227.831 180.181 227.917 180.231 227.998 180.279C228.081 180.326 228.165 180.374 228.252 180.425C228.34 180.476 228.432 180.532 228.53 180.594C228.831 180.786 229.054 180.992 229.199 181.212C229.342 181.431 229.405 181.655 229.387 181.885C229.368 182.114 229.268 182.342 229.085 182.568C228.904 182.795 228.636 183.011 228.283 183.214L226.208 184.414C226.151 184.447 226.082 184.464 226 184.464C225.918 184.464 225.849 184.447 225.792 184.414L220.826 181.544C220.77 181.512 220.743 181.472 220.741 181.425C220.742 181.377 220.77 181.337 220.826 181.305L222.863 180.127Z" fill="#CFFFDC"/>
<path d="M231.573 175.094C231.63 175.062 231.699 175.046 231.78 175.045C231.863 175.046 231.932 175.062 231.988 175.094L232.803 175.564C232.86 175.598 232.888 175.637 232.888 175.685C232.888 175.732 232.86 175.772 232.803 175.805L231.45 176.587L235.394 178.866C235.451 178.898 235.479 178.939 235.479 178.986C235.479 179.034 235.45 179.073 235.394 179.106L234.387 179.688C234.331 179.72 234.261 179.737 234.18 179.737C234.097 179.737 234.028 179.72 233.972 179.688L230.028 177.408L228.675 178.191C228.619 178.223 228.549 178.24 228.469 178.24C228.386 178.24 228.317 178.223 228.26 178.191L227.445 177.72C227.389 177.687 227.361 177.647 227.361 177.599C227.361 177.553 227.389 177.512 227.445 177.48L231.573 175.094Z" fill="#CFFFDC"/>
<path d="M238.915 174.707C238.828 174.651 238.73 174.589 238.623 174.521C238.515 174.453 238.402 174.385 238.285 174.317C238.167 174.249 238.05 174.184 237.934 174.123C237.819 174.062 237.716 174.009 237.623 173.961C237.485 173.893 237.34 173.84 237.189 173.803C237.037 173.766 236.882 173.748 236.724 173.748C236.565 173.748 236.404 173.769 236.24 173.81C236.075 173.851 235.914 173.918 235.756 174.01C235.597 174.102 235.481 174.195 235.41 174.29C235.338 174.385 235.301 174.478 235.301 174.57C235.301 174.662 235.333 174.752 235.398 174.839C235.462 174.926 235.553 175.01 235.671 175.09C235.748 175.145 235.84 175.206 235.947 175.272C236.056 175.337 236.169 175.403 236.287 175.472C236.404 175.54 236.52 175.606 236.636 175.669C236.751 175.733 236.859 175.788 236.962 175.836C237.239 175.973 237.541 176.044 237.866 176.052C238.191 176.059 238.512 175.97 238.83 175.786C239.148 175.603 239.298 175.418 239.284 175.232C239.269 175.045 239.146 174.871 238.915 174.707ZM234.211 175.889C233.939 175.715 233.732 175.522 233.588 175.311C233.444 175.101 233.38 174.884 233.396 174.659C233.41 174.434 233.507 174.206 233.688 173.974C233.867 173.743 234.146 173.518 234.525 173.299C234.899 173.083 235.288 172.922 235.69 172.818C236.092 172.712 236.488 172.655 236.878 172.646C237.267 172.637 237.643 172.674 238.008 172.757C238.371 172.84 238.705 172.96 239.007 173.117C239.238 173.239 239.473 173.369 239.714 173.508C239.955 173.647 240.176 173.781 240.376 173.908C240.646 174.082 240.854 174.275 240.998 174.485C241.141 174.696 241.207 174.914 241.193 175.14C241.182 175.367 241.082 175.596 240.898 175.827C240.713 176.058 240.435 176.282 240.06 176.498C239.681 176.717 239.293 176.879 238.896 176.984C238.498 177.089 238.104 177.146 237.711 177.153C237.32 177.161 236.941 177.123 236.577 177.04C236.213 176.957 235.881 176.837 235.58 176.68C235.358 176.565 235.128 176.437 234.886 176.297C234.645 176.158 234.42 176.022 234.211 175.889Z" fill="#CFFFDC"/>
<path d="M242.812 170.963C242.873 171.004 242.962 171.06 243.077 171.129C243.191 171.198 243.313 171.27 243.439 171.342C243.564 171.415 243.689 171.485 243.811 171.553C243.934 171.622 244.031 171.673 244.103 171.709C244.231 171.771 244.367 171.822 244.511 171.865C244.655 171.906 244.806 171.928 244.964 171.931C245.124 171.934 245.286 171.915 245.453 171.875C245.62 171.836 245.79 171.764 245.964 171.664C246.138 171.564 246.261 171.469 246.332 171.38C246.404 171.291 246.448 171.208 246.459 171.134C246.472 171.058 246.462 170.989 246.428 170.925C246.395 170.861 246.359 170.806 246.317 170.758C246.262 170.696 246.232 170.646 246.23 170.609C246.227 170.572 246.268 170.529 246.356 170.479L247.362 169.896C247.409 169.87 247.466 169.857 247.533 169.857C247.599 169.857 247.655 169.87 247.701 169.896C247.958 170.05 248.139 170.23 248.248 170.434C248.354 170.638 248.385 170.852 248.34 171.074C248.293 171.295 248.175 171.519 247.986 171.744C247.796 171.969 247.533 172.179 247.194 172.376C246.825 172.589 246.441 172.747 246.041 172.851C245.641 172.954 245.244 173.011 244.849 173.02C244.456 173.028 244.075 172.991 243.711 172.909C243.347 172.826 243.017 172.708 242.72 172.553C242.499 172.438 242.269 172.31 242.028 172.17C241.787 172.032 241.561 171.896 241.35 171.762C241.08 171.594 240.874 171.403 240.733 171.192C240.591 170.98 240.528 170.76 240.541 170.534C240.553 170.308 240.651 170.078 240.833 169.845C241.016 169.613 241.29 169.39 241.658 169.177C241.997 168.982 242.362 168.829 242.751 168.719C243.14 168.609 243.526 168.542 243.912 168.515C244.296 168.489 244.665 168.505 245.018 168.568C245.372 168.63 245.682 168.735 245.949 168.884C245.996 168.91 246.018 168.943 246.017 168.982C246.018 169.02 245.996 169.052 245.949 169.079L244.941 169.661C244.854 169.711 244.779 169.737 244.714 169.734C244.651 169.733 244.565 169.716 244.457 169.683C244.375 169.659 244.278 169.638 244.169 169.618C244.059 169.6 243.938 169.593 243.807 169.601C243.676 169.608 243.534 169.634 243.38 169.674C243.227 169.716 243.063 169.787 242.889 169.887C242.715 169.989 242.593 170.087 242.525 170.183C242.455 170.28 242.422 170.373 242.428 170.464C242.433 170.557 242.471 170.644 242.543 170.727C242.615 170.81 242.705 170.889 242.812 170.963Z" fill="#CFFFDC"/>
<path d="M249.792 168.448L251.038 167.728L248.57 167.022L249.792 168.448ZM247.678 165.787C247.781 165.728 247.887 165.699 247.997 165.7C248.107 165.702 248.2 165.713 248.278 165.733L254.796 167.564C254.868 167.582 254.917 167.598 254.943 167.613C254.989 167.64 255.012 167.672 255.011 167.711C255.011 167.75 254.989 167.782 254.943 167.808L253.974 168.368C253.871 168.428 253.777 168.457 253.69 168.457C253.603 168.457 253.534 168.448 253.482 168.43L252.628 168.186L250.584 169.368L251.007 169.86C251.038 169.89 251.053 169.93 251.053 169.981C251.053 170.031 251.002 170.086 250.899 170.145L249.93 170.705C249.885 170.732 249.829 170.745 249.761 170.745C249.695 170.745 249.639 170.732 249.593 170.705C249.567 170.69 249.538 170.662 249.507 170.62L246.341 166.854C246.305 166.809 246.285 166.755 246.283 166.691C246.28 166.627 246.331 166.566 246.432 166.506L247.678 165.787Z" fill="#CFFFDC"/>
<path d="M254.105 164.765L254.973 164.263C255.188 164.139 255.325 164.013 255.384 163.883C255.444 163.754 255.366 163.628 255.15 163.504C254.935 163.379 254.716 163.334 254.492 163.369C254.27 163.402 254.051 163.482 253.836 163.605L252.967 164.108L254.105 164.765ZM252.644 162.917C252.982 162.722 253.321 162.568 253.659 162.455C253.997 162.344 254.331 162.274 254.662 162.249C254.993 162.224 255.319 162.246 255.642 162.318C255.965 162.388 256.275 162.51 256.572 162.682C256.957 162.905 257.196 163.134 257.291 163.373C257.386 163.611 257.354 163.853 257.195 164.1L259.978 164.606C260.024 164.614 260.061 164.627 260.086 164.641C260.132 164.668 260.155 164.7 260.155 164.738C260.155 164.777 260.132 164.81 260.086 164.837L259.04 165.44C258.937 165.5 258.841 165.529 258.751 165.528C258.662 165.526 258.581 165.52 258.509 165.507L256.011 165.05L255.303 165.458L256.949 166.409C257.006 166.442 257.034 166.482 257.034 166.529C257.034 166.577 257.006 166.617 256.949 166.649L255.942 167.231C255.885 167.264 255.816 167.28 255.735 167.28C255.652 167.28 255.583 167.264 255.526 167.231L250.561 164.361C250.505 164.329 250.476 164.289 250.476 164.241C250.476 164.194 250.505 164.154 250.561 164.121L252.644 162.917Z" fill="#CFFFDC"/>
<path d="M259.601 158.897C259.657 158.864 259.727 158.849 259.808 158.849C259.891 158.849 259.96 158.864 260.015 158.897L260.832 159.368C260.888 159.4 260.915 159.441 260.916 159.487C260.915 159.536 260.887 159.575 260.831 159.608L259.478 160.389L263.421 162.669C263.478 162.701 263.507 162.741 263.507 162.788C263.507 162.836 263.478 162.876 263.421 162.908L262.415 163.49C262.359 163.523 262.289 163.54 262.208 163.54C262.125 163.54 262.056 163.523 261.999 163.49L258.055 161.211L256.704 161.994C256.646 162.026 256.578 162.042 256.496 162.042C256.414 162.042 256.344 162.026 256.288 161.994L255.474 161.523C255.417 161.489 255.389 161.45 255.388 161.402C255.389 161.356 255.417 161.314 255.474 161.283L259.601 158.897Z" fill="#CFFFDC"/>
<path d="M208.556 191.699L207.25 192.454L208.556 193.209C208.795 193.346 208.795 193.571 208.556 193.709C208.317 193.847 207.93 193.847 207.691 193.709L206.384 192.954L205.078 193.709C204.839 193.847 204.452 193.847 204.212 193.709C203.973 193.571 203.973 193.346 204.212 193.209L205.518 192.454L204.212 191.699C203.973 191.561 203.973 191.337 204.212 191.199C204.452 191.06 204.839 191.06 205.078 191.199L206.384 191.954L207.691 191.199C207.93 191.06 208.317 191.06 208.556 191.199C208.795 191.337 208.795 191.561 208.556 191.699ZM202.778 190.369C200.836 191.492 200.836 193.312 202.778 194.434C204.721 195.556 207.87 195.556 209.812 194.434C211.754 193.312 211.754 191.492 209.812 190.369C207.87 189.247 204.721 189.247 202.778 190.369Z" fill="#CFFFDC"/>
<path d="M215.999 142.955C216.018 139.843 213.861 136.044 211.178 134.472C209.769 133.646 208.503 133.605 207.609 134.195L204.309 136.054L211.225 147.991L214.497 146.135L214.491 146.127C215.409 145.637 215.989 144.542 215.999 142.955Z" fill="#035314"/>
<path d="M207.75 136.417C210.433 137.99 212.591 141.788 212.571 144.901C212.551 148.012 210.36 149.259 207.678 147.686C204.995 146.113 202.837 142.315 202.857 139.203C202.876 136.091 205.068 134.844 207.75 136.417Z" fill="#8ADCA0"/>
<path d="M206.072 141.088C206.08 139.872 206.822 139.318 207.731 139.85C208.639 140.383 209.368 141.8 209.36 143.017C209.352 144.234 208.611 144.788 207.702 144.255C206.794 143.723 206.064 142.305 206.072 141.088Z" fill="#587D60"/>
<mask id="mask4_624_6696" style="mask-type:luminance" maskUnits="userSpaceOnUse" x="202" y="136" width="11" height="9">
<path d="M202.856 136.767H212.571V144.96H202.856V136.767Z" fill="white"/>
</mask>
<g mask="url(#mask4_624_6696)">
<g opacity="0.149994">
<path d="M212.571 144.9C212.577 143.852 212.333 142.727 211.909 141.635L203.532 136.767C203.11 137.354 202.863 138.174 202.857 139.203C202.857 139.241 202.86 139.281 202.861 139.32L212.568 144.96C212.568 144.939 212.571 144.921 212.571 144.9Z" fill="black"/>
</g>
</g>
<path d="M181.316 169.482C179.474 169.586 177.611 169.286 176.162 168.557L130.496 142.227C127.735 140.839 124.639 137.225 124.446 133.807L123.041 101.245L125.584 101.101L126.99 133.663C127.121 135.988 129.552 138.899 131.637 139.948L177.303 166.278C179.415 167.34 182.996 167.133 184.969 165.834L215.422 148.274C216.15 147.794 216.569 147.222 216.541 146.742C216.514 146.266 216.056 145.771 215.286 145.383L166.399 116.976C163.644 115.588 160.557 111.975 160.364 108.552L159.682 90.4939L162.225 90.3496L162.906 108.408C163.038 110.738 165.461 113.649 167.538 114.696L216.426 143.104C218.059 143.926 219.001 145.165 219.084 146.595C219.166 148.015 218.341 149.404 216.82 150.405L186.367 167.965C185.003 168.863 183.171 169.377 181.316 169.482Z" fill="#8ADCA0"/>
<path d="M173.104 168.75C173.124 165.638 170.965 161.841 168.283 160.267C166.875 159.442 165.608 159.401 164.714 159.991L161.414 161.849L168.331 173.786L171.601 171.93L171.597 171.922C172.514 171.432 173.094 170.338 173.104 168.75Z" fill="#035314"/>
<path d="M164.857 162.214C167.54 163.787 169.698 167.585 169.678 170.698C169.658 173.809 167.467 175.057 164.785 173.483C162.102 171.911 159.943 168.112 159.964 165C159.983 161.888 162.174 160.641 164.857 162.214Z" fill="#8ADCA0"/>
<path d="M163.177 166.885C163.185 165.668 163.927 165.113 164.836 165.646C165.743 166.178 166.473 167.597 166.465 168.813C166.457 170.03 165.715 170.584 164.807 170.052C163.899 169.519 163.169 168.101 163.177 166.885Z" fill="#587D60"/>
<path d="M139.379 149.285C139.405 146.173 137.253 142.371 134.573 140.793C133.166 139.964 131.9 139.922 131.005 140.51L127.701 142.363L134.596 154.312L137.87 152.463L137.866 152.454C138.784 151.966 139.366 150.873 139.379 149.285Z" fill="#035314"/>
<path d="M131.144 142.733C133.824 144.312 135.975 148.114 135.95 151.226C135.925 154.337 133.732 155.581 131.052 154.002C128.372 152.425 126.22 148.623 126.246 145.511C126.272 142.399 128.464 141.156 131.144 142.733Z" fill="#8ADCA0"/>
<path d="M129.455 147.401C129.466 146.184 130.209 145.632 131.116 146.165C132.023 146.7 132.75 148.119 132.74 149.335C132.73 150.552 131.987 151.105 131.08 150.571C130.173 150.036 129.445 148.617 129.455 147.401Z" fill="#587D60"/>
<path d="M117.621 61.784C116.649 58.6272 118.113 54.5627 120.874 52.7523L151.232 35.5776C153.992 33.7672 157.011 35.0244 157.983 38.1812L160.088 45.0198L158.005 46.2357L155.75 39.3268C155.212 37.6556 153.577 37.0821 152.115 38.0529L122.554 54.7838C120.789 55.9555 119.831 58.5801 120.428 60.6145L122.21 67.1747L119.727 68.6218L117.621 61.784Z" fill="#8ADCA0"/>
<path d="M164.557 94.7348L123.777 118.301L183.378 152.744L224.157 129.17L164.557 94.7348Z" fill="#41B059"/>
<mask id="mask5_624_6696" style="mask-type:luminance" maskUnits="userSpaceOnUse" x="123" y="94" width="102" height="59">
<path d="M123.777 94.7348H224.156V152.744H123.777V94.7348Z" fill="white"/>
</mask>
<g mask="url(#mask5_624_6696)">
<g opacity="0.5">
<path d="M164.557 94.7348L123.777 118.301L183.378 152.744L224.157 129.17L164.557 94.7348Z" fill="black"/>
</g>
</g>
<path d="M119.727 68.6219L160.088 45.0199L164.557 94.7347L123.777 118.301L119.727 68.6219Z" fill="#41B059"/>
<mask id="mask6_624_6696" style="mask-type:luminance" maskUnits="userSpaceOnUse" x="119" y="45" width="46" height="74">
<path d="M119.727 45.0198H164.556V118.301H119.727V45.0198Z" fill="white"/>
</mask>
<g mask="url(#mask6_624_6696)">
<g opacity="0.350006">
<path d="M119.727 68.6218L160.088 45.0197L164.557 94.7346L123.777 118.301L119.727 68.6218Z" fill="black"/>
</g>
</g>
<path d="M218.144 110.343C216.5 110.978 214.587 109.986 213.873 108.128L204.023 82.5419C203.309 80.6851 204.062 78.6651 205.706 78.0307C207.35 77.397 209.262 78.3889 209.978 80.2464L219.826 105.832C220.541 107.69 219.788 109.709 218.144 110.343ZM199.534 101.579C197.89 102.213 195.977 101.221 195.262 99.3641L185.413 73.7777C184.699 71.9208 185.452 69.9009 187.096 69.2672C188.74 68.6328 190.652 69.6247 191.367 71.4822L201.216 97.0679C201.931 98.9255 201.178 100.945 199.534 101.579ZM180.924 92.8149C179.28 93.4486 177.368 92.4574 176.653 90.5999L166.804 65.0134C166.089 63.1559 166.842 61.1367 168.486 60.5023C170.13 59.8686 172.043 60.8597 172.758 62.7173L182.606 88.3037C183.322 90.1613 182.568 92.1805 180.924 92.8149ZM160.087 45.0199L164.557 94.7348L224.157 129.17L233.567 87.4757L160.087 45.0199Z" fill="#41B059"/>
<mask id="mask7_624_6696" style="mask-type:luminance" maskUnits="userSpaceOnUse" x="160" y="45" width="74" height="85">
<path d="M160.088 45.0199H233.566V129.17H160.088V45.0199Z" fill="white"/>
</mask>
<g mask="url(#mask7_624_6696)">
<g opacity="0.229996">
<path d="M218.144 110.343C216.5 110.978 214.587 109.986 213.873 108.128L204.023 82.5418C203.309 80.6849 204.062 78.665 205.706 78.0306C207.35 77.3969 209.262 78.3888 209.978 80.2463L219.826 105.832C220.541 107.69 219.788 109.709 218.144 110.343ZM199.534 101.579C197.89 102.213 195.977 101.221 195.262 99.364L185.413 73.7775C184.699 71.9207 185.452 69.9008 187.096 69.2671C188.74 68.6327 190.652 69.6245 191.367 71.4821L201.216 97.0678C201.931 98.9254 201.178 100.945 199.534 101.579ZM180.924 92.8148C179.28 93.4484 177.368 92.4573 176.653 90.5998L166.804 65.0133C166.089 63.1558 166.842 61.1366 168.486 60.5022C170.13 59.8685 172.043 60.8596 172.758 62.7171L182.606 88.3036C183.322 90.1611 182.568 92.1804 180.924 92.8148ZM160.087 45.0198L164.557 94.7347L224.157 129.17L233.567 87.4756L160.087 45.0198Z" fill="#111111"/>
</g>
</g>
<path d="M180.473 135.053C178.828 135.687 176.916 134.695 176.201 132.838L166.352 107.252C165.637 105.395 166.391 103.375 168.035 102.741C169.679 102.107 171.591 103.098 172.306 104.956L182.155 130.542C182.87 132.399 182.117 134.418 180.473 135.053ZM161.863 126.289C160.219 126.923 158.306 125.93 157.591 124.074L147.743 98.4879C147.028 96.6303 147.782 94.6104 149.425 93.9767C151.069 93.3423 152.981 94.3342 153.697 96.1917L163.545 121.777C164.26 123.635 163.507 125.655 161.863 126.289ZM143.253 117.524C141.609 118.159 139.697 117.167 138.982 115.309L129.133 89.7229C128.418 87.8661 129.172 85.8462 130.815 85.2125C132.459 84.5781 134.372 85.5699 135.087 87.4275L144.935 113.013C145.65 114.871 144.897 116.891 143.253 117.524ZM119.727 68.6215L123.777 118.302L183.378 152.744L192.788 111.05L119.727 68.6215Z" fill="#41B059"/>
<mask id="mask8_624_6696" style="mask-type:luminance" maskUnits="userSpaceOnUse" x="119" y="68" width="74" height="85">
<path d="M119.727 68.622H192.788V152.744H119.727V68.622Z" fill="white"/>
</mask>
<g mask="url(#mask8_624_6696)">
<g opacity="0.149994">
<path d="M180.473 135.053C178.828 135.687 176.916 134.695 176.201 132.838L166.352 107.252C165.637 105.395 166.391 103.375 168.035 102.741C169.679 102.107 171.591 103.098 172.306 104.956L182.155 130.542C182.87 132.399 182.117 134.418 180.473 135.053ZM161.863 126.289C160.219 126.923 158.306 125.93 157.591 124.074L147.743 98.4879C147.028 96.6303 147.782 94.6104 149.425 93.9767C151.069 93.3423 152.981 94.3342 153.697 96.1917L163.545 121.777C164.26 123.635 163.507 125.655 161.863 126.289ZM143.253 117.524C141.609 118.159 139.697 117.167 138.982 115.309L129.133 89.7229C128.418 87.8661 129.172 85.8462 130.815 85.2125C132.459 84.5781 134.372 85.5699 135.087 87.4275L144.935 113.013C145.65 114.871 144.897 116.891 143.253 117.524ZM119.727 68.6215L123.777 118.302L183.378 152.744L192.788 111.05L119.727 68.6215Z" fill="#111111"/>
</g>
</g>
<path d="M192.788 111.05L233.567 87.484L224.157 129.178L183.378 152.744L192.788 111.05Z" fill="#41B059"/>
<mask id="mask9_624_6696" style="mask-type:luminance" maskUnits="userSpaceOnUse" x="183" y="87" width="51" height="66">
<path d="M183.378 87.4838H233.567V152.744H183.378V87.4838Z" fill="white"/>
</mask>
<g mask="url(#mask9_624_6696)">
<g opacity="0.399994">
<path d="M192.788 111.05L233.567 87.4841L224.157 129.178L183.378 152.745L192.788 111.05Z" fill="#7EB78A"/>
</g>
</g>
<path d="M203.079 13.5575L198.37 16.3228L198.386 2.04976L195.532 0.401031L182.611 7.86816L182.589 25.4771L175.054 29.7533L191.921 40.6956L205.931 15.2062L203.079 13.5575Z" fill="#035314"/>
<path d="M185.464 9.51665L185.442 27.1263L177.906 31.4018L191.921 40.6953L205.932 15.2067L198.364 19.6584L198.385 2.04952L185.464 9.51665Z" fill="#8ADCA0"/>
<path d="M182.611 7.86797L185.463 9.5167L185.442 27.1263L182.589 25.4776L182.611 7.86797Z" fill="#587D60"/>
<path d="M265.512 144.542L306.353 120.941L302.949 71.7708L265.512 93.4058V144.542Z" fill="#41B059"/>
<mask id="mask10_624_6696" style="mask-type:luminance" maskUnits="userSpaceOnUse" x="265" y="71" width="42" height="74">
<path d="M265.511 71.7711H306.352V144.543H265.511V71.7711Z" fill="white"/>
</mask>
<g mask="url(#mask10_624_6696)">
<g opacity="0.600006">
<path d="M265.511 144.542L306.352 120.941L302.949 71.7708L265.511 93.4058V144.542Z" fill="white"/>
</g>
</g>
<path d="M265.512 93.406V89.472L255.301 87.5057L292.738 65.8706L296.142 71.771H302.949L265.512 93.406Z" fill="#41B059"/>
<mask id="mask11_624_6696" style="mask-type:luminance" maskUnits="userSpaceOnUse" x="255" y="65" width="48" height="29">
<path d="M255.302 65.8709H302.948V93.4062H255.302V65.8709Z" fill="white"/>
</mask>
<g mask="url(#mask11_624_6696)">
<g opacity="0.300003">
<path d="M265.511 93.406V89.472L255.301 87.5057L292.738 65.8706L296.142 71.771H302.949L265.511 93.406Z" fill="white"/>
</g>
</g>
<path d="M292.738 65.8706V77.6713L296.141 75.7042L296.142 71.7709L292.738 65.8706Z" fill="#41B059"/>
<mask id="mask12_624_6696" style="mask-type:luminance" maskUnits="userSpaceOnUse" x="292" y="65" width="5" height="13">
<path d="M292.738 65.8708H296.142V77.6715H292.738V65.8708Z" fill="white"/>
</mask>
<g mask="url(#mask12_624_6696)">
<g opacity="0.100006">
<path d="M292.738 65.8707V77.6714L296.141 75.7044L296.142 71.7711L292.738 65.8707Z" fill="black"/>
</g>
</g>
<path d="M302.948 71.771H296.142V75.7043L302.948 71.771Z" fill="#41B059"/>
<mask id="mask13_624_6696" style="mask-type:luminance" maskUnits="userSpaceOnUse" x="296" y="71" width="7" height="5">
<path d="M296.141 71.7712H302.948V75.7045H296.141V71.7712Z" fill="white"/>
</mask>
<g mask="url(#mask13_624_6696)">
<g opacity="0.199997">
<path d="M302.948 71.771H296.141V75.7043L302.948 71.771Z" fill="black"/>
</g>
</g>
<path d="M255.301 87.5055L251.898 136.675L265.512 144.542V93.4058V89.4718L255.301 87.5055Z" fill="#41B059"/>
<mask id="mask14_624_6696" style="mask-type:luminance" maskUnits="userSpaceOnUse" x="251" y="87" width="15" height="58">
<path d="M251.898 87.5051H265.512V144.543H251.898V87.5051Z" fill="white"/>
</mask>
<g mask="url(#mask14_624_6696)">
<g opacity="0.100006">
<path d="M255.301 87.5056L251.898 136.675L265.512 144.543V93.4059V89.4719L255.301 87.5056Z" fill="black"/>
</g>
</g>
<path d="M265.512 89.4721L258.706 140.609L265.512 144.543V89.4721Z" fill="#41B059"/>
<mask id="mask15_624_6696" style="mask-type:luminance" maskUnits="userSpaceOnUse" x="258" y="89" width="8" height="56">
<path d="M258.705 89.4721H265.512V144.543H258.705V89.4721Z" fill="white"/>
</mask>
<g mask="url(#mask15_624_6696)">
<g opacity="0.199997">
<path d="M265.512 89.4721L258.706 140.609L265.512 144.543V89.4721Z" fill="black"/>
</g>
</g>
<path d="M265.512 144.542L259.273 136.345L251.898 136.675L265.512 144.542Z" fill="#41B059"/>
<path d="M266.338 86.9816C266.338 87.6508 266.807 87.922 267.385 87.587C267.965 87.2528 268.433 86.4393 268.433 85.7708C268.433 85.1016 267.965 84.8304 267.385 85.1654C266.807 85.4996 266.338 86.3131 266.338 86.9816Z" fill="#035314"/>
<path d="M280.272 79.1145C280.272 79.783 280.741 80.0542 281.32 79.7199C281.899 79.3857 282.368 78.5722 282.368 77.9037C282.368 77.2345 281.899 76.9633 281.32 77.2983C280.741 77.6325 280.272 78.446 280.272 79.1145Z" fill="#035314"/>
<path d="M267.385 86.2214C267.191 86.2214 267.033 86.0641 267.033 85.8698V77.2781C267.033 73.5355 270.238 68.6386 274.177 66.362C276.37 65.0947 278.453 64.8467 279.894 65.679C281.041 66.3417 281.672 67.6337 281.672 69.318V78.0024C281.672 78.1968 281.515 78.3541 281.32 78.3541C281.126 78.3541 280.968 78.1968 280.968 78.0024V69.318C280.968 67.8752 280.475 66.8275 279.543 66.2888C278.326 65.5855 276.497 65.8342 274.529 66.9718C270.783 69.136 267.737 73.7595 267.737 77.2781V85.8698C267.737 86.0641 267.58 86.2214 267.385 86.2214Z" fill="#035314"/>
<path d="M276.708 92.8821C276.708 93.5506 277.178 93.8217 277.756 93.4875C278.335 93.1533 278.805 92.3398 278.805 91.6713C278.805 91.0021 278.335 90.7309 277.756 91.0652C277.178 91.4001 276.708 92.2129 276.708 92.8821Z" fill="#8ADCA0"/>
<path d="M290.643 85.0146C290.643 85.6839 291.112 85.9543 291.691 85.6201C292.27 85.2858 292.739 84.4723 292.739 83.8038C292.739 83.1346 292.27 82.8635 291.691 83.1984C291.112 83.5327 290.643 84.3462 290.643 85.0146Z" fill="#8ADCA0"/>
<path d="M277.756 92.1213C277.561 92.1213 277.405 91.964 277.405 91.7697V83.178C277.405 79.4354 280.609 74.5385 284.547 72.2619C286.739 70.9953 288.824 70.7466 290.265 71.5789C291.412 72.2416 292.043 73.5336 292.043 75.2179V83.9023C292.043 84.0967 291.885 84.254 291.691 84.254C291.496 84.254 291.339 84.0967 291.339 83.9023V75.2179C291.339 73.7751 290.846 72.7274 289.914 72.1887C288.697 71.4854 286.869 71.7341 284.899 72.8717C281.154 75.0366 278.108 79.6594 278.108 83.178V91.7697C278.108 91.964 277.95 92.1213 277.756 92.1213Z" fill="#8ADCA0"/>
</g>
</svg>
