<svg width="260" height="225" viewBox="0 0 260 225" fill="none" xmlns="http://www.w3.org/2000/svg">
<path d="M185.169 207.088H179.397V207.254H185.169V207.088Z" fill="#EBEBEB"/>
<path d="M241.33 199.118H228.585V199.284H241.33V199.118Z" fill="#EBEBEB"/>
<path d="M28.7116 200.234H0.0263672V200.4H28.7116V200.234Z" fill="#EBEBEB"/>
<path d="M38.8335 200.234H34.6294V200.4H38.8335V200.234Z" fill="#EBEBEB"/>
<path d="M114.721 203.037H52.5024V203.203H114.721V203.037Z" fill="#EBEBEB"/>
<path d="M64.9862 41.1675C74.4038 37.2666 78.876 26.4698 74.9751 17.0521C71.0742 7.63451 60.2774 3.16232 50.8598 7.06324C41.4421 10.9641 36.9699 21.761 40.8708 31.1786C44.7718 40.5962 55.5686 45.0684 64.9862 41.1675Z" fill="#FAFAFA"/>
<path d="M202.909 100.596C202.909 100.068 203.119 99.5611 203.492 99.1874C203.866 98.8138 204.373 98.6039 204.901 98.6039C205.095 98.6017 205.288 98.6309 205.472 98.6902C205.443 98.4856 205.428 98.2792 205.426 98.0725C205.426 97.5181 205.535 96.9692 205.748 96.457C205.96 95.9449 206.271 95.4797 206.663 95.088C207.056 94.6963 207.522 94.3858 208.034 94.1742C208.546 93.9627 209.096 93.8542 209.65 93.8551C209.91 93.8536 210.171 93.8758 210.427 93.9215C210.843 93.2369 211.471 92.7063 212.215 92.4098C212.96 92.1132 213.78 92.0667 214.553 92.2774C215.326 92.4881 216.01 92.9445 216.501 93.5777C216.992 94.211 217.263 94.9867 217.275 95.7878H217.334C218.211 95.8265 219.039 96.2021 219.646 96.8362C220.252 97.4703 220.591 98.314 220.591 99.1916C220.591 100.069 220.252 100.913 219.646 101.547C219.039 102.181 218.211 102.557 217.334 102.595H204.848C204.328 102.582 203.833 102.365 203.471 101.991C203.109 101.617 202.907 101.117 202.909 100.596Z" fill="#F0F0F0"/>
<path opacity="0.45" d="M224.56 20.817L196.161 64.0541L194.912 65.9536L192.441 67.1026L104.559 107.942L113.246 137.683L115.232 144.484L108.345 150.169L49.0551 194.496H0L88.699 134.123L83.3259 104.867L81.8648 96.9036L88.7322 93.7422L182.399 50.618L212.904 12.8869L204.715 11.2664L230.438 0.593262L229.123 28.4151L224.56 20.817Z" fill="#E0E0E0"/>
<path d="M131.225 224.589C202.346 224.589 260 221.223 260 217.071C260 212.918 202.346 209.552 131.225 209.552C60.105 209.552 2.45068 212.918 2.45068 217.071C2.45068 221.223 60.105 224.589 131.225 224.589Z" fill="#F5F5F5"/>
<path d="M158.941 127.96L153.866 128.784L155.779 140.539L127.685 157.482L95.6723 150.316L93.7596 138.56L88.6787 139.384L91.2424 155.118L129.711 170.712L129.731 170.865L129.844 170.765L129.983 170.825L129.956 170.672L161.498 143.694L158.941 127.96Z" fill="#263238"/>
<path opacity="0.2" d="M158.941 127.96L153.866 128.784L155.779 140.539L127.685 157.482L95.6723 150.316L93.7596 138.56L88.6787 139.384L91.2424 155.118L129.711 170.712L129.731 170.865L129.844 170.765L129.983 170.825L129.956 170.672L161.498 143.694L158.941 127.96Z" fill="white"/>
<path d="M164.095 131.407L148.959 131.427L140.198 126.625L172.842 126.578L164.095 131.407Z" fill="#263238"/>
<path d="M175.572 127.362L137.475 127.415C137.185 127.415 136.906 127.3 136.7 127.094C136.495 126.889 136.379 126.61 136.379 126.319C136.386 126.035 136.504 125.765 136.708 125.566C136.911 125.368 137.184 125.257 137.469 125.257L175.565 125.204C175.856 125.205 176.134 125.321 176.34 125.526C176.547 125.731 176.664 126.009 176.668 126.299V126.299C176.659 126.584 176.54 126.855 176.335 127.053C176.13 127.251 175.857 127.362 175.572 127.362Z" fill="#263238"/>
<path d="M83.5183 142.073L98.6612 142.047L107.402 137.218L74.7579 137.271L83.5183 142.073Z" fill="#263238"/>
<path d="M72.0349 138.062L110.131 138.002C110.421 138 110.699 137.884 110.904 137.679C111.109 137.474 111.225 137.196 111.227 136.906V136.906C111.227 136.616 111.112 136.337 110.906 136.131C110.701 135.926 110.422 135.81 110.131 135.81L72.0282 135.877C71.8846 135.877 71.7424 135.905 71.6098 135.96C71.4773 136.015 71.3569 136.096 71.2557 136.198C71.1544 136.3 71.0743 136.421 71.02 136.554C70.9656 136.687 70.9381 136.829 70.939 136.973V136.973C70.939 137.116 70.9674 137.258 71.0225 137.391C71.0777 137.524 71.1585 137.644 71.2604 137.745C71.3622 137.846 71.4831 137.926 71.616 137.981C71.7489 138.035 71.8913 138.063 72.0349 138.062V138.062Z" fill="#263238"/>
<path d="M137.063 205.375H119.895V162.357C119.896 160.08 120.802 157.898 122.412 156.289C124.022 154.68 126.206 153.776 128.482 153.776C130.758 153.776 132.941 154.68 134.55 156.289C136.159 157.898 137.063 160.081 137.063 162.357V205.375Z" fill="#263238"/>
<path opacity="0.3" d="M137.063 205.375H119.895V162.357C119.896 160.08 120.802 157.898 122.412 156.289C124.022 154.68 126.206 153.776 128.482 153.776C130.758 153.776 132.941 154.68 134.55 156.289C136.159 157.898 137.063 160.081 137.063 162.357V205.375Z" fill="white"/>
<path d="M146.169 213.67H110.789L116.886 202.22H140.072L146.169 213.67Z" fill="#263238"/>
<path opacity="0.2" d="M146.169 213.67H110.789L116.886 202.22H140.072L146.169 213.67Z" fill="white"/>
<path d="M106.811 212.335H150.154C150.999 212.335 151.81 212.671 152.408 213.269C153.006 213.867 153.342 214.678 153.342 215.523V218.698H103.623V215.523C103.623 214.678 103.958 213.867 104.556 213.269C105.154 212.671 105.965 212.335 106.811 212.335V212.335Z" fill="#263238"/>
<path d="M128.482 166.349C130.188 166.349 131.571 164.966 131.571 163.26C131.571 161.555 130.188 160.172 128.482 160.172C126.777 160.172 125.394 161.555 125.394 163.26C125.394 164.966 126.777 166.349 128.482 166.349Z" fill="#263238"/>
<path d="M181.098 0.267826H200.179C201.736 0.267826 203.23 0.8864 204.331 1.98746C205.432 3.08853 206.05 4.58189 206.05 6.13903V22.7431C206.051 23.5147 205.9 24.2789 205.605 24.992C205.311 25.7051 204.878 26.3531 204.333 26.899C203.788 27.4449 203.14 27.8779 202.427 28.1734C201.715 28.4689 200.951 28.621 200.179 28.621H192.627L190.635 33.8612L188.642 28.621H181.098C179.539 28.621 178.044 28.0017 176.941 26.8994C175.839 25.7971 175.22 24.302 175.22 22.7431V6.13903C175.22 5.36746 175.372 4.60345 175.667 3.89069C175.963 3.17793 176.396 2.53039 176.942 1.98511C177.488 1.43983 178.136 1.0075 178.849 0.71284C179.562 0.418175 180.326 0.266953 181.098 0.267826Z" fill="#00C802"/>
<path opacity="0.7" d="M181.098 0.267826H200.179C201.736 0.267826 203.23 0.8864 204.331 1.98746C205.432 3.08853 206.05 4.58189 206.05 6.13903V22.7431C206.051 23.5147 205.9 24.2789 205.605 24.992C205.311 25.7051 204.878 26.3531 204.333 26.899C203.788 27.4449 203.14 27.8779 202.427 28.1734C201.715 28.4689 200.951 28.621 200.179 28.621H192.627L190.635 33.8612L188.642 28.621H181.098C179.539 28.621 178.044 28.0017 176.941 26.8994C175.839 25.7971 175.22 24.302 175.22 22.7431V6.13903C175.22 5.36746 175.372 4.60345 175.667 3.89069C175.963 3.17793 176.396 2.53039 176.942 1.98511C177.488 1.43983 178.136 1.0075 178.849 0.71284C179.562 0.418175 180.326 0.266953 181.098 0.267826Z" fill="white"/>
<path d="M190.635 11.0804C186.803 7.0954 182.506 8.73588 182.506 12.6146C182.506 16.4933 190.635 21.8664 190.635 21.8664C190.635 21.8664 198.764 16.5 198.764 12.6146C198.764 8.72924 194.467 7.0954 190.635 11.0804Z" fill="#00C802"/>
<path d="M63.7464 18.6718H44.665C43.8934 18.6709 43.1292 18.8221 42.4161 19.1168C41.703 19.4114 41.055 19.8438 40.5091 20.389C39.9632 20.9343 39.5301 21.5819 39.2347 22.2946C38.9392 23.0074 38.7871 23.7714 38.7871 24.543V41.147C38.7871 42.7059 39.4064 44.201 40.5087 45.3033C41.611 46.4056 43.1061 47.0249 44.665 47.0249H52.1899L54.1824 52.2651L56.1749 47.0249H63.7464C64.5179 47.0249 65.282 46.8728 65.9947 46.5773C66.7075 46.2819 67.355 45.8488 67.9003 45.3029C68.4456 44.757 68.8779 44.109 69.1726 43.3959C69.4672 42.6828 69.6184 41.9186 69.6176 41.147V24.543C69.6176 23.7719 69.4657 23.0085 69.1707 22.2962C68.8756 21.5838 68.4431 20.9366 67.8979 20.3914C67.3527 19.8462 66.7055 19.4137 65.9932 19.1187C65.2809 18.8236 64.5174 18.6718 63.7464 18.6718V18.6718Z" fill="#00C802"/>
<path opacity="0.7" d="M63.7464 18.6718H44.665C43.8934 18.6709 43.1292 18.8221 42.4161 19.1168C41.703 19.4114 41.055 19.8438 40.5091 20.389C39.9632 20.9343 39.5301 21.5819 39.2347 22.2946C38.9392 23.0074 38.7871 23.7714 38.7871 24.543V41.147C38.7871 42.7059 39.4064 44.201 40.5087 45.3033C41.611 46.4056 43.1061 47.0249 44.665 47.0249H52.1899L54.1824 52.2651L56.1749 47.0249H63.7464C64.5179 47.0249 65.282 46.8728 65.9947 46.5773C66.7075 46.2819 67.355 45.8488 67.9003 45.3029C68.4456 44.757 68.8779 44.109 69.1726 43.3959C69.4672 42.6828 69.6184 41.9186 69.6176 41.147V24.543C69.6176 23.7719 69.4657 23.0085 69.1707 22.2962C68.8756 21.5838 68.4431 20.9366 67.8979 20.3914C67.3527 19.8462 66.7055 19.4137 65.9932 19.1187C65.2809 18.8236 64.5174 18.6718 63.7464 18.6718V18.6718Z" fill="white"/>
<path d="M53.2126 37.0028C53.0863 37.0031 52.9615 36.976 52.8469 36.9232C52.7322 36.8705 52.6303 36.7934 52.5484 36.6973L48.8291 32.3205C48.6794 32.1443 48.6058 31.9159 48.6244 31.6855C48.6431 31.4551 48.7526 31.2415 48.9287 31.0918C49.1049 30.9421 49.3333 30.8684 49.5637 30.8871C49.7941 30.9058 50.0077 31.0153 50.1574 31.1914L53.2126 34.7912L58.2536 28.8536C58.3258 28.7618 58.4158 28.6855 58.5182 28.6292C58.6205 28.5729 58.7332 28.5379 58.8494 28.5261C58.9656 28.5143 59.083 28.526 59.1945 28.5605C59.3061 28.5951 59.4096 28.6517 59.4988 28.7271C59.588 28.8025 59.6612 28.8951 59.7138 28.9993C59.7665 29.1036 59.7976 29.2174 59.8054 29.3339C59.8131 29.4505 59.7974 29.5674 59.759 29.6777C59.7206 29.788 59.6603 29.8894 59.5819 29.976L53.8834 36.6973C53.8002 36.7936 53.6971 36.8707 53.5814 36.9234C53.4656 36.9761 53.3398 37.0032 53.2126 37.0028V37.0028Z" fill="white"/>
<path d="M60.8956 39.474C64.5943 35.7753 64.5943 29.7786 60.8956 26.08C57.197 22.3814 51.2003 22.3813 47.5017 26.08C43.803 29.7786 43.803 35.7753 47.5017 39.474C51.2003 43.1726 57.197 43.1726 60.8956 39.474Z" fill="#00C802"/>
<path d="M166.838 88.4753L167.09 85.4069L163.384 82.5111C163.113 82.2992 162.778 82.1846 162.434 82.1857H159.964C159.602 82.1872 159.252 82.3148 158.975 82.5463C158.697 82.7778 158.509 83.0989 158.443 83.4542L157.951 86.1972C157.882 86.5752 157.957 86.9653 158.161 87.2909C158.365 87.6165 158.684 87.8542 159.054 87.9573L161.372 88.6214C161.44 88.6407 161.506 88.6651 161.571 88.6945C162.142 88.9137 165.675 90.3815 166.838 88.4753Z" fill="#E4897B"/>
<path d="M172.948 88.6612L165.782 84.5035L164.653 88.628L171.268 92.7524L172.948 88.6612Z" fill="#E4897B"/>
<path d="M187.613 74.116C188.662 76.9652 187.248 98.3181 182.685 101.094C179.61 102.974 167.077 90.8861 167.077 90.8861L167.529 85.3802L178.109 91.6632C178.773 79.9872 178.109 72.1102 181.782 70.3103L187.613 74.116Z" fill="#263238"/>
<path opacity="0.3" d="M187.241 87.7313C186.524 93.1443 185.248 98.5306 183.329 100.543C183.133 100.75 182.91 100.929 182.665 101.074C182.391 101.2 182.094 101.269 181.793 101.277C181.492 101.285 181.192 101.232 180.911 101.121C176.388 99.8523 167.09 90.8662 167.09 90.8662L167.542 85.3603L178.122 91.6433C178.786 79.9673 178.122 72.0903 181.795 70.2904L187.613 74.116C188.144 75.5307 188.045 81.6476 187.241 87.7313Z" fill="white"/>
<path opacity="0.2" d="M187.241 87.7314C186.524 93.1444 185.248 98.5307 183.329 100.543C181.796 93.5509 181.701 86.3199 183.05 79.2899L187.241 87.7314Z" fill="black"/>
<path d="M222.973 124.201C222.973 124.201 206.369 116.895 187.772 123.815C187.772 123.815 182.944 84.4372 183.063 78.9977C183.183 73.5582 212.007 73.8371 212.007 73.8371C212.007 73.8371 213.462 89.6177 215.747 99.0753C218.031 108.533 223.843 122.321 222.973 124.201Z" fill="#263238"/>
<path d="M179.616 212.813L185.388 212.66C185.492 212.658 185.594 212.691 185.677 212.754C185.76 212.817 185.82 212.905 185.846 213.006L187.062 217.655C187.091 217.767 187.094 217.885 187.071 217.998C187.048 218.112 187 218.219 186.93 218.311C186.859 218.403 186.769 218.478 186.665 218.53C186.561 218.582 186.447 218.61 186.331 218.611C184.252 218.611 181.237 218.611 178.62 218.665C175.565 218.744 173.619 218.591 170.026 218.665C167.861 218.724 167.177 216.552 168.08 216.333C172.178 215.324 174.861 215.523 178.354 213.232C178.729 212.98 179.165 212.835 179.616 212.813V212.813Z" fill="#263238"/>
<path d="M208.979 212.813L214.751 212.66C214.855 212.658 214.956 212.691 215.039 212.754C215.122 212.817 215.182 212.905 215.209 213.006L216.424 217.655C216.455 217.767 216.459 217.884 216.437 217.998C216.415 218.112 216.367 218.219 216.298 218.311C216.228 218.404 216.137 218.479 216.034 218.531C215.93 218.583 215.816 218.61 215.7 218.611C213.615 218.611 210.6 218.611 207.983 218.665C204.928 218.744 202.982 218.591 199.395 218.665C197.223 218.724 196.539 216.552 197.443 216.333C201.547 215.324 204.224 215.523 207.717 213.232C208.092 212.981 208.528 212.836 208.979 212.813V212.813Z" fill="#263238"/>
<path d="M218.231 107.059C221.007 119.093 216.238 213.75 216.238 213.75H207.013L203.075 134.867L188.576 213.75L178.74 213.032C185.169 151.929 190.861 115.447 190.861 115.447V110.798L218.231 107.059Z" fill="#263238"/>
<path opacity="0.2" d="M178.74 213.032L188.583 213.75L199.986 151.65L203.075 134.867L207.013 213.75H216.238C216.238 213.75 221.007 119.093 218.231 107.065L190.867 110.831V115.48C190.867 115.48 185.175 151.923 178.74 213.032Z" fill="white"/>
<path d="M214.325 92.8852C214.485 93.649 214.644 94.3929 214.803 95.1102L215.062 96.2459C215.248 97.0362 215.428 97.8133 215.607 98.5505C215.7 98.9224 215.786 99.2944 215.879 99.653C216.935 103.99 217.812 107.138 218.018 108.533L190.86 113.541C189.612 110.499 188.542 107.563 187.626 104.827C187.513 104.495 187.4 104.163 187.3 103.831C187.068 103.133 186.855 102.449 186.636 101.772C186.53 101.426 186.43 101.108 186.324 100.736C186.125 100.071 185.932 99.4073 185.753 98.7431C185.653 98.3778 185.554 98.0192 185.467 97.6605C180.758 79.934 182.638 69.7657 182.638 69.7657C184.644 68.8331 186.704 68.0235 188.808 67.3415C189.246 67.1887 189.705 67.0625 190.136 66.9231C193.942 65.994 197.799 65.2844 201.686 64.7977C202.423 64.6981 203.167 64.6184 203.904 64.552H204.011C204.891 64.4759 205.778 64.578 206.619 64.8522C207.459 65.1264 208.236 65.567 208.902 66.1478C209.568 66.7286 210.111 67.4377 210.497 68.2327C210.883 69.0277 211.106 69.8924 211.151 70.7752C211.356 74.448 211.742 78.081 212.226 81.4882C212.738 85.1411 213.369 88.608 214.033 91.7628C214.086 92.055 214.146 92.3406 214.206 92.6195L214.325 92.8852Z" fill="#00C802"/>
<path d="M197.123 51.9331C197.177 55.8583 197.854 62.8852 200.829 64.6585C200.829 64.6585 194.653 69.9319 192.86 69.9718C191.598 69.9718 189.844 67.8265 189.844 67.8265C193.59 65.7012 192.866 62.6461 191.604 59.9496L197.123 51.9331Z" fill="#E4897B"/>
<path opacity="0.2" d="M194.872 55.2007L191.598 59.9428C191.906 60.5837 192.157 61.2504 192.348 61.9353C193.809 61.2711 195.53 58.9333 195.357 57.2197C195.317 56.5231 195.153 55.8392 194.872 55.2007Z" fill="black"/>
<path d="M192.827 69.9783C192.827 69.9783 194.414 71.3066 196.227 72.5619C198.259 71.0675 202.962 67.2021 202.244 64.4657C201.806 63.7086 199.588 63.5492 199.588 63.5492C199.588 63.5492 197.801 66.9231 192.827 69.9783Z" fill="#00C802"/>
<path d="M192.827 69.9783C191.875 71.0391 191.081 72.2313 190.469 73.5183C188.656 72.7279 188.629 67.4279 189.14 66.7571C189.92 66.1322 190.846 65.7161 191.83 65.5483C191.622 66.312 191.604 67.1149 191.778 67.8872C191.951 68.6594 192.312 69.3773 192.827 69.9783V69.9783Z" fill="#00C802"/>
<g opacity="0.5">
<path opacity="0.5" d="M192.826 69.9784C192.826 69.9784 194.414 71.3067 196.227 72.562C198.259 71.0676 202.961 67.2022 202.244 64.4659C201.806 63.7087 199.587 63.5493 199.587 63.5493C199.587 63.5493 197.801 66.9233 192.826 69.9784Z" fill="white"/>
<path opacity="0.5" d="M192.826 69.9783C191.874 71.0391 191.08 72.2313 190.468 73.5183C188.655 72.7279 188.629 67.4279 189.14 66.7571C189.919 66.1322 190.845 65.7161 191.83 65.5483C191.622 66.312 191.604 67.1149 191.777 67.8872C191.951 68.6594 192.311 69.3773 192.826 69.9783V69.9783Z" fill="white"/>
</g>
<path d="M224.514 125.19C224.148 126.16 222.123 126.459 222.123 126.459C222.887 120.913 220.987 116.496 219.466 113.587C215.674 106.467 205.034 98.4443 201.016 88.1166C200.836 87.6716 200.677 87.2266 200.531 86.7883C196.2 73.505 201.62 63.8746 201.62 63.8746C202.351 63.9676 203.061 64.0672 203.732 64.1801C204.244 64.2598 204.735 64.3528 205.207 64.4392C207.753 64.8839 210.255 65.5506 212.685 66.4317C212.685 66.4317 214.538 89.2058 216.424 99.4804C218.31 109.755 224.872 124.227 224.514 125.19Z" fill="#263238"/>
<path opacity="0.3" d="M224.514 125.19C224.148 126.16 222.123 126.459 222.123 126.459C222.887 120.913 220.987 116.496 219.466 113.587C216.969 108.905 211.496 103.824 206.927 97.9595C204.574 95.0845 202.636 91.8943 201.168 88.4819C201.109 88.3623 201.062 88.2361 201.016 88.1166C200.836 87.6716 200.677 87.2266 200.531 86.7883C196.2 73.505 201.62 63.8746 201.62 63.8746C202.351 63.9676 203.061 64.0672 203.732 64.1801C204.244 64.2598 204.735 64.3528 205.207 64.4392C207.753 64.8839 210.255 65.5506 212.685 66.4317C212.685 66.4317 213.13 71.8512 213.794 78.5991C214.047 81.103 214.325 83.7929 214.631 86.4562C215.182 91.3112 215.8 96.0799 216.424 99.4804C218.297 109.735 224.872 124.227 224.514 125.19Z" fill="white"/>
<path opacity="0.2" d="M202.623 74.9796C202.623 74.9796 200.724 82.0263 200.989 88.1167C200.81 87.6717 200.651 87.2267 200.504 86.7884C196.174 73.5051 201.594 63.8748 201.594 63.8748C202.324 63.9677 203.035 64.0674 203.706 64.1803L204.317 71.6588L200.146 72.5753L202.623 74.9796Z" fill="black"/>
<path d="M187.679 125.217L188.688 125.881C187.232 114.183 186.416 102.414 186.244 90.6271C186.244 89.6508 186.244 88.7143 186.244 87.8177C186.204 70.7288 188.708 67.501 188.901 67.3083L186.351 68.2647L181.934 70.0115C181.296 84.6297 187.679 125.217 187.679 125.217Z" fill="#263238"/>
<path opacity="0.3" d="M187.679 125.217L188.688 125.881C187.232 114.183 186.416 102.414 186.244 90.6271C186.244 89.6508 186.244 88.7143 186.244 87.8177C186.204 70.7288 188.708 67.501 188.901 67.3083L186.351 68.2647L181.934 70.0115C181.296 84.6297 187.679 125.217 187.679 125.217Z" fill="white"/>
<path opacity="0.2" d="M186.424 73.4054L183.695 75.3115C183.695 75.3115 184.804 83.6202 186.205 87.8177C186.165 70.7288 188.669 67.501 188.862 67.3083L186.351 68.2647C185.051 69.5881 183.98 71.1189 183.183 72.7943L186.424 73.4054Z" fill="black"/>
<path opacity="0.1" d="M212.114 76.3741C212.371 78.3216 213.014 80.1981 214.007 81.8933C213.801 79.9008 213.601 77.9482 213.416 76.0686C212.965 76.0773 212.521 76.1814 212.114 76.3741V76.3741Z" fill="black"/>
<path opacity="0.2" d="M199.986 151.651L203.075 134.867L202.477 125.987C202.477 125.987 198.246 141.389 199.986 151.651Z" fill="black"/>
<path d="M184.146 44.8264C183.229 46.5731 183.82 48.8114 184.079 50.2593C184.338 51.7071 184.518 53.6465 185.919 51.2489C187.321 48.8512 187.407 40.2769 184.146 44.8264Z" fill="#263238"/>
<path d="M197.164 48.9177C197.615 53.8657 198.439 54.5366 196.34 57.4124C193.185 61.7361 187.208 63.3898 185.561 58.5879C184.08 54.2377 182.366 46.2146 186.889 43.5712C187.888 42.9866 189.018 42.6648 190.175 42.6359C191.332 42.6071 192.477 42.8721 193.503 43.4062C194.53 43.9404 195.404 44.7261 196.044 45.69C196.684 46.6539 197.07 47.7645 197.164 48.9177V48.9177Z" fill="#FF8B7B"/>
<path d="M197.177 52.3117C194.627 52.7899 194.753 51.7006 194.852 51.4283C195.277 50.2461 194.188 48.8846 192.98 47.0847C191.771 45.2848 195.211 42.1101 198.293 42.3227C201.109 42.5219 201.441 51.5346 197.177 52.3117Z" fill="#263238"/>
<path d="M186.789 56.1439C186.789 56.1439 188.642 56.2501 191.883 54.4104C191.704 55.5926 191.086 56.6885 189.127 57.2132C187.168 57.7379 186.789 56.1439 186.789 56.1439Z" fill="white"/>
<path d="M199.906 51.8467C199.65 52.9662 198.975 53.9452 198.02 54.583C196.798 55.3534 195.875 54.1845 195.955 52.6702C196.021 51.302 196.745 49.2564 198.093 49.1103C199.441 48.9642 200.252 50.4121 199.906 51.8467Z" fill="#FF8B7B"/>
<path d="M187.015 51.1228C186.805 52.1648 186.452 53.1728 185.966 54.1182C186.212 54.2375 186.482 54.3022 186.756 54.3079C187.03 54.3136 187.302 54.2603 187.553 54.1514L187.015 51.1228Z" fill="#FF5652"/>
<path d="M197.894 40.2437C196.526 38.8423 187.693 39.3936 184.564 41.313C182.944 42.3026 183.077 43.89 183.734 44.687C186.059 47.503 188.383 45.1718 188.383 45.1718C188.75 44.7972 189.188 44.4988 189.671 44.2937C190.153 44.0886 190.672 43.9808 191.196 43.9764C191.721 43.9721 192.241 44.0714 192.727 44.2685C193.213 44.4657 193.655 44.7569 194.029 45.1253L198.731 42.814C198.82 42.3498 198.79 41.8705 198.644 41.421C198.497 40.9715 198.24 40.5665 197.894 40.2437V40.2437Z" fill="#263238"/>
<path d="M191.126 50.0069C191.193 50.4187 191.033 50.784 190.761 50.8238C190.489 50.8637 190.216 50.5714 190.15 50.1597C190.083 49.7479 190.243 49.3826 190.508 49.3427C190.774 49.3029 191.053 49.5951 191.126 50.0069Z" fill="#263238"/>
<path d="M186.47 50.7374C186.544 51.1492 186.377 51.5145 186.112 51.561C185.846 51.6075 185.567 51.302 185.501 50.8968C185.434 50.4917 185.594 50.1198 185.859 50.0733C186.125 50.0268 186.404 50.3323 186.47 50.7374Z" fill="#263238"/>
<path d="M192.328 48.2803C192.286 48.2936 192.241 48.2958 192.198 48.2865C192.155 48.2771 192.115 48.2567 192.083 48.2271C191.865 48.0097 191.6 47.8456 191.309 47.7477C191.017 47.6498 190.707 47.6206 190.402 47.6626C190.369 47.6764 190.334 47.683 190.298 47.6817C190.263 47.6805 190.228 47.6715 190.196 47.6554C190.164 47.6393 190.136 47.6165 190.114 47.5885C190.092 47.5605 190.076 47.528 190.068 47.4934C190.059 47.4587 190.059 47.4226 190.066 47.3876C190.073 47.3527 190.087 47.3197 190.109 47.2909C190.13 47.2621 190.157 47.2383 190.188 47.221C190.219 47.2038 190.254 47.1936 190.289 47.191C190.672 47.1239 191.065 47.1491 191.436 47.2646C191.807 47.3801 192.145 47.5826 192.421 47.8552C192.455 47.8827 192.48 47.9188 192.493 47.9597C192.507 48.0005 192.51 48.0444 192.5 48.0865C192.49 48.1285 192.469 48.167 192.439 48.1978C192.408 48.2285 192.37 48.2501 192.328 48.2603V48.2803Z" fill="#263238"/>
<path d="M184.199 49.4624C184.153 49.4759 184.105 49.4759 184.059 49.4624C184.028 49.4533 184 49.4381 183.975 49.4178C183.949 49.3975 183.929 49.3724 183.913 49.3441C183.898 49.3157 183.888 49.2846 183.885 49.2524C183.881 49.2203 183.884 49.1879 183.893 49.1569C183.995 48.7843 184.185 48.4418 184.448 48.1584C184.71 47.8751 185.037 47.6594 185.401 47.5297C185.432 47.5196 185.465 47.5159 185.497 47.5188C185.53 47.5218 185.561 47.5313 185.59 47.5468C185.618 47.5624 185.643 47.5836 185.663 47.6092C185.684 47.6348 185.698 47.6643 185.707 47.6957C185.716 47.7258 185.719 47.7574 185.716 47.7888C185.713 47.8201 185.704 47.8505 185.689 47.8783C185.674 47.906 185.654 47.9306 185.63 47.9506C185.605 47.9705 185.577 47.9855 185.547 47.9946C185.256 48.1012 184.995 48.2783 184.789 48.5101C184.583 48.7419 184.437 49.0211 184.365 49.3229C184.351 49.3579 184.328 49.3889 184.299 49.4132C184.27 49.4375 184.236 49.4544 184.199 49.4624V49.4624Z" fill="#263238"/>
<path d="M171.321 92.6728L141.5 89.1129L134.938 112.246L140.251 120.893L172.742 123.61L178.109 98.4975L171.321 92.6728Z" fill="#263238"/>
<path opacity="0.5" d="M134.938 112.239L137.004 115.613L137.468 116.364L140.251 120.893L172.742 123.61L178.102 98.4975L175.206 96.0136L174.316 95.2431L171.321 92.6728L141.5 89.1129L134.938 112.239Z" fill="white"/>
<path opacity="0.4" d="M178.102 98.4975L148.607 95.3428L141.5 89.1129L171.321 92.6728L178.102 98.4975Z" fill="white"/>
<path opacity="0.2" d="M148.606 95.3428L140.251 120.893L134.938 112.239L141.5 89.1129L148.606 95.3428Z" fill="white"/>
<path d="M137.003 115.613L137.468 116.363L145.193 92.427L175.206 96.0135L174.316 95.2431L144.648 91.9355L137.003 115.613Z" fill="#263238"/>
<path d="M165.117 94.32L163.557 93.0115L156.032 92.0087L157.407 93.4565L165.117 94.32Z" fill="#263238"/>
<path d="M168.02 94.7384C168.02 94.7384 168.02 86.9013 167.748 86.3898C167.475 85.8784 156.948 84.6697 156.158 84.5568C155.368 84.4439 152.266 92.2079 152.266 92.2079L152.93 93.0979L154.923 93.2706C154.923 93.2706 157.121 86.5825 157.374 86.4164C157.626 86.2504 165.762 87.24 166.008 87.406C166.253 87.5721 165.656 93.5695 165.656 93.5695L166.386 94.5192L168.02 94.7384Z" fill="#263238"/>
<path d="M136.778 108.653L139.062 111.402L139.248 110.824L140.71 106.301L140.889 105.757L141.201 104.787C141.201 104.787 140.597 105.531 139.773 106.381C138.938 107.333 137.919 108.105 136.778 108.653Z" fill="#00C802"/>
<path opacity="0.2" d="M137.501 108.858L139.248 110.851L140.709 106.328L140.889 105.783C140.158 106.766 138.83 108.36 137.501 108.858Z" fill="white"/>
<path opacity="0.2" d="M139.773 106.408C140.092 106.368 140.437 106.341 140.709 106.328L141.201 104.814C141.201 104.814 140.597 105.557 139.773 106.408Z" fill="black"/>
<path d="M135.702 103.14L135.483 107.171C137.103 106.342 138.934 106.011 140.743 106.222L140.922 105.657L142.051 102.15L142.171 101.785C142.171 101.785 138.531 101.533 135.702 103.14Z" fill="#00C802"/>
<path d="M139.581 96.1464C140.428 97.6196 141.514 98.9416 142.795 100.058L142.921 99.6332L143.267 98.5174L143.845 96.6578L144.123 95.7545L144.203 95.4955C143.632 94.7113 143.132 93.8778 142.709 93.0049L139.581 96.1464Z" fill="#00C802"/>
<path d="M146.123 90.667C146.553 91.2804 146.895 91.9511 147.139 92.6595L147.61 92.7192L148.274 92.7923L149.304 92.9251L150.3 93.0447L150.652 93.0845C150.558 91.5475 149.914 90.0956 148.839 88.9933L146.123 90.667Z" fill="#00C802"/>
<path opacity="0.2" d="M146.74 90.7201C147.101 91.3511 147.393 92.0191 147.61 92.7126L148.274 92.7857C148.215 92.7047 148.174 92.6113 148.156 92.5123C148.137 92.4133 148.141 92.3115 148.168 92.2145C148.237 92.0632 148.357 91.9413 148.507 91.8707C148.658 91.8002 148.828 91.7857 148.988 91.8297C149.149 91.8737 149.288 91.9735 149.381 92.111C149.474 92.2485 149.515 92.4147 149.497 92.5798C149.462 92.7118 149.388 92.8301 149.284 92.9185L150.28 93.038C150.161 92.1879 149.809 90.4478 148.812 89.498L146.74 90.7201Z" fill="white"/>
<path opacity="0.2" d="M135.98 103.286L135.881 106.554C135.881 106.554 138.664 105.438 140.922 105.657L142.051 102.15C139.963 101.991 137.87 102.382 135.98 103.286V103.286ZM139.52 102.848C139.692 102.869 139.855 102.938 139.99 103.047C140.124 103.156 140.225 103.301 140.281 103.465C140.338 103.629 140.346 103.805 140.307 103.974C140.268 104.143 140.182 104.297 140.059 104.419C139.936 104.541 139.781 104.626 139.612 104.664C139.443 104.703 139.267 104.693 139.103 104.635C138.94 104.578 138.796 104.476 138.687 104.341C138.579 104.206 138.511 104.043 138.491 103.871C138.431 103.379 138.896 102.921 139.52 102.848Z" fill="white"/>
<path opacity="0.2" d="M140.158 96.3057C140.949 97.5151 141.876 98.6294 142.921 99.6265L143.266 98.5107C143.041 98.4198 142.858 98.2487 142.751 98.0305C142.645 97.8122 142.623 97.5623 142.69 97.3289C142.756 97.0954 142.907 96.895 143.113 96.7661C143.319 96.6373 143.565 96.5892 143.804 96.6312C143.804 96.6312 143.838 96.6312 143.844 96.6312L144.123 95.7279C143.535 95.1306 143.044 94.4448 142.669 93.6956L140.158 96.3057Z" fill="white"/>
<path opacity="0.2" d="M214.605 86.4363C212.745 90.7998 209.849 96.3987 206.9 97.9595C204.548 95.0845 202.61 91.8943 201.142 88.4819C202.47 85.0216 205.306 78.1608 207.385 76.7262C208.953 75.6503 211.676 77.0915 213.768 78.5792C214.02 81.0831 214.299 83.773 214.605 86.4363Z" fill="black"/>
<path d="M178.494 95.1434L173.267 95.4224L176.382 101.26C176.382 101.26 180.772 100.038 180.367 97.634L178.494 95.1434Z" fill="#E4897B"/>
<path d="M170.032 98.2319L172.828 102.947L176.388 101.26L173.267 95.4225L170.032 98.2319Z" fill="#E4897B"/>
<path d="M186.484 94.0808L178.076 95.2365L178.773 99.2679L186.464 98.3647L186.484 94.0808Z" fill="#E4897B"/>
<path d="M212.658 66.4119C218.682 69.9718 210.712 96.3457 206.07 97.8334C201.427 99.3212 185.361 98.8297 185.361 98.8297L184.511 93.7223L202.623 91.2649C204.132 86.6688 205.244 81.9513 205.944 77.1647C206.244 75.001 206.997 72.925 208.154 71.0722C209.311 69.2193 210.846 67.6314 212.658 66.4119V66.4119Z" fill="#263238"/>
<path opacity="0.3" d="M212.658 66.4119C218.682 69.9718 210.712 96.3457 206.07 97.8334C201.427 99.3212 185.361 98.8297 185.361 98.8297L184.511 93.7223L202.623 91.2649C204.132 86.6688 205.244 81.9513 205.944 77.1647C206.244 75.001 206.997 72.925 208.154 71.0722C209.311 69.2193 210.846 67.6314 212.658 66.4119V66.4119Z" fill="white"/>
<path d="M65.978 89.9366C67.9705 93.4766 69.7438 97.4217 72.427 100.477C74.2601 102.277 76.2792 103.95 78.3182 105.724C80.1446 107.298 81.9844 108.892 83.771 110.546C84.0977 110.83 84.308 111.225 84.3617 111.655C84.4155 112.085 84.3087 112.519 84.062 112.875C83.8153 113.231 83.4459 113.484 83.0246 113.585C82.6033 113.686 82.1596 113.627 81.7785 113.421C77.3069 111.243 73.0315 108.683 69 105.77C68.4952 105.372 67.8178 104.847 67.3661 104.402C64.0055 101.134 61.6543 97.1959 59.6286 93.0249C57.8155 88.8274 63.7531 85.9317 65.9448 89.9366H65.978Z" fill="#DC897C"/>
<path d="M76.9037 104.037L71.1919 108.38C71.1919 108.38 67.9242 105.664 65.5133 103.286C64.5865 102.451 63.7737 101.498 63.0958 100.45C62.6109 99.4674 63.1556 96.4654 63.8463 93.6294C64.5835 90.6141 65.4801 87.7914 65.4801 87.7914C67.0409 89.6245 70.9395 98.0859 70.9395 98.0859L76.9037 104.037Z" fill="#00C802"/>
<path opacity="0.2" d="M65.5133 103.286C64.5865 102.451 63.7737 101.498 63.0958 100.45C62.6109 99.4674 63.1556 96.4654 63.8463 93.6294C64.8425 93.8685 66.3767 98.0859 65.5133 103.286Z" fill="black"/>
<path d="M63.3549 118.615C61.5617 124.294 56.4875 128.81 50.4569 124.207C44.4263 119.605 56.1355 96.8438 60.4193 94.9841C64.7032 93.1244 63.3549 118.615 63.3549 118.615Z" fill="#00C802"/>
<path opacity="0.2" d="M63.3549 118.615C61.5617 124.294 56.4875 128.81 50.4569 124.207C44.4263 119.605 56.1355 96.8438 60.4193 94.9841C64.7032 93.1244 63.3549 118.615 63.3549 118.615Z" fill="black"/>
<path d="M79.6201 218.691C75.7015 218.691 75.1835 218.631 72.9784 218.552C71.0922 218.485 70.6472 218.724 69.1329 218.691C67.8644 218.691 67.9109 217.449 68.3027 216.035C68.4953 215.331 68.8009 213.856 69.0665 212.714L74.8049 212.302C75.6085 213.843 77.4615 216.041 79.64 216.333C81.752 216.652 81.1809 218.691 79.6201 218.691Z" fill="#00C802"/>
<path d="M45.8474 114.119H60.459C61.3357 119.532 65.4469 145.334 66.1974 159.388C67.0741 175.932 72.3741 202.426 75.1835 212.78C74.3931 213.484 70.6805 213.783 68.9271 212.906C68.9271 212.906 53.6513 182.355 55.6438 163.247C44.0409 130.656 45.4688 116.516 45.8474 114.119Z" fill="#00C802"/>
<g opacity="0.7">
<path opacity="0.7" d="M45.8474 114.119H60.459C61.3357 119.532 65.4469 145.334 66.1974 159.388C67.0741 175.932 72.3741 202.426 75.1835 212.78C74.3931 213.484 70.6805 213.783 68.9271 212.906C68.9271 212.906 53.6513 182.355 55.6438 163.247C44.0409 130.656 45.4688 116.516 45.8474 114.119Z" fill="white"/>
</g>
<path d="M51.2539 218.691C47.3353 218.691 46.8172 218.631 44.6122 218.552C42.726 218.485 42.281 218.724 40.7667 218.691C39.4982 218.691 39.5447 217.449 39.9365 216.035C40.1291 215.331 40.4346 213.856 40.7003 212.714L46.4387 212.302C47.2423 213.843 49.0953 216.041 51.2738 216.333C53.4522 216.626 52.8146 218.691 51.2539 218.691Z" fill="#00C802"/>
<path opacity="0.2" d="M51.8248 151.783C50.005 145.806 48.6966 140.586 47.7667 136.129C48.6899 132.642 49.9917 129.653 51.7517 127.86C51.7716 127.86 54.322 137.577 51.8248 151.783Z" fill="black"/>
<path d="M39.8633 114.119H55.066C54.0233 122.129 50.8087 146.57 48.8229 159.488C46.3057 175.859 45.9802 202.134 46.6112 212.84C45.6947 213.371 42.3539 214.016 40.5474 213.451C40.5474 213.451 32.0062 180.336 37.6782 161.102C32.9294 126.127 38.9069 115.533 39.8633 114.119Z" fill="#00C802"/>
<g opacity="0.7">
<path opacity="0.7" d="M39.8633 114.119H55.066C54.0233 122.129 50.8087 146.57 48.8229 159.488C46.3057 175.859 45.9802 202.134 46.6112 212.84C45.6947 213.371 42.3539 214.016 40.5474 213.451C40.5474 213.451 32.0062 180.336 37.6782 161.102C32.9294 126.127 38.9069 115.533 39.8633 114.119Z" fill="white"/>
</g>
<path d="M63.9657 65.2763C63.9657 65.2763 65.4468 74.3355 62.5444 77.5235C59.642 80.7115 49.6331 81.369 46.3056 75.4845C42.9781 69.6 45.0171 60.9991 52.6616 59.2258C60.3062 57.4525 63.9657 65.2763 63.9657 65.2763Z" fill="#263238"/>
<path d="M42.4735 83.2418C42.7539 86.7101 42.847 90.1909 42.7525 93.6692C42.706 95.6085 42.6197 97.7604 42.4536 100.078C42.1314 104.795 41.5281 109.488 40.6471 114.132L60.572 117.453C60.572 117.453 67.5789 94.692 63.6338 86.3235C63.6139 86.3036 54.1827 79.8015 42.4735 83.2418Z" fill="#263238"/>
<path d="M105.396 109.104L103.855 108.865C103.571 108.819 103.279 108.842 103.005 108.932C102.731 109.023 102.483 109.177 102.281 109.383L100.362 111.309C99.9828 111.692 99.7018 112.161 99.5422 112.675C99.3827 113.19 99.3494 113.735 99.4452 114.265L99.5581 114.929C102.082 115.507 105.237 114.265 105.237 114.265L106.173 114.019C106.367 113.973 106.551 113.889 106.712 113.772C106.874 113.655 107.01 113.506 107.114 113.336C107.218 113.165 107.287 112.976 107.317 112.779C107.347 112.581 107.337 112.38 107.289 112.186L106.817 110.32C106.72 110.003 106.535 109.721 106.283 109.506C106.031 109.291 105.724 109.151 105.396 109.104V109.104Z" fill="#E4897B"/>
<path d="M56.0555 91.0989L49.1681 82.7504C51.4528 81.07 51.3731 75.3914 51.0543 72.2433L56.3676 78.161C55.5706 80.4324 55.2585 82.9363 58.5394 84.3045C58.5195 84.3178 56.0488 91.079 56.0555 91.0989Z" fill="#E4897B"/>
<path opacity="0.2" d="M53.2128 74.6741L56.3477 78.1676C56.1524 78.6983 56.0035 79.245 55.9027 79.8014C54.6408 79.4029 53.0069 77.6894 52.9937 76.3079C52.9657 75.7545 53.04 75.2006 53.2128 74.6741V74.6741Z" fill="black"/>
<path d="M49.0555 66.8104C49.3676 71.5459 49.4075 73.5517 51.7852 76.1087C55.3584 79.8944 61.037 78.7654 62.1528 74.1162C63.1357 69.9187 62.4516 62.8786 57.8623 60.7732C56.8884 60.2788 55.7994 60.0556 54.7095 60.1272C53.6197 60.1988 52.5692 60.5624 51.6684 61.18C50.7676 61.7975 50.0496 62.6462 49.5898 63.6369C49.1301 64.6276 48.9455 65.7238 49.0555 66.8104V66.8104Z" fill="#E4897B"/>
<path d="M53.4387 63.9214C50.4899 66.9167 55.2851 71.3401 50.0581 70.4899C44.8312 69.6398 47.8531 62.4801 51.1739 61.1916C54.4948 59.9032 53.4387 63.9214 53.4387 63.9214Z" fill="#263238"/>
<path d="M56.3016 68.4442C56.3016 68.8427 56.5274 69.1748 56.7798 69.188C57.0321 69.2013 57.2314 68.8825 57.2181 68.484C57.2048 68.0855 56.9989 67.7535 56.7465 67.7468C56.4942 67.7402 56.2949 68.0457 56.3016 68.4442Z" fill="#263238"/>
<path d="M61.0701 68.7298C61.0701 69.1283 61.2893 69.467 61.5416 69.4737C61.794 69.4803 61.9933 69.1748 61.9866 68.8095C61.98 68.4442 61.7608 68.0789 61.5084 68.0656C61.2561 68.0524 61.0568 68.3313 61.0701 68.7298Z" fill="#263238"/>
<path d="M61.3951 68.0458L62.325 67.8134C62.325 67.8134 61.8601 68.5439 61.3951 68.0458Z" fill="#263238"/>
<path d="M59.755 69.3275C60.1224 70.2553 60.6067 71.1325 61.1962 71.9377C60.997 72.0725 60.7698 72.1604 60.5317 72.195C60.2936 72.2295 60.0508 72.2096 59.8214 72.1369L59.755 69.3275Z" fill="#DE5753"/>
<path d="M57.6294 73.5117C57.8479 73.5597 58.0701 73.5886 58.2936 73.598C58.3081 73.5981 58.3225 73.5951 58.3358 73.5894C58.3492 73.5836 58.3612 73.5752 58.3712 73.5646C58.3811 73.554 58.3888 73.5415 58.3937 73.5278C58.3987 73.5142 58.4008 73.4996 58.3998 73.4851C58.4008 73.4697 58.3985 73.4544 58.3932 73.4399C58.388 73.4254 58.3798 73.4122 58.3692 73.401C58.3586 73.3898 58.3459 73.3808 58.3317 73.3748C58.3176 73.3687 58.3023 73.3655 58.2869 73.3656C57.7929 73.3465 57.3093 73.2174 56.8715 72.9876C56.4337 72.7577 56.0528 72.4331 55.7565 72.0372C55.7504 72.0221 55.7412 72.0085 55.7295 71.9973C55.7177 71.9861 55.7036 71.9776 55.6882 71.9723C55.6729 71.967 55.6565 71.9651 55.6404 71.9667C55.6242 71.9684 55.6085 71.9735 55.5945 71.9817C55.5805 71.9899 55.5684 72.0011 55.5591 72.0144C55.5498 72.0277 55.5434 72.0429 55.5405 72.0589C55.5376 72.0749 55.5382 72.0913 55.5422 72.1071C55.5462 72.1228 55.5536 72.1375 55.5639 72.1502C56.0624 72.8417 56.7974 73.3261 57.6294 73.5117V73.5117Z" fill="#263238"/>
<path d="M48.0724 71.2071C48.2101 71.6438 48.4379 72.0468 48.7411 72.39C49.0443 72.7332 49.416 73.009 49.8324 73.1996C50.8752 73.6114 51.4929 72.4292 51.2803 71.154C51.0944 70.005 50.3173 68.4043 49.2347 68.5438C48.1521 68.6833 47.654 70.0581 48.0724 71.2071Z" fill="#E4897B"/>
<path d="M55.2317 66.1795C55.2931 66.187 55.355 66.1703 55.4044 66.133C55.6117 65.9412 55.8637 65.8042 56.1375 65.7346C56.4112 65.665 56.6981 65.665 56.9718 65.7345C56.9997 65.7447 57.0294 65.7487 57.059 65.7463C57.0885 65.7439 57.1172 65.7352 57.143 65.7206C57.1689 65.7061 57.1913 65.6862 57.2088 65.6623C57.2262 65.6383 57.2383 65.6108 57.2441 65.5818C57.2588 65.5211 57.2497 65.4571 57.2189 65.4028C57.1881 65.3486 57.1377 65.3081 57.0781 65.2896C56.7327 65.1943 56.3687 65.1881 56.0202 65.2718C55.6717 65.3554 55.3502 65.526 55.0856 65.7677C55.043 65.8112 55.0192 65.8696 55.0192 65.9305C55.0192 65.9913 55.043 66.0497 55.0856 66.0932C55.1212 66.1399 55.1737 66.1708 55.2317 66.1795V66.1795Z" fill="#263238"/>
<path d="M62.3985 66.6112C62.4521 66.6311 62.511 66.6311 62.5645 66.6112C62.589 66.5929 62.6095 66.57 62.6251 66.5437C62.6406 66.5174 62.6509 66.4884 62.6552 66.4581C62.6595 66.4279 62.6578 66.3971 62.6503 66.3676C62.6427 66.338 62.6294 66.3102 62.611 66.2858C62.4074 65.9717 62.1345 65.7084 61.8133 65.5161C61.4921 65.3238 61.1311 65.2077 60.758 65.1766C60.7283 65.1765 60.699 65.1826 60.6718 65.1945C60.6446 65.2064 60.6202 65.2239 60.6002 65.2458C60.5802 65.2677 60.565 65.2935 60.5556 65.3216C60.5461 65.3498 60.5427 65.3796 60.5455 65.4091C60.5487 65.4715 60.5749 65.5304 60.6191 65.5746C60.6632 65.6188 60.7222 65.645 60.7846 65.6482C61.08 65.6749 61.3653 65.7691 61.6186 65.9234C61.8719 66.0776 62.0865 66.288 62.2457 66.5382C62.2861 66.5803 62.3404 66.6063 62.3985 66.6112V66.6112Z" fill="#263238"/>
<path d="M56.6333 67.7602L57.5565 67.5277C57.5565 67.5277 57.0982 68.2516 56.6333 67.7602Z" fill="#263238"/>
<path d="M58.0216 62.0882C58.0216 62.0882 58.3471 65.1168 53.5983 67.1027C54.8548 66.3414 55.7631 65.1183 56.1288 63.6955C56.1288 63.6955 54.3222 67.541 50.7291 67.355C47.136 67.1691 47.7204 76.0556 49.341 78.8783C49.341 78.8783 44.7583 76.0157 44.3465 72.6551C44.3465 72.6551 44.7915 75.8962 46.6511 77.5499C46.6511 77.5499 43.596 76.1751 42.1348 70.3172C40.3482 63.204 45.8674 57.7645 50.1911 56.7749C56.6867 55.2938 58.5729 57.6383 58.5729 57.6383C58.5729 57.6383 60.6185 56.496 63.4943 60.4477C66.3702 64.3995 67.725 72.8211 64.2448 77.0917C64.7195 73.8276 64.4238 70.4977 63.3814 67.3683C63.3814 67.3683 60.4126 66.5381 58.7323 62.5066C58.6863 63.3214 58.4181 64.1081 57.9568 64.7813C57.4955 65.4545 56.8587 65.9886 56.1155 66.3256C56.1155 66.3256 57.8755 65.2563 58.0216 62.0882Z" fill="#263238"/>
<path d="M60.8905 118.642L61.0233 115.806L40.6667 112.432L39.5177 114.736L60.8905 118.642Z" fill="#00C802"/>
<path opacity="0.7" d="M60.8905 118.642L61.0233 115.806L40.6667 112.432L39.5177 114.736L60.8905 118.642Z" fill="white"/>
<path d="M46.5516 115.753L39.817 114.63L40.541 112.784L46.8704 113.833L46.5516 115.753Z" fill="#263238"/>
<path d="M59.1041 115.859L61.1165 116.198L60.977 118.144L58.7853 117.785L59.1041 115.859Z" fill="#263238"/>
<path d="M47.5149 113.931L47.1964 115.851L58.1056 117.661L58.4241 115.741L47.5149 113.931Z" fill="#263238"/>
<path d="M52.0643 116.815L55.0127 117.304C55.2154 117.338 55.4069 117.201 55.4405 116.998L55.6851 115.524C55.7187 115.322 55.5817 115.13 55.3791 115.096L52.4306 114.607C52.228 114.574 52.0365 114.711 52.0028 114.913L51.7583 116.388C51.7246 116.59 51.8616 116.782 52.0643 116.815Z" fill="white"/>
<path d="M51.2008 92.3674C51.2063 93.1013 51.1507 93.8344 51.0347 94.5591C50.623 97.1627 49.2946 100.749 47.5811 104.316C44.5326 110.685 40.2753 117.014 37.8644 117.672L40.9328 110.492L41.6966 97.0033L42.115 89.5447L42.4737 83.2418C42.4737 83.2418 45.2964 82.2123 46.8704 82.2389C46.8771 82.2389 51.141 86.2969 51.2008 92.3674Z" fill="#00C802"/>
<path d="M60.3857 84.5834C61.2853 88.3399 61.8213 92.1743 61.9864 96.0336C62.2454 102.323 63.3546 118.615 63.3546 118.615C63.3546 118.615 65.7389 93.264 65.4799 87.7647C65.4732 87.7913 62.7767 85.1014 60.3857 84.5834Z" fill="#00C802"/>
<path d="M79.9389 134.223C78.2652 136.322 74.0278 135.724 70.4812 132.895C66.9346 130.065 65.407 126.067 67.074 123.975C68.7411 121.883 72.9851 122.467 76.5384 125.303C80.0916 128.139 81.6126 132.124 79.9389 134.223Z" fill="#263238"/>
<path d="M88.1744 129.395C88.7808 129.342 89.3439 129.059 89.7485 128.604C91.389 126.545 88.3405 121.378 82.9342 117.074C77.5279 112.77 71.8161 110.944 70.1756 113.003C69.819 113.498 69.669 114.113 69.7572 114.716C69.4986 114.841 69.2716 115.023 69.093 115.248C68.7409 115.74 68.5977 116.351 68.6945 116.948C68.4178 117.068 68.174 117.252 67.9839 117.486C67.8092 117.73 67.6862 118.008 67.6222 118.301C67.5583 118.595 67.5548 118.898 67.6119 119.193C67.3224 119.303 67.0662 119.486 66.8681 119.724C66.6964 119.971 66.5772 120.251 66.5178 120.545C66.4584 120.84 66.46 121.144 66.5227 121.438C66.2257 121.541 65.9618 121.722 65.7589 121.963C64.4306 123.676 66.9345 127.94 71.4242 131.553C75.914 135.166 80.6694 136.647 82.0508 134.934C82.2428 134.683 82.3622 134.384 82.3962 134.07C82.6967 134.065 82.993 133.999 83.2671 133.876C83.5411 133.752 83.7872 133.574 83.9902 133.353C84.1776 133.106 84.2988 132.816 84.3422 132.509C84.6421 132.498 84.9366 132.426 85.2081 132.298C85.4797 132.17 85.7228 131.989 85.9229 131.766C86.1103 131.53 86.2358 131.252 86.2882 130.955C86.8929 130.912 87.4573 130.636 87.8623 130.185C88.0243 129.948 88.1309 129.678 88.1744 129.395V129.395Z" fill="#263238"/>
<path opacity="0.3" d="M88.1744 129.395C88.7808 129.342 89.3439 129.059 89.7485 128.604C91.389 126.545 88.3405 121.378 82.9342 117.074C77.5279 112.77 71.8161 110.944 70.1756 113.003C69.819 113.498 69.669 114.113 69.7572 114.716C69.4986 114.841 69.2716 115.023 69.093 115.248C68.7409 115.74 68.5977 116.351 68.6945 116.948C68.4178 117.068 68.174 117.252 67.9839 117.486C67.8092 117.73 67.6862 118.008 67.6222 118.301C67.5583 118.595 67.5548 118.898 67.6119 119.193C67.3224 119.303 67.0662 119.486 66.8681 119.724C66.6964 119.971 66.5772 120.251 66.5178 120.545C66.4584 120.84 66.46 121.144 66.5227 121.438C66.2257 121.541 65.9618 121.722 65.7589 121.963C64.4306 123.676 66.9345 127.94 71.4242 131.553C75.914 135.166 80.6694 136.647 82.0508 134.934C82.2428 134.683 82.3622 134.384 82.3962 134.07C82.6967 134.065 82.993 133.999 83.2671 133.876C83.5411 133.752 83.7872 133.574 83.9902 133.353C84.1776 133.106 84.2988 132.816 84.3422 132.509C84.6421 132.498 84.9366 132.426 85.2081 132.298C85.4797 132.17 85.7228 131.989 85.9229 131.766C86.1103 131.53 86.2358 131.252 86.2882 130.955C86.8929 130.912 87.4573 130.636 87.8623 130.185C88.0243 129.948 88.1309 129.678 88.1744 129.395V129.395Z" fill="white"/>
<path d="M110.637 117.42C112.968 114.5 114.522 111.037 115.155 107.355C115.789 103.673 115.48 99.8906 114.259 96.3597C113.037 92.8288 110.942 89.6642 108.169 87.1605C105.396 84.6567 102.034 82.8952 98.3975 82.0397C94.7605 81.1842 90.9662 81.2627 87.3677 82.2677C83.7692 83.2727 80.4834 85.1717 77.816 87.7879C75.1486 90.4041 73.1864 93.6525 72.1119 97.2309C71.0373 100.809 70.8854 104.601 71.6703 108.254C71.8051 108.84 71.7925 109.45 71.6337 110.029C71.475 110.609 71.1749 111.14 70.7604 111.575C70.7154 111.614 70.6752 111.659 70.6408 111.708C68.9738 113.8 72.0688 119.014 77.5614 123.417C83.0541 127.82 88.8522 129.64 90.5193 127.548L90.6189 127.409C90.9541 126.908 91.4077 126.497 91.9394 126.213C92.4711 125.93 93.0646 125.781 93.6674 125.781C96.9383 125.73 100.157 124.953 103.092 123.507C106.026 122.061 108.603 119.982 110.637 117.42V117.42Z" fill="#00C802"/>
<path opacity="0.7" d="M110.637 117.42C112.968 114.5 114.522 111.037 115.155 107.355C115.789 103.673 115.48 99.8906 114.259 96.3597C113.037 92.8288 110.942 89.6642 108.169 87.1605C105.396 84.6567 102.034 82.8952 98.3975 82.0397C94.7605 81.1842 90.9662 81.2627 87.3677 82.2677C83.7692 83.2727 80.4834 85.1717 77.816 87.7879C75.1486 90.4041 73.1864 93.6525 72.1119 97.2309C71.0373 100.809 70.8854 104.601 71.6703 108.254C71.8051 108.84 71.7925 109.45 71.6337 110.029C71.475 110.609 71.1749 111.14 70.7604 111.575C70.7154 111.614 70.6752 111.659 70.6408 111.708C68.9738 113.8 72.0688 119.014 77.5614 123.417C83.0541 127.82 88.8522 129.64 90.5193 127.548L90.6189 127.409C90.9541 126.908 91.4077 126.497 91.9394 126.213C92.4711 125.93 93.0646 125.781 93.6674 125.781C96.9383 125.73 100.157 124.953 103.092 123.507C106.026 122.061 108.603 119.982 110.637 117.42V117.42Z" fill="white"/>
<path d="M83.087 122.965C83.054 122.967 83.0213 122.958 82.9934 122.94C82.9656 122.923 82.944 122.897 82.9316 122.866C82.9192 122.835 82.9166 122.802 82.9242 122.769C82.9318 122.737 82.9493 122.708 82.9741 122.686C83.2929 122.388 90.6452 115.5 96.968 115.978L94.132 113.72C94.1087 113.7 94.0913 113.674 94.0819 113.645C94.0726 113.615 94.0715 113.584 94.0789 113.554L94.8958 110.645L89.4829 113.302C89.4558 113.315 89.4255 113.321 89.3954 113.317C89.3653 113.314 89.3368 113.303 89.3131 113.284C89.2895 113.265 89.2716 113.24 89.2617 113.211C89.2518 113.183 89.2502 113.152 89.2571 113.122L90.6186 107.218L85.5976 109.317C85.5718 109.33 85.5433 109.336 85.5145 109.336C85.4857 109.336 85.4573 109.33 85.4315 109.317C85.4092 109.299 85.3925 109.275 85.3831 109.248C85.3737 109.221 85.3721 109.192 85.3784 109.164L86.3215 103.811L83.6183 105.272C83.5926 105.289 83.5626 105.297 83.532 105.297C83.5014 105.297 83.4714 105.289 83.4457 105.272L80.4835 102.914C80.6495 104.681 81.0613 112.173 76.6313 117.732C76.6033 117.759 76.5664 117.774 76.5276 117.776C76.4888 117.778 76.4507 117.765 76.4205 117.741C76.3903 117.716 76.3701 117.682 76.3636 117.643C76.3572 117.605 76.365 117.565 76.3856 117.532C81.3203 111.336 80.1381 102.655 80.1248 102.569C80.1207 102.537 80.1261 102.505 80.1403 102.477C80.1545 102.449 80.1769 102.425 80.2045 102.41C80.2316 102.393 80.2626 102.384 80.2942 102.384C80.3258 102.384 80.3568 102.393 80.3839 102.41L83.5586 104.94L86.461 103.339C86.487 103.323 86.5168 103.315 86.5473 103.315C86.5778 103.315 86.6076 103.323 86.6336 103.339C86.6571 103.356 86.6752 103.38 86.6858 103.407C86.6964 103.434 86.699 103.464 86.6934 103.492L85.7437 108.878L90.778 106.746C90.8033 106.732 90.8319 106.724 90.861 106.724C90.8902 106.724 90.9188 106.732 90.9441 106.746C90.9669 106.765 90.984 106.79 90.9933 106.819C91.0027 106.847 91.0041 106.877 90.9972 106.906L89.6689 112.79L95.1017 110.134C95.1277 110.118 95.1576 110.11 95.1881 110.11C95.2185 110.11 95.2484 110.118 95.2744 110.134C95.298 110.153 95.315 110.18 95.3233 110.21C95.3316 110.239 95.3308 110.271 95.3209 110.3L94.4376 113.481L97.6189 116.012C97.6449 116.034 97.6634 116.064 97.6717 116.097C97.68 116.13 97.6778 116.166 97.6654 116.198C97.6525 116.23 97.6293 116.257 97.5992 116.275C97.5692 116.293 97.5341 116.301 97.4994 116.297C91.2297 115.374 83.2995 122.786 83.2198 122.859C83.2136 122.89 83.1969 122.917 83.1727 122.936C83.1484 122.956 83.1181 122.966 83.087 122.965Z" fill="#263238"/>
<path opacity="0.2" d="M109.972 100.603C107.315 104.01 101.185 103.672 96.277 99.8459C91.3689 96.0203 89.5358 90.1624 92.1858 86.7553C94.8358 83.3481 100.973 83.6868 105.881 87.5124C110.789 91.338 112.629 97.1959 109.972 100.603Z" fill="white"/>
<path opacity="0.2" d="M92.312 118.33C90.3793 120.814 85.9029 120.568 82.3496 117.778C78.7963 114.989 77.4348 110.712 79.3675 108.228C81.3002 105.744 85.7767 105.983 89.3299 108.772C92.8832 111.562 94.2447 115.839 92.312 118.33Z" fill="white"/>
<path opacity="0.2" d="M51.2007 92.3674C51.2062 93.1014 51.1507 93.8345 51.0347 94.5592C50.6229 97.1627 49.2946 100.749 47.581 104.316C45.3403 102.119 43.3653 99.6671 41.6965 97.0099L42.115 89.5514C44.4727 88.781 47.3021 88.2231 48.7566 89.1595C49.8108 90.0232 50.6478 91.1218 51.2007 92.3674V92.3674Z" fill="black"/>
<path d="M47.3219 87.0939C48.5904 90.5609 49.6265 94.0743 51.1143 97.342C52.064 99.009 53.7045 100.238 55.1989 101.626C57.4636 103.618 59.8879 105.518 62.332 107.411L69.7308 113.103C70.0779 113.366 70.3138 113.75 70.3922 114.179C70.4705 114.608 70.3857 115.051 70.1544 115.42C69.923 115.79 69.5618 116.059 69.1418 116.176C68.7218 116.293 68.2733 116.249 67.8844 116.051C65.0418 114.624 62.2855 113.103 59.5558 111.482C56.8261 109.861 54.1495 108.161 51.526 106.235C49.4671 104.688 47.1426 102.954 45.615 100.709C45.1112 99.9462 44.6521 99.1545 44.2402 98.3382C42.7748 95.4209 41.568 92.3806 40.6338 89.2525C39.4117 84.8225 45.7345 82.7902 47.3219 87.0939V87.0939Z" fill="#DC897C"/>
<path d="M42.4736 83.2418C44.1037 83.2958 45.6617 83.9266 46.8703 85.0218C49.3742 87.4991 50.7756 95.0639 52.4427 97.9663C53.585 99.9588 58.719 104.462 58.719 104.462L52.4427 108.839C52.4427 108.839 47.3684 104.336 45.5885 101.373C43.8085 98.4113 36.9677 87.1537 42.4736 83.2418Z" fill="#00C802"/>
<path d="M67.9108 112.478L72.6729 111.097L71.7763 116.523C71.7763 116.523 67.4526 117.499 67.0408 115.254L67.9108 112.478Z" fill="#E4897B"/>
<path d="M77.4152 112.379L75.0574 116.789L71.7765 116.523L72.6731 111.097L77.4152 112.379Z" fill="#E4897B"/>
</svg>
