<svg width="200" height="133" viewBox="0 0 200 133" fill="none" xmlns="http://www.w3.org/2000/svg">
<path opacity="0.5" d="M194.128 68.0939L189.676 89.6571L186.81 86.8611L181.934 90.341L178.208 85.712L169.852 91.7879L162.711 79.8455L154.746 84.5117L151.588 80.1572L141.474 85.8562L138.431 79.3384L145.521 45L183.53 52.8484L194.128 68.0939Z" fill="#EBEBEB"/>
<path opacity="0.5" d="M188.726 93.9652L182.199 125.601L131 115.031L137.481 83.6511L140.524 90.1643L150.642 84.4653L153.797 88.8198L161.766 84.1582L168.903 96.1006L177.263 90.0247L180.984 94.6491L185.865 91.1738L188.726 93.9652Z" fill="#EBEBEB"/>
<g opacity="0.4">
<path d="M63.3199 86.146L11.1447 89.3746L6.99951 22.4006L45.7436 20L59.9656 31.9331L63.3199 86.146Z" fill="#EBEBEB"/>
<path d="M45.7441 20L59.9661 31.9331L46.5304 32.7658L45.7441 20Z" fill="#DBDBDB"/>
<path d="M31.2978 65.0665L31.0931 63.5545C30.5674 60.4235 31.4234 56.9203 34.145 53.259C36.6014 50.0024 37.9319 47.6763 37.783 45.0338C37.6156 42.0563 35.6383 40.1768 31.9584 40.3257C29.8553 40.4349 27.8352 41.1813 26.1663 42.4657L24.5613 38.8695C26.4222 37.3576 29.6788 36.241 32.7725 36.0782C39.4858 35.706 42.7517 39.679 43.0075 44.1126C43.2308 48.081 41.1745 51.0631 38.56 54.5477C36.1594 57.7252 35.3732 60.3444 35.7128 63.3079L35.857 64.8246L31.2978 65.0665ZM30.4697 73.3056C30.3487 71.147 31.7211 69.5466 33.7635 69.435C35.8058 69.3233 37.2945 70.7562 37.4155 72.9195C37.5272 74.9618 36.2757 76.6087 34.117 76.7297C32.0561 76.846 30.5674 75.348 30.4511 73.3056H30.4697Z" fill="#DBDBDB"/>
</g>
<path d="M200 132.17C200 132.218 155.226 132.26 100.003 132.26C44.7812 132.26 0 132.229 0 132.17C0 132.111 44.7674 132.08 100.003 132.08C155.24 132.08 200 132.118 200 132.17Z" fill="#263238"/>
<path d="M73.6721 61.0502L61.4089 124.032L59.8154 132.277L141.57 131.882C145.242 131.865 148.498 128.605 149.672 123.762L164.173 64.3032C165.071 60.6276 163.103 56.8029 160.318 56.8064L77.552 56.893C75.7506 56.8895 74.1363 58.594 73.6721 61.0502Z" fill="#73D287"/>
<g opacity="0.5">
<path opacity="0.67" d="M73.6711 61.0503L61.408 124.032L59.8145 132.277L141.569 131.882C145.241 131.865 148.497 128.605 149.671 123.762L164.172 64.3033C165.07 60.6277 163.102 56.8031 160.317 56.8065L77.551 56.8931C75.7496 56.8897 74.1353 58.5941 73.6711 61.0503Z" fill="black"/>
</g>
<path d="M133.737 119.757L125.077 49.9817C124.73 47.1237 122.447 44.9896 119.756 45L100.772 45.0589C100.067 45.0669 99.3701 45.2184 98.7251 45.5043C98.0801 45.7902 97.5001 46.2044 97.0204 46.7218L88.0135 56.3076L35.2197 56.5917C31.9946 56.609 29.5142 59.6646 29.9403 63.0943L37.9806 127.583C38.3271 130.437 40.6099 132.568 43.2947 132.565L135.32 132.381C145.567 132.592 146.548 129.568 146.548 129.568C134.783 132.17 133.737 119.774 133.737 119.757Z" fill="#73D287"/>
<g opacity="0.5">
<path opacity="0.4" d="M94.055 105.803L90.9511 109.135L67.0483 87.6288L70.1522 84.2961L94.055 105.803Z" fill="black"/>
<path opacity="0.4" d="M89.652 83.5581L93.0815 86.6448L71.4547 109.873L68.0217 106.786L89.652 83.5581Z" fill="black"/>
</g>
<path d="M133.098 112.126L133 111.661C133.303 111.596 133.601 111.526 133.898 111.447L134.015 111.912C133.698 111.992 133.405 112.061 133.098 112.126Z" fill="#263238"/>
<path d="M135.816 111.377L135.667 110.94C136.248 110.74 136.83 110.521 137.393 110.284L137.574 110.712C137.002 110.954 136.411 111.177 135.816 111.377ZM139.282 109.893L139.072 109.484C139.617 109.2 140.161 108.893 140.677 108.553L140.919 108.949C140.389 109.316 139.835 109.628 139.282 109.893ZM142.482 107.925L142.208 107.549C142.71 107.181 143.194 106.795 143.65 106.399L143.957 106.748C143.469 107.172 143.003 107.567 142.478 107.944L142.482 107.925ZM145.32 105.45L144.981 105.129C145.409 104.664 145.813 104.199 146.186 103.734L146.553 104.017C146.167 104.529 145.753 105.008 145.33 105.469L145.32 105.45ZM147.623 102.473L147.228 102.226C147.549 101.707 147.835 101.166 148.084 100.607L148.512 100.798C148.249 101.38 147.95 101.946 147.618 102.492L147.623 102.473ZM149.163 99.0209L148.698 98.8906C148.868 98.307 148.994 97.7113 149.075 97.1088L149.54 97.1693C149.463 97.8019 149.335 98.4273 149.158 99.0395L149.163 99.0209ZM149.679 95.2991H149.214V95.1642C149.214 94.6012 149.182 94.029 149.126 93.4661L149.591 93.4196C149.652 93.9991 149.683 94.5814 149.684 95.1642L149.679 95.2991ZM148.842 91.6564C148.717 91.0565 148.562 90.4634 148.377 89.8792L148.842 89.7396C149.033 90.3444 149.196 90.9585 149.307 91.5587L148.842 91.6564ZM147.739 88.1532C147.516 87.6042 147.274 87.0413 146.976 86.4737L147.395 86.2644C147.679 86.8413 147.939 87.4182 148.167 87.9764L147.739 88.1532ZM146.111 84.8361C145.823 84.329 145.506 83.794 145.181 83.2451L145.576 82.9985C145.916 83.5521 146.237 84.0918 146.507 84.6082L146.111 84.8361ZM144.166 81.6772C143.827 81.1655 143.483 80.6491 143.129 80.1327L143.515 79.8722C143.869 80.3886 144.213 80.905 144.553 81.426L144.166 81.6772ZM142.073 78.5974C141.724 78.0857 141.37 77.5693 141.026 77.0575L141.412 76.797C141.757 77.3088 142.106 77.8252 142.454 78.3323L142.073 78.5974ZM139.993 75.499C139.654 74.978 139.323 74.4476 138.998 73.9173L139.393 73.6753C139.719 74.2057 140.049 74.7268 140.384 75.2478L139.993 75.499ZM138.053 72.3029C137.737 71.74 137.444 71.1817 137.179 70.6467L137.597 70.4374C137.858 70.9677 138.151 71.5167 138.458 72.075L138.053 72.3029ZM136.402 68.9533C136.155 68.3718 135.937 67.7809 135.732 67.204L136.197 67.0552C136.393 67.6181 136.611 68.1996 136.853 68.7719L136.402 68.9533ZM135.192 65.4036C135.039 64.7988 134.904 64.1801 134.801 63.5427L135.267 63.4683C135.369 64.0638 135.495 64.6686 135.648 65.264L135.192 65.4036ZM134.569 61.6818C134.522 61.1096 134.499 60.5327 134.499 59.9558V59.8023H134.964V59.9511C134.964 60.5141 134.964 61.0816 135.034 61.6399L134.569 61.6818ZM135.034 57.96L134.569 57.9135C134.569 57.7878 134.592 57.6576 134.606 57.5227C134.662 57.0249 134.732 56.5271 134.815 56.0525L135.281 56.1316C135.202 56.5969 135.132 57.0853 135.076 57.5738C135.095 57.7181 135.095 57.8437 135.057 57.9739L135.034 57.96ZM135.681 54.3405L135.215 54.2149C135.388 53.6008 135.588 53.0007 135.811 52.4284L136.244 52.5959C136.032 53.1719 135.852 53.759 135.704 54.3545L135.681 54.3405ZM158.863 51.6282C158.602 51.6282 158.333 51.591 158.067 51.5538C157.705 51.5026 157.342 51.4421 156.983 51.3724L157.076 50.9071C157.421 50.9723 157.779 51.0327 158.133 51.0839C158.384 51.1165 158.64 51.1398 158.886 51.1537L158.863 51.6282ZM160.775 51.484L160.677 51.0188C161.261 50.8982 161.821 50.6813 162.334 50.3768L162.575 50.7722C162.028 51.1113 161.427 51.3566 160.798 51.498L160.775 51.484ZM137.021 50.9304L136.607 50.7117C136.903 50.1569 137.231 49.6195 137.588 49.1021L137.97 49.3672C137.63 49.8739 137.32 50.4005 137.044 50.9443L137.021 50.9304ZM155.164 50.9025C154.564 50.712 153.974 50.4899 153.397 50.2372L153.587 49.8092C154.147 50.0577 154.72 50.2736 155.304 50.4559L155.164 50.9025ZM164.004 49.451L163.618 49.1904C163.949 48.7099 164.145 48.1491 164.185 47.5668L164.65 47.5994C164.611 48.2668 164.392 48.9112 164.018 49.4649L164.004 49.451ZM151.722 49.3812C151.177 49.0647 150.651 48.7184 150.145 48.3437L150.419 47.9715C150.912 48.3349 151.424 48.6704 151.954 48.9764L151.722 49.3812ZM139.114 47.9297L138.77 47.618C139.191 47.1495 139.64 46.7067 140.114 46.2921L140.421 46.641C139.965 47.0494 139.533 47.4843 139.128 47.9436L139.114 47.9297ZM148.693 47.1434C148.23 46.7166 147.79 46.2647 147.377 45.7896L147.725 45.4826C148.128 45.944 148.555 46.3835 149.005 46.7992L148.693 47.1434ZM163.836 45.8827C163.57 45.351 163.201 44.8768 162.752 44.487L163.059 44.1381C163.554 44.5657 163.96 45.0856 164.255 45.6687L163.836 45.8827ZM141.868 45.5152L141.603 45.1337C142.124 44.7783 142.662 44.4507 143.217 44.152L143.436 44.5614C142.902 44.8568 142.383 45.1798 141.882 45.5291L141.868 45.5152ZM146.213 44.3056C146.037 44.0543 145.865 43.7985 145.702 43.5333L145.097 43.7705L144.92 43.3425L145.455 43.1285C145.371 42.989 145.288 42.8494 145.209 42.7098L145.613 42.4819C145.706 42.6447 145.799 42.8075 145.897 42.9471C146.158 42.8541 146.423 42.7657 146.693 42.6819L146.828 43.1471C146.6 43.2169 146.362 43.2914 146.148 43.3705C146.293 43.5984 146.441 43.8357 146.614 44.0357L146.213 44.3056ZM161.254 43.5054C160.804 43.281 160.338 43.0913 159.859 42.9378L159.552 42.8401L159.686 42.3749L160.003 42.4772C160.501 42.6361 160.987 42.8336 161.454 43.0681L161.254 43.5054ZM148.609 42.6726L148.512 42.2074C149.112 42.0725 149.735 41.9608 150.373 41.8724L150.442 42.3377C149.828 42.4353 149.219 42.5517 148.623 42.6866L148.609 42.6726ZM157.774 42.4214C157.193 42.319 156.579 42.24 155.951 42.1841L155.988 41.7189C156.635 41.7747 157.263 41.8538 157.849 41.9608L157.774 42.4214ZM152.261 42.1516L152.229 41.6863C152.782 41.6538 153.336 41.6352 153.885 41.6352H154.113V42.1004H153.89C153.364 42.1143 152.815 42.1283 152.275 42.1655L152.261 42.1516ZM144.399 41.0397C144.148 40.4721 143.934 39.8813 143.724 39.2811L144.19 39.1369C144.385 39.7231 144.604 40.3 144.846 40.8536L144.399 41.0397ZM143.222 37.4667C143.082 36.8666 142.966 36.2432 142.878 35.6058L143.343 35.5407C143.431 36.1548 143.543 36.7642 143.678 37.3551L143.222 37.4667ZM142.701 33.7449C142.678 33.3262 142.664 32.8982 142.664 32.4702C142.664 32.2701 142.664 32.0654 142.664 31.8654H143.129C143.129 32.0654 143.129 32.2608 143.129 32.4609C143.129 32.8796 143.129 33.3029 143.162 33.7077L142.701 33.7449ZM143.255 30.0231L142.789 29.9766C142.855 29.3625 142.943 28.7344 143.05 28.1157L143.515 28.1948C143.39 28.8135 143.301 29.409 143.241 30.0324L143.255 30.0231ZM143.892 26.3897L143.427 26.278C143.576 25.6779 143.748 25.0731 143.938 24.4683L144.404 24.6125C144.194 25.222 144.022 25.8128 143.878 26.399L143.892 26.3897ZM145.009 22.8679L144.576 22.7004C144.804 22.1189 145.041 21.5374 145.325 20.9744L145.744 21.1791C145.464 21.7374 145.218 22.305 144.995 22.8958L145.009 22.8679ZM146.609 19.5508L146.204 19.3136C146.521 18.7786 146.86 18.2435 147.214 17.7318L147.595 17.997C147.232 18.5087 146.902 19.0298 146.595 19.5601L146.609 19.5508ZM148.707 16.5222L148.344 16.2291C148.735 15.7639 149.154 15.2707 149.586 14.8334L149.921 15.1544C149.484 15.5918 149.075 16.057 148.693 16.5315L148.707 16.5222ZM151.238 13.8425L150.926 13.4982C151.391 13.0842 151.857 12.6748 152.354 12.2793L152.643 12.6469C152.145 13.0423 151.671 13.4471 151.224 13.8518L151.238 13.8425ZM154.127 11.5443L153.862 11.1581C154.369 10.8092 154.899 10.465 155.439 10.1393L155.676 10.5347C155.136 10.865 154.634 11.2047 154.113 11.5536L154.127 11.5443ZM157.286 9.62289L157.067 9.21349C157.616 8.9204 158.184 8.64126 158.751 8.38074L158.947 8.80409C158.356 9.06927 157.812 9.34841 157.272 9.6322L157.286 9.62289ZM160.649 8.07834L160.477 7.64102C161.063 7.41306 161.654 7.1758 162.241 7.00366L162.389 7.46889C161.799 7.64568 161.212 7.85968 160.635 8.08764L160.649 8.07834Z" fill="#263238"/>
<path d="M164.235 6.9014L164.119 6.43617C164.696 6.2873 165.05 6.22217 165.05 6.22217L165.133 6.68739C165.133 6.68739 164.798 6.75718 164.235 6.9014Z" fill="#263238"/>
<path d="M172.461 3.89601C171.274 0.220713 163.328 1.54196 164.877 6.34775C166.427 11.1535 173.647 7.57595 172.461 3.89601Z" fill="#263238"/>
<path d="M160.555 2.42589C160.615 0.811548 162.858 -0.43061 166.031 0.141619C169.204 0.713849 172.186 2.85389 172.186 2.85389C172.186 2.85389 169.055 4.75202 165.849 5.10094C162.644 5.44986 160.494 4.03557 160.555 2.42589Z" fill="#EBEBEB"/>
<path d="M172.186 2.84457C170.539 2.84457 168.897 2.79804 167.255 2.74687C165.613 2.69569 163.966 2.61195 162.323 2.48169C163.97 2.48169 165.617 2.52356 167.26 2.57473C168.902 2.62591 170.549 2.70965 172.186 2.84457Z" fill="#263238"/>
<path d="M163.744 0.988281C164.679 1.43556 165.56 1.98643 166.372 2.63053C165.904 2.41098 165.451 2.16237 165.014 1.88617C164.573 1.61187 164.149 1.31206 163.744 0.988281Z" fill="#263238"/>
<path d="M168.055 2.69104C167.214 3.37311 166.301 3.96269 165.333 4.4496C166.179 3.76668 167.097 3.17708 168.069 2.69104H168.055Z" fill="#263238"/>
<path d="M168.534 1.78381C169.004 2.00923 169.415 2.34046 169.735 2.75148C169.5 2.64069 169.28 2.50164 169.079 2.33743C168.877 2.17424 168.694 1.9885 168.534 1.78381Z" fill="#263238"/>
<path d="M163.58 11.9862C164.571 13.261 167.116 12.9539 169.353 10.6371C171.591 8.32024 172.777 4.83569 172.777 4.83569C172.777 4.83569 169.111 5.11483 166.315 6.6966C163.519 8.27837 162.584 10.7069 163.58 11.9862Z" fill="#EBEBEB"/>
<path d="M172.776 4.83569C171.436 5.76615 170.134 6.79895 168.826 7.79919C167.519 8.79943 166.24 9.83223 164.988 10.8976C166.328 9.96715 167.631 8.93899 168.933 7.93876C170.236 6.93852 171.506 5.90572 172.776 4.83569Z" fill="#263238"/>
<path d="M166.999 11.2652C167.248 10.8133 167.47 10.3473 167.664 9.86953C167.862 9.39044 168.03 8.89945 168.167 8.39941C167.917 8.85094 167.695 9.317 167.501 9.79509C167.305 10.2749 167.138 10.7658 166.999 11.2652Z" fill="#263238"/>
<path d="M169.521 7.37593C168.432 7.31774 167.341 7.37544 166.264 7.54807C166.807 7.58063 167.35 7.58063 167.893 7.54807C168.438 7.52146 168.982 7.46399 169.521 7.37593Z" fill="#263238"/>
<path d="M170.418 7.8364C170.542 7.60664 170.639 7.36305 170.706 7.11064C170.775 6.86009 170.816 6.60261 170.827 6.34302C170.58 6.80357 170.44 7.3141 170.418 7.8364Z" fill="#263238"/>
<path d="M172.461 3.89598C172.198 3.9813 171.916 3.98673 171.65 3.91158C171.384 3.83643 171.147 3.68409 170.967 3.47384C170.788 3.26359 170.676 3.0049 170.643 2.73053C170.611 2.45615 170.661 2.17843 170.787 1.93253C170.913 1.68664 171.109 1.48363 171.351 1.34921C171.592 1.2148 171.868 1.15503 172.143 1.17746C172.418 1.1999 172.681 1.30354 172.897 1.47526C173.114 1.64698 173.274 1.87904 173.359 2.14208C173.471 2.49374 173.44 2.87579 173.272 3.20453C173.104 3.53328 172.812 3.78192 172.461 3.89598Z" fill="#455A64"/>
<path d="M173.317 6.55243C173.054 6.6374 172.772 6.64261 172.507 6.5674C172.241 6.49218 172.004 6.33993 171.825 6.12988C171.646 5.91982 171.533 5.66141 171.501 5.38729C171.469 5.11318 171.518 4.83568 171.644 4.58987C171.769 4.34406 171.965 4.14098 172.206 4.0063C172.447 3.87163 172.722 3.8114 172.997 3.83323C173.272 3.85507 173.535 3.95798 173.752 4.12897C173.968 4.29996 174.129 4.53134 174.214 4.79387C174.271 4.96829 174.293 5.15216 174.278 5.33495C174.264 5.51775 174.213 5.69589 174.13 5.85921C174.047 6.02252 173.932 6.1678 173.792 6.28675C173.653 6.40569 173.491 6.49598 173.317 6.55243Z" fill="#455A64"/>
</svg>
