<svg width="248" height="221" viewBox="0 0 248 221" fill="none" xmlns="http://www.w3.org/2000/svg">
<path d="M29.6259 67.8957C29.0254 69.2563 28.3635 70.7258 27.7835 72.1613C27.2035 73.5967 26.6031 75.073 26.0777 76.5425C24.9996 79.4072 24.1352 82.3473 23.4916 85.3389L23.2937 86.4275L23.2255 86.8356C23.2255 86.9513 23.2255 87.101 23.1845 87.237C23.1586 87.8994 23.1722 88.5628 23.2255 89.2235C23.3551 90.659 23.5871 92.1965 23.9078 93.734C24.481 96.8158 25.2111 99.9929 25.9548 103.122L22.4544 104.483C20.8227 101.517 19.433 98.4255 18.2989 95.2375C17.7014 93.5783 17.2181 91.8804 16.8523 90.1556C16.6474 89.2013 16.5196 88.2321 16.4702 87.2574V86.4343C16.4702 86.1417 16.4702 85.8152 16.518 85.6247L16.6544 84.2641C16.8583 82.5117 17.1705 80.7736 17.5893 79.0597C17.9714 77.3589 18.4627 75.7057 18.954 74.073C19.4452 72.4402 20.0594 70.8347 20.7076 69.2563C21.0283 68.4672 21.3899 67.6848 21.7038 66.9025C22.0177 66.1201 22.3862 65.3718 22.8229 64.535L29.6259 67.8957Z" fill="#E4897B"/>
<path d="M25.7703 102.204L28.4315 104.796L22.6247 107.517C22.6247 107.517 21.2191 105.061 22.1948 102.844L25.7703 102.204Z" fill="#E4897B"/>
<path d="M30.5807 108.653L25.6746 110.654L22.6313 107.49L28.4313 104.796L30.5807 108.653Z" fill="#E4897B"/>
<path opacity="0.4" d="M129.965 105.864C120.31 104.784 111.194 100.873 103.768 94.6275C96.342 88.3818 90.9402 80.0811 88.2453 70.7749C85.5504 61.4688 85.6834 51.5749 88.6275 42.3441C91.5717 33.1133 97.1947 24.96 104.786 18.9149C112.377 12.8699 121.595 9.20446 131.275 8.38209C140.955 7.55971 150.663 9.61729 159.17 14.2947C167.678 18.9721 174.603 26.0593 179.071 34.6605C183.54 43.2616 185.35 52.9904 184.273 62.617C183.557 69.0129 181.585 75.2055 178.468 80.841C175.351 86.4765 171.151 91.4443 166.107 95.4607C161.064 99.477 155.276 102.463 149.074 104.248C142.873 106.033 136.379 106.583 129.965 105.864Z" fill="#FAFAFA"/>
<path opacity="0.4" d="M165.706 18.5935L90.9894 78.1141C90.6755 77.4338 90.3685 76.7535 90.0819 76.0732C88.2087 71.6309 87.0105 66.935 86.5269 62.1403L151.063 10.7291C156.362 12.4912 161.316 15.1517 165.706 18.5935Z" fill="#FAFAFA"/>
<path opacity="0.4" d="M182.949 44.6701L112.702 100.626C106.028 97.1573 100.245 92.2037 95.7998 86.1487L172.502 25.043C177.447 30.7011 181.021 37.4162 182.949 44.6701Z" fill="#FAFAFA"/>
<path d="M80.1399 38.4657L79.4917 38.248C80.6144 34.9451 82.0254 31.7468 83.7086 28.6896L84.3023 29.0162C82.6413 32.0391 81.2485 35.201 80.1399 38.4657ZM88.4236 22.5872L87.8709 22.1859C93.4785 14.6261 100.818 8.51253 109.276 4.35485L109.583 4.96713C101.221 9.0819 93.9659 15.1301 88.4236 22.6076V22.5872ZM163.202 5.89915C160.972 4.70674 158.665 3.66356 156.297 2.77652L156.542 2.13702C158.934 3.04487 161.264 4.10845 163.516 5.32089L163.202 5.89915Z" fill="#00C802"/>
<path opacity="0.3" d="M80.1399 38.4657L79.4917 38.248C80.6144 34.9451 82.0254 31.7468 83.7086 28.6896L84.3023 29.0162C82.6413 32.0391 81.2485 35.201 80.1399 38.4657ZM88.4236 22.5872L87.8709 22.1859C93.4785 14.6261 100.818 8.51253 109.276 4.35485L109.583 4.96713C101.221 9.0819 93.9659 15.1301 88.4236 22.6076V22.5872ZM163.202 5.89915C160.972 4.70674 158.665 3.66356 156.297 2.77652L156.542 2.13702C158.934 3.04487 161.264 4.10845 163.516 5.32089L163.202 5.89915Z" fill="black"/>
<path d="M186.231 32.1659C179.913 19.1007 168.794 8.96067 155.18 3.84792C141.566 -1.26483 126.5 -0.958176 113.107 4.70432C99.7133 10.3668 89.0189 20.9508 83.2407 34.2623C77.4625 47.5737 77.0436 62.5915 82.0709 76.2025C77.5129 77.7945 73.0094 79.5021 68.5332 81.2641C62.0782 83.8175 55.6823 86.4843 49.3456 89.2646C43.0134 92.0606 36.7085 94.9112 30.465 97.8909C27.333 99.3536 24.242 100.898 21.1237 102.395C19.5015 103.09 18.0317 104.095 16.7976 105.354C16.1298 106.051 15.5416 106.82 15.0439 107.647C14.4367 108.624 13.9769 109.686 13.6793 110.796C13.1658 112.798 13.3878 114.918 14.3052 116.77C15.2226 118.623 16.7747 120.088 18.6809 120.899C19.7394 121.342 20.8562 121.63 21.9971 121.756C22.9606 121.865 23.9335 121.865 24.897 121.756C26.6481 121.544 28.3405 120.992 29.8782 120.13C32.9692 118.572 36.0807 117.069 39.1513 115.47C45.2924 112.348 51.4335 109.089 57.4996 105.783C63.5657 102.476 69.6386 99.0134 75.5613 95.4622C79.6554 92.9927 83.7905 90.4687 87.8436 87.8291C95.6266 100.079 107.838 108.874 121.948 112.392C136.058 115.91 150.985 113.881 163.635 106.725C176.285 99.5689 185.689 87.835 189.899 73.9545C194.108 60.074 192.8 45.1109 186.245 32.1659H186.231ZM155.212 97.1562C147.282 101.059 138.37 102.529 129.602 101.382C120.834 100.234 112.604 96.5207 105.953 90.7101C99.3015 84.8996 94.5278 77.2533 92.2352 68.7379C89.9425 60.2225 90.2338 51.2206 93.0723 42.8703C95.9109 34.52 101.169 27.1964 108.182 21.8255C115.195 16.4546 123.648 13.2775 132.472 12.6961C141.296 12.1147 150.095 14.155 157.756 18.559C165.416 22.9631 171.596 29.5331 175.512 37.4383C178.112 42.6882 179.65 48.3975 180.037 54.2401C180.425 60.0827 179.654 65.9441 177.769 71.4896C175.884 77.0351 172.921 82.1561 169.051 86.56C165.181 90.9639 160.478 94.5645 155.212 97.1562Z" fill="#00C802"/>
<path opacity="0.3" d="M186.231 32.1659C179.913 19.1007 168.794 8.96067 155.18 3.84792C141.566 -1.26483 126.5 -0.958176 113.107 4.70432C99.7133 10.3668 89.0189 20.9508 83.2407 34.2623C77.4625 47.5737 77.0436 62.5915 82.0709 76.2025C77.5129 77.7945 73.0094 79.5021 68.5332 81.2641C62.0782 83.8175 55.6823 86.4843 49.3456 89.2646C43.0134 92.0606 36.7085 94.9112 30.465 97.8909C27.333 99.3536 24.242 100.898 21.1237 102.395C19.5015 103.09 18.0317 104.095 16.7976 105.354C16.1298 106.051 15.5416 106.82 15.0439 107.647C14.4367 108.624 13.9769 109.686 13.6793 110.796C13.1658 112.798 13.3878 114.918 14.3052 116.77C15.2226 118.623 16.7747 120.088 18.6809 120.899C19.7394 121.342 20.8562 121.63 21.9971 121.756C22.9606 121.865 23.9335 121.865 24.897 121.756C26.6481 121.544 28.3405 120.992 29.8782 120.13C32.9692 118.572 36.0807 117.069 39.1513 115.47C45.2924 112.348 51.4335 109.089 57.4996 105.783C63.5657 102.476 69.6386 99.0134 75.5613 95.4622C79.6554 92.9927 83.7905 90.4687 87.8436 87.8291C95.6266 100.079 107.838 108.874 121.948 112.392C136.058 115.91 150.985 113.881 163.635 106.725C176.285 99.5689 185.689 87.835 189.899 73.9545C194.108 60.074 192.8 45.1109 186.245 32.1659H186.231ZM155.212 97.1562C147.282 101.059 138.37 102.529 129.602 101.382C120.834 100.234 112.604 96.5207 105.953 90.7101C99.3015 84.8996 94.5278 77.2533 92.2352 68.7379C89.9425 60.2225 90.2338 51.2206 93.0723 42.8703C95.9109 34.52 101.169 27.1964 108.182 21.8255C115.195 16.4546 123.648 13.2775 132.472 12.6961C141.296 12.1147 150.095 14.155 157.756 18.559C165.416 22.9631 171.596 29.5331 175.512 37.4383C178.112 42.6882 179.65 48.3975 180.037 54.2401C180.425 60.0827 179.654 65.9441 177.769 71.4896C175.884 77.0351 172.921 82.1561 169.051 86.56C165.181 90.9639 160.478 94.5645 155.212 97.1562Z" fill="black"/>
<path d="M48.4858 43.6017C48.4858 44.003 48.6974 44.3296 48.9635 44.3296C49.2296 44.3296 49.4412 44.003 49.4412 43.6017C49.4412 43.2003 49.2296 42.8737 48.9635 42.8737C48.6974 42.8737 48.4858 43.2275 48.4858 43.6017Z" fill="#263238"/>
<path d="M48.6768 44.33C49.1597 45.5621 49.8094 46.7226 50.6078 47.7792C50.3318 47.976 50.0159 48.1103 49.6823 48.1726C49.3487 48.2349 49.0055 48.2237 48.6768 48.1397V44.33Z" fill="#DE5753"/>
<path d="M47.0737 41.3636C47.0356 41.3636 46.998 41.3551 46.9638 41.3386C46.9295 41.3221 46.8994 41.2981 46.8758 41.2684C46.8402 41.2164 46.8261 41.1529 46.8362 41.0908C46.8464 41.0288 46.8801 40.973 46.9304 40.935C47.2309 40.7078 47.582 40.5563 47.9539 40.4936C48.3257 40.4308 48.7073 40.4585 49.0661 40.5745C49.0983 40.5832 49.1283 40.5986 49.1542 40.6196C49.1801 40.6407 49.2013 40.6669 49.2163 40.6966C49.2314 40.7263 49.2401 40.7588 49.2418 40.7921C49.2435 40.8253 49.2382 40.8586 49.2262 40.8897C49.2142 40.9207 49.1958 40.949 49.1722 40.9725C49.1486 40.9961 49.1203 41.0144 49.0891 41.0264C49.058 41.0384 49.0246 41.0437 48.9913 41.042C48.9579 41.0403 48.9253 41.0317 48.8955 41.0167C48.6105 40.9295 48.3087 40.9118 48.0154 40.9651C47.7221 41.0184 47.446 41.141 47.2101 41.3228C47.1697 41.3495 47.1222 41.3637 47.0737 41.3636Z" fill="#263238"/>
<path d="M34.7025 46.6295C35.3849 50.2828 36.1355 56.9839 33.5698 59.4262C33.5698 59.4262 34.5729 63.1339 41.3895 63.1339C48.8954 63.1339 44.965 59.4262 44.965 59.4262C40.8709 58.4465 40.987 55.426 41.6966 52.5823L34.7025 46.6295Z" fill="#E4897B"/>
<path d="M30.5063 61.3515C31.3183 60.0929 29.9536 57.0383 29.9536 57.0383C29.9536 57.0383 42.0175 54.0109 46.9509 58.6574C47.9744 59.6167 46.8417 61.0317 46.8417 61.0317L30.5063 61.3515Z" fill="#00C802"/>
<path opacity="0.1" d="M30.5063 61.3515C31.3183 60.0929 29.9536 57.0383 29.9536 57.0383C29.9536 57.0383 42.0175 54.0109 46.9509 58.6574C47.9744 59.6167 46.8417 61.0317 46.8417 61.0317L30.5063 61.3515Z" fill="black"/>
<path d="M10.5475 200.156C9.91292 200.156 8.89621 199.101 8.59598 198.707C8.58307 198.688 8.57617 198.665 8.57617 198.642C8.57617 198.619 8.58307 198.596 8.59598 198.577C8.60699 198.558 8.62294 198.543 8.64215 198.532C8.66136 198.521 8.68312 198.516 8.70515 198.516C8.78021 198.516 10.452 198.666 10.9092 199.258C10.9589 199.32 10.9944 199.393 11.0132 199.47C11.0321 199.548 11.0338 199.628 11.0183 199.707C11.0124 199.808 10.9751 199.905 10.9115 199.984C10.848 200.063 10.7613 200.121 10.6635 200.149L10.5475 200.156ZM8.96445 198.795C9.46257 199.367 10.2609 200.013 10.6021 199.931C10.6021 199.931 10.7386 199.897 10.7795 199.679C10.7885 199.634 10.787 199.587 10.7752 199.542C10.7634 199.498 10.7415 199.456 10.7113 199.421C10.2058 199.039 9.59757 198.817 8.96445 198.781V198.795Z" fill="#407BFF"/>
<path d="M9.03914 198.782C8.91663 198.794 8.79318 198.794 8.67067 198.782C8.64911 198.78 8.62851 198.772 8.6115 198.759C8.59449 198.745 8.58184 198.727 8.57514 198.707C8.56555 198.688 8.56055 198.667 8.56055 198.645C8.56055 198.624 8.56555 198.603 8.57514 198.584C8.62291 198.543 9.62596 197.503 10.3834 197.503C10.474 197.5 10.564 197.518 10.6476 197.553C10.7311 197.588 10.8061 197.64 10.8678 197.707C10.9358 197.763 10.9823 197.841 10.9996 197.928C11.017 198.015 11.0042 198.105 10.9634 198.183C10.7655 198.564 9.72149 198.782 9.03914 198.782ZM8.95043 198.543C9.63278 198.543 10.6222 198.333 10.786 198.033C10.786 198.033 10.8337 197.945 10.7245 197.836C10.6848 197.793 10.6362 197.759 10.5819 197.737C10.5277 197.714 10.4693 197.704 10.4107 197.707C9.8513 197.835 9.34291 198.126 8.95043 198.543Z" fill="#407BFF"/>
<path d="M55.5757 215.598C55.0586 215.595 54.5426 215.547 54.0336 215.456C54.0084 215.451 53.9856 215.437 53.9694 215.417C53.9531 215.397 53.9445 215.372 53.9449 215.347C53.9411 215.323 53.9443 215.299 53.9539 215.277C53.9636 215.256 53.9795 215.237 53.9995 215.224C54.0746 215.183 55.8214 214.183 56.6607 214.415C56.7385 214.432 56.8119 214.465 56.8764 214.512C56.941 214.559 56.9952 214.618 57.036 214.687C57.0894 214.763 57.1181 214.853 57.1181 214.945C57.1181 215.038 57.0894 215.128 57.036 215.204C56.8381 215.51 56.2171 215.598 55.5757 215.598ZM54.4226 215.279C55.3506 215.415 56.6197 215.408 56.8517 215.081C56.8858 215.041 56.9131 214.966 56.8517 214.823C56.7996 214.738 56.7163 214.677 56.6197 214.653C56.0875 214.517 55.0299 214.966 54.4226 215.279Z" fill="#407BFF"/>
<path d="M54.0606 215.462C54.0383 215.469 54.0146 215.469 53.9923 215.462C53.9734 215.45 53.9587 215.433 53.9501 215.412C53.9416 215.391 53.9396 215.369 53.9446 215.347C53.9908 214.639 54.2634 213.964 54.7224 213.421C54.8153 213.342 54.9243 213.283 55.042 213.249C55.1598 213.215 55.2835 213.206 55.4048 213.224C55.7323 213.224 55.8278 213.421 55.8483 213.551C55.937 214.115 54.7429 215.197 54.1356 215.469L54.0606 215.462ZM55.282 213.421C55.1318 213.42 54.9864 213.474 54.8726 213.571C54.4867 214.001 54.2478 214.542 54.1902 215.115C54.8043 214.741 55.6231 213.898 55.5549 213.558C55.5549 213.558 55.5549 213.442 55.3229 213.421H55.282Z" fill="#407BFF"/>
<path d="M48.5474 215.34H53.5626L54.0607 203.768H49.0455L48.5474 215.34Z" fill="#E4897B"/>
<path d="M3.8877 195.475L8.07731 198.21L17.33 190.42L13.1335 187.678L3.8877 195.475Z" fill="#E4897B"/>
<path d="M8.76639 197.951L4.41302 194.393C4.3361 194.33 4.23963 194.296 4.14008 194.296C4.04052 194.296 3.94405 194.33 3.86714 194.393L0.277995 197.203C0.191284 197.272 0.121258 197.359 0.0731271 197.459C0.0249958 197.558 0 197.667 0 197.778C0 197.888 0.0249958 197.997 0.0731271 198.097C0.121258 198.196 0.191284 198.284 0.277995 198.353C1.8201 199.57 2.63209 200.087 4.54948 201.652C5.72994 202.611 8.64356 205.55 10.288 206.877C11.9325 208.204 13.4405 206.775 12.8946 206.088C10.445 202.992 9.48285 200.346 9.20309 198.706C9.15474 198.41 8.99943 198.141 8.76639 197.951Z" fill="#263238"/>
<path d="M53.528 214.762H48.0693C47.9697 214.762 47.8732 214.796 47.7952 214.858C47.7172 214.919 47.6623 215.005 47.6394 215.102L46.65 219.544C46.6251 219.652 46.6251 219.764 46.6501 219.872C46.675 219.979 46.7242 220.08 46.7939 220.166C46.8636 220.252 46.952 220.321 47.0523 220.367C47.1527 220.414 47.2625 220.437 47.3733 220.436C49.3452 220.402 52.1975 220.286 54.6812 220.286C57.5812 220.286 60.0922 220.442 63.4903 220.442C65.5374 220.442 66.1242 218.368 65.2576 218.184C61.3409 217.327 58.1339 217.238 54.7494 215.15C54.3863 214.91 53.9634 214.776 53.528 214.762Z" fill="#263238"/>
<path d="M23.6897 60.916C19.3431 62.9569 16.8662 76.6312 16.8662 76.6312L27.4904 80.856C29.0455 77.0701 30.3025 73.1691 31.2501 69.1886C32.7103 62.8889 28.1386 58.807 23.6897 60.916Z" fill="#263238"/>
<path d="M29.3256 68.6237C26.6985 71.2769 25.4976 76.4745 24.9722 79.8557L27.5173 80.8693C29.0282 77.1909 30.2599 73.4045 31.202 69.5421C30.9768 68.0998 30.4173 67.5216 29.3256 68.6237Z" fill="#203048"/>
<path d="M52.6758 60.8204C52.6758 60.8204 58.0118 66.8344 52.976 104.02H26.1666C25.9823 99.9384 28.5684 79.9032 24.5972 60.5687C27.56 59.9959 30.5574 59.6187 33.57 59.4394C37.3651 59.2147 41.1702 59.2147 44.9653 59.4394C47.5674 59.7005 50.1453 60.1622 52.6758 60.8204Z" fill="#263238"/>
<path d="M55.125 75.257L50.6078 67.4946C49.7358 71.1163 49.3798 74.8425 49.5502 78.5633C49.673 81.2301 52.1226 91.1083 54.3266 92.5505C54.9115 86.805 55.178 81.0317 55.125 75.257Z" fill="#203048"/>
<path d="M55.753 66.134C56.4354 69.4403 57.1177 72.8283 57.8478 76.1482C58.5779 79.4681 59.3353 82.8016 60.2156 86.0195C60.4407 86.8155 60.6523 87.6319 60.8979 88.3938L61.0822 88.9789L61.1709 89.2714V89.2374C61.1231 89.1762 61.0685 89.1694 61.1094 89.2374C61.3899 89.5428 61.7484 89.7662 62.1466 89.8837C62.7917 90.123 63.4559 90.3074 64.1322 90.4348C67.3583 90.9445 70.6247 91.1563 73.8898 91.0675L74.5381 94.7684C73.6237 95.0609 72.7708 95.2718 71.8701 95.4827C70.9694 95.6936 70.0823 95.8705 69.1748 96.0065C67.2972 96.3182 65.3934 96.4458 63.4908 96.3875C62.4333 96.3591 61.3815 96.2223 60.352 95.9793C59.043 95.6938 57.8131 95.1248 56.7492 94.3125C56.0544 93.7532 55.481 93.0588 55.0638 92.2716C54.9547 92.0675 54.8591 91.8362 54.7704 91.6389L54.6476 91.3192L54.3951 90.6389C54.0471 89.7749 53.7606 88.9245 53.4467 88.0741C52.2935 84.6725 51.3314 81.2369 50.4853 77.8081C49.6392 74.3794 48.909 70.9574 48.3018 67.4402L55.753 66.134Z" fill="#E4897B"/>
<path d="M45.9815 64.4673C44.569 69.0322 50.2939 82.6453 50.2939 82.6453L61.6959 79.788C61.6959 79.788 61.2592 72.7127 58.6595 67.1001C54.7428 58.637 47.6737 58.9908 45.9815 64.4673Z" fill="#263238"/>
<path d="M73.7943 91.0675L79.4715 90.9246L76.7421 96.8161C76.7421 96.8161 74.4289 97.1223 72.532 94.0132L70.5327 91.6321L72.8322 91.1763C73.1488 91.1099 73.4709 91.0735 73.7943 91.0675Z" fill="#E4897B"/>
<path d="M83.0534 92.0199L79.8054 96.9046L76.7417 96.8161L79.4711 90.9246L83.0534 92.0199Z" fill="#E4897B"/>
<path d="M54.0607 203.768L53.8014 209.734H48.7861L49.0454 203.768H54.0607Z" fill="#CE6F64"/>
<path d="M13.1339 187.678L17.3303 190.42L12.5539 194.434L8.36426 191.699L13.1339 187.678Z" fill="#CE6F64"/>
<path d="M35.0161 42.738C35.3164 47.6839 35.2413 50.6024 37.7455 53.14C41.5121 56.9702 47.6464 54.7047 48.8337 49.7384C49.905 45.2892 49.2363 37.9418 44.3779 35.9689C43.306 35.5375 42.1416 35.3847 40.9942 35.5249C39.8468 35.665 38.7538 36.0935 37.818 36.7702C36.8822 37.4468 36.1341 38.3494 35.644 39.3933C35.154 40.4372 34.9379 41.5881 35.0161 42.738Z" fill="#E4897B"/>
<path d="M29.1755 41.867C30.4105 46.3774 33.3173 51.575 37.0771 51.9084C41.7443 52.3166 43.8528 47.5068 44.4669 42.5405C47.2645 40.6288 45.7975 38.5266 48.6019 38.2613C52.2047 37.9211 51.0516 31.3493 46.3092 30.2948C46.3092 30.2948 47.8991 33.2542 44.5624 31.7575C41.3892 30.2539 37.8638 29.6446 34.3681 29.9955C34.3681 29.9955 38.626 32.1181 34.4637 33.0637C30.3014 34.0093 29.0595 36.5673 30.9769 38.1116C30.9769 38.1184 28.3635 38.9008 29.1755 41.867Z" fill="#263238"/>
<path d="M41.6214 43.5611C41.713 44.7905 42.2096 45.9552 43.0338 46.8742C44.1256 48.0784 45.2651 47.33 45.4562 45.8673C45.6336 44.5543 45.2719 42.3433 43.9345 41.6766C42.5971 41.0099 41.5327 42.078 41.6214 43.5611Z" fill="#E4897B"/>
<path d="M43.4635 104.021C43.4635 104.021 48.3492 139.295 44.5007 153.432C38.4005 175.814 15.0779 194.707 15.0779 194.707L7.16943 189.536C7.16943 189.536 27.0326 173.583 29.4618 154.84C31.6453 138.016 26.166 117.668 26.166 104.014L43.4635 104.021Z" fill="#00C802"/>
<path d="M45.4834 124.185C44.1828 122.699 42.7509 121.333 41.2051 120.103C42.0375 131.553 42.7199 148.513 41.9625 160.561C42.9808 158.251 43.8292 155.871 44.5008 153.438C46.3773 146.533 46.1794 134.607 45.4834 124.185Z" fill="#00C802"/>
<path opacity="0.3" d="M45.4834 124.185C44.1828 122.699 42.7509 121.333 41.2051 120.103C42.0375 131.553 42.7199 148.513 41.9625 160.561C42.9808 158.251 43.8292 155.871 44.5008 153.438C46.3773 146.533 46.1794 134.607 45.4834 124.185Z" fill="black"/>
<path d="M18.2643 192.945C18.2984 192.945 15.2005 194.985 15.2005 194.985L6.56201 189.339L9.2914 187.087L18.2643 192.945Z" fill="#00C802"/>
<path opacity="0.3" d="M18.2643 192.945C18.2984 192.945 15.2005 194.985 15.2005 194.985L6.56201 189.339L9.2914 187.087L18.2643 192.945Z" fill="black"/>
<path d="M52.9756 104.021C52.9756 104.021 60.5224 135.927 61.0546 151.173C61.6551 168.263 55.6709 208.578 55.6709 208.578H47.1757C47.1757 208.578 46.1317 167.95 45.7564 152.384C45.3402 135.41 35.3506 104.021 35.3506 104.021H52.9756Z" fill="#00C802"/>
<path d="M57.3015 205.21C57.3425 205.21 56.8239 208.72 56.8239 208.72H46.4931L46.2134 205.584L57.3015 205.21Z" fill="#00C802"/>
<path opacity="0.3" d="M57.3015 205.21C57.3425 205.21 56.8239 208.72 56.8239 208.72H46.4931L46.2134 205.584L57.3015 205.21Z" fill="black"/>
<path d="M236.728 73.3586C237.308 73.9028 237.765 74.3654 238.243 74.8825C238.721 75.3995 239.171 75.903 239.608 76.4268C240.495 77.4677 241.327 78.563 242.132 79.6651C243.741 81.8759 245.171 84.2098 246.411 86.6451L246.663 87.1417C246.787 87.3821 246.889 87.6325 246.97 87.8901C247.135 88.3879 247.236 88.9045 247.271 89.4276C247.315 90.35 247.188 91.2726 246.895 92.1489C246.397 93.6043 245.656 94.9658 244.705 96.1763C242.99 98.3717 240.968 100.31 238.7 101.932L237.001 99.9861C237.8 99.054 238.632 98.054 239.376 97.0539C240.133 96.0849 240.817 95.0617 241.423 93.9925C241.989 93.0596 242.408 92.0454 242.665 90.9855C242.753 90.6064 242.769 90.2141 242.712 89.829C242.688 89.6994 242.647 89.5737 242.59 89.4548C242.564 89.4026 242.534 89.3526 242.501 89.3051L242.283 88.9378C240.967 86.7984 239.539 84.7297 238.004 82.7401C237.247 81.7401 236.435 80.7808 235.616 79.8352C235.214 79.359 234.797 78.8963 234.381 78.4337C233.965 77.9711 233.514 77.5085 233.153 77.1479L236.728 73.3586Z" fill="#E4897B"/>
<path d="M237.657 99.4143L232.56 98.5844L235.228 103.034C235.228 103.034 238.51 102.918 239.444 100.993L237.657 99.4143Z" fill="#E4897B"/>
<path d="M228.792 100.639L231.222 104.251L235.227 103.034L232.559 98.5844L228.792 100.639Z" fill="#E4897B"/>
<path d="M237.411 215.537C237.064 215.566 236.718 215.472 236.435 215.271C236.349 215.191 236.286 215.09 236.252 214.978C236.217 214.866 236.212 214.747 236.237 214.632C236.242 214.559 236.267 214.489 236.309 214.429C236.351 214.369 236.409 214.321 236.476 214.292C237.069 214.026 238.625 215.02 238.803 215.135C238.823 215.148 238.838 215.167 238.847 215.189C238.856 215.211 238.857 215.235 238.85 215.258C238.848 215.281 238.838 215.303 238.822 215.32C238.806 215.337 238.785 215.349 238.762 215.353C238.32 215.465 237.866 215.527 237.411 215.537ZM236.728 214.482C236.678 214.475 236.628 214.475 236.578 214.482C236.548 214.496 236.523 214.518 236.504 214.546C236.486 214.574 236.476 214.606 236.476 214.639C236.458 214.715 236.459 214.794 236.481 214.869C236.503 214.944 236.543 215.012 236.599 215.067C236.858 215.299 237.527 215.333 238.42 215.156C237.908 214.819 237.332 214.589 236.728 214.482Z" fill="#00C802"/>
<path d="M238.775 215.346H238.714C238.229 215.068 237.294 213.986 237.41 213.394C237.432 213.301 237.484 213.217 237.558 213.156C237.632 213.094 237.724 213.059 237.82 213.054C237.912 213.041 238.006 213.048 238.094 213.077C238.183 213.105 238.264 213.153 238.331 213.217C238.891 213.707 238.898 215.176 238.898 215.258C238.897 215.279 238.89 215.299 238.88 215.316C238.869 215.334 238.854 215.349 238.836 215.36L238.775 215.346ZM237.902 213.306H237.847C237.697 213.306 237.663 213.387 237.649 213.448C237.581 213.795 238.161 214.625 238.645 215.013C238.657 214.442 238.493 213.882 238.175 213.408C238.134 213.37 238.085 213.341 238.032 213.323C237.979 213.306 237.923 213.3 237.867 213.306H237.902Z" fill="#00C802"/>
<path d="M214.156 215.537C213.721 215.578 213.284 215.468 212.921 215.224C212.84 215.151 212.776 215.061 212.737 214.959C212.698 214.857 212.684 214.747 212.696 214.639C212.701 214.573 212.722 214.509 212.757 214.453C212.793 214.397 212.843 214.351 212.901 214.319C213.535 213.965 215.569 214.999 215.801 215.129C215.822 215.142 215.839 215.162 215.85 215.185C215.861 215.207 215.865 215.233 215.862 215.258C215.858 215.282 215.847 215.304 215.83 215.321C215.813 215.338 215.791 215.349 215.767 215.353C215.237 215.465 214.698 215.527 214.156 215.537ZM213.249 214.482C213.171 214.477 213.093 214.494 213.024 214.53C212.999 214.542 212.978 214.56 212.964 214.583C212.949 214.606 212.942 214.632 212.942 214.659C212.931 214.73 212.938 214.802 212.962 214.87C212.986 214.937 213.026 214.998 213.078 215.047C213.392 215.326 214.231 215.374 215.364 215.183C214.704 214.832 213.989 214.595 213.249 214.482Z" fill="#00C802"/>
<path d="M215.746 215.347H215.692C215.084 215.074 213.877 213.986 213.972 213.394C213.972 213.258 214.095 213.088 214.429 213.054C214.551 213.041 214.675 213.053 214.792 213.089C214.91 213.125 215.018 213.185 215.112 213.265C215.753 213.795 215.876 215.17 215.876 215.231C215.879 215.252 215.876 215.273 215.867 215.292C215.859 215.311 215.845 215.328 215.828 215.34C215.802 215.351 215.774 215.353 215.746 215.347ZM214.525 213.306H214.45C214.231 213.306 214.218 213.415 214.211 213.442C214.156 213.789 214.975 214.653 215.576 215.027C215.516 214.445 215.278 213.896 214.893 213.455C214.79 213.367 214.661 213.315 214.525 213.306Z" fill="#00C802"/>
<path d="M223.811 57.7177C223.614 60.7927 223.081 67.038 225.449 68.766C225.449 68.766 225.019 71.9158 219.431 72.6506C213.29 73.4465 216.094 69.9906 216.094 69.9906C219.349 68.7524 218.933 66.2829 218.046 64.0242L223.811 57.7177Z" fill="#E4897B"/>
<path d="M211.099 52.2821C211.065 52.2822 211.032 52.2749 211.001 52.2608C210.971 52.2467 210.944 52.2261 210.922 52.2005C210.727 51.9697 210.48 51.7879 210.201 51.6697C209.923 51.5515 209.62 51.5003 209.318 51.5202C209.286 51.526 209.253 51.5252 209.222 51.518C209.19 51.5108 209.16 51.4972 209.134 51.4781C209.108 51.459 209.086 51.4348 209.07 51.4069C209.053 51.3791 209.042 51.3481 209.038 51.3161C209.031 51.2521 209.049 51.1876 209.088 51.1367C209.128 51.0858 209.186 51.0524 209.25 51.0439C209.635 51.0115 210.023 51.0725 210.379 51.2218C210.736 51.371 211.051 51.6041 211.297 51.9011C211.327 51.9366 211.345 51.9797 211.352 52.0254C211.358 52.0711 211.351 52.1176 211.331 52.1596C211.312 52.2015 211.281 52.2372 211.243 52.2624C211.204 52.2877 211.159 52.3016 211.113 52.3025L211.099 52.2821Z" fill="#263238"/>
<path d="M210.035 55.2962C209.793 56.272 209.419 57.2103 208.923 58.0855C209.151 58.2077 209.403 58.2784 209.661 58.2925C209.919 58.3066 210.177 58.2638 210.417 58.1671L210.035 55.2962Z" fill="#DE5753"/>
<path d="M210.308 54.5477C210.363 54.9558 210.192 55.3096 209.926 55.3504C209.66 55.3913 209.394 55.0783 209.346 54.6701C209.298 54.2619 209.462 53.9082 209.728 53.8741C209.994 53.8401 210.26 54.1123 210.308 54.5477Z" fill="#263238"/>
<path d="M209.851 53.8813L208.834 53.7248C208.834 53.7248 209.434 54.4255 209.851 53.8813Z" fill="#263238"/>
<path d="M221.368 215.238H216.251L215.91 203.434H221.027L221.368 215.238Z" fill="#E4897B"/>
<path d="M244.602 215.238H239.485L237.84 203.434H242.958L244.602 215.238Z" fill="#E4897B"/>
<path d="M239.171 214.666H244.917C245.015 214.665 245.109 214.7 245.184 214.764C245.258 214.828 245.306 214.916 245.319 215.013L246.002 219.551C246.014 219.665 246.002 219.781 245.967 219.89C245.931 220 245.873 220.101 245.795 220.186C245.718 220.272 245.624 220.34 245.518 220.386C245.412 220.433 245.298 220.456 245.183 220.456C243.183 220.422 242.215 220.306 239.69 220.306C238.134 220.306 235.862 220.462 233.719 220.462C231.577 220.462 231.461 218.347 232.355 218.156C236.36 217.299 236.995 216.115 238.339 214.979C238.573 214.785 238.866 214.675 239.171 214.666Z" fill="#263238"/>
<path d="M216.081 214.666H221.819C221.918 214.665 222.014 214.7 222.089 214.763C222.164 214.827 222.214 214.916 222.229 215.013L222.911 219.551C222.923 219.665 222.912 219.781 222.876 219.891C222.841 220 222.782 220.101 222.705 220.186C222.628 220.272 222.533 220.34 222.427 220.386C222.322 220.433 222.208 220.456 222.092 220.456C220.093 220.422 219.124 220.306 216.599 220.306C215.043 220.306 211.823 220.463 209.68 220.463C207.538 220.463 207.422 218.347 208.316 218.156C212.321 217.299 213.897 216.115 215.248 214.979C215.483 214.785 215.776 214.675 216.081 214.666Z" fill="#263238"/>
<path d="M215.91 203.434L216.087 209.523H221.205L221.027 203.434H215.91Z" fill="#CE6F64"/>
<path d="M242.958 203.434H237.84L238.693 209.523H243.804L242.958 203.434Z" fill="#CE6F64"/>
<path d="M223.88 51.3504C224.228 56.3983 224.48 58.5277 222.283 61.4326C218.974 65.7934 212.683 65.1199 210.827 60.2761C209.155 55.9153 208.868 48.3978 213.522 45.7582C214.546 45.1732 215.702 44.8587 216.882 44.8446C218.062 44.8304 219.226 45.117 220.264 45.6771C221.301 46.2373 222.178 47.0525 222.811 48.0454C223.444 49.0383 223.812 50.1759 223.88 51.3504Z" fill="#E4897B"/>
<path d="M226.828 56.0377C229.666 57.616 231.775 53.7246 231.775 53.7246C231.775 53.7246 226.684 54.2756 227.141 51.2551C227.742 47.248 224.862 42.377 217.643 43.0028C217.241 43.0369 216.858 43.0845 216.483 43.1457C215.727 42.7885 214.873 42.6963 214.058 42.884C213.243 43.0717 212.515 43.5283 211.993 44.1798C209.946 44.3499 207.183 46.7854 209.059 50.0033C209.191 49.6335 209.395 49.2936 209.66 49.0032C209.817 50.8877 211.468 53.8811 213.529 54.0784C213.972 56.6567 212.253 59.6433 212.846 62.3374C213.727 66.222 220.298 67.0996 220.298 67.0996C220.071 66.6145 219.987 66.0753 220.054 65.5445C220.122 65.0136 220.339 64.5126 220.68 64.0994C225.142 66.1403 228.083 64.147 228.083 64.147C225.04 63.0177 225.961 61.004 225.961 61.004C227.012 61.4691 228.203 61.51 229.283 61.1179C230.363 60.7259 231.249 59.9315 231.754 58.9018C230.743 58.9496 229.74 58.7046 228.866 58.1964C227.992 57.6881 227.284 56.9384 226.828 56.0377Z" fill="#263238"/>
<path d="M215.31 54.854C215.322 55.3385 215.237 55.8205 215.062 56.2724C214.886 56.7242 214.622 57.137 214.286 57.4868C213.385 58.4189 212.28 57.7658 211.98 56.5752C211.714 55.5003 211.864 53.7247 213.037 53.2349C213.296 53.1337 213.575 53.0985 213.851 53.1324C214.126 53.1664 214.389 53.2685 214.614 53.4293C214.84 53.5902 215.022 53.8048 215.144 54.0537C215.265 54.3025 215.322 54.5776 215.31 54.854Z" fill="#E4897B"/>
<path d="M219.561 101.884C219.561 101.884 220.857 135.464 223.941 155.18C226.425 171.113 237.459 208.34 237.459 208.34H244.432C244.432 208.34 238.68 172.385 237.418 156.636C234.224 116.776 242.515 108.218 234.688 99.918L219.561 101.884Z" fill="#263238"/>
<path d="M225.388 112.504C225.388 112.504 222.235 111.959 220.393 117.946C221.075 129.287 222.242 144.336 223.941 155.18C224.317 157.595 224.89 160.507 225.593 163.697C224.262 144.54 225.388 112.504 225.388 112.504Z" fill="#161F33"/>
<path d="M214.122 102.591C214.122 102.591 208.377 139.743 208.711 155.288C209.059 171.459 215.003 208.353 215.003 208.353H221.915C221.915 208.353 220.823 172.419 221.43 156.54C222.113 139.226 229.202 100.639 229.202 100.639L214.122 102.591Z" fill="#263238"/>
<path d="M245.442 208.666H236.169L235.445 205.564L245.374 205.632L245.442 208.666Z" fill="#00C802"/>
<path opacity="0.2" d="M245.442 208.666H236.169L235.445 205.564L245.374 205.632L245.442 208.666Z" fill="black"/>
<path d="M234.34 68.7733C237.008 69.0319 241.061 76.5901 241.061 76.5901L234.326 81.7401C234.326 81.7401 228.752 76.8623 229.413 74.1206C230.103 71.2701 231.781 68.5352 234.34 68.7733Z" fill="#00C802"/>
<path d="M232.327 72.0251C231.647 71.8424 230.943 71.7644 230.239 71.7938C229.881 72.5376 229.604 73.3177 229.414 74.1205C228.731 76.8418 234.327 81.74 234.327 81.74L234.825 81.359L232.327 72.0251Z" fill="#00C802"/>
<path opacity="0.3" d="M232.327 72.0251C231.647 71.8424 230.943 71.7644 230.239 71.7938C229.881 72.5376 229.604 73.3177 229.414 74.1205C228.731 76.8418 234.327 81.74 234.327 81.74L234.825 81.359L232.327 72.0251Z" fill="black"/>
<path d="M211.836 79.284C209.892 84.189 207.845 89.1757 206.214 94.0944C206.105 94.4073 206.016 94.7067 205.92 95.0128L205.688 95.768C205.625 95.9903 205.625 96.2259 205.688 96.4483C206.073 97.2988 206.685 98.0281 207.456 98.5573C209.496 100.017 211.719 101.204 214.068 102.088L213.453 104.592C210.564 104.212 207.769 103.303 205.211 101.911C203.636 101.073 202.354 99.7773 201.533 98.1967C201.061 97.1864 200.898 96.0605 201.062 94.9584C201.078 94.8235 201.1 94.6895 201.13 94.557L201.198 94.2713L201.314 93.7542C201.396 93.4073 201.478 93.0739 201.567 92.7338C202.249 90.0125 203.123 87.4273 204.044 84.8625C204.965 82.2978 205.927 79.767 207.012 77.243L211.836 79.284Z" fill="#E4897B"/>
<path d="M207.694 72.3991C207.694 72.3991 205.388 73.5624 214.122 102.591L234.715 99.9109C233.269 91.5975 232.586 86.4475 234.34 68.773C231.387 68.5622 228.423 68.5622 225.47 68.773C222.326 68.9553 219.199 69.3645 216.115 69.9976C212.164 70.8752 207.694 72.3991 207.694 72.3991Z" fill="#00C802"/>
<path d="M234.865 98.6662L236.046 100.374C236.135 100.51 235.985 100.673 235.753 100.707L214.156 103.524C213.972 103.524 213.801 103.476 213.774 103.36L213.351 101.544C213.317 101.421 213.467 101.292 213.672 101.265L234.524 98.5437C234.587 98.5337 234.651 98.5397 234.711 98.5611C234.77 98.5825 234.824 98.6187 234.865 98.6662Z" fill="#00C802"/>
<path opacity="0.2" d="M234.865 98.6662L236.046 100.374C236.135 100.51 235.985 100.673 235.753 100.707L214.156 103.524C213.972 103.524 213.801 103.476 213.774 103.36L213.351 101.544C213.317 101.421 213.467 101.292 213.672 101.265L234.524 98.5437C234.587 98.5337 234.651 98.5397 234.711 98.5611C234.77 98.5825 234.824 98.6187 234.865 98.6662Z" fill="black"/>
<path d="M232.368 101.354L232.928 101.279C233.037 101.279 233.112 101.197 233.098 101.129L232.525 98.7752C232.503 98.735 232.468 98.7036 232.426 98.6862C232.384 98.6689 232.337 98.6667 232.293 98.68L231.734 98.748C231.618 98.748 231.542 98.8296 231.563 98.9045L232.136 101.252C232.15 101.326 232.259 101.367 232.368 101.354Z" fill="#263238"/>
<path d="M218.831 103.095L219.39 103.02C219.499 103.02 219.581 102.938 219.561 102.87L218.988 100.516C218.965 100.477 218.931 100.445 218.889 100.427C218.847 100.408 218.8 100.404 218.756 100.414L218.196 100.489C218.087 100.489 218.005 100.571 218.026 100.639L218.599 102.993C218.612 103.095 218.722 103.136 218.831 103.095Z" fill="#263238"/>
<path d="M208.657 82.25C209.223 84.876 210.021 88.2028 211.188 92.4139L211.441 81.7398L208.657 82.25Z" fill="#00C802"/>
<path opacity="0.3" d="M208.657 82.25C209.223 84.876 210.021 88.2028 211.188 92.4139L211.441 81.7398L208.657 82.25Z" fill="black"/>
<path d="M207.694 72.3993C205.135 73.4265 202.917 82.1549 202.917 82.1549L211.72 86.4273C211.72 86.4273 215.971 75.7532 214.067 73.6714C212.163 71.5897 210.642 71.2223 207.694 72.3993Z" fill="#00C802"/>
<path d="M223.094 208.666H213.821L213.098 205.564L223.422 205.632L223.094 208.666Z" fill="#00C802"/>
<path opacity="0.2" d="M223.094 208.666H213.821L213.098 205.564L223.422 205.632L223.094 208.666Z" fill="black"/>
<path d="M214.211 101.245L213.467 100.939C213.285 100.864 213.085 100.84 212.89 100.867C212.694 100.895 212.51 100.973 212.354 101.095C212.199 101.216 212.079 101.377 212.006 101.56C211.933 101.742 211.91 101.941 211.939 102.136L212.478 105.68C212.504 105.858 212.569 106.027 212.668 106.176C212.768 106.326 212.9 106.451 213.054 106.544C213.208 106.636 213.38 106.693 213.559 106.711C213.738 106.729 213.919 106.707 214.088 106.646C214.359 106.548 214.612 106.408 214.839 106.231C215.086 106.027 215.281 105.768 215.409 105.475C215.537 105.182 215.594 104.863 215.576 104.544L215.501 103.075C215.488 102.678 215.359 102.293 215.13 101.968C214.901 101.643 214.581 101.391 214.211 101.245Z" fill="#E4897B"/>
</svg>
