<svg width="108" height="70" viewBox="0 0 108 70" fill="none" xmlns="http://www.w3.org/2000/svg">
    <path
        d="M76.3402 58.5074L74.4321 50.4072C73.9502 48.2779 73.9502 46.0679 74.4321 43.9386L77.0844 32.4037C78.1696 27.4848 77.582 22.3444 75.4147 17.7973C73.2475 13.2502 69.6246 9.55654 65.1202 7.30176C65.2048 7.08953 65.278 6.87298 65.3397 6.65299C65.4963 5.95324 65.5135 5.22949 65.3904 4.52306C65.2673 3.81664 65.0063 3.14138 64.6223 2.53583C64.2382 1.93029 63.7386 1.40631 63.1521 0.993833C62.5655 0.581355 61.9035 0.288445 61.2037 0.131831C60.504 -0.0247844 59.7802 -0.0420398 59.0738 0.0810517C58.3673 0.204143 57.6921 0.465183 57.0866 0.849242C56.481 1.2333 55.957 1.73287 55.5446 2.31943C55.1321 2.90598 54.8392 3.56803 54.6825 4.26779C54.6352 4.49081 54.6065 4.7174 54.5967 4.94519C49.5614 5.06333 44.7094 6.85781 40.8091 10.0445C36.9087 13.2311 34.1828 17.6279 33.063 22.5385L30.4775 34.0829C30.0025 36.2084 29.057 38.2004 27.7106 39.9123L22.5681 46.4478C22.0651 47.0889 21.7326 47.8468 21.6015 48.6511C21.4704 49.4553 21.545 50.2796 21.8183 51.0473C22.0916 51.8149 22.5548 52.5008 23.1647 53.0412C23.7746 53.5816 24.5114 53.9588 25.3063 54.1377L70.6253 64.2891C71.4175 64.4603 72.2401 64.4289 73.017 64.1978C73.7938 63.9666 74.4998 63.5433 75.0696 62.9668C75.6394 62.3904 76.0545 61.6795 76.2766 60.9C76.4987 60.1205 76.5206 59.2976 76.3402 58.5074Z"
        fill="#35B350" />
    <path
        d="M42.1173 61.0074C41.7726 60.9314 41.4144 60.9415 41.0746 61.037C40.7348 61.1324 40.4237 61.3102 40.1689 61.5546C39.9142 61.7989 39.7237 62.1023 39.6142 62.4379C39.5047 62.7735 39.4796 63.1309 39.5413 63.4785C39.8015 65.0116 40.5121 66.4325 41.5827 67.5603C42.6532 68.6881 44.0352 69.4717 45.5526 69.8114C47.07 70.1511 48.6542 70.0315 50.1034 69.4678C51.5526 68.9041 52.8013 67.9218 53.6903 66.646C53.8934 66.3585 54.0227 66.0254 54.0667 65.6761C54.1108 65.3269 54.0682 64.9721 53.9429 64.6432C53.8175 64.3142 53.6132 64.0211 53.3478 63.7897C53.0825 63.5583 52.7643 63.3957 52.4214 63.3163L42.1173 61.0074Z"
        fill="#35B350" />
    <path
        d="M7.31227 44.9464C7.07586 44.9482 6.84278 44.8907 6.63441 44.779C6.42604 44.6673 6.24905 44.5051 6.11966 44.3072C1.61348 37.556 -0.0264503 29.2913 1.56059 21.3311C3.14763 13.3708 7.83167 6.36696 14.5824 1.86006C14.8987 1.65004 15.2855 1.57427 15.6576 1.64942C16.0298 1.72457 16.3569 1.94448 16.5669 2.26078C16.7769 2.57707 16.8527 2.96385 16.7775 3.33601C16.7024 3.70818 16.4825 4.03525 16.1662 4.24527C10.0549 8.33843 5.81838 14.6901 4.38723 21.9049C2.95608 29.1196 4.44736 36.6075 8.53349 42.7234C8.74455 43.0385 8.8219 43.4245 8.74856 43.7966C8.67521 44.1687 8.45717 44.4965 8.14233 44.7079C7.89629 44.8699 7.60675 44.9531 7.31227 44.9464V44.9464Z"
        fill="#35B350" />
    <path
        d="M13.3707 40.8846C13.1362 40.8832 12.9057 40.8241 12.6994 40.7126C12.4931 40.6012 12.3173 40.4407 12.1876 40.2454C8.75777 35.1025 7.50953 28.8085 8.71705 22.7459C9.92456 16.6833 13.4891 11.3478 18.6277 7.91152C18.7843 7.8069 18.96 7.73416 19.1447 7.69744C19.3294 7.66072 19.5196 7.66075 19.7043 7.69752C19.889 7.73428 20.0647 7.80707 20.2213 7.91172C20.3779 8.01638 20.5123 8.15086 20.6169 8.30747C20.7215 8.46409 20.7943 8.63978 20.831 8.82451C20.8677 9.00924 20.8677 9.19939 20.8309 9.38411C20.7942 9.56883 20.7214 9.74449 20.6167 9.90108C20.5121 10.0577 20.3776 10.1921 20.221 10.2967C15.7107 13.3067 12.5808 17.9851 11.5198 23.3027C10.4587 28.6203 11.5535 34.1416 14.5633 38.6521C14.7743 38.9672 14.8517 39.3532 14.7783 39.7253C14.705 40.0974 14.4869 40.4251 14.1721 40.6366C13.9347 40.7954 13.6562 40.8816 13.3707 40.8846Z"
        fill="#35B350" />
    <path
        d="M19.4386 36.8274C19.2047 36.8287 18.9741 36.7718 18.7676 36.6619C18.5611 36.552 18.3851 36.3925 18.2555 36.1977C17.0866 34.4474 16.2743 32.4837 15.8651 30.4191C15.4558 28.3544 15.4578 26.2294 15.8707 24.1655C16.2837 22.1016 17.0996 20.1394 18.2717 18.3912C19.4438 16.6429 20.9491 15.143 22.7016 13.9771C23.0166 13.7814 23.3954 13.7157 23.7579 13.7938C24.1205 13.8719 24.4386 14.0877 24.6452 14.3957C24.8518 14.7037 24.9308 15.0799 24.8654 15.445C24.8 15.8101 24.5955 16.1356 24.2949 16.3528C22.8575 17.3123 21.6233 18.5456 20.6627 19.9822C19.702 21.4189 19.0339 23.0307 18.6963 24.7256C18.3587 26.4205 18.3584 28.1653 18.6953 29.8603C19.0322 31.5554 19.6998 33.1674 20.6598 34.6044C20.8684 34.9203 20.9443 35.3055 20.8711 35.6768C20.7979 36.0482 20.5815 36.3758 20.2687 36.5889C20.0226 36.7509 19.7331 36.8341 19.4386 36.8274Z"
        fill="#35B350" />
    <path
        d="M89.8212 65.0706C89.5012 65.0698 89.1907 64.9618 88.9393 64.7639C88.6879 64.5659 88.5101 64.2894 88.4343 63.9785C88.3585 63.6676 88.3891 63.3403 88.5211 63.0488C88.6532 62.7573 88.8792 62.5185 89.1629 62.3706C95.6996 58.9932 100.628 53.1584 102.864 46.1489C105.1 39.1393 104.462 31.5286 101.089 24.9896C100.986 24.8217 100.92 24.6345 100.893 24.4397C100.866 24.2448 100.879 24.0465 100.932 23.8571C100.985 23.6678 101.077 23.4914 101.201 23.339C101.326 23.1865 101.48 23.0614 101.655 22.9713C101.83 22.8813 102.021 22.8282 102.218 22.8155C102.414 22.8028 102.611 22.8306 102.796 22.8974C102.981 22.9641 103.15 23.0683 103.293 23.2034C103.436 23.3384 103.55 23.5016 103.627 23.6825C105.469 27.2557 106.59 31.1569 106.924 35.1632C107.259 39.1695 106.801 43.2024 105.576 47.0317C104.352 50.8609 102.385 54.4115 99.7882 57.4804C97.1913 60.5494 94.0152 63.0767 90.4414 64.9179C90.2479 65.0125 90.0365 65.0646 89.8212 65.0706Z"
        fill="#35B350" />
    <path
        d="M86.4726 58.5902C86.1526 58.5894 85.8421 58.4814 85.5907 58.2835C85.3393 58.0855 85.1615 57.809 85.0857 57.4981C85.0099 57.1872 85.0404 56.8598 85.1725 56.5684C85.3046 56.2769 85.5306 56.0381 85.8143 55.8901C88.2018 54.6593 90.3232 52.9698 92.0572 50.9184C93.7912 48.867 95.1038 46.4939 95.9199 43.9348C96.736 41.3757 97.0397 38.6808 96.8134 36.0043C96.5872 33.3277 95.8355 30.722 94.6014 28.3362C94.4268 27.9984 94.3936 27.6051 94.509 27.2428C94.6244 26.8804 94.879 26.5788 95.2168 26.4042C95.5546 26.2296 95.9479 26.1964 96.3102 26.3118C96.6726 26.4272 96.9742 26.6818 97.1488 27.0196C98.555 29.7393 99.4114 32.7096 99.6689 35.7605C99.9265 38.8114 99.5802 41.8832 98.6498 44.8002C97.7194 47.7172 96.2232 50.4222 94.2467 52.7605C92.2702 55.0989 89.8522 57.0247 87.1309 58.428C86.9285 58.5362 86.7022 58.592 86.4726 58.5902V58.5902Z"
        fill="#35B350" />
    <path
        d="M83.1237 52.1167C82.8049 52.1115 82.4967 52.0006 82.2476 51.8015C81.9985 51.6024 81.8226 51.3262 81.7473 51.0163C81.672 50.7064 81.7016 50.3803 81.8316 50.0891C81.9616 49.7979 82.1845 49.558 82.4654 49.4071C84.0015 48.6166 85.3666 47.5309 86.4826 46.2122C87.5985 44.8934 88.4435 43.3676 88.969 41.7219C89.4945 40.0762 89.6903 38.343 89.5452 36.6216C89.4 34.9001 88.9168 33.2242 88.1231 31.6898C87.9485 31.3519 87.9153 30.9586 88.0307 30.5963C88.1461 30.234 88.4007 29.9323 88.7385 29.7577C89.0763 29.5831 89.4696 29.5499 89.832 29.6653C90.1943 29.7807 90.4959 30.0353 90.6705 30.3731C92.6122 34.1517 92.9755 38.5464 91.6804 42.5925C90.3854 46.6386 87.5379 50.0056 83.763 51.9545C83.565 52.0566 83.3464 52.1121 83.1237 52.1167V52.1167Z"
        fill="#35B350" />
    <defs>
        <linearGradient id="paint0_linear_403_3324" x1="21.5386" y1="19.6771" x2="76.4601"
            y2="20.535" gradientUnits="userSpaceOnUse">
            <stop stop-color="#35B350" />
            <stop offset="1" stop-color="#35B350" />
        </linearGradient>
        <linearGradient id="paint1_linear_403_3324" x1="39.5083" y1="63.7204" x2="53.7748"
            y2="64.1328" gradientUnits="userSpaceOnUse">
            <stop stop-color="#35B350" />
            <stop offset="1" stop-color="#35B350" />
        </linearGradient>
        <linearGradient id="paint2_linear_403_3324" x1="0.969727" y1="14.8595" x2="16.4827"
            y2="14.9612" gradientUnits="userSpaceOnUse">
            <stop stop-color="#35B350" />
            <stop offset="1" stop-color="#35B350" />
        </linearGradient>
        <linearGradient id="paint3_linear_403_3324" x1="8.26758" y1="17.8188" x2="20.6015"
            y2="17.9027" gradientUnits="userSpaceOnUse">
            <stop stop-color="#35B350" />
            <stop offset="1" stop-color="#35B350" />
        </linearGradient>
        <linearGradient id="paint4_linear_403_3324" x1="15.5596" y1="20.8097" x2="24.6973"
            y2="20.876" gradientUnits="userSpaceOnUse">
            <stop stop-color="#35B350" />
            <stop offset="1" stop-color="#35B350" />
        </linearGradient>
        <linearGradient id="paint5_linear_403_3324" x1="88.3936" y1="35.7247" x2="106.65"
            y2="35.8691" gradientUnits="userSpaceOnUse">
            <stop stop-color="#35B350" />
            <stop offset="1" stop-color="#35B350" />
        </linearGradient>
        <linearGradient id="paint6_linear_403_3324" x1="85.0449" y1="36.1277" x2="99.451"
            y2="36.2451" gradientUnits="userSpaceOnUse">
            <stop stop-color="#35B350" />
            <stop offset="1" stop-color="#35B350" />
        </linearGradient>
        <linearGradient id="paint7_linear_403_3324" x1="81.7065" y1="36.4785" x2="92.2243"
            y2="36.5684" gradientUnits="userSpaceOnUse">
            <stop stop-color="#35B350" />
            <stop offset="1" stop-color="#35B350" />
        </linearGradient>
    </defs>
</svg>