<svg width="300" height="155" viewBox="0 0 300 155" fill="none" xmlns="http://www.w3.org/2000/svg">
<path d="M275.103 89.194H88.7939C76.2249 78.188 63.3252 68.569 49.8541 61.9955L65.2195 2.74397C65.6405 1.14583 67.1139 0 68.7677 0H296.362C298.738 0 300.482 2.26151 299.88 4.58333L278.652 86.45C278.231 88.0481 276.757 89.194 275.103 89.194ZM227.594 40.6167C227.624 42.245 227.684 43.7225 227.895 44.8081C228.105 45.4111 228.706 46.1047 229.518 46.768C228.646 49.0295 227.323 51.5624 225.459 52.9495C221.61 55.8442 211.777 57.955 208.199 60.8195C204.952 63.4127 202.065 71.0114 201.524 72.4889H259.287C259.467 71.0114 260.369 63.4127 258.415 60.8195C256.25 57.955 247.5 55.8442 245.064 52.9495C243.831 51.472 243.831 48.728 244.132 46.4062C245.004 45.8634 245.696 45.3207 246.147 44.8081C246.868 43.7225 247.68 42.245 248.492 40.6167C248.733 40.8278 249.063 41.0389 249.484 41.0389H249.514C250.657 40.9786 255.047 35.0082 253.904 33.6211C253.724 33.3799 253.484 33.2593 253.213 33.2593C252.642 33.2593 251.98 33.7417 251.439 34.2543C252.612 31.6008 253.423 29.5504 253.423 29.5504H253.393C253.484 29.2187 253.604 28.887 253.694 28.5252C255.408 21.5597 251.168 15.8909 244.192 15.8909C237.246 15.8909 230.18 21.5597 228.436 28.5252C228.346 28.887 228.285 29.2187 228.225 29.5504H228.195C228.195 29.5504 227.985 31.6008 227.834 34.2543C227.534 33.7417 227.113 33.2593 226.541 33.2593C226.301 33.2593 226 33.3799 225.669 33.6211C223.835 35.0082 225.248 40.9786 226.391 41.0389H226.421C226.842 41.0389 227.263 40.8278 227.594 40.6167ZM184.354 71.9763C184.775 71.9763 185.136 71.6748 185.256 71.2828L187.121 64.0158L187.151 63.7746C187.151 63.262 186.76 62.8398 186.218 62.8398H144.091C143.67 62.8398 143.279 63.1112 143.189 63.5334L141.295 70.8003L141.265 71.0416C141.265 71.5542 141.656 71.9763 142.197 71.9763H184.354ZM88.9142 70.8003L88.8841 71.0416C88.8841 71.5542 89.275 71.9763 89.8162 71.9763H131.943C132.394 71.9763 132.755 71.6748 132.845 71.2828L132.876 71.2225L134.74 64.0158L134.77 63.7746C134.77 63.262 134.379 62.8398 133.838 62.8398H91.7106C91.2596 62.8398 90.8987 63.1112 90.7785 63.5334L88.9142 70.8003ZM72.6467 52.3464C71.6243 52.3464 70.8124 53.1606 70.8124 54.1556C70.8124 55.1809 71.6243 55.995 72.6467 55.995H151.819C152.842 55.995 153.653 55.1809 153.653 54.1556C153.653 53.1606 152.842 52.3464 151.819 52.3464H72.6467ZM105.933 38.4758C104.941 38.4758 104.129 39.3201 104.129 40.3152C104.129 41.3404 104.941 42.1546 105.933 42.1546H185.136C186.128 42.1546 186.97 41.3404 186.97 40.3152C186.97 39.3201 186.128 38.4758 185.136 38.4758H105.933ZM73.4585 38.4758C72.4362 38.4758 71.6243 39.3201 71.6243 40.3152C71.6243 41.3404 72.4362 42.1546 73.4585 42.1546H97.2133C98.2357 42.1546 99.0475 41.3404 99.0475 40.3152C99.0475 39.3201 98.2357 38.4758 97.2133 38.4758H73.4585ZM76.706 27.892C75.6837 27.892 74.8718 28.7061 74.8718 29.7313C74.8718 30.7565 75.6837 31.5707 76.706 31.5707H100.461C101.483 31.5707 102.295 30.7565 102.295 29.7313C102.295 28.7061 101.483 27.892 100.461 27.892H76.706ZM170.522 15.6798C169.5 15.6798 168.688 16.4939 168.688 17.5192C168.688 18.5142 169.5 19.3585 170.522 19.3585H198.727C199.75 19.3585 200.562 18.5142 200.562 17.5192C200.562 16.4939 199.75 15.6798 198.727 15.6798H170.522ZM78.7207 15.6798C77.7284 15.6798 76.9165 16.4939 76.9165 17.5192C76.9165 18.5142 77.7284 19.3585 78.7207 19.3585H157.923C158.946 19.3585 159.757 18.5142 159.757 17.5192C159.757 16.4939 158.946 15.6798 157.923 15.6798H78.7207Z" fill="#BAE9C4"/>
<path d="M88.7939 89.194H47.5087C45.1333 89.194 43.3892 86.9325 43.9906 84.6106L49.8541 61.9955C63.3252 68.569 76.2249 78.188 88.7939 89.194Z" fill="#E0ECF9"/>
<path d="M184.114 70.7401H142.558L144.302 64.046H185.858L184.114 70.7401ZM131.733 70.7401H90.1771L91.9211 64.046H133.477L131.733 70.7401Z" fill="#EBF2FA"/>
<path d="M157.923 19.3585H78.7207C77.7284 19.3585 76.9166 18.5142 76.9166 17.5192C76.9166 16.494 77.7284 15.6798 78.7207 15.6798H157.923C158.946 15.6798 159.758 16.494 159.758 17.5192C159.758 18.5142 158.946 19.3585 157.923 19.3585Z" fill="#92CF9F"/>
<path d="M151.819 55.995H72.6467C71.6244 55.995 70.8125 55.1808 70.8125 54.1556C70.8125 53.1605 71.6244 52.3464 72.6467 52.3464H151.819C152.842 52.3464 153.653 53.1605 153.653 54.1556C153.653 55.1808 152.842 55.995 151.819 55.995Z" fill="#92CF9F"/>
<path d="M185.136 42.1546H105.933C104.941 42.1546 104.129 41.3404 104.129 40.3152C104.129 39.3201 104.941 38.4758 105.933 38.4758H185.136C186.128 38.4758 186.97 39.3201 186.97 40.3152C186.97 41.3404 186.128 42.1546 185.136 42.1546Z" fill="#92CF9F"/>
<path d="M100.461 31.5707H76.7061C75.6837 31.5707 74.8718 30.7565 74.8718 29.7313C74.8718 28.7061 75.6837 27.892 76.7061 27.892H100.461C101.483 27.892 102.295 28.7061 102.295 29.7313C102.295 30.7565 101.483 31.5707 100.461 31.5707Z" fill="#92CF9F"/>
<path d="M97.2133 42.1546H73.4585C72.4362 42.1546 71.6243 41.3404 71.6243 40.3152C71.6243 39.3201 72.4362 38.4758 73.4585 38.4758H97.2133C98.2357 38.4758 99.0475 39.3201 99.0475 40.3152C99.0475 41.3404 98.2357 42.1546 97.2133 42.1546Z" fill="#92CF9F"/>
<path d="M198.727 19.3585H170.522C169.5 19.3585 168.688 18.5142 168.688 17.5192C168.688 16.494 169.5 15.6798 170.522 15.6798H198.727C199.75 15.6798 200.562 16.494 200.562 17.5192C200.562 18.5142 199.75 19.3585 198.727 19.3585Z" fill="#92CF9F"/>
<path d="M184.354 71.9763H142.197C141.656 71.9763 141.265 71.5541 141.265 71.0415L141.295 70.8003L143.189 63.5333C143.28 63.1112 143.67 62.8398 144.091 62.8398H186.219C186.76 62.8398 187.151 63.2619 187.151 63.7745L187.121 64.0158L185.256 71.2828C185.136 71.6748 184.775 71.9763 184.354 71.9763ZM142.558 70.74H184.114L185.858 64.0459H144.302L142.558 70.74Z" fill="#D3E1F4"/>
<path d="M131.943 71.9763H89.8162C89.275 71.9763 88.8841 71.5541 88.8841 71.0415L88.9142 70.8003L90.7785 63.5333C90.8987 63.1112 91.2596 62.8398 91.7106 62.8398H133.838C134.379 62.8398 134.77 63.2619 134.77 63.7745L134.74 64.0158L132.875 71.2224L132.845 71.2828C132.755 71.6748 132.394 71.9763 131.943 71.9763ZM90.1771 70.74H131.733L133.477 64.0459H91.9211L90.1771 70.74Z" fill="#D3E1F4"/>
<path d="M259.287 72.4889H201.524C202.065 71.0114 204.952 63.4127 208.199 60.8195C211.777 57.955 221.61 55.8442 225.459 52.9495C227.323 51.5624 228.646 49.0295 229.518 46.768C228.706 46.1046 228.105 45.4111 227.895 44.808C227.684 43.7225 227.624 42.245 227.594 40.6167C227.263 40.8278 226.842 41.0389 226.421 41.0389H226.391C225.248 40.9786 223.835 35.0082 225.669 33.6211C226 33.3799 226.301 33.2593 226.541 33.2593C227.113 33.2593 227.534 33.7417 227.834 34.2543C227.985 31.6008 228.195 29.5504 228.195 29.5504H228.225C228.285 29.2187 228.346 28.887 228.436 28.5252C230.18 21.5597 237.246 15.8909 244.192 15.8909C251.168 15.8909 255.408 21.5597 253.694 28.5252C253.604 28.887 253.484 29.2187 253.393 29.5504H253.423C253.423 29.5504 252.612 31.6008 251.439 34.2543C251.98 33.7417 252.642 33.2593 253.213 33.2593C253.484 33.2593 253.724 33.3799 253.904 33.6211C255.047 35.0082 250.657 40.9786 249.514 41.0389H249.484C249.063 41.0389 248.733 40.8278 248.492 40.6167C247.68 42.245 246.868 43.7225 246.147 44.808C245.696 45.3207 245.004 45.8634 244.132 46.4062C243.831 48.728 243.831 51.472 245.064 52.9495C247.5 55.8442 256.25 57.955 258.415 60.8195C260.369 63.4127 259.467 71.0114 259.287 72.4889Z" fill="#D4FCDD"/>
<path d="M235.502 154.356V153.753H7.93749C7.06548 153.722 6.31375 153.391 5.74243 152.818C5.20118 152.275 4.87042 151.491 4.87042 150.677C4.87042 150.436 4.90049 150.164 4.9907 149.923L26.2196 68.0564C26.5805 66.6995 27.7832 65.7647 29.1664 65.7647H256.761C257.633 65.7647 258.385 66.1266 258.926 66.6995C259.467 67.2423 259.798 67.9961 259.798 68.8102C259.798 69.0816 259.768 69.3228 259.708 69.5942L238.449 151.461C238.118 152.788 236.885 153.753 235.502 153.753V154.959C237.457 154.959 239.14 153.632 239.622 151.762L260.881 69.8958C260.971 69.5339 261.031 69.1721 261.031 68.8102C261.001 66.5186 259.167 64.5586 256.761 64.5586H29.1664C27.242 64.5586 25.528 65.8552 25.0469 67.7549L3.78793 149.622C3.69772 149.983 3.66765 150.345 3.66765 150.677C3.66765 152.969 5.50188 154.959 7.93749 154.959H235.502V154.356Z" fill="#35B350"/>
<path d="M231.232 148.234H3.66765C1.2621 148.234 -0.481916 145.973 0.11947 143.651L21.3785 61.7845C21.7994 60.1863 23.2428 59.0405 24.8966 59.0405H252.491C254.867 59.0405 256.641 61.3322 256.039 63.654L234.78 145.49C234.359 147.119 232.916 148.234 231.232 148.234Z" fill="#35B350"/>
<path d="M43.3893 59.6737H139.641V58.4374H43.3893V59.6737Z" fill="#D4FCDD"/>
<path d="M212.86 136.022H161.712C159.337 136.022 157.923 134.123 158.495 131.741L171.424 79.8162C171.996 77.4643 174.371 75.5345 176.747 75.5345H227.895C230.27 75.5345 231.683 77.4643 231.112 79.8162L218.182 131.741C217.611 134.123 215.235 136.022 212.86 136.022Z" fill="#C8E2F7"/>
<path d="M187.752 136.233L192.232 118.232L184.895 115.096C184.895 115.096 171.214 120.131 170.041 121.338C169.079 122.363 164.148 132.856 162.584 136.233H187.752Z" fill="#8FE2A7" stroke="#263238" stroke-width="0.5" stroke-linecap="round" stroke-linejoin="round"/>
<path d="M213.1 136.233C213.221 132.856 213.521 122.363 213.04 121.338C212.469 120.131 201.313 115.096 201.313 115.096L192.413 118.232L187.932 136.233H213.1Z" fill="#8FE2A7" stroke="#263238" stroke-width="0.5" stroke-linecap="round" stroke-linejoin="round"/>
<path d="M192.383 136.233L199.389 120.644L184.324 121.519L182.851 136.233H192.383Z" fill="#C8C6D7"/>
<path d="M187.602 111.809L184.324 113.89L182.189 119.076L181.618 126.192L186.249 124.262L189.827 128.605L194.608 124.624L197.555 127.398L202.005 117.87L201.223 111.99L199.359 111.116L187.602 111.809Z" fill="#2B3456"/>
<path d="M188.624 98.1797C188.624 98.1797 187.511 95.6769 185.256 97.3354C183.001 98.9938 185.647 105.447 187.271 103.517C188.925 101.587 188.624 98.1797 188.624 98.1797Z" fill="#DB9F80"/>
<path d="M204.711 98.0289C204.711 98.0289 206.876 95.3754 208.5 96.8831C210.124 98.3606 204.771 105.175 203.899 103.366C203.027 101.527 204.711 98.0289 204.711 98.0289Z" fill="#DB9F80"/>
<path d="M199.69 116.845L202.005 104.542L188.624 105.718L185.677 117.267C185.677 117.267 187.993 122.725 190.518 125.137C190.518 125.137 198.306 118.413 199.69 116.845Z" fill="#DB9F80"/>
<path d="M210.545 93.0838C210.033 94.5613 208.801 94.9533 208.71 95.8278C208.62 96.7022 208.079 98.9336 207.237 99.808C206.365 100.682 205.944 100.924 205.944 100.924C205.944 100.924 194.457 104.18 188.624 99.6874C188.624 99.6874 188.233 97.9687 188.654 95.9484C189.045 93.9281 188.053 93.5662 189.195 92.5712C190.338 91.5761 190.669 90.7017 190.699 89.586C190.729 88.4703 190.819 87.1134 191.992 85.9676C193.134 84.8519 194.187 85.2439 195.329 84.2187C195.329 84.2187 196.983 81.4144 199.208 81.0827C201.403 80.7812 206.064 79.6052 208.831 83.0125C211.627 86.45 210.334 89.4352 211.146 90.4906C211.928 91.5761 210.545 93.0838 210.545 93.0838Z" fill="#263238"/>
<path d="M188.534 96.069C188.534 96.069 183.121 111.025 193.315 112.141C202.336 112.352 205.523 101.316 206.816 95.677C208.109 90.0081 207.297 84.098 200.111 84.279C192.894 84.4599 189.316 92.7219 188.534 96.069Z" fill="#FFC7AA"/>
<path d="M191.36 90.7017C191.36 90.7017 192.022 91.8777 191.42 93.1139C190.789 94.3201 189.105 94.7724 188.865 96.3705C188.624 97.9687 187.872 101.286 187.421 101.436C186.97 101.587 187.301 98.1797 187.361 97.0339C187.451 95.8579 188.293 91.0635 190.699 88.018C193.104 84.9725 194.608 83.6759 198.878 82.9824C203.178 82.2889 206.425 84.0981 207.598 86.7214C208.8 89.3448 206.906 96.0087 206.906 96.0087C206.906 96.0087 207.177 92.8426 206.124 92.0887C205.072 91.365 204.17 90.7921 204.35 90.37C204.531 89.9177 200.982 91.5158 197.404 90.37C193.856 89.2241 192.683 89.7368 192.112 90.0986C191.511 90.4604 191.36 90.7017 191.36 90.7017Z" fill="#263238"/>
<path d="M181.017 119.197C181.017 119.227 180.926 119.468 180.776 119.83C180.265 121.096 179.062 123.961 178.04 126.464C176.987 128.997 176.055 131.198 176.055 131.198L175.965 131.409L180.235 133.58L179.152 135.751L179.603 135.992L180.926 133.339L176.416 131.047L176.296 131.288L176.536 131.379C176.536 131.379 177.739 128.484 179.002 125.499C179.603 124.021 180.235 122.514 180.686 121.368C180.926 120.795 181.137 120.312 181.287 119.981C181.347 119.8 181.407 119.649 181.438 119.528C181.498 119.438 181.498 119.378 181.528 119.317L181.017 119.197Z" fill="#2B3456"/>
<path d="M202.185 119.197C202.155 119.257 202.155 119.317 202.155 119.408C201.975 121.006 201.163 131.258 201.163 131.258L201.403 131.288L201.313 131.047L195.78 133.278V135.872H196.292V133.64L201.674 131.469V131.318C201.674 131.318 201.915 128.393 202.155 125.438C202.275 123.931 202.396 122.453 202.486 121.307C202.546 120.734 202.576 120.252 202.606 119.89C202.636 119.709 202.636 119.589 202.666 119.468V119.347V119.317L202.185 119.197Z" fill="#2B3456"/>
<path d="M212.86 136.022V135.419H161.712C160.84 135.419 160.178 135.118 159.727 134.665C159.246 134.213 158.976 133.58 158.976 132.796C158.976 132.494 159.006 132.193 159.096 131.891L171.996 79.967C172.266 78.9418 172.928 77.9769 173.8 77.2833C174.672 76.5898 175.724 76.1677 176.747 76.1677H227.895C228.767 76.1677 229.428 76.439 229.879 76.8913C230.36 77.3738 230.631 78.007 230.631 78.791C230.631 79.0624 230.601 79.3639 230.511 79.6655L217.611 131.59C217.34 132.615 216.679 133.61 215.807 134.304C214.935 134.997 213.882 135.419 212.86 135.419V136.625C214.213 136.625 215.506 136.083 216.589 135.238C217.641 134.394 218.453 133.218 218.784 131.891L231.683 79.967C231.804 79.575 231.834 79.183 231.834 78.791C231.864 77.7055 231.443 76.7406 230.751 76.047C230.06 75.3234 229.037 74.9314 227.895 74.9314H176.747C175.394 74.9314 174.101 75.4741 173.018 76.3184C171.966 77.1627 171.154 78.3387 170.823 79.6655L157.923 131.59C157.803 132.012 157.773 132.404 157.773 132.796C157.743 133.851 158.164 134.846 158.855 135.54C159.547 136.233 160.569 136.625 161.712 136.625H212.86V136.022Z" fill="#FEFEFE"/>
<path d="M34.8796 80.4495H114.052C115.074 80.4495 115.886 79.6052 115.886 78.6101C115.886 77.5849 115.074 76.7708 114.052 76.7708H34.8796C33.8573 76.7708 33.0454 77.5849 33.0454 78.6101C33.0454 79.6052 33.8573 80.4495 34.8796 80.4495Z" fill="#D4FCDD"/>
<path d="M28.7756 117.086H107.978C108.97 117.086 109.812 116.272 109.812 115.247C109.812 114.252 108.97 113.407 107.978 113.407H28.7756C27.7833 113.407 26.9413 114.252 26.9413 115.247C26.9413 116.272 27.7833 117.086 28.7756 117.086Z" fill="#D4FCDD"/>
<path d="M62.0924 103.245H141.265C142.287 103.245 143.099 102.431 143.099 101.406C143.099 100.381 142.287 99.5668 141.265 99.5668H62.0924C61.07 99.5668 60.2581 100.381 60.2581 101.406C60.2581 102.431 61.07 103.245 62.0924 103.245Z" fill="#D4FCDD"/>
<path d="M32.8349 92.6616H56.5897C57.612 92.6616 58.4239 91.8173 58.4239 90.8222C58.4239 89.797 57.612 88.9829 56.5897 88.9829H32.8349C31.8426 88.9829 31.0308 89.797 31.0308 90.8222C31.0308 91.8173 31.8426 92.6616 32.8349 92.6616Z" fill="#D4FCDD"/>
<path d="M29.5875 103.245H53.3422C54.3646 103.245 55.1764 102.431 55.1764 101.406C55.1764 100.381 54.3646 99.5668 53.3422 99.5668H29.5875C28.5952 99.5668 27.7532 100.381 27.7532 101.406C27.7532 102.431 28.5952 103.245 29.5875 103.245Z" fill="#D4FCDD"/>
<path d="M126.651 80.4495H154.886C155.879 80.4495 156.72 79.6052 156.72 78.6101C156.72 77.5849 155.879 76.7708 154.886 76.7708H126.651C125.659 76.7708 124.817 77.5849 124.817 78.6101C124.817 79.6052 125.659 80.4495 126.651 80.4495Z" fill="#D4FCDD"/>
<path d="M140.483 132.434V131.831H98.3259V132.132H98.6266C98.6266 131.952 98.5063 131.831 98.3259 131.831V132.132L98.6266 132.193V132.132H98.3259L98.6266 132.193L100.491 124.926L100.22 124.866V125.137C100.341 125.137 100.461 125.046 100.491 124.926L100.22 124.866V125.137H142.377V124.866H142.077C142.077 125.016 142.197 125.137 142.377 125.137V124.866L142.107 124.775L142.077 124.866H142.377L142.107 124.775L140.212 132.042L140.483 132.132V131.831C140.363 131.831 140.243 131.921 140.212 132.042L140.483 132.132V131.831V133.067C140.904 133.067 141.265 132.766 141.385 132.374L143.28 125.077L143.31 124.866C143.31 124.353 142.889 123.931 142.377 123.931H100.22C99.7993 123.931 99.4384 124.202 99.3182 124.624L97.4238 131.891L97.3937 132.132C97.3937 132.615 97.8147 133.067 98.3259 133.067H140.483V132.434Z" fill="#D4FCDD"/>
<path d="M88.1023 132.434V131.831H45.9451V132.132H46.2458C46.2458 131.982 46.1256 131.831 45.9451 131.831V132.132L46.2158 132.193L46.2458 132.132H45.9451L46.2158 132.193L48.1101 124.926L47.8395 124.866V125.137C47.9598 125.137 48.0801 125.046 48.1101 124.926L47.8395 124.866V125.137H89.9967V124.866H89.696C89.696 125.016 89.8163 125.137 89.9967 125.137V124.866H89.696H89.9666L89.696 124.775V124.866H89.9666L89.696 124.775L87.8317 132.042L88.1023 132.132V131.831C87.952 131.831 87.8618 131.921 87.8317 132.042L88.1023 132.132V131.831V133.067C88.5233 133.067 88.8841 132.766 89.0044 132.374L90.8988 125.077L90.9288 124.866C90.9288 124.353 90.5079 123.931 89.9967 123.931H47.8395C47.4185 123.931 47.0276 124.202 46.9374 124.624L45.0431 131.891L45.013 132.132C45.013 132.615 45.434 133.067 45.9451 133.067H88.1023V132.434Z" fill="#D4FCDD"/>
<path d="M136.604 50.507H185.948V49.2708H136.604V50.507Z" fill="#D4FCDD"/>
</svg>
