<svg width="28" height="29" viewBox="0 0 28 29" fill="none" xmlns="http://www.w3.org/2000/svg">
<path d="M6.14685 12.3751C6.14539 11.3378 6.34917 10.3104 6.74647 9.35217C7.14376 8.39393 7.72671 7.52376 8.46174 6.79178C9.19677 6.0598 10.0694 5.48047 11.0292 5.08717C11.9891 4.69386 13.0173 4.49435 14.0547 4.50012C18.3859 4.53293 21.8531 8.13137 21.8531 12.4736V13.2501C21.8531 17.1657 22.6734 19.4407 23.3953 20.6876C23.472 20.8204 23.5124 20.971 23.5125 21.1244C23.5126 21.2777 23.4725 21.4284 23.3961 21.5613C23.3196 21.6942 23.2096 21.8047 23.077 21.8817C22.9444 21.9588 22.7939 21.9996 22.6406 22.0001H5.35935C5.20601 21.9996 5.05551 21.9588 4.92293 21.8817C4.79034 21.8047 4.68032 21.6942 4.60388 21.5613C4.52745 21.4284 4.48729 21.2777 4.48743 21.1244C4.48756 20.971 4.52799 20.8204 4.60466 20.6876C5.32653 19.4407 6.14685 17.1657 6.14685 13.2501V12.3751Z" stroke="#00C802" stroke-width="1.5" stroke-linecap="round"/>
<path d="M10.5 22V22.875C10.5 23.8033 10.8687 24.6935 11.5251 25.3499C12.1815 26.0063 13.0717 26.375 14 26.375C14.9283 26.375 15.8185 26.0063 16.4749 25.3499C17.1313 24.6935 17.5 23.8033 17.5 22.875V22" stroke="#00C802" stroke-width="1.5" stroke-linecap="round"/>
<circle cx="20" cy="6" r="5" fill="#00C802" stroke="white" stroke-width="1.5" stroke-linecap="round"/>
</svg>
