<svg width="26" height="15" viewBox="0 0 26 15" fill="none" xmlns="http://www.w3.org/2000/svg">
<rect width="26" height="15" rx="2" fill="#F2F2F2"/>
<path d="M6.01141 11V6.34L10.8514 11.41V4.33H9.83141V8.95L4.99141 3.88V11H6.01141ZM16.1523 5.33C16.0123 5.05 15.8223 4.82 15.6423 4.66C15.4323 4.48 15.0223 4.21 14.3023 4.21C13.0523 4.21 12.3523 5.07 12.3523 5.97C12.3523 6.97 13.1623 7.43 13.7123 7.66L14.3523 7.93C14.7923 8.11 15.3123 8.39 15.3123 9.07C15.3123 9.74 14.8323 10.19 14.2123 10.19C13.8123 10.19 13.5323 10.03 13.3423 9.79C13.1823 9.58 13.0623 9.27 13.0623 8.94L12.0523 9.16C12.0923 9.62 12.2523 10.06 12.6123 10.46C12.9523 10.84 13.4123 11.13 14.1823 11.13C15.4323 11.13 16.3323 10.26 16.3323 8.99C16.3323 8.23 15.9923 7.53 14.7623 7.03L14.0923 6.76C13.4423 6.5 13.3723 6.15 13.3723 5.95C13.3723 5.52 13.6923 5.15 14.3123 5.15C14.6023 5.15 14.8223 5.22 15.0323 5.39C15.1823 5.52 15.2723 5.66 15.3323 5.81L16.1523 5.33ZM21.2886 4.33H17.6086V11H21.2886V10.04H18.6286V7.94H21.2086V6.98H18.6286V5.29H21.2886V4.33Z" fill="#797979"/>
</svg>
