<svg width="50" height="50" viewBox="0 0 50 50" fill="none" xmlns="http://www.w3.org/2000/svg">
<rect x="0.5" y="0.5" width="49" height="49" rx="7.5" fill="white" stroke="#E0E0E0"/>
<rect x="12.8125" y="27.8125" width="24.375" height="5.625" fill="#CCECD3"/>
<path d="M36.25 16.5625H13.75C13.2322 16.5625 12.8125 16.9822 12.8125 17.5V32.5C12.8125 33.0178 13.2322 33.4375 13.75 33.4375H36.25C36.7678 33.4375 37.1875 33.0178 37.1875 32.5V17.5C37.1875 16.9822 36.7678 16.5625 36.25 16.5625Z" stroke="#3F3F3F" stroke-width="1.2" stroke-linecap="round" stroke-linejoin="round"/>
<path d="M29.6875 30.625H33.4375" stroke="#3F3F3F" stroke-width="1.2" stroke-linecap="round" stroke-linejoin="round"/>
<path d="M25 30.625H26.875" stroke="#3F3F3F" stroke-width="1.2" stroke-linecap="round" stroke-linejoin="round"/>
<path d="M30.625 22.0007H34" stroke="#3F3F3F" stroke-linecap="round" stroke-linejoin="round"/>
<path d="M30.625 20.3125H34" stroke="#3F3F3F" stroke-linecap="round" stroke-linejoin="round"/>
<path d="M31.6797 20.3125C32.0837 20.3125 32.4712 20.48 32.7569 20.7781C33.0426 21.0762 33.2031 21.4806 33.2031 21.9022C33.2031 22.3238 33.0426 22.7281 32.7569 23.0262C32.4712 23.3244 32.0837 23.4918 31.6797 23.4918H30.625L33.2031 25.9375" stroke="#3F3F3F" stroke-linecap="round" stroke-linejoin="round"/>
<path d="M12.8125 25L23.125 25" stroke="#3F3F3F" stroke-width="1.2" stroke-linecap="round" stroke-linejoin="round"/>
</svg>
