<svg width="39" height="12" viewBox="0 0 39 12" fill="none" xmlns="http://www.w3.org/2000/svg">
<circle cx="3" cy="5" r="3" fill="#00C802"/>
<path d="M14.764 9.144C17.08 9.144 18.928 7.38 18.928 5.004C18.928 2.616 17.068 0.864 14.764 0.864C12.46 0.864 10.6 2.616 10.6 5.004C10.6 7.38 12.448 9.144 14.764 9.144ZM14.764 1.704C16.564 1.704 18.016 3.168 18.016 5.004C18.016 6.84 16.564 8.304 14.764 8.304C12.964 8.304 11.512 6.84 11.512 5.004C11.512 3.168 12.964 1.704 14.764 1.704ZM21.2073 8.304C21.5793 8.784 22.1433 9.144 22.9473 9.144C24.4593 9.144 25.3353 7.908 25.3353 6.54C25.3353 5.196 24.4713 3.9 22.9113 3.9C22.5513 3.9 21.7953 3.984 21.2073 4.716V4.02H20.3433V11.76H21.2073V8.304ZM22.8273 8.376C21.8073 8.376 21.1593 7.548 21.1593 6.528C21.1593 5.328 22.0113 4.668 22.8153 4.668C23.6193 4.668 24.4473 5.316 24.4473 6.54C24.4473 7.536 23.8353 8.376 22.8273 8.376ZM30.3558 7.332C30.2478 7.572 30.0678 7.824 29.8398 8.016C29.5518 8.256 29.2278 8.376 28.8198 8.376C27.9558 8.376 27.2478 7.716 27.2358 6.684H31.1118C31.1358 6.024 30.9558 5.256 30.6438 4.812C30.3438 4.38 29.7318 3.9 28.7598 3.9C27.2598 3.9 26.3478 5.052 26.3478 6.54C26.3478 8.388 27.6077 9.144 28.8078 9.144C29.4438 9.144 30.0078 8.94 30.4638 8.532C30.7158 8.304 30.9318 8.004 31.0758 7.728L30.3558 7.332ZM27.2958 5.964C27.4277 5.22 28.0278 4.668 28.7598 4.668C29.4918 4.668 30.0798 5.184 30.2238 5.964H27.2958ZM32.4371 9H33.3011V6.396C33.3011 6.036 33.3251 5.448 33.6611 5.052C33.9131 4.752 34.2371 4.668 34.5371 4.668C34.9211 4.668 35.1851 4.812 35.3531 5.028C35.5571 5.292 35.5811 5.64 35.5811 5.94V9H36.4451V5.916C36.4451 5.364 36.4091 4.956 36.1571 4.584C35.8571 4.14 35.3171 3.9 34.7291 3.9C33.9011 3.9 33.4571 4.392 33.3011 4.596V4.02H32.4371V9Z" fill="#797979"/>
</svg>
