<svg width="24" height="24" viewBox="0 0 24 24" fill="none" xmlns="http://www.w3.org/2000/svg">
<path d="M12 2C10.0222 2 8.08879 2.58649 6.4443 3.6853C4.79981 4.78412 3.51809 6.3459 2.76121 8.17316C2.00433 10.0004 1.8063 12.0111 2.19215 13.9509C2.578 15.8907 3.53041 17.6725 4.92894 19.0711C6.32746 20.4696 8.10929 21.422 10.0491 21.8078C11.9889 22.1937 13.9996 21.9957 15.8268 21.2388C17.6541 20.4819 19.2159 19.2002 20.3147 17.5557C21.4135 15.9112 22 13.9778 22 12C21.9949 9.3494 20.9397 6.80881 19.0655 4.93455C17.1912 3.06028 14.6506 2.00508 12 2Z" fill="#00C802"/>
<path d="M16.7828 9.80498L11.1481 15.1896C11.0025 15.3266 10.8097 15.4024 10.6097 15.4011C10.5119 15.4025 10.4149 15.3846 10.3241 15.3483C10.2333 15.3119 10.1507 15.258 10.0808 15.1896L7.26352 12.4973C7.18538 12.4291 7.12183 12.3458 7.07669 12.2525C7.03156 12.1591 7.00576 12.0576 7.00086 11.954C6.99596 11.8504 7.01205 11.7469 7.04818 11.6497C7.0843 11.5525 7.1397 11.4636 7.21106 11.3883C7.28241 11.3131 7.36825 11.2531 7.4634 11.2118C7.55856 11.1706 7.66106 11.149 7.76476 11.1484C7.86846 11.1478 7.97121 11.1682 8.06684 11.2083C8.16247 11.2484 8.24899 11.3075 8.32122 11.3819L10.6097 13.5646L15.7251 8.6896C15.8746 8.5591 16.0689 8.49148 16.2671 8.50086C16.4654 8.51024 16.6524 8.5959 16.7889 8.73993C16.9255 8.88396 17.0011 9.07521 17 9.2737C16.9988 9.47219 16.921 9.66255 16.7828 9.80498Z" fill="white"/>
</svg>
