<svg width="228" height="180" viewBox="0 0 228 180" fill="none" xmlns="http://www.w3.org/2000/svg">
<defs>
<linearGradient id="paint0_linear_4429_27070" x1="59.068" y1="108.765" x2="159.525" y2="110.567" gradientUnits="userSpaceOnUse">
<stop stop-color="#79D98E"/>
<stop offset="1" stop-color="#00C802"/>
</linearGradient>
</defs>
<path d="M110.357 180C138.683 180 161.646 157.037 161.646 128.71C161.646 100.384 138.683 77.4214 110.357 77.4214C82.0309 77.4214 59.068 100.384 59.068 128.71C59.068 157.037 82.0309 180 110.357 180Z" fill="url(#paint0_linear_4429_27070)"/>
<path d="M135.61 107.064C136.256 107.593 126.676 120.484 114.216 135.844L106.654 145.012L105.616 146.266L104.519 145.13C94.7233 135.079 88.1212 127.635 88.5913 127.165C89.0615 126.695 96.5256 133.336 106.556 143.073L104.44 143.288L111.846 134.022C124.306 118.564 134.944 106.535 135.61 107.064Z" fill="white"/>
<path d="M183.216 108.025C181.688 102.638 174.694 103.167 174.694 103.167L174.87 106.908C178.925 106.203 181.433 110.944 181.433 110.944L183.216 108.025Z" fill="#00C802"/>
<path d="M34.638 119.35C33.1295 113.962 26.116 114.472 26.116 114.472L26.3119 118.233C30.3672 117.528 32.8748 122.269 32.8748 122.269L34.638 119.35Z" fill="#00C802"/>
<path d="M116.469 44.805C124.6 47.2734 129.654 37.909 129.654 37.909L124.717 35.0879C122.288 40.828 114.177 40.1619 114.177 40.1619L116.469 44.805Z" fill="#00C802"/>
<path d="M71.3907 54.8931C67.6097 55.3045 67.1591 60.0455 67.1591 60.0455L69.6863 60.3393C69.6863 57.5574 73.1539 56.4212 73.1539 56.4212L71.3907 54.8931Z" fill="#00C802"/>
<path d="M227.217 89.6082C227.765 85.8468 223.299 84.2207 223.299 84.2207L222.378 86.5912C225.081 87.2769 225.336 90.9208 225.336 90.9208L227.217 89.6082Z" fill="#00C802"/>
<path d="M93.4499 5.38751C93.9985 1.62605 89.5317 0 89.5317 0L88.611 2.3901C91.3145 3.07578 91.5692 6.7001 91.5692 6.7001L93.4499 5.38751Z" fill="#00C802"/>
<path d="M0.0403697 66.0629C-0.625723 71.9402 7.17147 73.39 7.17147 73.39L8.58202 69.4718C3.89979 69.0408 3.23367 63.5945 3.23367 63.5945L0.0403697 66.0629Z" fill="#00C802"/>
<path d="M173.93 44.6886C177.73 44.9041 178.945 40.3002 178.945 40.3002L176.496 39.595C176.046 42.3377 172.441 42.9058 172.441 42.9058L173.93 44.6886Z" fill="#00C802"/>
<path d="M194.676 60.1672C193.658 60.4529 192.596 60.5524 191.542 60.4611C190.488 60.5546 189.425 60.455 188.407 60.1672C190.476 59.7493 192.607 59.7493 194.676 60.1672V60.1672Z" fill="#00C802"/>
<path d="M198.007 51.6394C198.399 53.7371 198.399 55.8892 198.007 57.9869C197.589 55.8917 197.589 53.7346 198.007 51.6394V51.6394Z" fill="#00C802"/>
<path d="M201.533 59.9515C202.552 59.6658 203.614 59.5662 204.668 59.6576C205.722 59.564 206.784 59.6637 207.802 59.9515C205.734 60.3694 203.602 60.3694 201.533 59.9515V59.9515Z" fill="#00C802"/>
<path d="M198.222 68.4918C197.804 66.39 197.804 64.2265 198.222 62.1248C198.614 64.229 198.614 66.3875 198.222 68.4918Z" fill="#00C802"/>
<path d="M203.277 64.9246C203.159 65.0226 202.552 64.5132 201.925 63.7883C201.298 63.0635 200.926 62.3582 201.044 62.2602C201.161 62.1623 201.788 62.6521 202.395 63.3965C203.003 64.141 203.414 64.7091 203.277 64.9246Z" fill="#00C802"/>
<path d="M202.983 55.1304C203.101 55.2675 202.689 55.8748 202.043 56.5213C201.396 57.1678 200.789 57.5988 200.671 57.4813C200.554 57.3637 200.965 56.7368 201.612 56.0903C202.258 55.4438 202.866 55.1304 202.983 55.1304Z" fill="#00C802"/>
<path d="M195.813 57.6181C195.695 57.7552 195.107 57.4418 194.5 56.9324C193.893 56.423 193.501 55.9137 193.599 55.7961C193.697 55.6786 194.285 55.9724 194.892 56.4622C195.499 56.952 195.911 57.5005 195.813 57.6181Z" fill="#00C802"/>
<path d="M195.519 61.8875C195.656 61.9855 195.284 62.5928 194.696 63.2393C194.108 63.8858 193.54 64.2972 193.423 64.1797C193.305 64.0621 193.658 63.4548 194.245 62.8279C194.833 62.201 195.401 61.77 195.519 61.8875Z" fill="#00C802"/>
<path d="M24.0001 42.6895C21.9312 43.1074 19.7998 43.1074 17.731 42.6895C18.7496 42.4038 19.8115 42.3043 20.8655 42.3956C21.9195 42.3021 22.9818 42.4017 24.0001 42.6895Z" fill="#00C802"/>
<path d="M27.3305 34.165C27.7485 36.2668 27.7485 38.4303 27.3305 40.5321C26.9125 38.4303 26.9125 36.2668 27.3305 34.165Z" fill="#00C802"/>
<path d="M30.8766 42.4924C32.9454 42.0745 35.0769 42.0745 37.1457 42.4924C35.0769 42.9104 32.9454 42.9104 30.8766 42.4924Z" fill="#00C802"/>
<path d="M27.5462 51.0171C27.1282 48.9219 27.1282 46.7649 27.5462 44.6697C27.9642 46.7649 27.9642 48.9219 27.5462 51.0171V51.0171Z" fill="#00C802"/>
<path d="M32.62 47.2926C32.4829 47.4101 31.8756 46.9007 31.2683 46.1563C30.6609 45.4118 30.2495 44.7457 30.3867 44.6282C30.5238 44.5107 31.1115 45.0396 31.7385 45.7645C32.3654 46.4893 32.7376 47.2926 32.62 47.2926Z" fill="#00C802"/>
<path d="M32.3263 37.6931C32.4438 37.8107 32.0128 38.4376 31.3859 39.0841C30.759 39.7306 30.1321 40.142 30.0145 40.0244C29.897 39.9069 30.3084 39.2996 30.9549 38.6531C31.6014 38.0066 32.2087 37.4972 32.3263 37.6931Z" fill="#00C802"/>
<path d="M25.1364 40.1592C25.0384 40.2768 24.4507 39.9829 23.8434 39.4735C23.2361 38.9642 22.8246 38.4548 22.9422 38.3177C23.0597 38.1805 23.6279 38.494 24.2352 39.0034C24.8425 39.5127 25.2539 40.0221 25.1364 40.1592Z" fill="#00C802"/>
<path d="M24.8621 44.4125C24.9796 44.53 24.6074 45.1374 24.0392 45.7839C23.4711 46.4304 22.8834 46.8418 22.7462 46.7242C22.6091 46.6067 23.0009 45.9994 23.5691 45.3725C24.1372 44.7456 24.7249 44.295 24.8621 44.4125Z" fill="#00C802"/>
</svg>
