<svg width="228" height="180" viewBox="0 0 228 180" fill="none" xmlns="http://www.w3.org/2000/svg">
<defs>
<linearGradient id="paint0_linear_5377_35188" x1="59" y1="108.765" x2="159.457" y2="110.567" gradientUnits="userSpaceOnUse">
<stop stop-color="#CC5439"/>
<stop offset="1" stop-color="#B94236"/>
</linearGradient>
<linearGradient id="paint1_linear_5377_35188" x1="174.694" y1="105.533" x2="183.039" y2="105.697" gradientUnits="userSpaceOnUse">
<stop stop-color="#CC5439"/>
<stop offset="1" stop-color="#B94236"/>
</linearGradient>
<linearGradient id="paint2_linear_5377_35188" x1="26.1159" y1="116.845" x2="34.4612" y2="117.009" gradientUnits="userSpaceOnUse">
<stop stop-color="#CC5439"/>
<stop offset="1" stop-color="#B94236"/>
</linearGradient>
<linearGradient id="paint3_linear_5377_35188" x1="114.177" y1="38.1836" x2="129.328" y2="38.5988" gradientUnits="userSpaceOnUse">
<stop stop-color="#CC5439"/>
<stop offset="1" stop-color="#B94236"/>
</linearGradient>
<linearGradient id="paint4_linear_5377_35188" x1="67.1591" y1="56.5572" x2="73.0295" y2="56.6731" gradientUnits="userSpaceOnUse">
<stop stop-color="#CC5439"/>
<stop offset="1" stop-color="#B94236"/>
</linearGradient>
<linearGradient id="paint5_linear_5377_35188" x1="222.378" y1="86.268" x2="227.163" y2="86.3305" gradientUnits="userSpaceOnUse">
<stop stop-color="#CC5439"/>
<stop offset="1" stop-color="#B94236"/>
</linearGradient>
<linearGradient id="paint6_linear_5377_35188" x1="88.611" y1="2.04725" x2="93.3963" y2="2.10984" gradientUnits="userSpaceOnUse">
<stop stop-color="#CC5439"/>
<stop offset="1" stop-color="#B94236"/>
</linearGradient>
<linearGradient id="paint7_linear_5377_35188" x1="6.01971e-08" y1="66.5875" x2="8.40516" y2="66.7196" gradientUnits="userSpaceOnUse">
<stop stop-color="#CC5439"/>
<stop offset="1" stop-color="#B94236"/>
</linearGradient>
<linearGradient id="paint8_linear_5377_35188" x1="172.441" y1="41.1536" x2="178.809" y2="41.2993" gradientUnits="userSpaceOnUse">
<stop stop-color="#CC5439"/>
<stop offset="1" stop-color="#B94236"/>
</linearGradient>
<linearGradient id="paint9_linear_5377_35188" x1="188.407" y1="60.0497" x2="194.365" y2="61.0945" gradientUnits="userSpaceOnUse">
<stop stop-color="#CC5439"/>
<stop offset="1" stop-color="#B94236"/>
</linearGradient>
<linearGradient id="paint10_linear_5377_35188" x1="197.693" y1="53.5789" x2="198.288" y2="53.5799" gradientUnits="userSpaceOnUse">
<stop stop-color="#CC5439"/>
<stop offset="1" stop-color="#B94236"/>
</linearGradient>
<linearGradient id="paint11_linear_5377_35188" x1="201.533" y1="59.8195" x2="207.492" y2="60.8642" gradientUnits="userSpaceOnUse">
<stop stop-color="#CC5439"/>
<stop offset="1" stop-color="#B94236"/>
</linearGradient>
<linearGradient id="paint12_linear_5377_35188" x1="197.909" y1="64.0702" x2="198.504" y2="64.0713" gradientUnits="userSpaceOnUse">
<stop stop-color="#CC5439"/>
<stop offset="1" stop-color="#B94236"/>
</linearGradient>
<linearGradient id="paint13_linear_5377_35188" x1="201.022" y1="63.0694" x2="203.256" y2="63.1034" gradientUnits="userSpaceOnUse">
<stop stop-color="#CC5439"/>
<stop offset="1" stop-color="#B94236"/>
</linearGradient>
<linearGradient id="paint14_linear_5377_35188" x1="200.651" y1="55.8546" x2="202.954" y2="55.8956" gradientUnits="userSpaceOnUse">
<stop stop-color="#CC5439"/>
<stop offset="1" stop-color="#B94236"/>
</linearGradient>
<linearGradient id="paint15_linear_5377_35188" x1="193.584" y1="56.3447" x2="195.781" y2="56.3917" gradientUnits="userSpaceOnUse">
<stop stop-color="#CC5439"/>
<stop offset="1" stop-color="#B94236"/>
</linearGradient>
<linearGradient id="paint16_linear_5377_35188" x1="193.4" y1="62.5806" x2="195.503" y2="62.6153" gradientUnits="userSpaceOnUse">
<stop stop-color="#CC5439"/>
<stop offset="1" stop-color="#B94236"/>
</linearGradient>
<linearGradient id="paint17_linear_5377_35188" x1="17.7309" y1="42.5575" x2="23.6891" y2="43.6023" gradientUnits="userSpaceOnUse">
<stop stop-color="#CC5439"/>
<stop offset="1" stop-color="#B94236"/>
</linearGradient>
<linearGradient id="paint18_linear_5377_35188" x1="27.0169" y1="36.1105" x2="27.6312" y2="36.1116" gradientUnits="userSpaceOnUse">
<stop stop-color="#CC5439"/>
<stop offset="1" stop-color="#B94236"/>
</linearGradient>
<linearGradient id="paint19_linear_5377_35188" x1="30.8765" y1="42.3705" x2="36.8265" y2="43.4378" gradientUnits="userSpaceOnUse">
<stop stop-color="#CC5439"/>
<stop offset="1" stop-color="#B94236"/>
</linearGradient>
<linearGradient id="paint20_linear_5377_35188" x1="27.2327" y1="46.6092" x2="27.8469" y2="46.6103" gradientUnits="userSpaceOnUse">
<stop stop-color="#CC5439"/>
<stop offset="1" stop-color="#B94236"/>
</linearGradient>
<linearGradient id="paint21_linear_5377_35188" x1="30.3602" y1="45.4361" x2="32.5946" y2="45.47" gradientUnits="userSpaceOnUse">
<stop stop-color="#CC5439"/>
<stop offset="1" stop-color="#B94236"/>
</linearGradient>
<linearGradient id="paint22_linear_5377_35188" x1="29.9946" y1="38.3821" x2="32.2971" y2="38.4226" gradientUnits="userSpaceOnUse">
<stop stop-color="#CC5439"/>
<stop offset="1" stop-color="#B94236"/>
</linearGradient>
<linearGradient id="paint23_linear_5377_35188" x1="22.9221" y1="38.8658" x2="25.1099" y2="38.912" gradientUnits="userSpaceOnUse">
<stop stop-color="#CC5439"/>
<stop offset="1" stop-color="#B94236"/>
</linearGradient>
<linearGradient id="paint24_linear_5377_35188" x1="22.7187" y1="45.112" x2="24.839" y2="45.147" gradientUnits="userSpaceOnUse">
<stop stop-color="#CC5439"/>
<stop offset="1" stop-color="#B94236"/>
</linearGradient>
</defs>
<path d="M110.289 180C138.615 180 161.578 157.037 161.578 128.71C161.578 100.384 138.615 77.4214 110.289 77.4214C81.9629 77.4214 59 100.384 59 128.71C59 157.037 81.9629 180 110.289 180Z" fill="url(#paint0_linear_5377_35188)"/>
<circle cx="110" cy="108" r="3" fill="white"/>
<path d="M110.241 158.41C109.57 158.684 108.253 146.084 108.537 130.276L108.785 120.745L108.821 119.439C108.986 117.495 112.173 117.382 112.04 119.769L111.939 129.222C111.704 145.07 110.924 158.12 110.241 158.41Z" fill="white"/>
<path d="M183.216 108.025C181.688 102.638 174.694 103.167 174.694 103.167L174.87 106.908C178.925 106.203 181.433 110.944 181.433 110.944L183.216 108.025Z" fill="url(#paint1_linear_5377_35188)"/>
<path d="M34.638 119.35C33.1294 113.962 26.1159 114.472 26.1159 114.472L26.3118 118.233C30.3671 117.528 32.8748 122.269 32.8748 122.269L34.638 119.35Z" fill="url(#paint2_linear_5377_35188)"/>
<path d="M116.469 44.805C124.6 47.2734 129.654 37.909 129.654 37.909L124.717 35.0879C122.288 40.828 114.177 40.1619 114.177 40.1619L116.469 44.805Z" fill="url(#paint3_linear_5377_35188)"/>
<path d="M71.3907 54.8931C67.6097 55.3045 67.1591 60.0455 67.1591 60.0455L69.6863 60.3393C69.6863 57.5574 73.1539 56.4212 73.1539 56.4212L71.3907 54.8931Z" fill="url(#paint4_linear_5377_35188)"/>
<path d="M227.217 89.6082C227.766 85.8468 223.299 84.2207 223.299 84.2207L222.378 86.5912C225.082 87.2769 225.336 90.9208 225.336 90.9208L227.217 89.6082Z" fill="url(#paint5_linear_5377_35188)"/>
<path d="M93.45 5.38751C93.9985 1.62605 89.5318 0 89.5318 0L88.611 2.3901C91.3146 3.07578 91.5692 6.7001 91.5692 6.7001L93.45 5.38751Z" fill="url(#paint6_linear_5377_35188)"/>
<path d="M0.0403697 66.0629C-0.625723 71.9402 7.17147 73.39 7.17147 73.39L8.58202 69.4718C3.89979 69.0408 3.23367 63.5945 3.23367 63.5945L0.0403697 66.0629Z" fill="url(#paint7_linear_5377_35188)"/>
<path d="M173.93 44.6886C177.73 44.9041 178.945 40.3002 178.945 40.3002L176.496 39.595C176.046 42.3377 172.441 42.9058 172.441 42.9058L173.93 44.6886Z" fill="url(#paint8_linear_5377_35188)"/>
<path d="M194.676 60.1672C193.658 60.4529 192.596 60.5524 191.542 60.4611C190.488 60.5546 189.425 60.455 188.407 60.1672C190.476 59.7493 192.607 59.7493 194.676 60.1672V60.1672Z" fill="url(#paint9_linear_5377_35188)"/>
<path d="M198.007 51.6394C198.399 53.7371 198.399 55.8892 198.007 57.9869C197.589 55.8917 197.589 53.7346 198.007 51.6394V51.6394Z" fill="url(#paint10_linear_5377_35188)"/>
<path d="M201.533 59.9515C202.552 59.6658 203.614 59.5662 204.668 59.6576C205.722 59.564 206.784 59.6637 207.802 59.9515C205.734 60.3694 203.602 60.3694 201.533 59.9515V59.9515Z" fill="url(#paint11_linear_5377_35188)"/>
<path d="M198.222 68.4918C197.804 66.39 197.804 64.2265 198.222 62.1248C198.614 64.229 198.614 66.3875 198.222 68.4918Z" fill="url(#paint12_linear_5377_35188)"/>
<path d="M203.277 64.9246C203.159 65.0226 202.552 64.5132 201.925 63.7883C201.298 63.0635 200.926 62.3582 201.044 62.2602C201.161 62.1623 201.788 62.6521 202.395 63.3965C203.003 64.141 203.414 64.7091 203.277 64.9246Z" fill="url(#paint13_linear_5377_35188)"/>
<path d="M202.983 55.1304C203.101 55.2675 202.689 55.8748 202.043 56.5213C201.396 57.1678 200.789 57.5988 200.671 57.4813C200.554 57.3637 200.965 56.7368 201.612 56.0903C202.258 55.4438 202.866 55.1304 202.983 55.1304Z" fill="url(#paint14_linear_5377_35188)"/>
<path d="M195.813 57.6181C195.695 57.7552 195.108 57.4418 194.5 56.9324C193.893 56.423 193.501 55.9137 193.599 55.7961C193.697 55.6786 194.285 55.9724 194.892 56.4622C195.499 56.952 195.911 57.5005 195.813 57.6181Z" fill="url(#paint15_linear_5377_35188)"/>
<path d="M195.519 61.8875C195.656 61.9855 195.284 62.5928 194.696 63.2393C194.108 63.8858 193.54 64.2972 193.423 64.1797C193.305 64.0621 193.658 63.4548 194.245 62.8279C194.833 62.201 195.401 61.77 195.519 61.8875Z" fill="url(#paint16_linear_5377_35188)"/>
<path d="M24 42.6895C21.9312 43.1074 19.7997 43.1074 17.7309 42.6895C18.7496 42.4038 19.8114 42.3043 20.8654 42.3956C21.9195 42.3021 22.9817 42.4017 24 42.6895Z" fill="url(#paint17_linear_5377_35188)"/>
<path d="M27.3304 34.165C27.7485 36.2668 27.7485 38.4303 27.3304 40.5321C26.9124 38.4303 26.9124 36.2668 27.3304 34.165Z" fill="url(#paint18_linear_5377_35188)"/>
<path d="M30.8765 42.4924C32.9453 42.0745 35.0768 42.0745 37.1456 42.4924C35.0768 42.9104 32.9453 42.9104 30.8765 42.4924Z" fill="url(#paint19_linear_5377_35188)"/>
<path d="M27.5462 51.0171C27.1282 48.9219 27.1282 46.7649 27.5462 44.6697C27.9642 46.7649 27.9642 48.9219 27.5462 51.0171V51.0171Z" fill="url(#paint20_linear_5377_35188)"/>
<path d="M32.62 47.2926C32.4828 47.4101 31.8755 46.9007 31.2682 46.1563C30.6609 45.4118 30.2495 44.7457 30.3866 44.6282C30.5238 44.5107 31.1115 45.0396 31.7384 45.7645C32.3653 46.4893 32.7375 47.2926 32.62 47.2926Z" fill="url(#paint21_linear_5377_35188)"/>
<path d="M32.3263 37.6931C32.4439 37.8107 32.0129 38.4376 31.386 39.0841C30.7591 39.7306 30.1321 40.142 30.0146 40.0244C29.897 39.9069 30.3085 39.2996 30.955 38.6531C31.6015 38.0066 32.2088 37.4972 32.3263 37.6931Z" fill="url(#paint22_linear_5377_35188)"/>
<path d="M25.1363 40.1592C25.0384 40.2768 24.4506 39.9829 23.8433 39.4735C23.236 38.9642 22.8246 38.4548 22.9421 38.3177C23.0597 38.1805 23.6278 38.494 24.2351 39.0034C24.8425 39.5127 25.2539 40.0221 25.1363 40.1592Z" fill="url(#paint23_linear_5377_35188)"/>
<path d="M24.862 44.4125C24.9795 44.53 24.6073 45.1374 24.0392 45.7839C23.471 46.4304 22.8833 46.8418 22.7462 46.7242C22.609 46.6067 23.0009 45.9994 23.569 45.3725C24.1371 44.7456 24.7249 44.295 24.862 44.4125Z" fill="url(#paint24_linear_5377_35188)"/>
</svg>
