<svg width="235" height="152" viewBox="0 0 235 152" fill="none" xmlns="http://www.w3.org/2000/svg">
<path d="M24.9657 42.3377L3.18554 35.7398C2.33802 35.4847 1.86415 34.5916 2.11931 33.7441L6.00602 20.9175C6.26119 20.07 7.15426 19.5961 8.00178 19.8512L29.7819 26.4491C30.6294 26.7042 31.1033 27.5973 30.8482 28.4448L26.9614 41.2714C26.7063 42.1189 25.8132 42.5974 24.9657 42.3377Z" fill="white" stroke="#263238" stroke-width="0.468861" stroke-miterlimit="10"/>
<path d="M5.34998 23.0898L30.1921 30.6172" stroke="#263238" stroke-width="0.468861" stroke-miterlimit="10"/>
<path d="M4.59412 25.5806L29.4363 33.1079" stroke="#263238" stroke-width="0.468861" stroke-miterlimit="10"/>
<path d="M21.8769 37.7732C21.7448 38.2152 21.8086 38.6663 22.0182 39.0399C21.6628 39.2176 21.2344 39.2632 20.8198 39.1402C19.9632 38.8805 19.4802 37.9828 19.7399 37.1262C19.9996 36.2696 20.9018 35.7866 21.7584 36.0463C22.1731 36.1739 22.5012 36.4518 22.6971 36.7981C22.3143 36.9941 22.0136 37.3358 21.8769 37.7732Z" stroke="#263238" stroke-width="0.468861" stroke-miterlimit="10"/>
<path d="M24.9702 38.7129C24.7105 39.565 23.8083 40.048 22.9562 39.7928C22.1041 39.5331 21.6211 38.6309 21.8763 37.7788C22.136 36.9268 23.0382 36.4438 23.8903 36.6989C24.7469 36.9541 25.2299 37.8563 24.9702 38.7129Z" stroke="#263238" stroke-width="0.468861" stroke-miterlimit="10"/>
<path d="M229.012 100.791L210.017 101.321C209.126 101.347 208.413 100.658 208.416 99.7835L208.472 88.9953C208.475 88.1207 209.201 87.3966 210.091 87.3703L229.087 86.8405C229.978 86.8142 230.691 87.503 230.688 88.3776L230.631 99.1658C230.628 100.04 229.903 100.764 229.012 100.791Z" fill="white" stroke="#263238" stroke-width="0.468861" stroke-miterlimit="10"/>
<path d="M208.474 90.6112L230.549 90.0015" stroke="#263238" stroke-width="0.468861" stroke-miterlimit="10"/>
<path d="M208.5 92.8296L230.571 92.2213" stroke="#263238" stroke-width="0.468861" stroke-miterlimit="10"/>
<path d="M225.64 98.1065C225.637 98.4939 225.801 98.8411 226.064 99.081C225.816 99.3171 225.475 99.4703 225.106 99.482C224.337 99.5054 223.72 98.9141 223.722 98.1594C223.724 97.4047 224.351 96.7767 225.116 96.759C225.486 96.7473 225.828 96.8857 226.071 97.1085C225.81 97.3631 225.642 97.7192 225.64 98.1065Z" stroke="#263238" stroke-width="0.468861" stroke-miterlimit="10"/>
<path d="M228.395 98.0644C228.391 98.8143 227.765 99.4418 227.002 99.4638C226.238 99.4858 225.62 98.8906 225.623 98.1407C225.626 97.3908 226.253 96.7633 227.016 96.7413C227.784 96.7179 228.401 97.3088 228.395 98.0644Z" stroke="#263238" stroke-width="0.468861" stroke-miterlimit="10"/>
<path d="M188.856 13.6349L162.483 25.7104L168.766 39.4314L195.139 27.3558L188.856 13.6349Z" fill="white" stroke="#263238" stroke-width="0.4" stroke-miterlimit="10"/>
<path d="M192.875 25.3651L188.883 16.6485C188.108 17.0039 187.188 16.6622 186.833 15.8876L165.513 25.6476C165.868 26.4222 165.526 27.3427 164.752 27.6981L168.743 36.4147C169.518 36.0593 170.438 36.401 170.794 37.1756L192.114 27.4156C191.754 26.6364 192.095 25.7205 192.875 25.3651Z" fill="#00C802" stroke="#263238" stroke-width="0.2" stroke-miterlimit="10"/>
<path d="M180.794 29.9637C182.69 28.869 183.34 26.4446 182.245 24.5486C181.151 22.6526 178.726 22.003 176.83 23.0976C174.934 24.1923 174.285 26.6167 175.379 28.5127C176.474 30.4087 178.898 31.0584 180.794 29.9637Z" stroke="white" stroke-width="0.468861" stroke-miterlimit="10"/>
<path d="M179.341 25.1208L179.416 25.457L177.094 26.7978L177.016 26.4632L179.341 25.1208ZM180.211 28.4782L177.867 27.6275L177.726 27.3898L178.151 27.1446C178.359 27.0246 178.508 26.8858 178.599 26.7283C178.689 26.5709 178.732 26.4074 178.728 26.2381C178.723 26.0687 178.678 25.9097 178.592 25.7609C178.489 25.5817 178.36 25.4481 178.206 25.3599C178.053 25.2718 177.88 25.234 177.689 25.2464C177.497 25.257 177.293 25.3249 177.076 25.4501L176.546 25.7558L176.473 25.4181L176.911 25.1651C177.191 25.0037 177.457 24.9122 177.71 24.8906C177.961 24.8671 178.19 24.9132 178.395 25.0288C178.602 25.1434 178.778 25.3252 178.922 25.5743C179.038 25.7768 179.104 25.9883 179.12 26.209C179.135 26.4268 179.083 26.64 178.962 26.8484C178.842 27.054 178.635 27.2411 178.343 27.4097L180.573 28.2229L180.593 28.2578L180.211 28.4782ZM178.753 24.1021L178.828 24.4382L176.745 25.6409L176.669 25.3048L178.753 24.1021Z" fill="white"/>
<path d="M26.7036 99.5652L1.3324 99.0675L1.12568 112.745L26.4969 113.243L26.7036 99.5652Z" fill="white" stroke="#263238" stroke-width="0.4" stroke-miterlimit="10"/>
<path d="M25.4481 110.734L25.577 102.023C24.8282 102.006 24.2321 101.369 24.2456 100.59L3.75345 100.189C3.7399 100.967 3.12919 101.585 2.38036 101.569L2.25138 110.279C3.00021 110.296 3.59636 110.933 3.58281 111.712L24.075 112.114C24.0879 111.341 24.7043 110.724 25.4481 110.734Z" fill="#00C802" stroke="#263238" stroke-width="0.2" stroke-miterlimit="10"/>
<path d="M17.2689 105.651C17.4432 107.515 16.0745 109.146 14.2114 109.294C12.3484 109.441 10.6972 108.05 10.523 106.185C10.3487 104.321 11.7174 102.69 13.5805 102.543C15.4436 102.395 17.0947 103.787 17.2689 105.651Z" stroke="white" stroke-width="0.2" stroke-miterlimit="10"/>
<path d="M14.9863 105.267L14.9099 105.538L12.8317 105.522L12.9056 105.252L14.9863 105.267ZM14.2999 108.015L13.0389 106.434L13.034 106.206L13.4141 106.209C13.6001 106.211 13.7536 106.174 13.8747 106.1C13.9957 106.026 14.0868 105.928 14.148 105.806C14.2092 105.683 14.239 105.552 14.2375 105.41C14.2356 105.24 14.1995 105.091 14.1291 104.965C14.0588 104.838 13.9567 104.739 13.8228 104.668C13.6889 104.596 13.525 104.559 13.3309 104.557L12.8571 104.554L12.9359 104.283L13.3279 104.286C13.5781 104.288 13.7927 104.334 13.9716 104.424C14.1506 104.512 14.2875 104.64 14.3823 104.808C14.4788 104.976 14.5283 105.178 14.5309 105.415C14.5331 105.607 14.4973 105.785 14.4238 105.948C14.3518 106.11 14.2354 106.239 14.0745 106.337C13.9152 106.433 13.7049 106.48 13.4435 106.478L14.6411 107.985L14.6414 108.018L14.2999 108.015ZM14.9756 104.299L14.8992 104.569L13.0351 104.555L13.1114 104.285L14.9756 104.299Z" fill="white"/>
<path d="M106.106 101.644L105.916 102.298H102.076L102.266 101.644H106.106ZM104.385 106.195L102.196 103.638L102.192 103.125H103.201C103.494 103.125 103.735 103.077 103.926 102.981C104.119 102.881 104.263 102.747 104.36 102.579C104.457 102.411 104.505 102.222 104.505 102.012C104.505 101.778 104.459 101.572 104.368 101.396C104.277 101.217 104.134 101.077 103.938 100.978C103.745 100.876 103.491 100.825 103.177 100.825H102.084L102.279 100.171H103.177C103.657 100.171 104.052 100.244 104.364 100.39C104.679 100.534 104.913 100.744 105.068 101.019C105.222 101.295 105.299 101.629 105.299 102.021C105.299 102.357 105.234 102.659 105.105 102.927C104.978 103.192 104.767 103.4 104.472 103.552C104.179 103.703 103.785 103.779 103.288 103.779L105.324 106.146V106.195H104.385ZM106.106 100.171L105.916 100.825H102.821L103.011 100.171H106.106Z" fill="#263238"/>
<path d="M114.243 116.246L114.176 116.464H112.401L112.467 116.246H114.243ZM113.631 118.458L112.57 117.195L112.568 117.012H112.892C113.051 117.012 113.182 116.982 113.286 116.922C113.391 116.862 113.469 116.782 113.523 116.684C113.576 116.585 113.603 116.479 113.603 116.365C113.603 116.229 113.573 116.109 113.514 116.008C113.456 115.907 113.369 115.828 113.256 115.772C113.142 115.714 113.002 115.686 112.837 115.686H112.432L112.502 115.468H112.837C113.05 115.468 113.233 115.504 113.385 115.575C113.537 115.645 113.653 115.747 113.732 115.881C113.813 116.015 113.853 116.177 113.853 116.367C113.853 116.522 113.821 116.665 113.757 116.797C113.694 116.927 113.593 117.031 113.455 117.111C113.318 117.189 113.138 117.228 112.915 117.228L113.923 118.431V118.458H113.631ZM114.243 115.468L114.176 115.686H112.584L112.652 115.468H114.243Z" fill="white"/>
<ellipse cx="111.711" cy="150.495" rx="110.686" ry="0.464357" fill="#263238"/>
<path d="M58.0133 60.6127L69.8126 66.0484L79.9607 53.0983C79.9607 53.0983 79.4021 49.6399 79.5413 49.155C79.6804 48.6742 80.8486 46.9537 81.0552 46.6754C81.2618 46.4012 81.6751 46.6754 81.7426 47.0886C81.81 47.5019 81.5359 47.8477 81.3968 48.1893C81.2576 48.5351 80.9835 49.2899 80.9835 49.2899L81.3293 50.3231L84.977 47.4302C84.977 47.4302 85.8036 46.3296 86.0777 46.8103C86.2464 47.1013 86.2211 47.4682 86.0229 47.738L84.3571 49.9773L85.4578 50.0448L88.144 47.7718C88.144 47.7718 88.6248 47.5651 88.6965 48.1851C88.7386 48.573 88.5953 48.961 88.3085 49.2309L86.6639 50.7659L85.6012 51.4195L88.7681 50.1122C88.7681 50.1122 89.1814 50.5255 89.0423 50.7321L85.6012 53.4184L88.1482 53.0051C88.1482 53.0051 88.494 53.4859 88.2874 53.7642L81.3293 55.3417C81.3293 55.3417 71.4699 74.1662 71.3307 74.4403C71.1915 74.7144 69.7493 75.3343 68.6445 74.9928C67.5438 74.647 53.4716 68.5238 53.4716 68.5238" fill="#00C802"/>
<path d="M58.0133 60.6127L69.8126 66.0484L79.9607 53.0983C79.9607 53.0983 79.4021 49.6399 79.5413 49.155C79.6804 48.6742 80.8486 46.9537 81.0552 46.6754C81.2618 46.4012 81.6751 46.6754 81.7426 47.0886C81.81 47.5019 81.5359 47.8477 81.3968 48.1893C81.2576 48.5351 80.9835 49.2899 80.9835 49.2899L81.3293 50.3231L84.977 47.4302C84.977 47.4302 85.8036 46.3296 86.0777 46.8103C86.2464 47.1013 86.2211 47.4682 86.0229 47.738L84.3571 49.9773L85.4578 50.0448L88.144 47.7718C88.144 47.7718 88.6248 47.5651 88.6965 48.1851C88.7386 48.573 88.5953 48.961 88.3085 49.2309L86.6639 50.7659L85.6012 51.4195L88.7681 50.1122C88.7681 50.1122 89.1814 50.5255 89.0423 50.7321L85.6012 53.4184L88.1482 53.0051C88.1482 53.0051 88.494 53.4859 88.2874 53.7642L81.3293 55.3417C81.3293 55.3417 71.4699 74.1662 71.3307 74.4403C71.1915 74.7144 69.7493 75.3343 68.6445 74.9928C67.5438 74.647 53.4716 68.5238 53.4716 68.5238" stroke="#263238" stroke-width="0.2" stroke-miterlimit="10"/>
<path d="M76.0074 65.3675C78.5502 60.5896 81.1687 55.6153 81.1687 55.6153L88.2873 53.7722C88.4939 53.4981 88.1481 53.0132 88.1481 53.0132L85.601 53.4265L89.0421 50.7402C89.1813 50.5336 88.768 50.1203 88.768 50.1203L85.601 51.4276L86.6637 50.7739L88.3084 49.2389C88.5951 48.9733 88.7385 48.5853 88.6963 48.1931C88.6289 47.5732 88.1439 47.7798 88.1439 47.7798L85.4577 50.0528L84.357 49.9854L86.0227 47.7461C86.2252 47.4762 86.2462 47.1136 86.0776 46.8184C85.8035 46.3376 84.9769 47.4383 84.9769 47.4383L81.3292 50.3311L80.9834 49.298C80.9834 49.298 81.2575 48.5389 81.3966 48.1973C81.5358 47.8515 81.8099 47.5099 81.7424 47.0967C81.675 46.6834 81.2617 46.4093 81.0551 46.6834C80.8484 46.9575 79.6803 48.6781 79.5411 49.163C79.402 49.6438 79.5411 52.9499 79.5411 52.9499L72.4154 62.7609L76.0074 65.3675Z" fill="#FFBF9D" stroke="#263238" stroke-width="0.2" stroke-miterlimit="10"/>
<path d="M81.3336 50.3271C81.3336 50.3271 82.021 50.9049 82.2361 51.4447C82.4511 51.9844 81.4812 53.2791 81.0469 53.4984" stroke="#263238" stroke-width="0.412583" stroke-miterlimit="10"/>
<path d="M107.338 53.8804C114.747 46.4713 114.747 34.4587 107.338 27.0495C99.9287 19.6404 87.9161 19.6404 80.507 27.0495C73.0978 34.4587 73.0978 46.4713 80.507 53.8804C87.9161 61.2895 99.9287 61.2895 107.338 53.8804Z" fill="white" stroke="#263238" stroke-width="0.3" stroke-miterlimit="10"/>
<path d="M100.593 54.9301C108.583 51.2459 112.074 41.7819 108.39 33.7915C104.706 25.8012 95.2419 22.3103 87.2515 25.9944C79.2612 29.6786 75.7703 39.1426 79.4544 47.133C83.1385 55.1233 92.6026 58.6142 100.593 54.9301Z" fill="#00C802" stroke="#263238" stroke-width="0.3" stroke-miterlimit="10"/>
<path d="M98.1136 35.7938L98.1979 37.6251L88.4157 40.9685L88.3313 39.1372L98.1136 35.7938ZM97.6915 48.8879L89.8887 44.2793L89.4314 42.9758L92.0034 42.0968C92.7484 41.8422 93.3212 41.509 93.7221 41.0973C94.1275 40.6762 94.38 40.2093 94.4794 39.6965C94.5789 39.1838 94.5373 38.6604 94.3548 38.1263C94.1506 37.529 93.8557 37.045 93.4701 36.6745C93.0821 36.297 92.5953 36.067 92.0099 35.9846C91.4291 35.8927 90.7382 35.9836 89.937 36.2575L87.1542 37.2086L87.0804 35.3738L89.3678 34.592C90.5906 34.174 91.6627 34.0156 92.5841 34.1166C93.5101 34.2083 94.29 34.5382 94.9237 35.1064C95.5574 35.6747 96.0448 36.4577 96.3859 37.4556C96.6789 38.313 96.7768 39.1389 96.6795 39.9335C96.5868 40.7186 96.2305 41.4329 95.6107 42.0764C94.9979 42.7175 94.059 43.2543 92.794 43.6866L100.041 47.9436L100.084 48.0701L97.6915 48.8879ZM96.831 32.0412L96.9153 33.8724L89.0305 36.5673L88.9462 34.7361L96.831 32.0412Z" fill="white"/>
<path d="M79.1426 143.341L84.1482 146.887C84.1482 146.887 87.1676 147.507 87.5513 147.815C87.9393 148.123 87.9393 149.438 87.9393 149.438C87.9393 149.438 84.844 149.826 81.9806 149.902C79.1172 149.978 77.6497 149.902 75.402 149.826C73.1586 149.75 71.3031 149.902 70.835 149.362C70.3711 148.823 70.8223 144.095 70.8223 144.095C70.8223 144.095 76.0683 141.266 79.1426 143.341Z" fill="#00C802" stroke="#263238" stroke-width="0.412583" stroke-miterlimit="10"/>
<path d="M81.9803 149.901C84.8437 149.825 87.939 149.437 87.939 149.437C87.939 149.437 87.939 149.028 87.8715 148.611C84.6666 148.872 78.7205 149.286 77.1054 148.893C75.2668 148.451 71.8257 148.265 70.6365 148.214C70.6576 148.78 70.7166 149.214 70.8389 149.357C71.3028 149.897 73.1583 149.745 75.4059 149.821C77.6536 149.897 79.1169 149.981 81.9803 149.901Z" fill="white" stroke="#263238" stroke-width="0.412583" stroke-miterlimit="10"/>
<path d="M47.1134 91.7417L49.302 118.284L42.4999 142.797L41.6428 146.737C41.6428 146.737 42.2848 147.335 44.3385 147.225C46.3922 147.116 50.4954 146.146 50.4954 146.146C50.4954 146.146 51.0352 145.176 50.9256 144.311C50.8159 143.447 50.3858 143.122 50.3858 142.802C50.3858 142.481 59.4566 118.288 59.4566 118.288L60.3211 104.249L66.478 119.907L70.4715 144.096C70.4715 144.096 70.6866 145.285 71.0113 145.176C71.336 145.066 76.7338 143.122 76.7338 143.122L78.7875 143.337C78.7875 143.337 79.0026 140.204 78.1381 139.559C77.2736 138.913 76.9489 138.264 76.9489 138.264L76.0844 115.264L67.663 91.6151L66.9081 88.7012L47.4718 89.7807L47.1134 91.7417Z" fill="#263238" stroke="#263238" stroke-width="0.2" stroke-miterlimit="10"/>
<path d="M47.1139 91.7426L47.2868 93.1933L67.6593 91.6161L67.147 89.49L47.1139 91.7426Z" fill="#00C802" stroke="#263238" stroke-width="0.2" stroke-miterlimit="10"/>
<path d="M44.8397 58.6352C44.8397 58.6352 43.5999 62.8353 43.739 64.7625C43.8782 66.6897 46.2861 81.9006 46.2861 81.9006L47.1801 87.7496C47.1801 87.7496 46.4928 89.5376 46.5602 89.9509C46.6277 90.3642 46.4928 91.4648 47.1127 91.7389C47.7326 92.013 52.9617 91.6714 58.3342 91.5323C63.7025 91.3931 65.7688 91.1865 66.4562 90.9124C67.1436 90.6383 67.9701 89.6726 67.831 88.9177C67.6918 88.1586 67.1436 86.7839 67.1436 86.7839C67.1436 86.7839 66.8695 68.406 66.4562 65.5848C66.043 62.7636 65.5622 58.9093 64.1158 57.4628C62.6693 56.0164 60.2614 55.3965 60.2614 55.3965L58.3342 58.9767C58.3342 58.9767 51.7261 56.2905 49.3182 56.0164C46.906 55.7465 44.8397 58.6352 44.8397 58.6352Z" fill="#00C802" stroke="#263238" stroke-width="0.2" stroke-miterlimit="10"/>
<path d="M48.8813 72.0408C47.9872 72.3191 47.245 72.5299 46.8866 72.589" stroke="#263238" stroke-width="0.2" stroke-miterlimit="10"/>
<path d="M54.9797 70.0045C54.9797 70.0045 52.4158 70.9027 50.1301 71.6449" stroke="#263238" stroke-width="0.2" stroke-miterlimit="10"/>
<path d="M48.5606 77.0724C48.1473 77.3634 47.7678 77.5995 47.4473 77.764" stroke="#263238" stroke-width="0.2" stroke-miterlimit="10"/>
<path d="M55.6543 70.7894C55.6543 70.7894 52.3987 74.045 49.7378 76.1788" stroke="#263238" stroke-width="0.2" stroke-miterlimit="10"/>
<path d="M59.2959 62.5619C59.2959 62.5619 53.721 59.6015 51.0348 58.775C48.3485 57.9484 47.387 57.8093 46.7671 57.9484C46.1472 58.0876 43.7393 60.563 43.5327 59.8756C43.326 59.1883 44.2917 54.7814 44.5658 53.82C44.8399 52.8543 49.0401 51.6861 50.2082 51.3403C51.3763 50.9945 57.2296 53.2675 58.5369 53.6808C59.8442 54.0941 61.084 55.608 61.084 56.6412C61.084 57.6743 59.2959 62.5619 59.2959 62.5619Z" fill="#00C802" stroke="#263238" stroke-width="0.2" stroke-miterlimit="10"/>
<path d="M45.0886 55.2783C45.0886 55.2783 46.2146 54.3801 46.8893 54.8271C47.564 55.2783 58.9036 61.6672 58.9036 61.6672L59.4814 55.7296" stroke="#263238" stroke-width="0.2" stroke-miterlimit="10"/>
<path d="M61.09 37.2097C61.09 37.2097 62.0684 40.1448 62.0684 40.8912C62.0684 41.6376 61.7226 42.8479 61.9545 43.3076C62.1865 43.7672 63.5654 45.8968 63.3377 46.2426C63.1058 46.5884 62.2455 47.8535 62.2455 47.8535C62.2455 47.8535 62.0136 52.1718 61.7858 52.6315C61.5539 53.0911 60.0611 53.0363 59.3695 53.0363C58.6779 53.0363 57.9315 53.0363 57.9315 53.0363C57.9315 53.0363 59.1966 61.5547 58.9098 61.6686C58.6231 61.7824 50.3914 53.3821 50.3914 53.3821L50.6782 47.2252C50.6782 47.2252 47.8021 42.966 48.2618 41.0683C48.7215 39.1707 53.2126 37.6736 55.629 37.0411C58.0369 36.4043 61.09 37.2097 61.09 37.2097Z" fill="#FFBF9D" stroke="#263238" stroke-width="0.2" stroke-miterlimit="10"/>
<path d="M60.4495 43.6899C60.5297 44.1285 60.4074 44.5165 60.1712 44.5628C59.9351 44.605 59.6821 44.2887 59.5977 43.8502C59.5134 43.4116 59.6399 43.0236 59.876 42.9772C60.1122 42.9309 60.3652 43.2513 60.4495 43.6899Z" fill="#263238"/>
<path d="M58.9008 42.156C58.9008 42.156 59.7652 41.1187 60.9713 41.5825" stroke="#263238" stroke-width="0.3" stroke-miterlimit="10"/>
<path d="M58.0369 46.8771C58.0369 46.8771 58.9014 48.1422 60.4532 48.3741" stroke="#263238" stroke-width="0.3" stroke-miterlimit="10"/>
<path d="M51.7061 44.9753C51.7061 44.9753 53.2031 45.2072 53.2031 44.8024C53.2031 44.3975 53.0302 42.9047 53.0302 42.9047C53.0302 42.9047 55.046 41.2938 54.9869 40.5432C54.9279 39.7967 54.0086 39.16 54.0676 38.9322C54.1267 38.7003 56.8298 37.8949 59.0184 37.8949C61.2071 37.8949 61.6667 38.3545 62.3583 37.3213C63.0499 36.2839 63.5686 34.905 62.2445 33.467C60.9203 32.029 60.2878 32.6615 59.5962 32.4886C58.9046 32.3157 56.893 30.3 55.5099 30.7638C54.1267 31.2235 53.958 32.4886 53.958 32.4886C53.958 32.4886 51.3687 30.7638 50.2765 31.6832C49.1843 32.6025 49.0662 33.6399 49.0662 33.6399C49.0662 33.6399 47.3963 33.6989 46.6499 35.2508C45.9034 36.8026 45.9583 37.6671 45.9583 37.6671C45.9583 37.6671 44.5203 38.5316 44.5751 39.7967C44.6341 41.0618 45.0347 41.6396 45.0347 41.6396C45.0347 41.6396 43.8244 42.1583 45.0347 44.0011C46.245 45.844 46.7047 46.0717 46.7047 46.0717C46.7047 46.0717 45.3215 46.2446 46.7047 47.3958C48.0879 48.5471 50.6181 49.0067 51.1958 49.2935C51.7693 49.5803 51.8874 47.6826 51.8874 46.5313C51.879 45.3801 51.7061 44.9753 51.7061 44.9753Z" fill="#263238" stroke="#263238" stroke-width="0.412583" stroke-miterlimit="10"/>
<path d="M52.6245 45.5475C52.6245 45.5475 51.1275 43.5908 50.322 44.2233C49.5166 44.8559 50.0352 47.618 50.8955 48.4825C51.76 49.347 53.0251 47.85 53.0251 47.85" fill="#FFBF9D"/>
<path d="M52.6245 45.5475C52.6245 45.5475 51.1275 43.5908 50.322 44.2233C49.5166 44.8559 50.0352 47.618 50.8955 48.4825C51.76 49.347 53.0251 47.85 53.0251 47.85" stroke="#263238" stroke-width="0.412583" stroke-miterlimit="10"/>
<path opacity="0.3" d="M57.9215 53.0355L55.4419 52.9933L58.3306 55.9536L57.9215 53.0355Z" fill="#263238"/>
<path d="M51.8616 60.2897L63.6608 65.7254L74.4147 52.6189C74.4147 52.6189 73.2504 49.3169 73.3895 48.832C73.5287 48.3512 74.6968 46.6307 74.9035 46.3524C75.1101 46.0782 75.5234 46.3524 75.5908 46.7656C75.6583 47.1789 75.3842 47.5247 75.245 47.8663C75.1059 48.2121 74.8318 48.9669 74.8318 48.9669L75.1776 50.0001L78.8253 47.1072C78.8253 47.1072 79.6518 46.0066 79.926 46.4873C80.0946 46.7783 80.0693 47.1452 79.8711 47.415L78.2054 49.6543L79.306 49.7218L81.9923 47.4488C81.9923 47.4488 82.473 47.2421 82.5447 47.8621C82.5869 48.25 82.4435 48.638 82.1568 48.9079L80.5121 50.4429L79.4494 51.0965L82.6164 49.7892C82.6164 49.7892 83.0297 50.2025 82.8905 50.4091L79.4494 53.0954L81.9965 52.6821C81.9965 52.6821 82.3423 53.1629 82.1357 53.4412L74.8318 55.1479C74.8318 55.1479 65.3181 73.8432 65.179 74.1173C65.0398 74.3914 63.5976 75.0113 62.4927 74.6698C61.3921 74.324 47.3198 68.2008 47.3198 68.2008" fill="#00C802"/>
<path d="M51.8616 60.2897L63.6608 65.7254L74.4147 52.6189C74.4147 52.6189 73.2504 49.3169 73.3895 48.832C73.5287 48.3512 74.6968 46.6307 74.9035 46.3524C75.1101 46.0782 75.5234 46.3524 75.5908 46.7656C75.6583 47.1789 75.3842 47.5247 75.245 47.8663C75.1059 48.2121 74.8318 48.9669 74.8318 48.9669L75.1776 50.0001L78.8253 47.1072C78.8253 47.1072 79.6518 46.0066 79.926 46.4873C80.0946 46.7783 80.0693 47.1452 79.8711 47.415L78.2054 49.6543L79.306 49.7218L81.9923 47.4488C81.9923 47.4488 82.473 47.2421 82.5447 47.8621C82.5869 48.25 82.4435 48.638 82.1568 48.9079L80.5121 50.4429L79.4494 51.0965L82.6164 49.7892C82.6164 49.7892 83.0297 50.2025 82.8905 50.4091L79.4494 53.0954L81.9965 52.6821C81.9965 52.6821 82.3423 53.1629 82.1357 53.4412L74.8318 55.1479C74.8318 55.1479 65.3181 73.8432 65.179 74.1173C65.0398 74.3914 63.5976 75.0113 62.4927 74.6698C61.3921 74.324 47.3198 68.2008 47.3198 68.2008" stroke="#263238" stroke-width="0.2" stroke-miterlimit="10"/>
<path d="M69.8717 64.9967C72.4146 60.2188 75.0222 55.3027 75.0222 55.3027L82.1321 53.4492C82.3387 53.1751 81.9929 52.6902 81.9929 52.6902L79.4458 53.1035L82.8869 50.4172C83.0261 50.2106 82.6128 49.7973 82.6128 49.7973L79.4458 51.1046L80.5085 50.4509L82.1532 48.9159C82.4399 48.6503 82.5833 48.2623 82.5411 47.8701C82.4737 47.2502 81.9887 47.4568 81.9887 47.4568L79.3024 49.7298L78.2018 49.6624L79.8675 47.4231C80.0699 47.1532 80.091 46.7906 79.9224 46.4954C79.6482 46.0146 78.8217 47.1153 78.8217 47.1153L75.174 50.0082L74.8282 48.975C74.8282 48.975 75.1023 48.2159 75.2414 47.8743C75.3806 47.5285 75.6547 47.187 75.5872 46.7737C75.5198 46.3604 75.1065 46.0863 74.8999 46.3604C74.6932 46.6345 73.5251 48.3551 73.3859 48.84C73.2468 49.3208 73.5482 52.6841 73.5482 52.6841L66.2827 62.4128L69.8717 64.9967Z" fill="#FFBF9D" stroke="#263238" stroke-width="0.2" stroke-miterlimit="10"/>
<path d="M50.0482 143.341L55.0538 146.887C55.0538 146.887 58.0732 147.507 58.457 147.815C58.8449 148.123 58.8449 149.438 58.8449 149.438C58.8449 149.438 55.7496 149.826 52.8863 149.902C50.0229 149.978 48.5554 149.902 46.3077 149.826C44.0642 149.75 42.2087 149.902 41.7406 149.362C41.2768 148.823 41.728 144.095 41.728 144.095C41.728 144.095 46.974 141.266 50.0482 143.341Z" fill="#00C802" stroke="#263238" stroke-width="0.412583" stroke-miterlimit="10"/>
<path d="M52.8859 149.901C55.7493 149.825 58.8446 149.437 58.8446 149.437C58.8446 149.437 58.8446 149.028 58.7771 148.611C55.5722 148.872 49.6262 149.286 48.011 148.893C46.1724 148.451 42.7313 148.265 41.5421 148.214C41.5632 148.78 41.6222 149.214 41.7445 149.357C42.2084 149.897 44.0639 149.745 46.3116 149.821C48.5593 149.897 50.0226 149.981 52.8859 149.901Z" fill="white" stroke="#263238" stroke-width="0.412583" stroke-miterlimit="10"/>
<path d="M169.599 11.5876V139.385C169.599 142.893 166.757 145.736 163.248 145.736H108.026C104.517 145.736 101.675 142.893 101.675 139.385V11.5833C101.675 8.07898 104.517 5.23669 108.022 5.23669H131.726L131.747 5.30839C132.337 7.43377 133.699 8.81696 135.205 8.81696H136.069C137.579 8.81696 138.937 7.43377 139.527 5.30839L139.548 5.23669H163.244C166.752 5.23669 169.599 8.07898 169.599 11.5876Z" fill="white" stroke="#263238" stroke-width="0.412583" stroke-miterlimit="10" stroke-linecap="round" stroke-linejoin="round"/>
<path d="M169.265 13.2755V9.65726C169.265 6.14868 166.423 3.3064 162.914 3.3064H139.219L139.198 3.37809C138.607 5.50347 137.245 6.88666 135.74 6.88666H134.875C133.365 6.88666 132.008 5.50347 131.417 3.37809L131.396 3.3064H107.692C104.188 3.3064 101.345 6.14868 101.345 9.65304V13.2755H169.265Z" fill="#263238" stroke="#263238" stroke-width="0.412583" stroke-miterlimit="10"/>
<path d="M101.341 134.044V137.456C101.341 140.964 104.184 143.807 107.692 143.807H162.914C166.423 143.807 169.265 140.964 169.265 137.456V134.044H101.341Z" fill="#263238" stroke="#263238" stroke-width="0.412583" stroke-miterlimit="10"/>
<path d="M173.585 40.1805V27.4155H172.429V11.0745C172.429 5.51223 167.921 1 162.355 1H108.25C102.688 1 98.1755 5.50801 98.1755 11.0745V140.925C98.1755 146.488 102.684 151 108.25 151H162.355C167.917 151 172.429 146.492 172.429 140.925V51.0604H173.585V43.5162H172.429V40.1805H173.585ZM169.266 133.731C169.266 139.298 164.754 143.806 159.192 143.806H111.417C105.855 143.806 101.343 139.298 101.343 133.731V13.377C101.343 7.81473 105.855 3.30672 111.417 3.30672H131.393L131.414 3.37841C132.005 5.50379 133.367 6.88698 134.872 6.88698H135.737C137.246 6.88698 138.604 5.50379 139.195 3.37841L139.216 3.30672H159.188C164.75 3.30672 169.262 7.81473 169.262 13.377V133.731H169.266Z" fill="#92E3A9" stroke="#263238" stroke-width="0.412583" stroke-miterlimit="10" stroke-linecap="round" stroke-linejoin="round"/>
<path d="M161.549 2.38953H109.06C103.696 2.38953 99.3439 6.73729 99.3439 12.1056V139.899C99.3439 145.263 103.692 149.615 109.06 149.615H161.549C166.913 149.615 171.265 145.267 171.265 139.899V12.1014C171.265 6.73729 166.913 2.38953 161.549 2.38953ZM169.267 134.088C169.267 139.452 164.919 143.804 159.55 143.804H111.059C105.695 143.804 101.343 139.456 101.343 134.088V13.0165C101.343 7.65239 105.691 3.30462 111.055 3.30462H131.393L131.414 3.37631C132.005 5.5017 133.367 6.88489 134.872 6.88489H135.737C137.247 6.88489 138.604 5.5017 139.195 3.37631L139.216 3.30462H159.546C164.91 3.30462 169.262 7.65239 169.262 13.0207V134.088H169.267Z" fill="#263238" stroke="#263238" stroke-width="0.412583" stroke-miterlimit="10" stroke-linecap="round" stroke-linejoin="round"/>
<path d="M136.039 3.78666C136.039 3.26375 135.618 2.84204 135.095 2.84204C134.572 2.84204 134.15 3.26375 134.15 3.78666C134.15 4.30957 134.572 4.73127 135.095 4.73127C135.618 4.73127 136.039 4.30957 136.039 3.78666Z" fill="white"/>
<path d="M107.381 7.40912C107.381 8.36639 106.305 8.71219 106.301 9.44173V9.49234H107.343V9.81283H105.951V9.53873C105.951 8.51399 107.027 8.31578 107.027 7.42177C107.027 7.09706 106.917 6.92416 106.655 6.92416C106.398 6.92416 106.284 7.10971 106.284 7.39225V7.67479H105.955V7.41755C105.955 6.9326 106.179 6.6121 106.668 6.6121C107.157 6.60789 107.381 6.92416 107.381 7.40912Z" fill="white"/>
<path d="M109.114 7.40276V7.48289C109.114 7.8076 108.983 8.03954 108.73 8.13653C108.996 8.23774 109.114 8.47811 109.114 8.79439V9.03898C109.114 9.52394 108.886 9.84021 108.397 9.84021C107.912 9.84021 107.684 9.52394 107.684 9.03898V8.81969H108.013V9.06006C108.013 9.34682 108.131 9.51972 108.384 9.51972C108.642 9.51972 108.755 9.35104 108.755 9.03054V8.78595C108.755 8.47389 108.625 8.32208 108.355 8.31365H108.165V7.99737H108.372C108.608 7.98893 108.751 7.83712 108.751 7.56301V7.41963C108.751 7.09492 108.637 6.92624 108.38 6.92624C108.127 6.92624 108.009 7.10336 108.009 7.39011V7.55458H107.68V7.4112C107.68 6.92624 107.908 6.61418 108.393 6.61418C108.89 6.60575 109.114 6.91781 109.114 7.40276Z" fill="white"/>
<path d="M109.801 7.64722V8.08579H109.459V7.64722H109.801ZM109.801 9.3762V9.81477H109.459V9.3762H109.801Z" fill="white"/>
<path d="M110.518 7.93269C110.619 7.75979 110.775 7.67124 110.99 7.67124C111.399 7.67124 111.58 7.97065 111.58 8.42187V9.04177C111.58 9.52673 111.348 9.84301 110.863 9.84301C110.378 9.84301 110.151 9.52673 110.151 9.04177V8.8267H110.48V9.06286C110.48 9.34962 110.598 9.52252 110.851 9.52252C111.104 9.52252 111.222 9.34962 111.222 9.06286V8.44717C111.222 8.16041 111.104 7.98752 110.851 7.98752C110.657 7.98752 110.526 8.09716 110.492 8.32909V8.40078H110.163L110.248 6.63806H111.5V6.95434H110.568L110.518 7.93269Z" fill="white"/>
<path d="M113.344 7.40103V7.46006H113.015V7.37994C113.015 7.09318 112.897 6.92872 112.64 6.92872C112.374 6.92872 112.256 7.10162 112.256 7.43898V8.15166C112.34 7.93237 112.513 7.81008 112.77 7.81008C113.179 7.81008 113.361 8.10527 113.361 8.56071V9.04145C113.361 9.52641 113.12 9.84269 112.635 9.84269C112.146 9.84269 111.906 9.52641 111.906 9.04145V7.42211C111.906 6.92028 112.133 6.604 112.635 6.604C113.116 6.60822 113.344 6.91607 113.344 7.40103ZM112.252 8.59023V9.06675C112.252 9.35351 112.37 9.52641 112.627 9.52641C112.88 9.52641 113.002 9.35351 113.002 9.06675V8.59023C113.002 8.30347 112.88 8.13057 112.627 8.13057C112.37 8.13057 112.252 8.30347 112.252 8.59023Z" fill="white"/>
<path d="M147.991 7.53943H147.097V9.77868H147.991V7.53943Z" fill="white"/>
<path d="M149.189 7.09497H148.291V9.78544H149.189V7.09497Z" fill="white"/>
<path d="M150.382 6.77258H149.484V9.77933H150.382V6.77258Z" fill="white"/>
<path d="M151.575 6.21997H150.681V9.78337H151.575V6.21997Z" fill="white"/>
<path d="M162.669 9.72221H157.292V6.43713H162.669V9.72221ZM157.591 9.42279H162.369V6.73654H157.591V9.42279Z" fill="white"/>
<path d="M160.877 7.06152H158.038V9.09835H160.877V7.06152Z" fill="white"/>
<path d="M163.158 7.69617H162.483V8.4721H163.158V7.69617Z" fill="white"/>
<path d="M155.315 9.00816C155.281 9.00816 155.243 8.99972 155.214 8.97864C154.121 8.32921 153.396 8.93225 153.367 8.95755C153.282 9.02924 153.156 9.02081 153.084 8.93647C153.012 8.85213 153.021 8.72561 153.101 8.65392C153.139 8.62019 154.067 7.82739 155.42 8.63284C155.517 8.68766 155.547 8.81417 155.492 8.90695C155.45 8.9702 155.387 9.00816 155.315 9.00816Z" fill="white"/>
<path d="M155.721 8.33004C155.688 8.33004 155.65 8.32161 155.62 8.30052C154.039 7.36012 152.976 8.271 152.963 8.27944C152.879 8.35113 152.753 8.34269 152.681 8.26257C152.609 8.17823 152.613 8.05172 152.698 7.98003C152.71 7.96738 153.992 6.87095 155.827 7.95894C155.924 8.01377 155.953 8.14027 155.899 8.23305C155.856 8.2963 155.793 8.33004 155.721 8.33004Z" fill="white"/>
<path d="M156.092 7.54893C156.058 7.54893 156.02 7.54049 155.991 7.51941C153.988 6.32599 152.655 7.44772 152.6 7.49832C152.516 7.57001 152.39 7.56158 152.318 7.47724C152.246 7.3929 152.255 7.26638 152.335 7.19469C152.352 7.18204 153.933 5.82838 156.198 7.17361C156.295 7.22843 156.324 7.35494 156.269 7.44772C156.227 7.51519 156.16 7.54893 156.092 7.54893Z" fill="white"/>
<path d="M154.713 9.33947C154.713 9.6178 154.49 9.8413 154.212 9.8413C153.933 9.8413 153.71 9.6178 153.71 9.33947C153.71 9.06115 153.933 8.83765 154.212 8.83765C154.49 8.83765 154.713 9.06115 154.713 9.33947Z" fill="white"/>
<path d="M169.094 34.071H102.176V115.46H169.094V34.071Z" fill="#DEFAE4"/>
<path d="M121.569 22.4436V23.4891C121.569 24.7713 120.948 25.4716 119.691 25.4716H119.094V28.4897H117.831V20.4562H119.691C120.953 20.4562 121.569 21.1565 121.569 22.4436ZM119.094 21.6052V24.3225H119.691C120.09 24.3225 120.312 24.1401 120.312 23.568V22.3647C120.312 21.7926 120.095 21.6102 119.691 21.6102H119.094V21.6052Z" fill="#263238"/>
<path d="M126.093 28.4848H124.821L124.604 27.03H123.055L122.833 28.4848H121.675L122.957 20.4562H124.806L126.093 28.4848ZM123.213 25.9401H124.426L123.83 21.8814H123.805L123.213 25.9401Z" fill="#263238"/>
<path d="M127.293 25.8297L125.7 20.4641H127.017L127.968 24.1233H127.993L128.945 20.4641H130.148L128.555 25.8297V28.4927H127.293V25.8297Z" fill="#263238"/>
<path d="M133.315 26.1571H133.34L134.188 20.4562H135.944V28.4848H134.75V22.7296H134.726L133.878 28.4848H132.684L131.767 22.8085H131.742V28.4848H130.642V20.4562H132.398L133.315 26.1571Z" fill="#263238"/>
<path d="M138.125 23.8442H139.856V24.9932H138.125V27.3456H140.305V28.4946H136.862V20.4562H140.305V21.6052H138.125V23.8442Z" fill="#263238"/>
<path d="M142.233 22.6705H142.208V28.4848H141.074V20.4562H142.657L143.929 25.2595H143.954V20.4562H145.078V28.4848H143.781L142.233 22.6705Z" fill="#263238"/>
<path d="M145.617 20.4562H149.518V21.6052H148.201V28.4848H146.939V21.6052H145.622V20.4562H145.617Z" fill="#263238"/>
<path d="M151.765 20.368C152.993 20.368 153.625 21.1028 153.625 22.3851V22.6366H152.431V22.3061C152.431 21.7341 152.204 21.5171 151.8 21.5171C151.4 21.5171 151.169 21.7341 151.169 22.3061C151.169 22.893 151.42 23.327 152.249 24.047C153.304 24.9741 153.634 25.6399 153.634 26.5572C153.634 27.8394 152.993 28.5742 151.756 28.5742C150.518 28.5742 149.877 27.8394 149.877 26.5572V26.064H151.07V26.6361C151.07 27.2081 151.322 27.4153 151.726 27.4153C152.125 27.4153 152.382 27.2081 152.382 26.6361C152.382 26.0492 152.13 25.6152 151.302 24.8952C150.246 23.9681 149.916 23.3023 149.916 22.3851C149.906 21.1028 150.537 20.368 151.765 20.368Z" fill="#263238"/>
<path d="M162.022 78.8087H109.244V86.6943H162.022V78.8087Z" fill="white" stroke="#263238" stroke-width="0.3" stroke-miterlimit="10" stroke-linecap="round" stroke-linejoin="round"/>
<path d="M162.022 65.4459H109.244V73.3315H162.022V65.4459Z" fill="white" stroke="#263238" stroke-width="0.3" stroke-miterlimit="10" stroke-linecap="round" stroke-linejoin="round"/>
<path d="M113.961 81.5685V83.7205H113.709L112.536 82.0309H112.515V83.7205H112.255V81.5685H112.507L113.684 83.2624H113.705V81.5685H113.961Z" fill="#3F3F3F"/>
<path d="M114.483 83.7205V81.5685H115.781V81.7997H114.743V82.5268H115.714V82.758H114.743V83.4893H115.798V83.7205H114.483Z" fill="#3F3F3F"/>
<path d="M116.251 83.7205V81.5685H117.541V81.7997H116.512V82.5268H117.445V82.758H116.512V83.7205H116.251Z" fill="#3F3F3F"/>
<path d="M117.87 81.7997V81.5685H119.484V81.7997H118.807V83.7205H118.547V81.7997H117.87Z" fill="#3F3F3F"/>
<path d="M120.379 81.4677L119.686 84.0441H119.459L120.152 81.4677H120.379Z" fill="#3F3F3F"/>
<path d="M120.707 83.7205V81.5685H121.434C121.602 81.5685 121.74 81.5972 121.848 81.6547C121.956 81.7114 122.036 81.7895 122.087 81.889C122.139 81.9885 122.165 82.1016 122.165 82.2284C122.165 82.3552 122.139 82.4676 122.087 82.5657C122.036 82.6638 121.956 82.7408 121.849 82.7969C121.742 82.8522 121.605 82.8799 121.438 82.8799H120.85V82.6445H121.43C121.545 82.6445 121.637 82.6277 121.707 82.5941C121.778 82.5604 121.829 82.5128 121.86 82.4512C121.893 82.3888 121.909 82.3146 121.909 82.2284C121.909 82.1422 121.893 82.0669 121.86 82.0025C121.828 81.938 121.777 81.8883 121.706 81.8533C121.635 81.8176 121.542 81.7997 121.425 81.7997H120.967V83.7205H120.707ZM121.72 82.7538L122.249 83.7205H121.947L121.425 82.7538H121.72Z" fill="#3F3F3F"/>
<path d="M122.482 81.7997V81.5685H124.096V81.7997H123.419V83.7205H123.158V81.7997H122.482Z" fill="#3F3F3F"/>
<path d="M125.879 82.241C125.856 82.1703 125.826 82.1069 125.788 82.0508C125.751 81.9941 125.706 81.9457 125.654 81.9058C125.603 81.8659 125.545 81.8354 125.48 81.8144C125.415 81.7934 125.343 81.7829 125.266 81.7829C125.138 81.7829 125.022 81.8158 124.918 81.8817C124.814 81.9475 124.73 82.0445 124.669 82.1727C124.607 82.3009 124.576 82.4582 124.576 82.6445C124.576 82.8308 124.608 82.9881 124.67 83.1163C124.732 83.2445 124.817 83.3415 124.923 83.4074C125.03 83.4732 125.149 83.5061 125.282 83.5061C125.406 83.5061 125.514 83.4799 125.608 83.4273C125.703 83.3741 125.776 83.2991 125.829 83.2025C125.882 83.1051 125.909 82.9906 125.909 82.8589L125.989 82.8757H125.341V82.6445H126.161V82.8757C126.161 83.0529 126.123 83.207 126.047 83.338C125.972 83.469 125.869 83.5706 125.736 83.6427C125.605 83.7142 125.453 83.7499 125.282 83.7499C125.092 83.7499 124.925 83.7051 124.78 83.6154C124.637 83.5257 124.525 83.3982 124.444 83.2329C124.364 83.0676 124.324 82.8715 124.324 82.6445C124.324 82.4743 124.347 82.3212 124.392 82.1853C124.439 82.0487 124.504 81.9324 124.588 81.8365C124.672 81.7405 124.771 81.6669 124.886 81.6158C125.001 81.5647 125.128 81.5391 125.266 81.5391C125.379 81.5391 125.485 81.5563 125.583 81.5906C125.682 81.6242 125.77 81.6722 125.847 81.7345C125.925 81.7962 125.989 81.8701 126.041 81.9563C126.093 82.0417 126.129 82.1366 126.148 82.241H125.879Z" fill="#3F3F3F"/>
<path d="M127.784 82.1065C127.771 82 127.72 81.9174 127.631 81.8585C127.541 81.7997 127.431 81.7703 127.301 81.7703C127.205 81.7703 127.122 81.7857 127.051 81.8165C126.98 81.8473 126.925 81.8897 126.885 81.9436C126.845 81.9976 126.826 82.0589 126.826 82.1275C126.826 82.185 126.839 82.2344 126.867 82.2757C126.895 82.3163 126.931 82.3503 126.974 82.3776C127.017 82.4042 127.063 82.4263 127.111 82.4438C127.158 82.4606 127.202 82.4743 127.242 82.4848L127.46 82.5436C127.516 82.5583 127.579 82.5787 127.647 82.6046C127.717 82.6305 127.783 82.6659 127.846 82.7107C127.91 82.7548 127.962 82.8116 128.004 82.8809C128.045 82.9503 128.066 83.0354 128.066 83.1363C128.066 83.2525 128.035 83.3576 127.974 83.4515C127.914 83.5454 127.826 83.62 127.709 83.6753C127.594 83.7306 127.453 83.7583 127.288 83.7583C127.134 83.7583 127.001 83.7334 126.888 83.6837C126.776 83.634 126.687 83.5646 126.623 83.4757C126.559 83.3867 126.523 83.2834 126.515 83.1657H126.784C126.791 83.2469 126.818 83.3142 126.866 83.3674C126.914 83.42 126.975 83.4592 127.049 83.4851C127.123 83.5103 127.203 83.5229 127.288 83.5229C127.388 83.5229 127.477 83.5068 127.556 83.4746C127.635 83.4417 127.698 83.3961 127.744 83.338C127.79 83.2792 127.814 83.2105 127.814 83.1321C127.814 83.0606 127.794 83.0025 127.754 82.9576C127.714 82.9128 127.661 82.8764 127.596 82.8484C127.531 82.8203 127.46 82.7958 127.385 82.7748L127.12 82.6991C126.952 82.6508 126.819 82.5818 126.721 82.4921C126.623 82.4025 126.574 82.2851 126.574 82.1401C126.574 82.0197 126.606 81.9146 126.671 81.8249C126.737 81.7345 126.825 81.6645 126.936 81.6148C127.048 81.5643 127.172 81.5391 127.309 81.5391C127.448 81.5391 127.571 81.564 127.679 81.6137C127.787 81.6627 127.872 81.73 127.935 81.8155C127.999 81.9009 128.033 81.9979 128.036 82.1065H127.784Z" fill="#3F3F3F"/>
<path d="M129.221 81.4677L128.528 84.0441H128.301L128.994 81.4677H129.221Z" fill="#3F3F3F"/>
<path d="M129.809 81.5685V83.7205H129.549V81.5685H129.809Z" fill="#3F3F3F"/>
<path d="M130.332 81.5685H130.643L131.374 83.3548H131.399L132.131 81.5685H132.442V83.7205H132.198V82.0855H132.177L131.505 83.7205H131.269L130.597 82.0855H130.576V83.7205H130.332V81.5685Z" fill="#3F3F3F"/>
<path d="M132.964 83.7205V81.5685H133.691C133.86 81.5685 133.998 81.599 134.105 81.6599C134.213 81.7202 134.293 81.8018 134.345 81.9048C134.397 82.0077 134.423 82.1226 134.423 82.2494C134.423 82.3762 134.397 82.4914 134.345 82.5951C134.294 82.6988 134.215 82.7815 134.108 82.8431C134 82.904 133.863 82.9345 133.696 82.9345H133.174V82.7033H133.687C133.803 82.7033 133.896 82.6834 133.966 82.6435C134.036 82.6035 134.087 82.5496 134.118 82.4816C134.15 82.413 134.166 82.3356 134.166 82.2494C134.166 82.1633 134.15 82.0862 134.118 82.0182C134.087 81.9503 134.035 81.8971 133.965 81.8585C133.894 81.8193 133.8 81.7997 133.683 81.7997H133.225V83.7205H132.964Z" fill="#3F3F3F"/>
<path d="M136.019 82.1065C136.007 82 135.956 81.9174 135.866 81.8585C135.776 81.7997 135.666 81.7703 135.536 81.7703C135.441 81.7703 135.357 81.7857 135.286 81.8165C135.215 81.8473 135.16 81.8897 135.12 81.9436C135.081 81.9976 135.061 82.0589 135.061 82.1275C135.061 82.185 135.075 82.2344 135.102 82.2757C135.13 82.3163 135.166 82.3503 135.209 82.3776C135.253 82.4042 135.298 82.4263 135.346 82.4438C135.394 82.4606 135.437 82.4743 135.477 82.4848L135.696 82.5436C135.752 82.5583 135.814 82.5787 135.883 82.6046C135.952 82.6305 136.018 82.6659 136.081 82.7107C136.145 82.7548 136.198 82.8116 136.239 82.8809C136.28 82.9503 136.301 83.0354 136.301 83.1363C136.301 83.2525 136.271 83.3576 136.21 83.4515C136.149 83.5454 136.061 83.62 135.945 83.6753C135.829 83.7306 135.689 83.7583 135.523 83.7583C135.369 83.7583 135.236 83.7334 135.123 83.6837C135.011 83.634 134.923 83.5646 134.858 83.4757C134.795 83.3867 134.759 83.2834 134.75 83.1657H135.019C135.026 83.2469 135.053 83.3142 135.101 83.3674C135.149 83.42 135.21 83.4592 135.284 83.4851C135.358 83.5103 135.438 83.5229 135.523 83.5229C135.623 83.5229 135.712 83.5068 135.791 83.4746C135.871 83.4417 135.933 83.3961 135.979 83.338C136.026 83.2792 136.049 83.2105 136.049 83.1321C136.049 83.0606 136.029 83.0025 135.989 82.9576C135.949 82.9128 135.896 82.8764 135.831 82.8484C135.766 82.8203 135.696 82.7958 135.62 82.7748L135.355 82.6991C135.187 82.6508 135.054 82.5818 134.956 82.4921C134.858 82.4025 134.809 82.2851 134.809 82.1401C134.809 82.0197 134.842 81.9146 134.907 81.8249C134.973 81.7345 135.061 81.6645 135.171 81.6148C135.283 81.5643 135.407 81.5391 135.544 81.5391C135.683 81.5391 135.806 81.564 135.914 81.6137C136.022 81.6627 136.108 81.73 136.171 81.8155C136.234 81.9009 136.268 81.9979 136.272 82.1065H136.019Z" fill="#3F3F3F"/>
<path d="M113.961 68.0279V70.1799H113.709L112.536 68.4903H112.515V70.1799H112.255V68.0279H112.507L113.684 69.7218H113.705V68.0279H113.961Z" fill="#3F3F3F"/>
<path d="M115.126 70.2135C114.97 70.2135 114.836 70.1792 114.723 70.1105C114.611 70.0412 114.525 69.9445 114.464 69.8205C114.403 69.6958 114.373 69.5508 114.373 69.3855C114.373 69.2202 114.403 69.0745 114.464 68.9484C114.525 68.8216 114.609 68.7228 114.718 68.6521C114.827 68.5806 114.955 68.5449 115.1 68.5449C115.184 68.5449 115.267 68.5589 115.349 68.5869C115.431 68.615 115.506 68.6605 115.573 68.7235C115.64 68.7859 115.694 68.8686 115.734 68.9715C115.774 69.0745 115.794 69.2013 115.794 69.3519V69.457H114.55V69.2426H115.542C115.542 69.1516 115.523 69.0703 115.487 68.9988C115.451 68.9274 115.4 68.871 115.334 68.8297C115.268 68.7883 115.19 68.7677 115.1 68.7677C115.002 68.7677 114.916 68.7922 114.844 68.8412C114.773 68.8896 114.718 68.9526 114.679 69.0304C114.64 69.1081 114.621 69.1915 114.621 69.2804V69.4234C114.621 69.5452 114.642 69.6486 114.684 69.7333C114.727 69.8174 114.786 69.8815 114.862 69.9256C114.937 69.969 115.025 69.9908 115.126 69.9908C115.191 69.9908 115.25 69.9817 115.302 69.9634C115.355 69.9445 115.401 69.9165 115.44 69.8794C115.478 69.8416 115.508 69.7946 115.529 69.7386L115.769 69.8058C115.743 69.8871 115.701 69.9585 115.642 70.0202C115.582 70.0811 115.508 70.1288 115.421 70.1631C115.333 70.1967 115.235 70.2135 115.126 70.2135Z" fill="#3F3F3F"/>
<path d="M116.873 68.5659V68.7761H116.037V68.5659H116.873ZM116.28 68.1793H116.528V69.7176C116.528 69.7876 116.539 69.8402 116.559 69.8752C116.58 69.9095 116.606 69.9326 116.639 69.9445C116.672 69.9557 116.706 69.9613 116.743 69.9613C116.77 69.9613 116.792 69.9599 116.81 69.9571C116.827 69.9536 116.841 69.9508 116.852 69.9487L116.902 70.1715C116.886 70.1778 116.862 70.1841 116.832 70.1904C116.802 70.1974 116.764 70.2009 116.717 70.2009C116.647 70.2009 116.579 70.1859 116.512 70.1557C116.445 70.1256 116.39 70.0797 116.346 70.0181C116.302 69.9564 116.28 69.8787 116.28 69.7848V68.1793Z" fill="#3F3F3F"/>
<path d="M118.112 70.1799V68.0279H118.864C119.014 68.0279 119.138 68.0539 119.235 68.1057C119.332 68.1568 119.405 68.2258 119.453 68.3127C119.5 68.3989 119.524 68.4945 119.524 68.5996C119.524 68.692 119.508 68.7684 119.475 68.8286C119.442 68.8889 119.4 68.9365 119.346 68.9715C119.294 69.0066 119.237 69.0325 119.175 69.0493V69.0703C119.241 69.0745 119.307 69.0976 119.374 69.1396C119.44 69.1817 119.496 69.2419 119.541 69.3204C119.586 69.3988 119.608 69.4948 119.608 69.6083C119.608 69.7162 119.584 69.8132 119.535 69.8993C119.486 69.9855 119.408 70.0538 119.302 70.1042C119.197 70.1547 119.059 70.1799 118.889 70.1799H118.112ZM118.372 69.9487H118.889C119.06 69.9487 119.18 69.9158 119.252 69.85C119.324 69.7834 119.36 69.7029 119.36 69.6083C119.36 69.5354 119.342 69.4682 119.304 69.4065C119.267 69.3442 119.214 69.2945 119.146 69.2573C119.077 69.2195 118.996 69.2006 118.902 69.2006H118.372V69.9487ZM118.372 68.9736H118.856C118.934 68.9736 119.005 68.9582 119.068 68.9274C119.132 68.8966 119.182 68.8531 119.219 68.7971C119.257 68.7411 119.276 68.6752 119.276 68.5996C119.276 68.505 119.243 68.4248 119.177 68.3589C119.111 68.2924 119.007 68.2591 118.864 68.2591H118.372V68.9736Z" fill="#3F3F3F"/>
<path d="M120.478 70.2177C120.375 70.2177 120.283 70.1985 120.199 70.1599C120.116 70.1207 120.05 70.0643 120.001 69.9908C119.952 69.9165 119.927 69.8268 119.927 69.7218C119.927 69.6293 119.945 69.5543 119.982 69.4969C120.018 69.4388 120.067 69.3932 120.128 69.3603C120.189 69.3274 120.256 69.3029 120.329 69.2868C120.404 69.2699 120.478 69.2566 120.553 69.2468C120.651 69.2342 120.731 69.2248 120.792 69.2185C120.853 69.2114 120.898 69.1999 120.926 69.1838C120.955 69.1677 120.969 69.1396 120.969 69.0997V69.0913C120.969 68.9876 120.941 68.9071 120.884 68.8496C120.828 68.7922 120.743 68.7635 120.629 68.7635C120.511 68.7635 120.418 68.7894 120.35 68.8412C120.283 68.8931 120.236 68.9484 120.209 69.0073L119.973 68.9232C120.015 68.8251 120.071 68.7488 120.141 68.6941C120.212 68.6388 120.289 68.6003 120.373 68.5785C120.457 68.5561 120.539 68.5449 120.621 68.5449C120.672 68.5449 120.732 68.5512 120.799 68.5638C120.867 68.5757 120.933 68.6006 120.996 68.6384C121.059 68.6763 121.112 68.7334 121.154 68.8097C121.196 68.8861 121.217 68.9883 121.217 69.1165V70.1799H120.969V69.9613H120.957C120.94 69.9964 120.912 70.0338 120.873 70.0738C120.833 70.1137 120.781 70.1477 120.716 70.1757C120.651 70.2037 120.571 70.2177 120.478 70.2177ZM120.515 69.995C120.614 69.995 120.696 69.9757 120.763 69.9372C120.831 69.8986 120.883 69.8489 120.917 69.788C120.952 69.727 120.969 69.6629 120.969 69.5957V69.3687C120.959 69.3813 120.936 69.3929 120.9 69.4034C120.865 69.4132 120.824 69.422 120.778 69.4297C120.733 69.4367 120.688 69.443 120.645 69.4486C120.602 69.4535 120.567 69.4577 120.541 69.4612C120.476 69.4696 120.416 69.4832 120.36 69.5022C120.305 69.5204 120.26 69.548 120.225 69.5852C120.192 69.6216 120.175 69.6713 120.175 69.7344C120.175 69.8205 120.207 69.8857 120.271 69.9298C120.335 69.9732 120.417 69.995 120.515 69.995Z" fill="#3F3F3F"/>
<path d="M121.918 69.209V70.1799H121.67V68.5659H121.91V68.8181H121.931C121.968 68.7362 122.026 68.6703 122.103 68.6206C122.18 68.5701 122.279 68.5449 122.401 68.5449C122.511 68.5449 122.606 68.5673 122.688 68.6122C122.77 68.6563 122.834 68.7235 122.879 68.8139C122.925 68.9036 122.948 69.0171 122.948 69.1544V70.1799H122.7V69.1712C122.7 69.0444 122.667 68.9456 122.601 68.8749C122.535 68.8034 122.445 68.7677 122.33 68.7677C122.251 68.7677 122.18 68.7848 122.118 68.8192C122.056 68.8535 122.007 68.9036 121.972 68.9694C121.936 69.0353 121.918 69.1151 121.918 69.209Z" fill="#3F3F3F"/>
<path d="M123.632 69.5915L123.628 69.2847H123.678L124.384 68.5659H124.691L123.939 69.3267H123.918L123.632 69.5915ZM123.401 70.1799V68.0279H123.649V70.1799H123.401ZM124.426 70.1799L123.796 69.3813L123.972 69.209L124.742 70.1799H124.426Z" fill="#3F3F3F"/>
<path d="M125.01 70.1799V68.5659H125.258V70.1799H125.01ZM125.136 68.2969C125.088 68.2969 125.046 68.2805 125.011 68.2476C124.977 68.2146 124.96 68.175 124.96 68.1288C124.96 68.0826 124.977 68.043 125.011 68.0101C125.046 67.9772 125.088 67.9607 125.136 67.9607C125.185 67.9607 125.226 67.9772 125.26 68.0101C125.295 68.043 125.313 68.0826 125.313 68.1288C125.313 68.175 125.295 68.2146 125.26 68.2476C125.226 68.2805 125.185 68.2969 125.136 68.2969Z" fill="#3F3F3F"/>
<path d="M125.96 69.209V70.1799H125.713V68.5659H125.952V68.8181H125.973C126.011 68.7362 126.068 68.6703 126.145 68.6206C126.222 68.5701 126.322 68.5449 126.444 68.5449C126.553 68.5449 126.649 68.5673 126.731 68.6122C126.813 68.6563 126.876 68.7235 126.922 68.8139C126.967 68.9036 126.99 69.0171 126.99 69.1544V70.1799H126.742V69.1712C126.742 69.0444 126.709 68.9456 126.643 68.8749C126.578 68.8034 126.487 68.7677 126.372 68.7677C126.293 68.7677 126.222 68.7848 126.16 68.8192C126.098 68.8535 126.05 68.9036 126.014 68.9694C125.978 69.0353 125.96 69.1151 125.96 69.209Z" fill="#3F3F3F"/>
<path d="M128.095 70.8188C127.975 70.8188 127.872 70.8034 127.786 70.7725C127.7 70.7424 127.628 70.7025 127.571 70.6527C127.514 70.6037 127.469 70.5512 127.435 70.4951L127.633 70.3564C127.655 70.3858 127.683 70.4195 127.718 70.4573C127.752 70.4958 127.799 70.5291 127.858 70.5571C127.919 70.5858 127.997 70.6002 128.095 70.6002C128.225 70.6002 128.333 70.5687 128.417 70.5056C128.502 70.4426 128.545 70.3438 128.545 70.2093V69.8815H128.524C128.505 69.9109 128.479 69.9473 128.446 69.9908C128.413 70.0335 128.365 70.0717 128.303 70.1053C128.241 70.1382 128.158 70.1547 128.053 70.1547C127.923 70.1547 127.806 70.1239 127.702 70.0622C127.599 70.0006 127.517 69.9109 127.457 69.7932C127.397 69.6755 127.368 69.5326 127.368 69.3645C127.368 69.1992 127.397 69.0552 127.455 68.9326C127.513 68.8094 127.594 68.7141 127.698 68.6468C127.801 68.5789 127.921 68.5449 128.057 68.5449C128.162 68.5449 128.245 68.5624 128.307 68.5975C128.369 68.6318 128.417 68.671 128.45 68.7151C128.484 68.7586 128.51 68.7943 128.528 68.8223H128.553V68.5659H128.793V70.2261C128.793 70.3648 128.761 70.4776 128.698 70.5645C128.636 70.652 128.552 70.7161 128.446 70.7568C128.341 70.7981 128.224 70.8188 128.095 70.8188ZM128.086 69.9319C128.186 69.9319 128.27 69.9092 128.339 69.8636C128.407 69.8181 128.459 69.7526 128.495 69.6671C128.531 69.5817 128.549 69.4794 128.549 69.3603C128.549 69.244 128.531 69.1414 128.496 69.0524C128.461 68.9635 128.409 68.8938 128.341 68.8433C128.272 68.7929 128.187 68.7677 128.086 68.7677C127.981 68.7677 127.894 68.7943 127.824 68.8475C127.754 68.9008 127.702 68.9722 127.667 69.0619C127.633 69.1516 127.616 69.251 127.616 69.3603C127.616 69.4724 127.633 69.5715 127.668 69.6577C127.704 69.7431 127.757 69.8104 127.826 69.8594C127.896 69.9078 127.983 69.9319 128.086 69.9319Z" fill="#3F3F3F"/>
<path d="M162.022 39.9803H109.244V47.8659H162.022V39.9803Z" fill="white" stroke="#263238" stroke-width="0.3" stroke-miterlimit="10" stroke-linecap="round" stroke-linejoin="round"/>
<path d="M134.233 50.7422H109.244V59.9741H134.233V50.7422Z" fill="white" stroke="#263238" stroke-width="0.3" stroke-miterlimit="10" stroke-linecap="round" stroke-linejoin="round"/>
<path d="M162.027 50.7422H137.039V59.9741H162.027V50.7422Z" fill="white" stroke="#263238" stroke-width="0.3" stroke-miterlimit="10" stroke-linecap="round" stroke-linejoin="round"/>
<path d="M129.735 43.0566V45.3893H129.493V43.2687H128.941V43.0566H129.735Z" fill="#263238"/>
<path d="M131.885 45.1738V45.3859H130.248V45.2182L131.22 44.2664C131.481 44.005 131.535 43.8521 131.535 43.6894C131.535 43.4182 131.343 43.2505 130.988 43.2505C130.717 43.2505 130.505 43.3343 130.352 43.5119L130.184 43.3639C130.367 43.1519 130.653 43.0286 131.013 43.0286C131.486 43.0286 131.787 43.2702 131.787 43.6598C131.787 43.8817 131.718 44.0839 131.402 44.3897L130.608 45.1689H131.885V45.1738Z" fill="#263238"/>
<path d="M133.73 44.7186C133.73 45.1082 133.449 45.409 132.881 45.409C132.546 45.409 132.221 45.2906 132.043 45.1082L132.161 44.9158C132.309 45.0737 132.581 45.1871 132.886 45.1871C133.271 45.1871 133.488 45.0095 133.488 44.7186C133.488 44.4375 133.291 44.255 132.857 44.255H132.689V44.0775L133.335 43.2687H132.142V43.0566H133.641V43.2243L132.98 44.0528C133.478 44.0824 133.73 44.3438 133.73 44.7186Z" fill="#263238"/>
<path d="M136.048 44.7757H135.58V45.3872H135.338V44.7757H134.021V44.6031L135.259 43.0546H135.525L134.332 44.5636H135.348V44.0211H135.58V44.5636H136.048V44.7757Z" fill="#263238"/>
<path d="M138.725 44.7007C138.725 45.0952 138.449 45.4059 137.877 45.4059C137.542 45.4059 137.221 45.2875 137.039 45.105L137.157 44.9127C137.305 45.0705 137.576 45.1839 137.872 45.1839C138.267 45.1839 138.479 44.9916 138.479 44.7056C138.479 44.4048 138.291 44.2174 137.699 44.2174H137.201L137.32 43.0486H138.597V43.2606H137.532L137.453 44.0053H137.754C138.459 44.0152 138.725 44.2913 138.725 44.7007Z" fill="#263238"/>
<path d="M140.78 44.6905C140.78 45.1294 140.435 45.4056 139.982 45.4056C139.36 45.4056 139.025 44.9765 139.025 44.2368C139.025 43.4428 139.459 43.0286 140.09 43.0286C140.302 43.0286 140.499 43.0631 140.642 43.1568L140.544 43.3491C140.425 43.2702 140.263 43.2406 140.09 43.2406C139.587 43.2406 139.262 43.5661 139.262 44.1973C139.262 44.2516 139.266 44.3157 139.271 44.3897C139.39 44.1332 139.661 43.9902 139.986 43.9902C140.455 43.9902 140.78 44.2664 140.78 44.6905ZM140.544 44.7004C140.544 44.3946 140.317 44.1973 139.957 44.1973C139.602 44.1973 139.355 44.4193 139.355 44.7053C139.355 44.9617 139.567 45.2034 139.972 45.2034C140.307 45.2083 140.544 45.0111 140.544 44.7004Z" fill="#263238"/>
<path d="M142.674 43.0566V43.2243L141.698 45.3893H141.436L142.398 43.2687H141.2V43.7076H140.963V43.0566H142.674Z" fill="#263238"/>
<path d="M144.721 44.738C144.721 45.1523 144.371 45.4087 143.813 45.4087C143.251 45.4087 142.911 45.1523 142.911 44.738C142.911 44.4569 143.069 44.2596 143.36 44.1659C143.123 44.0722 142.995 43.8947 142.995 43.6531C142.995 43.2733 143.315 43.0366 143.813 43.0366C144.307 43.0366 144.637 43.2733 144.637 43.6531C144.637 43.8947 144.504 44.0722 144.262 44.1659C144.558 44.2596 144.721 44.4618 144.721 44.738ZM144.474 44.7331C144.474 44.4471 144.228 44.2646 143.813 44.2646C143.399 44.2646 143.158 44.4471 143.158 44.7331C143.158 45.024 143.399 45.2016 143.813 45.2016C144.228 45.2065 144.474 45.024 144.474 44.7331ZM143.813 44.0772C144.178 44.0772 144.395 43.9144 144.395 43.6629C144.395 43.4016 144.164 43.2388 143.813 43.2388C143.458 43.2388 143.236 43.3966 143.236 43.658C143.236 43.9144 143.449 44.0772 143.813 44.0772Z" fill="#263238"/>
<path d="M147.611 44.2033C147.611 44.9973 147.177 45.4116 146.546 45.4116C146.334 45.4116 146.142 45.377 145.994 45.2833L146.092 45.091C146.211 45.1699 146.373 45.1995 146.546 45.1995C147.049 45.1995 147.374 44.874 147.374 44.2428C147.374 44.1885 147.369 44.1244 147.365 44.0505C147.246 44.3069 146.975 44.4499 146.649 44.4499C146.186 44.4499 145.865 44.1787 145.865 43.7496C145.865 43.3107 146.211 43.0345 146.664 43.0345C147.271 43.0345 147.611 43.4685 147.611 44.2033ZM147.281 43.7398C147.281 43.4833 147.069 43.2417 146.664 43.2417C146.329 43.2417 146.092 43.4389 146.092 43.7496C146.092 44.0554 146.319 44.2526 146.679 44.2526C147.034 44.2526 147.281 44.0307 147.281 43.7398Z" fill="#263238"/>
<path d="M148.595 43.0566V45.3893H148.354V43.2687H147.801V43.0566H148.595Z" fill="#263238"/>
<path d="M149.155 44.2231C149.155 43.4784 149.544 43.0345 150.087 43.0345C150.625 43.0345 151.019 43.4784 151.019 44.2231C151.019 44.9677 150.625 45.4116 150.087 45.4116C149.544 45.4116 149.155 44.9677 149.155 44.2231ZM150.768 44.2231C150.768 43.6017 150.486 43.2565 150.082 43.2565C149.678 43.2565 149.397 43.6017 149.397 44.2231C149.397 44.8444 149.678 45.1896 150.082 45.1896C150.491 45.1896 150.768 44.8494 150.768 44.2231Z" fill="#263238"/>
<path d="M152 43.0566V45.3893H151.759V43.2687H151.206V43.0566H152Z" fill="#263238"/>
<path d="M154.075 43.0566V45.3893H153.834V43.2687H153.281V43.0566H154.075Z" fill="#263238"/>
<path d="M155.274 43.0566V45.3893H155.032V43.2687H154.48V43.0566H155.274Z" fill="#263238"/>
<path d="M157.426 45.1738V45.3859H155.788V45.2182L156.76 44.2664C157.021 44.005 157.075 43.8521 157.075 43.6894C157.075 43.4182 156.883 43.2505 156.528 43.2505C156.257 43.2505 156.045 43.3343 155.892 43.5119L155.724 43.3639C155.902 43.1519 156.193 43.0286 156.553 43.0286C157.026 43.0286 157.327 43.2702 157.327 43.6598C157.327 43.8817 157.258 44.0839 156.942 44.3897L156.148 45.1689H157.426V45.1738Z" fill="#263238"/>
<path d="M158.37 43.0566V45.3893H158.129V43.2687H157.576V43.0566H158.37Z" fill="#263238"/>
<path d="M119.049 42.5222V42.1672C119.049 41.8219 118.773 41.5458 118.428 41.5458H112.13C111.785 41.5458 111.509 41.8219 111.509 42.1672V42.5222H119.049Z" fill="#263238"/>
<path d="M111.509 43.0073V45.621C111.509 45.9663 111.785 46.2424 112.13 46.2424H118.428C118.773 46.2424 119.049 45.9663 119.049 45.621V43.0073H111.509Z" fill="#263238"/>
<path d="M111.602 56.7727C111.602 56.0281 111.992 55.5842 112.534 55.5842C113.077 55.5842 113.466 56.0281 113.466 56.7727C113.466 57.5174 113.072 57.9612 112.534 57.9612C111.992 57.9612 111.602 57.5174 111.602 56.7727ZM113.22 56.7727C113.22 56.1514 112.939 55.8061 112.534 55.8061C112.13 55.8061 111.849 56.1514 111.849 56.7727C111.849 57.3941 112.13 57.7393 112.534 57.7393C112.939 57.7393 113.22 57.399 113.22 56.7727Z" fill="#263238"/>
<path d="M115.602 57.2877C115.602 57.7019 115.251 57.9584 114.694 57.9584C114.132 57.9584 113.792 57.7019 113.792 57.2877C113.792 57.0066 113.95 56.8093 114.241 56.7156C114.004 56.6219 113.876 56.4444 113.876 56.2027C113.876 55.823 114.201 55.5863 114.694 55.5863C115.187 55.5863 115.518 55.823 115.518 56.2027C115.518 56.4444 115.385 56.6219 115.143 56.7156C115.439 56.8093 115.602 57.0115 115.602 57.2877ZM115.355 57.2828C115.355 56.9967 115.108 56.8143 114.694 56.8143C114.28 56.8143 114.038 56.9918 114.038 57.2828C114.038 57.5737 114.28 57.7513 114.694 57.7513C115.108 57.7562 115.355 57.5737 115.355 57.2828ZM114.694 56.6269C115.059 56.6269 115.276 56.4641 115.276 56.2126C115.276 55.9512 115.044 55.7885 114.694 55.7885C114.339 55.7885 114.117 55.9463 114.117 56.2077C114.117 56.4641 114.334 56.6269 114.694 56.6269Z" fill="#263238"/>
<path d="M116.781 55.1338H116.998L115.898 58.2752H115.681L116.781 55.1338Z" fill="#263238"/>
<path d="M118.644 57.7295V57.9415H117.006V57.7738L117.978 56.822C118.239 56.5607 118.293 56.4029 118.293 56.2451C118.293 55.9738 118.101 55.8061 117.746 55.8061C117.475 55.8061 117.263 55.89 117.11 56.0675L116.942 55.9196C117.125 55.7075 117.411 55.5842 117.771 55.5842C118.244 55.5842 118.545 55.8259 118.545 56.2155C118.545 56.4374 118.476 56.6396 118.16 56.9453L117.366 57.7245H118.644V57.7295Z" fill="#263238"/>
<path d="M120.528 57.2563C120.528 57.6509 120.252 57.9615 119.68 57.9615C119.344 57.9615 119.024 57.8432 118.841 57.6607L118.96 57.4684C119.108 57.6262 119.379 57.7396 119.675 57.7396C120.069 57.7396 120.281 57.5473 120.281 57.2613C120.281 56.9604 120.094 56.773 119.502 56.773H119.004L119.122 55.6042H120.4V55.8163H119.334L119.256 56.561H119.556C120.262 56.5659 120.528 56.8421 120.528 57.2563Z" fill="#263238"/>
<path d="M112.693 54.1052V54.2383H111.667V52.7885H112.658V52.9216H111.82V53.4345H112.569V53.5627H111.82V54.1002H112.693V54.1052Z" fill="#263238"/>
<path d="M113.94 54.2382L113.471 53.602L113.008 54.2382H112.83L113.383 53.4935L112.87 52.7883H113.047L113.486 53.3801L113.92 52.7883H114.088L113.575 53.4886L114.127 54.2382H113.94Z" fill="#263238"/>
<path d="M115.48 53.2864C115.48 53.5922 115.258 53.7796 114.888 53.7796H114.499V54.2382H114.346V52.7883H114.888C115.253 52.7883 115.48 52.9757 115.48 53.2864ZM115.327 53.2864C115.327 53.0546 115.174 52.9215 114.883 52.9215H114.499V53.6464H114.883C115.174 53.6464 115.327 53.5133 115.327 53.2864Z" fill="#263238"/>
<path d="M116.376 52.7883H116.968C117.432 52.7883 117.742 53.0842 117.742 53.5133C117.742 53.9374 117.432 54.2382 116.968 54.2382H116.376V52.7883ZM116.953 54.1051C117.338 54.1051 117.584 53.8585 117.584 53.5133C117.584 53.1631 117.338 52.9215 116.953 52.9215H116.524V54.1051H116.953Z" fill="#263238"/>
<path d="M118.876 53.5651V54.2408H118.733V54.0731C118.669 54.1865 118.541 54.2556 118.358 54.2556C118.112 54.2556 117.959 54.1273 117.959 53.9399C117.959 53.7723 118.067 53.6342 118.378 53.6342H118.723V53.5701C118.723 53.3827 118.62 53.2841 118.418 53.2841C118.275 53.2841 118.146 53.3334 118.058 53.4123L117.994 53.3038C118.102 53.2101 118.265 53.1558 118.437 53.1558C118.718 53.141 118.876 53.284 118.876 53.5651ZM118.728 53.9153V53.7378H118.388C118.176 53.7378 118.107 53.8216 118.107 53.9301C118.107 54.0583 118.21 54.1372 118.383 54.1372C118.551 54.1323 118.669 54.0534 118.728 53.9153Z" fill="#263238"/>
<path d="M119.848 54.1691C119.789 54.2184 119.705 54.248 119.616 54.248C119.414 54.248 119.295 54.1346 119.295 53.9324V53.2765H119.103V53.1532H119.295V52.9165H119.443V53.1532H119.774V53.2765H119.443V53.9275C119.443 54.0557 119.508 54.1247 119.631 54.1247C119.69 54.1247 119.749 54.105 119.794 54.0705L119.848 54.1691Z" fill="#263238"/>
<path d="M121.027 53.7394H120.114C120.129 53.9663 120.307 54.1192 120.543 54.1192C120.676 54.1192 120.795 54.0698 120.879 53.9761L120.962 54.0698C120.864 54.1833 120.716 54.2474 120.543 54.2474C120.203 54.2474 119.971 54.0156 119.971 53.695C119.971 53.3745 120.198 53.1427 120.504 53.1427C120.81 53.1427 121.031 53.3696 121.031 53.695C121.027 53.7049 121.027 53.7197 121.027 53.7394ZM120.114 53.626H120.888C120.869 53.4139 120.716 53.266 120.504 53.266C120.292 53.266 120.134 53.4139 120.114 53.626Z" fill="#263238"/>
<path d="M139.145 55.6096V57.9423H138.904V55.8217H138.351V55.6096H139.145Z" fill="#263238"/>
<path d="M141.296 57.7288V57.9409H139.659V57.7732L140.63 56.8214C140.892 56.5601 140.946 56.4023 140.946 56.2444C140.946 55.9732 140.758 55.8055 140.398 55.8055C140.127 55.8055 139.915 55.8894 139.762 56.0669L139.595 55.919C139.777 55.7069 140.063 55.5836 140.423 55.5836C140.897 55.5836 141.197 55.8253 141.197 56.2149C141.197 56.4368 141.128 56.639 140.813 56.9447L140.019 57.7239H141.296V57.7288Z" fill="#263238"/>
<path d="M143.14 57.2716C143.14 57.6612 142.859 57.962 142.292 57.962C141.957 57.962 141.631 57.8436 141.454 57.6612L141.572 57.4688C141.72 57.6266 141.991 57.7401 142.297 57.7401C142.682 57.7401 142.899 57.5625 142.899 57.2716C142.899 56.9905 142.701 56.808 142.267 56.808H142.1V56.6305L142.746 55.8217H141.552V55.6096H143.051V55.7773L142.391 56.6058C142.889 56.6354 143.14 56.8968 143.14 57.2716Z" fill="#263238"/>
<path d="M138.432 53.5129C138.432 53.0888 138.758 52.7781 139.192 52.7781C139.404 52.7781 139.591 52.8471 139.72 52.9901L139.621 53.0888C139.503 52.9704 139.36 52.9162 139.192 52.9162C138.842 52.9162 138.58 53.1726 138.58 53.5178C138.58 53.863 138.842 54.1195 139.192 54.1195C139.36 54.1195 139.503 54.0701 139.621 53.9469L139.72 54.0455C139.591 54.1885 139.399 54.2575 139.187 54.2575C138.753 54.2477 138.432 53.937 138.432 53.5129Z" fill="#263238"/>
<path d="M142.023 52.7861L141.535 54.236H141.372L140.948 53.0031L140.519 54.236H140.361L139.873 52.7861H140.031L140.45 54.0338L140.884 52.7861H141.027L141.456 54.0387L141.88 52.7861H142.023Z" fill="#263238"/>
<path d="M126.211 100.042H124.909L124.628 100.663H124.372L125.437 98.3304H125.679L126.744 100.663H126.482L126.211 100.042ZM126.117 99.8395L125.555 98.5869L124.993 99.8395H126.117Z" fill="#263238"/>
<path d="M126.891 99.7818C126.891 99.259 127.27 98.8892 127.793 98.8892C128.089 98.8892 128.34 99.0075 128.478 99.2344L128.301 99.3527C128.183 99.1752 127.995 99.0914 127.793 99.0914C127.408 99.0914 127.132 99.3626 127.132 99.7768C127.132 100.191 127.413 100.462 127.793 100.462C127.995 100.462 128.183 100.383 128.301 100.206L128.478 100.324C128.34 100.551 128.089 100.669 127.793 100.669C127.27 100.674 126.891 100.305 126.891 99.7818Z" fill="#263238"/>
<path d="M129.885 100.549C129.791 100.632 129.653 100.672 129.515 100.672C129.184 100.672 129.002 100.484 129.002 100.164V99.1036H128.686V98.9014H129.002V98.5167H129.239V98.9014H129.771V99.1036H129.239V100.149C129.239 100.356 129.347 100.47 129.54 100.47C129.638 100.47 129.732 100.44 129.801 100.381L129.885 100.549Z" fill="#263238"/>
<path d="M130.265 98.352C130.265 98.2632 130.344 98.1843 130.438 98.1843C130.536 98.1843 130.61 98.2583 130.61 98.3471C130.61 98.4457 130.536 98.5197 130.438 98.5197C130.339 98.5246 130.265 98.4457 130.265 98.352ZM130.319 98.9043H130.556V100.66H130.319V98.9043Z" fill="#263238"/>
<path d="M131.034 99.7818C131.034 99.264 131.414 98.8892 131.927 98.8892C132.44 98.8892 132.814 99.259 132.814 99.7818C132.814 100.3 132.44 100.674 131.927 100.674C131.419 100.674 131.034 100.305 131.034 99.7818ZM132.578 99.7818C132.578 99.3725 132.301 99.0963 131.927 99.0963C131.552 99.0963 131.276 99.3675 131.276 99.7818C131.276 100.191 131.557 100.467 131.927 100.467C132.301 100.467 132.578 100.191 132.578 99.7818Z" fill="#263238"/>
<path d="M134.914 99.6439V100.66H134.677V99.6686C134.677 99.2987 134.485 99.1064 134.15 99.1064C133.775 99.1064 133.538 99.3381 133.538 99.7425V100.665H133.302V98.9091H133.528V99.2346C133.657 99.0225 133.893 98.8992 134.194 98.8992C134.623 98.8943 134.914 99.1409 134.914 99.6439Z" fill="#263238"/>
<path d="M136.731 98.5425V99.4598H137.939V99.6718H136.731V100.663H136.484V98.3304H138.087V98.5425H136.731Z" fill="#263238"/>
<path d="M138.456 98.352C138.456 98.2632 138.535 98.1843 138.629 98.1843C138.727 98.1843 138.801 98.2583 138.801 98.3471C138.801 98.4457 138.727 98.5197 138.629 98.5197C138.53 98.5246 138.456 98.4457 138.456 98.352ZM138.505 98.9043H138.742V100.66H138.505V98.9043Z" fill="#263238"/>
<path d="M141.025 98.904V100.443C141.025 101.044 140.729 101.32 140.147 101.32C139.827 101.32 139.511 101.222 139.329 101.049L139.447 100.867C139.615 101.015 139.866 101.108 140.137 101.108C140.581 101.108 140.783 100.906 140.783 100.472V100.25C140.635 100.472 140.389 100.591 140.103 100.591C139.605 100.591 139.22 100.24 139.22 99.7374C139.22 99.2344 139.6 98.8892 140.103 98.8892C140.394 98.8892 140.65 99.0075 140.798 99.2393V98.904H141.025ZM140.798 99.7374C140.798 99.3577 140.517 99.0963 140.132 99.0963C139.748 99.0963 139.467 99.3577 139.467 99.7374C139.467 100.117 139.743 100.378 140.132 100.378C140.517 100.383 140.798 100.117 140.798 99.7374Z" fill="#263238"/>
<path d="M143.269 98.9041V100.66H143.042V100.339C142.918 100.551 142.692 100.675 142.411 100.675C141.962 100.675 141.671 100.423 141.671 99.92V98.9041H141.907V99.8953C141.907 100.27 142.1 100.458 142.435 100.458C142.8 100.458 143.032 100.221 143.032 99.8214V98.8992H143.269V98.9041Z" fill="#263238"/>
<path d="M144.817 98.8951V99.1269C144.797 99.1269 144.777 99.122 144.758 99.122C144.393 99.122 144.166 99.3538 144.166 99.768V100.661H143.929V98.905H144.156V99.2502C144.269 99.0184 144.491 98.8951 144.817 98.8951Z" fill="#263238"/>
<path d="M146.75 99.8558H145.285C145.31 100.221 145.591 100.467 145.976 100.467C146.188 100.467 146.38 100.388 146.513 100.235L146.646 100.388C146.488 100.576 146.247 100.674 145.971 100.674C145.423 100.674 145.048 100.3 145.048 99.7818C145.048 99.264 145.413 98.8892 145.907 98.8892C146.4 98.8892 146.755 99.2541 146.755 99.7818C146.755 99.8015 146.75 99.8311 146.75 99.8558ZM145.285 99.6782H146.528C146.498 99.333 146.247 99.0963 145.907 99.0963C145.566 99.0963 145.315 99.3379 145.285 99.6782Z" fill="#263238"/>
<path d="M134.79 108.74V109.948H129.947V108.986L132.418 106.649C132.985 106.106 133.089 105.781 133.089 105.465C133.089 104.962 132.738 104.666 132.063 104.666C131.515 104.666 131.047 104.878 130.736 105.307L129.656 104.612C130.149 103.887 131.047 103.424 132.201 103.424C133.631 103.424 134.583 104.158 134.583 105.317C134.583 105.939 134.41 106.506 133.513 107.339L132.038 108.73H134.79V108.74Z" fill="#263238"/>
<path d="M135.387 106.74C135.387 104.624 136.56 103.426 138.133 103.426C139.717 103.426 140.88 104.624 140.88 106.74C140.88 108.855 139.717 110.054 138.133 110.054C136.56 110.054 135.387 108.855 135.387 106.74ZM139.391 106.74C139.391 105.285 138.878 104.678 138.138 104.678C137.404 104.678 136.891 105.285 136.891 106.74C136.891 108.194 137.404 108.801 138.138 108.801C138.878 108.801 139.391 108.194 139.391 106.74Z" fill="#263238"/>
<path d="M141.604 106.74C141.604 104.624 142.778 103.426 144.351 103.426C145.934 103.426 147.098 104.624 147.098 106.74C147.098 108.855 145.934 110.054 144.351 110.054C142.778 110.054 141.604 108.855 141.604 106.74ZM145.604 106.74C145.604 105.285 145.091 104.678 144.351 104.678C143.616 104.678 143.104 105.285 143.104 106.74C143.104 108.194 143.616 108.801 144.351 108.801C145.091 108.801 145.604 108.194 145.604 106.74Z" fill="#263238"/>
<path d="M127.977 105.023L127.771 105.73H123.615L123.821 105.023H127.977ZM126.114 109.949L123.745 107.181L123.74 106.626H124.833C125.15 106.626 125.411 106.574 125.617 106.469C125.826 106.362 125.982 106.217 126.087 106.035C126.191 105.853 126.244 105.648 126.244 105.421C126.244 105.168 126.194 104.945 126.096 104.754C125.997 104.56 125.842 104.409 125.63 104.302C125.421 104.191 125.147 104.136 124.806 104.136H123.624L123.834 103.429H124.806C125.326 103.429 125.754 103.508 126.091 103.666C126.432 103.821 126.686 104.048 126.853 104.347C127.02 104.645 127.103 105.006 127.103 105.43C127.103 105.795 127.033 106.121 126.893 106.411C126.756 106.698 126.527 106.923 126.208 107.087C125.891 107.251 125.464 107.334 124.927 107.334L127.13 109.895V109.949H126.114ZM127.977 103.429L127.771 104.136H124.421L124.627 103.429H127.977Z" fill="#263238"/>
<path d="M145.864 130.599H125.418C122.775 130.599 120.634 128.459 120.634 125.816C120.634 123.172 122.775 121.032 125.418 121.032H145.864C148.508 121.032 150.648 123.172 150.648 125.816C150.648 128.459 148.508 130.599 145.864 130.599Z" fill="#00C802"/>
<path d="M129.083 125.293C129.083 125.889 128.649 126.254 127.933 126.254H127.179V127.142H126.883V124.331H127.938C128.649 124.331 129.083 124.691 129.083 125.293ZM128.782 125.293C128.782 124.844 128.486 124.587 127.924 124.587H127.174V125.993H127.924C128.486 125.993 128.782 125.737 128.782 125.293Z" fill="white"/>
<path d="M131.236 125.837V127.148H130.965V126.818C130.837 127.035 130.585 127.168 130.24 127.168C129.762 127.168 129.471 126.917 129.471 126.552C129.471 126.226 129.678 125.955 130.285 125.955H130.955V125.827C130.955 125.467 130.748 125.269 130.359 125.269C130.087 125.269 129.826 125.368 129.653 125.516L129.525 125.304C129.737 125.121 130.053 125.018 130.383 125.018C130.926 125.013 131.236 125.289 131.236 125.837ZM130.95 126.512V126.167H130.29C129.88 126.167 129.747 126.33 129.747 126.547C129.747 126.793 129.944 126.946 130.28 126.946C130.6 126.941 130.842 126.788 130.95 126.512Z" fill="white"/>
<path d="M133.748 125.032L132.692 127.399C132.515 127.813 132.293 127.946 131.987 127.946C131.79 127.946 131.602 127.882 131.474 127.754L131.607 127.542C131.711 127.645 131.839 127.705 131.992 127.705C132.179 127.705 132.308 127.616 132.431 127.35L132.525 127.142L131.583 125.032H131.879L132.672 126.827L133.466 125.032H133.748Z" fill="white"/>
<path d="M139.41 126.887V127.144H137.437V126.936L138.606 125.792C138.922 125.482 138.986 125.289 138.986 125.097C138.986 124.771 138.759 124.569 138.325 124.569C137.995 124.569 137.743 124.668 137.556 124.885L137.349 124.707C137.566 124.451 137.916 124.303 138.345 124.303C138.917 124.303 139.277 124.594 139.277 125.062C139.277 125.334 139.193 125.575 138.813 125.945L137.857 126.887H139.41Z" fill="white"/>
<path d="M139.754 125.739C139.754 124.842 140.223 124.309 140.874 124.309C141.525 124.309 141.998 124.842 141.998 125.739C141.998 126.637 141.525 127.169 140.874 127.169C140.223 127.169 139.754 126.637 139.754 125.739ZM141.702 125.739C141.702 124.99 141.367 124.575 140.874 124.575C140.386 124.575 140.045 124.99 140.045 125.739C140.045 126.489 140.381 126.903 140.874 126.903C141.367 126.903 141.702 126.489 141.702 125.739Z" fill="white"/>
<path d="M142.413 125.739C142.413 124.842 142.882 124.309 143.533 124.309C144.184 124.309 144.657 124.842 144.657 125.739C144.657 126.637 144.184 127.169 143.533 127.169C142.887 127.169 142.413 126.637 142.413 125.739ZM144.361 125.739C144.361 124.99 144.026 124.575 143.533 124.575C143.044 124.575 142.704 124.99 142.704 125.739C142.704 126.489 143.044 126.903 143.533 126.903C144.026 126.903 144.361 126.489 144.361 125.739Z" fill="white"/>
<path d="M136.788 125.146L136.714 125.382H134.794L134.865 125.146H136.788ZM136.125 127.54L134.976 126.173L134.974 125.975H135.325C135.497 125.975 135.639 125.943 135.752 125.877C135.864 125.812 135.95 125.726 136.007 125.62C136.065 125.513 136.094 125.398 136.094 125.275C136.094 125.127 136.062 124.998 135.998 124.888C135.935 124.779 135.841 124.694 135.718 124.633C135.595 124.571 135.444 124.539 135.265 124.539H134.827L134.903 124.304H135.265C135.496 124.304 135.694 124.342 135.858 124.419C136.023 124.495 136.148 124.605 136.234 124.751C136.322 124.896 136.365 125.071 136.365 125.277C136.365 125.445 136.33 125.6 136.261 125.742C136.193 125.883 136.084 125.996 135.934 126.082C135.786 126.166 135.591 126.209 135.349 126.209L136.441 127.511V127.54H136.125ZM136.788 124.304L136.714 124.539H134.992L135.065 124.304H136.788Z" fill="white"/>
</svg>
