<svg width="280" height="258" viewBox="0 0 280 258" fill="none" xmlns="http://www.w3.org/2000/svg">
<mask id="mask0_6847_38587" style="mask-type:alpha" maskUnits="userSpaceOnUse" x="19" y="0" width="229" height="227">
<rect x="19" width="229" height="227" fill="#C4C4C4"/>
</mask>
<g mask="url(#mask0_6847_38587)">
<path d="M244.875 116.205C255.241 158.969 199.939 196.206 162.405 190.428C124.871 184.65 107.128 175.879 95.6505 198.512C84.1729 221.145 59.4388 237.445 37.3196 212.575C15.2004 187.704 11.6666 140.145 37.8968 104.153C64.127 68.1599 38.3501 36.0853 87.9178 6.90372C114.944 -9.00377 136.522 16.7229 150.501 41.1122C164.479 65.5015 232.846 66.6006 244.875 116.205Z" fill="#F9EFEE"/>
</g>
<path d="M280 257.828C280 257.924 220.954 258.001 148.137 258.001C75.321 258.001 16.2686 257.905 16.2686 257.828C16.2686 257.752 75.2955 257.662 148.137 257.662C220.979 257.662 280 257.739 280 257.828Z" fill="#263238"/>
<path d="M78.8835 55.8257H189.545L195.571 247.736C195.612 249.024 195.399 250.307 194.944 251.512C194.489 252.717 193.802 253.82 192.921 254.759C192.04 255.698 190.983 256.454 189.809 256.984C188.636 257.513 187.371 257.806 186.084 257.846H70.7055C69.0798 257.846 67.5163 257.221 66.3386 256.099C65.1609 254.977 64.4592 253.445 64.3789 251.82L59.061 143.454C59.061 143.454 26.2406 131.529 26.796 95.1472C26.796 95.1472 28.2899 55.8257 78.8835 55.8257Z" fill="#263238"/>
<path d="M84.8908 257.558L80.0645 55.8257H193.56L195.609 249.072C195.68 251.321 194.855 253.506 193.317 255.146C191.779 256.787 189.652 257.749 187.406 257.82H187.112L84.8908 257.558Z" fill="#455A64"/>
<path d="M89.4424 67.5146L91.7406 161.444H184.175L182.93 67.5146H89.4424Z" fill="#263238"/>
<path d="M99.6699 79.6693C104.183 80.8903 109.884 80.3725 114.519 80.1488C114.858 80.1488 115.183 80.0141 115.422 79.7743C115.662 79.5345 115.796 79.2094 115.796 78.8703C115.796 78.5312 115.662 78.206 115.422 77.9663C115.183 77.7265 114.858 77.5918 114.519 77.5918C109.884 77.3617 104.177 76.8439 99.6699 78.0713C99.4541 78.135 99.2724 78.2818 99.1647 78.4796C99.057 78.6773 99.032 78.9098 99.0954 79.126C99.1365 79.2618 99.2105 79.3853 99.3107 79.4857C99.4109 79.586 99.5343 79.6601 99.6699 79.7013V79.6693Z" fill="#E0E0E0"/>
<path d="M122.41 79.4844C126.84 80.6158 132.567 80.4113 137.093 79.9766C137.432 79.9766 137.757 79.8419 137.996 79.6021C138.235 79.3624 138.37 79.0372 138.37 78.6981C138.37 78.359 138.235 78.0339 137.996 77.7941C137.757 77.5544 137.432 77.4197 137.093 77.4197C132.567 76.9786 126.84 76.7804 122.41 77.9119C122.306 77.9433 122.21 77.9949 122.126 78.0636C122.043 78.1323 121.973 78.2169 121.922 78.3125C121.871 78.4081 121.84 78.5128 121.829 78.6206C121.819 78.7285 121.829 78.8374 121.861 78.941C121.9 79.0711 121.97 79.1894 122.066 79.2854C122.162 79.3813 122.28 79.4519 122.41 79.4908V79.4844Z" fill="#E0E0E0"/>
<path d="M144.843 79.0822C147.071 79.7598 149.478 79.6448 151.789 79.6831C154.149 79.8238 156.516 79.7789 158.869 79.5489C160.025 79.3827 160.025 77.3691 158.869 77.2093C156.517 76.9739 154.149 76.9269 151.789 77.0687C149.478 77.107 147.071 76.992 144.843 77.6696C144.69 77.7137 144.556 77.8065 144.46 77.9339C144.364 78.0613 144.313 78.2164 144.312 78.3759C144.313 78.5353 144.364 78.6905 144.46 78.8179C144.556 78.9453 144.69 79.0381 144.843 79.0822Z" fill="#E0E0E0"/>
<path d="M165.63 79.2092C167.311 79.4541 169.006 79.5844 170.705 79.5991C172.391 79.6375 174.21 79.9123 175.844 79.4457C176.074 79.3762 176.275 79.2345 176.418 79.0417C176.561 78.8489 176.638 78.6151 176.638 78.375C176.638 78.1349 176.561 77.9011 176.418 77.7083C176.275 77.5155 176.074 77.3738 175.844 77.3043C174.21 76.8376 172.391 77.1125 170.705 77.1509C169.006 77.1645 167.31 77.297 165.63 77.5472C165.452 77.6018 165.297 77.712 165.187 77.8616C165.076 78.0112 165.017 78.1922 165.017 78.3782C165.017 78.5642 165.076 78.7452 165.187 78.8948C165.297 79.0444 165.452 79.1546 165.63 79.2092Z" fill="#E0E0E0"/>
<path d="M118.56 172.614H91.7729V191.78H118.56V172.614Z" fill="#C25E54"/>
<path d="M96.6184 172.614H91.7729V191.78H96.6184V172.614Z" fill="#263238"/>
<path d="M151.362 172.614H124.574V191.78H151.362V172.614Z" fill="#C25E54"/>
<path d="M129.145 172.614H124.299V191.78H129.145V172.614Z" fill="#263238"/>
<path d="M184.169 172.614H157.382V191.78H184.169V172.614Z" fill="#C25E54"/>
<path d="M161.461 172.614H156.616V191.78H161.461V172.614Z" fill="#263238"/>
<path d="M184.169 198.114H157.382V217.279H184.169V198.114Z" fill="#C25E54"/>
<path d="M162.374 198.114H157.382V217.279H162.374V198.114Z" fill="#263238"/>
<path d="M118.56 198.114H91.7729V217.279H118.56V198.114Z" fill="#C25E54"/>
<path d="M96.6184 198.074H91.7729V217.239H96.6184V198.074Z" fill="#263238"/>
<path d="M118.56 223.356H91.7729V242.522H118.56V223.356Z" fill="#C25E54"/>
<path d="M118.56 223.356H91.7729V242.522H118.56V223.356Z" fill="#C25E54"/>
<path d="M96.6184 223.356H91.7729V242.522H96.6184V223.356Z" fill="#263238"/>
<path d="M151.215 198.114H124.427V217.279H151.215V198.114Z" fill="#C25E54"/>
<path d="M129.273 198.074H124.427V217.239H129.273V198.074Z" fill="#263238"/>
<path d="M151.362 223.356H124.574V242.522H151.362V223.356Z" fill="#C25E54"/>
<path d="M151.362 223.356H124.574V242.522H151.362V223.356Z" fill="#C25E54"/>
<path d="M129.42 223.356H124.574V242.522H129.42V223.356Z" fill="#263238"/>
<path d="M184.169 223.356H157.382V242.522H184.169V223.356Z" fill="#E0E0E0"/>
<path d="M162.227 223.356H157.382V242.522H162.227V223.356Z" fill="#263238"/>
<path d="M76.049 257.851C75.5894 257.851 73.9104 212.644 72.2952 156.88C70.68 101.115 69.7416 55.8502 70.2012 55.8374C70.6609 55.8246 72.3399 101.032 73.9551 156.809C75.5702 212.587 76.5087 257.839 76.049 257.851Z" fill="#455A64"/>
<path d="M184.035 150.746V154.191L194.633 156.83L194.575 151.519L184.035 150.746Z" fill="#455A64"/>
<path d="M55.3899 143.837C54.8098 143.607 54.1871 143.504 53.564 143.537C52.9368 143.595 52.3216 143.746 51.7382 143.984L44.4859 146.412L30.3133 151.18L3.50034 160.127C2.44238 160.429 1.53312 161.112 0.946721 162.044C0.365641 162.956 0.149099 164.053 0.340238 165.118C0.457519 165.645 0.611101 166.164 0.799888 166.671L1.317 168.217C1.66173 169.246 2.00009 170.262 2.34483 171.278C3.68973 175.321 5.00059 179.247 6.2774 183.056C8.83102 190.661 11.1803 197.755 13.3445 204.203C17.6474 217.131 21.1395 227.599 23.559 234.833C24.7592 238.45 25.6849 241.256 26.3233 243.141C26.6297 244.093 26.8723 244.815 27.0319 245.307C27.1915 245.799 27.2618 246.049 27.2618 246.049C27.3473 246.293 27.4563 246.528 27.5873 246.751C27.9555 247.417 28.4872 247.978 29.1323 248.381C29.655 248.705 30.2388 248.918 30.8474 249.006C31.456 249.094 32.0761 249.055 32.669 248.892C34.0608 248.445 35.6568 247.883 37.4635 247.282L64.1232 238.284L35.6887 149.39L49.9123 144.617L75.5954 223.394L74.4718 195.991C69.3007 180.57 63.7147 163.897 57.8733 146.495C57.6752 145.899 57.3507 145.353 56.9221 144.894C56.4934 144.435 55.9707 144.075 55.3899 143.837ZM22.6142 184.334L16.2684 164.229L18.4199 163.546L24.7656 183.65L22.6142 184.334ZM27.0192 173.259L23.3164 161.539L25.4678 160.862L29.1706 172.576L27.0192 173.259ZM31.9859 188.124L28.2896 176.404L30.441 175.726L34.1374 187.44L31.9859 188.124ZM33.2628 191.268L35.4142 190.584L45.6287 223.036L43.4772 223.713L33.2628 191.268ZM46.6693 233.727L44.4795 226.794L46.631 226.11L48.8207 233.05L46.6693 233.727ZM55.5239 230.046L53.3725 230.724L39.8575 187.907L42.0089 187.229L55.5239 230.046ZM40.9045 183.133L38.753 183.81L30.9134 158.995L33.0649 158.312L40.9045 183.133Z" fill="#00C802"/>
<path opacity="0.3" d="M55.3899 143.837C54.8098 143.607 54.1871 143.504 53.564 143.537C52.9368 143.595 52.3216 143.746 51.7382 143.984L44.4859 146.412L30.3133 151.18L3.50034 160.127C2.44238 160.429 1.53312 161.112 0.946721 162.044C0.365641 162.956 0.149099 164.053 0.340238 165.118C0.457519 165.645 0.611101 166.164 0.799888 166.671L1.317 168.217C1.66173 169.246 2.00009 170.262 2.34483 171.278C3.68973 175.321 5.00059 179.247 6.2774 183.056C8.83102 190.661 11.1803 197.755 13.3445 204.203C17.6474 217.131 21.1395 227.599 23.559 234.833C24.7592 238.45 25.6849 241.256 26.3233 243.141C26.6297 244.093 26.8723 244.815 27.0319 245.307C27.1915 245.799 27.2618 246.049 27.2618 246.049C27.3473 246.293 27.4563 246.528 27.5873 246.751C27.9555 247.417 28.4872 247.978 29.1323 248.381C29.655 248.705 30.2388 248.918 30.8474 249.006C31.456 249.094 32.0761 249.055 32.669 248.892C34.0608 248.445 35.6568 247.883 37.4635 247.282L64.1232 238.284L35.6887 149.39L49.9123 144.617L75.5954 223.394L74.4718 195.991C69.3007 180.57 63.7147 163.897 57.8733 146.495C57.6752 145.899 57.3507 145.353 56.9221 144.894C56.4934 144.435 55.9707 144.075 55.3899 143.837ZM22.6142 184.334L16.2684 164.229L18.4199 163.546L24.7656 183.65L22.6142 184.334ZM27.0192 173.259L23.3164 161.539L25.4678 160.862L29.1706 172.576L27.0192 173.259ZM31.9859 188.124L28.2896 176.404L30.441 175.726L34.1374 187.44L31.9859 188.124ZM33.2628 191.268L35.4142 190.584L45.6287 223.036L43.4772 223.713L33.2628 191.268ZM46.6693 233.727L44.4795 226.794L46.631 226.11L48.8207 233.05L46.6693 233.727ZM55.5239 230.046L53.3725 230.724L39.8575 187.907L42.0089 187.229L55.5239 230.046ZM40.9045 183.133L38.753 183.81L30.9134 158.995L33.0649 158.312L40.9045 183.133Z" fill="black"/>
<path d="M64.1424 238.406L64.1105 238.304L37.4507 247.302C35.644 247.902 34.048 248.465 32.6563 248.912C32.0634 249.075 31.4432 249.114 30.8347 249.026C30.2261 248.938 29.6422 248.725 29.1195 248.401C28.4745 247.998 27.9427 247.437 27.5746 246.771C27.3256 246.324 27.2682 246.062 27.249 246.068L27.3129 246.254C27.6475 247.161 28.2711 247.934 29.0876 248.452C29.614 248.79 30.2053 249.013 30.8233 249.108C31.4413 249.202 32.0723 249.166 32.6755 249.002C34.08 248.561 35.676 248.011 37.489 247.41L68.0878 237.185L75.3464 234.757L76.0487 234.399L64.1424 238.406Z" fill="#263238"/>
<path d="M27.0194 245.32C26.8598 244.828 26.6172 244.106 26.3108 243.154C25.6724 241.237 24.7467 238.438 23.5465 234.846C21.1397 227.612 17.6477 217.144 13.332 204.216C11.1678 197.755 8.80575 190.674 6.2649 183.069C4.98809 179.269 3.67723 175.343 2.33233 171.292C1.98759 170.275 1.64923 169.259 1.3045 168.23L0.787387 166.684C0.5986 166.177 0.445018 165.659 0.327737 165.131C0.145986 164.062 0.373994 162.965 0.966142 162.057C1.55255 161.125 2.4618 160.442 3.51976 160.14L30.3328 151.193L44.5053 146.438L51.7576 144.01C52.341 143.772 52.9562 143.621 53.5834 143.563C54.5266 143.513 55.4602 143.774 56.2409 144.306C57.0216 144.838 57.6064 145.612 57.9054 146.509C63.7341 163.91 69.3201 180.583 74.504 196.004L74.4593 194.969C69.3903 179.81 63.9128 163.463 58.2119 146.4C57.997 145.762 57.6467 145.178 57.185 144.688C56.7232 144.198 56.161 143.814 55.537 143.563C54.9151 143.313 54.2459 143.204 53.5771 143.243C52.9198 143.303 52.2747 143.458 51.6618 143.703L44.416 146.138L30.2434 150.893L3.43038 159.891C2.30875 160.199 1.34037 160.912 0.710779 161.891C0.0970334 162.866 -0.130659 164.035 0.0723743 165.169C0.193913 165.71 0.351746 166.241 0.544795 166.761C0.717164 167.278 0.895917 167.789 1.06829 168.307C1.40664 169.33 1.75138 170.352 2.08973 171.362C3.45166 175.409 4.76891 179.335 6.04146 183.14L13.1341 204.261L23.4316 234.859C24.6573 238.463 25.6022 241.25 26.247 243.167C26.5725 244.113 26.8215 244.835 26.9875 245.327L27.2493 246.062C27.2493 246.062 27.179 245.813 27.0194 245.32Z" fill="#263238"/>
<path d="M41.9867 187.241L39.8379 187.921L53.3557 230.734L55.5045 230.054L41.9867 187.241Z" fill="#FAFAFA"/>
<path d="M33.0629 158.312L30.9141 158.992L38.7542 183.823L40.903 183.143L33.0629 158.312Z" fill="#FAFAFA"/>
<path d="M25.4701 160.858L23.3213 161.538L27.0211 173.256L29.1699 172.576L25.4701 160.858Z" fill="#FAFAFA"/>
<path d="M18.0208 162.943L15.8779 163.62L22.2005 183.657L24.3433 182.979L18.0208 162.943Z" fill="#FAFAFA"/>
<path d="M46.6561 226.106L44.5073 226.786L46.6968 233.72L48.8456 233.04L46.6561 226.106Z" fill="#FAFAFA"/>
<path d="M30.4359 175.725L28.2871 176.405L31.9869 188.123L34.1357 187.443L30.4359 175.725Z" fill="#FAFAFA"/>
<path d="M35.389 190.603L33.2402 191.283L43.4854 223.731L45.6342 223.051L35.389 190.603Z" fill="#FAFAFA"/>
<path d="M35.689 149.39L64.1107 238.303L64.1427 238.405L76.0489 234.411L75.5956 223.381L49.9126 144.616L35.689 149.39Z" fill="#FAFAFA"/>
<path d="M63.9834 243.717L75.5258 239.652L75.2768 234.585L64.143 238.406L63.9834 243.717Z" fill="#263238"/>
<path d="M209.514 96.6114C209.514 96.7007 209.156 96.7582 208.709 96.739C208.262 96.7199 207.918 96.6305 207.924 96.5347C207.93 96.439 208.288 96.3879 208.728 96.4071C209.169 96.4262 209.52 96.5156 209.514 96.6114Z" fill="#263238"/>
<path d="M215.764 96.3431C215.273 96.5492 214.744 96.6472 214.213 96.6304C213.69 96.7274 213.152 96.7122 212.636 96.5857C213.65 96.2857 214.716 96.203 215.764 96.3431Z" fill="#263238"/>
<path d="M221.956 95.2363C221.496 95.5038 220.985 95.6713 220.456 95.7279C219.949 95.8882 219.415 95.9446 218.885 95.8939C219.852 95.466 220.899 95.2484 221.956 95.2555V95.2363Z" fill="#263238"/>
<path d="M227.925 93.3267C227.506 93.6514 227.023 93.8844 226.508 94.0106C226.029 94.2414 225.507 94.3678 224.976 94.3814C225.394 94.0542 225.877 93.8209 226.393 93.6974C226.874 93.4726 227.395 93.3465 227.925 93.3267Z" fill="#263238"/>
<path d="M233.588 90.6221C232.77 91.2929 231.823 91.7869 230.805 92.0731C231.18 91.6956 231.627 91.3977 232.12 91.1974C232.564 90.9057 233.064 90.7098 233.588 90.6221Z" fill="#263238"/>
<path d="M238.804 87.1388C238.861 87.2091 238.338 87.6822 237.629 88.1936C237.233 88.5476 236.768 88.8154 236.263 88.9798C236.212 88.9031 236.735 88.4301 237.437 87.9187C238.14 87.4073 238.746 87.0621 238.804 87.1388Z" fill="#263238"/>
<path d="M243.413 82.8841C243.483 82.948 243.037 83.5233 242.424 84.1114C241.811 84.6995 241.255 85.1725 241.198 85.1022C241.141 85.0319 241.575 84.4629 242.188 83.8748C242.8 83.2868 243.343 82.801 243.413 82.8841Z" fill="#263238"/>
<path d="M247.224 77.905C247.307 77.9497 246.962 78.5442 246.464 79.2857C245.966 80.0272 245.5 80.5642 245.43 80.4811C245.588 79.9725 245.847 79.5008 246.19 79.0939C246.688 78.3908 247.147 77.8538 247.224 77.905Z" fill="#263238"/>
<path d="M250.033 72.2947C249.816 73.3334 249.381 74.3139 248.756 75.1712C248.959 74.1281 249.396 73.1446 250.033 72.2947Z" fill="#263238"/>
<path d="M251.693 66.2498C251.74 66.779 251.677 67.3123 251.508 67.8159C251.446 68.3451 251.271 68.855 250.997 69.3117C251.009 68.2531 251.246 67.2093 251.693 66.2498Z" fill="#263238"/>
<path d="M252.331 60.0054C252.493 61.0515 252.426 62.1202 252.134 63.1376C252.004 62.6235 251.982 62.088 252.07 61.5651C252.051 61.0328 252.14 60.5023 252.331 60.0054Z" fill="#263238"/>
<path d="M252.019 53.7424C252.336 54.7521 252.429 55.8187 252.293 56.8683C252.089 56.3784 251.987 55.852 251.993 55.3213C251.896 54.7986 251.905 54.2617 252.019 53.7424Z" fill="#263238"/>
<path d="M250.748 47.5938C251.029 48.0457 251.213 48.5504 251.291 49.0768C251.471 49.578 251.545 50.1114 251.508 50.6429C251.228 50.1909 251.043 49.6862 250.965 49.1599C250.789 48.6577 250.715 48.1251 250.748 47.5938Z" fill="#263238"/>
<path d="M248.476 41.7473C248.829 42.1439 249.097 42.6097 249.261 43.1153C249.527 43.5777 249.691 44.0923 249.74 44.6238C249.389 44.2229 249.122 43.7556 248.954 43.2495C248.694 42.7869 248.531 42.2756 248.476 41.7473Z" fill="#263238"/>
<path d="M245.13 36.4371C245.201 36.3796 245.66 36.9102 246.165 37.6261C246.511 38.0287 246.769 38.4989 246.924 39.0068C246.848 39.058 246.382 38.521 245.89 37.8179C245.544 37.4153 245.285 36.9451 245.13 36.4371Z" fill="#263238"/>
<path d="M240.783 31.9385C240.84 31.8681 241.421 32.2517 242.06 32.8462C242.698 33.4407 243.132 34.0032 243.068 34.0671C243.004 34.131 242.468 33.6772 241.836 33.0891C241.204 32.501 240.725 32.0088 240.783 31.9385Z" fill="#263238"/>
<path d="M236.882 29.2405C236.927 29.1638 237.272 29.2852 237.648 29.5154C238.025 29.7455 238.287 29.9948 238.242 30.0715C238.197 30.1482 237.846 30.0267 237.476 29.803C237.106 29.5793 236.831 29.3236 236.882 29.2405Z" fill="#263238"/>
<path d="M219.364 45.2747C231.578 45.2747 241.479 35.3636 241.479 23.1376C241.479 10.9116 231.578 1.00049 219.364 1.00049C207.151 1.00049 197.25 10.9116 197.25 23.1376C197.25 35.3636 207.151 45.2747 219.364 45.2747Z" fill="#C25E54"/>
<path fill-rule="evenodd" clip-rule="evenodd" d="M222.072 23.1252L228.866 30.0933L226.241 32.9548L219.367 25.6895L212.025 32.6508L209.699 29.9988L216.842 23.0202L210.003 15.7922L212.652 13.4634L219.468 20.4543L226.312 13.7685L229.17 16.3956L222.072 23.1252Z" fill="white"/>
<path d="M232.471 119.406L229.215 107.462C229.215 107.462 213.893 111.456 212.916 110.216C207.356 103.334 204.547 93.8756 203.672 90.4822C203.793 89.9965 203.959 89.4277 204.183 88.7631C204.377 88.1943 204.666 87.6626 205.038 87.191C205.478 86.5902 205.998 86.0526 206.583 85.5933C206.742 85.5034 206.859 85.354 206.908 85.1778C206.957 85.0017 206.935 84.8133 206.845 84.6539C206.799 84.5648 206.733 84.4878 206.652 84.429C206.571 84.3701 206.478 84.3312 206.379 84.3152C205.741 84.2705 204.132 85.2419 202.925 87.0887C201.719 88.9356 201.355 85.4847 201.201 84.2321C201.048 82.9796 200.378 79.1196 199.957 78.8448C199.318 78.4678 198.814 79.0621 198.999 80.3147C199.184 81.5672 199.471 85.3633 198.807 85.4272C198.144 85.4911 197.441 79.0366 197.441 79.0366C197.441 79.0366 197.511 77.6434 196.739 77.6753C195.341 77.7329 196.599 84.4941 196.739 85.1396C196.835 85.5806 196.101 85.6636 196.037 85.1779C195.973 84.6923 195.475 78.7873 194.058 78.7873C192.966 78.8257 195.034 84.3599 194.454 85.6445C193.873 86.929 193.311 81.2861 192.27 81.3627C191.887 81.3627 191.6 81.465 192.391 84.6603C193.057 86.938 193.846 89.178 194.754 91.3705H194.696C194.696 91.3705 200.378 124.742 215.125 122.876C230.823 120.933 232.471 119.406 232.471 119.406Z" fill="#FFBE9D"/>
<path d="M210.222 152.516L116.651 145.697C115.383 145.609 114.201 145.021 113.364 144.063C112.527 143.105 112.102 141.855 112.183 140.585L116.37 83.0371C116.459 81.7674 117.046 80.5843 118.003 79.7462C118.96 78.908 120.209 78.4829 121.478 78.5637L215.125 85.3569C216.4 85.447 217.587 86.0402 218.425 87.0061C219.263 87.972 219.684 89.2315 219.594 90.5077L215.406 148.055C215.362 148.687 215.195 149.304 214.913 149.87C214.631 150.437 214.24 150.943 213.763 151.358C213.285 151.774 212.731 152.091 212.131 152.292C211.531 152.493 210.898 152.573 210.267 152.529L210.222 152.516Z" fill="#C25E54"/>
<path d="M210.222 152.516C210.51 152.516 210.79 152.516 211.078 152.516C211.915 152.426 212.713 152.112 213.389 151.608C213.934 151.203 214.387 150.687 214.717 150.093C215.047 149.499 215.247 148.841 215.304 148.164C215.419 146.541 215.553 144.668 215.7 142.566L218.253 106.925C218.522 103.163 218.805 99.2244 219.102 95.1088C219.179 94.0863 219.249 93.0447 219.326 92.003C219.505 90.9706 219.479 89.913 219.249 88.8908C218.96 87.8725 218.329 86.9853 217.462 86.3792C217.027 86.071 216.544 85.8377 216.032 85.6891C215.503 85.5678 214.965 85.4972 214.423 85.4782L186.199 83.4396L121.535 78.7041C120.843 78.6534 120.148 78.7586 119.502 79.0118C118.856 79.2651 118.274 79.66 117.8 80.1676C117.327 80.6721 116.973 81.2772 116.766 81.9378C116.587 82.6136 116.493 83.3091 116.485 84.0083C116.273 86.8458 116.06 89.6619 115.847 92.4567C115.421 98.0507 115.021 103.555 114.647 108.97C113.855 119.796 113.089 130.244 112.361 140.188C112.194 141.396 112.496 142.622 113.204 143.614C113.901 144.59 114.949 145.259 116.128 145.48C118.509 145.716 120.922 145.844 123.272 146.036L136.965 147.039L161.557 148.854L197.154 151.5L206.826 152.241L209.38 152.458L210.235 152.535C210.235 152.535 209.948 152.535 209.38 152.49L206.826 152.324L197.148 151.653L161.538 149.097L136.965 147.346L123.265 146.355C120.909 146.17 118.541 146.048 116.089 145.806C114.834 145.573 113.718 144.863 112.974 143.825C112.228 142.774 111.907 141.479 112.074 140.201C112.795 130.251 113.555 119.809 114.34 108.976C114.732 103.562 115.13 98.057 115.534 92.4631C115.738 89.664 115.951 86.8479 116.172 84.0147C116.184 83.2898 116.283 82.5689 116.466 81.8675C116.805 80.7996 117.493 79.877 118.419 79.2486C119.346 78.6201 120.457 78.3225 121.573 78.4037L186.237 83.1328L214.455 85.2034C215.014 85.2231 215.57 85.298 216.115 85.427C216.923 85.6606 217.66 86.0928 218.259 86.6844C218.858 87.276 219.299 88.0081 219.543 88.8141C219.697 89.3406 219.76 89.8896 219.728 90.4373C219.728 90.9741 219.658 91.4917 219.62 92.0222C219.543 93.0638 219.466 94.1055 219.39 95.128C219.088 99.2393 218.798 103.176 218.522 106.938C217.404 121.981 216.498 134.156 215.872 142.578C215.713 144.681 215.572 146.541 215.451 148.17C215.388 148.861 215.178 149.53 214.834 150.132C214.49 150.734 214.021 151.255 213.459 151.659C212.774 152.165 211.964 152.472 211.116 152.548C210.904 152.567 210.69 152.567 210.478 152.548L210.222 152.516Z" fill="#263238"/>
<path d="M122.767 121.783L122.352 127.534L121.765 127.49L122.141 122.281L120.794 122.185L120.833 121.661L122.767 121.783Z" fill="#FAFAFA"/>
<path d="M128.302 127.439L128.258 127.963L124.242 127.669V127.254L126.796 125.094C127.485 124.499 127.638 124.129 127.664 123.733C127.715 123.093 127.275 122.627 126.387 122.563C126.097 122.521 125.801 122.547 125.522 122.638C125.243 122.728 124.989 122.882 124.778 123.087L124.389 122.697C124.665 122.437 124.996 122.242 125.357 122.126C125.718 122.01 126.101 121.976 126.477 122.026C127.638 122.109 128.334 122.755 128.264 123.713C128.223 124.062 128.105 124.397 127.92 124.696C127.734 124.994 127.486 125.247 127.192 125.439L125.11 127.209L128.302 127.439Z" fill="#FAFAFA"/>
<path d="M134.38 126.896L133.237 126.812L133.122 128.321L132.535 128.276L132.643 126.768L129.413 126.538V126.11L132.726 122.531L133.365 122.576L130.173 126.065L132.663 126.25L132.758 124.921L133.333 124.959L133.237 126.288L134.38 126.372V126.896Z" fill="#FAFAFA"/>
<path d="M143.158 127.535L142.015 127.452L141.9 128.96L141.313 128.915L141.421 127.414L138.191 127.177V126.749L141.504 123.17L142.143 123.221L138.951 126.704L141.44 126.89L141.536 125.56L142.111 125.605L142.009 126.928L143.158 127.011V127.535Z" fill="#FAFAFA"/>
<path d="M148.176 127.722C148.106 128.7 147.371 129.409 145.973 129.307C145.218 129.28 144.501 128.962 143.975 128.418L144.294 127.977C144.74 128.455 145.354 128.739 146.005 128.77C146.976 128.84 147.525 128.399 147.576 127.703C147.627 127.006 147.205 126.476 145.75 126.367L144.531 126.277L145.035 123.427L148.169 123.657L148.131 124.181L145.514 123.99L145.182 125.798L145.922 125.856C147.646 125.977 148.252 126.706 148.176 127.722Z" fill="#FAFAFA"/>
<path d="M153.838 128.109C153.799 128.58 153.576 129.016 153.217 129.322C152.858 129.629 152.393 129.781 151.923 129.746H151.77C150.244 129.637 149.497 128.519 149.631 126.71C149.772 124.761 150.908 123.821 152.466 123.936C152.939 123.949 153.4 124.091 153.8 124.345L153.525 124.806C153.203 124.585 152.824 124.463 152.434 124.454C151.195 124.365 150.346 125.093 150.231 126.652V127.125C150.418 126.821 150.69 126.577 151.013 126.425C151.336 126.273 151.697 126.219 152.051 126.269C152.505 126.253 152.948 126.418 153.282 126.726C153.617 127.035 153.817 127.463 153.838 127.918C153.845 127.982 153.845 128.046 153.838 128.109ZM153.257 128.109C153.315 127.355 152.791 126.831 151.91 126.767C151.739 126.735 151.563 126.737 151.392 126.773C151.221 126.808 151.059 126.878 150.915 126.976C150.771 127.075 150.648 127.201 150.552 127.347C150.457 127.493 150.391 127.657 150.359 127.828C150.359 127.828 150.359 127.886 150.359 127.911C150.308 128.55 150.793 129.19 151.782 129.253C151.948 129.282 152.118 129.277 152.281 129.24C152.445 129.203 152.6 129.133 152.737 129.036C152.874 128.938 152.991 128.815 153.08 128.672C153.169 128.53 153.229 128.371 153.257 128.205C153.26 128.165 153.26 128.124 153.257 128.084V128.109Z" fill="#FAFAFA"/>
<path d="M161.671 128.749C161.601 129.708 160.854 130.391 159.469 130.289C158.711 130.263 157.993 129.945 157.464 129.401L157.784 128.96C158.235 129.436 158.852 129.72 159.507 129.752C160.458 129.816 161.014 129.414 161.065 128.704C161.116 127.995 160.663 127.528 159.603 127.426L159.194 127.394L159.226 126.96L160.956 125.087L158.026 124.876L158.064 124.352L161.748 124.621L161.716 125.036L159.948 126.953C161.173 127.139 161.735 127.829 161.671 128.749Z" fill="#FAFAFA"/>
<path d="M167.417 129.101C167.381 129.573 167.16 130.012 166.8 130.322C166.441 130.631 165.974 130.785 165.502 130.749C165.445 130.756 165.387 130.756 165.33 130.749C163.81 130.641 163.057 129.522 163.191 127.714C163.331 125.797 164.468 124.825 166.026 124.94C166.499 124.953 166.96 125.095 167.36 125.349L167.085 125.809C166.764 125.586 166.384 125.464 165.994 125.458C164.755 125.368 163.906 126.097 163.791 127.656V128.129C163.978 127.824 164.25 127.581 164.573 127.429C164.896 127.277 165.257 127.223 165.611 127.273C166.07 127.254 166.519 127.418 166.857 127.73C167.196 128.041 167.397 128.474 167.417 128.934C167.422 128.99 167.422 129.045 167.417 129.101ZM166.836 129.101C166.894 128.347 166.37 127.822 165.489 127.759C165.318 127.726 165.142 127.728 164.971 127.764C164.8 127.8 164.638 127.869 164.494 127.967C164.35 128.066 164.227 128.192 164.131 128.338C164.036 128.484 163.97 128.648 163.938 128.819C163.938 128.819 163.938 128.877 163.938 128.902C163.887 129.542 164.372 130.181 165.362 130.245C165.527 130.273 165.697 130.268 165.861 130.231C166.024 130.194 166.179 130.124 166.316 130.027C166.453 129.93 166.57 129.806 166.659 129.664C166.748 129.521 166.808 129.362 166.836 129.196C166.839 129.156 166.839 129.115 166.836 129.075V129.101Z" fill="#FAFAFA"/>
<path d="M172.99 125.464L172.959 125.879L170.175 130.992L169.537 130.947L172.275 125.911L169.332 125.694L169.249 126.768L168.668 126.729L168.79 125.132L172.99 125.464Z" fill="#FAFAFA"/>
<path d="M181.168 126.059L181.137 126.481L178.353 131.594L177.715 131.549L180.447 126.513L177.504 126.296L177.427 127.369L176.846 127.325L176.961 125.727L181.168 126.059Z" fill="#FAFAFA"/>
<path d="M186.499 130.609C186.429 131.625 185.522 132.187 184.156 132.092C182.79 131.996 181.992 131.299 182.069 130.283C182.09 129.958 182.221 129.649 182.44 129.408C182.659 129.166 182.954 129.006 183.275 128.954C183.014 128.853 182.793 128.669 182.646 128.43C182.5 128.191 182.436 127.91 182.464 127.631C182.535 126.698 183.371 126.174 184.584 126.257C185.797 126.34 186.563 126.992 186.499 127.925C186.486 128.207 186.379 128.476 186.197 128.691C186.014 128.906 185.766 129.055 185.49 129.113C185.802 129.212 186.072 129.414 186.255 129.685C186.438 129.957 186.524 130.282 186.499 130.609ZM185.899 130.558C185.95 129.848 185.375 129.363 184.36 129.28C183.345 129.197 182.72 129.599 182.669 130.309C182.618 131.018 183.179 131.504 184.194 131.587C185.209 131.67 185.848 131.267 185.899 130.558ZM184.392 128.813C185.286 128.877 185.848 128.513 185.893 127.893C185.937 127.273 185.401 126.806 184.546 126.749C183.69 126.691 183.103 127.037 183.058 127.676C183.013 128.315 183.505 128.756 184.392 128.813Z" fill="#FAFAFA"/>
<path d="M192.143 129.695C192.002 131.644 190.866 132.583 189.308 132.468C188.836 132.449 188.376 132.308 187.974 132.059L188.242 131.599C188.567 131.819 188.948 131.941 189.34 131.951C190.572 132.04 191.421 131.312 191.536 129.746V129.279C191.349 129.585 191.076 129.829 190.752 129.982C190.427 130.134 190.065 130.187 189.71 130.136C189.251 130.155 188.802 129.991 188.464 129.679C188.125 129.368 187.924 128.934 187.904 128.474C187.897 128.408 187.897 128.342 187.904 128.276C187.944 127.806 188.168 127.371 188.526 127.065C188.885 126.759 189.349 126.606 189.819 126.64H189.966C191.543 126.768 192.29 127.886 192.143 129.695ZM191.415 128.493C191.46 127.854 190.981 127.215 189.991 127.158C189.658 127.1 189.315 127.178 189.039 127.373C188.762 127.568 188.574 127.866 188.517 128.199C188.514 128.233 188.514 128.268 188.517 128.302C188.459 129.056 188.983 129.58 189.864 129.644C190.208 129.713 190.566 129.644 190.859 129.45C191.153 129.256 191.357 128.953 191.428 128.608V128.493H191.415Z" fill="#FAFAFA"/>
<path d="M164.459 134.883L164.278 137.376L210.154 140.716L210.335 138.223L164.459 134.883Z" fill="#FAFAFA"/>
<path d="M186.452 141.486L186.271 143.979L209.798 145.692L209.979 143.199L186.452 141.486Z" fill="#FAFAFA"/>
<path d="M120.426 105.4L119.839 113.469C119.711 115.215 121.022 116.734 122.766 116.861L135.698 117.805C137.442 117.932 138.959 116.62 139.087 114.874L139.674 106.805C139.801 105.059 138.491 103.54 136.746 103.413L123.815 102.469C122.071 102.342 120.554 103.654 120.426 105.4Z" fill="#455A64"/>
<path d="M119.907 112.638L119.977 111.718L129.885 112.44C130.158 112.468 130.432 112.443 130.695 112.364C130.957 112.286 131.201 112.157 131.413 111.984C131.625 111.812 131.801 111.599 131.931 111.358C132.061 111.117 132.143 110.853 132.171 110.581C132.199 110.308 132.173 110.033 132.095 109.771C132.017 109.508 131.888 109.264 131.715 109.052C131.543 108.839 131.33 108.663 131.09 108.533C130.849 108.402 130.585 108.321 130.313 108.293H130.217L120.309 107.571L120.373 106.644L130.288 107.366C131.063 107.449 131.776 107.83 132.276 108.429C132.776 109.028 133.024 109.798 132.968 110.577C132.912 111.355 132.555 112.081 131.974 112.602C131.393 113.123 130.633 113.397 129.854 113.367L119.907 112.638Z" fill="#C25E54"/>
<path d="M132.603 110.074L132.535 110.998L139.335 111.501L139.403 110.576L132.603 110.074Z" fill="#C25E54"/>
<path d="M123.793 90.5434L123.483 94.7947L172.988 98.4077L173.298 94.1565L123.793 90.5434Z" fill="#FAFAFA"/>
<path d="M238.414 79.3498C237.093 81.5546 237.227 84.3217 237.597 86.8716C237.967 89.4214 238.542 92.0224 237.974 94.5403C237.597 96.1955 236.697 97.8507 237.131 99.4931C237.418 100.663 238.293 101.583 238.727 102.688C239.365 104.286 239.001 106.063 238.791 107.763C238.58 109.462 238.593 111.36 239.716 112.645C241.114 114.243 243.687 114.172 245.602 113.284C247.518 112.396 249.037 110.817 250.812 109.661C252.587 108.504 254.898 107.743 256.806 108.664C257.687 109.085 258.447 109.839 259.418 109.942C260.777 110.044 261.85 108.798 263.165 108.434C264.295 108.127 265.502 108.504 266.663 108.37C269.032 108.108 270.781 105.551 270.449 103.193C270.228 102.015 269.647 100.935 268.787 100.101C267.928 99.2669 266.831 98.7197 265.648 98.5345C264.646 98.3683 263.44 98.3427 262.89 97.4864C262.073 96.2083 263.529 94.6042 263.254 93.128C263.076 92.0672 262.067 91.3578 261.077 90.9232C260.088 90.4887 258.996 90.2011 258.23 89.447C256.858 88.105 257.011 85.9066 256.589 84.0278C255.894 80.9347 253.002 74.6016 246.707 73.9817" fill="#263238"/>
<path d="M235.497 255.347L235.618 250.835L244.064 251.008L243.956 257.609H243.432C241.102 257.692 231.564 257.865 230.026 257.36C228.289 256.817 235.497 255.347 235.497 255.347Z" fill="#C25E54"/>
<path d="M240.898 257.476C241.038 256.767 241.433 256.135 242.009 255.699C242.575 255.265 243.284 255.06 243.994 255.124L243.949 257.482L240.898 257.476Z" fill="#C25E54"/>
<path d="M231.973 256.184C231.973 256.184 229.419 256.861 229.751 257.283C230.083 257.705 239.697 257.922 243.955 257.603V257.417L232.713 257.289C232.713 257.289 232.464 256.216 231.973 256.184Z" fill="#C25E54"/>
<path d="M244.077 257.411H243.515L241.983 257.449H236.914C234.935 257.449 233.141 257.341 231.845 257.271L230.313 257.175L229.898 257.143H230.313L231.851 257.2C233.128 257.251 234.935 257.315 236.914 257.354C238.893 257.392 240.681 257.398 241.977 257.392H244.077V257.411Z" fill="#263238"/>
<path d="M232.701 257.425C232.638 257.169 232.546 256.92 232.426 256.684C232.279 256.465 232.107 256.264 231.915 256.083C232.166 256.201 232.376 256.393 232.516 256.632C232.656 256.872 232.72 257.148 232.701 257.425Z" fill="#263238"/>
<path d="M235.216 256.203C235.117 256.104 235.029 255.995 234.954 255.877C234.833 255.686 234.756 255.507 234.782 255.494C234.807 255.481 234.922 255.628 235.044 255.82C235.165 256.011 235.241 256.19 235.216 256.203Z" fill="#263238"/>
<path d="M235.905 255.858C235.799 255.803 235.7 255.734 235.612 255.654C235.465 255.52 235.369 255.392 235.388 255.373C235.407 255.354 235.541 255.443 235.682 255.577C235.822 255.711 235.924 255.839 235.905 255.858Z" fill="#263238"/>
<path d="M236.352 255.066C236.352 255.098 236.154 255.117 235.912 255.117C235.669 255.117 235.471 255.117 235.471 255.06C235.612 255.01 235.763 254.995 235.912 255.015C236.06 255 236.211 255.018 236.352 255.066Z" fill="#263238"/>
<path d="M236.512 254.511C236.366 254.605 236.194 254.652 236.02 254.645C235.848 254.672 235.671 254.643 235.516 254.562C235.682 254.549 235.848 254.549 236.014 254.562C236.177 254.523 236.344 254.506 236.512 254.511Z" fill="#263238"/>
<path d="M234.916 255.462C234.736 255.494 234.553 255.494 234.373 255.462C234.178 255.431 233.986 255.384 233.799 255.321C233.686 255.285 233.577 255.238 233.473 255.18C233.41 255.14 233.362 255.079 233.339 255.008C233.332 254.967 233.337 254.925 233.353 254.886C233.369 254.848 233.395 254.815 233.428 254.79C233.638 254.694 233.875 254.674 234.098 254.732C234.321 254.79 234.518 254.924 234.654 255.11C234.737 255.217 234.794 255.342 234.82 255.474V255.621C234.77 255.453 234.69 255.295 234.584 255.155C234.464 255.009 234.304 254.9 234.124 254.842C234.021 254.804 233.911 254.788 233.802 254.793C233.692 254.799 233.585 254.826 233.486 254.874C233.396 254.938 233.428 255.04 233.524 255.097C233.621 255.148 233.721 255.193 233.824 255.232C234.004 255.301 234.19 255.355 234.379 255.391C234.559 255.405 234.738 255.429 234.916 255.462Z" fill="#263238"/>
<path d="M234.801 255.488C234.737 255.373 234.718 255.238 234.75 255.11C234.768 254.964 234.826 254.825 234.916 254.708C234.962 254.626 235.029 254.559 235.11 254.511C235.19 254.464 235.282 254.439 235.376 254.439C235.428 254.455 235.474 254.49 235.503 254.537C235.532 254.584 235.544 254.64 235.535 254.695C235.519 254.779 235.487 254.86 235.439 254.931C235.366 255.051 235.278 255.16 235.178 255.257C235.09 255.354 234.98 255.428 234.858 255.475C234.954 255.391 235.043 255.302 235.127 255.206C235.216 255.109 235.293 255.002 235.356 254.887C235.433 254.772 235.49 254.567 235.356 254.541C235.222 254.516 235.075 254.657 234.992 254.765C234.911 254.868 234.857 254.988 234.833 255.117C234.813 255.239 234.802 255.363 234.801 255.488Z" fill="#263238"/>
<path d="M243.949 255.099C243.737 255.078 243.523 255.078 243.311 255.099C242.811 255.144 242.335 255.329 241.937 255.635C241.539 255.941 241.236 256.353 241.063 256.825C240.929 257.183 240.91 257.426 240.891 257.426C240.885 257.368 240.885 257.311 240.891 257.253C240.968 256.658 241.253 256.108 241.694 255.702C242.135 255.295 242.705 255.057 243.304 255.029C243.457 255.016 243.611 255.016 243.764 255.029C243.828 255.044 243.89 255.068 243.949 255.099Z" fill="#263238"/>
<path d="M243.145 251.564C243.196 252.143 243.209 252.723 243.183 253.303C243.197 253.881 243.176 254.46 243.119 255.035C243.051 253.879 243.051 252.72 243.119 251.564H243.145Z" fill="#263238"/>
<path d="M239.851 256.626C239.444 256.715 239.027 256.748 238.612 256.722C238.198 256.733 237.784 256.692 237.38 256.6C237.38 256.6 237.935 256.6 238.618 256.6C239.301 256.6 239.844 256.626 239.851 256.626Z" fill="#263238"/>
<path d="M241.504 256.664C241.472 256.745 241.436 256.824 241.395 256.901C241.332 257.022 241.306 257.143 241.274 257.137C241.242 257.131 241.236 257.003 241.306 256.862C241.376 256.722 241.485 256.626 241.504 256.664Z" fill="#263238"/>
<path d="M242.143 255.897C242.114 255.969 242.071 256.035 242.015 256.089C241.925 256.172 241.842 256.229 241.823 256.21C241.804 256.191 241.855 256.101 241.945 256.018C242.034 255.935 242.123 255.878 242.143 255.897Z" fill="#263238"/>
<path d="M243.042 255.558C243.042 255.59 242.921 255.559 242.8 255.629C242.679 255.699 242.583 255.731 242.564 255.712C242.544 255.693 242.615 255.578 242.768 255.527C242.921 255.476 243.049 255.533 243.042 255.558Z" fill="#263238"/>
<path d="M243.681 255.405C243.656 255.448 243.618 255.481 243.573 255.501C243.525 255.515 243.474 255.515 243.426 255.501C243.449 255.456 243.487 255.422 243.534 255.405C243.605 255.379 243.668 255.379 243.681 255.405Z" fill="#263238"/>
<path d="M259.456 255.347L259.577 250.835L268.017 251.008L267.909 257.609H267.385C265.055 257.692 255.524 257.865 253.979 257.36C252.249 256.817 259.456 255.347 259.456 255.347Z" fill="#C25E54"/>
<path d="M264.851 257.477C264.991 256.767 265.389 256.134 265.968 255.7C266.533 255.263 267.243 255.057 267.953 255.125L267.902 257.483L264.851 257.477Z" fill="#C25E54"/>
<path d="M255.932 256.184C255.932 256.184 253.378 256.861 253.704 257.283C254.03 257.705 263.65 257.922 267.908 257.603V257.417L256.66 257.289C256.66 257.289 256.424 256.216 255.932 256.184Z" fill="#C25E54"/>
<path d="M268.036 257.411H267.474L265.936 257.449H260.867C258.888 257.449 257.094 257.341 255.804 257.271L254.266 257.175L253.851 257.143H254.272L255.804 257.2C257.081 257.251 258.888 257.315 260.867 257.354C262.846 257.392 264.64 257.398 265.936 257.392H268.036V257.411Z" fill="#263238"/>
<path d="M256.653 257.425C256.593 257.169 256.503 256.92 256.385 256.684C256.238 256.465 256.067 256.264 255.875 256.083C256.125 256.201 256.333 256.393 256.473 256.633C256.612 256.873 256.675 257.149 256.653 257.425Z" fill="#263238"/>
<path d="M259.175 256.203C259.077 256.105 258.991 255.996 258.92 255.877C258.805 255.686 258.722 255.507 258.747 255.494C258.773 255.481 258.888 255.628 259.003 255.82C259.077 255.939 259.135 256.068 259.175 256.203Z" fill="#263238"/>
<path d="M259.865 255.858C259.757 255.805 259.658 255.736 259.571 255.654C259.431 255.52 259.328 255.392 259.348 255.373C259.367 255.354 259.494 255.443 259.641 255.577C259.788 255.711 259.884 255.839 259.865 255.858Z" fill="#263238"/>
<path d="M260.312 255.066C260.312 255.098 260.114 255.117 259.871 255.117C259.629 255.117 259.431 255.117 259.431 255.06C259.572 255.01 259.723 254.995 259.871 255.015C260.02 255 260.17 255.018 260.312 255.066Z" fill="#263238"/>
<path d="M260.452 254.511C260.302 254.602 260.129 254.649 259.954 254.645C259.781 254.672 259.604 254.643 259.45 254.562C259.615 254.549 259.782 254.549 259.948 254.562C260.113 254.523 260.282 254.505 260.452 254.511Z" fill="#263238"/>
<path d="M258.901 255.462C258.721 255.494 258.538 255.494 258.358 255.462C258.163 255.431 257.971 255.384 257.784 255.321C257.668 255.287 257.556 255.24 257.452 255.18C257.388 255.142 257.343 255.08 257.324 255.008C257.317 254.967 257.321 254.926 257.336 254.888C257.351 254.85 257.375 254.816 257.407 254.79C257.617 254.694 257.853 254.674 258.077 254.732C258.3 254.79 258.496 254.924 258.633 255.11C258.715 255.218 258.774 255.342 258.805 255.474C258.818 255.523 258.818 255.573 258.805 255.621C258.753 255.453 258.67 255.295 258.562 255.155C258.446 255.007 258.288 254.898 258.109 254.842C257.9 254.769 257.671 254.78 257.471 254.874C257.388 254.938 257.42 255.04 257.509 255.097C257.605 255.155 257.708 255.2 257.815 255.232C257.996 255.301 258.181 255.355 258.371 255.391C258.69 255.443 258.901 255.442 258.901 255.462Z" fill="#263238"/>
<path d="M258.76 255.488C258.694 255.374 258.673 255.239 258.703 255.111C258.723 254.968 258.778 254.832 258.862 254.715C258.91 254.636 258.976 254.57 259.055 254.523C259.134 254.476 259.224 254.45 259.315 254.446C259.37 254.46 259.418 254.494 259.449 254.541C259.479 254.589 259.491 254.646 259.481 254.702C259.466 254.787 259.431 254.869 259.379 254.938C259.308 255.059 259.22 255.169 259.118 255.264C259.033 255.362 258.925 255.436 258.805 255.482C258.897 255.397 258.984 255.307 259.066 255.213C259.156 255.115 259.235 255.008 259.303 254.894C259.379 254.778 259.43 254.574 259.303 254.548C259.175 254.523 259.028 254.663 258.939 254.772C258.864 254.878 258.81 254.997 258.779 255.124C258.76 255.244 258.754 255.366 258.76 255.488Z" fill="#263238"/>
<path d="M267.908 255.099C267.696 255.079 267.482 255.079 267.27 255.099C266.771 255.144 266.295 255.331 265.897 255.636C265.499 255.942 265.196 256.354 265.023 256.825C264.889 257.183 264.87 257.426 264.85 257.426C264.838 257.369 264.838 257.31 264.85 257.253C264.869 257.099 264.903 256.947 264.953 256.799C265.112 256.305 265.417 255.87 265.829 255.554C266.241 255.238 266.739 255.054 267.257 255.029C267.412 255.016 267.568 255.016 267.723 255.029C267.789 255.04 267.852 255.063 267.908 255.099Z" fill="#263238"/>
<path d="M267.104 251.564C267.172 252.72 267.172 253.879 267.104 255.035C267.053 254.46 267.04 253.881 267.066 253.303C267.043 252.723 267.056 252.143 267.104 251.564Z" fill="#263238"/>
<path d="M263.804 256.626C263.399 256.715 262.985 256.748 262.571 256.722C262.157 256.736 261.743 256.695 261.339 256.6C261.339 256.6 261.895 256.6 262.571 256.6C263.248 256.6 263.804 256.626 263.804 256.626Z" fill="#263238"/>
<path d="M265.457 256.664C265.457 256.664 265.412 256.779 265.355 256.901C265.297 257.022 265.259 257.143 265.234 257.137C265.208 257.131 265.195 257.003 265.234 256.862C265.272 256.722 265.444 256.626 265.457 256.664Z" fill="#263238"/>
<path d="M266.102 255.897C266.074 255.969 266.03 256.035 265.974 256.089C265.885 256.172 265.795 256.229 265.776 256.21C265.757 256.191 265.814 256.101 265.904 256.018C265.993 255.935 266.076 255.878 266.102 255.897Z" fill="#263238"/>
<path d="M266.996 255.558C266.996 255.59 266.881 255.559 266.753 255.629C266.625 255.699 266.542 255.731 266.517 255.712C266.491 255.693 266.568 255.578 266.721 255.527C266.874 255.476 267.008 255.533 266.996 255.558Z" fill="#263238"/>
<path d="M267.634 255.405C267.609 255.448 267.571 255.481 267.525 255.501C267.477 255.515 267.426 255.515 267.378 255.501C267.378 255.501 267.423 255.43 267.493 255.405C267.564 255.379 267.627 255.379 267.634 255.405Z" fill="#263238"/>
<path d="M233.792 139.389L229.745 199.787V254.254H245.922C245.922 254.254 246.605 207.283 246.177 204.21C246.177 204.21 248.82 157.162 249.12 157.833C249.759 159.207 249.72 199.199 250.627 204.152C251.533 209.105 255.734 254.254 255.734 254.254H271.305L266.07 202.49C265.961 196.253 264.359 141.479 264.359 141.479L233.792 139.389Z" fill="#263238"/>
<path d="M270.954 251.161C270.778 251.287 270.569 251.36 270.353 251.372C269.769 251.424 269.18 251.327 268.642 251.091C267.896 250.721 267.11 250.438 266.3 250.247C265.387 250.113 264.435 250.592 263.529 251.199C262.695 251.858 261.717 252.31 260.675 252.516C259.811 252.598 258.94 252.491 258.122 252.203C257.577 252.022 257.044 251.809 256.526 251.564C256.329 251.488 256.146 251.383 255.983 251.25C255.983 251.193 256.819 251.583 258.185 251.992C258.979 252.234 259.813 252.312 260.637 252.222C261.628 252.013 262.557 251.575 263.35 250.944C263.804 250.637 264.287 250.375 264.793 250.164C265.283 249.97 265.815 249.904 266.338 249.972C267.177 250.168 267.988 250.471 268.751 250.873C269.253 251.114 269.803 251.239 270.36 251.238C270.736 251.225 270.941 251.129 270.954 251.161Z" fill="#455A64"/>
<path d="M246.056 250.784C245.896 250.633 245.725 250.494 245.545 250.368C245.027 250.078 244.421 249.987 243.841 250.113C242.98 250.356 242.174 250.762 241.466 251.308C241.012 251.615 240.528 251.876 240.023 252.088C239.46 252.32 238.844 252.393 238.242 252.299C237.016 252.088 236.046 251.449 235.05 251.231C234.182 251.045 233.281 251.085 232.432 251.346C230.964 251.787 230.102 252.241 230.077 252.177C230.256 252.037 230.454 251.921 230.664 251.832C231.212 251.549 231.782 251.31 232.369 251.116C233.253 250.81 234.203 250.746 235.12 250.931C236.161 251.155 237.144 251.787 238.267 251.973C239.391 252.158 240.419 251.577 241.268 251.046C242.013 250.494 242.862 250.098 243.764 249.883C244.398 249.767 245.053 249.903 245.59 250.26C245.799 250.378 245.962 250.563 246.056 250.784Z" fill="#455A64"/>
<path d="M263.267 151.915C262.985 152.101 262.659 152.211 262.322 152.235C261.519 152.355 260.698 152.304 259.916 152.083C259.134 151.863 258.407 151.479 257.783 150.956C257.311 150.554 257.1 150.228 257.145 150.202C257.973 150.931 258.955 151.463 260.018 151.756C261.081 152.05 262.196 152.097 263.28 151.896L263.267 151.915Z" fill="#455A64"/>
<path d="M236.41 149.557C236.448 149.557 236.448 149.883 236.282 150.356C236.057 150.975 235.682 151.528 235.19 151.967C234.696 152.403 234.105 152.714 233.467 152.874C232.975 152.983 232.662 152.945 232.662 152.906C233.519 152.712 234.313 152.302 234.968 151.716C235.624 151.13 236.12 150.387 236.41 149.557Z" fill="#455A64"/>
<path d="M198.175 127.3L197.754 133.051L197.167 133.013L197.543 127.805L196.196 127.702L196.235 127.178L198.175 127.3Z" fill="#FAFAFA"/>
<path d="M203.685 132.935L203.647 133.459L199.631 133.172V132.75L202.185 130.59C202.874 130.002 203.027 129.625 203.059 129.229C203.104 128.589 202.67 128.123 201.783 128.059C201.492 128.021 201.197 128.048 200.919 128.139C200.641 128.23 200.386 128.381 200.174 128.583L199.803 128.174C200.08 127.914 200.411 127.719 200.772 127.603C201.133 127.487 201.515 127.453 201.891 127.503C203.053 127.586 203.749 128.232 203.679 129.19C203.64 129.74 203.43 130.219 202.606 130.916L200.525 132.692L203.685 132.935Z" fill="#FAFAFA"/>
<path d="M208.901 132.194C208.831 133.147 208.084 133.837 206.705 133.735C205.945 133.709 205.225 133.391 204.694 132.846L205.013 132.399C205.235 132.638 205.502 132.832 205.799 132.968C206.096 133.104 206.417 133.18 206.743 133.191C207.688 133.262 208.243 132.859 208.301 132.15C208.358 131.44 207.899 130.974 206.833 130.872H206.424L206.456 130.437L208.192 128.565L205.262 128.354L205.3 127.83L208.978 128.098V128.513L207.209 130.431C208.403 130.584 208.971 131.274 208.901 132.194Z" fill="#FAFAFA"/>
<path d="M239.065 75.9753C238.495 76.556 238.056 77.2524 237.777 78.0174C237.498 78.7825 237.387 79.5985 237.45 80.4104C237.592 82.0345 238.119 83.6012 238.989 84.9797" fill="#263238"/>
<path d="M253.002 100.956L253.87 80.9337L245.845 74.8499L238.555 78.4158C238.555 78.4158 238.312 87.58 238.555 91.5549C238.797 95.5299 242.8 95.9517 242.8 95.9517C242.8 95.9517 242.685 98.1437 242.557 100.425C242.487 101.796 242.956 103.14 243.865 104.169C244.773 105.198 246.048 105.829 247.416 105.927C248.799 106.024 250.164 105.567 251.21 104.656C252.257 103.745 252.899 102.455 252.995 101.071C252.995 101.032 253.002 100.994 253.002 100.956Z" fill="#FFBE9D"/>
<path d="M239.857 85.1025C239.857 85.2036 239.887 85.3025 239.943 85.3866C239.999 85.4706 240.079 85.5362 240.172 85.5749C240.266 85.6136 240.368 85.6237 240.467 85.604C240.566 85.5843 240.657 85.5356 240.729 85.464C240.8 85.3925 240.849 85.3014 240.869 85.2022C240.888 85.103 240.878 85.0002 240.84 84.9067C240.801 84.8133 240.735 84.7334 240.651 84.6772C240.567 84.6211 240.469 84.5911 240.368 84.5911C240.301 84.5911 240.234 84.6043 240.172 84.63C240.11 84.6557 240.054 84.6934 240.007 84.7408C239.959 84.7883 239.921 84.8447 239.896 84.9067C239.87 84.9688 239.857 85.0353 239.857 85.1025Z" fill="#263238"/>
<path d="M238.861 84.5443C238.925 84.6082 239.302 84.289 239.844 84.257C240.387 84.2251 240.802 84.4933 240.859 84.423C240.917 84.3528 240.821 84.2698 240.642 84.1421C240.4 83.9845 240.113 83.9105 239.825 83.9315C239.538 83.945 239.263 84.0552 239.046 84.2443C238.88 84.3847 238.829 84.5124 238.861 84.5443Z" fill="#263238"/>
<path d="M245.769 85.101C245.769 85.2349 245.822 85.3634 245.916 85.4581C246.011 85.5528 246.139 85.606 246.273 85.606C246.374 85.6072 246.473 85.5785 246.558 85.5233C246.642 85.4682 246.709 85.3892 246.749 85.2962C246.788 85.2033 246.8 85.1006 246.781 85.0011C246.763 84.9017 246.715 84.81 246.645 84.7376C246.574 84.6652 246.484 84.6153 246.385 84.5944C246.286 84.5734 246.184 84.5822 246.09 84.6198C245.996 84.6573 245.915 84.7218 245.858 84.8052C245.801 84.8886 245.77 84.9871 245.769 85.0882V85.101Z" fill="#263238"/>
<path d="M244.926 84.5446C244.99 84.6084 245.367 84.2892 245.909 84.2573C246.452 84.2254 246.867 84.4935 246.924 84.4233C246.982 84.3531 246.886 84.2701 246.707 84.1424C246.464 83.9871 246.177 83.9133 245.889 83.9317C245.601 83.9501 245.326 84.0596 245.105 84.2445C244.945 84.385 244.894 84.5127 244.926 84.5446Z" fill="#263238"/>
<path d="M244.754 89.6904C243.918 90.1128 243.029 90.4182 242.111 90.5981C242.313 90.8727 242.601 91.0724 242.929 91.1661C243.257 91.2597 243.607 91.2421 243.924 91.1159C244.068 91.0842 244.204 91.0242 244.325 90.9394C244.446 90.8546 244.549 90.7467 244.628 90.6219C244.707 90.4971 244.76 90.3579 244.785 90.2123C244.81 90.0666 244.806 89.9175 244.773 89.7735L244.754 89.6904Z" fill="#FAFAFA"/>
<path d="M242.8 95.9528C244.687 95.8745 246.512 95.258 248.06 94.1758C248.06 94.1758 246.867 97.0971 242.889 96.9309L242.8 95.9528Z" fill="#EB996E"/>
<path d="M242.947 89.1908C242.654 89.1195 242.354 89.0831 242.053 89.0821C241.913 89.0821 241.779 89.0822 241.747 88.9543C241.729 88.8003 241.758 88.6445 241.83 88.507C241.945 88.1491 242.072 87.7721 242.2 87.3759C242.462 86.5642 242.685 85.8357 242.838 85.2989C242.946 85.0158 243.012 84.7189 243.036 84.417C242.89 84.6798 242.774 84.9586 242.692 85.2478C242.5 85.7718 242.251 86.5259 241.989 87.3056C241.868 87.7082 241.747 88.0852 241.632 88.4495C241.555 88.6287 241.537 88.8281 241.581 89.0182C241.6 89.0675 241.631 89.1112 241.671 89.1457C241.711 89.1802 241.759 89.2045 241.811 89.2163C241.889 89.2291 241.969 89.2291 242.047 89.2163C242.347 89.2494 242.65 89.2408 242.947 89.1908Z" fill="#263238"/>
<path d="M253.283 88.0543C253.22 87.3922 253.294 86.7242 253.5 86.0919C253.603 85.7761 253.79 85.4945 254.041 85.2771C254.291 85.0597 254.597 84.9149 254.924 84.8582C255.302 84.838 255.675 84.9568 255.972 85.1921C256.269 85.4274 256.471 85.7632 256.539 86.1366C256.586 86.5181 256.517 86.9049 256.342 87.2469C256.166 87.5888 255.892 87.8701 255.556 88.0543C255.215 88.2289 254.84 88.3247 254.458 88.3347C254.075 88.3446 253.696 88.2685 253.347 88.1118" fill="#FFBE9D"/>
<path d="M254.445 87.4722C254.445 87.4275 254.655 87.5298 254.936 87.4403C255.111 87.3799 255.263 87.2659 255.369 87.1144C255.476 86.963 255.532 86.7818 255.53 86.5965C255.547 86.5032 255.544 86.4071 255.519 86.3154C255.495 86.2236 255.451 86.1384 255.389 86.0659C255.265 85.9717 255.111 85.9262 254.955 85.9381C254.662 85.9381 254.451 86.0404 254.432 85.9956C254.413 85.9509 254.566 85.8103 254.923 85.708C255.033 85.6823 255.146 85.6805 255.256 85.7025C255.367 85.7246 255.471 85.77 255.562 85.8358C255.666 85.936 255.745 86.0595 255.793 86.1961C255.841 86.3327 255.855 86.4786 255.836 86.6221C255.82 86.8943 255.717 87.1541 255.543 87.3636C255.391 87.5344 255.182 87.6436 254.955 87.6704C254.591 87.7088 254.406 87.4978 254.445 87.4722Z" fill="#EB996E"/>
<path d="M238.612 76.365C236.85 78.557 239.2 79.9374 240.368 80.8385C241.268 81.5414 243.924 83.3947 246.254 82.5192C245.43 81.4136 244.492 80.9279 244.128 79.8735C245.079 81.2155 246.082 82.2316 247.716 82.4297C247.39 81.4775 246.931 79.5412 247.282 79.4645C247.716 83.2477 251.259 86.4303 253.698 85.2161C254.154 84.0259 254.324 82.7449 254.193 81.4769C254.062 80.2088 253.634 78.9896 252.944 77.918C252.237 76.8584 251.317 75.9574 250.243 75.2721C249.17 74.5867 247.965 74.132 246.707 73.9366C245.262 73.7167 243.787 73.8204 242.387 74.2403C240.987 74.6603 239.698 75.386 238.612 76.365Z" fill="#263238"/>
<path d="M255.345 88.4176C255.345 88.3793 255.645 88.6669 255.524 89.2103C255.486 89.3669 255.413 89.5131 255.312 89.6381C255.21 89.7631 255.082 89.8637 254.936 89.9326C254.755 90.0157 254.556 90.0549 254.356 90.0471C254.157 90.0393 253.962 89.9848 253.787 89.8879C253.616 89.7842 253.47 89.6438 253.36 89.4769C253.249 89.31 253.177 89.1207 253.149 88.9226C253.11 88.6039 253.192 88.2822 253.379 88.0213C253.698 87.5866 254.055 87.5419 254.055 87.5738C253.866 87.7386 253.704 87.9329 253.576 88.1491C253.454 88.3711 253.411 88.6282 253.455 88.8779C253.479 89.0254 253.534 89.166 253.617 89.2906C253.7 89.4151 253.808 89.5206 253.934 89.6002C254.063 89.6725 254.207 89.7152 254.355 89.7252C254.503 89.7351 254.651 89.7121 254.789 89.6577C254.903 89.6109 255.006 89.5405 255.09 89.4513C255.175 89.3621 255.24 89.256 255.281 89.14C255.35 88.9058 255.372 88.6603 255.345 88.4176Z" fill="#C25E54"/>
<path d="M227.746 121.342L233.735 120.096L235.554 130.18C234.016 135.349 232.738 140.592 231.724 145.888L245.769 154.663L247.933 150.547L251.399 153.845L266.344 145.888C264.499 136.302 259.839 133.797 259.839 132.238C259.839 127.764 259.201 132.11 262.948 117.29C266.695 102.47 253.021 100.956 253.021 100.956C253.021 100.956 253.327 103.026 242.449 101.052C238.465 100.33 222.562 108.688 222.562 108.688L227.746 121.342Z" fill="#C25E54"/>
<path d="M242.43 101.053C242.43 101.053 242.302 112.019 244.913 111.278C247.524 110.537 252.785 105.852 253.002 100.931L242.43 101.053Z" fill="#FFBE9D"/>
<path d="M243.094 120.269C243.063 118.97 243.137 117.67 243.317 116.383C243.392 115.091 243.58 113.808 243.879 112.549C243.911 113.851 243.834 115.152 243.649 116.441C243.573 117.73 243.387 119.011 243.094 120.269Z" fill="#263238"/>
<path d="M244.76 119.381C244.569 118.355 244.485 117.312 244.511 116.269C244.43 115.227 244.458 114.18 244.594 113.144C244.785 114.172 244.869 115.217 244.843 116.262C244.93 117.302 244.902 118.348 244.76 119.381Z" fill="#263238"/>
<path d="M242.417 121.343C242.328 121.343 242.264 121.062 242.417 120.748C242.57 120.435 242.819 120.295 242.877 120.365C242.934 120.435 242.832 120.64 242.724 120.883C242.615 121.126 242.513 121.349 242.417 121.343Z" fill="#263238"/>
<path d="M242.774 121.344C242.685 121.344 242.653 121.114 242.698 120.864C242.742 120.615 242.864 120.436 242.953 120.455C243.043 120.474 243.074 120.685 243.03 120.935C242.985 121.184 242.864 121.363 242.774 121.344Z" fill="#263238"/>
<path d="M243.113 121.35C243.023 121.35 242.928 121.165 242.902 120.915C242.877 120.666 242.934 120.461 243.03 120.455C243.125 120.449 243.215 120.64 243.234 120.883C243.253 121.126 243.215 121.337 243.113 121.35Z" fill="#263238"/>
<path d="M243.668 121.521C243.572 121.521 243.502 121.201 243.336 120.882C243.17 120.562 242.979 120.281 243.043 120.204C243.106 120.128 243.445 120.319 243.643 120.741C243.841 121.163 243.758 121.527 243.668 121.521Z" fill="#263238"/>
<path d="M244.824 120.365C244.741 120.397 244.568 120.122 244.568 119.726C244.568 119.33 244.741 119.087 244.824 119.087C244.907 119.087 244.9 119.387 244.9 119.726C244.9 120.065 244.913 120.333 244.824 120.365Z" fill="#263238"/>
<path d="M245.168 120.186C245.079 120.186 244.983 119.982 244.958 119.713C244.932 119.445 244.958 119.215 245.079 119.208C245.2 119.202 245.264 119.413 245.29 119.681C245.315 119.95 245.258 120.18 245.168 120.186Z" fill="#263238"/>
<path d="M245.711 120.097C245.641 120.155 245.443 120.021 245.271 119.797C245.098 119.573 245.015 119.349 245.092 119.298C245.168 119.247 245.36 119.375 245.532 119.592C245.705 119.81 245.769 120.04 245.711 120.097Z" fill="#263238"/>
<path d="M245.89 119.917C245.807 119.956 245.647 119.79 245.443 119.611C245.239 119.432 245.06 119.298 245.092 119.209C245.124 119.119 245.411 119.132 245.667 119.362C245.922 119.592 245.973 119.866 245.89 119.917Z" fill="#263238"/>
<path d="M241.632 102.26C241.632 102.221 241.824 102.126 242.047 102.33C242.139 102.438 242.184 102.578 242.173 102.719C242.163 102.86 242.097 102.992 241.99 103.084C241.937 103.132 241.875 103.168 241.809 103.19C241.742 103.213 241.671 103.222 241.601 103.216C241.53 103.211 241.462 103.192 241.399 103.159C241.336 103.126 241.281 103.081 241.236 103.027C241.205 102.995 241.179 102.958 241.16 102.918C241.13 102.834 241.12 102.743 241.133 102.654C241.145 102.565 241.178 102.48 241.23 102.407C241.415 102.164 241.638 102.221 241.626 102.26C241.546 102.337 241.481 102.428 241.434 102.528C241.37 102.701 241.434 102.931 241.696 102.899C241.958 102.867 241.977 102.643 241.875 102.484C241.772 102.324 241.638 102.311 241.632 102.26Z" fill="#263238"/>
<path d="M241.887 104.323C241.83 104.393 241.651 104.323 241.479 104.233C241.306 104.144 241.21 103.953 241.262 103.876C241.313 103.799 241.498 103.838 241.67 103.965C241.842 104.093 241.938 104.246 241.887 104.323Z" fill="#263238"/>
<path d="M242.053 104.759C242.13 104.817 242.053 105.04 241.798 105.136C241.542 105.232 241.332 105.136 241.351 105.04C241.37 104.945 241.517 104.894 241.676 104.83C241.836 104.766 241.983 104.702 242.053 104.759Z" fill="#263238"/>
<path d="M242.066 105.839C242.136 105.897 242.066 106.063 241.97 106.209C241.874 106.356 241.689 106.433 241.619 106.369C241.549 106.305 241.587 106.146 241.714 105.999C241.842 105.852 241.989 105.807 242.066 105.839Z" fill="#263238"/>
<path d="M241.791 107.008C241.791 106.969 242.047 106.88 242.347 107.155C242.431 107.235 242.492 107.337 242.522 107.45C242.552 107.563 242.551 107.682 242.519 107.794C242.476 107.942 242.387 108.072 242.266 108.166C242.144 108.26 241.996 108.313 241.842 108.318C241.691 108.307 241.548 108.247 241.433 108.148C241.318 108.049 241.238 107.916 241.204 107.768C241.176 107.645 241.189 107.516 241.241 107.4C241.292 107.285 241.38 107.19 241.491 107.129C241.861 106.925 242.13 107.129 242.066 107.161C241.908 107.177 241.757 107.232 241.625 107.321C241.569 107.362 241.526 107.42 241.505 107.487C241.483 107.553 241.483 107.625 241.504 107.692C241.53 107.771 241.58 107.841 241.645 107.892C241.711 107.943 241.791 107.973 241.874 107.979C241.932 107.976 241.988 107.961 242.04 107.936C242.092 107.911 242.138 107.875 242.176 107.832C242.214 107.788 242.243 107.738 242.262 107.683C242.28 107.628 242.287 107.57 242.283 107.513C242.277 107.425 242.246 107.341 242.193 107.27C242.002 107.084 241.785 107.084 241.791 107.008Z" fill="#263238"/>
<path d="M242.506 108.868C242.551 108.951 242.411 109.104 242.257 109.277C242.104 109.449 241.976 109.609 241.887 109.577C241.798 109.545 241.81 109.289 242.008 109.06C242.206 108.83 242.468 108.785 242.506 108.868Z" fill="#263238"/>
<path d="M242.864 110.024C242.947 110.056 242.934 110.312 242.736 110.541C242.538 110.771 242.283 110.816 242.238 110.739C242.194 110.663 242.334 110.497 242.487 110.324C242.641 110.152 242.775 109.992 242.864 110.024Z" fill="#263238"/>
<path d="M243.055 111.897C242.966 111.897 242.87 111.693 242.851 111.418C242.832 111.143 242.851 110.925 242.972 110.913C243.094 110.9 243.158 111.117 243.177 111.392C243.196 111.667 243.151 111.891 243.055 111.897Z" fill="#263238"/>
<path d="M246.158 112.198C246.113 112.274 245.935 112.261 245.762 112.198C245.59 112.134 245.488 111.955 245.532 111.872C245.577 111.789 245.756 111.808 245.928 111.872C246.101 111.936 246.203 112.083 246.158 112.198Z" fill="#263238"/>
<path d="M247.237 110.918C247.301 110.982 247.192 111.193 247.001 111.391C246.809 111.589 246.592 111.697 246.528 111.633C246.464 111.569 246.567 111.359 246.764 111.161C246.962 110.963 247.167 110.861 247.237 110.918Z" fill="#263238"/>
<path d="M248.118 110.204C248.118 110.153 248.284 110.127 248.527 110.134H248.558L248.603 110.172C248.66 110.229 248.702 110.299 248.725 110.376C248.748 110.453 248.753 110.534 248.737 110.613C248.719 110.714 248.669 110.806 248.594 110.875C248.519 110.944 248.424 110.987 248.322 110.997C248.214 111.006 248.105 110.981 248.012 110.925C247.919 110.868 247.847 110.784 247.805 110.683C247.772 110.604 247.763 110.515 247.782 110.431C247.8 110.346 247.844 110.269 247.907 110.21C248.118 110.019 248.316 110.114 248.29 110.153C248.265 110.191 248.163 110.217 248.092 110.357C248.074 110.388 248.064 110.424 248.064 110.46C248.064 110.496 248.074 110.531 248.092 110.562C248.115 110.596 248.147 110.624 248.184 110.642C248.221 110.66 248.262 110.668 248.303 110.664C248.437 110.664 248.501 110.428 248.431 110.345L248.507 110.383C248.258 110.319 248.112 110.281 248.118 110.204Z" fill="#263238"/>
<path d="M249.031 110.031C248.942 110.031 248.903 109.795 248.954 109.552C249.005 109.309 249.12 109.123 249.21 109.136C249.299 109.149 249.331 109.373 249.28 109.616C249.229 109.858 249.12 110.05 249.031 110.031Z" fill="#263238"/>
<path d="M250.429 109.047C250.397 109.13 250.186 109.117 249.963 109.047C249.74 108.977 249.593 108.798 249.631 108.715C249.669 108.632 249.88 108.645 250.097 108.715C250.314 108.785 250.467 108.964 250.429 109.047Z" fill="#263238"/>
<path d="M250.589 107.832C250.627 107.832 250.621 107.948 250.697 108.031C250.774 108.114 250.87 108.133 250.94 108.031C251.01 107.928 250.94 107.852 250.838 107.813C250.762 107.793 250.683 107.793 250.608 107.813C250.569 107.813 250.608 107.634 250.825 107.59C250.892 107.577 250.962 107.582 251.027 107.604C251.092 107.627 251.15 107.666 251.195 107.717C251.254 107.786 251.289 107.871 251.294 107.961C251.3 108.051 251.276 108.141 251.227 108.216C251.182 108.294 251.113 108.356 251.03 108.393C250.948 108.43 250.856 108.439 250.767 108.421C250.701 108.405 250.64 108.372 250.59 108.325C250.541 108.277 250.505 108.218 250.486 108.152C250.423 107.909 250.557 107.801 250.589 107.832Z" fill="#263238"/>
<path d="M251.565 106.823C251.508 106.814 251.455 106.789 251.411 106.752C251.367 106.715 251.334 106.667 251.315 106.613C251.296 106.559 251.292 106.5 251.303 106.444C251.315 106.388 251.341 106.336 251.38 106.293C251.444 106.293 251.578 106.357 251.629 106.504C251.68 106.65 251.648 106.797 251.565 106.823Z" fill="#263238"/>
<path d="M252.478 105.928C252.433 106.004 252.255 105.992 252.082 105.889C251.91 105.787 251.808 105.647 251.859 105.57C251.91 105.494 252.076 105.506 252.248 105.602C252.421 105.698 252.523 105.845 252.478 105.928Z" fill="#263238"/>
<path d="M253.104 104.586C253.142 104.675 252.989 104.822 252.772 104.918C252.555 105.014 252.338 105.027 252.299 104.918C252.261 104.81 252.414 104.688 252.631 104.592C252.703 104.551 252.784 104.529 252.867 104.528C252.949 104.527 253.031 104.547 253.104 104.586Z" fill="#263238"/>
<path d="M253.391 102.982C253.391 102.95 253.512 102.828 253.73 102.944C253.793 102.979 253.846 103.029 253.884 103.091C253.922 103.152 253.944 103.223 253.947 103.295C253.946 103.389 253.918 103.481 253.865 103.559C253.811 103.636 253.736 103.696 253.648 103.73C253.561 103.764 253.465 103.77 253.373 103.748C253.282 103.727 253.199 103.678 253.136 103.608C253.089 103.552 253.058 103.485 253.046 103.413C253.034 103.341 253.04 103.268 253.066 103.199C253.149 102.976 253.327 102.963 253.334 103.007C253.34 103.052 253.283 103.123 253.295 103.244C253.308 103.365 253.385 103.474 253.525 103.423C253.666 103.372 253.666 103.244 253.583 103.135C253.5 103.027 253.429 103.027 253.391 102.982Z" fill="#263238"/>
<path d="M254.266 101.581C254.266 101.671 254.125 101.786 253.902 101.837C253.679 101.888 253.487 101.837 253.468 101.767C253.449 101.696 253.608 101.562 253.832 101.511C254.055 101.46 254.247 101.492 254.266 101.581Z" fill="#263238"/>
<path d="M253.372 101.115L253.723 100.846L253.372 101.115Z" fill="#263238"/>
<path d="M224.376 110.229C224.293 110.229 224.261 110.044 224.318 109.878C224.376 109.712 224.484 109.603 224.567 109.629C224.65 109.654 224.682 109.814 224.631 109.98C224.58 110.146 224.465 110.28 224.376 110.229Z" fill="#263238"/>
<path d="M225.142 111.156C225.142 111.118 225.257 110.997 225.486 111.099C225.566 111.134 225.633 111.191 225.68 111.264C225.727 111.337 225.752 111.421 225.752 111.508C225.752 111.595 225.727 111.679 225.68 111.752C225.633 111.825 225.566 111.882 225.486 111.917C225.402 111.963 225.304 111.982 225.208 111.971C225.112 111.959 225.022 111.918 224.95 111.853C224.897 111.802 224.858 111.738 224.836 111.668C224.814 111.598 224.809 111.523 224.823 111.45C224.867 111.201 225.052 111.163 225.065 111.201C225.078 111.24 225.027 111.329 225.065 111.457C225.103 111.585 225.193 111.7 225.352 111.623C225.512 111.546 225.48 111.406 225.352 111.297C225.225 111.188 225.161 111.201 225.142 111.156Z" fill="#263238"/>
<path d="M226.093 113.245C226.055 113.328 225.857 113.328 225.646 113.245C225.435 113.162 225.301 113.022 225.333 112.939C225.365 112.856 225.57 112.856 225.78 112.939C225.991 113.022 226.125 113.162 226.093 113.245Z" fill="#263238"/>
<path d="M226.329 114.522C226.297 114.612 226.144 114.637 225.978 114.586C225.812 114.535 225.704 114.42 225.729 114.331C225.755 114.241 225.914 114.216 226.08 114.273C226.246 114.331 226.355 114.439 226.329 114.522Z" fill="#263238"/>
<path d="M226.718 115.393C226.795 115.437 226.776 115.622 226.667 115.801C226.559 115.98 226.412 116.095 226.335 116.044C226.259 115.993 226.278 115.814 226.38 115.635C226.41 115.569 226.457 115.511 226.517 115.468C226.576 115.426 226.646 115.4 226.718 115.393Z" fill="#263238"/>
<path d="M226.949 116.281C226.904 116.281 227.057 116.044 227.383 116.134C227.476 116.159 227.562 116.208 227.632 116.275C227.702 116.342 227.755 116.425 227.785 116.517C227.822 116.646 227.808 116.784 227.746 116.903C227.684 117.022 227.579 117.112 227.453 117.156C227.338 117.202 227.213 117.214 227.092 117.191C226.97 117.167 226.859 117.108 226.77 117.022C226.698 116.94 226.659 116.834 226.659 116.725C226.659 116.616 226.698 116.51 226.77 116.428C226.823 116.375 226.894 116.346 226.968 116.346C227.042 116.346 227.113 116.375 227.166 116.428C227.236 116.511 227.204 116.575 227.166 116.575C227.148 116.577 227.13 116.574 227.113 116.568C227.096 116.561 227.082 116.55 227.07 116.536C227.058 116.529 227.044 116.524 227.03 116.523C227.015 116.521 227.001 116.523 226.987 116.528C226.974 116.533 226.962 116.541 226.952 116.551C226.942 116.561 226.934 116.574 226.93 116.587C226.914 116.627 226.911 116.67 226.922 116.712C226.932 116.753 226.955 116.79 226.987 116.817C227.035 116.852 227.092 116.874 227.151 116.88C227.21 116.887 227.27 116.879 227.325 116.856C227.587 116.76 227.479 116.466 227.287 116.37C227.096 116.274 226.981 116.319 226.949 116.281Z" fill="#263238"/>
<path d="M227.893 117.949C227.957 118.012 227.893 118.159 227.778 118.274C227.663 118.389 227.504 118.415 227.44 118.351C227.376 118.287 227.44 118.134 227.555 118.025C227.67 117.917 227.81 117.866 227.893 117.949Z" fill="#263238"/>
<path d="M228.238 119.047C228.308 119.111 228.238 119.271 228.129 119.405C228.021 119.539 227.842 119.603 227.772 119.539C227.702 119.475 227.772 119.315 227.887 119.181C228.002 119.047 228.174 118.983 228.238 119.047Z" fill="#263238"/>
<path d="M234.756 147.506C234.68 147.55 234.507 147.403 234.386 147.173C234.265 146.943 234.22 146.726 234.297 146.681C234.373 146.636 234.546 146.783 234.673 147.014C234.801 147.244 234.839 147.461 234.756 147.506Z" fill="#263238"/>
<path d="M235.311 147.506C235.228 147.544 235.075 147.39 234.973 147.16C234.871 146.93 234.858 146.719 234.973 146.681C235.088 146.643 235.209 146.796 235.311 147.026C235.414 147.256 235.394 147.467 235.311 147.506Z" fill="#263238"/>
<path d="M236.097 147.921V148.125C236.097 148.221 236.192 148.26 236.282 148.209C236.371 148.157 236.365 148.087 236.282 148.004C236.199 147.921 236.135 147.934 236.109 147.889C236.084 147.844 236.186 147.729 236.39 147.793C236.485 147.824 236.564 147.891 236.611 147.979C236.657 148.067 236.667 148.17 236.639 148.266C236.607 148.363 236.538 148.443 236.448 148.49C236.379 148.54 236.296 148.567 236.211 148.567C236.127 148.567 236.044 148.54 235.975 148.49C235.928 148.447 235.893 148.393 235.872 148.332C235.851 148.272 235.844 148.208 235.854 148.145C235.924 147.908 236.084 147.876 236.097 147.921Z" fill="#263238"/>
<path d="M238.063 148.336C238.12 148.406 237.999 148.591 237.795 148.744C237.59 148.897 237.386 148.961 237.329 148.885C237.271 148.808 237.393 148.629 237.597 148.476C237.801 148.323 238.012 148.259 238.063 148.336Z" fill="#263238"/>
<path d="M238.708 148.976C238.746 149.059 238.657 149.186 238.51 149.263C238.363 149.34 238.197 149.333 238.159 149.263C238.121 149.193 238.204 149.052 238.357 148.976C238.51 148.899 238.67 148.899 238.708 148.976Z" fill="#263238"/>
<path d="M239.614 149.99C239.519 149.99 239.429 149.869 239.397 149.69C239.365 149.511 239.429 149.358 239.519 149.345C239.608 149.333 239.704 149.467 239.729 149.645C239.755 149.824 239.704 149.977 239.614 149.99Z" fill="#263238"/>
<path d="M241.076 149.971C241.056 150.053 241.056 150.138 241.076 150.22C241.115 150.348 241.198 150.438 241.338 150.354C241.479 150.271 241.44 150.15 241.338 150.06C241.236 149.971 241.134 149.996 241.108 149.958C241.083 149.92 241.185 149.779 241.427 149.843C241.498 149.863 241.563 149.9 241.615 149.951C241.668 150.003 241.706 150.067 241.728 150.137C241.754 150.257 241.732 150.384 241.667 150.488C241.601 150.592 241.496 150.666 241.376 150.693C241.308 150.71 241.237 150.71 241.168 150.695C241.099 150.679 241.035 150.648 240.981 150.604C240.927 150.554 240.886 150.492 240.863 150.423C240.839 150.354 240.834 150.279 240.847 150.207C240.878 149.958 241.064 149.901 241.076 149.971Z" fill="#263238"/>
<path d="M242.813 150.643C242.877 150.713 242.781 150.892 242.602 151.045C242.424 151.198 242.232 151.269 242.175 151.198C242.117 151.128 242.206 150.949 242.385 150.796C242.564 150.643 242.755 150.573 242.813 150.643Z" fill="#263238"/>
<path d="M243.962 151.327C244.026 151.39 243.924 151.588 243.687 151.697C243.451 151.805 243.228 151.748 243.221 151.652C243.215 151.556 243.368 151.473 243.547 151.39C243.726 151.307 243.892 151.256 243.962 151.327Z" fill="#263238"/>
<path d="M244.83 152.573C244.741 152.605 244.626 152.503 244.575 152.35C244.523 152.196 244.575 152.05 244.638 152.024C244.702 151.999 244.843 152.094 244.894 152.248C244.945 152.401 244.913 152.548 244.83 152.573Z" fill="#263238"/>
<path d="M245.813 151.986C245.775 151.986 245.852 151.794 246.094 151.807C246.181 151.812 246.264 151.845 246.33 151.902C246.396 151.958 246.441 152.035 246.459 152.12C246.477 152.205 246.467 152.294 246.43 152.372C246.393 152.451 246.331 152.515 246.254 152.555C246.171 152.611 246.071 152.634 245.972 152.622C245.874 152.609 245.783 152.56 245.718 152.485C245.674 152.424 245.647 152.353 245.642 152.278C245.636 152.204 245.651 152.129 245.686 152.063C245.807 151.846 246.011 151.89 245.992 151.935C245.947 151.997 245.918 152.07 245.909 152.146C245.909 152.261 245.96 152.338 246.081 152.267C246.203 152.197 246.158 152.108 246.043 152.037C245.928 151.967 245.852 152.018 245.813 151.986Z" fill="#263238"/>
<path d="M246.733 151.091C246.656 151.142 246.522 151.091 246.433 150.957C246.343 150.823 246.337 150.682 246.433 150.631C246.528 150.58 246.643 150.631 246.733 150.765C246.822 150.899 246.809 151.04 246.733 151.091Z" fill="#263238"/>
<path d="M247.186 150.355C247.122 150.419 246.988 150.394 246.886 150.292C246.784 150.189 246.752 150.055 246.816 149.992C246.879 149.928 247.02 149.953 247.122 150.055C247.224 150.158 247.25 150.292 247.186 150.355Z" fill="#263238"/>
<path d="M247.684 148.95C247.639 148.95 247.735 148.777 247.933 148.848C247.991 148.869 248.043 148.907 248.08 148.957C248.117 149.006 248.139 149.066 248.143 149.129C248.135 149.227 248.088 149.319 248.013 149.384C247.938 149.448 247.84 149.48 247.741 149.473C247.683 149.47 247.627 149.454 247.577 149.425C247.527 149.396 247.485 149.356 247.454 149.307C247.426 149.258 247.411 149.202 247.411 149.145C247.411 149.088 247.426 149.031 247.454 148.982C247.53 148.816 247.671 148.809 247.684 148.848C247.69 148.911 247.69 148.976 247.684 149.039C247.684 149.057 247.688 149.075 247.696 149.092C247.704 149.108 247.715 149.123 247.728 149.135H247.856V149.065C247.856 149.065 247.735 148.982 247.684 148.95Z" fill="#263238"/>
<path d="M248.705 149.991C248.659 149.971 248.621 149.934 248.6 149.888C248.579 149.842 248.575 149.79 248.59 149.742C248.593 149.717 248.6 149.694 248.612 149.672C248.623 149.65 248.639 149.631 248.658 149.616C248.677 149.6 248.699 149.589 248.722 149.582C248.746 149.575 248.77 149.573 248.795 149.576C248.841 149.594 248.878 149.629 248.9 149.674C248.921 149.719 248.924 149.771 248.91 149.818C248.902 149.867 248.877 149.911 248.84 149.942C248.802 149.974 248.754 149.991 248.705 149.991Z" fill="#263238"/>
<path d="M249.171 150.541C249.136 150.506 249.111 150.462 249.097 150.414C249.084 150.366 249.083 150.315 249.095 150.267C249.095 150.216 249.111 150.166 249.141 150.125C249.17 150.084 249.212 150.053 249.261 150.037C249.35 150.037 249.459 150.145 249.427 150.324C249.395 150.503 249.242 150.599 249.171 150.541Z" fill="#263238"/>
<path d="M249.816 151.282C249.782 151.32 249.737 151.348 249.687 151.362C249.637 151.375 249.584 151.374 249.535 151.358C249.484 151.358 249.433 151.341 249.392 151.31C249.351 151.279 249.32 151.236 249.305 151.186C249.305 151.097 249.42 150.995 249.599 151.026C249.778 151.058 249.861 151.18 249.816 151.282Z" fill="#263238"/>
<path d="M250.339 151.908C250.307 151.876 250.39 151.749 250.588 151.78C250.649 151.794 250.706 151.821 250.754 151.861C250.802 151.901 250.839 151.953 250.863 152.01C250.89 152.108 250.878 152.212 250.829 152.3C250.78 152.389 250.698 152.455 250.601 152.483C250.535 152.501 250.466 152.502 250.4 152.485C250.334 152.468 250.273 152.435 250.224 152.387C250.187 152.334 250.167 152.27 250.167 152.205C250.167 152.14 250.187 152.077 250.224 152.023C250.327 151.832 250.505 151.883 250.486 151.927C250.455 151.979 250.439 152.039 250.441 152.1C250.441 152.183 250.441 152.183 250.48 152.183H250.544C250.607 152.183 250.588 152.144 250.595 152.125C250.588 152.087 250.568 152.053 250.537 152.029C250.441 151.946 250.365 151.946 250.339 151.908Z" fill="#263238"/>
<path d="M251.157 153.173C251.109 153.16 251.067 153.128 251.041 153.086C251.015 153.043 251.006 152.992 251.016 152.943C251.015 152.919 251.019 152.894 251.028 152.871C251.037 152.849 251.051 152.828 251.068 152.81C251.086 152.793 251.107 152.779 251.129 152.77C251.152 152.761 251.177 152.757 251.201 152.758C251.225 152.763 251.248 152.772 251.268 152.785C251.289 152.799 251.306 152.816 251.32 152.836C251.333 152.856 251.343 152.879 251.348 152.903C251.353 152.927 251.353 152.951 251.348 152.975C251.347 153.026 251.326 153.075 251.291 153.111C251.255 153.148 251.207 153.17 251.157 153.173Z" fill="#263238"/>
<path d="M252.395 152.516C252.395 152.606 252.216 152.65 252.038 152.606C251.859 152.561 251.731 152.459 251.75 152.37C251.77 152.28 251.936 152.242 252.114 152.28C252.293 152.318 252.414 152.459 252.395 152.516Z" fill="#263238"/>
<path d="M252.861 152.293C252.81 152.287 252.763 152.262 252.729 152.223C252.695 152.184 252.676 152.134 252.676 152.083C252.676 151.955 252.727 151.84 252.823 151.834C252.919 151.827 252.995 151.923 253.008 152.051C253.021 152.178 252.957 152.287 252.861 152.293Z" fill="#263238"/>
<path d="M253.729 151.602C253.64 151.602 253.563 151.5 253.563 151.373C253.563 151.245 253.64 151.143 253.729 151.143C253.819 151.143 253.895 151.245 253.895 151.373C253.895 151.5 253.825 151.602 253.729 151.602Z" fill="#263238"/>
<path d="M254.4 150.662C254.4 150.63 254.515 150.503 254.725 150.63C254.787 150.668 254.837 150.724 254.867 150.79C254.898 150.855 254.908 150.929 254.898 151.001C254.881 151.097 254.828 151.183 254.75 151.243C254.671 151.302 254.574 151.329 254.476 151.32C254.389 151.327 254.302 151.303 254.23 151.252C254.159 151.201 254.107 151.127 254.086 151.041C254.064 150.956 254.074 150.866 254.113 150.787C254.152 150.709 254.217 150.646 254.298 150.611C254.515 150.503 254.649 150.649 254.61 150.681C254.572 150.713 254.496 150.681 254.432 150.803C254.415 150.821 254.403 150.842 254.395 150.865C254.387 150.888 254.385 150.913 254.387 150.937C254.414 150.965 254.45 150.983 254.489 150.988C254.553 150.988 254.585 150.988 254.598 150.943C254.604 150.899 254.604 150.854 254.598 150.809C254.598 150.764 254.419 150.701 254.4 150.662Z" fill="#263238"/>
<path d="M256.13 150.125C256.06 150.196 255.938 150.176 255.817 150.164C255.696 150.151 255.568 150.113 255.53 150.03C255.491 149.947 255.632 149.793 255.868 149.832C256.104 149.87 256.194 150.068 256.13 150.125Z" fill="#263238"/>
<path d="M257.005 149.665C256.96 149.748 256.781 149.741 256.59 149.71C256.398 149.678 256.232 149.62 256.219 149.524C256.207 149.429 256.404 149.333 256.647 149.378C256.89 149.422 257.049 149.588 257.005 149.665Z" fill="#263238"/>
<path d="M257.503 149.263C257.413 149.263 257.35 149.141 257.356 149.014C257.362 148.886 257.452 148.79 257.547 148.803C257.643 148.816 257.701 148.918 257.688 149.045C257.688 149.098 257.67 149.149 257.636 149.189C257.602 149.229 257.555 149.255 257.503 149.263Z" fill="#263238"/>
<path d="M258.256 148.082C258.224 148.082 258.32 147.909 258.55 147.954C258.62 147.972 258.684 148.011 258.733 148.065C258.782 148.12 258.814 148.188 258.824 148.261C258.836 148.354 258.817 148.448 258.77 148.529C258.723 148.61 258.649 148.673 258.562 148.708C258.47 148.737 258.371 148.732 258.282 148.694C258.194 148.657 258.121 148.589 258.077 148.503C258.04 148.435 258.029 148.355 258.045 148.279C258.061 148.203 258.104 148.135 258.167 148.088C258.371 147.941 258.518 148.088 258.486 148.088C258.454 148.088 258.377 148.145 258.332 148.235C258.288 148.324 258.332 148.312 258.332 148.331C258.345 148.346 258.361 148.357 258.378 148.365C258.396 148.373 258.415 148.376 258.435 148.376C258.453 148.363 258.469 148.347 258.481 148.329C258.493 148.31 258.501 148.289 258.505 148.267C258.506 148.246 258.503 148.225 258.494 148.206C258.485 148.187 258.471 148.17 258.454 148.158C258.384 148.107 258.281 148.12 258.256 148.082Z" fill="#263238"/>
<path d="M259.347 148.047C259.299 148.026 259.259 147.988 259.237 147.94C259.215 147.891 259.211 147.837 259.226 147.786C259.226 147.759 259.231 147.732 259.242 147.707C259.253 147.682 259.269 147.66 259.288 147.641C259.308 147.623 259.332 147.608 259.357 147.599C259.383 147.59 259.41 147.586 259.437 147.588C259.526 147.588 259.577 147.722 259.552 147.85C259.526 147.977 259.437 148.067 259.347 148.047Z" fill="#263238"/>
<path d="M260.273 147.27C260.225 147.256 260.184 147.225 260.158 147.182C260.132 147.14 260.123 147.089 260.133 147.04C260.129 147.018 260.13 146.995 260.136 146.973C260.141 146.951 260.151 146.93 260.165 146.912C260.179 146.895 260.196 146.88 260.216 146.869C260.235 146.858 260.257 146.851 260.28 146.848C260.302 146.845 260.326 146.846 260.348 146.851C260.37 146.857 260.391 146.866 260.41 146.88C260.428 146.894 260.443 146.911 260.455 146.931C260.467 146.951 260.474 146.972 260.478 146.995C260.484 147.023 260.484 147.051 260.478 147.078C260.474 147.13 260.451 147.179 260.413 147.214C260.375 147.25 260.325 147.27 260.273 147.27Z" fill="#263238"/>
<path d="M261.575 146.515C261.524 146.592 261.365 146.579 261.199 146.515C261.033 146.451 260.886 146.419 260.873 146.323C260.86 146.228 261.046 146.138 261.275 146.189C261.505 146.24 261.627 146.438 261.575 146.515Z" fill="#263238"/>
<path d="M262.201 146.068C262.118 146.106 261.99 145.985 262.041 145.819C262.093 145.653 262.259 145.621 262.31 145.698C262.331 145.729 262.346 145.764 262.354 145.802C262.361 145.839 262.362 145.877 262.354 145.915C262.341 145.95 262.321 145.982 262.294 146.008C262.268 146.034 262.236 146.055 262.201 146.068Z" fill="#263238"/>
<path d="M262.954 145.334C262.906 145.321 262.865 145.289 262.839 145.247C262.813 145.204 262.804 145.153 262.814 145.104C262.814 145.079 262.819 145.055 262.829 145.032C262.838 145.009 262.853 144.988 262.87 144.971C262.888 144.954 262.91 144.94 262.933 144.931C262.956 144.922 262.981 144.918 263.006 144.919C263.053 144.931 263.094 144.961 263.12 145.003C263.147 145.044 263.156 145.094 263.146 145.142C263.143 145.192 263.122 145.239 263.087 145.275C263.051 145.31 263.004 145.331 262.954 145.334Z" fill="#263238"/>
<path d="M253.749 111.384L249.516 115.647L259.769 125.738C259.769 125.738 261.856 119.654 263.312 114.299C264.34 110.515 253.749 111.384 253.749 111.384Z" fill="#C25E54"/>
<path d="M252.095 116.032C252.006 116.032 251.91 115.847 251.885 115.604C251.859 115.361 251.916 115.15 252.006 115.143C252.095 115.137 252.191 115.322 252.216 115.572C252.242 115.821 252.185 116.032 252.095 116.032Z" fill="#263238"/>
<path d="M253.072 116.229C253.072 116.319 252.912 116.395 252.714 116.395C252.517 116.395 252.363 116.319 252.363 116.229C252.363 116.14 252.523 116.063 252.714 116.063C252.906 116.063 253.072 116.133 253.072 116.229Z" fill="#263238"/>
<path d="M253.34 117.648C253.257 117.597 253.264 117.45 253.264 117.29C253.264 117.131 253.264 116.99 253.34 116.939C253.417 116.888 253.596 117.028 253.596 117.29C253.596 117.552 253.43 117.705 253.34 117.648Z" fill="#263238"/>
<path d="M254.183 117.789C254.144 117.789 254.291 117.585 254.566 117.674C254.649 117.701 254.723 117.749 254.782 117.814C254.84 117.879 254.88 117.959 254.898 118.045C254.91 118.161 254.882 118.277 254.818 118.375C254.753 118.472 254.657 118.543 254.545 118.577C254.434 118.61 254.314 118.604 254.207 118.558C254.1 118.512 254.012 118.43 253.959 118.326C253.93 118.24 253.926 118.148 253.949 118.061C253.972 117.973 254.02 117.894 254.087 117.834C254.127 117.794 254.175 117.765 254.228 117.747C254.281 117.729 254.338 117.724 254.393 117.732C254.476 117.732 254.502 117.795 254.489 117.808C254.397 117.841 254.318 117.904 254.265 117.987C254.183 118.128 254.227 118.313 254.451 118.256C254.674 118.198 254.617 117.994 254.451 117.891C254.285 117.789 254.208 117.827 254.183 117.789Z" fill="#263238"/>
<path d="M255.287 119.514C255.204 119.514 255.172 119.341 255.217 119.195C255.262 119.048 255.377 118.952 255.466 118.978C255.555 119.003 255.587 119.15 255.536 119.297C255.485 119.444 255.377 119.539 255.287 119.514Z" fill="#263238"/>
<path d="M256.245 119.329C256.334 119.329 256.366 119.597 256.315 119.891C256.264 120.185 256.149 120.416 256.06 120.396C255.97 120.377 255.938 120.128 255.989 119.834C256.041 119.54 256.155 119.316 256.245 119.329Z" fill="#263238"/>
<path d="M257.26 120.505C257.26 120.595 257.1 120.691 256.877 120.716C256.653 120.742 256.475 120.684 256.462 120.595C256.449 120.505 256.621 120.41 256.845 120.384C257.068 120.359 257.26 120.397 257.26 120.505Z" fill="#263238"/>
<path d="M257.675 120.992C257.675 120.954 257.809 120.851 258.051 120.954C258.125 120.985 258.191 121.033 258.243 121.094C258.295 121.155 258.332 121.227 258.352 121.305C258.373 121.412 258.359 121.523 258.312 121.621C258.265 121.719 258.187 121.799 258.09 121.849C257.991 121.908 257.873 121.927 257.76 121.902C257.647 121.877 257.548 121.81 257.483 121.714C257.442 121.634 257.428 121.542 257.444 121.453C257.46 121.364 257.505 121.283 257.573 121.222C257.614 121.179 257.666 121.149 257.724 121.135C257.782 121.122 257.842 121.125 257.898 121.145C257.975 121.177 257.988 121.222 257.975 121.235C257.93 121.24 257.888 121.257 257.852 121.284C257.816 121.311 257.788 121.347 257.771 121.388C257.7 121.542 257.771 121.644 257.956 121.567C258.141 121.491 258.077 121.286 257.956 121.171C257.834 121.056 257.681 121.043 257.675 120.992Z" fill="#263238"/>
<path d="M258.747 123.247C258.658 123.247 258.581 123.004 258.581 122.71C258.581 122.416 258.658 122.18 258.747 122.18C258.837 122.18 258.913 122.416 258.913 122.71C258.913 123.004 258.843 123.247 258.747 123.247Z" fill="#263238"/>
<path d="M257.202 107.015C256.961 107.513 256.651 107.975 256.283 108.389C255.645 109.194 254.764 110.306 253.73 111.437C252.695 112.568 251.75 113.635 251.055 114.377C250.698 114.796 250.303 115.182 249.874 115.527C250.163 115.058 250.499 114.619 250.876 114.217C251.514 113.444 252.459 112.383 253.481 111.22L256.098 108.235C256.437 107.803 256.806 107.395 257.202 107.015Z" fill="#263238"/>
<path d="M264.372 145.256C264.372 145.346 264.18 145.378 263.989 145.333C263.797 145.288 263.663 145.173 263.682 145.084C263.701 144.995 263.88 144.963 264.065 145.007C264.25 145.052 264.391 145.167 264.372 145.256Z" fill="#263238"/>
<path d="M264.857 144.476C264.857 144.444 264.895 144.342 265.08 144.329C265.141 144.33 265.2 144.348 265.25 144.383C265.3 144.417 265.339 144.465 265.361 144.521C265.38 144.556 265.391 144.594 265.394 144.634C265.397 144.673 265.393 144.713 265.38 144.751C265.367 144.788 265.347 144.823 265.321 144.852C265.295 144.882 265.263 144.906 265.227 144.923H265.163C264.844 145.006 264.57 144.693 264.71 144.451C264.73 144.414 264.762 144.385 264.799 144.366C264.837 144.348 264.879 144.342 264.921 144.348C264.93 144.348 264.94 144.35 264.948 144.354C264.957 144.358 264.964 144.364 264.97 144.371C264.976 144.379 264.979 144.388 264.981 144.397C264.982 144.407 264.981 144.416 264.978 144.425C264.958 144.44 264.942 144.459 264.932 144.481C264.922 144.504 264.918 144.528 264.921 144.553C264.921 144.553 265.016 144.623 265.074 144.604C265.076 144.59 265.074 144.577 265.067 144.565C265.06 144.553 265.049 144.544 265.036 144.54C264.965 144.521 264.876 144.521 264.857 144.476Z" fill="#263238"/>
<path d="M210.522 121.822C210.158 120.614 205.581 118.134 206.271 117.463C207.164 116.581 210.931 120.262 211.269 120.55C211.608 120.837 212.023 120.345 211.703 120.103C211.244 119.751 206.481 115.968 207.356 115.099C207.841 114.613 208.633 115.591 208.633 115.591C208.633 115.591 212.833 119.47 213.236 119.042C213.638 118.614 211.244 116.249 210.382 115.514C209.52 114.779 209.526 114.07 210.152 113.955C210.573 113.872 213.267 116.07 214.097 116.824C214.927 117.578 217.194 119.674 216.894 117.712V117.623C216.549 115.706 216.894 114.102 217.341 113.718C217.435 113.624 217.556 113.562 217.687 113.54C217.818 113.518 217.953 113.537 218.072 113.596C218.192 113.654 218.29 113.748 218.354 113.865C218.417 113.983 218.442 114.117 218.426 114.249C218.445 114.344 218.445 114.441 218.426 114.536V114.677C218.406 115.346 218.451 116.016 218.56 116.677C218.648 117.271 218.836 117.846 219.115 118.377C219.441 119.016 219.754 119.502 220.009 119.93C223.067 121.617 231.871 126.071 240.687 126.749C242.283 126.87 250.359 116.415 250.359 116.415L258.281 124.205C257.209 126.039 256.832 126.461 251.45 133.83C242.672 145.85 215.061 125.944 215.061 125.944L214.806 125.816C212.708 124.791 210.671 123.647 208.703 122.39C206.328 120.722 206.468 120.505 206.705 120.25C207.241 119.578 210.893 123.061 210.522 121.822Z" fill="#FFBE9D"/>
</svg>
