<svg width="20" height="20" viewBox="0 0 20 20" fill="none" xmlns="http://www.w3.org/2000/svg">
<defs>
<linearGradient id="paint0_linear_1202_8915" x1="1.2506" y1="5.88274" x2="14.1155" y2="18.7477" gradientUnits="userSpaceOnUse">
<stop stop-color="#CF1D37"/>
<stop offset="1" stop-color="#CF0018"/>
</linearGradient>
<linearGradient id="paint1_linear_1202_8915" x1="11.0733" y1="1.50227" x2="18.3115" y2="8.7405" gradientUnits="userSpaceOnUse">
<stop stop-color="#FFAB56"/>
<stop offset="1" stop-color="#E07D48"/>
</linearGradient>
<linearGradient id="paint2_linear_1202_8915" x1="11.0769" y1="1.50566" x2="18.3083" y2="8.73706" gradientUnits="userSpaceOnUse">
<stop stop-color="#DE954B"/>
<stop offset="1" stop-color="#9C5732"/>
</linearGradient>
<linearGradient id="paint3_linear_1202_8915" x1="7.76151" y1="12.3938" x2="14.1154" y2="18.7477" gradientUnits="userSpaceOnUse">
<stop stop-color="#FFC033"/>
<stop offset="1" stop-color="#EF8E2E"/>
</linearGradient>
</defs>
<path d="M14.3511 13.657L6.3276 5.6335C5.68733 4.99342 4.81906 4.63385 3.91372 4.63385C3.00838 4.63385 2.14011 4.99342 1.49984 5.6335L1.00136 6.14564C0.683911 6.46273 0.432079 6.83928 0.260259 7.25377C0.0884383 7.66825 0 8.11254 0 8.56123C0 9.00991 0.0884383 9.4542 0.260259 9.86868C0.432079 10.2832 0.683911 10.6597 1.00136 10.9768L9.03852 19.0003C9.67879 19.6404 10.5471 20 11.4524 20C12.3577 20 13.226 19.6404 13.8663 19.0003L14.3511 18.4984C14.6701 18.1811 14.9232 17.804 15.096 17.3885C15.2687 16.9731 15.3576 16.5276 15.3576 16.0777C15.3576 15.6278 15.2687 15.1823 15.096 14.7669C14.9232 14.3515 14.6701 13.9743 14.3511 13.657Z" fill="url(#paint0_linear_1202_8915)"/>
<path d="M14.6924 10.2428C17.5209 10.2428 19.8138 7.94985 19.8138 5.12139C19.8138 2.29292 17.5209 0 14.6924 0C11.864 0 9.57104 2.29292 9.57104 5.12139C9.57104 7.94985 11.864 10.2428 14.6924 10.2428Z" fill="url(#paint1_linear_1202_8915)"/>
<path d="M11.3261 1.27008C11.1556 1.42132 10.9948 1.58326 10.8447 1.75491L18.0591 8.97265C18.2307 8.82145 18.3927 8.65952 18.5439 8.48783L11.3261 1.27008Z" fill="url(#paint2_linear_1202_8915)"/>
<path d="M14.351 13.657L10.4246 9.73065L5.09839 15.0569L9.03844 19.0004C9.67871 19.6404 10.547 20 11.4523 20C12.3577 20 13.2259 19.6404 13.8662 19.0004L14.351 18.4985C14.67 18.1812 14.9231 17.804 15.0959 17.3886C15.2686 16.9731 15.3575 16.5277 15.3575 16.0778C15.3575 15.6279 15.2686 15.1824 15.0959 14.767C14.9231 14.3515 14.67 13.9743 14.351 13.657V13.657Z" fill="url(#paint3_linear_1202_8915)"/>
</svg>
