<svg width="38" height="38" viewBox="0 0 38 38" fill="none" xmlns="http://www.w3.org/2000/svg">
<circle opacity="0.4" cx="19" cy="19" r="19" fill="black"/>
<path d="M27.6121 18.3624L13.2202 10.1117C13.099 10.0416 12.9601 10.0031 12.8178 10.0002C12.6755 9.99723 12.5349 10.0299 12.4106 10.0949C12.2862 10.1599 12.1826 10.2548 12.1105 10.3698C12.0383 10.4848 12.0002 10.6158 12 10.7492V27.2508C12.0002 27.3842 12.0383 27.5152 12.1105 27.6302C12.1826 27.7452 12.2862 27.8401 12.4106 27.9051C12.5349 27.9701 12.6755 28.0028 12.8178 27.9998C12.9601 27.9969 13.099 27.9584 13.2202 27.8883L27.6121 19.6376C27.7302 19.572 27.8282 19.4788 27.8962 19.367C27.9642 19.2552 28 19.1287 28 19C28 18.8713 27.9642 18.7448 27.8962 18.633C27.8282 18.5212 27.7302 18.428 27.6121 18.3624V18.3624Z" fill="white"/>
</svg>
