<svg width="16" height="16" viewBox="0 0 16 16" fill="none" xmlns="http://www.w3.org/2000/svg">
<path d="M13.6923 4H11.2559V3.5C11.2555 3.10231 11.1014 2.72105 10.8274 2.43984C10.5534 2.15864 10.1819 2.00045 9.7944 2H6.87132C6.48383 2.00045 6.11234 2.15864 5.83834 2.43984C5.56435 2.72105 5.41022 3.10231 5.40978 3.5V4H2.97436C2.71603 4.0003 2.46837 4.10576 2.28571 4.29323C2.10305 4.4807 2.0003 4.73488 2 5V13C2.0003 13.2651 2.10305 13.5193 2.28571 13.7068C2.46837 13.8942 2.71603 13.9997 2.97436 14H13.6923C13.9506 13.9997 14.1983 13.8942 14.381 13.7068C14.5636 13.5193 14.6664 13.2651 14.6667 13V5C14.6664 4.73488 14.5636 4.4807 14.381 4.29323C14.1983 4.10576 13.9506 4.0003 13.6923 4ZM6.38414 3.5C6.38429 3.36744 6.43566 3.24035 6.52699 3.14661C6.61833 3.05288 6.74216 3.00015 6.87132 3H9.7944C9.92356 3.00015 10.0474 3.05288 10.1387 3.14661C10.2301 3.24035 10.2814 3.36744 10.2816 3.5V4H6.38414V3.5ZM13.6923 5L13.6925 7.60038C12.048 8.51918 10.2053 9.00038 8.33286 9C6.46087 9.00037 4.61862 8.51939 2.97436 7.60098V5H13.6923ZM7.11491 7.5C7.11492 7.36739 7.16625 7.24022 7.25761 7.14645C7.34897 7.05269 7.47288 7.00001 7.60209 7H9.06363C9.19284 7 9.31675 7.05268 9.40812 7.14645C9.49948 7.24021 9.55081 7.36739 9.55081 7.5C9.55081 7.63261 9.49948 7.75979 9.40812 7.85355C9.31675 7.94732 9.19284 8 9.06363 8H7.60209C7.47288 7.99999 7.34897 7.94731 7.25761 7.85355C7.16625 7.75978 7.11492 7.63261 7.11491 7.5Z" fill="#C25E54"/>
</svg>
