<svg width="15" height="14" viewBox="0 0 15 14" fill="none" xmlns="http://www.w3.org/2000/svg">
<path d="M13.8462 2.33333H10.961V1.75C10.9605 1.28603 10.7779 0.841223 10.4535 0.513149C10.129 0.185076 9.68907 0.000530716 9.23021 0H5.76867C5.3098 0.000530716 4.86988 0.185076 4.54541 0.513149C4.22094 0.841223 4.03842 1.28603 4.0379 1.75V2.33333H1.15385C0.847934 2.33369 0.554652 2.45672 0.33834 2.67543C0.122028 2.89415 0.000349859 3.19069 0 3.5V12.8333C0.000349859 13.1426 0.122028 13.4392 0.33834 13.6579C0.554652 13.8766 0.847934 13.9996 1.15385 14H13.8462C14.1521 13.9996 14.4453 13.8766 14.6617 13.6579C14.878 13.4392 14.9997 13.1426 15 12.8333V3.5C14.9997 3.19069 14.878 2.89415 14.6617 2.67543C14.4453 2.45672 14.1521 2.33369 13.8462 2.33333V2.33333ZM5.19174 1.75C5.19192 1.59534 5.25276 1.44707 5.36091 1.33772C5.46907 1.22836 5.61571 1.16684 5.76867 1.16667H9.23021C9.38316 1.16684 9.5298 1.22836 9.63796 1.33772C9.74611 1.44707 9.80695 1.59534 9.80713 1.75V2.33333H5.19174V1.75ZM13.8462 3.5L13.8464 6.53377C11.8989 7.60571 9.71679 8.16711 7.49944 8.16667C5.28261 8.1671 3.10099 7.60595 1.15385 6.53448V3.5H13.8462ZM6.05713 6.41667C6.05714 6.26196 6.11792 6.11359 6.22611 6.0042C6.33431 5.8948 6.48104 5.83334 6.63405 5.83333H8.36482C8.51783 5.83333 8.66457 5.89479 8.77277 6.00419C8.88096 6.11358 8.94174 6.26196 8.94174 6.41667C8.94174 6.57138 8.88096 6.71975 8.77277 6.82915C8.66457 6.93854 8.51783 7 8.36482 7H6.63405C6.48104 6.99999 6.33431 6.93853 6.22611 6.82914C6.11792 6.71974 6.05714 6.57137 6.05713 6.41667V6.41667Z" fill="#797979"/>
</svg>
