<svg width="28" height="28" viewBox="0 0 28 28" fill="none" xmlns="http://www.w3.org/2000/svg">
<path d="M20.8462 9.33333H17.961V8.75C17.9604 8.28603 17.7779 7.84122 17.4535 7.51315C17.129 7.18508 16.6891 7.00053 16.2302 7H12.7687C12.3098 7.00053 11.8699 7.18508 11.5454 7.51315C11.2209 7.84122 11.0384 8.28603 11.0379 8.75V9.33333H8.15385C7.84793 9.33369 7.55465 9.45672 7.33834 9.67543C7.12203 9.89415 7.00035 10.1907 7 10.5V19.8333C7.00035 20.1426 7.12203 20.4392 7.33834 20.6579C7.55465 20.8766 7.84793 20.9996 8.15385 21H20.8462C21.1521 20.9996 21.4453 20.8766 21.6617 20.6579C21.878 20.4392 21.9997 20.1426 22 19.8333V10.5C21.9997 10.1907 21.878 9.89415 21.6617 9.67543C21.4453 9.45672 21.1521 9.33369 20.8462 9.33333V9.33333ZM12.1917 8.75C12.1919 8.59534 12.2528 8.44707 12.3609 8.33772C12.4691 8.22836 12.6157 8.16684 12.7687 8.16667H16.2302C16.3832 8.16684 16.5298 8.22836 16.638 8.33772C16.7461 8.44707 16.807 8.59534 16.8071 8.75V9.33333H12.1917V8.75ZM20.8462 10.5L20.8464 13.5338C18.8989 14.6057 16.7168 15.1671 14.4994 15.1667C12.2826 15.1671 10.101 14.606 8.15385 13.5345V10.5H20.8462ZM13.0571 13.4167C13.0571 13.262 13.1179 13.1136 13.2261 13.0042C13.3343 12.8948 13.481 12.8333 13.6341 12.8333H15.3648C15.5178 12.8333 15.6646 12.8948 15.7728 13.0042C15.881 13.1136 15.9417 13.262 15.9417 13.4167C15.9417 13.5714 15.881 13.7197 15.7728 13.8291C15.6646 13.9385 15.5178 14 15.3648 14H13.6341C13.481 14 13.3343 13.9385 13.2261 13.8291C13.1179 13.7197 13.0571 13.5714 13.0571 13.4167V13.4167Z" fill="#3F3F3F"/>
</svg>
