<svg width="28" height="28" viewBox="0 0 28 28" fill="none" xmlns="http://www.w3.org/2000/svg">
<path fill-rule="evenodd" clip-rule="evenodd" d="M14.3243 20.3335L15.7845 20.9236C16.3116 21.1367 16.9121 20.8879 17.1342 20.3646L17.7494 18.9148C17.9722 18.3899 18.3901 17.9719 18.9151 17.7491L20.3648 17.1339C20.8881 16.9118 21.1369 16.3113 20.9239 15.7842L20.3338 14.3241C20.1201 13.7954 20.1201 13.2043 20.3338 12.6755L20.9239 11.2154C21.1369 10.6883 20.8881 10.0878 20.3648 9.8657L18.9151 9.25049C18.3901 9.02771 17.9722 8.60976 17.7494 8.08478L17.1342 6.63505C16.9121 6.11173 16.3116 5.86298 15.7845 6.07599L14.3243 6.66608C13.7956 6.87977 13.2045 6.87977 12.6758 6.66608L11.2156 6.07599C10.6886 5.86298 10.088 6.11173 9.86595 6.63505L9.25074 8.08478C9.02796 8.60976 8.61001 9.02771 8.08503 9.25049L6.63529 9.8657C6.11197 10.0878 5.86322 10.6883 6.07623 11.2154L6.66633 12.6755C6.88002 13.2043 6.88002 13.7954 6.66633 14.3241L6.07623 15.7842C5.86322 16.3113 6.11197 16.9118 6.63529 17.1339L8.08503 17.7491C8.61001 17.9719 9.02796 18.3899 9.25074 18.9148L9.86595 20.3646C10.088 20.8879 10.6886 21.1367 11.2156 20.9236L12.6758 20.3335C13.2045 20.1199 13.7956 20.1199 14.3243 20.3335ZM13.3536 9.99999L13.7071 10.3535L13.7163 10.3627L13.7254 10.3718L13.7345 10.3809L13.7436 10.39L13.7798 10.4263L13.7889 10.4353L13.7979 10.4443L13.8069 10.4533L13.8158 10.4623L13.8337 10.4802L13.8516 10.498L13.8694 10.5158L13.8871 10.5335L13.9224 10.5688L13.94 10.5864L13.9487 10.5952L13.9575 10.6039L13.9923 10.6387L14.001 10.6474L14.0096 10.6561L14.0269 10.6734L14.0613 10.7078L14.1295 10.7759L14.1379 10.7844L14.1464 10.7928L14.1548 10.8013L14.1633 10.8097L14.1968 10.8433L14.2634 10.9098L14.3292 10.9757L14.3619 11.0083L14.37 11.0164L14.3781 11.0245L14.3943 11.0408L14.4105 11.0569L14.4266 11.073L14.4346 11.0811L14.4427 11.0891L14.4587 11.1052L14.4667 11.1132L14.4747 11.1211L14.4907 11.1371L14.5225 11.1689L14.6481 11.2945L14.6791 11.3256L14.71 11.3565L14.7714 11.4179L14.7791 11.4255L14.7867 11.4332L14.802 11.4484L14.8096 11.456L14.8172 11.4636L14.8248 11.4712L14.8324 11.4788L14.8626 11.5091L14.8702 11.5166L14.8777 11.5242L14.8853 11.5317L14.8928 11.5392L14.9003 11.5468L14.9078 11.5543L14.9229 11.5693L14.9304 11.5768L14.9378 11.5843L14.9528 11.5992L14.9827 11.6291L15.0124 11.6588L15.0272 11.6737L15.0346 11.6811L15.0421 11.6885L15.0716 11.7181L15.1305 11.7769L15.2473 11.8938L15.3053 11.9518L15.3343 11.9807L15.3631 12.0096L15.3704 12.0168L15.3776 12.024L15.392 12.0384L15.4208 12.0672L15.428 12.0744L15.4351 12.0816L15.4423 12.0888L15.4495 12.0959L15.4567 12.1031L15.4639 12.1103L15.471 12.1175L15.4782 12.1247L15.4926 12.139L15.4997 12.1462L15.5069 12.1533L15.5212 12.1677L15.5356 12.182L15.5499 12.1963L15.5642 12.2106L15.5785 12.2249L15.5928 12.2392L15.6071 12.2535L15.6142 12.2607L15.6214 12.2678L15.65 12.2964L15.6785 12.325L15.6928 12.3393L15.7 12.3464L15.7071 12.3535L15.936 12.5824L15.9503 12.5968L15.9575 12.604L15.9647 12.6111L15.9935 12.6399L16.0078 12.6543L16.015 12.6615L16.0222 12.6687L16.0366 12.6831L16.0511 12.6975L16.0655 12.7119L16.0799 12.7264L16.1089 12.7553L16.1669 12.8133L16.2837 12.9302L16.4018 13.0483L16.4167 13.0631L16.4241 13.0706L16.4316 13.078L16.439 13.0855L16.4465 13.0929L16.4539 13.1004L16.4614 13.1078L16.5214 13.1679L16.5516 13.198L16.5819 13.2283L16.5894 13.2359L16.597 13.2435L16.6046 13.2511L16.6122 13.2587L16.6428 13.2892L16.6504 13.2969L16.6581 13.3045L16.6657 13.3122L16.6734 13.3199L16.6811 13.3275L16.6888 13.3352L16.7042 13.3506L16.7351 13.3815L16.7661 13.4126L16.7973 13.4438L16.813 13.4594L16.8286 13.4751L16.8918 13.5382L16.9236 13.57L16.9395 13.5859L16.9475 13.5939L16.9555 13.6019L17.0199 13.6663L17.1508 13.7973L17.4219 14.0684L17.4568 14.1032L17.4743 14.1207L17.483 14.1295L17.4918 14.1383L17.5094 14.1559L17.5183 14.1647L17.5271 14.1735L17.536 14.1824L17.5448 14.1913L17.5626 14.2091L17.5805 14.2269L17.5894 14.2359L17.5984 14.2448L17.6164 14.2628L17.6344 14.2808L17.6434 14.2899L17.6525 14.2989L17.6706 14.3171L17.6888 14.3353L17.698 14.3444L17.7071 14.3535L17 15.0607L16.9817 15.0424L16.9726 15.0333L16.9635 15.0242L16.9454 15.006L16.9363 14.997L16.9273 14.9879L16.9183 14.9789L16.9092 14.9699L16.8913 14.9519L16.8823 14.943L16.8734 14.934L16.8555 14.9162L16.8466 14.9073L16.8377 14.8984L16.8289 14.8895L16.82 14.8807L16.8112 14.8718L16.8023 14.863L16.7935 14.8542L16.7847 14.8454L16.7759 14.8366L16.7672 14.8278L16.7584 14.819L16.7497 14.8103L16.7148 14.7755L16.6802 14.7409L16.6458 14.7064L16.6287 14.6893L16.6116 14.6723L16.5946 14.6552L16.5861 14.6468L16.5776 14.6383L16.5692 14.6298L16.5607 14.6214L16.5523 14.6129L16.5438 14.6045L16.5103 14.5709L16.4769 14.5375L16.4686 14.5292L16.4603 14.5209L16.4437 14.5044L16.4107 14.4714L16.4025 14.4631L16.3943 14.4549L16.3779 14.4385L16.3453 14.4059L16.3371 14.3978L16.329 14.3897L16.3128 14.3735L16.1847 14.2453L15.9357 13.9963L15.9204 13.981L15.9128 13.9734L15.9051 13.9658L15.8975 13.9582L15.8899 13.9506L15.8823 13.943L15.8747 13.9354L15.8445 13.9051L15.8143 13.875L15.7543 13.815L15.7245 13.7851L15.6947 13.7554L15.6355 13.6961L15.6207 13.6814L15.6134 13.674L15.606 13.6667L15.5987 13.6593L15.5913 13.652L15.5766 13.6373L15.4598 13.5204L15.4018 13.4624L15.3728 13.4335L15.344 13.4046L15.3151 13.3758L15.3007 13.3614L15.2935 13.3542L15.2863 13.347L15.2576 13.3183L15.2504 13.3111L15.2432 13.3039L15.2361 13.2967L15.2289 13.2895L15.2002 13.2609L15.1859 13.2465L15.1716 13.2322L15.1572 13.2179L15.1429 13.2036L15.1286 13.1893L15.1143 13.175L15.1 13.1607L15.0857 13.1464L15.0786 13.1392L15.0714 13.1321L15.0571 13.1178L15.0286 13.0892L15.0214 13.0821L15.0143 13.0749L15 13.0607L14.9929 13.0535L14.9857 13.0464L14.9714 13.0321L14.9429 13.0035L14.9143 12.9749L14.9071 12.9678L14.9 12.9606L14.8857 12.9463L14.8714 12.932L14.8642 12.9249L14.8571 12.9177L14.8499 12.9106L14.8428 12.9034L14.8284 12.8891L14.8141 12.8748L14.807 12.8676L14.7998 12.8604L14.7711 12.8318L14.7639 12.8246L14.7568 12.8174L14.7496 12.8102L14.7424 12.8031L14.728 12.7887L14.7137 12.7743L14.7065 12.7671L14.6993 12.7599L14.6921 12.7527L14.6849 12.7455L14.6705 12.7311L14.6632 12.7239L14.656 12.7167L14.6416 12.7023L14.6272 12.6878L14.5982 12.6589L14.5838 12.6444L14.5693 12.6299L14.562 12.6227L14.5547 12.6154L14.5402 12.6009L14.5257 12.5863L14.5111 12.5718L14.5038 12.5645L14.4965 12.5572L14.4819 12.5426L14.4527 12.5134L14.4454 12.506L14.438 12.4987L14.4307 12.4914L14.4234 12.484L14.3645 12.4252L14.3349 12.3956L14.3275 12.3882L14.3201 12.3808L14.3053 12.3659L14.2755 12.3362L14.2457 12.3064L14.1857 12.2463L14.1782 12.2388L14.1706 12.2313L14.1555 12.2162L14.1253 12.1859L14.1101 12.1707L14.1025 12.1631L14.0949 12.1555L14.0643 12.125L14.0567 12.1173L14.049 12.1097L14.0414 12.102L14.0337 12.0944L14.0029 12.0636L13.972 12.0327L13.9643 12.0249L13.9565 12.0172L13.9487 12.0094L13.941 12.0016L13.9098 11.9704L13.8785 11.9391L13.847 11.9076L13.8153 11.876L13.7995 11.8601L13.7836 11.8442L13.7676 11.8283L13.7596 11.8203L13.7516 11.8123L13.6872 11.7479L13.5563 11.617L13.5231 11.5838L13.5064 11.5671L13.4897 11.5504L13.4814 11.542L13.473 11.5336L13.4646 11.5252L13.4562 11.5168L13.4477 11.5084L13.4393 11.4999L13.4308 11.4915L13.4224 11.483L13.3542 11.4149L13.3536 11.4142L9.70711 15.0607L9 14.3535L13 10.3535L13.3536 9.99999ZM13.3535 13.9999L13.7071 14.3535L13.7151 14.3615L13.723 14.3694L13.7309 14.3773L13.7387 14.3851L13.7465 14.3929L13.7543 14.4007L13.762 14.4084L13.7696 14.416L13.7772 14.4236L13.7848 14.4312L13.7923 14.4387L13.7998 14.4462L13.8072 14.4536L13.8146 14.461L13.8219 14.4683L13.8292 14.4756L13.8364 14.4828L13.8436 14.49L13.8508 14.4972L13.8579 14.5043L13.865 14.5113L13.872 14.5184L13.8789 14.5253L13.8859 14.5323L13.8928 14.5392L13.8996 14.546L13.9064 14.5528L13.9132 14.5596L13.9199 14.5663L13.9266 14.5729L13.9332 14.5796L13.9398 14.5862L13.9463 14.5927L13.9528 14.5992L13.9593 14.6057L13.9657 14.6121L13.9721 14.6185L13.9784 14.6248L13.9847 14.6311L13.991 14.6374L13.9972 14.6436L14.0034 14.6498L14.0095 14.6559L14.0156 14.662L14.0216 14.668L14.0277 14.6741L14.0336 14.68L14.0396 14.686L14.0455 14.6919L14.0513 14.6977L14.0572 14.7035L14.0629 14.7093L14.0687 14.7151L14.0744 14.7208L14.0801 14.7264L14.0857 14.7321L14.0913 14.7377L14.0968 14.7432L14.1023 14.7487L14.1078 14.7542L14.1133 14.7597L14.1187 14.7651L14.124 14.7704L14.1294 14.7758L14.1347 14.7811L14.1399 14.7863L14.1452 14.7916L14.1504 14.7968L14.1555 14.8019L14.1606 14.807L14.1657 14.8121L14.1708 14.8172L14.1758 14.8222L14.1808 14.8272L14.1857 14.8321L14.1906 14.837L14.1955 14.8419L14.2004 14.8468L14.2052 14.8516L14.21 14.8564L14.2147 14.8611L14.2194 14.8658L14.2241 14.8705L14.2288 14.8751L14.2334 14.8798L14.238 14.8843L14.2425 14.8889L14.247 14.8934L14.2515 14.8979L14.256 14.9024L14.2604 14.9068L14.2648 14.9112L14.2692 14.9156L14.2735 14.9199L14.2778 14.9242L14.2821 14.9285L14.2863 14.9327L14.2905 14.9369L14.2947 14.9411L14.2989 14.9453L14.303 14.9494L14.3071 14.9535L14.3112 14.9576L14.3152 14.9616L14.3192 14.9656L14.3232 14.9696L14.3271 14.9735L14.3311 14.9775L14.335 14.9814L14.3388 14.9852L14.3427 14.9891L14.3465 14.9929L14.3503 14.9967L14.354 15.0004L14.3578 15.0042L14.3615 15.0079L14.3652 15.0116L14.3688 15.0152L14.3725 15.0189L14.3761 15.0225L14.3796 15.026L14.3832 15.0296L14.3867 15.0331L14.3902 15.0366L14.3937 15.0401L14.3972 15.0436L14.4006 15.047L14.404 15.0504L14.4074 15.0538L14.4107 15.0571L14.4141 15.0605L14.4174 15.0638L14.4207 15.0671L14.4239 15.0703L14.4272 15.0736L14.4304 15.0768L14.4336 15.08L14.4368 15.0832L14.4399 15.0863L14.443 15.0894L14.4462 15.0925L14.4492 15.0956L14.4523 15.0987L14.4553 15.1017L14.4584 15.1048L14.4614 15.1078L14.4643 15.1107L14.4673 15.1137L14.4703 15.1166L14.4732 15.1196L14.4761 15.1225L14.479 15.1253L14.4818 15.1282L14.4847 15.131L14.4875 15.1339L14.4903 15.1367L14.4931 15.1395L14.4958 15.1422L14.4986 15.145L14.5013 15.1477L14.504 15.1504L14.5067 15.1531L14.5094 15.1558L14.512 15.1584L14.5147 15.1611L14.5173 15.1637L14.5199 15.1663L14.5225 15.1689L14.5251 15.1715L14.5276 15.174L14.5302 15.1766L14.5327 15.1791L14.5352 15.1816L14.5377 15.1841L14.5402 15.1866L14.5427 15.189L14.5451 15.1915L14.5475 15.1939L14.55 15.1964L14.5524 15.1988L14.5547 15.2011L14.5571 15.2035L14.5595 15.2059L14.5618 15.2082L14.5642 15.2106L14.5665 15.2129L14.5688 15.2152L14.5711 15.2175L14.5734 15.2198L14.5756 15.222L14.5779 15.2243L14.5802 15.2265L14.5824 15.2288L14.5846 15.231L14.5868 15.2332L14.589 15.2354L14.5912 15.2376L14.5934 15.2398L14.5955 15.2419L14.5977 15.2441L14.5998 15.2462L14.602 15.2484L14.6041 15.2505L14.6062 15.2526L14.6083 15.2547L14.6104 15.2568L14.6125 15.2589L14.6146 15.261L14.6166 15.263L14.6187 15.2651L14.6208 15.2671L14.6228 15.2692L14.6248 15.2712L14.6268 15.2732L14.6289 15.2753L14.6309 15.2773L14.6329 15.2793L14.6349 15.2813L14.6369 15.2833L14.6388 15.2852L14.6408 15.2872L14.6428 15.2892L14.6447 15.2911L14.6467 15.2931L14.6486 15.295L14.6506 15.297L14.6525 15.2989L14.6544 15.3008L14.6564 15.3028L14.6583 15.3047L14.6602 15.3066L14.6621 15.3085L14.664 15.3104L14.6659 15.3123L14.6678 15.3142L14.6697 15.3161L14.6716 15.318L14.6735 15.3199L14.6754 15.3218L14.6773 15.3237L14.6791 15.3255L14.681 15.3274L14.6829 15.3293L14.6848 15.3312L14.6866 15.333L14.6885 15.3349L14.6904 15.3368L14.6922 15.3386L14.6941 15.3405L14.6959 15.3423L14.6978 15.3442L14.6997 15.3461L14.7015 15.3479L14.7034 15.3498L14.7052 15.3516L14.7071 15.3535L14.7089 15.3553L14.7108 15.3572L14.7126 15.359L14.7145 15.3609L14.7164 15.3628L14.7182 15.3646L14.7201 15.3665L14.7219 15.3683L14.7238 15.3702L14.7257 15.3721L14.7275 15.3739L14.7294 15.3758L14.7313 15.3777L14.7331 15.3795L14.735 15.3814L14.7369 15.3833L14.7388 15.3852L14.7406 15.387L14.7425 15.3889L14.7444 15.3908L14.7463 15.3927L14.7482 15.3946L14.7501 15.3965L14.752 15.3984L14.7539 15.4003L14.7559 15.4023L14.7578 15.4042L14.7597 15.4061L14.7616 15.408L14.7636 15.41L14.7655 15.4119L14.7675 15.4139L14.7694 15.4158L14.7714 15.4178L14.7733 15.4197L14.7753 15.4217L14.7773 15.4237L14.7793 15.4257L14.7813 15.4277L14.7833 15.4297L14.7853 15.4317L14.7873 15.4337L14.7893 15.4357L14.7914 15.4378L14.7934 15.4398L14.7955 15.4418L14.7975 15.4439L14.7996 15.446L14.8017 15.448L14.8037 15.4501L14.8058 15.4522L14.8079 15.4543L14.8101 15.4564L14.8122 15.4586L14.8143 15.4607L14.8165 15.4628L14.8186 15.465L14.8208 15.4672L14.8229 15.4693L14.8251 15.4715L14.8273 15.4737L14.8295 15.4759L14.8318 15.4782L14.834 15.4804L14.8362 15.4826L14.8385 15.4849L14.8408 15.4872L14.8431 15.4895L14.8454 15.4917L14.8477 15.4941L14.85 15.4964L14.8523 15.4987L14.8547 15.5011L14.857 15.5034L14.8594 15.5058L14.8618 15.5082L14.8642 15.5106L14.8666 15.513L14.8691 15.5154L14.8715 15.5179L14.874 15.5204L14.8764 15.5228L14.8789 15.5253L14.8814 15.5278L14.884 15.5304L14.8865 15.5329L14.8891 15.5355L14.8916 15.538L14.8942 15.5406L14.8968 15.5432L14.8995 15.5459L14.9021 15.5485L14.9048 15.5512L14.9074 15.5538L14.9101 15.5565L14.9128 15.5592L14.9156 15.562L14.9183 15.5647L14.9211 15.5675L14.9239 15.5703L14.9267 15.5731L14.9295 15.5759L14.9323 15.5787L14.9352 15.5816L14.9381 15.5845L14.941 15.5874L14.9439 15.5903L14.9468 15.5932L14.9498 15.5962L14.9528 15.5992L14.9558 15.6022L14.9588 15.6052L14.9619 15.6082L14.9649 15.6113L14.968 15.6144L14.9711 15.6175L14.9742 15.6206L14.9774 15.6238L14.9806 15.627L14.9838 15.6302L14.987 15.6334L14.9902 15.6366L14.9935 15.6399L14.9968 15.6432L15.0001 15.6465L15.0034 15.6498L15.0068 15.6532L15.0102 15.6565L15.0136 15.66L15.017 15.6634L15.0204 15.6668L15.0239 15.6703L15.0274 15.6738L15.031 15.6774L15.0345 15.6809L15.0381 15.6845L15.0417 15.6881L15.0453 15.6917L15.049 15.6954L15.0527 15.6991L15.0564 15.7028L15.0601 15.7065L15.0639 15.7103L15.0677 15.7141L15.0715 15.7179L15.0753 15.7217L15.0792 15.7256L15.0831 15.7295L15.087 15.7334L15.091 15.7374L15.0949 15.7413L15.099 15.7453L15.103 15.7494L15.1071 15.7535L15.1112 15.7576L15.1153 15.7617L15.1194 15.7658L15.1236 15.77L15.1278 15.7742L15.1321 15.7785L15.1364 15.7827L15.1407 15.7871L15.145 15.7914L15.1494 15.7958L15.1538 15.8001L15.1582 15.8046L15.1626 15.809L15.1671 15.8135L15.1716 15.818L15.1762 15.8226L15.1808 15.8272L15.1854 15.8318L15.19 15.8364L15.1947 15.8411L15.1994 15.8458L15.2042 15.8506L15.209 15.8554L15.2138 15.8602L15.2186 15.865L15.2235 15.8699L15.2284 15.8748L15.2334 15.8798L15.2384 15.8848L15.2434 15.8898L15.2484 15.8948L15.2535 15.8999L15.2586 15.905L15.2638 15.9102L15.269 15.9154L15.2742 15.9206L15.2795 15.9259L15.2848 15.9312L15.2901 15.9365L15.2955 15.9419L15.3009 15.9473L15.3063 15.9527L15.3118 15.9582L15.3173 15.9637L15.3229 15.9693L15.3285 15.9749L15.3341 15.9805L15.3398 15.9862L15.3455 15.9919L15.3512 15.9976L15.357 16.0034L15.3628 16.0092L15.3687 16.0151L15.3746 16.021L15.3805 16.0269L15.3865 16.0329L15.3925 16.0389L15.3986 16.045L15.4047 16.0511L15.4108 16.0572L15.417 16.0634L15.4232 16.0696L15.4294 16.0758L15.4357 16.0821L15.4421 16.0885L15.4485 16.0948L15.4549 16.1013L15.4613 16.1077L15.4678 16.1142L15.4744 16.1208L15.481 16.1274L15.4876 16.134L15.4943 16.1407L15.501 16.1474L15.5077 16.1541L15.5145 16.1609L15.5214 16.1678L15.5283 16.1747L15.5352 16.1816L15.5422 16.1886L15.5492 16.1956L15.5563 16.2027L15.5634 16.2098L15.5705 16.2169L15.5777 16.2241L15.585 16.2314L15.5922 16.2386L15.5996 16.246L15.607 16.2534L15.6144 16.2608L15.6218 16.2682L15.6294 16.2758L15.6369 16.2833L15.6445 16.2909L15.6522 16.2986L15.6599 16.3063L15.6676 16.314L15.6754 16.3218L15.6833 16.3297L15.6912 16.3376L15.6991 16.3455L15.7071 16.3535L15 17.0606L14.992 17.0526L14.984 17.0447L14.9762 17.0368L14.9683 17.0289L14.9605 17.0211L14.9528 17.0134L14.9451 17.0057L14.9374 16.998L14.9298 16.9904L14.9223 16.9829L14.9147 16.9753L14.9073 16.9679L14.8998 16.9605L14.8925 16.9531L14.8851 16.9458L14.8779 16.9385L14.8706 16.9312L14.8634 16.924L14.8563 16.9169L14.8492 16.9098L14.8421 16.9027L14.8351 16.8957L14.8281 16.8887L14.8212 16.8818L14.8143 16.8749L14.8074 16.868L14.8006 16.8612L14.7939 16.8545L14.7872 16.8478L14.7805 16.8411L14.7739 16.8345L14.7673 16.8279L14.7607 16.8213L14.7542 16.8148L14.7478 16.8084L14.7413 16.802L14.735 16.7956L14.7286 16.7892L14.7223 16.7829L14.7161 16.7767L14.7099 16.7705L14.7037 16.7643L14.6975 16.7582L14.6915 16.7521L14.6854 16.746L14.6794 16.74L14.6734 16.734L14.6675 16.7281L14.6616 16.7222L14.6557 16.7163L14.6499 16.7105L14.6441 16.7047L14.6384 16.699L14.6327 16.6933L14.627 16.6876L14.6214 16.682L14.6158 16.6764L14.6102 16.6708L14.6047 16.6653L14.5992 16.6598L14.5938 16.6544L14.5884 16.649L14.583 16.6436L14.5777 16.6383L14.5724 16.633L14.5671 16.6277L14.5619 16.6225L14.5567 16.6173L14.5515 16.6121L14.5464 16.607L14.5413 16.6019L14.5363 16.5969L14.5313 16.5919L14.5263 16.5869L14.5213 16.5819L14.5164 16.577L14.5115 16.5721L14.5067 16.5673L14.5019 16.5625L14.4971 16.5577L14.4923 16.5529L14.4876 16.5482L14.4829 16.5436L14.4783 16.5389L14.4737 16.5343L14.4691 16.5297L14.4645 16.5251L14.46 16.5206L14.4555 16.5161L14.4511 16.5117L14.4466 16.5073L14.4422 16.5029L14.4379 16.4985L14.4335 16.4942L14.4292 16.4899L14.425 16.4856L14.4207 16.4813L14.4165 16.4771L14.4123 16.4729L14.4082 16.4688L14.404 16.4647L14.4 16.4606L14.3959 16.4565L14.3918 16.4525L14.3878 16.4484L14.3839 16.4445L14.3799 16.4405L14.376 16.4366L14.3721 16.4327L14.3682 16.4288L14.3644 16.425L14.3605 16.4212L14.3568 16.4174L14.353 16.4136L14.3493 16.4099L14.3456 16.4062L14.3419 16.4025L14.3382 16.3988L14.3346 16.3952L14.331 16.3916L14.3274 16.388L14.3238 16.3845L14.3203 16.3809L14.3168 16.3774L14.3133 16.3739L14.3099 16.3705L14.3065 16.3671L14.303 16.3637L14.2997 16.3603L14.2963 16.3569L14.293 16.3536L14.2897 16.3503L14.2864 16.347L14.2831 16.3437L14.2799 16.3405L14.2767 16.3373L14.2735 16.3341L14.2703 16.3309L14.2671 16.3277L14.264 16.3246L14.2609 16.3215L14.2578 16.3184L14.2547 16.3154L14.2517 16.3123L14.2487 16.3093L14.2457 16.3063L14.2427 16.3033L14.2397 16.3003L14.2368 16.2974L14.2339 16.2945L14.231 16.2916L14.2281 16.2887L14.2252 16.2858L14.2224 16.283L14.2196 16.2802L14.2168 16.2774L14.214 16.2746L14.2112 16.2718L14.2085 16.2691L14.2057 16.2663L14.203 16.2636L14.2003 16.2609L14.1977 16.2583L14.195 16.2556L14.1924 16.253L14.1897 16.2503L14.1871 16.2477L14.1845 16.2451L14.182 16.2426L14.1794 16.24L14.1769 16.2375L14.1743 16.2349L14.1718 16.2324L14.1693 16.2299L14.1669 16.2275L14.1644 16.225L14.1619 16.2226L14.1595 16.2201L14.1571 16.2177L14.1547 16.2153L14.1523 16.2129L14.1499 16.2105L14.1476 16.2082L14.1452 16.2058L14.1429 16.2035L14.1406 16.2012L14.1382 16.1989L14.1359 16.1966L14.1337 16.1943L14.1314 16.192L14.1291 16.1897L14.1269 16.1875L14.1247 16.1853L14.1224 16.183L14.1202 16.1808L14.118 16.1786L14.1158 16.1765L14.1137 16.1743L14.1115 16.1721L14.1093 16.17L14.1072 16.1678L14.1051 16.1657L14.1029 16.1636L14.1008 16.1614L14.0987 16.1593L14.0966 16.1572L14.0945 16.1552L14.0925 16.1531L14.0904 16.151L14.0883 16.149L14.0863 16.1469L14.0843 16.1449L14.0822 16.1428L14.0802 16.1408L14.0782 16.1388L14.0762 16.1368L14.0742 16.1348L14.0722 16.1328L14.0702 16.1308L14.0682 16.1288L14.0662 16.1268L14.0643 16.1249L14.0623 16.1229L14.0604 16.121L14.0584 16.119L14.0565 16.1171L14.0545 16.1151L14.0526 16.1132L14.0507 16.1113L14.0487 16.1094L14.0468 16.1074L14.0449 16.1055L14.043 16.1036L14.0411 16.1017L14.0392 16.0998L14.0373 16.0979L14.0354 16.096L14.0335 16.0942L14.0317 16.0923L14.0298 16.0904L14.0279 16.0885L14.026 16.0866L14.0242 16.0848L14.0223 16.0829L14.0204 16.081L14.0186 16.0792L14.0167 16.0773L14.0148 16.0754L14.013 16.0736L14.0111 16.0717L14.0092 16.0699L14.0074 16.068L14.0055 16.0661L14.0037 16.0643L14.0018 16.0624L14 16.0606L13.9981 16.0587L13.9963 16.0569L13.9944 16.055L13.9925 16.0532L13.9907 16.0513L13.9888 16.0494L13.987 16.0476L13.9851 16.0457L13.9833 16.0439L13.9814 16.042L13.9795 16.0401L13.9777 16.0383L13.9758 16.0364L13.9739 16.0345L13.972 16.0326L13.9702 16.0308L13.9683 16.0289L13.9664 16.027L13.9645 16.0251L13.9626 16.0232L13.9607 16.0213L13.9588 16.0194L13.9569 16.0175L13.955 16.0156L13.9531 16.0137L13.9512 16.0118L13.9493 16.0099L13.9473 16.008L13.9454 16.006L13.9435 16.0041L13.9415 16.0021L13.9396 16.0002L13.9376 15.9982L13.9357 15.9963L13.9337 15.9943L13.9317 15.9923L13.9297 15.9904L13.9278 15.9884L13.9258 15.9864L13.9238 15.9844L13.9218 15.9824L13.9197 15.9804L13.9177 15.9783L13.9157 15.9763L13.9136 15.9743L13.9116 15.9722L13.9095 15.9701L13.9075 15.9681L13.9054 15.966L13.9033 15.9639L13.9012 15.9618L13.8991 15.9597L13.897 15.9576L13.8949 15.9555L13.8927 15.9533L13.8906 15.9512L13.8884 15.949L13.8863 15.9469L13.8841 15.9447L13.8819 15.9425L13.8797 15.9403L13.8775 15.9381L13.8753 15.9359L13.873 15.9337L13.8708 15.9314L13.8685 15.9292L13.8663 15.9269L13.864 15.9246L13.8617 15.9223L13.8594 15.92L13.8571 15.9177L13.8547 15.9153L13.8524 15.913L13.85 15.9106L13.8476 15.9083L13.8453 15.9059L13.8428 15.9035L13.8404 15.901L13.838 15.8986L13.8355 15.8962L13.8331 15.8937L13.8306 15.8912L13.8281 15.8887L13.8256 15.8862L13.8231 15.8837L13.8205 15.8811L13.818 15.8786L13.8154 15.876L13.8128 15.8734L13.8102 15.8708L13.8076 15.8682L13.8049 15.8655L13.8023 15.8629L13.7996 15.8602L13.7969 15.8575L13.7942 15.8548L13.7915 15.8521L13.7887 15.8493L13.786 15.8466L13.7832 15.8438L13.7804 15.841L13.7775 15.8382L13.7747 15.8353L13.7718 15.8325L13.769 15.8296L13.7661 15.8267L13.7631 15.8238L13.7602 15.8208L13.7572 15.8179L13.7543 15.8149L13.7513 15.8119L13.7482 15.8088L13.7452 15.8058L13.7421 15.8027L13.739 15.7997L13.7359 15.7965L13.7328 15.7934L13.7297 15.7903L13.7265 15.7871L13.7233 15.7839L13.7201 15.7807L13.7168 15.7774L13.7136 15.7742L13.7103 15.7709L13.707 15.7676L13.7036 15.7642L13.7003 15.7609L13.6969 15.7575L13.6935 15.7541L13.6901 15.7507L13.6866 15.7472L13.6831 15.7437L13.6796 15.7402L13.6761 15.7367L13.6725 15.7331L13.669 15.7296L13.6654 15.726L13.6617 15.7223L13.6581 15.7187L13.6544 15.715L13.6507 15.7113L13.6469 15.7076L13.6432 15.7038L13.6394 15.7L13.6356 15.6962L13.6317 15.6923L13.6279 15.6885L13.624 15.6846L13.62 15.6806L13.6161 15.6767L13.6121 15.6727L13.6081 15.6687L13.6041 15.6647L13.6 15.6606L13.5959 15.6565L13.5918 15.6524L13.5876 15.6482L13.5834 15.644L13.5792 15.6398L13.575 15.6356L13.5707 15.6313L13.5664 15.627L13.5621 15.6227L13.5577 15.6183L13.5533 15.6139L13.5489 15.6095L13.5444 15.605L13.5399 15.6005L13.5354 15.596L13.5308 15.5915L13.5263 15.5869L13.5216 15.5823L13.517 15.5776L13.5123 15.5729L13.5076 15.5682L13.5029 15.5635L13.4981 15.5587L13.4933 15.5539L13.4884 15.549L13.4835 15.5441L13.4786 15.5392L13.4737 15.5343L13.4687 15.5293L13.4637 15.5243L13.4586 15.5192L13.4535 15.5141L13.4484 15.509L13.4433 15.5039L13.4381 15.4987L13.4328 15.4934L13.4276 15.4882L13.4223 15.4829L13.4169 15.4776L13.4116 15.4722L13.4062 15.4668L13.4007 15.4613L13.3952 15.4558L13.3897 15.4503L13.3842 15.4448L13.3786 15.4392L13.3729 15.4336L13.3673 15.4279L13.3616 15.4222L13.3558 15.4164L13.3535 15.4141L11.7071 17.0606L11 16.3535L13 14.3535L13.3535 13.9999Z" fill="#3F3F3F"/>
</svg>
