<svg width="28" height="28" viewBox="0 0 28 28" fill="none" xmlns="http://www.w3.org/2000/svg">
<path d="M4 11.2639V4.87123C4 4.64017 4.09578 4.41857 4.26627 4.25518C4.43675 4.09179 4.66799 4 4.90909 4H23.0909C23.332 4 23.5632 4.09179 23.7337 4.25518C23.9042 4.41857 24 4.64017 24 4.87123V11.2639C24 20.4118 15.8977 23.4394 14.2841 23.9512C14.1008 24.0163 13.8992 24.0163 13.7159 23.9512C12.1023 23.4394 4 20.4118 4 11.2639Z" stroke="white" stroke-linecap="round" stroke-linejoin="round"/>
<path d="M12.3635 11.0227V9.38636C12.3635 8.95237 12.5359 8.53616 12.8428 8.22928C13.1497 7.9224 13.5659 7.75 13.9999 7.75C14.4339 7.75 14.8501 7.9224 15.157 8.22928C15.4639 8.53616 15.6363 8.95237 15.6363 9.38636V11.0227" fill="#00C802"/>
<path d="M12.3635 11.0227V9.38636C12.3635 8.95237 12.5359 8.53616 12.8428 8.22928C13.1497 7.9224 13.5659 7.75 13.9999 7.75C14.4339 7.75 14.8501 7.9224 15.157 8.22928C15.4639 8.53616 15.6363 8.95237 15.6363 9.38636V11.0227" stroke="white" stroke-linecap="round" stroke-linejoin="round"/>
<path d="M17.6364 11.0224H10.3636C10.1628 11.0224 10 11.1852 10 11.386V16.4769C10 16.6778 10.1628 16.8406 10.3636 16.8406H17.6364C17.8372 16.8406 18 16.6778 18 16.4769V11.386C18 11.1852 17.8372 11.0224 17.6364 11.0224Z" fill="#00C802" stroke="white" stroke-linecap="round" stroke-linejoin="round"/>
<path d="M15.5429 13L13.4465 15L12.4 14" stroke="white" stroke-linecap="round" stroke-linejoin="round"/>
</svg>
