<svg width="60" height="60" viewBox="0 0 60 60" fill="none" xmlns="http://www.w3.org/2000/svg">
<circle cx="30" cy="30" r="29.75" fill="white" stroke="#3F3F3F" stroke-width="0.5"/>
<path d="M42.5 25.5C40.5 24.5 40.5 26.5 40.5 27C40 28.5001 39.1 31.9002 39.5 33.5002C43.5 32.0002 44.5 26.5 42.5 25.5Z" fill="#A67145"/>
<path d="M19 25.0002C21 23.8002 21.5 25.1669 21.5 26.0002C22.3333 28.6668 23.5 33.8 21.5 33C19 32 16.5 26.5002 19 25.0002Z" fill="#A67145"/>
<mask id="mask0_3420_85217" style="mask-type:alpha" maskUnits="userSpaceOnUse" x="0" y="0" width="60" height="60">
<circle r="29.5" transform="matrix(-1 0 0 1 30 30)" fill="#C4C4C4" stroke="black"/>
</mask>
<g mask="url(#mask0_3420_85217)">
<path d="M12.5 47.5C9.49997 49 8.99997 51.5 9.49997 52.5V54.5C12 56.6667 19.5 61.1 29.5 61.5C39.5 61.9 48.3333 56.6667 51.5 54C52.6667 52.6667 52 48.5 48.5 47C45 45.5 37.6667 42.6667 35.5 42L26 41.5C22.5 43 14.9 46.3 12.5 47.5Z" fill="#FBD743"/>
<path d="M23 43L25.5 41H35.5L39 43L32.5 47V60H29V47C27 46.2 24.1667 44 23 43Z" fill="#BC1A03"/>
<path d="M25.5 42V39H36V41.5C35.3333 42.3333 34 44 30.5 44C28.5 44 26.5 43 25.5 42Z" fill="#A67145"/>
<path d="M20.5 31C19.5 27.5 19.5 21.5 21.5 18.5C23.8333 17.8333 29.5 16.5 33.5 16.5C38.5 16.5 41.5 20 41.5 23C41.5 26 41 34 36.5 39.5C32 45 27 41.5 25.5 40C24 38.5 21.5 34.5 20.5 31Z" fill="#C88954"/>
<circle cx="30.75" cy="45.75" r="0.75" fill="#F98532"/>
<circle cx="30.75" cy="54.75" r="0.75" fill="#F98532"/>
<path d="M23 26.4997C23.5 26.1664 25.1 25.5997 27.5 25.9997M38 25.9998C37.3333 25.8331 35.6 25.5996 34 25.9997" stroke="black" stroke-width="0.8" stroke-linecap="round"/>
<path d="M37.5 27.9998C36.3 27.1998 35 27.6665 34.5 27.9998C34.9 28.7997 35.6667 28.9999 36 29C36.5 29 37.5 28.8 37.5 27.9998Z" fill="black"/>
<path d="M27 27.9998C25.8 27.1998 24.5 27.6665 24 27.9998C24.4 28.7997 25.1667 28.9999 25.5 29C26 29 27 28.8 27 27.9998Z" fill="black"/>
<path d="M27 35C28.6667 35.1667 32.5 35.4 34.5 35C32.9 37.4 28.5 38 27 35Z" fill="white"/>
<path d="M18.5 18.5001C18.1 22.5001 19.3333 26.1668 20 27.5001C20.1666 25.3334 20.9 20.6 22.5 19C26.5 22.5 35 23 37.161 18.5001C39.322 19.0002 41 22.5 41.5 27C44.3 15 39.6667 10.6668 37 10.0001C31 6.50013 28 6.50028 21.5 10.5003L21.4998 10.5002C20.4998 10.0002 18.5 9.00028 19 12.0001C15 10.5001 16 14.0001 18.5 18.5001Z" fill="black"/>
</g>
<circle cx="30" cy="30" r="29.75" stroke="#3F3F3F" stroke-width="0.5"/>
</svg>
