<svg width="60" height="60" viewBox="0 0 60 60" fill="none" xmlns="http://www.w3.org/2000/svg">
<circle cx="30" cy="30" r="29.75" fill="white" stroke="#3F3F3F" stroke-width="0.5"/>
<mask id="mask0_3401_84350" style="mask-type:alpha" maskUnits="userSpaceOnUse" x="0" y="0" width="60" height="60">
<circle r="29.5" transform="matrix(-1 0 0 1 30 30)" fill="#C4C4C4" stroke="black"/>
</mask>
<g mask="url(#mask0_3401_84350)">
<path d="M49 47.5C47.4 46.7 41.6666 44.5 39 43.5C38.1667 44.1667 35.2 45.6 30 46C24.8 46.4 21.8333 44.5 21 43.5C19.5 44.1667 15.7 45.8 12.5 47C9.29998 48.2 8.83332 51.8333 8.99998 53.5C11 56 17.5 61.2 27.5 62C37.5 62.8 47.6666 55.6667 51.5 52C51.3333 50.8333 50.6 48.3 49 47.5Z" fill="#49196D"/>
<path d="M37 53C38.6 50.6 40 46 40.5 44L50 48C49.6667 49.1667 48.9 51.9 48.5 53.5C48.1 55.1 47 56.5 46.5 57L32 61.5C33 59.6667 35.4 55.4 37 53Z" fill="#C11700"/>
<path d="M35 61C38.6 55 40.5 47.5 41 44.5L45 46L42 60.5C41.1667 61.5 38.6 63 35 61Z" fill="#743397"/>
<path d="M41.5 19.5C41 17 40 8 30 8C21 8 16.5 16 19 28C20.5 32.5 25.5 40 28 41.5C30.5 43 31.5 42.5 33 41.5C34.5 40.5 37.5 38 40 32C42.5 26 42 22 41.5 19.5Z" fill="#191B1A"/>
<path fill-rule="evenodd" clip-rule="evenodd" d="M22 28.242C21.8333 27.9087 21.3 26.942 20.5 25.742C19.5 24.242 19 25.242 19 26.742C19 28.242 21 31.2422 22.5 30.7422C22.5 30.3422 22.1667 28.9087 22 28.242ZM39 28.4998C39.1667 28.1665 39.7 27.1998 40.5 25.9998C41.5 24.4998 42 25.4998 42 26.9998C42 28.4998 40 31.5 38.5 31C38.5 30.6 38.8333 29.1665 39 28.4998Z" fill="#B68962"/>
<path d="M39.5 27C39.5 28.8333 39 33.1 37 35.5C36.3198 36.3162 35.6767 37.0214 35 37.5854V42.5L40 44C39.3333 45.1667 37.3 46.1 30.5 46.5C23.7 46.9 22.5 45 20.5 44L25.5 42L25.8766 37.8571C22.2687 36.0109 21.4404 32.2252 21 26.5C20.8333 24.1667 21.4 19.3 25 18.5C29.5 17.5 33 19 34.5 14.5C35.5 18.5 36 18.5 37.5 19.5C39 20.5 39.5 22.5 39.5 27Z" fill="#C88954"/>
<path d="M30 39C32.8 39.4 34.5 38.1667 35 37.5V42.5C33.5 42.3333 30.4 41.4 30 39Z" fill="#A57449"/>
<path d="M21.7155 43.6422C21.518 43.247 21.0374 43.0869 20.6422 43.2845C20.247 43.482 20.0869 43.9626 20.2845 44.3578L21.7155 43.6422ZM31 45.9378L30.9448 45.1397L31 45.9378ZM40.3 44C40.3 43.5582 39.9418 43.2 39.5 43.2C39.0582 43.2 38.7 43.5582 38.7 44H40.3ZM20.2845 44.3578C20.5345 44.8579 21.0842 45.2257 21.6313 45.4963C22.2243 45.7895 22.9951 46.0545 23.9047 46.2681C25.7276 46.696 28.1834 46.9346 31.0552 46.7359L30.9448 45.1397C28.2166 45.3285 25.9224 45.0982 24.2703 44.7104C23.4424 44.516 22.7944 44.2865 22.3405 44.062C21.8408 43.815 21.7155 43.6421 21.7155 43.6422L20.2845 44.3578ZM31.0552 46.7359C33.8913 46.5396 36.0678 46.1742 37.5528 45.7849C38.291 45.5914 38.8842 45.3854 39.3093 45.1786C39.5183 45.077 39.7214 44.9586 39.885 44.8184C40.0103 44.711 40.3 44.4342 40.3 44H38.7C38.7 43.6908 38.8991 43.5562 38.8439 43.6035C38.827 43.6179 38.7598 43.6666 38.6094 43.7398C38.3158 43.8827 37.834 44.0572 37.1472 44.2372C35.7822 44.595 33.7087 44.9484 30.9448 45.1397L31.0552 46.7359Z" fill="#AB1F1E"/>
<path d="M26 23.4999C24.4 23.0999 23.3333 23.6665 23 23.9999C23.5 23.8333 24.8 23.6 26 24C27.2 24.4 27.8333 24.5 28 24.5C28 24.3333 27.6 23.8999 26 23.4999Z" fill="#1A1A1A"/>
<path d="M34.3 23.6376C35.9 23.2376 36.9667 23.8042 37.3 24.1376C36.8 23.971 35.5 23.7377 34.3 24.1377C33.1 24.5377 32.4667 24.6377 32.3 24.6377C32.3 24.471 32.7 24.0376 34.3 23.6376Z" fill="#1A1A1A"/>
<circle cx="30.3" cy="22.9" r="0.9" fill="#94240C"/>
<path d="M27 33C27.8485 33.5031 30.4364 34.2074 34 33C30.9455 36.6222 28.0606 34.5092 27 33Z" fill="#FEFAEF"/>
<circle cx="18" cy="49.75" r="0.75" fill="#C1DBF2"/>
<circle cx="18" cy="54.25" r="0.75" fill="#C1DBF2"/>
<circle cx="20.25" cy="52" r="0.75" fill="#C1DBF2"/>
<circle cx="15.75" cy="52" r="0.75" fill="#C1DBF2"/>
<circle cx="18" cy="52" r="0.75" fill="#E28478"/>
<circle cx="26" cy="49.75" r="0.75" fill="#C1DBF2"/>
<circle cx="26" cy="54.25" r="0.75" fill="#C1DBF2"/>
<circle cx="28.25" cy="52" r="0.75" fill="#C1DBF2"/>
<circle cx="23.75" cy="52" r="0.75" fill="#C1DBF2"/>
<circle cx="26" cy="52" r="0.75" fill="#E28478"/>
<circle cx="34" cy="49.75" r="0.75" fill="#C1DBF2"/>
<circle cx="34" cy="54.25" r="0.75" fill="#C1DBF2"/>
<circle cx="36.25" cy="52" r="0.75" fill="#C1DBF2"/>
<circle cx="31.75" cy="52" r="0.75" fill="#C1DBF2"/>
<circle cx="34" cy="52" r="0.75" fill="#E28478"/>
<path d="M25 42C25.1667 48.6667 26.4 62 30 62C33.6 62 34.8333 49 35 42.5" stroke="#F1BA68" stroke-width="0.7" stroke-linecap="round"/>
<path d="M25 42C26.1667 44.1667 29.9 47.3 35.5 42.5" stroke="#F1BA68" stroke-width="0.7" stroke-linecap="round"/>
<path d="M27 26.4417C25.8 25.6417 24.5 26.1084 24 26.4417C24.4 27.2416 25.1667 27.4418 25.5 27.4419C26 27.4419 27 27.2419 27 26.4417Z" fill="black"/>
<path d="M33 26.4417C34.2 25.6417 35.5 26.1084 36 26.4417C35.6 27.2416 34.8333 27.4418 34.5 27.4419C34 27.4419 33 27.2419 33 26.4417Z" fill="black"/>
<path d="M39 30C38.6 30 39 31 39 31.5V32.5C38.5 33.5 38.1886 34.3773 38.5 35C38.75 35.5 40 36 40.5 35C41.0657 33.8686 40.3333 32.8333 40 32.5L40 31.5C40 30.5 39.5 30 39 30Z" fill="#FBC682"/>
<path d="M39.5 33C40.5 33 40.5 35 39.5 35C38.5 35 39 33.5 39.5 33Z" fill="#A82C08"/>
<path d="M21.7078 30C22.1078 30 21.7078 31 21.7078 31.5V32.5C22.2078 33.5 22.5192 34.3773 22.2078 35C21.9578 35.5 20.7078 36 20.2078 35C19.6422 33.8686 20.3745 32.8333 20.7078 32.5L20.7078 31.5C20.7078 30.5 21.2078 30 21.7078 30Z" fill="#FBC682"/>
<path d="M21.2078 33C20.2078 33 20.2078 35 21.2078 35C22.2078 35 21.7078 33.5 21.2078 33Z" fill="#A82C08"/>
<path d="M46.5 46.5L45 46L42.5 59H44L46.5 46.5Z" fill="#FB9E3E"/>
<path d="M51 49.5L50 48L48 55L50 54.5L51 49.5Z" fill="#FB9E3E"/>
</g>
<circle cx="30" cy="30" r="29.75" stroke="#3F3F3F" stroke-width="0.5"/>
</svg>
