<svg width="20" height="20" viewBox="0 0 20 20" fill="none" xmlns="http://www.w3.org/2000/svg">
<defs>
<linearGradient id="paint0_linear_1202_8896" x1="-2.48875" y1="5.94876" x2="14.5406" y2="22.9781" gradientUnits="userSpaceOnUse">
<stop stop-color="#00BEE2"/>
<stop offset="1" stop-color="#20006A"/>
</linearGradient>
<linearGradient id="paint1_linear_1202_8896" x1="3.0729" y1="0.387084" x2="20.1023" y2="17.4165" gradientUnits="userSpaceOnUse">
<stop stop-color="#00BEE2"/>
<stop offset="1" stop-color="#20006A"/>
</linearGradient>
<linearGradient id="paint2_linear_1202_8896" x1="-2.30098" y1="5.76104" x2="14.7285" y2="22.7905" gradientUnits="userSpaceOnUse">
<stop stop-color="#00BEE2"/>
<stop offset="1" stop-color="#20006A"/>
</linearGradient>
<linearGradient id="paint3_linear_1202_8896" x1="-0.950046" y1="4.41027" x2="16.0793" y2="21.4396" gradientUnits="userSpaceOnUse">
<stop stop-color="#00BEE2"/>
<stop offset="1" stop-color="#20006A"/>
</linearGradient>
<linearGradient id="paint4_linear_1202_8896" x1="0.400532" y1="3.0594" x2="17.43" y2="20.0889" gradientUnits="userSpaceOnUse">
<stop stop-color="#00BEE2"/>
<stop offset="1" stop-color="#20006A"/>
</linearGradient>
<linearGradient id="paint5_linear_1202_8896" x1="1.75154" y1="1.70863" x2="18.7809" y2="18.7379" gradientUnits="userSpaceOnUse">
<stop stop-color="#00BEE2"/>
<stop offset="1" stop-color="#20006A"/>
</linearGradient>
<linearGradient id="paint6_linear_1202_8896" x1="3.10249" y1="0.357756" x2="20.1318" y2="17.387" gradientUnits="userSpaceOnUse">
<stop stop-color="#00BEE2"/>
<stop offset="1" stop-color="#20006A"/>
</linearGradient>
</defs>
<path d="M18.4306 18.1436V19.0257H1.56909V18.1436H2.09217V17.3231H17.9076V18.1436H18.4306Z" fill="url(#paint0_linear_1202_8896)"/>
<path d="M18.2666 6.88206L10.3282 1.11796C10.1538 0.923084 9.84613 0.923084 9.67177 1.11796L1.73331 6.88206C1.36408 7.28206 1.641 7.93847 2.19485 7.93847H17.8051C18.3487 7.93847 18.6359 7.28206 18.2666 6.88206V6.88206ZM9.99998 5.80513C9.3128 5.80513 8.75895 5.25129 8.75895 4.56411C8.75895 3.87693 9.3128 3.32308 9.99998 3.32308C10.6872 3.32308 11.241 3.87693 11.241 4.56411C11.241 5.24103 10.6872 5.80513 9.99998 5.80513Z" fill="url(#paint1_linear_1202_8896)"/>
<path d="M3.79492 8.19489H5.40518V17.1282H3.79492V8.19489Z" fill="url(#paint2_linear_1202_8896)"/>
<path d="M6.49243 8.19489H8.10269V17.1282H6.49243V8.19489Z" fill="url(#paint3_linear_1202_8896)"/>
<path d="M9.19995 8.19489H10.8102V17.1282H9.19995V8.19489Z" fill="url(#paint4_linear_1202_8896)"/>
<path d="M11.8975 8.19489H13.5077V17.1282H11.8975V8.19489Z" fill="url(#paint5_linear_1202_8896)"/>
<path d="M14.595 8.19489H16.2052V17.1282H14.595V8.19489Z" fill="url(#paint6_linear_1202_8896)"/>
</svg>
