<svg width="28" height="28" viewBox="0 0 28 28" fill="none" xmlns="http://www.w3.org/2000/svg">
<path d="M6.14697 12.2501C6.14697 11.2188 6.35009 10.1976 6.74475 9.24484C7.13941 8.29205 7.71786 7.42633 8.44709 6.6971C9.17632 5.96787 10.042 5.38941 10.9948 4.99476C11.9476 4.6001 12.9688 4.39697 14.0001 4.39697C15.0314 4.39697 16.0526 4.6001 17.0054 4.99476C17.9581 5.38941 18.8239 5.96787 19.5531 6.6971C20.2823 7.42633 20.8608 8.29205 21.2554 9.24484C21.6501 10.1976 21.8532 11.2188 21.8532 12.2501V12.2501C21.8532 16.1657 22.6735 18.4407 23.3954 19.6876C23.4721 19.8204 23.5125 19.971 23.5126 20.1243C23.5128 20.2777 23.4726 20.4283 23.3962 20.5613C23.3197 20.6942 23.2097 20.8047 23.0771 20.8817C22.9445 20.9587 22.7941 20.9996 22.6407 21.0001H5.35947C5.20613 20.9996 5.05564 20.9587 4.92305 20.8817C4.79046 20.8047 4.68044 20.6942 4.60401 20.5613C4.52757 20.4283 4.48741 20.2777 4.48755 20.1243C4.48768 19.971 4.52811 19.8204 4.60478 19.6876C5.32665 18.4407 6.14697 16.1657 6.14697 12.2501Z" stroke="#3F3F3F" stroke-linecap="round" stroke-linejoin="round"/>
<path d="M10.5 21V21.875C10.5 22.8033 10.8687 23.6935 11.5251 24.3499C12.1815 25.0063 13.0717 25.375 14 25.375C14.9283 25.375 15.8185 25.0063 16.4749 24.3499C17.1313 23.6935 17.5 22.8033 17.5 21.875V21" fill="#CCECD3"/>
<path d="M10.5 21V21.875C10.5 22.8033 10.8687 23.6935 11.5251 24.3499C12.1815 25.0063 13.0717 25.375 14 25.375C14.9283 25.375 15.8185 25.0063 16.4749 24.3499C17.1313 23.6935 17.5 22.8033 17.5 21.875V21" stroke="#3F3F3F" stroke-linecap="round" stroke-linejoin="round"/>
<path d="M20.0593 2.625C21.8409 3.74961 23.2788 5.34261 24.2156 7.22969" stroke="#3F3F3F" stroke-linecap="round" stroke-linejoin="round"/>
<path d="M3.78442 7.22969C4.72125 5.34261 6.15912 3.74961 7.94067 2.625" stroke="#3F3F3F" stroke-linecap="round" stroke-linejoin="round"/>
</svg>
