<svg width="28" height="28" viewBox="0 0 28 28" fill="none" xmlns="http://www.w3.org/2000/svg">
<defs>
<linearGradient id="paint0_linear_3404_14916" x1="16.544" y1="28.1759" x2="13.2619" y2="14.0222" gradientUnits="userSpaceOnUse">
<stop stop-color="#C20000"/>
<stop offset="0.076599" stop-color="#C80400"/>
<stop offset="0.6838" stop-color="#F02300"/>
<stop offset="0.9987" stop-color="#FF2F00"/>
</linearGradient>
<radialGradient id="paint1_radial_3404_14916" cx="0" cy="0" r="1" gradientUnits="userSpaceOnUse" gradientTransform="translate(4.03028 23.941) rotate(180) scale(19.9723)">
<stop offset="0.9066" stop-color="white" stop-opacity="0"/>
<stop offset="0.9551" stop-color="white" stop-opacity="0.5"/>
<stop offset="1" stop-color="white" stop-opacity="0"/>
</radialGradient>
<linearGradient id="paint2_linear_3404_14916" x1="24.205" y1="25.697" x2="3.69236" y2="3.16725" gradientUnits="userSpaceOnUse">
<stop stop-color="#C20000"/>
<stop offset="0.0284242" stop-color="#C50200" stop-opacity="0.8463"/>
<stop offset="0.185" stop-color="#CF0A00" stop-opacity="0"/>
<stop offset="0.3922" stop-color="#DD1500" stop-opacity="0"/>
<stop offset="0.8181" stop-color="#F72900" stop-opacity="0"/>
<stop offset="0.9609" stop-color="#FC2D00" stop-opacity="0.7909"/>
<stop offset="0.9987" stop-color="#FF2F00"/>
</linearGradient>
<linearGradient id="paint3_linear_3404_14916" x1="16.8885" y1="31.0013" x2="11.6064" y2="11.0014" gradientUnits="userSpaceOnUse">
<stop stop-color="#F05C00"/>
<stop offset="0.5926" stop-color="#FA7A00"/>
<stop offset="0.9987" stop-color="#FF8900"/>
</linearGradient>
<radialGradient id="paint4_radial_3404_14916" cx="0" cy="0" r="1" gradientUnits="userSpaceOnUse" gradientTransform="translate(4.03882 23.9665) rotate(180) scale(18.4625)">
<stop offset="0.9066" stop-color="white" stop-opacity="0"/>
<stop offset="0.9551" stop-color="white" stop-opacity="0.5"/>
<stop offset="1" stop-color="white" stop-opacity="0"/>
</radialGradient>
<linearGradient id="paint5_linear_3404_14916" x1="22.3797" y1="23.8391" x2="4.08925" y2="5.30934" gradientUnits="userSpaceOnUse">
<stop stop-color="#F05C00"/>
<stop offset="0.0249671" stop-color="#F15E00" stop-opacity="0.8543"/>
<stop offset="0.1714" stop-color="#F46900" stop-opacity="0"/>
<stop offset="0.188" stop-color="#F46A00" stop-opacity="0"/>
<stop offset="0.8679" stop-color="#FD8300" stop-opacity="0"/>
<stop offset="0.9874" stop-color="#FF8800" stop-opacity="0.9139"/>
<stop offset="0.9987" stop-color="#FF8900"/>
</linearGradient>
<linearGradient id="paint6_linear_3404_14916" x1="15.4282" y1="28.4124" x2="11.736" y2="14.5151" gradientUnits="userSpaceOnUse">
<stop stop-color="#FFBF00"/>
<stop offset="0.1864" stop-color="#FFBE10"/>
<stop offset="0.7204" stop-color="#FFBD38"/>
<stop offset="0.9973" stop-color="#FFBC47"/>
</linearGradient>
<radialGradient id="paint7_radial_3404_14916" cx="0" cy="0" r="1" gradientUnits="userSpaceOnUse" gradientTransform="translate(4.05592 23.9153) rotate(180) scale(16.8205)">
<stop offset="0.9066" stop-color="white" stop-opacity="0"/>
<stop offset="0.9551" stop-color="white" stop-opacity="0.5"/>
<stop offset="1" stop-color="white" stop-opacity="0"/>
</radialGradient>
<linearGradient id="paint8_linear_3404_14916" x1="16.1616" y1="24.8921" x2="6.39296" y2="2.89335" gradientUnits="userSpaceOnUse">
<stop stop-color="#FFBF00"/>
<stop offset="0.2503" stop-color="#FFBE15" stop-opacity="0"/>
<stop offset="0.3858" stop-color="#FFBD20" stop-opacity="0"/>
<stop offset="0.7818" stop-color="#FFBC3C" stop-opacity="0"/>
<stop offset="0.9973" stop-color="#FFBC47"/>
</linearGradient>
<linearGradient id="paint9_linear_3404_14916" x1="21.0511" y1="29.3693" x2="10.4363" y2="14.1395" gradientUnits="userSpaceOnUse">
<stop offset="0.00132565" stop-color="#4B8C1C"/>
<stop offset="0.2325" stop-color="#5EA12C"/>
<stop offset="0.7361" stop-color="#82C94A"/>
<stop offset="0.9973" stop-color="#90D856"/>
</linearGradient>
<radialGradient id="paint10_radial_3404_14916" cx="0" cy="0" r="1" gradientUnits="userSpaceOnUse" gradientTransform="translate(4.05175 23.9223) rotate(180) scale(15.3076)">
<stop offset="0.9066" stop-color="white" stop-opacity="0"/>
<stop offset="0.9551" stop-color="white" stop-opacity="0.5"/>
<stop offset="1" stop-color="white" stop-opacity="0"/>
</radialGradient>
<linearGradient id="paint11_linear_3404_14916" x1="19.5454" y1="23.6505" x2="5.83606" y2="9.08656" gradientUnits="userSpaceOnUse">
<stop offset="0.00132565" stop-color="#4B8C1C"/>
<stop offset="0.2281" stop-color="#61A42E" stop-opacity="0"/>
<stop offset="0.377" stop-color="#6BAE36" stop-opacity="0"/>
<stop offset="0.8356" stop-color="#85CB4C" stop-opacity="0"/>
<stop offset="0.9973" stop-color="#90D856"/>
</linearGradient>
<linearGradient id="paint12_linear_3404_14916" x1="14.2814" y1="26.4938" x2="8.84553" y2="11.3657" gradientUnits="userSpaceOnUse">
<stop offset="0.00662825" stop-color="#3640FF"/>
<stop offset="0.1428" stop-color="#2657F8"/>
<stop offset="0.4841" stop-color="#008EE6"/>
<stop offset="0.7886" stop-color="#0FACF6"/>
<stop offset="0.9973" stop-color="#17BBFE"/>
</linearGradient>
<radialGradient id="paint13_radial_3404_14916" cx="0" cy="0" r="1" gradientUnits="userSpaceOnUse" gradientTransform="translate(4.05592 23.9155) rotate(180) scale(13.7949)">
<stop offset="0.9066" stop-color="white" stop-opacity="0"/>
<stop offset="0.9551" stop-color="white" stop-opacity="0.5"/>
<stop offset="1" stop-color="white" stop-opacity="0"/>
</radialGradient>
<linearGradient id="paint14_linear_3404_14916" x1="19.6863" y1="24.9201" x2="3.99411" y2="8.25357" gradientUnits="userSpaceOnUse">
<stop offset="0.00662825" stop-color="#3640FF"/>
<stop offset="0.2031" stop-color="#1B67F2" stop-opacity="0"/>
<stop offset="0.4841" stop-color="#008EE6" stop-opacity="0"/>
<stop offset="0.5854" stop-color="#0598EB" stop-opacity="0"/>
<stop offset="0.8707" stop-color="#12B0F8" stop-opacity="0"/>
<stop offset="0.9973" stop-color="#17BBFE"/>
</linearGradient>
<linearGradient id="paint15_linear_3404_14916" x1="16.4011" y1="27.5953" x2="9.09384" y2="15.1345" gradientUnits="userSpaceOnUse">
<stop offset="0.00268665" stop-color="#7000A3"/>
<stop offset="0.7988" stop-color="#9500DA"/>
<stop offset="0.9934" stop-color="#9F00E8"/>
</linearGradient>
<radialGradient id="paint16_radial_3404_14916" cx="0" cy="0" r="1" gradientUnits="userSpaceOnUse" gradientTransform="translate(4.05592 23.9154) rotate(180) scale(12.291)">
<stop offset="0.9066" stop-color="white" stop-opacity="0"/>
<stop offset="0.9551" stop-color="white" stop-opacity="0.5"/>
<stop offset="1" stop-color="white" stop-opacity="0"/>
</radialGradient>
<linearGradient id="paint17_linear_3404_14916" x1="17.2689" y1="22.7997" x2="3.38863" y2="10.3553" gradientUnits="userSpaceOnUse">
<stop offset="0.00268665" stop-color="#7000A3"/>
<stop offset="0.2117" stop-color="#7B00B3" stop-opacity="0"/>
<stop offset="0.8349" stop-color="#9400D8" stop-opacity="0"/>
<stop offset="0.9934" stop-color="#9F00E8"/>
</linearGradient>
</defs>
<path d="M23.9998 23.9998H15.2823C15.2823 18.0528 9.94701 12.7176 4 12.7176V4C15.047 4 23.9998 12.9529 23.9998 23.9998Z" fill="url(#paint0_linear_3404_14916)"/>
<path opacity="0.5" d="M23.9998 23.9998H15.2823C15.2823 18.0528 9.94701 12.7176 4 12.7176V4C15.047 4 23.9998 12.9529 23.9998 23.9998Z" fill="url(#paint1_radial_3404_14916)"/>
<path d="M23.9998 23.9998H15.2823C15.2823 18.0528 9.94701 12.7176 4 12.7176V4C15.047 4 23.9998 12.9529 23.9998 23.9998Z" fill="url(#paint2_linear_3404_14916)"/>
<path d="M4 12.7175V5.54108C14.194 5.54108 22.4587 13.8057 22.4587 23.9998H15.2823C15.2823 18.0528 9.94701 12.7175 4 12.7175Z" fill="url(#paint3_linear_3404_14916)"/>
<path opacity="0.5" d="M4 12.7175V5.54108C14.194 5.54108 22.4587 13.8057 22.4587 23.9998H15.2823C15.2823 18.0528 9.94701 12.7175 4 12.7175Z" fill="url(#paint4_radial_3404_14916)"/>
<path d="M4 12.7175V5.54108C14.194 5.54108 22.4587 13.8057 22.4587 23.9998H15.2823C15.2823 18.0528 9.94701 12.7175 4 12.7175Z" fill="url(#paint5_linear_3404_14916)"/>
<path d="M4 12.7176V7.07645C13.347 7.07645 20.9234 14.6529 20.9234 23.9999H15.2823C15.2823 18.0528 9.94701 12.7176 4 12.7176Z" fill="url(#paint6_linear_3404_14916)"/>
<path opacity="0.5" d="M4 12.7176V7.07645C13.347 7.07645 20.9234 14.6529 20.9234 23.9999H15.2823C15.2823 18.0528 9.94701 12.7176 4 12.7176Z" fill="url(#paint7_radial_3404_14916)"/>
<path d="M4 12.7176V7.07645C13.347 7.07645 20.9234 14.6529 20.9234 23.9999H15.2823C15.2823 18.0528 9.94701 12.7176 4 12.7176Z" fill="url(#paint8_linear_3404_14916)"/>
<path d="M4 12.7175V8.61753C12.4941 8.61753 19.3822 15.5057 19.3822 23.9998H15.2823C15.2823 18.0528 9.94701 12.7175 4 12.7175Z" fill="url(#paint9_linear_3404_14916)"/>
<path opacity="0.5" d="M4 12.7175V8.61753C12.4941 8.61753 19.3822 15.5057 19.3822 23.9998H15.2823C15.2823 18.0528 9.94701 12.7175 4 12.7175Z" fill="url(#paint10_radial_3404_14916)"/>
<path d="M4 12.7175V8.61753C12.4941 8.61753 19.3822 15.5057 19.3822 23.9998H15.2823C15.2823 18.0528 9.94701 12.7175 4 12.7175Z" fill="url(#paint11_linear_3404_14916)"/>
<path d="M4 12.7177V10.153C11.647 10.153 17.8469 16.353 17.8469 24H15.2823C15.2823 18.053 9.94701 12.7177 4 12.7177Z" fill="url(#paint12_linear_3404_14916)"/>
<path opacity="0.5" d="M4 12.7177V10.153C11.647 10.153 17.8469 16.353 17.8469 24H15.2823C15.2823 18.053 9.94701 12.7177 4 12.7177Z" fill="url(#paint13_radial_3404_14916)"/>
<path d="M4 12.7177V10.153C11.647 10.153 17.8469 16.353 17.8469 24H14.8234C14.8176 18.053 9.94701 12.7177 4 12.7177Z" fill="url(#paint14_linear_3404_14916)"/>
<path d="M4 13.2293V11.6881C10.7999 11.6881 16.3058 17.1998 16.3058 23.9939H14.7646C14.7705 18.0528 9.94701 13.2293 4 13.2293Z" fill="url(#paint15_linear_3404_14916)"/>
<path opacity="0.5" d="M4 13.1824V11.6942C10.7999 11.6942 16.3058 17.2059 16.3058 23.9999H14.7646C14.7705 18.0529 9.94701 13.1824 4 13.1824Z" fill="url(#paint16_radial_3404_14916)"/>
<path d="M4 13.1823V11.6941C10.7823 11.6705 16.2823 17.1705 16.3058 23.9998H14.7646C14.7705 18.0528 9.94701 13.1823 4 13.1823Z" fill="url(#paint17_linear_3404_14916)"/>
</svg>
