<svg width="28" height="28" viewBox="0 0 28 28" fill="none" xmlns="http://www.w3.org/2000/svg">
<defs>
<linearGradient id="paint0_linear_3404_15364" x1="7.30859" y1="6.27238" x2="7.61769" y2="23.3611" gradientUnits="userSpaceOnUse">
<stop offset="0.2544" stop-color="#90D856"/>
<stop offset="0.736" stop-color="#00CC00"/>
</linearGradient>
<linearGradient id="paint1_linear_3404_15364" x1="27.9137" y1="20.1816" x2="8.0966" y2="20.1816" gradientUnits="userSpaceOnUse">
<stop stop-color="#00CC00"/>
<stop offset="0.1878" stop-color="#06C102"/>
<stop offset="0.5185" stop-color="#17A306"/>
<stop offset="0.9507" stop-color="#33740C"/>
<stop offset="1" stop-color="#366E0D"/>
</linearGradient>
<linearGradient id="paint2_linear_3404_15364" x1="6.55113" y1="11.5923" x2="5.84462" y2="23.5146" gradientUnits="userSpaceOnUse">
<stop stop-color="#90D856"/>
<stop offset="1" stop-color="#00CC00"/>
</linearGradient>
<linearGradient id="paint3_linear_3404_15364" x1="26.1913" y1="21.1376" x2="6.62411" y2="21.1376" gradientUnits="userSpaceOnUse">
<stop stop-color="#00CC00"/>
<stop offset="0.1878" stop-color="#06C102"/>
<stop offset="0.5185" stop-color="#17A306"/>
<stop offset="0.9507" stop-color="#33740C"/>
<stop offset="1" stop-color="#366E0D"/>
</linearGradient>
<linearGradient id="paint4_linear_3404_15364" x1="24.4063" y1="12.6849" x2="9.45289" y2="4.40823" gradientUnits="userSpaceOnUse">
<stop offset="0.2544" stop-color="#90D856"/>
<stop offset="0.736" stop-color="#00CC00"/>
</linearGradient>
<linearGradient id="paint5_linear_3404_15364" x1="2.05837" y1="23.5741" x2="11.9669" y2="6.41258" gradientUnits="userSpaceOnUse">
<stop stop-color="#00CC00"/>
<stop offset="0.1878" stop-color="#06C102"/>
<stop offset="0.5185" stop-color="#17A306"/>
<stop offset="0.9507" stop-color="#33740C"/>
<stop offset="1" stop-color="#366E0D"/>
</linearGradient>
<linearGradient id="paint6_linear_3404_15364" x1="20.1778" y1="9.36894" x2="10.2062" y2="2.7959" gradientUnits="userSpaceOnUse">
<stop stop-color="#90D856"/>
<stop offset="1" stop-color="#00CC00"/>
</linearGradient>
<linearGradient id="paint7_linear_3404_15364" x1="2.09157" y1="21.6048" x2="11.8752" y2="4.65958" gradientUnits="userSpaceOnUse">
<stop stop-color="#00CC00"/>
<stop offset="0.1878" stop-color="#06C102"/>
<stop offset="0.5185" stop-color="#17A306"/>
<stop offset="0.9507" stop-color="#33740C"/>
<stop offset="1" stop-color="#366E0D"/>
</linearGradient>
<linearGradient id="paint8_linear_3404_15364" x1="10.2952" y1="24.2846" x2="24.9395" y2="15.4726" gradientUnits="userSpaceOnUse">
<stop offset="0.2544" stop-color="#90D856"/>
<stop offset="0.736" stop-color="#00CC00"/>
</linearGradient>
<linearGradient id="paint9_linear_3404_15364" x1="12.795" y1="-0.509036" x2="24.7174" y2="22.0552" gradientUnits="userSpaceOnUse">
<stop stop-color="#00CC00"/>
<stop offset="0.1878" stop-color="#06C102"/>
<stop offset="0.5185" stop-color="#17A306"/>
<stop offset="0.9507" stop-color="#33740C"/>
<stop offset="1" stop-color="#366E0D"/>
</linearGradient>
<linearGradient id="paint10_linear_3404_15364" x1="9.18856" y1="25.3327" x2="19.8666" y2="19.9834" gradientUnits="userSpaceOnUse">
<stop stop-color="#90D856"/>
<stop offset="1" stop-color="#00CC00"/>
</linearGradient>
<linearGradient id="paint11_linear_3404_15364" x1="14.6537" y1="0.582786" x2="27.5033" y2="25.2665" gradientUnits="userSpaceOnUse">
<stop stop-color="#00CC00"/>
<stop offset="0.1878" stop-color="#06C102"/>
<stop offset="0.5185" stop-color="#17A306"/>
<stop offset="0.9507" stop-color="#33740C"/>
<stop offset="1" stop-color="#366E0D"/>
</linearGradient>
<radialGradient id="paint12_radial_3404_15364" cx="0" cy="0" r="1" gradientUnits="userSpaceOnUse" gradientTransform="translate(16.7528 6.20012) rotate(160.731) scale(4.33204 2.22523)">
<stop stop-color="#FBE07A" stop-opacity="0.75"/>
<stop offset="0.0803394" stop-color="#FBE387" stop-opacity="0.6897"/>
<stop offset="0.5173" stop-color="#FDF2C7" stop-opacity="0.362"/>
<stop offset="0.8357" stop-color="#FFFBF0" stop-opacity="0.1233"/>
<stop offset="1" stop-color="white" stop-opacity="0"/>
</radialGradient>
<linearGradient id="paint13_linear_3404_15364" x1="12.5547" y1="3.46734" x2="10.8657" y2="9.49477" gradientUnits="userSpaceOnUse">
<stop stop-color="#3C2200"/>
<stop offset="0.2217" stop-color="#3B2D02" stop-opacity="0.7783"/>
<stop offset="0.6109" stop-color="#394A07" stop-opacity="0.3891"/>
<stop offset="1" stop-color="#366E0D" stop-opacity="0"/>
</linearGradient>
<linearGradient id="paint14_linear_3404_15364" x1="5.24364" y1="21.1444" x2="11.3079" y2="19.5934" gradientUnits="userSpaceOnUse">
<stop stop-color="#3C2200"/>
<stop offset="0.2217" stop-color="#3B2D02" stop-opacity="0.7783"/>
<stop offset="0.6109" stop-color="#394A07" stop-opacity="0.3891"/>
<stop offset="1" stop-color="#366E0D" stop-opacity="0"/>
</linearGradient>
<linearGradient id="paint15_linear_3404_15364" x1="23.7884" y1="25.6856" x2="18.5889" y2="17.9691" gradientUnits="userSpaceOnUse">
<stop stop-color="#3C2200"/>
<stop offset="0.2217" stop-color="#3B2D02" stop-opacity="0.7783"/>
<stop offset="0.6109" stop-color="#394A07" stop-opacity="0.3891"/>
<stop offset="1" stop-color="#366E0D" stop-opacity="0"/>
</linearGradient>
</defs>
<path d="M5.37787 12.3895L4.28335 14.284C3.90555 14.9396 3.90555 15.7452 4.28335 16.4008L7.41135 21.8234C7.03354 21.1678 7.03354 20.3622 7.41135 19.7066L8.70032 17.4731L10.0504 15.0952L10.7449 15.4952C10.8616 15.5619 10.9949 15.4341 10.9283 15.3119L8.87256 11.7339L4.7445 11.745C4.61115 11.745 4.56115 11.9228 4.67782 11.9894L5.37787 12.3895Z" fill="url(#paint0_linear_3404_15364)"/>
<path d="M8.706 17.473L7.41702 19.7065C7.03922 20.3621 7.03922 21.1677 7.41702 21.8233C7.79482 22.4845 8.50043 22.8901 9.26715 22.8901H12.1062V17.4952L8.706 17.473Z" fill="url(#paint1_linear_3404_15364)"/>
<path d="M8.87256 11.7282L4.7445 11.7393C4.61115 11.7393 4.56115 11.9171 4.67782 11.9837L5.37232 12.3838L4.28335 14.2839C3.90555 14.9395 3.90555 15.7451 4.28335 16.4007L5.84457 19.1009C5.46677 18.4453 5.46677 17.6397 5.84457 16.9841L6.93353 15.0951L8.87256 11.7282Z" fill="url(#paint2_linear_3404_15364)"/>
<path d="M12.1005 20.1844H9.26141C8.60581 20.1844 7.99466 19.8844 7.59463 19.3844L7.41128 19.7066C7.03348 20.3622 7.03348 21.1678 7.41128 21.8234C7.79464 22.4846 8.50025 22.8902 9.26696 22.8902H12.106V20.1844H12.1005Z" fill="url(#paint3_linear_3404_15364)"/>
<path d="M20.0678 7.9502L18.9733 6.05563C18.5955 5.40558 17.8954 5 17.1398 5H10.8783C11.6339 5 12.334 5.40558 12.7118 6.06118L14.0007 8.29467L15.3842 10.6559L14.6897 11.056C14.573 11.1226 14.6174 11.3004 14.7563 11.3004L18.8844 11.3115L20.9401 7.73352C21.0068 7.61685 20.8734 7.4835 20.7567 7.55018L20.0678 7.9502Z" fill="url(#paint4_linear_3404_15364)"/>
<path d="M14.0007 8.29467L12.7117 6.06118C12.3339 5.40558 11.6339 5 10.8783 5C10.1116 5 9.40596 5.40558 9.02815 6.06674L7.60583 8.52802L12.2784 11.2282L14.0007 8.29467Z" fill="url(#paint5_linear_3404_15364)"/>
<path d="M18.8898 11.3115L20.9455 7.73352C21.0122 7.61685 20.8789 7.4835 20.7622 7.55018L20.0677 7.9502L18.9732 6.05563C18.5954 5.40558 17.8953 5 17.1397 5H14.0228C14.7784 5 15.4785 5.40558 15.8563 6.06118L16.9452 7.9502L18.8898 11.3115Z" fill="url(#paint6_linear_3404_15364)"/>
<path d="M9.956 9.88367L11.3728 7.42794C11.7006 6.86124 12.2617 6.48343 12.9006 6.38343L12.7173 6.06118C12.3339 5.40558 11.6339 5 10.8783 5C10.1116 5 9.40596 5.40558 9.02815 6.06674L7.60583 8.52802L9.956 9.88367Z" fill="url(#paint7_linear_3404_15364)"/>
<path d="M16.5619 22.89H18.7454C19.501 22.89 20.201 22.4845 20.5788 21.8289L23.7068 16.4063C23.329 17.0619 22.629 17.4674 21.8734 17.4674H19.2954L16.5563 17.4841V16.6841C16.5563 16.5507 16.3785 16.5007 16.3119 16.6174L14.2395 20.1843L16.3119 23.7512C16.3785 23.8679 16.5563 23.8179 16.5563 23.6845L16.5619 22.89Z" fill="url(#paint8_linear_3404_15364)"/>
<path d="M19.3011 17.4731H21.879C22.6346 17.4731 23.3347 17.0675 23.7125 16.4119C24.0958 15.7508 24.0958 14.9341 23.7125 14.2729L22.2957 11.8172L17.6232 14.5174L19.3011 17.4731Z" fill="url(#paint9_linear_3404_15364)"/>
<path d="M14.2451 20.1954L16.3175 23.7624C16.3842 23.879 16.5619 23.829 16.5619 23.6957V22.8901H18.7454C19.501 22.8901 20.2011 22.4845 20.5789 21.8289L22.1401 19.1287C21.7623 19.7843 21.0623 20.1899 20.3066 20.1899H18.1232L14.2451 20.1954Z" fill="url(#paint10_linear_3404_15364)"/>
<path d="M19.951 13.1728L21.3678 15.6286C21.6956 16.1953 21.7401 16.8731 21.5067 17.4731H21.879C22.6346 17.4731 23.3346 17.0675 23.7124 16.4119C24.0958 15.7508 24.0958 14.9341 23.7124 14.2729L22.2957 11.8172L19.951 13.1728Z" fill="url(#paint11_linear_3404_15364)"/>
<path opacity="0.5" d="M20.0678 7.9502L18.9733 6.05563C18.5955 5.40558 17.8954 5 17.1398 5H10.8783C11.6339 5 12.334 5.40558 12.7118 6.06118L14.0007 8.29467L15.3842 10.6559L14.6897 11.056C14.573 11.1226 14.6174 11.3004 14.7563 11.3004L18.8844 11.3115L20.9401 7.73352C21.0068 7.61685 20.8734 7.4835 20.7567 7.55018L20.0678 7.9502Z" fill="url(#paint12_radial_3404_15364)"/>
<path opacity="0.5" d="M14.0006 8.29467L12.7117 6.06118C12.3339 5.40558 11.6338 5 10.8782 5C10.1115 5 9.40588 5.40558 9.02808 6.06674C12.7172 6.05563 12.2839 11.2226 12.2839 11.2226L14.0006 8.29467Z" fill="url(#paint13_linear_3404_15364)"/>
<path opacity="0.5" d="M8.706 17.473L7.41702 19.7065C7.03922 20.3621 7.03922 21.1677 7.41702 21.8233C7.79482 22.4845 8.50043 22.8901 9.26715 22.8901C7.41702 19.701 12.1062 17.4952 12.1062 17.4952L8.706 17.473Z" fill="url(#paint14_linear_3404_15364)"/>
<path opacity="0.5" d="M16.5619 22.89H18.7454C19.501 22.89 20.201 22.4845 20.5788 21.8289L23.7068 16.4063C23.329 17.0619 22.629 17.4674 21.8734 17.4674H19.2954L16.5563 17.4841V16.6841C16.5563 16.5507 16.3785 16.5007 16.3119 16.6174L14.2395 20.1843L16.3119 23.7512C16.3785 23.8679 16.5563 23.8179 16.5563 23.6845L16.5619 22.89Z" fill="url(#paint15_linear_3404_15364)"/>
</svg>
