<svg width="28" height="28" viewBox="0 0 28 28" fill="none" xmlns="http://www.w3.org/2000/svg">
<path d="M4 7H10.9231V20.8461H4V17.3846L6.6923 15.4615V12.3846L4 10.4615V7Z" fill="#00C802"/>
<path d="M10.9231 7V20.8461" stroke="white" stroke-linecap="round" stroke-linejoin="round"/>
<path d="M4.00001 17.6923C3.99903 17.5151 4.06 17.3432 4.17238 17.2063C4.28475 17.0693 4.44146 16.9759 4.6154 16.9423C5.30724 16.7954 5.92765 16.4154 6.37281 15.8658C6.81796 15.3161 7.06087 14.6303 7.06087 13.9231C7.06087 13.2158 6.81796 12.53 6.37281 11.9804C5.92765 11.4308 5.30724 11.0507 4.6154 10.9038C4.44146 10.8702 4.28475 10.7768 4.17238 10.6399C4.06 10.5029 3.99903 10.331 4.00001 10.1538V7.76923C4.00001 7.56522 4.08106 7.36956 4.22531 7.2253C4.36957 7.08104 4.56523 7 4.76924 7H23.2308C23.4348 7 23.6304 7.08104 23.7747 7.2253C23.9189 7.36956 24 7.56522 24 7.76923V10.1538C24.001 10.331 23.94 10.5029 23.8276 10.6399C23.7152 10.7768 23.5585 10.8702 23.3846 10.9038C22.6928 11.0507 22.0724 11.4308 21.6272 11.9804C21.182 12.53 20.9391 13.2158 20.9391 13.9231C20.9391 14.6303 21.182 15.3161 21.6272 15.8658C22.0724 16.4154 22.6928 16.7954 23.3846 16.9423C23.5585 16.9759 23.7152 17.0693 23.8276 17.2063C23.94 17.3432 24.001 17.5151 24 17.6923V20.0769C24 20.2809 23.9189 20.4766 23.7747 20.6208C23.6304 20.7651 23.4348 20.8461 23.2308 20.8461H4.76924C4.56523 20.8461 4.36957 20.7651 4.22531 20.6208C4.08106 20.4766 4.00001 20.2809 4.00001 20.0769V17.6923Z" stroke="white" stroke-linecap="round" stroke-linejoin="round"/>
</svg>
