<svg width="28" height="28" viewBox="0 0 28 28" fill="none" xmlns="http://www.w3.org/2000/svg">
<path d="M14.4229 20.0337L19.2687 23.1104C19.8937 23.5046 20.6628 22.9181 20.4802 22.197L19.0764 16.6782C19.0385 16.5252 19.0445 16.3646 19.0938 16.2149C19.1432 16.0652 19.2338 15.9325 19.3552 15.8321L23.7011 12.2073C24.2683 11.7362 23.9799 10.7844 23.2396 10.7363L17.5669 10.3709C17.4121 10.3619 17.2633 10.308 17.1387 10.2158C17.014 10.1236 16.919 9.99712 16.865 9.85175L14.7498 4.52522C14.6938 4.3713 14.5918 4.23833 14.4577 4.14436C14.3235 4.0504 14.1637 4 13.9999 4C13.8361 4 13.6763 4.0504 13.5421 4.14436C13.4079 4.23833 13.3059 4.3713 13.2499 4.52522L11.1347 9.85175C11.0808 9.99712 10.9857 10.1236 10.8611 10.2158C10.7364 10.308 10.5876 10.3619 10.4328 10.3709L4.76018 10.7363C4.01985 10.7844 3.73141 11.7362 4.29868 12.2073L8.64451 15.8321C8.76598 15.9325 8.85659 16.0652 8.90593 16.2149C8.95526 16.3646 8.96129 16.5252 8.92333 16.6782L7.62535 21.7932C7.40422 22.6585 8.32722 23.3604 9.06755 22.8892L13.5768 20.0337C13.7033 19.9533 13.85 19.9106 13.9999 19.9106C14.1497 19.9106 14.2965 19.9533 14.4229 20.0337V20.0337Z" fill="#00C802" stroke="white" stroke-linecap="round" stroke-linejoin="round"/>
</svg>
