<svg width="28" height="28" viewBox="0 0 28 28" fill="none" xmlns="http://www.w3.org/2000/svg">
<path fill-rule="evenodd" clip-rule="evenodd" d="M15.6657 10.101C15.5006 9.95427 15.2478 9.96915 15.101 10.1343C14.9543 10.2994 14.9691 10.5522 15.1343 10.699L18.8479 14H8.4C8.17909 14 8 14.1791 8 14.4C8 14.6209 8.17909 14.8 8.4 14.8H18.8479L15.1343 18.101C14.9691 18.2478 14.9543 18.5006 15.101 18.6657C15.2478 18.8309 15.5006 18.8457 15.6657 18.699L20.1657 14.699C20.2511 14.6231 20.3 14.5143 20.3 14.4C20.3 14.2857 20.2511 14.1769 20.1657 14.101L15.6657 10.101Z" fill="#3F3F3F"/>
</svg>
