<svg width="32" height="32" viewBox="0 0 32 32" fill="none" xmlns="http://www.w3.org/2000/svg">
<path d="M17.5327 15.0285V15.0285L17.5292 15.0285C17.4562 15.0292 17.3837 15.0154 17.3161 14.9878C17.2484 14.9603 17.1869 14.9197 17.135 14.8683C17.0831 14.8169 17.0419 14.7557 17.0138 14.6882C16.9858 14.6208 16.9713 14.5485 16.9713 14.4755V14.4755V4.44044C19.6681 4.75004 22.1861 5.96289 24.1115 7.88833C26.037 9.81376 27.2498 12.3317 27.5594 15.0285H17.5327Z" stroke="#00C802" stroke-width="0.8"/>
<path d="M13.6193 5.28529C8.16722 6.15245 4 10.8753 4 16.5714C4 22.8833 9.11674 28 15.4286 28C21.1283 28 25.8535 23.8275 26.7163 18.3704" stroke="white" stroke-width="0.8" stroke-linecap="round"/>
<path d="M7.19653 12.5714C6.6129 13.7766 6.28564 15.1291 6.28564 16.558C6.28564 21.6149 10.384 25.7143 15.4396 25.7143C16.8695 25.7143 18.2228 25.3863 19.4285 24.8016" stroke="white" stroke-width="0.4" stroke-linecap="round"/>
</svg>
