<svg width="28" height="28" viewBox="0 0 28 28" fill="none" xmlns="http://www.w3.org/2000/svg">
<defs>
<linearGradient id="paint0_linear_3404_15108" x1="12.1638" y1="14.5875" x2="2.78296" y2="26.9027" gradientUnits="userSpaceOnUse">
<stop stop-color="#FF0000"/>
<stop offset="0.2317" stop-color="#FF1500"/>
<stop offset="0.7367" stop-color="#FF3D00"/>
<stop offset="0.9987" stop-color="#FF4C00"/>
</linearGradient>
<linearGradient id="paint1_linear_3404_15108" x1="10.3745" y1="13.424" x2="1.10677" y2="25.5907" gradientUnits="userSpaceOnUse">
<stop stop-color="#FF0000"/>
<stop offset="0.2317" stop-color="#FF1500"/>
<stop offset="0.7367" stop-color="#FF3D00"/>
<stop offset="0.9987" stop-color="#FF4C00"/>
</linearGradient>
<linearGradient id="paint2_linear_3404_15108" x1="13.0023" y1="14.9612" x2="3.49557" y2="27.4415" gradientUnits="userSpaceOnUse">
<stop stop-color="#FF0000"/>
<stop offset="0.2317" stop-color="#FF1500"/>
<stop offset="0.7367" stop-color="#FF3D00"/>
<stop offset="0.9987" stop-color="#FF4C00"/>
</linearGradient>
<linearGradient id="paint3_linear_3404_15108" x1="10.3182" y1="16.5262" x2="4.26504" y2="29.0323" gradientUnits="userSpaceOnUse">
<stop stop-color="#FF8000"/>
<stop offset="0.6388" stop-color="#FF5B00"/>
<stop offset="0.9987" stop-color="#FF4C00"/>
</linearGradient>
<radialGradient id="paint4_radial_3404_15108" cx="0" cy="0" r="1" gradientUnits="userSpaceOnUse" gradientTransform="translate(1.77294 23.0658) rotate(-134.84) scale(4.85146 6.16049)">
<stop offset="0.00134333" stop-color="#FFED1C" stop-opacity="0.6"/>
<stop offset="0.9477" stop-color="#FFED1C" stop-opacity="0.0264782"/>
<stop offset="0.9914" stop-color="#FFED1C" stop-opacity="0"/>
</radialGradient>
<linearGradient id="paint5_linear_3404_15108" x1="5.45381" y1="23.9913" x2="10.9077" y2="16.2147" gradientUnits="userSpaceOnUse">
<stop stop-color="#FF8000"/>
<stop offset="0.022669" stop-color="#FE7F02" stop-opacity="0.9773"/>
<stop offset="0.6663" stop-color="#ED582A" stop-opacity="0.3337"/>
<stop offset="1" stop-color="#E74939" stop-opacity="0"/>
</linearGradient>
<linearGradient id="paint6_linear_3404_15108" x1="11.6728" y1="15.9184" x2="6.75333" y2="20.3014" gradientUnits="userSpaceOnUse">
<stop stop-color="#FFBC47"/>
<stop offset="0.1869" stop-color="#FFB137" stop-opacity="0.8131"/>
<stop offset="0.7223" stop-color="#FF940F" stop-opacity="0.2777"/>
<stop offset="1" stop-color="#FF8900" stop-opacity="0"/>
</linearGradient>
<radialGradient id="paint7_radial_3404_15108" cx="0" cy="0" r="1" gradientUnits="userSpaceOnUse" gradientTransform="translate(10.4539 17.2029) rotate(-134.84) scale(3.75287 3.86823)">
<stop offset="0.00134333" stop-color="#FFBC47"/>
<stop offset="0.2941" stop-color="#FFBF4B" stop-opacity="0.7068"/>
<stop offset="0.5624" stop-color="#FEC656" stop-opacity="0.4382"/>
<stop offset="0.8201" stop-color="#FCD368" stop-opacity="0.1801"/>
<stop offset="1" stop-color="#FBE07A" stop-opacity="0"/>
</radialGradient>
<radialGradient id="paint8_radial_3404_15108" cx="0" cy="0" r="1" gradientUnits="userSpaceOnUse" gradientTransform="translate(10.3157 17.3418) rotate(-134.84) scale(3.63723 3.74903)">
<stop offset="0.00134333" stop-color="white"/>
<stop offset="1" stop-color="white" stop-opacity="0"/>
</radialGradient>
<radialGradient id="paint9_radial_3404_15108" cx="0" cy="0" r="1" gradientUnits="userSpaceOnUse" gradientTransform="translate(12.0422 17.8675) rotate(-134.84) scale(4.46808 6.60672)">
<stop offset="0.00134333" stop-color="#FFED1C" stop-opacity="0.6"/>
<stop offset="0.9477" stop-color="#FFED1C" stop-opacity="0.0264782"/>
<stop offset="0.9914" stop-color="#FFED1C" stop-opacity="0"/>
</radialGradient>
<radialGradient id="paint10_radial_3404_15108" cx="0" cy="0" r="1" gradientUnits="userSpaceOnUse" gradientTransform="translate(10.3181 17.3405) rotate(-42.887) scale(1.79249 1.14718)">
<stop offset="0.00134333" stop-color="white"/>
<stop offset="1" stop-color="white" stop-opacity="0"/>
</radialGradient>
<radialGradient id="paint11_radial_3404_15108" cx="0" cy="0" r="1" gradientUnits="userSpaceOnUse" gradientTransform="translate(4.28617 22.2979) rotate(-134.84) scale(1.60288 2.03538)">
<stop offset="0.00134333" stop-color="#FFED1C"/>
<stop offset="0.1997" stop-color="#FFEE2B" stop-opacity="0.8013"/>
<stop offset="0.5839" stop-color="#FFF254" stop-opacity="0.4167"/>
<stop offset="1" stop-color="#FFF686" stop-opacity="0"/>
</radialGradient>
<radialGradient id="paint12_radial_3404_15108" cx="0" cy="0" r="1" gradientUnits="userSpaceOnUse" gradientTransform="translate(6.84075 23.4774) rotate(162.506) scale(1.54658 0.314365)">
<stop offset="0.00134333" stop-color="#FFED1C" stop-opacity="0.6"/>
<stop offset="0.9477" stop-color="#FFED1C" stop-opacity="0.0264782"/>
<stop offset="0.9914" stop-color="#FFED1C" stop-opacity="0"/>
</radialGradient>
<radialGradient id="paint13_radial_3404_15108" cx="0" cy="0" r="1" gradientUnits="userSpaceOnUse" gradientTransform="translate(5.74764 24.2118) rotate(-41.1779) scale(1.47897 0.470254)">
<stop offset="0.00134333" stop-color="#FFED1C"/>
<stop offset="0.1997" stop-color="#FFEE2B" stop-opacity="0.8013"/>
<stop offset="0.5839" stop-color="#FFF254" stop-opacity="0.4167"/>
<stop offset="1" stop-color="#FFF686" stop-opacity="0"/>
</radialGradient>
<radialGradient id="paint14_radial_3404_15108" cx="0" cy="0" r="1" gradientUnits="userSpaceOnUse" gradientTransform="translate(4.35322 22.7356) rotate(-134.84) scale(5.00146 6.35096)">
<stop offset="0.00134333" stop-color="#FF4C00"/>
<stop offset="0.135" stop-color="#FF5B0C" stop-opacity="0.8661"/>
<stop offset="0.3941" stop-color="#FF842C" stop-opacity="0.6067"/>
<stop offset="0.7491" stop-color="#FFC45F" stop-opacity="0.2512"/>
<stop offset="1" stop-color="#FFF686" stop-opacity="0"/>
</radialGradient>
<radialGradient id="paint15_radial_3404_15108" cx="0" cy="0" r="1" gradientUnits="userSpaceOnUse" gradientTransform="translate(6.37733 17.4741) rotate(-134.84) scale(2.65469 3.37098)">
<stop offset="0.00134333" stop-color="#FFED1C"/>
<stop offset="0.1997" stop-color="#FFEE2B" stop-opacity="0.8013"/>
<stop offset="0.5839" stop-color="#FFF254" stop-opacity="0.4167"/>
<stop offset="1" stop-color="#FFF686" stop-opacity="0"/>
</radialGradient>
<radialGradient id="paint16_radial_3404_15108" cx="0" cy="0" r="1" gradientUnits="userSpaceOnUse" gradientTransform="translate(10.3107 17.5968) rotate(-134.84) scale(5.5513 7.04915)">
<stop offset="0.00134333" stop-color="#FFED1C"/>
<stop offset="0.1997" stop-color="#FFEE2B" stop-opacity="0.8013"/>
<stop offset="0.5839" stop-color="#FFF254" stop-opacity="0.4167"/>
<stop offset="1" stop-color="#FFF686" stop-opacity="0"/>
</radialGradient>
<linearGradient id="paint17_linear_3404_15108" x1="11.6954" y1="21.3589" x2="17.7304" y2="14.8869" gradientUnits="userSpaceOnUse">
<stop stop-color="#BD2719"/>
<stop offset="0.2151" stop-color="#D41A10"/>
<stop offset="0.5049" stop-color="#EC0C07"/>
<stop offset="0.774" stop-color="#FA0302"/>
<stop offset="1" stop-color="#FF0000"/>
</linearGradient>
<linearGradient id="paint18_linear_3404_15108" x1="15.183" y1="18.3108" x2="13.2906" y2="20.159" gradientUnits="userSpaceOnUse">
<stop stop-color="#FC8D41"/>
<stop offset="0.0900324" stop-color="#FC7837"/>
<stop offset="0.294" stop-color="#FD4D24"/>
<stop offset="0.4922" stop-color="#FE2C14"/>
<stop offset="0.6802" stop-color="#FF1409"/>
<stop offset="0.854" stop-color="#FF0502"/>
<stop offset="1" stop-color="#FF0000"/>
</linearGradient>
<radialGradient id="paint19_radial_3404_15108" cx="0" cy="0" r="1" gradientUnits="userSpaceOnUse" gradientTransform="translate(10.8301 20.5374) rotate(45.1602) scale(8.13879 8.13866)">
<stop offset="0.00134333" stop-color="#FFED1C"/>
<stop offset="0.1997" stop-color="#FFEE2B" stop-opacity="0.8013"/>
<stop offset="0.5839" stop-color="#FFF254" stop-opacity="0.4167"/>
<stop offset="1" stop-color="#FFF686" stop-opacity="0"/>
</radialGradient>
<linearGradient id="paint20_linear_3404_15108" x1="15.3233" y1="16.2494" x2="24.6811" y2="5.46391" gradientUnits="userSpaceOnUse">
<stop stop-color="#BD2719"/>
<stop offset="0.2151" stop-color="#D41A10"/>
<stop offset="0.5049" stop-color="#EC0C07"/>
<stop offset="0.774" stop-color="#FA0302"/>
<stop offset="1" stop-color="#FF0000"/>
</linearGradient>
<linearGradient id="paint21_linear_3404_15108" x1="5.92407" y1="13.8071" x2="11.6015" y2="11.0363" gradientUnits="userSpaceOnUse">
<stop stop-color="#BD2719"/>
<stop offset="0.2151" stop-color="#D41A10"/>
<stop offset="0.5049" stop-color="#EC0C07"/>
<stop offset="0.774" stop-color="#FA0302"/>
<stop offset="1" stop-color="#FF0000"/>
</linearGradient>
<linearGradient id="paint22_linear_3404_15108" x1="9.15797" y1="12.1565" x2="7.36509" y2="14.2757" gradientUnits="userSpaceOnUse">
<stop stop-color="#FC8D41"/>
<stop offset="0.0900324" stop-color="#FC7837"/>
<stop offset="0.294" stop-color="#FD4D24"/>
<stop offset="0.4922" stop-color="#FE2C14"/>
<stop offset="0.6802" stop-color="#FF1409"/>
<stop offset="0.854" stop-color="#FF0502"/>
<stop offset="1" stop-color="#FF0000"/>
</linearGradient>
<radialGradient id="paint23_radial_3404_15108" cx="0" cy="0" r="1" gradientUnits="userSpaceOnUse" gradientTransform="translate(10.0235 17.2929) rotate(45.1603) scale(8.75408 8.75394)">
<stop offset="0.00134333" stop-color="#FFED1C"/>
<stop offset="0.1997" stop-color="#FFEE2B" stop-opacity="0.8013"/>
<stop offset="0.5839" stop-color="#FFF254" stop-opacity="0.4167"/>
<stop offset="1" stop-color="#FFF686" stop-opacity="0"/>
</radialGradient>
<linearGradient id="paint24_linear_3404_15108" x1="13.7581" y1="10.9756" x2="4.62122" y2="11.4005" gradientUnits="userSpaceOnUse">
<stop stop-color="#BD2719"/>
<stop offset="0.2151" stop-color="#D41A10"/>
<stop offset="0.5049" stop-color="#EC0C07"/>
<stop offset="0.774" stop-color="#FA0302"/>
<stop offset="1" stop-color="#FF0000"/>
</linearGradient>
<linearGradient id="paint25_linear_3404_15108" x1="17.0636" y1="7.03652" x2="20.761" y2="10.7133" gradientUnits="userSpaceOnUse">
<stop stop-color="#BBCACC"/>
<stop offset="0.3717" stop-color="white"/>
<stop offset="1" stop-color="#99AFB3"/>
</linearGradient>
<linearGradient id="paint26_linear_3404_15108" x1="23.2962" y1="6.78624" x2="21.2805" y2="4.18482" gradientUnits="userSpaceOnUse">
<stop stop-color="#008EE6"/>
<stop offset="0.688" stop-color="#80DAFE"/>
<stop offset="0.7325" stop-color="#76D5FB"/>
<stop offset="0.8071" stop-color="#5CC8F3"/>
<stop offset="0.9026" stop-color="#32B2E6"/>
<stop offset="1" stop-color="#0099D6"/>
</linearGradient>
<linearGradient id="paint27_linear_3404_15108" x1="16.2534" y1="15.0427" x2="12.0516" y2="10.8868" gradientUnits="userSpaceOnUse">
<stop stop-color="#008EE6"/>
<stop offset="0.688" stop-color="#80DAFE"/>
<stop offset="0.7325" stop-color="#76D5FB"/>
<stop offset="0.8071" stop-color="#5CC8F3"/>
<stop offset="0.9026" stop-color="#32B2E6"/>
<stop offset="1" stop-color="#0099D6"/>
</linearGradient>
<radialGradient id="paint28_radial_3404_15108" cx="0" cy="0" r="1" gradientUnits="userSpaceOnUse" gradientTransform="translate(13.4159 16.4293) rotate(45.1602) scale(3.98703 7.29733)">
<stop stop-opacity="0.75"/>
<stop offset="1" stop-opacity="0"/>
</radialGradient>
<radialGradient id="paint29_radial_3404_15108" cx="0" cy="0" r="1" gradientUnits="userSpaceOnUse" gradientTransform="translate(18.0493 15.4875) rotate(45.1601) scale(3.98704 7.29734)">
<stop stop-opacity="0.75"/>
<stop offset="1" stop-opacity="0"/>
</radialGradient>
<linearGradient id="paint30_linear_3404_15108" x1="10.8433" y1="13.9115" x2="13.4827" y2="17.3578" gradientUnits="userSpaceOnUse">
<stop/>
<stop offset="0.1962" stop-color="#4D4D4C"/>
<stop offset="0.7655"/>
</linearGradient>
<linearGradient id="paint31_linear_3404_15108" x1="10.8433" y1="13.9115" x2="13.4827" y2="17.3578" gradientUnits="userSpaceOnUse">
<stop stop-opacity="0"/>
<stop offset="0.1975" stop-color="#CFDCDE" stop-opacity="0.5"/>
<stop offset="0.7655" stop-opacity="0"/>
</linearGradient>
<linearGradient id="paint32_linear_3404_15108" x1="16.3319" y1="5.69216" x2="22.3454" y2="7.05757" gradientUnits="userSpaceOnUse">
<stop stop-color="#BBCACC"/>
<stop offset="0.3717" stop-color="white"/>
<stop offset="1" stop-color="#99AFB3"/>
</linearGradient>
<radialGradient id="paint33_radial_3404_15108" cx="0" cy="0" r="1" gradientUnits="userSpaceOnUse" gradientTransform="translate(18.1164 13.2653) rotate(44.3944) scale(2.57226 8.3309)">
<stop stop-color="#440063" stop-opacity="0.75"/>
<stop offset="1" stop-color="#420061" stop-opacity="0"/>
</radialGradient>
<linearGradient id="paint34_linear_3404_15108" x1="10.5251" y1="17.8509" x2="17.4542" y2="13.4083" gradientUnits="userSpaceOnUse">
<stop stop-color="#BD2719"/>
<stop offset="0.2151" stop-color="#D41A10"/>
<stop offset="0.5049" stop-color="#EC0C07"/>
<stop offset="0.774" stop-color="#FA0302"/>
<stop offset="1" stop-color="#FF0000"/>
</linearGradient>
<linearGradient id="paint35_linear_3404_15108" x1="9.40326" y1="18.087" x2="12.9799" y2="15.3791" gradientUnits="userSpaceOnUse">
<stop stop-color="#BD2719"/>
<stop offset="0.2151" stop-color="#D41A10"/>
<stop offset="0.5049" stop-color="#EC0C07"/>
<stop offset="0.774" stop-color="#FA0302"/>
<stop offset="1" stop-color="#FF0000"/>
</linearGradient>
<linearGradient id="paint36_linear_3404_15108" x1="12.7915" y1="15.7913" x2="10.742" y2="17.6949" gradientUnits="userSpaceOnUse">
<stop stop-color="#FC8D41"/>
<stop offset="0.0900324" stop-color="#FC7837"/>
<stop offset="0.294" stop-color="#FD4D24"/>
<stop offset="0.4922" stop-color="#FE2C14"/>
<stop offset="0.6802" stop-color="#FF1409"/>
<stop offset="0.854" stop-color="#FF0502"/>
<stop offset="1" stop-color="#FF0000"/>
</linearGradient>
<linearGradient id="paint37_linear_3404_15108" x1="12.7247" y1="17.1184" x2="15.1652" y2="10.1736" gradientUnits="userSpaceOnUse">
<stop stop-color="#BD2719"/>
<stop offset="0.2151" stop-color="#D41A10"/>
<stop offset="0.5049" stop-color="#EC0C07"/>
<stop offset="0.774" stop-color="#FA0302"/>
<stop offset="1" stop-color="#FF0000"/>
</linearGradient>
<linearGradient id="paint38_linear_3404_15108" x1="10.5251" y1="17.8509" x2="17.4542" y2="13.4083" gradientUnits="userSpaceOnUse">
<stop stop-color="#BD2719"/>
<stop offset="0.2151" stop-color="#D41A10"/>
<stop offset="0.5049" stop-color="#EC0C07"/>
<stop offset="0.774" stop-color="#FA0302"/>
<stop offset="1" stop-color="#FF0000"/>
</linearGradient>
<radialGradient id="paint39_radial_3404_15108" cx="0" cy="0" r="1" gradientUnits="userSpaceOnUse" gradientTransform="translate(10.472 17.248) rotate(-39.2068) scale(6.13025 2.05808)">
<stop offset="0.00134333" stop-color="#FFED1C"/>
<stop offset="0.1997" stop-color="#FFEE2B" stop-opacity="0.8013"/>
<stop offset="0.5839" stop-color="#FFF254" stop-opacity="0.4167"/>
<stop offset="1" stop-color="#FFF686" stop-opacity="0"/>
</radialGradient>
<radialGradient id="paint40_radial_3404_15108" cx="0" cy="0" r="1" gradientUnits="userSpaceOnUse" gradientTransform="translate(16.3421 9.05925) rotate(44.3944) scale(2.57226 8.3309)">
<stop stop-color="white" stop-opacity="0.5"/>
<stop offset="1" stop-color="white" stop-opacity="0"/>
</radialGradient>
<radialGradient id="paint41_radial_3404_15108" cx="0" cy="0" r="1" gradientUnits="userSpaceOnUse" gradientTransform="translate(15.7736 14.9615) rotate(44.0246) scale(0.624526 2.99934)">
<stop stop-color="#440063" stop-opacity="0.75"/>
<stop offset="1" stop-color="#420061" stop-opacity="0"/>
</radialGradient>
<linearGradient id="paint42_linear_3404_15108" x1="17.3412" y1="10.0842" x2="19.2878" y2="5.91593" gradientUnits="userSpaceOnUse">
<stop stop-color="#BD2719"/>
<stop offset="0.2151" stop-color="#D41A10"/>
<stop offset="0.5049" stop-color="#EC0C07"/>
<stop offset="0.774" stop-color="#FA0302"/>
<stop offset="1" stop-color="#FF0000"/>
</linearGradient>
<linearGradient id="paint43_linear_3404_15108" x1="18.716" y1="6.06117" x2="17.6549" y2="9.56423" gradientUnits="userSpaceOnUse">
<stop stop-color="#FC8D41"/>
<stop offset="0.0900324" stop-color="#FC7837"/>
<stop offset="0.294" stop-color="#FD4D24"/>
<stop offset="0.4922" stop-color="#FE2C14"/>
<stop offset="0.6802" stop-color="#FF1409"/>
<stop offset="0.854" stop-color="#FF0502"/>
<stop offset="1" stop-color="#FF0000"/>
</linearGradient>
<radialGradient id="paint44_radial_3404_15108" cx="0" cy="0" r="1" gradientUnits="userSpaceOnUse" gradientTransform="translate(17.6585 7.8292) rotate(45.1565) scale(3.40155 3.40127)">
<stop stop-color="#512D00"/>
<stop offset="1"/>
</radialGradient>
<radialGradient id="paint45_radial_3404_15108" cx="0" cy="0" r="1" gradientUnits="userSpaceOnUse" gradientTransform="translate(18.3111 7.16158) scale(2.97592 2.99262)">
<stop offset="0.4873" stop-color="#F5CBC0" stop-opacity="0"/>
<stop offset="1" stop-color="#E67E62"/>
</radialGradient>
<linearGradient id="paint46_linear_3404_15108" x1="18.0355" y1="6.74069" x2="18.1637" y2="4.47846" gradientUnits="userSpaceOnUse">
<stop stop-color="#BD2719"/>
<stop offset="0.0422031" stop-color="#B42717"/>
<stop offset="0.257" stop-color="#89250F"/>
<stop offset="0.4654" stop-color="#682408"/>
<stop offset="0.6634" stop-color="#502304"/>
<stop offset="0.8464" stop-color="#412201"/>
<stop offset="1" stop-color="#3C2200"/>
</linearGradient>
<radialGradient id="paint47_radial_3404_15108" cx="0" cy="0" r="1" gradientUnits="userSpaceOnUse" gradientTransform="translate(14.1127 6.42883) scale(4.03545 4.05808)">
<stop stop-color="white" stop-opacity="0.5"/>
<stop offset="1" stop-color="white" stop-opacity="0"/>
</radialGradient>
</defs>
<path d="M6.3274 18.7609C4.95861 20.0936 6.75491 21.5247 4 23.4638C4 23.4638 5.62124 24.0088 7.0885 22.1519C7.59301 21.5133 8.17589 21.2449 8.17589 21.2449C8.37557 21.3647 8.22296 22.0146 7.51424 22.5523C7.51424 22.5523 8.61995 22.5806 9.31074 21.8861C10.0015 21.1917 10.4712 20.1914 10.4712 20.1914C10.9442 21.0281 9.75992 22.0877 9.75992 22.0877C9.75992 22.0877 10.8778 21.7948 12.2039 20.4611C13.2354 19.4239 13.9689 16.846 12.491 15.3598C11.0131 13.8737 8.37242 14.1448 7.07845 15.446C6.51211 16.0155 5.93218 16.905 5.85775 17.6359C5.85775 17.6359 6.94711 16.4531 7.33229 16.9516C7.33229 16.9516 5.4897 18.0716 5.19353 19.1352C5.19373 19.1352 6.11079 18.5849 6.3274 18.7609Z" fill="url(#paint0_linear_3404_15108)"/>
<path d="M5.30925 19.7782C3.87527 20.3574 4.79863 21.5665 4.18286 22.1893C4.18286 22.1893 5.00816 21.7355 4.99477 20.8473C4.98394 20.1239 5.30925 19.7782 5.30925 19.7782Z" fill="url(#paint1_linear_3404_15108)"/>
<path d="M5.64441 23.9829C6.01167 23.9389 6.63275 22.8643 7.47596 23.0427C7.47596 23.0427 6.71999 24.1496 5.64441 23.9829Z" fill="url(#paint2_linear_3404_15108)"/>
<path opacity="0.5" d="M10.1784 21.8246C10.6281 21.6555 11.3949 21.2749 12.2039 20.4614C13.1097 19.5505 13.8649 16.9639 12.3805 15.4712C10.9296 14.0121 8.38559 14.3066 7.16548 15.5337C6.72477 15.9769 6.25866 16.6401 6.07336 17.2532C6.3392 17.0152 6.72772 16.7215 7.05362 16.6906C7.22081 16.6748 7.35826 16.73 7.45101 16.85L7.54415 16.9704L7.38268 17.0688C7.36673 17.0785 5.93512 17.9574 5.45128 18.8483C5.7831 18.6784 6.2433 18.4912 6.43037 18.6433L6.53671 18.7299L6.41226 18.8513C5.90125 19.3487 5.87683 19.8638 5.84847 20.4598C5.80791 21.3111 5.76222 22.2702 4.32214 23.3817C4.81149 23.4474 5.93275 23.4157 6.98667 22.0816C7.51442 21.4137 8.11916 21.1303 8.14456 21.1186L8.21368 21.087L8.26744 21.1192C8.36748 21.1788 8.41198 21.3064 8.39347 21.4777C8.36807 21.7117 8.21998 22.0505 7.88935 22.3878C8.24952 22.3413 8.82157 22.2036 9.22388 21.7991C9.88297 21.1363 10.3418 20.1679 10.3463 20.1582L10.4749 19.8843L10.5978 20.1016C10.9168 20.6662 10.5618 21.3547 10.1784 21.8246Z" fill="url(#paint3_linear_3404_15108)"/>
<path d="M4.18311 22.1893C4.58738 21.8586 5.00052 21.2125 4.99501 20.8473C4.98989 20.5132 5.08106 20.0406 5.30949 19.7782C4.30677 20.2067 4.4454 20.884 4.5732 21.2192C4.62893 21.3659 4.55351 21.8026 4.18311 22.1893Z" fill="url(#paint4_radial_3404_15108)"/>
<path d="M4.96179 23.1834C6.86444 22.5507 7.37387 20.3776 8.5995 20.0005C9.82513 19.6235 9.51656 20.8021 9.04474 21.3336C9.04474 21.3336 10.6622 19.7007 10.6723 18.4231C10.6823 17.1454 12.3855 19.1399 11.8572 20.178C11.8572 20.178 14.4598 17.5621 12.3806 15.4711C10.3013 13.3802 7.5318 15.4664 7.5318 15.4664C7.5318 15.4664 9.10834 15.4018 8.97207 16.5525C8.97207 16.5525 7.7555 17.0157 6.79886 17.7876C6.79886 17.7876 7.26891 17.8377 7.59048 18.3221C7.59048 18.3221 6.15986 19.3144 6.21637 20.1704C6.28923 21.2695 5.57106 22.9808 4.96179 23.1834Z" fill="url(#paint5_linear_3404_15108)"/>
<path d="M6.29248 21.5275C7.18256 21.3031 7.9663 19.2098 9.21438 19.3257C9.90419 19.3896 9.74449 19.9885 9.74449 19.9885C9.74449 19.9885 10.2232 19.3029 10.3329 18.3759C10.4426 17.449 12.1577 17.766 12.0817 19.5049C12.0817 19.5049 13.968 17.0383 11.6804 15.4717C9.15648 13.7434 7.31213 15.9129 7.31213 15.9129C7.31213 15.9129 9.03656 15.3353 9.30457 16.7121C9.30457 16.7121 7.87788 17.1114 7.35309 17.6393C7.35309 17.6393 7.96354 17.7254 8.10926 18.3811C8.10926 18.3811 6.70345 19.4146 6.74559 19.8253C6.8472 20.8166 6.29248 21.5275 6.29248 21.5275Z" fill="url(#paint6_linear_3404_15108)"/>
<path opacity="0.5" d="M6.3274 18.7609C4.95861 20.0936 6.75491 21.5247 4 23.4638C4 23.4638 5.62124 24.0088 7.0885 22.1519C7.59301 21.5133 8.17589 21.2449 8.17589 21.2449C8.37557 21.3647 8.22296 22.0146 7.51424 22.5523C7.51424 22.5523 8.61995 22.5806 9.31074 21.8861C10.0015 21.1917 10.4712 20.1914 10.4712 20.1914C10.9442 21.0281 9.75992 22.0877 9.75992 22.0877C9.75992 22.0877 10.8778 21.7948 12.2039 20.4611C13.2354 19.4239 13.9689 16.846 12.491 15.3598C11.0131 13.8737 8.37242 14.1448 7.07845 15.446C6.51211 16.0155 5.93218 16.905 5.85775 17.6359C5.85775 17.6359 6.94711 16.4531 7.33229 16.9516C7.33229 16.9516 5.4897 18.0716 5.19353 19.1352C5.19373 19.1352 6.11079 18.5849 6.3274 18.7609Z" fill="url(#paint7_radial_3404_15108)"/>
<path opacity="0.5" d="M6.3274 18.7609C4.95861 20.0936 6.75491 21.5247 4 23.4638C4 23.4638 5.62124 24.0088 7.0885 22.1519C7.59301 21.5133 8.17589 21.2449 8.17589 21.2449C8.37557 21.3647 8.22296 22.0146 7.51424 22.5523C7.51424 22.5523 8.61995 22.5806 9.31074 21.8861C10.0015 21.1917 10.4712 20.1914 10.4712 20.1914C10.9442 21.0281 9.75992 22.0877 9.75992 22.0877C9.75992 22.0877 10.8778 21.7948 12.2039 20.4611C13.2354 19.4239 13.9689 16.846 12.491 15.3598C11.0131 13.8737 8.37242 14.1448 7.07845 15.446C6.51211 16.0155 5.93218 16.905 5.85775 17.6359C5.85775 17.6359 6.94711 16.4531 7.33229 16.9516C7.33229 16.9516 5.4897 18.0716 5.19353 19.1352C5.19373 19.1352 6.11079 18.5849 6.3274 18.7609Z" fill="url(#paint8_radial_3404_15108)"/>
<path d="M11.5086 20.8979C12.8414 19.4702 13.597 16.9165 12.2048 15.5164C10.8125 14.1164 8.25059 15.2927 7.11337 16.3487C7.11337 16.3487 8.01783 15.9644 8.73383 16.4256C9.44984 16.8868 7.40718 17.6779 6.98242 18.9335C6.98242 18.9335 8.80413 17.8333 9.37481 18.2995C9.94548 18.7656 9.36673 20.2306 8.81949 20.7809C8.81949 20.7809 10.1245 20.1098 10.8281 19.2431C11.898 17.9252 11.5086 20.8979 11.5086 20.8979Z" fill="url(#paint9_radial_3404_15108)"/>
<path opacity="0.5" d="M6.3274 18.7609C4.95861 20.0936 6.75491 21.5247 4 23.4638C4 23.4638 5.62124 24.0088 7.0885 22.1519C7.59301 21.5133 8.17589 21.2449 8.17589 21.2449C8.37557 21.3647 8.22296 22.0146 7.51424 22.5523C7.51424 22.5523 8.61995 22.5806 9.31074 21.8861C10.0015 21.1917 10.4712 20.1914 10.4712 20.1914C10.9442 21.0281 9.75992 22.0877 9.75992 22.0877C9.75992 22.0877 10.8778 21.7948 12.2039 20.4611C13.2354 19.4239 13.9689 16.846 12.491 15.3598C11.0131 13.8737 8.37242 14.1448 7.07845 15.446C6.51211 16.0155 5.93218 16.905 5.85775 17.6359C5.85775 17.6359 6.94711 16.4531 7.33229 16.9516C7.33229 16.9516 5.4897 18.0716 5.19353 19.1352C5.19373 19.1352 6.11079 18.5849 6.3274 18.7609Z" fill="url(#paint10_radial_3404_15108)"/>
<path opacity="0.5" d="M5.30925 19.7782C3.87527 20.3574 4.79863 21.5665 4.18286 22.1893C4.18286 22.1893 5.00816 21.7355 4.99477 20.8473C4.98394 20.1239 5.30925 19.7782 5.30925 19.7782Z" fill="url(#paint11_radial_3404_15108)"/>
<path d="M5.64441 23.9828C6.01167 23.9388 6.55064 23.1857 7.47596 23.0425C7.47596 23.0425 6.71999 24.1495 5.64441 23.9828Z" fill="url(#paint12_radial_3404_15108)"/>
<path opacity="0.5" d="M5.64441 23.9829C6.01167 23.9389 6.63275 22.8643 7.47596 23.0427C7.47596 23.0427 6.71999 24.1496 5.64441 23.9829Z" fill="url(#paint13_radial_3404_15108)"/>
<path opacity="0.5" d="M6.3274 18.7609C4.95861 20.0936 6.75491 21.5247 4 23.4638C4 23.4638 5.62124 24.0088 7.0885 22.1519C7.59301 21.5133 8.17589 21.2449 8.17589 21.2449C8.37557 21.3647 8.22296 22.0146 7.51424 22.5523C7.51424 22.5523 8.61995 22.5806 9.31074 21.8861C10.0015 21.1917 10.4712 20.1914 10.4712 20.1914C10.9442 21.0281 9.75992 22.0877 9.75992 22.0877C9.75992 22.0877 10.8778 21.7948 12.2039 20.4611C13.2354 19.4239 13.9689 16.846 12.491 15.3598C11.0131 13.8737 8.37242 14.1448 7.07845 15.446C6.51211 16.0155 5.93218 16.905 5.85775 17.6359C5.85775 17.6359 6.94711 16.4531 7.33229 16.9516C7.33229 16.9516 5.4897 18.0716 5.19353 19.1352C5.19373 19.1352 6.11079 18.5849 6.3274 18.7609Z" fill="url(#paint14_radial_3404_15108)"/>
<path opacity="0.25" d="M6.3274 18.7609C4.95861 20.0936 6.75491 21.5247 4 23.4638C4 23.4638 5.62124 24.0088 7.0885 22.1519C7.59301 21.5133 8.17589 21.2449 8.17589 21.2449C8.37557 21.3647 8.22296 22.0146 7.51424 22.5523C7.51424 22.5523 8.61995 22.5806 9.31074 21.8861C10.0015 21.1917 10.4712 20.1914 10.4712 20.1914C10.9442 21.0281 9.75992 22.0877 9.75992 22.0877C9.75992 22.0877 10.8778 21.7948 12.2039 20.4611C13.2354 19.4239 13.9689 16.846 12.491 15.3598C11.0131 13.8737 8.37242 14.1448 7.07845 15.446C6.51211 16.0155 5.93218 16.905 5.85775 17.6359C5.85775 17.6359 6.94711 16.4531 7.33229 16.9516C7.33229 16.9516 5.4897 18.0716 5.19353 19.1352C5.19373 19.1352 6.11079 18.5849 6.3274 18.7609Z" fill="url(#paint15_radial_3404_15108)"/>
<path opacity="0.75" d="M6.3274 18.7609C4.95861 20.0936 6.75491 21.5247 4 23.4638C4 23.4638 5.62124 24.0088 7.0885 22.1519C7.59301 21.5133 8.17589 21.2449 8.17589 21.2449C8.37557 21.3647 8.22296 22.0146 7.51424 22.5523C7.51424 22.5523 8.61995 22.5806 9.31074 21.8861C10.0015 21.1917 10.4712 20.1914 10.4712 20.1914C10.9442 21.0281 9.75992 22.0877 9.75992 22.0877C9.75992 22.0877 10.8778 21.7948 12.2039 20.4611C13.2354 19.4239 13.9689 16.846 12.491 15.3598C11.0131 13.8737 8.37242 14.1448 7.07845 15.446C6.51211 16.0155 5.93218 16.905 5.85775 17.6359C5.85775 17.6359 6.94711 16.4531 7.33229 16.9516C7.33229 16.9516 5.4897 18.0716 5.19353 19.1352C5.19373 19.1352 6.11079 18.5849 6.3274 18.7609Z" fill="url(#paint16_radial_3404_15108)"/>
<path d="M17.3772 17.4488C17.2454 16.1369 17.5477 14.7436 18.2375 13.483L18.4561 13.0836L15.0832 15.304L14.8005 17.3431L13.4843 18.6154C13.7678 19.7229 13.779 20.8034 13.779 20.8034C16.0143 19.4544 17.3772 17.4488 17.3772 17.4488Z" fill="url(#paint17_linear_3404_15108)"/>
<path d="M13.779 20.8034C13.779 20.8034 13.771 19.707 13.4843 18.6155L14.0402 18.0782C14.2097 18.4559 14.5415 19.2998 14.6242 20.2361C14.357 20.429 14.078 20.627 13.779 20.8034Z" fill="url(#paint18_linear_3404_15108)"/>
<path opacity="0.75" d="M17.3772 17.4488C17.2454 16.1369 17.5477 14.7436 18.2375 13.483L18.4561 13.0836L15.0832 15.304L14.8005 17.3431L13.4843 18.6154C13.7678 19.7229 13.779 20.8034 13.779 20.8034C16.0143 19.4544 17.3772 17.4488 17.3772 17.4488Z" fill="url(#paint19_radial_3404_15108)"/>
<path d="M17.7052 14.6987C17.8437 14.2848 18.0217 13.8775 18.2373 13.4832L18.3598 13.2593C18.3304 13.2416 18.3005 13.2238 18.2704 13.206L15.0832 15.3041L14.8922 16.6819C15.619 16.3853 16.6474 15.7694 17.7052 14.6987Z" fill="url(#paint20_linear_3404_15108)"/>
<path d="M14.0447 9.58577C14.0124 9.50576 13.9898 9.44695 13.9616 9.36576C12.7049 9.96815 11.2825 10.1345 9.91158 9.87706C9.91158 9.87706 7.88626 11.2112 6.64429 13.576C6.64429 13.576 7.80316 13.6871 9.01639 14.1037L10.2601 12.7546L12.2746 12.6348C12.7254 11.6296 13.273 10.54 14.0447 9.58577Z" fill="url(#paint21_linear_3404_15108)"/>
<path d="M6.64441 13.576C6.64441 13.576 7.80328 13.6871 9.01651 14.1037L9.54819 13.5271C9.12186 13.3055 8.19633 12.8726 7.17097 12.6946C6.98626 12.97 6.80844 13.2637 6.64441 13.576Z" fill="url(#paint22_linear_3404_15108)"/>
<path opacity="0.75" d="M14.0447 9.58577C14.0124 9.50576 13.9898 9.44695 13.9616 9.36576C12.7049 9.96815 11.2825 10.1345 9.91158 9.87706C9.91158 9.87706 7.88626 11.2112 6.64429 13.576C6.64429 13.576 7.80316 13.6871 9.01639 14.1037L10.2601 12.7546L12.2746 12.6348C12.7254 11.6296 13.273 10.54 14.0447 9.58577Z" fill="url(#paint23_radial_3404_15108)"/>
<path d="M13.9619 9.36576C13.472 9.74498 11.9315 11.2365 11.3956 12.6872L12.2749 12.635C12.7254 11.6298 13.408 10.5167 14.1797 9.5622L13.9619 9.36576Z" fill="url(#paint24_linear_3404_15108)"/>
<path d="M14.4923 9.07475C15.0157 9.92883 15.703 10.7738 16.4721 11.5269C16.5088 11.5627 16.5456 11.5986 16.5826 11.634C17.2318 12.2562 17.9356 12.8115 18.6457 13.2517C18.6453 13.2521 18.6449 13.2525 18.6446 13.2529C18.7093 13.1899 18.7745 13.1275 18.8385 13.063C20.6833 11.2079 21.7494 9.81892 22.6674 8.04739C22.0119 6.77192 20.9359 5.68991 19.6674 5.03049C17.9057 5.95368 16.5245 7.02579 14.6798 8.88088C14.616 8.94504 14.5541 9.01039 14.4917 9.07534C14.4919 9.07494 14.4921 9.07494 14.4923 9.07475Z" fill="url(#paint25_linear_3404_15108)"/>
<path d="M22.6674 8.04713C23.9159 5.63836 23.7574 4.34882 23.5512 4.14149C23.345 3.93416 22.0629 3.77494 19.6674 5.03022C20.9359 5.68964 22.0119 6.77165 22.6674 8.04713Z" fill="url(#paint26_linear_3404_15108)"/>
<path d="M12.3803 15.3754C13.0432 16.0419 13.6517 16.5277 13.8151 16.5288C15.2989 15.8754 17.0735 14.7797 18.646 13.2515C17.9359 12.8113 17.2321 12.2561 16.5828 11.6339C16.5458 11.5984 16.509 11.5628 16.4724 11.5267C15.7034 10.7737 15.0159 9.92868 14.4925 9.0746C12.9701 10.6592 11.8823 12.4515 11.2349 13.9472C11.2613 14.1306 11.7356 14.7272 12.3803 15.3754Z" fill="url(#paint27_linear_3404_15108)"/>
<path opacity="0.75" d="M12.3803 15.3754C13.0432 16.0419 13.6517 16.5277 13.8151 16.5288C15.2989 15.8754 17.0735 14.7797 18.646 13.2515C17.9359 12.8113 17.2321 12.2561 16.5828 11.6339C16.5458 11.5984 16.509 11.5628 16.4724 11.5267C15.7034 10.7737 15.0159 9.92868 14.4925 9.0746C12.9701 10.6592 11.8823 12.4515 11.2349 13.9472C11.2613 14.1306 11.7356 14.7272 12.3803 15.3754Z" fill="url(#paint28_radial_3404_15108)"/>
<path opacity="0.5" d="M16.5827 11.6339C16.5456 11.5984 16.5088 11.5628 16.4722 11.5267C15.7032 10.7737 15.0158 9.92868 14.4923 9.0746C14.4539 9.1146 14.4171 9.15519 14.3791 9.19539C15.4452 11.2214 18.6944 13.1458 16.2134 14.1674C14.5847 14.8381 13.8551 15.6312 13.4636 16.3387C13.6296 16.4595 13.7537 16.5283 13.8149 16.5287C15.2987 15.8752 17.0734 14.7795 18.6458 13.2513C17.9357 12.8113 17.2321 12.2561 16.5827 11.6339Z" fill="url(#paint29_radial_3404_15108)"/>
<path d="M12.3804 15.3753C11.7357 14.7269 11.2613 14.1305 11.2347 13.9471L10.3218 14.3505C10.2141 14.4588 10.8159 15.2392 11.6658 16.0939C12.5157 16.9486 13.292 17.5535 13.3995 17.4454L13.8152 16.5288C13.6517 16.5276 13.043 16.0418 12.3804 15.3753Z" fill="url(#paint30_linear_3404_15108)"/>
<path d="M12.3804 15.3753C11.7357 14.7269 11.2613 14.1305 11.2347 13.9471L10.3218 14.3505C10.2141 14.4588 10.8159 15.2392 11.6658 16.0939C12.5157 16.9486 13.292 17.5535 13.3995 17.4454L13.8152 16.5288C13.6517 16.5276 13.043 16.0418 12.3804 15.3753Z" fill="url(#paint31_linear_3404_15108)"/>
<path d="M22.4158 8.51657C22.4247 8.49954 22.6588 8.06428 22.6677 8.04725C22.0121 6.77177 20.9362 5.68976 19.6676 5.03034C19.6505 5.03925 19.6341 5.04856 19.6172 5.05747C20.859 5.76897 22.2671 7.36842 22.4158 8.51657Z" fill="url(#paint32_linear_3404_15108)"/>
<path opacity="0.75" d="M23.5512 4.14164C23.345 3.9343 22.0629 3.77509 19.6674 5.03037C17.9057 5.95356 16.5245 7.02566 14.6797 8.88076C14.6159 8.94492 14.5541 9.01027 14.4917 9.07522C14.4919 9.07502 14.4921 9.07482 14.4923 9.07462C12.9699 10.6594 11.8821 12.4515 11.2346 13.9472C11.2612 14.1306 11.7356 14.727 12.3803 15.3754C13.0431 16.0419 13.6516 16.5277 13.8151 16.5289C15.2989 15.8754 17.0735 14.7797 18.6459 13.2516C18.6455 13.2519 18.6451 13.2523 18.6447 13.2527C18.7095 13.1898 18.7745 13.1274 18.8387 13.0628C20.6835 11.2077 21.7496 9.8188 22.6676 8.04727C23.9159 5.63831 23.7574 4.34897 23.5512 4.14164Z" fill="url(#paint33_radial_3404_15108)"/>
<path d="M10.9664 18.3794C12.9299 16.7873 14.4688 15.0074 14.5086 14.9611L14.2018 14.6526C14.2018 14.6526 12.6004 16.4128 10.6852 18.1006L10.9664 18.3794Z" fill="url(#paint34_linear_3404_15108)"/>
<path d="M14.2018 14.6525C14.5584 13.9691 15.1626 13.1109 15.9347 12.1873C15.9158 12.1697 15.8967 12.1526 15.878 12.1348C15.0411 12.9332 14.2136 13.6566 13.4671 14.2951L12.6026 15.5713L11.2996 16.8607C11.0739 17.4371 10.6852 18.1005 10.6852 18.1005C12.6004 16.4127 14.2018 14.6525 14.2018 14.6525Z" fill="url(#paint35_linear_3404_15108)"/>
<path d="M11.3653 17.4871C11.3665 17.4851 11.8228 16.6548 11.7808 16.3847L11.2996 16.8609C11.0739 17.4374 10.6852 18.1008 10.6852 18.1008C10.9173 17.8962 11.1446 17.6905 11.3653 17.4871Z" fill="url(#paint36_linear_3404_15108)"/>
<path d="M14.5106 14.959C14.7666 14.1725 15.3483 13.2887 16.0875 12.328C16.0363 12.2821 15.9855 12.2348 15.9349 12.1874C15.1628 13.111 14.5587 13.9693 14.202 14.6527C14.202 14.6527 12.6007 16.4129 10.6854 18.1007L10.9666 18.3795C12.9559 16.7664 14.5106 14.959 14.5106 14.959Z" fill="url(#paint37_linear_3404_15108)"/>
<path d="M10.9664 18.3794C12.9299 16.7873 14.4688 15.0074 14.5086 14.9611L14.2018 14.6526C14.2018 14.6526 12.6004 16.4128 10.6852 18.1006L10.9664 18.3794Z" fill="url(#paint38_linear_3404_15108)"/>
<path opacity="0.75" d="M14.2018 14.6525C14.5584 13.9691 15.1626 13.1109 15.9347 12.1873C15.9158 12.1697 15.8967 12.1526 15.878 12.1348C15.0411 12.9332 14.2136 13.6566 13.4671 14.2951L12.6026 15.5713L11.2996 16.8607C11.0739 17.4371 10.6852 18.1005 10.6852 18.1005C12.6004 16.4127 14.2018 14.6525 14.2018 14.6525Z" fill="url(#paint39_radial_3404_15108)"/>
<path opacity="0.75" d="M23.5512 4.14164C23.345 3.9343 22.0629 3.77509 19.6674 5.03037C17.9057 5.95356 16.5245 7.02566 14.6797 8.88076C14.6159 8.94492 14.5541 9.01027 14.4917 9.07522C14.4919 9.07502 14.4921 9.07482 14.4923 9.07462C12.9699 10.6594 11.8821 12.4515 11.2346 13.9472C11.2612 14.1306 11.7356 14.727 12.3803 15.3754C13.0431 16.0419 13.6516 16.5277 13.8151 16.5289C15.2989 15.8754 17.0735 14.7797 18.6459 13.2516C18.6455 13.2519 18.6451 13.2523 18.6447 13.2527C18.7095 13.1898 18.7745 13.1274 18.8387 13.0628C20.6835 11.2077 21.7496 9.8188 22.6676 8.04727C23.9159 5.63831 23.7574 4.34897 23.5512 4.14164Z" fill="url(#paint40_radial_3404_15108)"/>
<g opacity="0.16">
<path opacity="0.16" d="M22.1471 8.99771C22.1426 8.99771 22.138 8.99553 22.1353 8.99157C21.9803 8.77315 21.8218 8.56364 21.6506 8.35096C21.6455 8.34463 21.6465 8.33532 21.6528 8.33037C21.6591 8.32522 21.6681 8.32621 21.6733 8.33255C21.8448 8.54582 22.0037 8.75592 22.1589 8.97474C22.1636 8.98127 22.1621 8.99058 22.1556 8.99533C22.153 8.99672 22.15 8.99771 22.1471 8.99771Z" fill="black"/>
<path opacity="0.16" d="M22.3109 7.39429C22.3153 7.38736 22.3133 7.37825 22.3064 7.37389C22.2997 7.36973 22.2905 7.37152 22.2861 7.37845C22.2497 7.43627 22.2121 7.49508 22.1735 7.55469C21.1915 9.07413 20.1755 10.3152 18.5543 11.9756C18.0352 11.598 17.5234 11.1653 17.0449 10.6843C16.7273 10.3649 16.4325 10.0294 16.1574 9.68821C17.8269 8.02797 19.072 6.92873 20.4922 5.86257C20.5704 5.80375 20.6472 5.74672 20.7222 5.69167C20.7287 5.68692 20.7301 5.67761 20.7253 5.67108C20.7206 5.66434 20.7114 5.66296 20.7049 5.66791C20.6298 5.72316 20.5532 5.78019 20.4747 5.839C19.0541 6.90556 17.8082 8.0052 16.1387 9.66583C15.7898 9.23097 15.4761 8.78621 15.2171 8.34323C15.213 8.3361 15.2039 8.33372 15.197 8.33808C15.1899 8.34224 15.1878 8.35115 15.1919 8.35828C15.452 8.80324 15.7673 9.25018 16.1178 9.68682C16.0111 9.79316 15.9083 9.89416 15.798 10.0052C15.7476 10.0557 15.6982 10.1064 15.6488 10.1571L15.6084 10.1983C15.608 10.1987 15.6078 10.1989 15.6076 10.1993C15.5468 10.2613 15.4865 10.3235 15.4266 10.3857C15.4211 10.3914 15.4211 10.4007 15.427 10.4064C15.43 10.4092 15.4337 10.4106 15.4373 10.4106C15.441 10.4106 15.4449 10.409 15.4479 10.406C15.5082 10.3435 15.5688 10.2811 15.6299 10.2185C15.6302 10.2183 15.6304 10.2179 15.6306 10.2177L15.6696 10.1779C15.7191 10.1272 15.7687 10.0767 15.8187 10.0262C15.9286 9.91574 16.0306 9.81534 16.1367 9.7096C16.4122 10.0508 16.707 10.3864 17.0244 10.7059C17.5053 11.1892 18.0201 11.6243 18.5421 12.0035C18.5427 12.0059 18.5403 12.0083 18.5421 12.0102C18.5449 12.013 18.5488 12.0144 18.5523 12.0144C18.5535 12.0144 18.5543 12.0134 18.5553 12.0132C18.8227 12.2069 19.0915 12.3905 19.3599 12.5491C19.3623 12.5505 19.3648 12.5511 19.3674 12.5511C19.3723 12.5511 19.3772 12.5485 19.38 12.5437C19.3839 12.5366 19.3818 12.5277 19.3749 12.5235C19.1092 12.3667 18.8434 12.1851 18.5785 11.9936C20.1996 10.3332 21.2161 9.09136 22.1985 7.57093C22.2367 7.51112 22.2743 7.45231 22.3109 7.39429Z" fill="black"/>
</g>
<path opacity="0.75" d="M13.4014 16.113C14.7493 15.3231 16.4125 14.1152 17.9762 12.5783C17.9758 12.5787 17.9754 12.5791 17.975 12.5795" fill="url(#paint41_radial_3404_15108)"/>
<path d="M19.4294 9.23629C18.6782 9.93235 17.5678 9.93789 16.949 9.24857C16.3303 8.55925 16.4376 7.43625 17.1889 6.74019C17.9401 6.04413 19.0506 6.03859 19.6693 6.72791C20.288 7.41724 20.1807 8.54024 19.4294 9.23629Z" fill="url(#paint42_linear_3404_15108)"/>
<path d="M19.1064 8.84723C18.4906 9.41794 17.5801 9.42249 17.0728 8.85733C16.5655 8.29237 16.6535 7.37155 17.2693 6.80104C17.8851 6.23033 18.7956 6.22578 19.3029 6.79094C19.8102 7.35591 19.7222 8.27652 19.1064 8.84723Z" fill="url(#paint43_linear_3404_15108)"/>
<path d="M18.9648 8.69407C18.4156 9.20299 17.6039 9.20696 17.1516 8.70318C16.6992 8.1994 16.7778 7.37839 17.3268 6.86967C17.8758 6.36094 18.6877 6.35678 19.14 6.86056C19.5924 7.36433 19.514 8.18515 18.9648 8.69407Z" fill="url(#paint44_radial_3404_15108)"/>
<path opacity="0.5" d="M18.9648 8.69407C18.4156 9.20299 17.6039 9.20696 17.1516 8.70318C16.6992 8.1994 16.7778 7.37839 17.3268 6.86967C17.8758 6.36094 18.6877 6.35678 19.14 6.86056C19.5924 7.36433 19.514 8.18515 18.9648 8.69407Z" fill="url(#paint45_radial_3404_15108)"/>
<path opacity="0.5" d="M19.0306 7.23281C19.2379 7.46371 19.3492 7.75124 19.3712 8.05164C19.5006 7.6346 19.4295 7.18271 19.1401 6.86033C18.6877 6.35655 17.876 6.36051 17.3268 6.86944C17.2716 6.92053 17.2226 6.97538 17.1771 7.03202C17.7964 6.65537 18.5711 6.72092 19.0306 7.23281Z" fill="black"/>
<path d="M19.1402 6.86033C18.6879 6.35655 17.8762 6.36051 17.327 6.86944C16.7778 7.37837 16.6994 8.19918 17.1517 8.70296C17.1988 8.75524 17.2447 8.79405 17.2163 8.76732C16.8115 8.36018 16.9355 7.5257 17.4576 7.00073C17.8723 6.58369 18.681 6.42665 19.1428 6.8635" fill="url(#paint46_linear_3404_15108)"/>
<path opacity="0.5" d="M19.1402 6.86047L19.1428 6.86363C18.681 6.42679 17.8722 6.58383 17.4575 7.00087C16.9583 7.50286 16.8242 8.28664 17.1671 8.71041C17.2212 8.73794 17.2419 8.792 17.2161 8.76764C17.1984 8.74982 17.1828 8.73001 17.1671 8.71041C17.1619 8.70784 17.157 8.70526 17.1515 8.70308C17.6038 9.20686 18.4155 9.2029 18.9647 8.69397C19.514 8.18525 19.5925 7.36444 19.1402 6.86047Z" fill="url(#paint47_radial_3404_15108)"/>
<path d="M22.6756 8.05335C22.6677 8.05335 22.6601 8.04899 22.6561 8.04146C22.0002 6.76499 20.9412 5.69942 19.6746 5.04119C19.6638 5.03564 19.6596 5.02238 19.6652 5.01148C19.6707 5.00059 19.6841 4.99643 19.6947 5.00198C20.9693 5.66457 22.035 6.73668 22.6951 8.02126C22.7006 8.03216 22.6965 8.04542 22.6857 8.05097C22.6825 8.05255 22.6792 8.05335 22.6756 8.05335Z" fill="#008EE6"/>
<path d="M18.6457 13.2735C18.6418 13.2735 18.6379 13.2725 18.6343 13.2701C17.9384 12.8388 17.2236 12.2784 16.5674 11.6497C16.5304 11.6143 16.4934 11.5784 16.4568 11.5424C15.675 10.7768 14.9893 9.92748 14.4736 9.08608C14.4673 9.07578 14.4704 9.06212 14.4809 9.05578C14.4909 9.04944 14.5047 9.05261 14.511 9.06291C15.0248 9.90135 15.7083 10.7477 16.4875 11.5107C16.5241 11.5465 16.5609 11.5822 16.5978 11.6176C17.2517 12.2442 17.9638 12.8026 18.6572 13.2323C18.6676 13.2387 18.6708 13.2523 18.6645 13.2626C18.6603 13.2697 18.6532 13.2735 18.6457 13.2735Z" fill="#008EE6"/>
</svg>
