<svg width="28" height="28" viewBox="0 0 28 28" fill="none" xmlns="http://www.w3.org/2000/svg">
<path d="M14.3926 21.849C14.3031 21.849 14.2134 21.8146 14.1451 21.7465C14.0083 21.6096 14.0083 21.3884 14.1451 21.2516L20.0851 15.3116C20.222 15.1748 20.4432 15.1748 20.58 15.3116C20.7168 15.4485 20.7168 15.6698 20.58 15.8065L14.6404 21.7465C14.5721 21.8146 14.4824 21.849 14.3929 21.849H14.3926Z" fill="#3F3F3F" stroke="#3F3F3F" stroke-width="0.2"/>
<path d="M18.5425 19.2696C18.5425 19.028 18.3466 18.832 18.105 18.832C17.8634 18.832 17.6675 19.028 17.6675 19.2696C17.6675 19.5111 17.8634 19.7071 18.105 19.7071C18.3464 19.7071 18.5425 19.511 18.5425 19.2696Z" fill="#3F3F3F" stroke="#3F3F3F" stroke-width="0.2"/>
<path d="M11.9467 7.5242C11.8572 7.5242 11.7675 7.48983 11.6992 7.4217C11.3023 7.02483 10.6111 7.02483 10.2142 7.4217C10.0773 7.55858 9.85607 7.55858 9.71936 7.4217C9.58248 7.28514 9.58248 7.06358 9.71936 6.92686C10.0498 6.59608 10.4894 6.41406 10.957 6.41406C11.4242 6.41406 11.8639 6.59609 12.1942 6.92686C12.3311 7.06374 12.3311 7.2853 12.1942 7.4217C12.1259 7.48983 12.0362 7.5242 11.9467 7.5242Z" fill="#3F3F3F" stroke="#3F3F3F" stroke-width="0.2"/>
<path d="M20.827 16.4042C20.7374 16.4042 20.6478 16.3698 20.5795 16.3017L11.6991 7.42172C11.5622 7.28484 11.5622 7.06359 11.6991 6.92688C11.836 6.79 12.0572 6.79 12.1939 6.92688L21.0747 15.8077C21.2116 15.9445 21.2116 16.1658 21.0747 16.3025C21.0064 16.3706 20.9169 16.4045 20.8272 16.4045L20.827 16.4042Z" fill="#3F3F3F" stroke="#3F3F3F" stroke-width="0.2"/>
<path d="M6.00714 11.4837C5.91761 11.4837 5.82792 11.4494 5.75964 11.3812C5.62276 11.2444 5.62276 11.0231 5.75964 10.8864L9.71915 6.92688C9.85602 6.79 10.0773 6.79 10.214 6.92688C10.3509 7.06375 10.3509 7.285 10.214 7.42171L6.25464 11.3812C6.18605 11.4495 6.09636 11.4837 6.00714 11.4837Z" fill="#3F3F3F" stroke="#3F3F3F" stroke-width="0.2"/>
<path d="M6.00713 13.4632C5.9176 13.4632 5.82791 13.4288 5.75963 13.3607C5.42885 13.0303 5.24683 12.5907 5.24683 12.1231C5.24683 11.6554 5.42886 11.2162 5.75963 10.8859C5.8965 10.749 6.11775 10.749 6.25447 10.8859C6.39134 11.0227 6.39134 11.2443 6.25447 11.3807C6.05603 11.5791 5.94681 11.8427 5.94681 12.1231C5.94681 12.4034 6.05603 12.6673 6.25447 12.8657C6.39134 13.0026 6.39134 13.2238 6.25447 13.3606C6.18603 13.4288 6.09634 13.4632 6.00712 13.4632L6.00713 13.4632Z" fill="#3F3F3F" stroke="#3F3F3F" stroke-width="0.2"/>
<path d="M14.8874 22.3425C14.7979 22.3425 14.7082 22.3081 14.6399 22.24L5.75988 13.3592C5.62301 13.2223 5.62301 13.0011 5.75988 12.8644C5.89676 12.7275 6.11801 12.7275 6.25472 12.8644L15.1355 21.7451C15.2724 21.882 15.2724 22.1033 15.1355 22.24C15.0669 22.3083 14.9774 22.3425 14.8877 22.3425H14.8874Z" fill="#3F3F3F" stroke="#3F3F3F" stroke-width="0.2"/>
<path d="M15.877 22.7548C15.4093 22.7548 14.9698 22.5725 14.6398 22.242C14.5029 22.1051 14.5029 21.8836 14.6398 21.7472C14.7766 21.6103 14.9979 21.6103 15.1346 21.7472C15.5312 22.1437 16.2227 22.1437 16.6193 21.7472C16.7561 21.6103 16.9774 21.6103 17.1141 21.7472C17.251 21.8837 17.251 22.1053 17.1141 22.242C16.7841 22.5725 16.3446 22.7548 15.8769 22.7548H15.877Z" fill="#3F3F3F" stroke="#3F3F3F" stroke-width="0.2"/>
<path d="M16.867 22.3439C16.7775 22.3439 16.6878 22.3095 16.6195 22.2414C16.4826 22.1045 16.4826 21.8833 16.6195 21.7466L20.5798 17.7863C20.7167 17.6494 20.9379 17.6494 21.0747 17.7863C21.2115 17.9231 21.2115 18.1444 21.0747 18.2811L17.1143 22.2414C17.0462 22.3097 16.9565 22.3439 16.867 22.3439H16.867Z" fill="#3F3F3F" stroke="#3F3F3F" stroke-width="0.2"/>
<path d="M20.827 18.3827C20.7374 18.3827 20.6477 18.3483 20.5795 18.2802C20.4426 18.1433 20.4426 17.922 20.5795 17.7853C20.9887 17.3761 20.9887 16.7101 20.5795 16.3006C20.4426 16.1637 20.4426 15.9422 20.5795 15.8058C20.7163 15.6689 20.9376 15.6689 21.0743 15.8058C21.7565 16.4883 21.7565 17.5984 21.0743 18.2803C21.0062 18.3486 20.9166 18.3827 20.827 18.3827L20.827 18.3827Z" fill="#3F3F3F" stroke="#3F3F3F" stroke-width="0.2"/>
<path d="M22.7499 13.7667C22.6603 13.7667 22.5706 13.7323 22.5024 13.6642L21.0177 12.1795C20.8808 12.0427 20.8808 11.8214 21.0177 11.6847C21.1546 11.5478 21.3758 11.5478 21.5125 11.6847L22.9972 13.1694C23.1341 13.3062 23.1341 13.5275 22.9972 13.6642C22.9291 13.7323 22.8394 13.7667 22.7498 13.7667H22.7499Z" fill="#3F3F3F" stroke="#3F3F3F" stroke-width="0.2"/>
<path d="M22.75 13.766C22.5564 13.766 22.4 13.6096 22.4 13.416C22.4 8.97721 18.7891 5.36601 14.35 5.36601C14.1569 5.36601 14 5.20914 14 5.01602C14 4.82289 14.1569 4.66602 14.35 4.66602C19.1748 4.66602 23.1 8.59133 23.1 13.416C23.1 13.6096 22.9436 13.766 22.75 13.766Z" fill="#3F3F3F" stroke="#3F3F3F" stroke-width="0.2"/>
<path d="M5.33515 17.3507C5.24562 17.3507 5.15593 17.3163 5.08765 17.2482L3.60266 15.7635C3.46578 15.6266 3.46578 15.4054 3.60266 15.2687C3.73953 15.1318 3.96078 15.1318 4.09749 15.2687L5.58249 16.7533C5.71936 16.8902 5.71936 17.1115 5.58249 17.2482C5.51405 17.3168 5.42483 17.3507 5.33514 17.3507H5.33515Z" fill="#3F3F3F" stroke="#3F3F3F" stroke-width="0.2"/>
<path d="M12.2505 24.266C7.42568 24.266 3.50049 20.3407 3.50049 15.516C3.50049 15.3229 3.65736 15.166 3.85049 15.166C4.04361 15.166 4.20049 15.3229 4.20049 15.516C4.20049 19.9552 7.81172 23.566 12.2505 23.566C12.4441 23.566 12.6005 23.7224 12.6005 23.916C12.6005 24.1096 12.4441 24.266 12.2505 24.266Z" fill="#3F3F3F" stroke="#3F3F3F" stroke-width="0.2"/>
</svg>
