<svg width="414" height="297" viewBox="0 0 414 297" fill="none" xmlns="http://www.w3.org/2000/svg">
<defs>
<linearGradient id="paint0_linear_1779_17635" x1="221.13" y1="90.2035" x2="221.13" y2="188.817" gradientUnits="userSpaceOnUse">
<stop offset="0.0797454" stop-color="#92E3A9"/>
<stop offset="1" stop-color="#6FDE8F"/>
</linearGradient>
<linearGradient id="paint1_linear_1779_17635" x1="192.341" y1="88.8325" x2="192.341" y2="122.042" gradientUnits="userSpaceOnUse">
<stop offset="0.0797454" stop-color="#92E3A9"/>
<stop offset="1" stop-color="#6FDE8F"/>
</linearGradient>
</defs>
<rect width="414" height="254.807" fill="#D4FCDD"/>
<path d="M110.79 84.6808C110.79 84.6808 110.79 81.8214 106.781 77.822C102.772 73.8226 100.207 71.5298 100.207 71.5298C100.207 71.5298 98.2024 78.1053 101.921 82.1112C104.657 84.9299 107.623 87.515 110.79 89.8395V84.6808Z" fill="#92E3A9"/>
<path d="M104.944 102.532C104.944 102.532 104.944 99.6726 100.942 95.6732C96.9393 91.6739 94.3612 89.3811 94.3612 89.3811C94.3612 89.3811 92.3568 95.9566 96.0756 99.956C98.81 102.776 101.777 105.361 104.944 107.684V102.532Z" fill="#92E3A9"/>
<path d="M110.506 89.5498C110.506 89.5498 110.809 86.7097 115.211 83.1482C119.613 79.5868 122.391 77.5903 122.391 77.5903C122.391 77.5903 123.68 84.3397 119.568 87.9269C116.541 90.4399 113.307 92.6934 109.9 94.6634L110.506 89.5498Z" fill="#92E3A9"/>
<path d="M103.481 110.629C103.481 110.629 104.08 107.834 108.837 104.762C113.593 101.69 116.571 99.9893 116.571 99.9893C116.571 99.9893 117.151 106.835 112.704 109.972C109.433 112.154 105.983 114.056 102.392 115.658L103.481 110.629Z" fill="#92E3A9"/>
<path d="M104.802 133.613C104.802 133.613 104.802 130.754 108.811 126.755C112.82 122.755 115.385 120.469 115.385 120.469C115.385 120.469 117.39 127.038 113.671 131.044C110.935 133.863 107.969 136.448 104.802 138.772V133.613Z" fill="#92E3A9"/>
<path d="M104.738 139.223C104.738 139.223 105.144 136.396 101.747 131.869C98.3507 127.341 96.1335 124.707 96.1335 124.707C96.1335 124.707 93.2139 130.928 96.3269 135.417C98.6339 138.592 101.201 141.569 104.003 144.317L104.738 139.223Z" fill="#92E3A9"/>
<path d="M100.787 155.851C100.787 155.851 100.787 152.992 104.789 148.992C108.792 144.993 111.37 142.7 111.37 142.7C111.37 142.7 113.374 149.276 109.655 153.275C106.921 156.095 103.954 158.68 100.787 161.003V155.851Z" fill="#92E3A9"/>
<path d="M103.462 170.922C103.462 170.922 102.74 168.159 105.595 163.277C108.45 158.395 110.371 155.549 110.371 155.549C110.371 155.549 113.974 161.397 111.389 166.214C109.456 169.628 107.24 172.875 104.764 175.919L103.462 170.922Z" fill="#92E3A9"/>
<path d="M111.118 83.9468C110.918 86.923 110.552 89.8857 110.023 92.8214C108.437 100.994 104.48 106.269 102.933 113.649C101.386 121.03 105.891 130.542 104.673 140.022C103.455 149.502 99.7622 154.777 100.806 161.101C101.85 167.425 107.567 184.923 107.567 184.923" stroke="#263238" stroke-linecap="round" stroke-linejoin="round"/>
<path d="M110.468 91.4492L114.779 88.1389" stroke="#263238" stroke-linecap="round" stroke-linejoin="round"/>
<path d="M110.667 87.637L108.856 84.4298" stroke="#263238" stroke-linecap="round" stroke-linejoin="round"/>
<path d="M103.139 113.307C103.139 113.307 106.749 110.595 110.468 107.891" stroke="#263238" stroke-linecap="round" stroke-linejoin="round"/>
<path d="M104.944 107.678C104.944 107.678 101.934 101.779 98.5441 97.8503" stroke="#263238" stroke-linecap="round" stroke-linejoin="round"/>
<path d="M104.944 137.677C107.01 133.887 109.615 130.416 112.678 127.373" stroke="#263238" stroke-linecap="round" stroke-linejoin="round"/>
<path d="M104.242 141.689C103.146 139.112 101.837 136.63 100.329 134.27C98.2218 131.159 97.8995 130.76 97.8995 130.76" stroke="#263238" stroke-linecap="round" stroke-linejoin="round"/>
<path d="M100.787 161.1C101.693 158.832 102.77 156.636 104.009 154.531C105.259 152.578 106.669 150.732 108.225 149.012" stroke="#263238" stroke-linecap="round" stroke-linejoin="round"/>
<path d="M104.763 175.9C104.557 173.731 104.931 171.547 105.846 169.569C107.354 166.665 109.069 162.852 109.765 161.345" stroke="#263238" stroke-linecap="round" stroke-linejoin="round"/>
<path d="M78.0743 122.864C78.0743 122.864 77.7649 121.074 79.8403 118.131C81.9156 115.187 83.282 113.474 83.282 113.474C83.282 113.474 85.2542 117.377 83.3593 120.288C81.9472 122.347 80.367 124.286 78.635 126.084L78.0743 122.864Z" fill="#92E3A9"/>
<path d="M83.6622 133.426C83.6622 133.426 83.3528 131.636 85.4282 128.693C87.5035 125.75 88.8763 124.037 88.8763 124.037C88.8763 124.037 90.8098 127.939 88.9472 130.85C87.5392 132.912 85.9588 134.851 84.2229 136.647L83.6622 133.426Z" fill="#92E3A9"/>
<path d="M78.7639 125.891C78.7639 125.891 78.2677 124.139 75.116 122.387C71.9643 120.636 69.9921 119.682 69.9921 119.682C69.9921 119.682 69.9148 124.055 72.886 125.859C75.0514 127.106 77.3172 128.17 79.6598 129.04L78.7639 125.891Z" fill="#92E3A9"/>
<path d="M85.454 138.347C85.454 138.347 84.8095 136.66 81.458 135.249C78.1065 133.839 76.0828 133.098 76.0828 133.098C76.0828 133.098 76.463 137.452 79.6082 138.933C81.8984 139.948 84.27 140.769 86.6979 141.387L85.454 138.347Z" fill="#92E3A9"/>
<path d="M87.1233 152.901C87.1233 152.901 86.8139 151.111 83.8685 149.037C80.9231 146.963 79.0605 145.817 79.0605 145.817C79.0605 145.817 78.5191 150.158 81.284 152.257C83.3064 153.72 85.4472 155.013 87.684 156.121L87.1233 152.901Z" fill="#92E3A9"/>
<path d="M87.7742 156.412C87.7742 156.412 87.2135 154.686 88.8505 151.479C90.4876 148.271 91.5962 146.378 91.5962 146.378C91.5962 146.378 94.1033 149.965 92.6403 153.115C91.5359 155.367 90.2422 157.521 88.7732 159.555L87.7742 156.412Z" fill="#92E3A9"/>
<path d="M92.8014 170.871C92.8014 170.871 93.0141 169.067 95.8306 166.826C98.6471 164.585 100.478 163.329 100.478 163.329C100.478 163.329 101.264 167.631 98.6213 169.892C96.6878 171.472 94.6245 172.888 92.4534 174.123L92.8014 170.871Z" fill="#92E3A9"/>
<path d="M92.0602 166.413C92.0602 166.413 91.7508 164.623 88.8376 162.549C85.9244 160.476 84.0296 159.329 84.0296 159.329C84.0296 159.329 83.4882 163.67 86.2531 165.769C88.2746 167.234 90.4154 168.527 92.6531 169.634L92.0602 166.413Z" fill="#92E3A9"/>
<path d="M92.0215 176.158C92.0215 176.158 92.1762 174.342 89.8495 171.592C87.5228 168.842 86.0147 167.251 86.0147 167.251C86.0147 167.251 84.3905 171.308 86.5367 174.045C88.119 175.978 89.861 177.775 91.7444 179.417L92.0215 176.158Z" fill="#92E3A9"/>
<path d="M77.7714 122.446C78.2204 124.289 78.7712 126.106 79.4213 127.888C81.3033 132.847 84.3583 135.719 86.15 140.176C87.9418 144.633 86.15 151.124 87.9224 156.921C89.6948 162.717 92.6016 165.634 92.6274 169.717C92.6531 173.8 91.1579 184.845 91.1579 184.845" stroke="#263238" stroke-linecap="round" stroke-linejoin="round"/>
<path d="M78.996 127.077L75.9281 125.473" stroke="#263238" stroke-linecap="round" stroke-linejoin="round"/>
<path d="M78.4546 124.707L79.2409 122.498" stroke="#263238" stroke-linecap="round" stroke-linejoin="round"/>
<path d="M85.9631 139.989C85.9631 139.989 83.3851 138.701 80.807 137.413" stroke="#263238" stroke-linecap="round" stroke-linejoin="round"/>
<path d="M84.2166 136.654C84.9696 134.277 85.963 131.983 87.1813 129.808" stroke="#263238" stroke-linecap="round" stroke-linejoin="round"/>
<path d="M87.4777 155.471C85.7729 153.311 83.7624 151.411 81.5095 149.83" stroke="#263238" stroke-linecap="round" stroke-linejoin="round"/>
<path d="M88.3542 157.906C88.7616 156.172 89.3135 154.474 90.0042 152.831C90.9839 150.654 91.1321 150.371 91.1321 150.371" stroke="#263238" stroke-linecap="round" stroke-linejoin="round"/>
<path d="M92.4921 172.802C93.4873 171.568 94.5894 170.424 95.7855 169.382C96.5498 168.821 97.2675 168.198 97.9317 167.521" stroke="#263238" stroke-linecap="round" stroke-linejoin="round"/>
<path d="M92.6275 169.705C91.808 168.38 90.8879 167.121 89.8754 165.937C88.8856 164.85 87.8077 163.846 86.6528 162.936" stroke="#263238" stroke-linecap="round" stroke-linejoin="round"/>
<path d="M91.7444 179.416C91.6403 178.03 91.1687 176.696 90.3781 175.552C89.0891 173.891 87.6325 171.688 87.0266 170.819" stroke="#263238" stroke-linecap="round" stroke-linejoin="round"/>
<path opacity="0.2" d="M94.1871 254.541L92.0989 261.001H321.545L320.076 254.876L94.1871 254.541Z" fill="black"/>
<path d="M325.915 179.249C326.057 168.037 326.205 162.408 326.205 157.771C326.205 143.371 313.315 141.722 313.315 141.722H97.3131C97.3131 141.722 85.9954 140.485 85.9954 157.05C85.9954 162.988 85.5636 170.085 85.8214 179.59" stroke="#263238" stroke-linecap="round" stroke-linejoin="round"/>
<path d="M111.711 198.93H300.399" stroke="#263238" stroke-linecap="round" stroke-linejoin="round"/>
<path d="M85.9954 214.89V228.041C85.9954 229.236 86.4707 230.383 87.3168 231.228C88.1629 232.074 89.3104 232.549 90.507 232.549H165.657V213.486C165.657 206.756 166.153 198.86 166.153 198.86V149.463C166.153 149.463 165.386 145.142 166.798 142.263" stroke="#263238" stroke-linecap="round" stroke-linejoin="round"/>
<path d="M165.689 232.575H254.368L254.928 198.931V149.85C254.928 149.85 254.78 145.168 252.995 141.928" stroke="#263238" stroke-linecap="round" stroke-linejoin="round"/>
<path d="M254.368 232.575H321.932C323.016 232.575 324.057 232.154 324.836 231.4C325.614 230.646 326.068 229.619 326.102 228.537C326.263 222.927 326.54 217.176 326.54 215.212" stroke="#263238" stroke-linecap="round" stroke-linejoin="round"/>
<path d="M69.7344 210.858L76.5726 254.542H336.491L343.33 210.272" stroke="#263238" stroke-linecap="round" stroke-linejoin="round"/>
<path d="M81.9929 254.876L85.3766 264.356H90.4618L94.1871 254.541L81.9929 254.876Z" fill="#263238" stroke="#263238" stroke-linecap="round" stroke-linejoin="round"/>
<path d="M320.076 254.876L323.459 264.356H328.545L332.27 254.541L320.076 254.876Z" fill="#263238" stroke="#263238" stroke-linecap="round" stroke-linejoin="round"/>
<path d="M93.3879 212.771C91.1586 213.945 88.7181 214.665 86.2081 214.889C81.2633 215.211 76.3261 214.157 71.945 211.843C68.5162 210.066 63.5664 207.786 64.0304 203.162C64.4945 198.538 67.8975 193.662 70.8171 190.178C73.9335 186.382 77.7908 183.259 82.1541 181.001C87.4649 178.354 94.0002 176.596 99.311 178.798C102.386 180.159 105.185 182.074 107.567 184.446C110.474 187.241 114.225 191.608 113.097 195.987C112.047 200.064 107.251 202.859 104.132 205.274C100.78 207.857 97.255 210.813 93.3879 212.771Z" stroke="#263238" stroke-linecap="round" stroke-linejoin="round"/>
<path d="M318.574 212.771C320.804 213.944 323.244 214.664 325.754 214.889C330.703 215.212 335.644 214.157 340.03 211.843C343.452 210.066 348.408 207.786 347.938 203.162C347.467 198.538 344.071 193.662 341.151 190.178C338.035 186.382 334.177 183.259 329.814 181.001C324.503 178.354 317.968 176.596 312.657 178.798C309.582 180.167 306.786 182.091 304.408 184.472C301.501 187.267 297.75 191.634 298.878 196.013C299.928 200.09 304.723 202.885 307.849 205.3C311.188 207.857 314.7 210.813 318.574 212.771Z" stroke="#263238" stroke-linecap="round" stroke-linejoin="round"/>
<path d="M325.754 214.889H256.662C256.662 214.889 254.638 215.456 254.638 209.879C254.638 209.879 254.497 214.857 250.9 214.857H166.824C166.824 214.857 165.438 214.999 165.573 211.811C165.709 208.623 165.438 214.303 164.465 214.857C163.492 215.411 87.0396 214.857 87.0396 214.857" stroke="#263238" stroke-linecap="round" stroke-linejoin="round"/>
<path fill-rule="evenodd" clip-rule="evenodd" d="M254.087 127.201L241.671 183.4L219.996 188.817L221.8 141.069L225.081 98.2474L226.37 90.2035C226.37 90.2035 255.599 100.212 257.732 101.693C257.861 101.783 257.979 101.897 258.088 102.033C259.538 99.6978 260.871 97.752 260.871 97.752C260.871 97.752 262.514 95.2918 265.137 96.7666C266.028 97.2675 269.443 99.3943 273.808 102.114L273.809 102.114C282.298 107.401 294.384 114.929 298.504 117.098L298.644 117.172C304.814 120.42 309.508 122.891 309.834 129.238C310.156 135.495 304.975 136.734 301.371 136.35C288.181 137.48 262.558 129.868 254.087 127.201ZM162.302 105.213C158.639 111.323 142.225 138.783 139.4 145.024C138.501 147.009 137.508 148.952 136.573 150.782L136.573 150.782C134.86 154.134 133.34 157.11 132.939 159.284C132.472 160.849 132.236 162.445 132.561 163.745C133.304 166.715 138.441 169.228 145.13 172.5C147.491 173.655 150.046 174.905 152.67 176.303C155.579 177.854 158.195 179.363 160.519 180.705C166.229 184 170.186 186.284 172.444 185.68C174.679 185.082 177.017 181.589 178.546 177.938L179.752 183.4L201.421 188.817L199.616 141.069L196.336 98.2474L195.047 90.2035C195.047 90.2035 165.799 100.212 163.64 101.693C162.861 102.227 162.476 103.634 162.302 105.213ZM176.201 167.323L168.851 134.055C165.44 139.727 159.377 149.505 153.891 156.775C158.249 159.499 165.798 163.64 172.244 165.909C172.554 166.018 172.854 166.123 173.143 166.224C174.333 166.642 175.346 166.997 176.201 167.323Z" fill="url(#paint0_linear_1779_17635)"/>
<path d="M241.671 183.4L241.731 183.643C241.823 183.62 241.894 183.547 241.915 183.454L241.671 183.4ZM254.087 127.201L254.162 126.962C254.095 126.941 254.022 126.949 253.962 126.984C253.901 127.019 253.858 127.078 253.843 127.147L254.087 127.201ZM219.996 188.817L219.746 188.807C219.743 188.886 219.777 188.961 219.838 189.011C219.899 189.06 219.98 189.078 220.056 189.059L219.996 188.817ZM221.8 141.069L221.551 141.049L221.551 141.059L221.8 141.069ZM225.081 98.2474L224.834 98.2078C224.833 98.2146 224.832 98.2214 224.832 98.2283L225.081 98.2474ZM226.37 90.2035L226.451 89.967C226.381 89.9431 226.304 89.9512 226.241 89.9892C226.178 90.0272 226.135 90.0911 226.123 90.164L226.37 90.2035ZM257.732 101.693L257.589 101.898L257.732 101.693ZM258.088 102.033L257.892 102.188C257.943 102.252 258.021 102.287 258.102 102.282C258.184 102.277 258.257 102.233 258.3 102.164L258.088 102.033ZM260.871 97.752L261.077 97.8933L261.079 97.8909L260.871 97.752ZM265.137 96.7666L265.26 96.5487V96.5487L265.137 96.7666ZM273.808 102.114L273.942 101.902L273.941 101.901L273.808 102.114ZM273.809 102.114L273.675 102.325L273.676 102.326L273.809 102.114ZM298.504 117.098L298.62 116.877H298.62L298.504 117.098ZM298.644 117.172L298.528 117.394V117.394L298.644 117.172ZM309.834 129.238L310.084 129.226L309.834 129.238ZM301.371 136.35L301.397 136.102C301.381 136.1 301.365 136.1 301.349 136.101L301.371 136.35ZM139.4 145.024L139.172 144.92L139.4 145.024ZM162.302 105.213L162.517 105.342C162.535 105.311 162.547 105.276 162.551 105.241L162.302 105.213ZM136.573 150.782L136.35 150.668L136.346 150.678L136.573 150.782ZM136.573 150.782L136.796 150.896L136.8 150.886L136.573 150.782ZM132.939 159.284L133.179 159.355C133.181 159.347 133.183 159.338 133.185 159.329L132.939 159.284ZM132.561 163.745L132.804 163.684H132.804L132.561 163.745ZM145.13 172.5L145.02 172.724L145.13 172.5ZM152.67 176.303L152.552 176.524L152.67 176.303ZM160.519 180.705L160.394 180.922L160.519 180.705ZM172.444 185.68L172.379 185.439L172.444 185.68ZM178.546 177.938L178.79 177.884C178.766 177.777 178.676 177.698 178.568 177.689C178.459 177.679 178.357 177.741 178.315 177.841L178.546 177.938ZM179.752 183.4L179.508 183.454C179.529 183.547 179.6 183.62 179.692 183.643L179.752 183.4ZM201.421 188.817L201.36 189.059C201.437 189.078 201.517 189.06 201.578 189.011C201.64 188.961 201.674 188.886 201.671 188.807L201.421 188.817ZM199.616 141.069L199.866 141.059L199.866 141.049L199.616 141.069ZM196.336 98.2474L196.585 98.2283C196.584 98.2214 196.584 98.2146 196.583 98.2078L196.336 98.2474ZM195.047 90.2035L195.294 90.164C195.282 90.0912 195.239 90.0272 195.175 89.9892C195.112 89.9513 195.036 89.9431 194.966 89.967L195.047 90.2035ZM163.64 101.693L163.781 101.899L163.64 101.693ZM176.201 167.323L176.111 167.557C176.197 167.589 176.294 167.572 176.364 167.512C176.433 167.452 176.464 167.359 176.445 167.269L176.201 167.323ZM168.851 134.055L169.095 134.001C169.073 133.901 168.992 133.825 168.891 133.808C168.79 133.792 168.689 133.838 168.636 133.926L168.851 134.055ZM153.891 156.775L153.691 156.625C153.649 156.681 153.632 156.752 153.645 156.821C153.657 156.89 153.699 156.95 153.758 156.987L153.891 156.775ZM172.244 165.909L172.161 166.144H172.161L172.244 165.909ZM173.143 166.224L173.225 165.988H173.225L173.143 166.224ZM241.915 183.454L254.331 127.255L253.843 127.147L241.427 183.346L241.915 183.454ZM220.056 189.059L241.731 183.643L241.61 183.158L219.935 188.574L220.056 189.059ZM221.551 141.059L219.746 188.807L220.246 188.826L222.05 141.078L221.551 141.059ZM224.832 98.2283L221.551 141.049L222.05 141.088L225.33 98.2665L224.832 98.2283ZM226.123 90.164L224.834 98.2078L225.328 98.2869L226.617 90.2431L226.123 90.164ZM257.875 101.488C257.722 101.382 257.465 101.248 257.134 101.093C256.798 100.936 256.371 100.751 255.868 100.543C254.861 100.126 253.541 99.6125 252.02 99.0389C248.977 97.8914 245.122 96.5009 241.335 95.1571C237.547 93.8133 233.826 92.5158 231.052 91.5542C229.665 91.0735 228.515 90.6767 227.711 90.4001C227.31 90.2618 226.995 90.1535 226.78 90.0798C226.673 90.043 226.59 90.0148 226.535 89.9958C226.507 89.9863 226.486 89.9791 226.472 89.9743C226.465 89.9719 226.46 89.97 226.456 89.9688C226.455 89.9682 226.453 89.9678 226.452 89.9675C226.452 89.9673 226.452 89.9672 226.451 89.9671C226.451 89.967 226.451 89.967 226.37 90.2035C226.289 90.44 226.289 90.4401 226.289 90.4402C226.29 90.4402 226.29 90.4403 226.29 90.4405C226.291 90.4408 226.293 90.4413 226.294 90.4419C226.298 90.4431 226.303 90.4449 226.31 90.4473C226.324 90.4521 226.345 90.4593 226.373 90.4688C226.428 90.4877 226.51 90.5159 226.618 90.5527C226.832 90.6264 227.147 90.7346 227.549 90.8728C228.352 91.1493 229.502 91.546 230.888 92.0266C233.662 92.9879 237.381 94.285 241.167 95.6284C244.954 96.9718 248.806 98.361 251.843 99.5067C253.363 100.08 254.676 100.591 255.676 101.005C256.176 101.212 256.596 101.394 256.922 101.546C257.254 101.701 257.475 101.819 257.589 101.898L257.875 101.488ZM258.283 101.877C258.162 101.725 258.027 101.593 257.875 101.488L257.589 101.898C257.696 101.972 257.797 102.069 257.892 102.188L258.283 101.877ZM260.871 97.752C260.664 97.6107 260.664 97.6107 260.664 97.6107C260.664 97.6107 260.664 97.6108 260.664 97.6108C260.664 97.6109 260.664 97.611 260.664 97.6111C260.664 97.6113 260.664 97.6117 260.663 97.6122C260.663 97.6132 260.662 97.6146 260.661 97.6165C260.658 97.6203 260.654 97.626 260.649 97.6335C260.639 97.6484 260.624 97.6706 260.604 97.6996C260.564 97.7576 260.507 97.843 260.433 97.9527C260.285 98.1722 260.072 98.489 259.814 98.8789C259.299 99.6585 258.602 100.731 257.875 101.901L258.3 102.164C259.023 101 259.718 99.9316 260.231 99.1546C260.488 98.7662 260.7 98.4506 260.847 98.2323C260.921 98.1231 260.978 98.0383 261.017 97.9807C261.037 97.952 261.052 97.9301 261.062 97.9154C261.067 97.908 261.071 97.9025 261.073 97.8988C261.074 97.8969 261.075 97.8955 261.076 97.8946C261.076 97.8942 261.077 97.8938 261.077 97.8936C261.077 97.8935 261.077 97.8934 261.077 97.8933C261.077 97.8933 261.077 97.8933 261.077 97.8933C261.077 97.8933 261.077 97.8933 260.871 97.752ZM265.26 96.5487C263.859 95.7612 262.697 96.0222 261.894 96.4903C261.499 96.721 261.193 96.9997 260.986 97.2194C260.883 97.3297 260.803 97.426 260.749 97.4957C260.722 97.5306 260.701 97.5588 260.687 97.5789C260.68 97.589 260.674 97.597 260.67 97.6027C260.668 97.6056 260.666 97.6079 260.665 97.6097C260.665 97.6105 260.664 97.6113 260.664 97.6118C260.664 97.6121 260.663 97.6124 260.663 97.6126C260.663 97.6127 260.663 97.6128 260.663 97.6129C260.663 97.613 260.663 97.6131 260.871 97.752C261.079 97.8909 261.079 97.891 261.078 97.891C261.078 97.8911 261.078 97.8911 261.078 97.8912C261.078 97.8912 261.078 97.8913 261.078 97.8912C261.078 97.8912 261.078 97.8911 261.079 97.8908C261.079 97.8901 261.08 97.889 261.081 97.8872C261.083 97.8838 261.087 97.8781 261.093 97.8705C261.104 97.8553 261.121 97.8321 261.144 97.8026C261.19 97.7435 261.259 97.6592 261.351 97.5618C261.534 97.3663 261.803 97.1222 262.146 96.9222C262.821 96.5289 263.792 96.2973 265.015 96.9845L265.26 96.5487ZM273.941 101.901C269.579 99.1849 266.157 97.0532 265.26 96.5487L265.015 96.9845C265.899 97.4818 269.306 99.6036 273.676 102.326L273.941 101.901ZM273.943 101.903L273.942 101.902L273.674 102.325L273.675 102.325L273.943 101.903ZM298.62 116.877C294.511 114.714 282.436 107.193 273.941 101.901L273.676 102.326C282.16 107.61 294.257 115.145 298.387 117.32L298.62 116.877ZM298.761 116.951L298.62 116.877L298.387 117.32L298.528 117.394L298.761 116.951ZM310.084 129.226C309.917 125.979 308.628 123.715 306.599 121.859C304.585 120.015 301.837 118.57 298.76 116.951L298.528 117.394C301.621 119.022 304.305 120.437 306.262 122.228C308.204 124.005 309.425 126.15 309.585 129.251L310.084 129.226ZM301.344 136.599C303.178 136.794 305.436 136.58 307.205 135.498C308.995 134.402 310.249 132.437 310.084 129.226L309.585 129.251C309.741 132.296 308.565 134.079 306.944 135.071C305.302 136.076 303.168 136.29 301.397 136.102L301.344 136.599ZM254.012 127.439C258.25 128.774 266.781 131.346 275.903 133.443C285.016 135.538 294.754 137.168 301.392 136.6L301.349 136.101C294.798 136.662 285.129 135.051 276.015 132.956C266.911 130.863 258.394 128.295 254.162 126.962L254.012 127.439ZM139.627 145.127C141.033 142.022 145.834 133.611 150.752 125.196C155.666 116.788 160.685 108.397 162.517 105.342L162.088 105.085C160.256 108.14 155.236 116.533 150.321 124.943C145.41 133.346 140.591 141.785 139.172 144.92L139.627 145.127ZM136.796 150.896C137.73 149.066 138.726 147.119 139.627 145.127L139.172 144.92C138.276 146.9 137.286 148.837 136.35 150.668L136.796 150.896ZM136.8 150.886L136.8 150.886L136.346 150.678L136.346 150.678L136.8 150.886ZM133.185 159.329C133.38 158.272 133.85 157.007 134.492 155.577C135.133 154.149 135.939 152.573 136.796 150.896L136.35 150.668C135.495 152.343 134.684 153.931 134.036 155.372C133.39 156.812 132.899 158.121 132.693 159.239L133.185 159.329ZM132.804 163.684C132.495 162.451 132.715 160.907 133.179 159.355L132.7 159.212C132.228 160.791 131.977 162.44 132.319 163.805L132.804 163.684ZM145.239 172.275C141.89 170.637 138.949 169.197 136.75 167.798C135.652 167.099 134.748 166.416 134.076 165.73C133.404 165.045 132.975 164.369 132.804 163.684L132.319 163.805C132.519 164.606 133.01 165.357 133.719 166.081C134.429 166.804 135.367 167.51 136.482 168.22C138.709 169.637 141.68 171.09 145.02 172.724L145.239 172.275ZM152.788 176.083C150.16 174.682 147.601 173.43 145.239 172.275L145.02 172.724C147.382 173.88 149.933 175.128 152.552 176.524L152.788 176.083ZM160.644 180.489C158.32 179.147 155.701 177.635 152.788 176.083L152.552 176.524C155.458 178.072 158.069 179.58 160.394 180.922L160.644 180.489ZM172.379 185.439C171.869 185.575 171.243 185.553 170.487 185.378C169.733 185.202 168.865 184.878 167.88 184.428C165.908 183.526 163.503 182.138 160.644 180.489L160.394 180.922C163.245 182.567 165.673 183.969 167.672 184.882C168.672 185.339 169.574 185.679 170.374 185.865C171.174 186.05 171.889 186.087 172.508 185.922L172.379 185.439ZM178.315 177.841C177.556 179.653 176.599 181.42 175.56 182.804C174.513 184.197 173.413 185.162 172.379 185.439L172.508 185.922C173.71 185.6 174.897 184.519 175.96 183.104C177.03 181.679 178.006 179.873 178.776 178.034L178.315 177.841ZM179.997 183.346L178.79 177.884L178.301 177.991L179.508 183.454L179.997 183.346ZM201.482 188.574L179.813 183.158L179.692 183.643L201.36 189.059L201.482 188.574ZM199.366 141.078L201.171 188.826L201.671 188.807L199.866 141.059L199.366 141.078ZM196.086 98.2665L199.367 141.088L199.866 141.049L196.585 98.2283L196.086 98.2665ZM194.8 90.2431L196.089 98.2869L196.583 98.2078L195.294 90.164L194.8 90.2431ZM163.781 101.899C164.025 101.732 164.69 101.424 165.704 101.005C166.707 100.591 168.024 100.08 169.546 99.5068C172.589 98.3611 176.446 96.9718 180.236 95.6284C184.027 94.2851 187.749 92.988 190.525 92.0267C191.912 91.546 193.063 91.1494 193.867 90.8729C194.269 90.7346 194.584 90.6264 194.799 90.5528C194.906 90.5159 194.988 90.4878 195.044 90.4688C195.071 90.4593 195.092 90.4521 195.106 90.4473C195.114 90.4449 195.119 90.4431 195.122 90.4419C195.124 90.4413 195.125 90.4408 195.126 90.4405C195.127 90.4404 195.127 90.4402 195.127 90.4402C195.128 90.4401 195.128 90.4401 195.047 90.2035C194.966 89.967 194.966 89.967 194.965 89.9671C194.965 89.9672 194.965 89.9673 194.964 89.9674C194.964 89.9678 194.962 89.9682 194.96 89.9688C194.957 89.97 194.952 89.9718 194.945 89.9743C194.93 89.9791 194.909 89.9863 194.882 89.9958C194.826 90.0148 194.744 90.043 194.637 90.0798C194.422 90.1535 194.106 90.2617 193.704 90.4C192.9 90.6766 191.749 91.0734 190.361 91.5542C187.585 92.5157 183.861 93.8132 180.069 95.1571C176.278 96.5009 172.418 97.8914 169.37 99.0388C167.846 99.6125 166.524 100.126 165.514 100.543C164.516 100.955 163.795 101.283 163.498 101.487L163.781 101.899ZM162.551 105.241C162.637 104.46 162.773 103.735 162.98 103.144C163.189 102.547 163.456 102.122 163.781 101.899L163.498 101.487C163.044 101.799 162.73 102.344 162.508 102.979C162.284 103.619 162.142 104.387 162.054 105.186L162.551 105.241ZM176.445 167.269L169.095 134.001L168.607 134.109L175.956 167.377L176.445 167.269ZM168.636 133.926C165.226 139.598 159.169 149.366 153.691 156.625L154.09 156.926C159.585 149.644 165.654 139.857 169.065 134.184L168.636 133.926ZM153.758 156.987C158.124 159.716 165.69 163.868 172.161 166.144L172.327 165.673C165.905 163.413 158.374 159.282 154.023 156.563L153.758 156.987ZM172.161 166.144C172.471 166.254 172.771 166.359 173.06 166.46L173.225 165.988C172.936 165.887 172.637 165.782 172.327 165.673L172.161 166.144ZM173.06 166.46C174.252 166.878 175.26 167.232 176.111 167.557L176.29 167.089C175.431 166.762 174.415 166.405 173.225 165.988L173.06 166.46Z" fill="#263238"/>
<path opacity="0.2" d="M207.467 297C223.011 297 235.612 291.81 235.612 285.408C235.612 279.006 223.011 273.816 207.467 273.816C191.922 273.816 179.321 279.006 179.321 285.408C179.321 291.81 191.922 297 207.467 297Z" fill="black"/>
<path d="M187.764 77.6C187.764 77.6 186.816 73.1305 183.697 73.1305C180.577 73.1305 179.759 76.576 181.725 80.511C183.69 84.446 189.278 86.9126 189.607 84.6135C189.936 82.3143 187.764 77.6 187.764 77.6Z" fill="white" stroke="#263238" stroke-linecap="round" stroke-linejoin="round"/>
<path d="M236.599 59.7734C236.599 59.7734 237.958 64.3138 236.599 68.6223C235.862 71.0705 234.709 73.3734 233.189 75.4297V62.4976L236.599 59.7734Z" fill="#263238" stroke="#263238" stroke-linecap="round" stroke-linejoin="round"/>
<path d="M195.221 273.03C195.221 273.03 190.31 280.642 185.637 284.326C180.964 288.01 181.705 289.723 185.147 290.464C188.589 291.204 193.745 290.219 196.942 287.024C198.853 285.121 200.506 282.975 201.859 280.642L201.73 282.42C201.729 282.462 201.739 282.503 201.761 282.539C201.782 282.575 201.814 282.603 201.852 282.621C201.89 282.639 201.932 282.645 201.974 282.639C202.015 282.633 202.054 282.615 202.085 282.587L205.791 279.167C206.552 277.118 206.638 274.88 206.036 272.779C205.056 269.101 199.159 268.605 195.221 273.03Z" fill="#455A64"/>
<path d="M189.272 289.22C184.921 289.452 183.156 288.505 182.466 287.887C182.028 289.226 183.11 290.025 185.154 290.463C188.595 291.197 193.751 290.218 196.948 287.024C198.86 285.121 200.513 282.975 201.866 280.642L201.737 282.419C201.735 282.461 201.746 282.502 201.767 282.538C201.789 282.574 201.821 282.603 201.858 282.621C201.896 282.638 201.939 282.645 201.98 282.639C202.021 282.633 202.06 282.615 202.091 282.587L205.797 279.167C206.294 277.864 206.501 276.468 206.403 275.077C204.979 276.449 202.536 278.819 200.841 280.506C198.327 283.044 195.646 288.885 189.272 289.22Z" fill="#263238"/>
<path d="M221.156 273.029C221.156 273.029 226.074 280.642 230.74 284.325C235.406 288.009 234.671 289.722 231.236 290.463C227.801 291.204 222.632 290.218 219.435 287.024C217.527 285.12 215.876 282.974 214.524 280.642L214.646 282.419C214.648 282.461 214.638 282.502 214.616 282.538C214.594 282.574 214.563 282.603 214.525 282.621C214.487 282.638 214.445 282.645 214.403 282.639C214.362 282.633 214.323 282.615 214.292 282.587L210.592 279.18C209.827 277.131 209.742 274.892 210.348 272.791C211.334 269.101 217.224 268.605 221.156 273.029Z" fill="#455A64"/>
<path d="M227.002 289.388C221.298 287.713 218.952 284.023 217.276 281.846C215.8 279.914 211.082 276.276 209.967 275.406C209.925 276.686 210.144 277.962 210.612 279.154L214.311 282.574C214.342 282.602 214.381 282.62 214.423 282.626C214.464 282.632 214.506 282.626 214.544 282.608C214.582 282.59 214.614 282.561 214.635 282.526C214.657 282.49 214.668 282.448 214.666 282.407L214.543 280.629C215.895 282.961 217.546 285.107 219.454 287.011C222.677 290.232 227.833 291.185 231.255 290.451C233.434 289.98 234.517 289.117 233.834 287.617C232.991 288.544 231.895 289.205 230.682 289.52C229.468 289.834 228.189 289.789 227.002 289.388Z" fill="#263238"/>
<path d="M208.111 174.752L180.958 172.105L181.448 173.573C181.448 173.573 184.67 201.813 187.345 215.319C190.02 228.824 192.018 234.472 192.018 234.472C191.902 237.371 192.232 240.271 192.997 243.07C194.228 246.998 194.473 256.594 195.453 261.489C196.433 266.383 195.949 269.101 195.949 269.101C195.949 269.101 193.242 272.044 193.487 272.779C193.645 273.338 193.727 273.917 193.732 274.498C193.732 274.498 195.208 278.427 199.139 278.427C203.071 278.427 206.513 275.239 206.513 275.239L207.492 193.795L208.137 193.75L208.749 193.795L209.735 275.239C209.735 275.239 213.177 278.427 217.108 278.427C221.04 278.427 222.509 274.498 222.509 274.498C222.514 273.916 222.599 273.338 222.761 272.779C223.006 272.044 220.299 269.101 220.299 269.101C220.299 269.101 219.809 266.396 220.795 261.489C221.781 256.581 222.02 246.998 223.251 243.07C224.014 240.27 224.342 237.371 224.224 234.472C224.224 234.472 226.19 228.824 228.897 215.319C231.604 201.813 234.794 173.56 234.794 173.56L235.284 172.092L208.111 174.752Z" fill="#263238"/>
<path d="M208.111 174.752L180.958 172.105L181.448 173.573C181.448 173.573 184.67 201.813 187.345 215.319C190.02 228.824 192.018 234.472 192.018 234.472C191.902 237.371 192.232 240.271 192.997 243.07C194.228 246.998 194.473 256.594 195.453 261.489C196.433 266.383 195.949 269.101 195.949 269.101C195.949 269.101 193.242 272.044 193.487 272.779C193.645 273.338 193.727 273.917 193.732 274.498C193.732 274.498 195.208 278.427 199.139 278.427C203.071 278.427 206.513 275.239 206.513 275.239L207.492 193.795L208.137 193.75L208.749 193.795L209.735 275.239C209.735 275.239 213.177 278.427 217.108 278.427C221.04 278.427 222.509 274.498 222.509 274.498C222.514 273.916 222.599 273.338 222.761 272.779C223.006 272.044 220.299 269.101 220.299 269.101C220.299 269.101 219.809 266.396 220.795 261.489C221.781 256.581 222.02 246.998 223.251 243.07C224.014 240.27 224.342 237.371 224.224 234.472C224.224 234.472 226.19 228.824 228.897 215.319C231.604 201.813 234.794 173.56 234.794 173.56L235.284 172.092L208.111 174.752Z" stroke="#263238" stroke-linecap="round" stroke-linejoin="round"/>
<path d="M228.407 91.5622C228.407 91.5622 216.606 89.3467 209.484 89.3467C202.362 89.3467 190.793 93.2753 190.793 93.2753L198.443 176.78C198.443 176.78 202.865 178.712 210.728 178.712C218.591 178.712 225.964 175.028 225.964 175.028L228.407 91.5622Z" fill="white" stroke="#263238" stroke-linecap="round" stroke-linejoin="round"/>
<path d="M211.282 121.819C219.807 121.819 226.718 115.011 226.718 106.613C226.718 98.2154 219.807 91.4077 211.282 91.4077C202.757 91.4077 195.846 98.2154 195.846 106.613C195.846 115.011 202.757 121.819 211.282 121.819Z" fill="white" stroke="#263238" stroke-linecap="round" stroke-linejoin="round"/>
<path d="M211.282 118.096C217.721 118.096 222.941 112.955 222.941 106.613C222.941 100.272 217.721 95.1305 211.282 95.1305C204.843 95.1305 199.623 100.272 199.623 106.613C199.623 112.955 204.843 118.096 211.282 118.096Z" fill="white" stroke="#263238" stroke-linecap="round" stroke-linejoin="round"/>
<path opacity="0.3" d="M192.398 96.7345C192.398 96.7345 191.051 124.621 209.542 129.657C228.033 134.693 236.102 106.813 233.75 98.4154C231.397 90.0173 199.12 85.3288 192.398 96.7345Z" fill="black"/>
<path d="M211.282 110.974C219.206 110.974 225.629 105.833 225.629 99.4909C225.629 93.149 219.206 88.0079 211.282 88.0079C203.359 88.0079 196.935 93.149 196.935 99.4909C196.935 105.833 203.359 110.974 211.282 110.974Z" fill="#263238" stroke="#263238" stroke-linecap="round" stroke-linejoin="round"/>
<path opacity="0.3" d="M294.192 129.497C286.993 129.497 259.002 122.96 252.183 121.343L251.306 126.302C251.306 126.302 302.371 143.382 308.764 133.258C308.958 132.95 309.101 132.613 309.19 132.26C304.371 130.541 299.307 129.608 294.192 129.497Z" fill="black"/>
<path d="M260.368 116.931L254.084 127.635L260.368 121.691" stroke="#263238" stroke-linecap="round" stroke-linejoin="round"/>
<path d="M251.293 126.301C251.293 126.301 302.358 143.381 308.752 133.257C312.2 127.789 298.149 118.727 289.274 115.771C280.4 112.815 255.76 101.178 255.76 101.178" stroke="#263238" stroke-linecap="round" stroke-linejoin="round"/>
<path opacity="0.1" d="M254.103 127.126L230.592 171.764C230.592 171.764 235.458 153.518 235.155 151.393C234.981 150.157 227.421 154.645 221.137 158.638L219.996 188.817L241.671 183.401L254.103 127.126Z" fill="black"/>
<path opacity="0.3" d="M230.895 92.4128C230.895 92.4128 238.506 97.8805 237.591 110.046C236.676 122.212 233.937 120.389 233.937 120.389C233.937 120.389 235.767 123.12 233.937 123.429C232.106 123.738 228.781 117.955 228.136 119.475C227.492 120.995 223.876 122.817 223.876 122.817L225.062 98.2605C225.062 98.2605 226.029 91.7687 230.895 92.4128Z" fill="black"/>
<path d="M237.591 101.307C237.591 101.307 240.169 107.747 238.609 116.931" stroke="#263238" stroke-linecap="round" stroke-linejoin="round"/>
<path d="M240.485 111.161C240.485 111.161 241.671 113.705 237.591 123.9" stroke="#263238" stroke-linecap="round" stroke-linejoin="round"/>
<path d="M245.925 149.377C245.925 149.377 236.573 167.551 226.544 175.196" stroke="#263238" stroke-linecap="round" stroke-linejoin="round"/>
<path d="M234.704 158.889C234.704 158.889 233.511 160.931 228.091 165.188" stroke="#263238" stroke-linecap="round" stroke-linejoin="round"/>
<path d="M255.953 118.753L241.671 183.4L219.996 188.817L221.8 141.069L225.081 98.2474L226.37 90.2035C226.37 90.2035 255.599 100.212 257.732 101.693C259.865 103.174 259.021 111.353 259.021 111.353" stroke="#263238" stroke-linecap="round" stroke-linejoin="round"/>
<path d="M229.187 89.7141C230.282 91.9107 230.899 94.3141 230.998 96.7661C230.998 100.379 231.159 109.241 231.977 113.343C232.796 117.446 235.425 122.199 234.607 122.038C233.788 121.877 232.802 119.738 230.669 117.278C228.536 114.818 227.878 110.877 226.725 111.701C225.571 112.525 223.444 119.577 223.444 119.577C223.444 119.577 223.773 104.81 224.263 99.2327C224.752 93.6555 225.906 86.2685 229.187 89.7141Z" fill="#70F58C"/>
<path opacity="0.3" d="M229.187 89.7141C230.282 91.9107 230.899 94.3141 230.998 96.7661C230.998 100.379 231.159 109.241 231.977 113.343C232.796 117.446 235.425 122.199 234.607 122.038C233.788 121.877 232.802 119.738 230.669 117.278C228.536 114.818 227.878 110.877 226.725 111.701C225.571 112.525 223.444 119.577 223.444 119.577C223.444 119.577 223.773 104.81 224.263 99.2327C224.752 93.6555 225.906 86.2685 229.187 89.7141Z" fill="black"/>
<path d="M229.187 89.7141C230.282 91.9107 230.899 94.3141 230.998 96.7661C230.998 100.379 231.159 109.241 231.977 113.343C232.796 117.446 235.425 122.199 234.607 122.038C233.788 121.877 232.802 119.738 230.669 117.278C228.536 114.818 227.878 110.877 226.725 111.701C225.571 112.525 223.444 119.577 223.444 119.577C223.444 119.577 223.773 104.81 224.263 99.2327C224.752 93.6555 225.906 86.2685 229.187 89.7141Z" stroke="#263238" stroke-linecap="round" stroke-linejoin="round"/>
<path opacity="0.3" d="M154.501 155.932C160.553 147.772 167.152 136.901 170.053 132.013L166.682 123.106L146.882 159.597L154.501 155.932Z" fill="black"/>
<path d="M159.902 119.141L168.744 134.597L159.225 126.959" stroke="#263238" stroke-linecap="round" stroke-linejoin="round"/>
<path d="M143.924 147.156C143.924 147.156 150.369 150.376 153.102 156.5" stroke="#263238" stroke-linecap="round" stroke-linejoin="round"/>
<path d="M149.531 146.659C149.531 146.659 152.425 150.059 153.444 153.795" stroke="#263238" stroke-linecap="round" stroke-linejoin="round"/>
<path d="M163.027 104.006C163.027 104.006 142.583 137.991 139.4 145.023C136.216 152.056 131.859 158.548 133.032 161.427C134.205 164.306 137.543 166.45 144.092 166.115C150.64 165.78 171.574 129.451 171.574 129.451L163.027 104.006Z" stroke="#263238" stroke-linecap="round" stroke-linejoin="round"/>
<path opacity="0.1" d="M179.752 183.401L201.427 188.817L200.525 164.885L172.244 149.403L179.752 183.401Z" fill="black"/>
<path d="M175.885 150.909C175.885 150.909 181.686 158.554 188.131 162.965" stroke="#263238" stroke-linecap="round" stroke-linejoin="round"/>
<path opacity="0.3" d="M190.419 114.31C190.419 114.31 186.468 122.218 188.595 122.521C190.722 122.824 192.598 114.503 195.292 117.047L197.979 119.623L195.595 104.604C193.055 107.336 191.272 110.681 190.419 114.31Z" fill="black"/>
<path d="M189.143 93.3213C189.143 93.3213 184.889 105.558 186.082 115.914" stroke="#263238" stroke-linecap="round" stroke-linejoin="round"/>
<path d="M184.212 100.282C184.212 100.282 182.169 110.986 184.38 116.931" stroke="#263238" stroke-linecap="round" stroke-linejoin="round"/>
<path d="M165.47 118.753L179.752 183.4L201.421 188.817L199.616 141.069L196.336 98.2474L195.047 90.2035C195.047 90.2035 165.799 100.212 163.64 101.693C161.481 103.174 162.351 111.353 162.351 111.353" stroke="#263238" stroke-linecap="round" stroke-linejoin="round"/>
<path d="M192.237 89.7141C191.145 91.9115 190.53 94.3147 190.432 96.7661C190.432 100.379 190.264 109.241 189.446 113.343C188.627 117.446 185.998 122.199 186.842 122.038C187.686 121.877 188.647 119.738 190.78 117.278C192.913 114.818 193.577 110.877 194.725 111.701C195.872 112.525 198.005 119.577 198.005 119.577C198.005 119.577 197.676 104.81 197.187 99.2327C196.697 93.6555 195.517 86.2685 192.237 89.7141Z" fill="url(#paint1_linear_1779_17635)" stroke="#263238" stroke-width="0.5" stroke-linecap="round" stroke-linejoin="round"/>
<path opacity="0.3" d="M193.403 96.7347C193.403 96.7347 191.438 103.265 193.068 107.483C194.699 111.702 197.773 117.897 197.773 117.897L197.129 99.2206" fill="black"/>
<path d="M192.237 89.7141C191.145 91.9115 190.53 94.3147 190.432 96.7661C190.432 100.379 190.264 109.241 189.446 113.343C188.627 117.446 185.998 122.199 186.842 122.038C187.686 121.877 188.647 119.738 190.78 117.278C192.913 114.818 193.577 110.877 194.725 111.701C195.872 112.525 198.005 119.577 198.005 119.577C198.005 119.577 197.676 104.81 197.187 99.2327C196.697 93.6555 195.517 86.2685 192.237 89.7141Z" stroke="#263238" stroke-linecap="round" stroke-linejoin="round"/>
<path d="M187.338 65.8985C187.338 65.8985 187.338 79.964 189.156 88.1302C190.973 96.2965 194.602 103.097 203.909 106.955C213.216 110.813 224.34 105.822 229.109 99.9223C233.879 94.0231 233.421 77.4716 233.421 73.8393C233.421 70.207 233.647 58.6403 233.647 58.6403C233.647 58.6403 231.829 53.1983 223.882 47.9753C215.935 42.7523 207.995 40.247 198.005 46.3846C188.015 52.5221 187.338 65.8985 187.338 65.8985Z" fill="white" stroke="#263238" stroke-linecap="round" stroke-linejoin="round"/>
<path d="M219.39 80.6406L224.514 80.4794" stroke="#263238" stroke-linecap="round" stroke-linejoin="round"/>
<path d="M215.549 93.5269C215.549 93.5269 216.303 90.8349 220.286 90.1908" stroke="#263238" stroke-linecap="round" stroke-linejoin="round"/>
<path d="M211.546 81.1166V84.6394C211.986 84.9813 212.344 85.4175 212.592 85.9157C212.841 86.4139 212.975 86.9615 212.984 87.5182C213.145 89.5984 211.263 90.6997 209.484 89.3473" fill="white"/>
<path d="M211.546 81.1166V84.6394C211.986 84.9813 212.344 85.4175 212.592 85.9157C212.841 86.4139 212.975 86.9615 212.984 87.5182C213.145 89.5984 211.263 90.6997 209.484 89.3473" stroke="#263238" stroke-linecap="round" stroke-linejoin="round"/>
<path d="M200.596 79.1142H200.055C199.627 79.1142 199.218 78.9446 198.915 78.6426C198.613 78.3407 198.443 77.9312 198.443 77.5042H202.207C202.207 77.9312 202.038 78.3407 201.735 78.6426C201.433 78.9446 201.023 79.1142 200.596 79.1142Z" fill="#263238"/>
<path d="M196.826 77.3939H203.928" stroke="#263238" stroke-linecap="round" stroke-linejoin="round"/>
<path d="M196.826 78.7083H203.928" stroke="#263238" stroke-linecap="round" stroke-linejoin="round"/>
<path d="M222.651 77.2843C222.651 78.4758 222.149 79.4354 221.523 79.4354C220.898 79.4354 220.396 78.4758 220.396 77.2843C220.396 76.0929 220.898 75.1397 221.523 75.1397C222.149 75.1397 222.651 76.0993 222.651 77.2843Z" fill="#263238"/>
<path d="M214.24 71.0114C214.24 71.0114 218.507 68.5512 229.18 70.026" stroke="#263238" stroke-width="3" stroke-linecap="round" stroke-linejoin="round"/>
<path d="M206.358 69.6979C205.031 67.5637 203.198 65.7887 201.022 64.5297C198.846 63.2706 196.393 62.5661 193.88 62.4784" stroke="#263238" stroke-width="3" stroke-linecap="round" stroke-linejoin="round"/>
<path d="M240.685 44.1107C237.733 37.986 227.292 28.4609 216.619 28.01C207.492 27.6172 204.373 31.0498 203.632 32.0481C203.232 31.7583 197.109 27.5399 186.739 32.6921C186.676 32.7259 186.627 32.7796 186.598 32.8448C186.569 32.9099 186.562 32.9828 186.579 33.052C186.596 33.1213 186.635 33.1829 186.691 33.2274C186.747 33.2718 186.816 33.2964 186.887 33.2975C186.937 33.2992 186.985 33.2882 187.029 33.2653C194.667 29.4462 199.99 30.9661 202.162 31.9772C200.77 31.739 198.256 31.6488 194.602 32.7694C188.698 34.5855 182.356 40.7102 180.758 51.3688C179.16 62.0274 184.161 71.1017 185.979 72.9179C187.796 74.734 188.022 78.5917 188.022 78.5917L187.564 66.7932C187.564 66.7932 187.338 65.8851 190.065 64.0754C192.308 62.5748 202.124 52.5925 205.488 49.1405C206.094 52.3606 207.744 58.6721 211.849 62.9355C211.911 62.9972 211.994 63.0319 212.081 63.0321C212.123 63.0334 212.165 63.0261 212.204 63.0106C212.242 62.9951 212.278 62.9717 212.307 62.9419C212.337 62.9126 212.361 62.8775 212.377 62.8388C212.393 62.8001 212.402 62.7585 212.402 62.7165C212.402 62.6746 212.393 62.633 212.377 62.5943C212.361 62.5556 212.337 62.5205 212.307 62.4911C208.111 58.1246 206.551 51.5427 206.036 48.5738L206.629 47.9684C206.629 47.9684 209.349 55.4519 213.892 59.3096C218.436 63.1674 224.333 66.3424 233.64 63.3928C242.947 60.4431 246.35 56.1346 246.35 56.1346C246.35 56.1346 243.637 50.2482 240.685 44.1107Z" fill="#263238"/>
<path d="M230.16 55.4457C238.85 56.6467 243.379 56.3528 245.815 55.7038" stroke="#7D7D7D" stroke-linecap="round" stroke-linejoin="round"/>
<path d="M207.467 38.6371C207.467 38.6371 212.339 49.5856 223.979 53.9327" stroke="#7D7D7D" stroke-linecap="round" stroke-linejoin="round"/>
<path d="M207.144 34.7729C207.144 34.7729 225.835 43.4543 233.247 43.7892C236.924 43.9553 238.841 43.8275 240.015 43.4672" stroke="#7D7D7D" stroke-linecap="round" stroke-linejoin="round"/>
<path d="M203.6 39.2812C203.6 39.2812 189.743 46.6875 185.875 55.0598C182.008 63.4321 183.62 69.2283 183.62 69.2283" stroke="#7D7D7D" stroke-linecap="round" stroke-linejoin="round"/>
<path d="M185.856 41.4582C184.929 42.1574 184.067 42.9376 183.278 43.7896" stroke="#7D7D7D" stroke-linecap="round" stroke-linejoin="round"/>
<path d="M202.31 36.7052C197.431 36.4816 192.582 37.5762 188.273 39.8738" stroke="#7D7D7D" stroke-linecap="round" stroke-linejoin="round"/>
<path d="M208.201 74.5925C205.076 73.1926 201.691 72.4689 198.266 72.4689C194.842 72.4689 191.456 73.1926 188.331 74.5925C188.331 74.5925 186.443 74.7793 186.443 76.2928C186.443 77.8062 187.764 77.613 187.764 77.613C187.764 77.613 188.022 84.7681 190.986 86.8805C193.635 88.774 199.507 89.3407 202.53 88.2072C205.552 87.0737 207.454 84.9871 208.021 83.1001C208.588 81.2131 208.201 74.5925 208.201 74.5925Z" stroke="#263238" stroke-width="3" stroke-linecap="round" stroke-linejoin="round"/>
<path d="M212.681 74.5923C215.804 73.1926 219.189 72.4689 222.613 72.4689C226.036 72.4689 229.421 73.1926 232.544 74.5923C232.544 74.5923 234.439 74.7791 234.439 76.2926C234.439 77.806 233.118 77.5999 233.118 77.5999C233.118 77.5999 232.86 84.755 229.896 86.8674C227.247 88.7609 221.382 89.3276 218.352 88.1941C215.323 87.0606 213.435 84.974 212.868 83.087C212.3 81.2 212.681 74.5923 212.681 74.5923Z" stroke="#263238" stroke-width="3" stroke-linecap="round" stroke-linejoin="round"/>
<path d="M208.201 74.5927C209.649 74.0106 211.265 74.0106 212.713 74.5927" stroke="#263238" stroke-width="3" stroke-linecap="round" stroke-linejoin="round"/>
<path d="M208.768 77.4261H211.985" stroke="#263238" stroke-width="3" stroke-linecap="round" stroke-linejoin="round"/>
<path d="M231.958 77.6C231.958 77.6 232.912 73.1305 236.031 73.1305C239.151 73.1305 239.969 76.576 237.997 80.511C236.025 84.446 230.443 86.9126 230.121 84.6135C229.799 82.3143 231.958 77.6 231.958 77.6Z" stroke="#263238" stroke-linecap="round" stroke-linejoin="round"/>
<path d="M245.274 70.844C245.274 70.844 236.734 71.0114 231.642 70.5155C226.551 70.0196 230.353 74.3797 232.545 74.5922C235.187 74.9115 237.85 75.0299 240.511 74.9464C242.473 74.8724 244.428 75.208 246.253 75.9318C246.253 75.9318 249.05 72.8147 245.274 70.844Z" fill="white" stroke="#263238" stroke-linecap="round" stroke-linejoin="round"/>
<path d="M240.014 86.6166C238.38 84.6321 236.95 82.4873 235.748 80.215C234.104 76.9369 233.614 75.4621 236.734 75.7841C239.853 76.1061 241.168 79.0687 241.987 81.5288C242.805 83.989 244.777 83.989 244.777 83.989L247.568 75.9516L253.156 80.8719L248.071 98.0803C248.071 98.0803 241.175 94.6347 240.188 93.1599C239.202 91.6851 240.182 87.9047 240.014 86.6166Z" fill="white" stroke="#263238" stroke-linecap="round" stroke-linejoin="round"/>
<path d="M255.45 76.0931C255.45 76.0931 254.961 73.4719 252.66 72.976C250.359 72.4801 246.421 69.6979 245.106 70.1874C243.791 70.6768 241.329 78.5597 241.329 79.8477C241.329 81.1358 242.805 82.4753 243.301 82.4753C243.798 82.4753 248.071 74.9467 248.071 74.9467L255.45 76.0931Z" fill="white" stroke="#263238" stroke-linecap="round" stroke-linejoin="round"/>
<path d="M255.618 78.0643C255.618 78.0643 256.437 76.261 255.618 75.4431C254.799 74.6252 249.54 72.9765 247.736 72.648C245.931 72.3196 245.602 72.9765 244.616 75.4431C243.63 77.9097 241.497 81.3488 242.483 82.1667C243.469 82.9846 244.777 83.97 244.777 83.97L248.225 76.9179L255.618 78.0643Z" fill="white" stroke="#263238" stroke-linecap="round" stroke-linejoin="round"/>
<path d="M247.568 86.1079C247.568 86.1079 244.288 84.8198 243.791 83.8087C243.295 82.7976 246.582 74.6185 247.078 74.4575C247.575 74.2964 249.701 74.9469 250.359 75.2754C251.016 75.6038 256.108 76.4217 256.437 78.5599C256.765 80.6981 253.317 92.8315 253.646 94.1453C253.975 95.4591 256.604 96.9339 256.604 96.9339L252.66 103.658C252.66 103.658 246.421 98.2477 244.12 97.0949C241.819 95.9421 244.945 92.1746 245.763 90.2039C246.582 88.2331 247.568 86.1079 247.568 86.1079Z" fill="white" stroke="#263238" stroke-linecap="round" stroke-linejoin="round"/>
<path d="M247.568 86.1077L249.869 81.8378" stroke="#263238" stroke-linecap="round" stroke-linejoin="round"/>
<path d="M248.226 81.6768L251.345 82.0055" stroke="#263238" stroke-linecap="round" stroke-linejoin="round"/>
<path d="M255.618 95.4593L249.05 102.183L255.289 107.76L260.5 98.0003L255.618 95.4593Z" fill="#78E096" stroke="#263238" stroke-linecap="round" stroke-linejoin="round"/>
<path opacity="0.3" d="M290.409 124.344C281.585 122.631 266.117 117.704 262.456 116.513C263.417 117.157 264.3 117.672 264.976 118.097C268.096 120.068 294.56 133.67 295.874 133.998L301.134 136.297C304.743 136.787 310.157 135.653 309.834 129.213C309.512 122.773 304.743 120.351 298.504 117.073C294.804 115.141 284.673 108.855 276.5 103.767C286.207 110.671 300.102 120.834 300.463 122.644C301.024 125.458 300.463 126.295 290.409 124.344Z" fill="black"/>
<path d="M295.874 133.998C294.585 133.669 268.096 120.067 264.976 118.097C261.857 116.126 254.464 111.701 254.464 109.402C254.464 107.103 260.871 97.7519 260.871 97.7519C260.871 97.7519 262.514 95.2917 265.137 96.7665C267.761 98.2414 292.265 113.814 298.504 117.098C304.743 120.383 309.506 122.843 309.834 129.238C310.163 135.633 304.743 136.786 301.133 136.323" stroke="#263238" stroke-linecap="round" stroke-linejoin="round"/>
<path d="M245.763 129.258L228.362 132.703L229.019 137.295L238.706 139.099L245.106 133.36L245.763 129.258Z" stroke="#263238" stroke-linecap="round" stroke-linejoin="round"/>
<path opacity="0.1" d="M172.244 165.928L171.367 165.606L177.033 169.026C177.033 169.026 170.639 169.026 169.73 173.895C168.822 178.764 171.857 181.494 170.033 182.1C168.209 182.705 143.86 171.151 143.86 171.151L144.652 172.285C147.14 173.502 149.847 174.816 152.638 176.304C162.692 181.662 169.228 186.518 172.412 185.681C175.595 184.843 178.94 178.146 179.946 173.444C180.951 168.743 179.753 168.608 172.244 165.928Z" fill="black"/>
<path d="M144.949 154.039C146.158 153.782 147.407 153.782 148.616 154.039C149.825 154.295 150.967 154.802 151.968 155.527C155.654 158.039 164.703 163.255 172.244 165.909C179.785 168.562 180.951 168.755 179.978 173.444C179.005 178.132 175.621 184.83 172.444 185.68C169.266 186.53 162.725 181.661 152.67 176.303C142.616 170.945 133.567 167.763 132.561 163.745C131.556 159.726 135.913 152.867 135.913 152.867" stroke="#263238" stroke-linecap="round" stroke-linejoin="round"/>
<path d="M216.812 170.616C216.812 170.616 220.325 171.26 222.838 170.616C225.352 169.972 225.519 171.26 224.346 173.463C223.173 175.666 220.325 176.645 218.488 176.477C216.651 176.31 213.796 172.458 216.812 170.616Z" fill="white" stroke="#263238" stroke-linecap="round" stroke-linejoin="round"/>
<path d="M185.643 176.812C185.643 176.812 190 175.808 191.676 174.635C193.352 173.463 206.59 164.589 208.266 164.589C209.941 164.589 221.156 173.296 221.33 173.966C221.504 174.635 218.153 178.822 217.147 179.659C216.142 180.496 212.12 185.519 211.114 186.524C210.109 187.529 206.255 189.371 205.082 189.706C203.909 190.04 202.233 189.062 202.568 187.864C202.903 186.666 203.213 185.687 203.213 185.687C203.213 185.687 196.845 188.868 193.494 188.031C190.142 187.194 182.266 183.175 182.266 183.175L185.643 176.812Z" fill="white" stroke="#263238" stroke-linecap="round" stroke-linejoin="round"/>
<path d="M203.239 177.482C203.239 177.482 211.282 184.515 211.115 186.499L203.239 177.482Z" fill="white"/>
<path d="M203.239 177.482C203.239 177.482 211.282 184.515 211.115 186.499" stroke="#263238" stroke-linecap="round" stroke-linejoin="round"/>
<path d="M205.417 171.956L214.801 181.835" stroke="#263238" stroke-linecap="round" stroke-linejoin="round"/>
<path d="M208.601 167.268L218.32 177.985" stroke="#263238" stroke-linecap="round" stroke-linejoin="round"/>
<path d="M203.239 185.687C203.239 185.687 206.087 184.681 205.752 186.331L203.239 185.687Z" fill="white"/>
<path d="M203.239 185.687C203.239 185.687 206.087 184.681 205.752 186.331" stroke="#263238" stroke-linecap="round" stroke-linejoin="round"/>
<path d="M177.767 172.124L186.791 175.808L182.099 186.357L173.075 182.003C173.075 182.003 172.747 175.64 177.767 172.124Z" fill="#78E096" stroke="#263238" stroke-linecap="round" stroke-linejoin="round"/>
</svg>
