<svg width="28" height="28" viewBox="0 0 28 28" fill="none" xmlns="http://www.w3.org/2000/svg">
<path fill-rule="evenodd" clip-rule="evenodd" d="M12.625 3.59999C7.64063 3.59999 3.60002 7.6406 3.60002 12.6249C3.60002 17.6093 7.64063 21.6499 12.625 21.6499C17.6093 21.6499 21.6499 17.6093 21.6499 12.6249C21.6499 7.6406 17.6093 3.59999 12.625 3.59999ZM2.40002 12.6249C2.40002 6.97785 6.97789 2.39999 12.625 2.39999C18.272 2.39999 22.8499 6.97785 22.8499 12.6249C22.8499 18.272 18.272 22.8499 12.625 22.8499C6.97789 22.8499 2.40002 18.272 2.40002 12.6249Z" fill="#3F3F3F"/>
<path fill-rule="evenodd" clip-rule="evenodd" d="M19.0059 19.0072C19.2403 18.7729 19.6201 18.7729 19.8545 19.0072L25.4232 24.576C25.6576 24.8103 25.6576 25.1902 25.4232 25.4246C25.1889 25.6589 24.809 25.6589 24.5747 25.4246L19.0059 19.8558C18.7716 19.6215 18.7716 19.2416 19.0059 19.0072Z" fill="#3F3F3F"/>
</svg>
