<svg width="28" height="28" viewBox="0 0 28 28" fill="none" xmlns="http://www.w3.org/2000/svg">
<path d="M14 19.25C16.8995 19.25 19.25 16.8995 19.25 14C19.25 11.1005 16.8995 8.75 14 8.75C11.1005 8.75 8.75 11.1005 8.75 14C8.75 16.8995 11.1005 19.25 14 19.25Z" fill="#CCECD3" stroke="#3F3F3F" stroke-linecap="round" stroke-linejoin="round"/>
<path d="M21.5907 8.82676C21.854 9.20374 22.0845 9.6026 22.2797 10.0189L25.1125 11.5939C25.4663 13.1782 25.47 14.8206 25.1235 16.4064L22.2797 17.9814C22.0845 18.3978 21.854 18.7966 21.5907 19.1736L21.6453 22.4221C20.4448 23.5161 19.0239 24.3403 17.4782 24.8393L14.6891 23.1658C14.2303 23.1986 13.7698 23.1986 13.311 23.1658L10.5328 24.8283C8.98224 24.3384 7.55663 23.5174 6.35472 22.4221L6.40941 19.1846C6.1483 18.8024 5.91789 18.4001 5.72034 17.9814L2.88753 16.4064C2.53381 14.8222 2.53008 13.1798 2.87659 11.5939L5.72034 10.0189C5.91556 9.6026 6.14609 9.20374 6.40941 8.82676L6.35472 5.57832C7.55527 4.48431 8.9762 3.6601 10.5219 3.16113L13.311 4.83457C13.7698 4.80175 14.2303 4.80175 14.6891 4.83457L17.4672 3.17207C19.0178 3.66196 20.4434 4.48299 21.6453 5.57832L21.5907 8.82676Z" stroke="#3F3F3F" stroke-linecap="round" stroke-linejoin="round"/>
</svg>
