<svg width="26" height="26" viewBox="0 0 26 26" fill="none" xmlns="http://www.w3.org/2000/svg">
<path d="M13.0002 16.1822C14.7574 16.1822 16.182 14.7577 16.182 13.0004C16.182 11.2432 14.7574 9.8186 13.0002 9.8186C11.2429 9.8186 9.81836 11.2432 9.81836 13.0004C9.81836 14.7577 11.2429 16.1822 13.0002 16.1822Z" stroke="#3F3F3F" stroke-width="1.5" stroke-linecap="round"/>
<path d="M18.338 9.17592C18.52 9.45648 18.6816 9.75101 18.8215 10.057L20.8171 11.2202C21.0601 12.3924 21.061 13.6057 20.8195 14.7783L18.8229 15.9422C18.6825 16.2479 18.5204 16.5422 18.338 16.8224L18.3764 19.2187C17.5312 20.0259 16.5309 20.6333 15.4431 21L13.4849 19.7662C13.1625 19.7914 12.8388 19.7912 12.5164 19.7654L10.5593 20.9985C9.47102 20.6334 8.46993 20.0275 7.62358 19.2217L7.66201 16.8241C7.48004 16.5435 7.31839 16.249 7.17845 15.943L5.18292 14.7798C4.93986 13.6076 4.93902 12.3943 5.18047 11.2217L7.17711 10.0578C7.31752 9.75207 7.4796 9.45782 7.662 9.17755L7.62359 6.78127C8.46883 5.97413 9.46908 5.36672 10.5569 5L12.5151 6.23376C12.8375 6.20856 13.1612 6.20883 13.4836 6.23456L15.4407 5.00149C16.529 5.36656 17.5301 5.97245 18.3764 6.7783L18.338 9.17592Z" stroke="#3F3F3F" stroke-width="1.5" stroke-linecap="round"/>
</svg>
