<svg width="22" height="22" viewBox="0 0 22 22" fill="none" xmlns="http://www.w3.org/2000/svg">
<path d="M11 13.75C12.5188 13.75 13.75 12.5188 13.75 11C13.75 9.48122 12.5188 8.25 11 8.25C9.48122 8.25 8.25 9.48122 8.25 11C8.25 12.5188 9.48122 13.75 11 13.75Z" stroke="#3F3F3F" stroke-width="1.2" stroke-linecap="round" stroke-linejoin="round"/>
<path d="M16.9636 6.93545C17.1705 7.23165 17.3516 7.54504 17.505 7.87217L19.7308 9.10967C20.0087 10.3544 20.0116 11.6449 19.7393 12.8909L17.505 14.1284C17.3516 14.4555 17.1705 14.7689 16.9636 15.0651L17.0065 17.6175C16.0632 18.4771 14.9468 19.1247 13.7323 19.5167L11.5409 18.2019C11.1804 18.2276 10.8186 18.2276 10.4581 18.2019L8.27529 19.5081C7.05696 19.1232 5.93684 18.4781 4.99248 17.6175L5.03544 15.0737C4.83029 14.7734 4.64925 14.4573 4.49404 14.1284L2.26826 12.8909C1.99033 11.6461 1.9874 10.3557 2.25966 9.10967L4.49404 7.87217C4.64742 7.54504 4.82855 7.23165 5.03544 6.93545L4.99248 4.38311C5.93577 3.52353 7.05221 2.87593 8.26669 2.48389L10.4581 3.79873C10.8186 3.77295 11.1804 3.77295 11.5409 3.79873L13.7237 2.49248C14.9421 2.87739 16.0622 3.52249 17.0065 4.38311L16.9636 6.93545Z" stroke="#3F3F3F" stroke-width="1.2" stroke-linecap="round" stroke-linejoin="round"/>
<circle cx="17" cy="5" r="4.5" fill="#00C802" stroke="white"/>
</svg>
