<svg width="32" height="32" viewBox="0 0 32 32" fill="none" xmlns="http://www.w3.org/2000/svg">
<path fill-rule="evenodd" clip-rule="evenodd" d="M32 3.5C32 5.433 30.433 7 28.5 7C26.567 7 25 5.433 25 3.5C25 1.567 26.567 0 28.5 0C30.433 0 32 1.567 32 3.5ZM17.204 4.11471C17.204 3.73571 16.897 3.42871 16.518 3.42871C16.139 3.42871 15.832 3.73571 15.832 4.11471V7.27344C14.2924 7.58996 13.1348 8.95269 13.1348 10.5861C13.1348 12.2195 14.2924 13.5822 15.832 13.8988V27.8417C15.832 28.2207 16.139 28.5277 16.518 28.5277C16.897 28.5277 17.204 28.2207 17.204 27.8417V13.8982C18.7424 13.5808 19.8988 12.2186 19.8988 10.5861C19.8988 8.95359 18.7424 7.59145 17.204 7.27396V4.11471ZM14.5068 10.5861C14.5068 9.48345 15.3933 8.58865 16.4927 8.57525C16.5011 8.57556 16.5096 8.57571 16.518 8.57571C16.5265 8.57571 16.5348 8.57556 16.5432 8.57526C17.6425 8.58886 18.5288 9.48359 18.5288 10.5861C18.5288 11.6843 17.6485 12.5763 16.5561 12.5967C16.5435 12.5961 16.5308 12.5957 16.518 12.5957C16.5052 12.5957 16.4924 12.5961 16.4798 12.5968C15.3863 12.5765 14.5068 11.6844 14.5068 10.5861ZM26.2392 23.382L26.2241 23.3818C26.217 23.3818 26.21 23.3819 26.203 23.3822C25.1016 23.371 24.2128 22.4753 24.2128 21.3713C24.2128 20.2603 25.1138 19.3603 26.2238 19.3603C27.3348 19.3603 28.2348 20.2603 28.2348 21.3713C28.2348 22.4752 27.3462 23.3708 26.245 23.3821L26.2392 23.382ZM25.5381 24.6837V27.8428C25.5381 28.2218 25.8451 28.5288 26.2241 28.5288C26.6031 28.5288 26.9101 28.2218 26.9101 27.8428V24.6836C28.449 24.3665 29.6058 23.0041 29.6058 21.3713C29.6058 19.7239 28.4284 18.3519 26.869 18.0507C26.8962 18 26.9111 17.9453 26.9111 17.8881V7.89933C26.9111 7.63933 26.6041 7.42871 26.2251 7.42871C25.8461 7.42871 25.5391 7.63933 25.5391 7.89933V17.8881C25.5391 17.9451 25.5538 17.9997 25.5809 18.0503C24.0204 18.3505 22.8418 19.7231 22.8418 21.3713C22.8418 23.0043 23.9989 24.3668 25.5381 24.6837ZM3.42871 17.0568C3.42871 18.6899 4.58583 20.0524 6.125 20.3693V27.8434C6.125 28.2224 6.432 28.5294 6.811 28.5294C7.19 28.5294 7.497 28.2224 7.497 27.8434V20.3691C9.03588 20.052 10.1927 18.6897 10.1927 17.0568C10.1927 15.4239 9.03588 14.0616 7.497 13.7445V4.11471C7.497 3.73571 7.19 3.42871 6.811 3.42871C6.432 3.42871 6.125 3.73571 6.125 4.11471V13.7443C4.58583 14.0612 3.42871 15.4237 3.42871 17.0568ZM4.79971 17.0568C4.79971 15.956 5.68423 15.0624 6.78017 15.046C6.79039 15.0465 6.80067 15.0467 6.811 15.0467C6.82128 15.0467 6.83151 15.0465 6.84168 15.046C7.93839 15.0626 8.82171 15.9571 8.82171 17.0568C8.82171 18.1678 7.92171 19.0678 6.81071 19.0678C5.69971 19.0678 4.79971 18.1678 4.79971 17.0568Z" fill="#3F3F3F"/>
</svg>
