<svg width="14" height="14" viewBox="0 0 14 14" fill="none" xmlns="http://www.w3.org/2000/svg">
<circle cx="7" cy="7" r="7" fill="#184F69"/>
<path d="M8.92188 4.33C8.78188 4.05 8.59188 3.82 8.41188 3.66C8.20188 3.48 7.79188 3.21 7.07188 3.21C5.82188 3.21 5.12188 4.07 5.12188 4.97C5.12188 5.97 5.93188 6.43 6.48188 6.66L7.12188 6.93C7.56188 7.11 8.08188 7.39 8.08188 8.07C8.08188 8.74 7.60188 9.19 6.98188 9.19C6.58188 9.19 6.30188 9.03 6.11188 8.79C5.95188 8.58 5.83188 8.27 5.83188 7.94L4.82188 8.16C4.86188 8.62 5.02188 9.06 5.38188 9.46C5.72188 9.84 6.18188 10.13 6.95188 10.13C8.20188 10.13 9.10188 9.26 9.10188 7.99C9.10188 7.23 8.76188 6.53 7.53188 6.03L6.86188 5.76C6.21188 5.5 6.14188 5.15 6.14188 4.95C6.14188 4.52 6.46188 4.15 7.08188 4.15C7.37188 4.15 7.59188 4.22 7.80188 4.39C7.95188 4.52 8.04188 4.66 8.10188 4.81L8.92188 4.33Z" fill="white"/>
</svg>
