<svg width="32" height="32" viewBox="0 0 32 32" fill="none" xmlns="http://www.w3.org/2000/svg">
<path d="M21.1175 11.5791C21.07 11.5582 21.0183 11.5455 20.9667 11.5455H18.7214C18.5032 11.5455 18.3248 11.7343 18.3248 11.9651C18.3248 12.1958 18.5032 12.3846 18.7214 12.3846H20.0066L16.9999 15.5694L13.989 12.3848H15.2742C15.4923 12.3848 15.6708 12.196 15.6708 11.9652C15.6708 11.7345 15.4923 11.5457 15.2742 11.5457L13.033 11.5455C12.9814 11.5455 12.9299 11.5582 12.8823 11.5791C12.7871 11.621 12.7078 11.705 12.6681 11.8056C12.6482 11.856 12.6362 11.9106 12.6362 11.9652V14.3401C12.6362 14.5709 12.8147 14.7596 13.0329 14.7596C13.251 14.7596 13.4295 14.5709 13.4295 14.3401V12.9808L16.6031 16.3375L16.6032 22.0351C16.6032 22.2658 16.7817 22.4546 16.9999 22.4546C17.218 22.4546 17.3965 22.2658 17.3965 22.0351V16.333L20.5701 12.9763V14.3356C20.5701 14.5664 20.7485 14.7552 20.9667 14.7552C21.1849 14.7552 21.3633 14.5664 21.3633 14.3356L21.3635 11.9651C21.3635 11.9105 21.3516 11.8561 21.3318 11.8057C21.2921 11.7007 21.2167 11.621 21.1175 11.579L21.1175 11.5791Z" fill="#00C802"/>
<circle cx="17" cy="17" r="9.8" stroke="#3F3F3F" stroke-width="0.4"/>
<circle cx="17" cy="17" r="11.75" stroke="#3F3F3F" stroke-width="0.5"/>
</svg>
