<svg width="28" height="28" viewBox="0 0 28 28" fill="none" xmlns="http://www.w3.org/2000/svg">
<defs>
<radialGradient id="paint0_radial_3404_15388" cx="0" cy="0" r="1" gradientUnits="userSpaceOnUse" gradientTransform="translate(13.4998 11.5569) scale(9.77163)">
<stop stop-color="#FFE343"/>
<stop offset="0.5492" stop-color="#FFE241"/>
<stop offset="0.7469" stop-color="#FFDF3A"/>
<stop offset="0.8874" stop-color="#FEDA2F"/>
<stop offset="1" stop-color="#FED31E"/>
</radialGradient>
<radialGradient id="paint1_radial_3404_15388" cx="0" cy="0" r="1" gradientUnits="userSpaceOnUse" gradientTransform="translate(6.27312 15.4138) rotate(-39.4857) scale(1.80725 4.86639)">
<stop stop-color="#D86D00"/>
<stop offset="0.3292" stop-color="#DC6C0A" stop-opacity="0.6708"/>
<stop offset="0.8792" stop-color="#E86823" stop-opacity="0.1208"/>
<stop offset="1" stop-color="#EB672A" stop-opacity="0"/>
</radialGradient>
<radialGradient id="paint2_radial_3404_15388" cx="0" cy="0" r="1" gradientUnits="userSpaceOnUse" gradientTransform="translate(21.4917 15.678) rotate(-140.514) scale(1.80725 4.86639)">
<stop stop-color="#D86D00"/>
<stop offset="0.3292" stop-color="#DC6C0A" stop-opacity="0.6708"/>
<stop offset="0.8792" stop-color="#E86823" stop-opacity="0.1208"/>
<stop offset="1" stop-color="#EB672A" stop-opacity="0"/>
</radialGradient>
<radialGradient id="paint3_radial_3404_15388" cx="0" cy="0" r="1" gradientUnits="userSpaceOnUse" gradientTransform="translate(20.2021 6.01506) rotate(46.8275) scale(7.07713 4.87114)">
<stop stop-color="#ED9900"/>
<stop offset="1" stop-color="#ED9900" stop-opacity="0"/>
</radialGradient>
<radialGradient id="paint4_radial_3404_15388" cx="0" cy="0" r="1" gradientUnits="userSpaceOnUse" gradientTransform="translate(13.2379 10.5212) rotate(-41.4123) scale(5.62213 3.08092)">
<stop stop-color="#FFEC5F"/>
<stop offset="1" stop-color="#FFEC5F" stop-opacity="0"/>
</radialGradient>
<radialGradient id="paint5_radial_3404_15388" cx="0" cy="0" r="1" gradientUnits="userSpaceOnUse" gradientTransform="translate(11.5515 23.077) rotate(-26.3216) scale(5.37289 2.54636)">
<stop stop-color="#D86D00"/>
<stop offset="0.3292" stop-color="#DC6C0A" stop-opacity="0.6708"/>
<stop offset="0.8792" stop-color="#E86823" stop-opacity="0.1208"/>
<stop offset="1" stop-color="#EB672A" stop-opacity="0"/>
</radialGradient>
<radialGradient id="paint6_radial_3404_15388" cx="0" cy="0" r="1" gradientUnits="userSpaceOnUse" gradientTransform="translate(16.3829 23.2284) rotate(-153.678) scale(5.37289 2.54636)">
<stop stop-color="#D86D00"/>
<stop offset="0.3292" stop-color="#DC6C0A" stop-opacity="0.6708"/>
<stop offset="0.8792" stop-color="#E86823" stop-opacity="0.1208"/>
<stop offset="1" stop-color="#EB672A" stop-opacity="0"/>
</radialGradient>
<radialGradient id="paint7_radial_3404_15388" cx="0" cy="0" r="1" gradientUnits="userSpaceOnUse" gradientTransform="translate(13.9918 26.0896) rotate(177.226) scale(7.10754 7.28686)">
<stop stop-color="#D86D00"/>
<stop offset="0.3292" stop-color="#DC6C0A" stop-opacity="0.6708"/>
<stop offset="0.8792" stop-color="#E86823" stop-opacity="0.1208"/>
<stop offset="1" stop-color="#EB672A" stop-opacity="0"/>
</radialGradient>
<radialGradient id="paint8_radial_3404_15388" cx="0" cy="0" r="1" gradientUnits="userSpaceOnUse" gradientTransform="translate(16.3906 18.2251) rotate(158.456) scale(7.5106 5.67762)">
<stop stop-color="#D86D00"/>
<stop offset="0.3292" stop-color="#DC6C0A" stop-opacity="0.6708"/>
<stop offset="0.8792" stop-color="#E86823" stop-opacity="0.1208"/>
<stop offset="1" stop-color="#EB672A" stop-opacity="0"/>
</radialGradient>
<radialGradient id="paint9_radial_3404_15388" cx="0" cy="0" r="1" gradientUnits="userSpaceOnUse" gradientTransform="translate(13.2135 11.3188) rotate(158.456) scale(4.5252 3.42081)">
<stop stop-color="white"/>
<stop offset="1" stop-color="white" stop-opacity="0"/>
</radialGradient>
<radialGradient id="paint10_radial_3404_15388" cx="0" cy="0" r="1" gradientUnits="userSpaceOnUse" gradientTransform="translate(7.79231 6.0143) rotate(133.173) scale(7.07713 4.87114)">
<stop stop-color="#ED9900"/>
<stop offset="1" stop-color="#ED9900" stop-opacity="0"/>
</radialGradient>
<radialGradient id="paint11_radial_3404_15388" cx="0" cy="0" r="1" gradientUnits="userSpaceOnUse" gradientTransform="translate(14.1076 14.0432) scale(11.6504)">
<stop stop-color="#FF8000" stop-opacity="0"/>
<stop offset="0.5434" stop-color="#FD7F00" stop-opacity="0.5434"/>
<stop offset="0.7391" stop-color="#F67C00" stop-opacity="0.7391"/>
<stop offset="0.8781" stop-color="#EB7600" stop-opacity="0.8781"/>
<stop offset="0.9903" stop-color="#DA6E00" stop-opacity="0.9903"/>
<stop offset="1" stop-color="#D86D00"/>
</radialGradient>
<radialGradient id="paint12_radial_3404_15388" cx="0" cy="0" r="1" gradientUnits="userSpaceOnUse" gradientTransform="translate(13.9971 14.4192) scale(10.0674)">
<stop stop-color="#A3541E" stop-opacity="0.5"/>
<stop offset="0.5109" stop-color="#A5551D" stop-opacity="0.7555"/>
<stop offset="0.695" stop-color="#AC5819" stop-opacity="0.8475"/>
<stop offset="0.8261" stop-color="#B75E12" stop-opacity="0.9131"/>
<stop offset="0.9315" stop-color="#C86609" stop-opacity="0.9657"/>
<stop offset="1" stop-color="#D86D00"/>
</radialGradient>
</defs>
<path d="M14.5323 4.33647L17.2379 9.82417C17.2732 9.90063 17.3497 9.95357 17.432 9.96533L23.4844 10.8476C23.9726 10.9182 24.1667 11.5181 23.8137 11.8651L19.5612 16.0059C19.4201 16.1412 19.3554 16.3412 19.3907 16.5353L20.3964 22.3876C20.4788 22.8758 19.9671 23.2464 19.5318 23.017L14.1147 20.1702C14.0382 20.129 13.95 20.129 13.8735 20.1702L8.45643 23.017C8.02117 23.2464 7.50946 22.8758 7.5918 22.3876L8.63288 16.3588C8.64464 16.2765 8.62111 16.1883 8.55642 16.1294L4.18037 11.8593C3.82747 11.5122 4.02156 10.9123 4.50975 10.8417L10.5621 9.95945C10.6444 9.94769 10.7209 9.89475 10.7562 9.81829L13.4618 4.33059C13.6794 3.89534 14.3147 3.89534 14.5323 4.33647Z" fill="url(#paint0_radial_3404_15388)"/>
<path d="M7.35653 13.724C6.22135 12.5888 4.61562 11.2948 4.95089 10.7831L4.50975 10.8478C4.02156 10.9184 3.82747 11.5183 4.18037 11.8653L8.5623 16.1355C8.62111 16.1943 8.65052 16.2825 8.63876 16.3649C8.79169 15.2944 8.49172 14.8533 7.35653 13.724Z" fill="url(#paint1_radial_3404_15388)"/>
<path d="M20.6376 13.724C21.7728 12.5888 23.3786 11.2948 23.0433 10.7831L23.4844 10.8478C23.9726 10.9184 24.1667 11.5183 23.8138 11.8653L19.4319 16.1355C19.3731 16.1943 19.3437 16.2825 19.3554 16.3649C19.2025 15.2944 19.5025 14.8533 20.6376 13.724Z" fill="url(#paint2_radial_3404_15388)"/>
<path d="M23.4844 10.8478L17.432 9.96549C17.3497 9.95373 17.2732 9.90079 17.2379 9.82433L14.5323 4.33663C14.5323 4.33663 14.2853 4.64248 14.844 5.80707C15.2087 6.56582 16.1674 8.65974 16.6909 9.74198C16.985 10.3537 17.432 10.3655 18.1084 10.4537L22.5786 11.0242C22.5727 11.0301 23.0668 11.0713 23.4844 10.8478Z" fill="url(#paint3_radial_3404_15388)"/>
<path d="M14.5323 4.33647L17.2379 9.82417C17.2732 9.90063 17.3497 9.95357 17.432 9.96533L23.4844 10.8476C23.9726 10.9182 24.1667 11.5181 23.8137 11.8651L19.5612 16.0059C19.4201 16.1412 19.3554 16.3412 19.3907 16.5353L20.3964 22.3876C20.4788 22.8758 19.9671 23.2464 19.5318 23.017L14.1147 20.1702C14.0382 20.129 13.95 20.129 13.8735 20.1702L8.45643 23.017C8.02117 23.2464 7.50946 22.8758 7.5918 22.3876L8.63288 16.3588C8.64464 16.2765 8.62111 16.1883 8.55642 16.1294L4.18037 11.8593C3.82747 11.5122 4.02156 10.9123 4.50975 10.8417L10.5621 9.95945C10.6444 9.94769 10.7209 9.89475 10.7562 9.81829L13.4618 4.33059C13.6794 3.89534 14.3147 3.89534 14.5323 4.33647Z" fill="url(#paint4_radial_3404_15388)"/>
<path d="M14.5323 4.33647L17.2379 9.82417C17.2732 9.90063 17.3497 9.95357 17.432 9.96533L23.4844 10.8476C23.9726 10.9182 24.1667 11.5181 23.8137 11.8651L19.5612 16.0059C19.4201 16.1412 19.3554 16.3412 19.3907 16.5353L20.3964 22.3876C20.4788 22.8758 19.9671 23.2464 19.5318 23.017L14.1147 20.1702C14.0382 20.129 13.95 20.129 13.8735 20.1702L8.45643 23.017C8.02117 23.2464 7.50946 22.8758 7.5918 22.3876L8.63288 16.3588C8.64464 16.2765 8.62111 16.1883 8.55642 16.1294L4.18037 11.8593C3.82747 11.5122 4.02156 10.9123 4.50975 10.8417L10.5621 9.95945C10.6444 9.94769 10.7209 9.89475 10.7562 9.81829L13.4618 4.33059C13.6794 3.89534 14.3147 3.89534 14.5323 4.33647Z" fill="url(#paint5_radial_3404_15388)"/>
<path d="M13.4618 4.33647L10.7562 9.82417C10.7209 9.90063 10.6444 9.95357 10.5621 9.96533L4.50975 10.8476C4.02156 10.9182 3.82747 11.5181 4.18037 11.8651L8.4329 16.0059C8.57406 16.1412 8.63876 16.3412 8.60347 16.5353L7.59769 22.3876C7.51534 22.8758 8.02706 23.2464 8.46231 23.017L13.8794 20.1702C13.9559 20.129 14.0441 20.129 14.1206 20.1702L19.5377 23.017C19.9729 23.2464 20.4847 22.8758 20.4023 22.3876L19.3612 16.3588C19.3495 16.2765 19.373 16.1883 19.4377 16.1294L23.8196 11.8593C24.1725 11.5122 23.9784 10.9123 23.4902 10.8417L17.4379 9.95945C17.3556 9.94769 17.2791 9.89475 17.2438 9.81829L14.5382 4.33059C14.3147 3.89534 13.6794 3.89534 13.4618 4.33647Z" fill="url(#paint6_radial_3404_15388)"/>
<path d="M13.4618 4.33647L10.7562 9.82417C10.7209 9.90063 10.6444 9.95357 10.5621 9.96533L4.50975 10.8476C4.02156 10.9182 3.82747 11.5181 4.18037 11.8651L8.4329 16.0059C8.57406 16.1412 8.63876 16.3412 8.60347 16.5353L7.59769 22.3876C7.51534 22.8758 8.02706 23.2464 8.46231 23.017L13.8794 20.1702C13.9559 20.129 14.0441 20.129 14.1206 20.1702L19.5377 23.017C19.9729 23.2464 20.4847 22.8758 20.4023 22.3876L19.3612 16.3588C19.3495 16.2765 19.373 16.1883 19.4377 16.1294L23.8196 11.8593C24.1725 11.5122 23.9784 10.9123 23.4902 10.8417L17.4379 9.95945C17.3556 9.94769 17.2791 9.89475 17.2438 9.81829L14.5382 4.33059C14.3147 3.89534 13.6794 3.89534 13.4618 4.33647Z" fill="url(#paint7_radial_3404_15388)"/>
<path opacity="0.24" d="M13.4618 4.33647L10.7562 9.82417C10.7209 9.90063 10.6444 9.95357 10.5621 9.96533L4.50975 10.8476C4.02156 10.9182 3.82747 11.5181 4.18037 11.8651L8.4329 16.0059C8.57406 16.1412 8.63876 16.3412 8.60347 16.5353L7.59769 22.3876C7.51534 22.8758 8.02706 23.2464 8.46231 23.017L13.8794 20.1702C13.9559 20.129 14.0441 20.129 14.1206 20.1702L19.5377 23.017C19.9729 23.2464 20.4847 22.8758 20.4023 22.3876L19.3612 16.3588C19.3495 16.2765 19.373 16.1883 19.4377 16.1294L23.8196 11.8593C24.1725 11.5122 23.9784 10.9123 23.4902 10.8417L17.4379 9.95945C17.3556 9.94769 17.2791 9.89475 17.2438 9.81829L14.5382 4.33059C14.3147 3.89534 13.6794 3.89534 13.4618 4.33647Z" fill="url(#paint8_radial_3404_15388)"/>
<path opacity="0.24" d="M13.4618 4.33647L10.7562 9.82417C10.7209 9.90063 10.6444 9.95357 10.5621 9.96533L4.50975 10.8476C4.02156 10.9182 3.82747 11.5181 4.18037 11.8651L8.4329 16.0059C8.57406 16.1412 8.63876 16.3412 8.60347 16.5353L7.59769 22.3876C7.51534 22.8758 8.02706 23.2464 8.46231 23.017L13.8794 20.1702C13.9559 20.129 14.0441 20.129 14.1206 20.1702L19.5377 23.017C19.9729 23.2464 20.4847 22.8758 20.4023 22.3876L19.3612 16.3588C19.3495 16.2765 19.373 16.1883 19.4377 16.1294L23.8196 11.8593C24.1725 11.5122 23.9784 10.9123 23.4902 10.8417L17.4379 9.95945C17.3556 9.94769 17.2791 9.89475 17.2438 9.81829L14.5382 4.33059C14.3147 3.89534 13.6794 3.89534 13.4618 4.33647Z" fill="url(#paint9_radial_3404_15388)"/>
<path d="M4.50977 10.8478L10.5621 9.96549C10.6445 9.95373 10.7209 9.90079 10.7562 9.82433L13.4618 4.33663C13.4618 4.33663 13.7089 4.64248 13.1501 5.80707C12.7854 6.56582 11.8267 8.65974 11.3032 9.74198C11.0091 10.3537 10.5621 10.3655 9.88571 10.4537L5.41556 11.0242C5.42144 11.0301 4.92737 11.0713 4.50977 10.8478Z" fill="url(#paint10_radial_3404_15388)"/>
<path opacity="0.5" d="M14.5323 4.33647L17.2379 9.82417C17.2732 9.90063 17.3497 9.95357 17.432 9.96533L23.4844 10.8476C23.9726 10.9182 24.1667 11.5181 23.8137 11.8651L19.5612 16.0059C19.4201 16.1412 19.3554 16.3412 19.3907 16.5353L20.3964 22.3876C20.4788 22.8758 19.9671 23.2464 19.5318 23.017L14.1147 20.1702C14.0382 20.129 13.95 20.129 13.8735 20.1702L8.45643 23.017C8.02117 23.2464 7.50946 22.8758 7.5918 22.3876L8.63288 16.3588C8.64464 16.2765 8.62111 16.1883 8.55642 16.1294L4.18037 11.8593C3.82747 11.5122 4.02156 10.9123 4.50975 10.8417L10.5621 9.95945C10.6444 9.94769 10.7209 9.89475 10.7562 9.81829L13.4618 4.33059C13.6794 3.89534 14.3147 3.89534 14.5323 4.33647Z" fill="url(#paint11_radial_3404_15388)"/>
<path d="M20.3964 22.3879L19.3907 16.5355C19.3554 16.3414 19.4201 16.1473 19.5612 16.0062L23.8137 11.8595C24.1667 11.5125 23.9726 10.9126 23.4844 10.842L17.432 9.95971C17.3497 9.94795 17.2732 9.89501 17.2379 9.81855L14.5323 4.33085C14.3147 3.88972 13.6853 3.88972 13.4618 4.33085L10.7562 9.81855C10.7209 9.89501 10.6444 9.94795 10.5621 9.95971L4.50975 10.842C4.02156 10.9126 3.82747 11.5125 4.18037 11.8595L8.5623 16.1297C8.62111 16.1885 8.65052 16.2767 8.63876 16.3591L7.59769 22.3879C7.51534 22.8761 8.02706 23.2467 8.46231 23.0173L13.8794 20.1705C13.9559 20.1293 14.0441 20.1293 14.1206 20.1705L19.5377 23.0173C19.9671 23.2467 20.4788 22.8761 20.3964 22.3879ZM19.9612 22.6938C19.92 22.7232 19.82 22.782 19.6906 22.7114L14.2794 19.8646C14.1912 19.8176 14.0971 19.794 14.0029 19.794C13.9088 19.794 13.8147 19.8176 13.7265 19.8646L8.31526 22.7114C8.18586 22.7761 8.08587 22.7173 8.0447 22.6938C8.00353 22.6644 7.9153 22.582 7.94471 22.4408L8.96814 16.4179C9.00343 16.2238 8.93873 16.0297 8.79757 15.8885L4.41564 11.6184C4.30977 11.5184 4.3333 11.4007 4.35094 11.3537C4.36859 11.3066 4.41564 11.2008 4.55681 11.1772L10.6092 10.295C10.8033 10.2656 10.9738 10.142 11.0562 9.97148L13.7618 4.48378C13.8265 4.35438 13.9441 4.34261 13.9912 4.34261C14.0382 4.34261 14.1559 4.35438 14.2206 4.48378L16.9262 9.97148C17.0144 10.1479 17.1791 10.2714 17.3732 10.295L23.4255 11.1772C23.5667 11.2008 23.6196 11.3066 23.6314 11.3537C23.6491 11.4007 23.6726 11.5184 23.5667 11.6184L19.3142 15.765C19.0966 15.9768 18.9966 16.2885 19.0436 16.5885L20.0494 22.4408C20.0847 22.5879 19.9965 22.6702 19.9612 22.6938Z" fill="url(#paint12_radial_3404_15388)"/>
</svg>
