<svg width="18" height="18" viewBox="0 0 18 18" fill="none" xmlns="http://www.w3.org/2000/svg">
<path fill-rule="evenodd" clip-rule="evenodd" d="M7.13043 6.12994C7.42332 5.83705 7.42332 5.36217 7.13043 5.06928C6.83753 4.77639 6.36266 4.77639 6.06977 5.06928L2.06977 9.06928C1.77687 9.36217 1.77687 9.83705 2.06977 10.1299L6.06977 14.1299C6.36266 14.4228 6.83753 14.4228 7.13043 14.1299C7.42332 13.837 7.42332 13.3622 7.13043 13.0693L3.66076 9.59961L7.13043 6.12994ZM12.1302 5.07026C11.8373 4.77736 11.3624 4.77736 11.0695 5.07026C10.7766 5.36315 10.7766 5.83802 11.0695 6.13092L14.5392 9.60059L11.0695 13.0703C10.7766 13.3631 10.7766 13.838 11.0695 14.1309C11.3624 14.4238 11.8373 14.4238 12.1302 14.1309L16.1302 10.1309C16.4231 9.83802 16.4231 9.36315 16.1302 9.07026L12.1302 5.07026Z" fill="#00C802"/>
</svg>
