<svg width="28" height="28" viewBox="0 0 28 28" fill="none" xmlns="http://www.w3.org/2000/svg">
<path d="M14 17.5C16.4162 17.5 18.375 15.5412 18.375 13.125C18.375 10.7088 16.4162 8.75 14 8.75C11.5838 8.75 9.625 10.7088 9.625 13.125C9.625 15.5412 11.5838 17.5 14 17.5Z" fill="#CCECD3" stroke="#3F3F3F" stroke-linecap="round" stroke-linejoin="round"/>
<path d="M6.97827 21.8093C7.63661 20.5126 8.64116 19.4235 9.88058 18.6628C11.12 17.902 12.5459 17.4993 14.0001 17.4993C15.4544 17.4993 16.8803 17.902 18.1197 18.6628C19.3591 19.4235 20.3637 20.5126 21.022 21.8093" stroke="#3F3F3F" stroke-linecap="round" stroke-linejoin="round"/>
<path d="M21.875 14L24.5 16.625L27.125 14" stroke="#3F3F3F" stroke-linecap="round" stroke-linejoin="round"/>
<path d="M0.875 14L3.5 11.375L6.125 14" stroke="#3F3F3F" stroke-linecap="round" stroke-linejoin="round"/>
<path d="M24.5001 16.625V14C24.5026 11.7314 23.7703 9.52304 22.4128 7.70544C21.0553 5.88783 19.1457 4.55877 16.9697 3.91719C14.7937 3.2756 12.4685 3.35601 10.342 4.14637C8.21558 4.93672 6.40229 6.39452 5.17358 8.30155" stroke="#3F3F3F" stroke-linecap="round" stroke-linejoin="round"/>
<path d="M3.50001 11.375V14C3.49753 16.2686 4.22985 18.477 5.58734 20.2946C6.94484 22.1122 8.8545 23.4412 11.0305 24.0828C13.2064 24.7244 15.5317 24.644 17.6581 23.8536C19.7846 23.0633 21.5979 21.6055 22.8266 19.6984" stroke="#3F3F3F" stroke-linecap="round" stroke-linejoin="round"/>
</svg>
