<svg width="28" height="28" viewBox="0 0 28 28" fill="none" xmlns="http://www.w3.org/2000/svg">
<path d="M23.7016 16.6905C21.9837 17.1723 20.1685 17.188 18.4424 16.7363C16.7164 16.2845 15.1417 15.3814 13.8801 14.1198C12.6185 12.8582 11.7154 11.2835 11.2636 9.55748C10.8119 7.83144 10.8277 6.01626 11.3094 4.29834C9.61567 4.76976 8.07503 5.67671 6.84092 6.92884C5.6068 8.18098 4.72228 9.73461 4.27547 11.435C3.82865 13.1353 3.83513 14.9231 4.29426 16.6202C4.75339 18.3173 5.64915 19.8644 6.89231 21.1076C8.13547 22.3508 9.68264 23.2465 11.3797 23.7057C13.0768 24.1648 14.8646 24.1713 16.5649 23.7244C18.2653 23.2776 19.8189 22.3931 21.0711 21.159C22.3232 19.9249 23.2302 18.3842 23.7016 16.6905Z" fill="#CCECD3" stroke="#3F3F3F" stroke-linecap="round"/>
</svg>
