<svg width="380" height="312" viewBox="0 0 380 312" fill="none" xmlns="http://www.w3.org/2000/svg">
<path d="M190 311.55C291.66 311.55 374.072 263.97 374.072 205.278C374.072 146.585 291.66 99.0054 190 99.0054C88.3401 99.0054 5.92841 146.585 5.92841 205.278C5.92841 263.97 88.3401 311.55 190 311.55Z" fill="#F5F5F5"/>
<path d="M161.988 264.505L216.822 296.165C217.233 296.374 217.689 296.482 218.15 296.482C218.612 296.482 219.067 296.374 219.479 296.165L293.484 253.437C294.252 253.014 294.252 252.331 293.484 251.901L238.651 220.248C238.238 220.036 237.781 219.925 237.318 219.925C236.854 219.925 236.397 220.036 235.985 220.248L161.988 262.969C161.825 263.021 161.683 263.123 161.582 263.261C161.482 263.399 161.427 263.566 161.427 263.737C161.427 263.908 161.482 264.074 161.582 264.212C161.683 264.35 161.825 264.453 161.988 264.505Z" fill="#E0E0E0"/>
<path d="M241.462 195.638L283.261 219.756C283.673 219.965 284.128 220.073 284.59 220.073C285.051 220.073 285.507 219.965 285.918 219.756L344.616 185.96C345.384 185.538 345.384 184.854 344.616 184.424L302.824 160.314C302.412 160.102 301.955 159.991 301.491 159.991C301.028 159.991 300.571 160.102 300.159 160.314L241.462 194.102C241.303 194.158 241.165 194.262 241.067 194.4C240.97 194.537 240.918 194.702 240.918 194.87C240.918 195.039 240.97 195.203 241.067 195.341C241.165 195.479 241.303 195.582 241.462 195.638V195.638Z" fill="#E0E0E0"/>
<path opacity="0.1" d="M345.606 204.572L342.004 202.49C341.671 202.296 341.292 202.193 340.906 202.193C340.52 202.193 340.141 202.296 339.807 202.49L298.523 226.685L293.63 232.445L303.823 229.742L345.606 205.616C345.697 205.562 345.772 205.486 345.825 205.395C345.877 205.303 345.904 205.199 345.904 205.094C345.904 204.988 345.877 204.885 345.825 204.793C345.772 204.702 345.697 204.625 345.606 204.572V204.572Z" fill="#455A64"/>
<path d="M113.076 272.117C109.396 272.19 105.761 271.301 102.53 269.536L102.039 269.237C101.675 269.014 101.388 268.684 101.219 268.292C101.05 267.9 101.006 267.465 101.094 267.047C101.21 266.58 101.472 266.161 101.842 265.853C102.212 265.545 102.672 265.363 103.153 265.335L113.829 263.798L114.397 262.608L111.84 261.11L101.348 262.646H100.971C100.515 262.645 100.068 262.521 99.6764 262.287C99.2846 262.054 98.9625 261.72 98.7437 261.32C98.5248 260.92 98.4173 260.469 98.4321 260.013C98.447 259.557 98.5838 259.114 98.8283 258.729C99.8063 257.272 101.124 256.075 102.669 255.242C105.859 253.55 109.427 252.697 113.038 252.761C114.475 252.759 115.909 252.882 117.324 253.13L161.873 227.414C161.534 226.291 161.505 225.097 161.788 223.958C162.341 221.754 163.993 219.81 166.566 218.351C169.81 216.7 173.402 215.846 177.042 215.863C180.682 215.879 184.266 216.763 187.496 218.443L187.988 218.743C188.35 218.967 188.634 219.298 188.802 219.689C188.969 220.081 189.012 220.515 188.925 220.932C188.808 221.386 188.554 221.792 188.196 222.095C187.838 222.398 187.395 222.582 186.928 222.621L176.244 224.158L175.675 225.348L178.233 226.846L188.725 225.31C188.85 225.299 188.976 225.299 189.101 225.31C189.557 225.311 190.004 225.435 190.396 225.669C190.788 225.902 191.11 226.236 191.329 226.636C191.548 227.036 191.655 227.487 191.64 227.943C191.626 228.399 191.489 228.842 191.244 229.227C190.267 230.686 188.949 231.886 187.404 232.722C184.213 234.411 180.645 235.262 177.035 235.195C175.598 235.197 174.164 235.074 172.749 234.826L128.2 260.542C128.538 261.668 128.568 262.865 128.284 264.006C127.731 266.21 126.08 268.146 123.507 269.613C120.299 271.32 116.709 272.181 113.076 272.117V272.117Z" fill="#E0E0E0"/>
<path d="M204.294 183.871L170.621 164.431C170.433 164.365 170.27 164.243 170.155 164.081C170.04 163.918 169.978 163.724 169.978 163.525C169.978 163.326 170.04 163.131 170.155 162.969C170.27 162.807 170.433 162.684 170.621 162.618L259.896 111.065C260.381 110.818 260.918 110.69 261.463 110.69C262.007 110.69 262.544 110.818 263.03 111.065L296.764 130.505C296.952 130.571 297.115 130.693 297.23 130.855C297.345 131.018 297.407 131.212 297.407 131.411C297.407 131.61 297.345 131.804 297.23 131.967C297.115 132.129 296.952 132.252 296.764 132.317L207.428 183.871C206.942 184.118 206.405 184.246 205.861 184.246C205.316 184.246 204.78 184.118 204.294 183.871V183.871Z" fill="#E0E0E0"/>
<path d="M78.0286 260.633L177.112 203.503C180.783 201.383 180.783 197.942 177.112 195.822L143.615 176.482C139.944 174.362 133.984 174.362 130.312 176.482L31.2291 233.612C27.5577 235.74 27.5577 239.173 31.2291 241.293L64.7253 260.633C68.3968 262.753 74.3571 262.753 78.0286 260.633Z" fill="#E0E0E0"/>
<path d="M176.09 165.076C175.843 164.913 175.652 164.679 175.542 164.404C175.433 164.129 175.409 163.828 175.476 163.54L190.238 98.1911C190.419 97.5608 190.82 97.016 191.367 96.655L279.236 45.9613C279.506 45.825 279.805 45.7539 280.108 45.7539C280.411 45.7539 280.709 45.825 280.98 45.9613C281.226 46.1248 281.417 46.359 281.528 46.6332C281.639 46.9073 281.665 47.2086 281.602 47.4975L266.809 112.785C266.633 113.418 266.231 113.965 265.679 114.321L177.834 165.015C177.568 165.161 177.272 165.242 176.969 165.253C176.666 165.264 176.365 165.203 176.09 165.076V165.076Z" fill="#35B350"/>
<path opacity="0.8" d="M176.09 165.076C175.843 164.913 175.652 164.679 175.542 164.404C175.433 164.129 175.409 163.828 175.476 163.54L190.238 98.1911C190.419 97.5608 190.82 97.016 191.367 96.655L279.236 45.9613C279.506 45.825 279.805 45.7539 280.108 45.7539C280.411 45.7539 280.709 45.825 280.98 45.9613C281.226 46.1248 281.417 46.359 281.528 46.6332C281.639 46.9073 281.665 47.2086 281.602 47.4975L266.809 112.785C266.633 113.418 266.231 113.965 265.679 114.321L177.834 165.015C177.568 165.161 177.272 165.242 176.969 165.253C176.666 165.264 176.365 165.203 176.09 165.076V165.076Z" fill="white"/>
<path d="M191.928 99.1822L177.165 164.546C177.035 165.107 177.342 165.314 177.834 165.046L265.702 114.321C266.254 113.965 266.656 113.418 266.832 112.785L281.602 47.4209C281.725 46.8602 281.425 46.6528 280.926 46.9294L193.072 97.646C192.518 98.0028 192.111 98.5486 191.928 99.1822V99.1822Z" fill="#35B350"/>
<path opacity="0.6" d="M191.928 99.1822L177.165 164.546C177.035 165.107 177.342 165.314 177.834 165.046L265.702 114.321C266.254 113.965 266.656 113.418 266.832 112.785L281.602 47.4209C281.725 46.8602 281.425 46.6528 280.926 46.9294L193.072 97.646C192.518 98.0028 192.111 98.5486 191.928 99.1822V99.1822Z" fill="white"/>
<path opacity="0.05" d="M191.928 99.1822L177.165 164.546C177.035 165.107 177.342 165.314 177.834 165.046L265.702 114.321C266.254 113.965 266.656 113.418 266.832 112.785L281.602 47.4209C281.725 46.8602 281.425 46.6528 280.926 46.9294L193.072 97.646C192.518 98.0028 192.111 98.5486 191.928 99.1822V99.1822Z" fill="black"/>
<path d="M282.677 46.883C282.403 46.7507 282.101 46.6852 281.797 46.6919C281.493 46.6985 281.194 46.7772 280.926 46.9214L193.072 97.6458C192.816 97.8068 192.608 98.0352 192.473 98.3062C192.337 98.5771 192.279 98.8801 192.304 99.1819L203.826 180.146C203.881 180.455 203.998 180.749 204.168 181.013C204.338 181.276 204.558 181.504 204.816 181.682C205.088 181.818 205.388 181.89 205.692 181.89C205.996 181.89 206.296 181.818 206.568 181.682L294.46 130.919C294.715 130.757 294.921 130.528 295.057 130.258C295.192 129.987 295.251 129.685 295.228 129.383L283.706 48.4038C283.644 48.0948 283.521 47.8013 283.344 47.5402C283.168 47.2792 282.941 47.0558 282.677 46.883V46.883Z" fill="#35B350"/>
<path opacity="0.8" d="M282.677 46.883C282.403 46.7507 282.101 46.6852 281.797 46.6919C281.493 46.6985 281.194 46.7772 280.926 46.9214L193.072 97.6458C192.816 97.8068 192.608 98.0352 192.473 98.3062C192.337 98.5771 192.279 98.8801 192.304 99.1819L203.826 180.146C203.881 180.455 203.998 180.749 204.168 181.013C204.338 181.276 204.558 181.504 204.816 181.682C205.088 181.818 205.388 181.89 205.692 181.89C205.996 181.89 206.296 181.818 206.568 181.682L294.46 130.919C294.715 130.757 294.921 130.528 295.057 130.258C295.192 129.987 295.251 129.685 295.228 129.383L283.706 48.4038C283.644 48.0948 283.521 47.8013 283.344 47.5402C283.168 47.2792 282.941 47.0558 282.677 46.883V46.883Z" fill="white"/>
<path d="M194.002 100.173L205.523 181.137C205.526 181.258 205.562 181.375 205.628 181.477C205.693 181.578 205.785 181.66 205.893 181.713C206.002 181.766 206.123 181.789 206.243 181.778C206.363 181.767 206.478 181.723 206.575 181.652L294.46 130.92C294.715 130.757 294.921 130.529 295.057 130.258C295.192 129.987 295.251 129.685 295.228 129.383L283.706 48.4042C283.705 48.2829 283.669 48.1645 283.604 48.0623C283.539 47.9601 283.446 47.8781 283.337 47.8254C283.228 47.7728 283.106 47.7516 282.985 47.7643C282.865 47.777 282.75 47.823 282.654 47.8972L194.793 98.5909C194.525 98.7531 194.309 98.9877 194.169 99.2677C194.029 99.5477 193.971 99.8616 194.002 100.173V100.173Z" fill="#35B350"/>
<path opacity="0.95" d="M194.002 100.173L205.523 181.137C205.526 181.258 205.562 181.375 205.628 181.477C205.693 181.578 205.785 181.66 205.893 181.713C206.002 181.766 206.123 181.789 206.243 181.778C206.363 181.767 206.478 181.723 206.575 181.652L294.46 130.92C294.715 130.757 294.921 130.529 295.057 130.258C295.192 129.987 295.251 129.685 295.228 129.383L283.706 48.4042C283.705 48.2829 283.669 48.1645 283.604 48.0623C283.539 47.9601 283.446 47.8781 283.337 47.8254C283.228 47.7728 283.106 47.7516 282.985 47.7643C282.865 47.777 282.75 47.823 282.654 47.8972L194.793 98.5909C194.525 98.7531 194.309 98.9877 194.169 99.2677C194.029 99.5477 193.971 99.8616 194.002 100.173V100.173Z" fill="white"/>
<path d="M200.4 155.928L190.084 161.881C189.874 161.836 189.657 161.836 189.447 161.881L177.273 164.223L199.732 151.189L200.4 155.928Z" fill="#35B350"/>
<path opacity="0.5" d="M200.4 155.928L190.084 161.881C189.874 161.836 189.657 161.836 189.447 161.881L177.273 164.223L199.732 151.189L200.4 155.928Z" fill="white"/>
<path opacity="0.2" d="M200.4 155.928L190.084 161.881C189.874 161.836 189.657 161.836 189.447 161.881L177.273 164.223L199.732 151.189L200.4 155.928Z" fill="black"/>
<path d="M203.764 179.531L191.091 162.449C190.847 162.148 190.509 161.937 190.131 161.85L200.4 155.928L203.764 179.531Z" fill="#35B350"/>
<path opacity="0.6" d="M203.764 179.531L191.091 162.449C190.847 162.148 190.509 161.937 190.131 161.85L200.4 155.928L203.764 179.531Z" fill="white"/>
<path opacity="0.1" d="M203.764 179.531L191.091 162.449C190.847 162.148 190.509 161.937 190.131 161.85L200.4 155.928L203.764 179.531Z" fill="black"/>
<path d="M203.372 180.33L191.083 164.393C190.878 164.157 190.62 163.973 190.33 163.856C190.041 163.738 189.728 163.691 189.416 163.717L177.941 165.376C177.297 165.445 176.646 165.328 176.067 165.038C175.598 164.769 175.675 164.462 176.244 164.354L189.424 161.812C189.73 161.769 190.043 161.806 190.33 161.919C190.618 162.032 190.872 162.217 191.068 162.457L205.054 181.291C205.392 181.759 205.293 181.913 204.824 181.644C204.273 181.286 203.783 180.843 203.372 180.33Z" fill="#35B350"/>
<path opacity="0.8" d="M203.372 180.33L191.083 164.393C190.878 164.157 190.62 163.973 190.33 163.856C190.041 163.738 189.728 163.691 189.416 163.717L177.941 165.376C177.297 165.445 176.646 165.328 176.067 165.038C175.598 164.769 175.675 164.462 176.244 164.354L189.424 161.812C189.73 161.769 190.043 161.806 190.33 161.919C190.618 162.032 190.872 162.217 191.068 162.457L205.054 181.291C205.392 181.759 205.293 181.913 204.824 181.644C204.273 181.286 203.783 180.843 203.372 180.33Z" fill="white"/>
<path d="M281.625 47.0906C281.624 46.8563 281.565 46.6258 281.454 46.4195C281.343 46.2132 281.182 46.0375 280.987 45.9077C280.716 45.7713 280.416 45.7002 280.112 45.7002C279.808 45.7002 279.508 45.7713 279.236 45.9077L191.367 96.6551C190.821 97.0176 190.421 97.5619 190.238 98.1913L188.157 107.408L189.846 108.384L279.513 56.6148L281.602 47.3978C281.612 47.2905 281.612 47.1825 281.602 47.0752L281.625 47.0906Z" fill="#35B350"/>
<path opacity="0.6" d="M281.602 47.4131C281.725 46.8524 281.425 46.645 280.926 46.9215L193.072 97.6459C192.521 98.004 192.117 98.5496 191.936 99.1821L189.854 108.399L279.52 56.6301L281.602 47.4131Z" fill="black"/>
<path opacity="0.5" d="M192.373 98.2911C192.167 98.5544 192.018 98.8579 191.936 99.1821L189.846 108.399L188.157 107.408L190.238 98.1913C190.325 97.8673 190.477 97.5642 190.684 97.3003L192.373 98.2911Z" fill="black"/>
<path opacity="0.2" d="M281.625 47.0905C281.586 46.7756 281.31 46.6911 280.926 46.9216L193.072 97.6459C192.801 97.8122 192.566 98.0317 192.381 98.2911L190.691 97.3156C190.875 97.0583 191.107 96.8392 191.375 96.6704L279.236 45.9614C279.508 45.825 279.808 45.7539 280.112 45.7539C280.416 45.7539 280.716 45.825 280.987 45.9614C281.175 46.086 281.331 46.2533 281.442 46.4495C281.552 46.6457 281.615 46.8654 281.625 47.0905V47.0905Z" fill="black"/>
<path d="M283.776 49.1798L283.668 48.4117V48.2965C283.523 47.7378 283.183 47.2498 282.708 46.9216C282.434 46.7893 282.132 46.7238 281.828 46.7304C281.523 46.7371 281.225 46.8158 280.957 46.96L193.072 97.646C192.804 97.809 192.592 98.0502 192.466 98.3372V98.3372C192.332 98.6031 192.279 98.9019 192.312 99.1975L193.971 110.796L195.661 111.779L285.335 60.0098L283.776 49.1798Z" fill="#35B350"/>
<path opacity="0.4" d="M285.327 60.01L195.653 111.779L194.002 100.173C193.966 99.8783 194.017 99.5795 194.148 99.3129C194.281 99.0301 194.491 98.7906 194.754 98.6216L282.623 47.928C282.706 47.8636 282.803 47.8205 282.906 47.8025C283.009 47.7845 283.115 47.7921 283.215 47.8248C283.314 47.8574 283.404 47.914 283.476 47.9896C283.549 48.0653 283.601 48.1575 283.63 48.2583V48.266V48.3812L283.737 49.1493L285.327 60.01Z" fill="black"/>
<path opacity="0.5" d="M195.653 111.779L193.963 110.796L192.304 99.1977C192.271 98.9021 192.324 98.6032 192.458 98.3374L194.155 99.3129C194.022 99.5787 193.969 99.8775 194.002 100.173L195.653 111.779Z" fill="black"/>
<path opacity="0.3" d="M283.637 48.2657C283.613 48.1611 283.564 48.0641 283.492 47.9839C283.421 47.9036 283.331 47.8427 283.229 47.8067C283.128 47.7707 283.02 47.7608 282.914 47.7779C282.808 47.7951 282.708 47.8387 282.623 47.9047L194.754 98.5983C194.489 98.7626 194.28 99.0037 194.155 99.2896L192.458 98.3142C192.585 98.0272 192.797 97.7859 193.065 97.6229L280.926 46.9293C281.194 46.785 281.493 46.7064 281.797 46.6997C282.101 46.693 282.403 46.7585 282.677 46.8909C283.159 47.2123 283.501 47.7031 283.637 48.2657V48.2657Z" fill="black"/>
<g opacity="0.2">
<path d="M202.059 100.265C202.021 99.7156 202.135 99.1662 202.386 98.6762C202.638 98.1863 203.019 97.7743 203.488 97.4848C204.425 96.9471 205.293 97.3158 205.439 98.3143C205.476 98.8648 205.362 99.415 205.109 99.9052C204.856 100.395 204.473 100.807 204.002 101.095C203.835 101.236 203.631 101.328 203.415 101.36C203.198 101.393 202.977 101.365 202.775 101.279C202.574 101.193 202.4 101.052 202.273 100.873C202.147 100.694 202.073 100.484 202.059 100.265Z" fill="black"/>
<path d="M213.91 93.429C213.871 92.8783 213.984 92.3274 214.238 91.8369C214.491 91.3464 214.875 90.9352 215.347 90.6486C216.276 90.1032 217.152 90.4796 217.29 91.4704C217.329 92.0213 217.216 92.5723 216.965 93.0637C216.713 93.5552 216.331 93.9684 215.861 94.2586C214.924 94.7962 214.049 94.4275 213.91 93.429Z" fill="black"/>
<path d="M225.747 86.5934C225.707 86.0435 225.82 85.4935 226.072 85.0032C226.324 84.5129 226.705 84.1012 227.175 83.8129C228.112 83.2752 228.98 83.6439 229.126 84.6424C229.158 85.1921 229.041 85.7401 228.789 86.2292C228.536 86.7184 228.157 87.1306 227.69 87.4229C226.761 87.9605 225.885 87.5919 225.747 86.5934Z" fill="black"/>
<path d="M249.427 72.9215C249.388 72.3717 249.5 71.8216 249.752 71.3313C250.004 70.841 250.386 70.4293 250.855 70.141C251.792 69.6034 252.66 69.972 252.806 70.9705C252.843 71.5209 252.729 72.0708 252.475 72.5609C252.222 73.0509 251.84 73.4624 251.37 73.751C250.441 74.2887 249.565 73.92 249.427 72.9215Z" fill="black"/>
<path d="M261.278 66.0777C261.239 65.527 261.352 64.9761 261.606 64.4856C261.859 63.9951 262.243 63.5839 262.715 63.2973C263.644 62.7596 264.52 63.1283 264.658 64.1268C264.697 64.6766 264.585 65.2267 264.333 65.717C264.081 66.2073 263.699 66.619 263.229 66.9073C262.292 67.468 261.432 67.0762 261.278 66.0777Z" fill="black"/>
<path d="M273.114 59.2418C273.077 58.6922 273.19 58.1428 273.442 57.6528C273.694 57.1628 274.074 56.7509 274.543 56.4613C275.48 55.9237 276.348 56.2923 276.494 57.2909C276.532 57.8413 276.418 58.3916 276.164 58.8818C275.911 59.372 275.528 59.7834 275.058 60.0713C274.128 60.609 273.253 60.2403 273.114 59.2418Z" fill="black"/>
</g>
<path d="M205.646 96.7014C205.647 97.044 205.616 97.386 205.554 97.7229C205.519 97.8967 205.476 98.0684 205.423 98.2376C205.216 99.0275 204.709 99.7054 204.01 100.127C203.555 100.39 203.037 100.525 202.512 100.519H202.097L202.051 100.296C202.005 99.8312 202.082 99.3623 202.274 98.9365C202.598 98.9849 202.929 98.9284 203.219 98.7752C203.447 98.6004 203.634 98.3778 203.766 98.123C203.899 97.8683 203.974 97.5875 203.987 97.3005C203.99 97.275 203.99 97.2492 203.987 97.2237C203.996 97.0574 203.996 96.8907 203.987 96.7244C203.915 95.1031 203.365 93.5394 202.405 92.2311C202.074 91.7627 201.699 91.3279 201.283 90.9331C200.939 90.6105 200.561 90.3271 200.154 90.0882C199.843 89.8576 199.478 89.7092 199.094 89.6568C198.71 89.6045 198.319 89.6498 197.957 89.7886C197.651 90.0279 197.412 90.3427 197.264 90.7023C197.116 91.0618 197.063 91.4537 197.112 91.8394C197.118 92.3106 197.177 92.7797 197.289 93.2373L195.868 94.0592V93.967C195.668 93.2753 195.562 92.5596 195.553 91.8394C195.494 91.1734 195.615 90.5036 195.904 89.9007C196.194 89.2978 196.64 88.7841 197.197 88.4138C198.249 87.807 199.586 87.9145 200.984 88.7133C201.629 89.0954 202.217 89.5688 202.727 90.1189C203.122 90.5294 203.479 90.9741 203.795 91.4477C204.904 92.9845 205.547 94.8086 205.646 96.7014V96.7014Z" fill="#37474F"/>
<path d="M217.497 89.8576C217.499 90.2003 217.468 90.5423 217.405 90.8792C217.377 91.0585 217.336 91.2356 217.282 91.4092C217.067 92.1932 216.558 92.8643 215.861 93.2833C215.406 93.546 214.889 93.6813 214.364 93.675H213.957C213.933 93.6027 213.918 93.528 213.91 93.4523C213.858 92.988 213.932 92.5182 214.126 92.0928C214.45 92.1411 214.781 92.0846 215.07 91.9315C215.3 91.7586 215.489 91.5364 215.621 91.2812C215.754 91.026 215.829 90.7443 215.838 90.4567C215.842 90.4338 215.842 90.4105 215.838 90.3876C215.851 90.2189 215.851 90.0494 215.838 89.8807C215.692 87.6802 214.728 85.6142 213.135 84.0893C212.792 83.7649 212.413 83.4814 212.006 83.2444C211.694 83.0151 211.329 82.8681 210.945 82.8171C210.561 82.7661 210.17 82.8127 209.809 82.9526C209.503 83.1906 209.264 83.5041 209.116 83.8623C208.968 84.2205 208.916 84.6111 208.964 84.9957C208.969 85.4669 209.028 85.9359 209.141 86.3936L207.72 87.2154V87.1233C207.522 86.4312 207.418 85.7155 207.412 84.9957C207.352 84.3304 207.472 83.6611 207.76 83.0583C208.048 82.4554 208.493 81.9413 209.048 81.57C210.101 80.9632 211.445 81.0708 212.835 81.8696C213.481 82.2516 214.068 82.7251 214.579 83.2752C214.97 83.6888 215.327 84.1332 215.646 84.6039C216.759 86.1391 217.402 87.9641 217.497 89.8576V89.8576Z" fill="#37474F"/>
<path d="M229.326 83.0215C229.325 83.3663 229.297 83.7104 229.241 84.0507C229.21 84.2275 229.166 84.402 229.111 84.573C228.906 85.3601 228.398 86.0341 227.698 86.4471C227.243 86.7121 226.726 86.8501 226.2 86.8465C226.064 86.858 225.928 86.858 225.793 86.8465C225.769 86.7742 225.754 86.6995 225.747 86.6238C225.694 86.1595 225.769 85.6897 225.962 85.2643C226.283 85.3178 226.614 85.261 226.899 85.103C227.129 84.9304 227.318 84.7083 227.451 84.4531C227.584 84.1978 227.658 83.9159 227.667 83.6282C227.671 83.6054 227.671 83.582 227.667 83.5591C227.68 83.3904 227.68 83.2209 227.667 83.0522C227.592 81.434 227.041 79.8738 226.085 78.5666C225.756 78.0966 225.381 77.6616 224.963 77.2685C224.619 76.9435 224.241 76.6576 223.834 76.4159C223.522 76.1866 223.157 76.0396 222.773 75.9886C222.389 75.9376 221.999 75.9842 221.637 76.1241C221.33 76.3628 221.091 76.6776 220.943 77.0373C220.794 77.3969 220.743 77.789 220.793 78.1748C220.798 78.6461 220.857 79.1151 220.969 79.5728L219.541 80.3946V80.2948C219.341 79.6055 219.235 78.8924 219.226 78.1748C219.226 76.5695 219.809 75.356 220.862 74.7492C221.914 74.1424 223.258 74.2422 224.648 75.0487C225.295 75.4298 225.885 75.9004 226.4 76.4467C226.79 76.8603 227.147 77.3047 227.467 77.7754C228.578 79.309 229.224 81.1304 229.326 83.0215V83.0215Z" fill="#37474F"/>
<path d="M252.983 69.3726C252.986 69.715 252.958 70.0569 252.899 70.3941C252.864 70.5729 252.82 70.7498 252.768 70.9241C252.553 71.7082 252.044 72.3793 251.347 72.7982C250.894 73.0582 250.379 73.1933 249.857 73.19C249.721 73.2017 249.585 73.2017 249.45 73.19C249.424 73.1126 249.406 73.0329 249.396 72.9519C249.346 72.4934 249.417 72.0297 249.603 71.6077C249.929 71.6601 250.263 71.6062 250.556 71.4541C250.799 71.2772 250.999 71.0466 251.138 70.7802C251.278 70.5138 251.355 70.2187 251.362 69.9179C251.358 69.9003 251.358 69.8818 251.362 69.8642C251.371 69.6978 251.371 69.5312 251.362 69.3649C251.288 67.7382 250.735 66.1697 249.772 64.8562C249.442 64.3858 249.063 63.9508 248.643 63.5582C248.304 63.2412 247.93 62.963 247.53 62.7286C247.218 62.498 246.854 62.3497 246.47 62.2973C246.086 62.245 245.695 62.2903 245.333 62.4291C245.029 62.6702 244.792 62.9856 244.646 63.3448C244.499 63.704 244.447 64.0949 244.496 64.4799C244.498 64.9432 244.555 65.4046 244.665 65.8547L243.305 66.6996V66.6228C243.105 65.9336 242.999 65.2205 242.99 64.5029C242.99 62.8976 243.574 61.684 244.626 61.0773C245.226 60.7821 245.894 60.6542 246.561 60.7069C247.227 60.7596 247.867 60.991 248.413 61.3768C249.058 61.751 249.643 62.2196 250.149 62.7671C250.542 63.1809 250.901 63.6252 251.224 64.0958C252.303 65.6501 252.914 67.4816 252.983 69.3726Z" fill="#37474F"/>
<path d="M264.873 62.5293C264.874 62.8745 264.843 63.219 264.781 63.5585C264.742 63.7429 264.704 63.9119 264.65 64.0885C264.444 64.8728 263.936 65.5437 263.237 65.955C262.771 66.2244 262.239 66.3599 261.701 66.3467C261.565 66.3543 261.429 66.3543 261.294 66.3467C261.268 66.2667 261.25 66.1844 261.24 66.1009C261.188 65.6449 261.26 65.1833 261.447 64.7644C261.774 64.8185 262.109 64.7617 262.4 64.6031C262.644 64.4275 262.845 64.1971 262.985 63.9305C263.125 63.6638 263.201 63.3681 263.206 63.067C263.21 63.0493 263.21 63.0309 263.206 63.0132C263.215 62.8469 263.215 62.6802 263.206 62.5139C263.134 60.8879 262.578 59.3205 261.609 58.013C261.28 57.5407 260.904 57.1032 260.487 56.7072C260.146 56.392 259.773 56.1139 259.373 55.8777C259.061 55.6483 258.696 55.5013 258.312 55.4503C257.929 55.3993 257.538 55.4459 257.177 55.5858C256.868 55.8235 256.628 56.1381 256.48 56.4981C256.331 56.8581 256.28 57.2507 256.332 57.6366C256.339 58.0971 256.395 58.5555 256.501 59.0038L255.08 59.8333V59.7565C254.88 59.0673 254.774 58.3542 254.765 57.6366C254.765 56.0313 255.349 54.81 256.409 54.2109C257.469 53.6118 258.805 53.704 260.188 54.5028C260.851 54.8922 261.451 55.379 261.97 55.9468V55.9468C262.363 56.3603 262.723 56.8047 263.045 57.2756C264.147 58.8147 264.781 60.6388 264.873 62.5293V62.5293Z" fill="#37474F"/>
<path d="M276.701 55.6932C276.702 56.0384 276.671 56.3829 276.609 56.7224C276.577 56.896 276.536 57.0678 276.486 57.2371C276.275 58.0272 275.766 58.7046 275.065 59.1266C274.609 59.3841 274.092 59.5166 273.568 59.5106H273.168C273.142 59.4307 273.124 59.3483 273.114 59.2648C273.064 58.8088 273.136 58.3476 273.322 57.9283C273.648 57.9784 273.982 57.9218 274.274 57.767C274.511 57.587 274.704 57.3548 274.837 57.0884C274.97 56.8221 275.041 56.5287 275.042 56.2309C275.046 56.2157 275.046 56.1999 275.042 56.1848C275.055 56.016 275.055 55.8466 275.042 55.6778C274.972 54.0528 274.418 52.4857 273.452 51.1769C273.121 50.7067 272.743 50.2717 272.323 49.8788C271.987 49.5589 271.616 49.278 271.217 49.0416C270.905 48.8122 270.54 48.6653 270.156 48.6142C269.772 48.5632 269.382 48.6098 269.021 48.7497C268.712 48.9875 268.472 49.3021 268.324 49.662C268.175 50.022 268.124 50.4146 268.176 50.8005C268.178 51.2638 268.235 51.7252 268.345 52.1754L266.916 52.9972V52.9204C266.716 52.2312 266.61 51.5181 266.601 50.8005C266.601 49.1952 267.185 47.9816 268.237 47.3748C268.837 47.0802 269.504 46.9519 270.17 47.0032C270.836 47.0546 271.477 47.2837 272.024 47.6667C272.664 48.0441 273.246 48.5124 273.752 49.057C274.149 49.4696 274.509 49.9168 274.827 50.3934C275.955 51.9398 276.606 53.7818 276.701 55.6932V55.6932Z" fill="#37474F"/>
<path d="M197.612 125.412L287.27 73.6894L285.327 60.0098L195.653 111.74L197.612 125.412Z" fill="#35B350"/>
<g opacity="0.65">
<path d="M197.612 125.412L287.27 73.6894L285.327 60.0098L195.653 111.74L197.612 125.412Z" fill="white"/>
</g>
<path d="M204.678 128.73C204.793 129.498 205.492 129.744 206.214 129.306L212.943 125.466C213.315 125.246 213.62 124.929 213.826 124.549C214.032 124.169 214.13 123.739 214.11 123.308C214.003 122.54 213.304 122.294 212.574 122.732L205.846 126.572C205.474 126.792 205.169 127.11 204.964 127.49C204.758 127.87 204.659 128.299 204.678 128.73V128.73Z" fill="#35B350"/>
<path d="M216.03 122.179C216.138 122.947 216.837 123.192 217.567 122.755L224.295 118.914C224.669 118.696 224.977 118.379 225.184 117.999C225.391 117.619 225.49 117.189 225.47 116.756C225.363 115.988 224.702 115.742 223.934 116.18L217.206 120.02C216.831 120.238 216.524 120.555 216.317 120.935C216.11 121.316 216.011 121.746 216.03 122.179V122.179Z" fill="#35B350"/>
<path d="M227.383 115.627C227.49 116.395 228.189 116.641 228.919 116.203L235.647 112.362C236.021 112.144 236.327 111.827 236.533 111.446C236.739 111.066 236.836 110.636 236.815 110.204C236.707 109.436 236.008 109.19 235.279 109.628L228.55 113.468C228.177 113.688 227.872 114.005 227.666 114.385C227.46 114.765 227.362 115.195 227.383 115.627V115.627Z" fill="#35B350"/>
<path d="M238.727 109.075C238.835 109.843 239.534 110.089 240.264 109.651L246.992 105.765C247.365 105.547 247.671 105.232 247.876 104.853C248.082 104.474 248.18 104.045 248.159 103.614C248.052 102.846 247.353 102.6 246.623 103.03L239.926 106.917C239.546 107.131 239.234 107.446 239.023 107.827C238.811 108.208 238.709 108.64 238.727 109.075V109.075Z" fill="#35B350"/>
<path d="M250.08 102.516C250.187 103.284 250.848 103.53 251.616 103.099L258.344 99.213C258.717 98.9953 259.024 98.68 259.231 98.3011C259.438 97.9221 259.538 97.4938 259.519 97.0623C259.412 96.2942 258.713 96.0485 257.983 96.4786L251.255 100.365C250.881 100.582 250.574 100.897 250.367 101.276C250.16 101.656 250.06 102.084 250.08 102.516V102.516Z" fill="#35B350"/>
<path d="M261.432 95.964C261.539 96.7321 262.238 96.9779 262.968 96.5477L269.697 92.6612C270.069 92.442 270.375 92.125 270.581 91.7447C270.787 91.3643 270.885 90.9349 270.864 90.5029C270.756 89.7348 270.058 89.489 269.328 89.9269L262.599 93.8134C262.227 94.0314 261.922 94.3469 261.716 94.726C261.51 95.1051 261.412 95.5332 261.432 95.964Z" fill="#35B350"/>
<path d="M272.777 89.4119C272.884 90.18 273.583 90.4258 274.313 89.988L281.041 86.1476C281.416 85.93 281.724 85.6136 281.931 85.233C282.138 84.8524 282.237 84.4221 282.216 83.9892C282.109 83.2212 281.448 82.9754 280.68 83.4132L273.952 87.2997C273.583 87.513 273.28 87.8219 273.073 88.1938C272.866 88.5657 272.764 88.9866 272.777 89.4119V89.4119Z" fill="#35B350"/>
<g opacity="0.17">
<path d="M289.697 128.807C289.612 128.815 289.526 128.791 289.457 128.74C289.388 128.689 289.339 128.615 289.321 128.531L283.837 90.2492C283.834 90.2087 283.839 90.1679 283.853 90.1296C283.866 90.0913 283.888 90.0565 283.917 90.0273C283.945 89.9982 283.979 89.9755 284.017 89.9608C284.055 89.9461 284.096 89.9397 284.137 89.942C284.222 89.9372 284.308 89.962 284.377 90.0123C284.447 90.0627 284.498 90.1354 284.521 90.2185L289.997 128.5C290 128.54 289.995 128.581 289.981 128.619C289.967 128.658 289.946 128.693 289.917 128.722C289.889 128.751 289.855 128.774 289.817 128.788C289.779 128.803 289.738 128.809 289.697 128.807V128.807Z" fill="#35B350"/>
<path d="M278.33 135.366C278.244 135.374 278.159 135.35 278.089 135.299C278.02 135.248 277.972 135.174 277.953 135.09L272.469 96.8086C272.466 96.7681 272.471 96.7273 272.485 96.689C272.499 96.6507 272.521 96.6158 272.549 96.5867C272.577 96.5576 272.612 96.5349 272.65 96.5202C272.688 96.5054 272.728 96.499 272.769 96.5014C272.854 96.4938 272.94 96.5177 273.009 96.5686C273.079 96.6195 273.127 96.6939 273.145 96.7779L278.645 135.059C278.648 135.101 278.643 135.143 278.628 135.183C278.613 135.222 278.59 135.258 278.56 135.287C278.53 135.317 278.494 135.339 278.454 135.353C278.414 135.367 278.372 135.371 278.33 135.366V135.366Z" fill="#35B350"/>
<path d="M266.993 141.918C266.907 141.925 266.821 141.9 266.751 141.85C266.68 141.799 266.63 141.726 266.609 141.642L261.132 103.36C261.129 103.321 261.134 103.281 261.148 103.243C261.161 103.205 261.182 103.171 261.21 103.142C261.237 103.113 261.27 103.09 261.307 103.074C261.344 103.059 261.384 103.052 261.424 103.053C261.511 103.045 261.597 103.069 261.668 103.12C261.738 103.171 261.788 103.245 261.808 103.33L267.292 141.611C267.296 141.652 267.29 141.692 267.277 141.731C267.263 141.769 267.241 141.804 267.213 141.833C267.184 141.862 267.15 141.885 267.112 141.9C267.074 141.914 267.033 141.921 266.993 141.918V141.918Z" fill="#35B350"/>
<path d="M255.641 148.478C255.553 148.484 255.467 148.459 255.396 148.406C255.326 148.354 255.276 148.279 255.256 148.194L249.772 109.912C249.77 109.872 249.776 109.833 249.791 109.795C249.805 109.758 249.827 109.724 249.855 109.696C249.883 109.667 249.917 109.645 249.955 109.631C249.992 109.617 250.032 109.611 250.072 109.613C250.159 109.605 250.245 109.629 250.316 109.679C250.386 109.73 250.436 109.805 250.456 109.889L255.932 148.171C255.936 148.211 255.93 148.251 255.917 148.288C255.904 148.326 255.883 148.361 255.855 148.39C255.828 148.419 255.794 148.441 255.757 148.457C255.72 148.472 255.681 148.479 255.641 148.478V148.478Z" fill="#35B350"/>
<path d="M244.288 155.03C244.202 155.038 244.115 155.014 244.045 154.963C243.974 154.912 243.924 154.838 243.904 154.753L238.389 116.472C238.386 116.431 238.391 116.39 238.405 116.352C238.419 116.314 238.441 116.279 238.469 116.25C238.497 116.221 238.532 116.198 238.57 116.183C238.608 116.169 238.648 116.162 238.689 116.165C238.775 116.158 238.861 116.183 238.931 116.233C239.001 116.284 239.052 116.357 239.073 116.441L244.549 154.722C244.553 154.76 244.548 154.797 244.537 154.833C244.525 154.869 244.507 154.902 244.483 154.93C244.458 154.959 244.429 154.982 244.395 154.999C244.362 155.016 244.326 155.027 244.288 155.03Z" fill="#35B350"/>
<path d="M232.928 161.589C232.842 161.595 232.756 161.569 232.687 161.517C232.618 161.465 232.57 161.39 232.552 161.305L227.068 123.024C227.068 122.862 227.175 122.732 227.367 122.724C227.453 122.716 227.538 122.74 227.608 122.791C227.677 122.842 227.725 122.917 227.744 123.001L233.228 161.282C233.231 161.322 233.226 161.363 233.212 161.402C233.198 161.44 233.176 161.475 233.148 161.504C233.12 161.533 233.085 161.556 233.047 161.57C233.01 161.585 232.969 161.591 232.928 161.589V161.589Z" fill="#35B350"/>
<path d="M221.576 168.141C221.49 168.147 221.404 168.123 221.334 168.072C221.264 168.022 221.213 167.948 221.192 167.864L215.715 129.583C215.712 129.542 215.717 129.502 215.731 129.463C215.745 129.425 215.767 129.39 215.795 129.361C215.824 129.332 215.858 129.309 215.896 129.295C215.934 129.28 215.974 129.273 216.015 129.276C216.101 129.268 216.186 129.292 216.255 129.343C216.325 129.394 216.373 129.468 216.391 129.552L221.876 167.834C221.879 167.874 221.873 167.915 221.86 167.953C221.846 167.992 221.824 168.026 221.796 168.056C221.767 168.085 221.733 168.107 221.695 168.122C221.657 168.137 221.617 168.143 221.576 168.141Z" fill="#35B350"/>
<path d="M210.224 174.693C210.137 174.7 210.051 174.677 209.98 174.626C209.909 174.575 209.86 174.501 209.84 174.416L204.355 136.135C204.353 136.094 204.36 136.054 204.374 136.016C204.388 135.979 204.41 135.944 204.438 135.916C204.466 135.887 204.5 135.864 204.537 135.849C204.575 135.834 204.615 135.826 204.655 135.828C204.742 135.822 204.829 135.847 204.899 135.899C204.97 135.951 205.019 136.026 205.039 136.112L210.523 174.393C210.525 174.433 210.519 174.473 210.505 174.51C210.491 174.548 210.469 174.582 210.44 174.61C210.412 174.638 210.378 174.66 210.341 174.674C210.304 174.689 210.264 174.695 210.224 174.693V174.693Z" fill="#35B350"/>
<path d="M206.13 145.981C206.071 145.987 206.011 145.978 205.956 145.956C205.901 145.933 205.853 145.897 205.815 145.851C205.788 145.823 205.767 145.789 205.755 145.751C205.743 145.714 205.74 145.674 205.746 145.636C205.752 145.597 205.767 145.56 205.79 145.528C205.812 145.496 205.842 145.47 205.876 145.451L285.358 99.5583C285.436 99.5179 285.525 99.5051 285.612 99.5218C285.698 99.5385 285.776 99.5838 285.834 99.6504C285.861 99.6791 285.881 99.7136 285.892 99.7512C285.903 99.7889 285.906 99.8287 285.899 99.8674C285.892 99.9062 285.877 99.9428 285.854 99.9745C285.83 100.006 285.8 100.032 285.765 100.05L206.276 145.935C206.231 145.962 206.181 145.978 206.13 145.981V145.981Z" fill="#35B350"/>
<path d="M207.482 155.552C207.423 155.556 207.364 155.546 207.309 155.524C207.254 155.501 207.206 155.466 207.167 155.421C207.14 155.393 207.12 155.358 207.109 155.321C207.097 155.283 207.095 155.243 207.102 155.204C207.108 155.166 207.124 155.129 207.147 155.097C207.17 155.066 207.201 155.04 207.236 155.022L286.71 109.129C286.789 109.088 286.88 109.075 286.967 109.092C287.055 109.108 287.135 109.154 287.194 109.221C287.219 109.25 287.238 109.285 287.248 109.322C287.259 109.36 287.261 109.399 287.254 109.437C287.247 109.476 287.232 109.512 287.21 109.543C287.187 109.575 287.158 109.602 287.124 109.62L207.666 155.506C207.611 155.541 207.546 155.557 207.482 155.552V155.552Z" fill="#35B350"/>
<path d="M208.849 165.122C208.79 165.126 208.731 165.116 208.676 165.094C208.621 165.071 208.573 165.036 208.534 164.991C208.507 164.962 208.487 164.927 208.476 164.889C208.464 164.85 208.462 164.81 208.469 164.771C208.475 164.732 208.491 164.694 208.514 164.662C208.538 164.63 208.568 164.603 208.603 164.584L288.084 118.699C288.163 118.659 288.252 118.646 288.339 118.662C288.425 118.679 288.503 118.724 288.561 118.791C288.588 118.82 288.608 118.854 288.619 118.892C288.63 118.93 288.633 118.969 288.626 119.008C288.619 119.047 288.604 119.083 288.58 119.115C288.557 119.147 288.527 119.173 288.492 119.19L209.018 165.076C208.967 165.106 208.908 165.122 208.849 165.122V165.122Z" fill="#35B350"/>
<path d="M210.224 174.692C210.166 174.708 210.105 174.708 210.047 174.692C209.994 174.674 209.946 174.641 209.91 174.598C209.873 174.555 209.849 174.502 209.84 174.447L204.356 136.165C204.351 136.113 204.362 136.061 204.387 136.015C204.411 135.968 204.448 135.93 204.494 135.904L283.968 90.0187C284.021 89.9923 284.08 89.9785 284.14 89.9785C284.2 89.9785 284.259 89.9923 284.313 90.0187C284.365 90.0385 284.41 90.0705 284.446 90.112C284.483 90.1535 284.508 90.2032 284.521 90.2568L289.997 128.538C290.004 128.59 289.995 128.642 289.972 128.689C289.948 128.735 289.912 128.774 289.866 128.799L210.385 174.646C210.337 174.678 210.281 174.694 210.224 174.692ZM205.062 136.288L210.439 173.924L289.29 128.4L283.914 90.7637L205.062 136.288Z" fill="#35B350"/>
</g>
<g opacity="0.17">
<path d="M289.697 128.807C289.612 128.815 289.526 128.791 289.457 128.74C289.388 128.689 289.339 128.615 289.321 128.531L283.837 90.2492C283.834 90.2087 283.839 90.1679 283.853 90.1296C283.866 90.0913 283.888 90.0565 283.917 90.0273C283.945 89.9982 283.979 89.9755 284.017 89.9608C284.055 89.9461 284.096 89.9397 284.137 89.942C284.222 89.9372 284.308 89.962 284.377 90.0123C284.447 90.0627 284.498 90.1354 284.521 90.2185L289.997 128.5C290 128.54 289.995 128.581 289.981 128.619C289.967 128.658 289.946 128.693 289.917 128.722C289.889 128.751 289.855 128.774 289.817 128.788C289.779 128.803 289.738 128.809 289.697 128.807V128.807Z" fill="black"/>
<path d="M278.33 135.366C278.244 135.374 278.159 135.35 278.089 135.299C278.02 135.248 277.972 135.174 277.953 135.09L272.469 96.8086C272.466 96.7681 272.471 96.7273 272.485 96.689C272.499 96.6507 272.521 96.6158 272.549 96.5867C272.577 96.5576 272.612 96.5349 272.65 96.5202C272.688 96.5054 272.728 96.499 272.769 96.5014C272.854 96.4938 272.94 96.5177 273.009 96.5686C273.079 96.6195 273.127 96.6939 273.145 96.7779L278.645 135.059C278.648 135.101 278.643 135.143 278.628 135.183C278.613 135.222 278.59 135.258 278.56 135.287C278.53 135.317 278.494 135.339 278.454 135.353C278.414 135.367 278.372 135.371 278.33 135.366V135.366Z" fill="black"/>
<path d="M266.993 141.918C266.907 141.925 266.821 141.9 266.751 141.85C266.68 141.799 266.63 141.726 266.609 141.642L261.132 103.36C261.129 103.321 261.134 103.281 261.148 103.243C261.161 103.205 261.182 103.171 261.21 103.142C261.237 103.113 261.27 103.09 261.307 103.074C261.344 103.059 261.384 103.052 261.424 103.053C261.511 103.045 261.597 103.069 261.668 103.12C261.738 103.171 261.788 103.245 261.808 103.33L267.292 141.611C267.296 141.652 267.29 141.692 267.277 141.731C267.263 141.769 267.241 141.804 267.213 141.833C267.184 141.862 267.15 141.885 267.112 141.9C267.074 141.914 267.033 141.921 266.993 141.918V141.918Z" fill="black"/>
<path d="M255.641 148.478C255.553 148.484 255.467 148.459 255.396 148.406C255.326 148.354 255.276 148.279 255.256 148.194L249.772 109.912C249.77 109.872 249.776 109.833 249.791 109.795C249.805 109.758 249.827 109.724 249.855 109.696C249.883 109.667 249.917 109.645 249.955 109.631C249.992 109.617 250.032 109.611 250.072 109.613C250.159 109.605 250.245 109.629 250.316 109.679C250.386 109.73 250.436 109.805 250.456 109.889L255.932 148.171C255.936 148.211 255.93 148.251 255.917 148.288C255.904 148.326 255.883 148.361 255.855 148.39C255.828 148.419 255.794 148.441 255.757 148.457C255.72 148.472 255.681 148.479 255.641 148.478V148.478Z" fill="black"/>
<path d="M244.288 155.03C244.202 155.038 244.115 155.014 244.045 154.963C243.974 154.912 243.924 154.838 243.904 154.753L238.389 116.472C238.386 116.431 238.391 116.39 238.405 116.352C238.419 116.314 238.441 116.279 238.469 116.25C238.497 116.221 238.532 116.198 238.57 116.183C238.608 116.169 238.648 116.162 238.689 116.165C238.775 116.158 238.861 116.183 238.931 116.233C239.001 116.284 239.052 116.357 239.073 116.441L244.549 154.722C244.553 154.76 244.548 154.797 244.537 154.833C244.525 154.869 244.507 154.902 244.483 154.93C244.458 154.959 244.429 154.982 244.395 154.999C244.362 155.016 244.326 155.027 244.288 155.03Z" fill="black"/>
<path d="M232.928 161.589C232.842 161.595 232.756 161.569 232.687 161.517C232.618 161.465 232.57 161.39 232.552 161.305L227.068 123.024C227.068 122.862 227.175 122.732 227.367 122.724C227.453 122.716 227.538 122.74 227.608 122.791C227.677 122.842 227.725 122.917 227.744 123.001L233.228 161.282C233.231 161.322 233.226 161.363 233.212 161.402C233.198 161.44 233.176 161.475 233.148 161.504C233.12 161.533 233.085 161.556 233.047 161.57C233.01 161.585 232.969 161.591 232.928 161.589V161.589Z" fill="black"/>
<path d="M221.576 168.141C221.49 168.147 221.404 168.123 221.334 168.072C221.264 168.022 221.213 167.948 221.192 167.864L215.715 129.583C215.712 129.542 215.717 129.502 215.731 129.463C215.745 129.425 215.767 129.39 215.795 129.361C215.824 129.332 215.858 129.309 215.896 129.295C215.934 129.28 215.974 129.273 216.015 129.276C216.101 129.268 216.186 129.292 216.255 129.343C216.325 129.394 216.373 129.468 216.391 129.552L221.876 167.834C221.879 167.874 221.873 167.915 221.86 167.953C221.846 167.992 221.824 168.026 221.796 168.056C221.767 168.085 221.733 168.107 221.695 168.122C221.657 168.137 221.617 168.143 221.576 168.141Z" fill="black"/>
<path d="M210.224 174.693C210.137 174.7 210.051 174.677 209.98 174.626C209.909 174.575 209.86 174.501 209.84 174.416L204.355 136.135C204.353 136.094 204.36 136.054 204.374 136.016C204.388 135.979 204.41 135.944 204.438 135.916C204.466 135.887 204.5 135.864 204.537 135.849C204.575 135.834 204.615 135.826 204.655 135.828C204.742 135.822 204.829 135.847 204.899 135.899C204.97 135.951 205.019 136.026 205.039 136.112L210.523 174.393C210.525 174.433 210.519 174.473 210.505 174.51C210.491 174.548 210.469 174.582 210.44 174.61C210.412 174.638 210.378 174.66 210.341 174.674C210.304 174.689 210.264 174.695 210.224 174.693V174.693Z" fill="black"/>
<path d="M206.13 145.981C206.071 145.987 206.011 145.978 205.956 145.956C205.901 145.933 205.853 145.897 205.815 145.851C205.788 145.823 205.767 145.789 205.755 145.751C205.743 145.714 205.74 145.674 205.746 145.636C205.752 145.597 205.767 145.56 205.79 145.528C205.812 145.496 205.842 145.47 205.876 145.451L285.358 99.5583C285.436 99.5179 285.525 99.5051 285.612 99.5218C285.698 99.5385 285.776 99.5838 285.834 99.6504C285.861 99.6791 285.881 99.7136 285.892 99.7512C285.903 99.7889 285.906 99.8287 285.899 99.8674C285.892 99.9062 285.877 99.9428 285.854 99.9745C285.83 100.006 285.8 100.032 285.765 100.05L206.276 145.935C206.231 145.962 206.181 145.978 206.13 145.981V145.981Z" fill="black"/>
<path d="M207.482 155.552C207.423 155.556 207.364 155.546 207.309 155.524C207.254 155.501 207.206 155.466 207.167 155.421C207.14 155.393 207.12 155.358 207.109 155.321C207.097 155.283 207.095 155.243 207.102 155.204C207.108 155.166 207.124 155.129 207.147 155.097C207.17 155.066 207.201 155.04 207.236 155.022L286.71 109.129C286.789 109.088 286.88 109.075 286.967 109.092C287.055 109.108 287.135 109.154 287.194 109.221C287.219 109.25 287.238 109.285 287.248 109.322C287.259 109.36 287.261 109.399 287.254 109.437C287.247 109.476 287.232 109.512 287.21 109.543C287.187 109.575 287.158 109.602 287.124 109.62L207.666 155.506C207.611 155.541 207.546 155.557 207.482 155.552V155.552Z" fill="black"/>
<path d="M208.849 165.122C208.79 165.126 208.731 165.116 208.676 165.094C208.621 165.071 208.573 165.036 208.534 164.991C208.507 164.962 208.487 164.927 208.476 164.889C208.464 164.85 208.462 164.81 208.469 164.771C208.475 164.732 208.491 164.694 208.514 164.662C208.538 164.63 208.568 164.603 208.603 164.584L288.084 118.699C288.163 118.659 288.252 118.646 288.339 118.662C288.425 118.679 288.503 118.724 288.561 118.791C288.588 118.82 288.608 118.854 288.619 118.892C288.63 118.93 288.633 118.969 288.626 119.008C288.619 119.047 288.604 119.083 288.58 119.115C288.557 119.147 288.527 119.173 288.492 119.19L209.018 165.076C208.967 165.106 208.908 165.122 208.849 165.122V165.122Z" fill="black"/>
<path d="M210.224 174.692C210.166 174.708 210.105 174.708 210.047 174.692C209.994 174.674 209.946 174.641 209.91 174.598C209.873 174.555 209.849 174.502 209.84 174.447L204.356 136.165C204.351 136.113 204.362 136.061 204.387 136.015C204.411 135.968 204.448 135.93 204.494 135.904L283.968 90.0187C284.021 89.9923 284.08 89.9785 284.14 89.9785C284.2 89.9785 284.259 89.9923 284.313 90.0187C284.365 90.0385 284.41 90.0705 284.446 90.112C284.483 90.1535 284.508 90.2032 284.521 90.2568L289.997 128.538C290.004 128.59 289.995 128.642 289.972 128.689C289.948 128.735 289.912 128.774 289.866 128.799L210.385 174.646C210.337 174.678 210.281 174.694 210.224 174.692ZM205.062 136.288L210.439 173.924L289.29 128.4L283.914 90.7637L205.062 136.288Z" fill="black"/>
</g>
<path d="M230.117 100.403C230.119 100.882 230.059 101.36 229.94 101.824C229.833 102.253 229.67 102.666 229.457 103.053C229.267 103.411 229.029 103.742 228.75 104.036C228.5 104.299 228.216 104.526 227.905 104.712C227.637 104.88 227.335 104.987 227.022 105.027C226.782 105.056 226.54 105.008 226.33 104.889C226.117 104.75 225.955 104.545 225.87 104.305C225.747 103.981 225.687 103.637 225.693 103.291C225.693 103.22 225.709 103.149 225.739 103.084C225.76 103.026 225.801 102.977 225.854 102.946L226.807 102.393C226.899 102.339 226.96 102.331 226.991 102.354C227.038 102.418 227.069 102.491 227.083 102.569C227.096 102.657 227.127 102.74 227.175 102.814C227.222 102.889 227.285 102.952 227.36 102.999C227.483 103.061 227.667 102.999 227.905 102.884C228.183 102.72 228.405 102.477 228.543 102.185C228.688 101.851 228.759 101.489 228.75 101.125V97.93L226.215 99.3971C226.195 99.4139 226.169 99.4231 226.142 99.4231C226.116 99.4231 226.09 99.4139 226.069 99.3971C226.028 99.345 226.009 99.2788 226.016 99.2127V97.9991C226.015 97.9142 226.033 97.8302 226.069 97.7533C226.099 97.681 226.15 97.6193 226.215 97.5767L229.94 95.426C229.96 95.4098 229.984 95.4009 230.01 95.4009C230.035 95.4009 230.059 95.4098 230.079 95.426C230.102 95.4501 230.12 95.4792 230.131 95.5112C230.141 95.5431 230.144 95.577 230.14 95.6104L230.117 100.403Z" fill="#455A64"/>
<path d="M231.1 101.064C231.101 100.551 231.231 100.047 231.477 99.5969C231.79 99.0478 232.204 98.5631 232.698 98.1682L233.566 97.4385C233.58 97.3002 233.545 97.1613 233.466 97.0468C233.404 96.9623 233.289 96.97 233.136 97.0468C233.032 97.1021 232.94 97.1779 232.867 97.2696C232.819 97.3385 232.775 97.4103 232.736 97.4846C232.701 97.5518 232.657 97.6138 232.606 97.669C232.565 97.7108 232.518 97.7469 232.467 97.7765L231.523 98.3218C231.504 98.3334 231.483 98.3396 231.461 98.3396C231.439 98.3396 231.418 98.3334 231.4 98.3218C231.388 98.2966 231.382 98.269 231.382 98.2412C231.382 98.2133 231.388 98.1858 231.4 98.1605C231.415 97.9442 231.464 97.7315 231.546 97.5307C231.644 97.2635 231.767 97.0063 231.914 96.7626C232.075 96.5048 232.26 96.2631 232.467 96.0406C232.675 95.8212 232.913 95.6325 233.174 95.4799C233.406 95.3288 233.668 95.2317 233.942 95.1957C234.139 95.1735 234.338 95.2286 234.495 95.3493C234.656 95.491 234.768 95.6788 234.818 95.887C234.894 96.1672 234.93 96.4569 234.925 96.7473V100.211C234.924 100.297 234.903 100.381 234.864 100.457C234.837 100.529 234.789 100.59 234.726 100.634L233.789 101.171C233.769 101.188 233.745 101.197 233.719 101.197C233.694 101.197 233.67 101.188 233.65 101.171C233.628 101.146 233.612 101.117 233.601 101.085C233.591 101.054 233.586 101.02 233.589 100.987V100.672C233.471 100.945 233.321 101.202 233.143 101.44C232.953 101.682 232.719 101.886 232.452 102.039C232.281 102.148 232.086 102.213 231.884 102.231C231.733 102.238 231.586 102.189 231.469 102.093C231.345 101.979 231.255 101.833 231.208 101.671C231.147 101.474 231.111 101.27 231.1 101.064V101.064ZM232.79 100.342C232.909 100.277 233.014 100.188 233.097 100.081C233.194 99.9656 233.276 99.8392 233.343 99.7044C233.413 99.5648 233.467 99.418 233.504 99.2666C233.543 99.1159 233.563 98.9612 233.566 98.8057L232.882 99.3588C232.756 99.4672 232.647 99.5941 232.56 99.7351C232.479 99.8642 232.437 100.013 232.437 100.165C232.437 100.311 232.437 100.388 232.529 100.411C232.621 100.434 232.675 100.411 232.79 100.342Z" fill="#455A64"/>
<path d="M240.056 97.2697C240.058 97.358 240.037 97.4453 239.995 97.5231C239.968 97.5947 239.919 97.6563 239.856 97.6998L238.919 98.2374C238.9 98.2537 238.876 98.2626 238.85 98.2626C238.825 98.2626 238.8 98.2537 238.781 98.2374C238.759 98.2123 238.743 98.183 238.732 98.1514C238.721 98.1198 238.717 98.0864 238.72 98.0531V95.119C238.739 94.8759 238.686 94.6325 238.566 94.4201C238.459 94.2818 238.297 94.2818 238.074 94.4201C237.849 94.5515 237.678 94.7583 237.591 95.0038C237.481 95.2824 237.429 95.5802 237.437 95.8794V98.7674C237.435 98.8553 237.414 98.9418 237.375 99.0209C237.348 99.0925 237.3 99.1541 237.237 99.1976L236.3 99.7352C236.28 99.7521 236.254 99.7613 236.227 99.7613C236.201 99.7613 236.175 99.7521 236.154 99.7352C236.113 99.6832 236.094 99.617 236.1 99.5509V94.2204C236.1 94.133 236.118 94.0464 236.154 93.9669C236.186 93.8981 236.237 93.8395 236.3 93.7979L237.199 93.2756C237.218 93.2594 237.243 93.2505 237.268 93.2505C237.293 93.2505 237.318 93.2594 237.337 93.2756C237.359 93.2991 237.376 93.327 237.387 93.3574C237.397 93.3879 237.401 93.4202 237.399 93.4523V93.7211C237.437 93.6212 237.491 93.5137 237.544 93.3908C237.608 93.2706 237.68 93.1551 237.76 93.0452C237.848 92.9279 237.946 92.8174 238.051 92.7149C238.171 92.6056 238.302 92.5103 238.443 92.4307C238.64 92.3056 238.864 92.2293 239.096 92.208C239.189 92.1992 239.284 92.2104 239.372 92.2409C239.461 92.2713 239.542 92.3203 239.611 92.3846C239.772 92.5602 239.886 92.7745 239.941 93.0068C240.026 93.3664 240.065 93.7356 240.056 94.1051V97.2697Z" fill="#455A64"/>
<path d="M241.216 91.2783C241.219 91.193 241.24 91.1092 241.277 91.0325C241.304 90.961 241.353 90.8993 241.416 90.8559L242.353 90.3182C242.372 90.302 242.397 90.293 242.422 90.293C242.447 90.293 242.472 90.302 242.491 90.3182C242.513 90.3434 242.529 90.3726 242.54 90.4043C242.551 90.4359 242.555 90.4693 242.552 90.5026V93.3982C242.535 93.6419 242.583 93.8858 242.691 94.1049C242.79 94.2508 242.944 94.2585 243.159 94.1049C243.379 93.9816 243.545 93.7821 243.628 93.5442C243.724 93.2651 243.771 92.9714 243.766 92.6762V89.7806C243.765 89.6932 243.784 89.6066 243.82 89.5271C243.849 89.4568 243.9 89.3976 243.966 89.3581L244.903 88.8128C244.922 88.7965 244.947 88.7876 244.972 88.7876C244.997 88.7876 245.022 88.7965 245.041 88.8128C245.084 88.8612 245.106 88.9247 245.102 88.9894V94.3507C245.1 94.4386 245.079 94.525 245.041 94.6041C245.012 94.6746 244.964 94.7357 244.903 94.7808L244.035 95.2724C244.015 95.2886 243.991 95.2975 243.966 95.2975C243.94 95.2975 243.916 95.2886 243.897 95.2724C243.875 95.2472 243.858 95.2179 243.847 95.1863C243.837 95.1547 243.833 95.1213 243.835 95.088V94.8269C243.795 94.9404 243.746 95.0508 243.689 95.1572C243.631 95.2764 243.562 95.3896 243.482 95.4951C243.393 95.6124 243.295 95.7228 243.19 95.8254C243.068 95.9367 242.934 96.0346 242.79 96.1173C242.307 96.3938 241.93 96.4091 241.646 96.1173C241.283 95.6192 241.129 94.9992 241.216 94.3891V91.2783Z" fill="#455A64"/>
<path d="M246.07 92.4075C246.075 91.8976 246.204 91.3966 246.447 90.9481C246.763 90.4012 247.177 89.9169 247.668 89.5195L248.536 88.7514C248.548 88.6143 248.516 88.4769 248.444 88.3597C248.374 88.2752 248.267 88.2829 248.106 88.3597C248.003 88.4133 247.914 88.4894 247.844 88.5824C247.794 88.6515 247.748 88.7233 247.706 88.7975C247.674 88.8641 247.632 88.9261 247.583 88.9818C247.539 89.0237 247.49 89.0598 247.437 89.0893L246.493 89.6347C246.474 89.6463 246.453 89.6525 246.431 89.6525C246.409 89.6525 246.388 89.6463 246.37 89.6347C246.35 89.5827 246.35 89.5254 246.37 89.4734C246.387 89.2542 246.439 89.0391 246.523 88.8359C246.617 88.568 246.738 88.3105 246.884 88.0678C247.05 87.8117 247.238 87.5701 247.445 87.3458C247.649 87.1249 247.884 86.9359 248.144 86.7851C248.376 86.6358 248.639 86.5388 248.912 86.5009C249.109 86.4787 249.308 86.5338 249.465 86.6545C249.626 86.7962 249.738 86.984 249.788 87.1922C249.864 87.4724 249.9 87.762 249.895 88.0524V91.5165C249.894 91.6021 249.873 91.6862 249.834 91.7623C249.807 91.8361 249.755 91.8984 249.688 91.939L248.759 92.4766C248.697 92.4766 248.651 92.4766 248.613 92.4766C248.591 92.4514 248.574 92.4222 248.563 92.3906C248.553 92.3589 248.549 92.3255 248.551 92.2923V92.0465C248.438 92.32 248.291 92.5782 248.113 92.8146C247.923 93.0593 247.685 93.263 247.414 93.4137C247.243 93.5231 247.048 93.589 246.846 93.6057C246.696 93.6093 246.549 93.5604 246.431 93.4674C246.312 93.3504 246.225 93.205 246.178 93.045C246.111 92.8389 246.075 92.6241 246.07 92.4075V92.4075ZM247.768 91.6932C247.883 91.6261 247.985 91.5374 248.067 91.432C248.167 91.3188 248.249 91.1921 248.313 91.0557C248.382 90.9149 248.438 90.7684 248.482 90.6178C248.518 90.4643 248.536 90.3071 248.536 90.1493L247.852 90.71C247.726 90.8184 247.617 90.9453 247.53 91.0864C247.453 91.217 247.41 91.365 247.407 91.5165C247.407 91.6548 247.407 91.7393 247.499 91.7623C247.547 91.7716 247.597 91.7702 247.645 91.7583C247.693 91.7464 247.737 91.7241 247.775 91.6932H247.768Z" fill="#455A64"/>
<path d="M253.751 83.7132C253.77 83.6969 253.795 83.688 253.82 83.688C253.845 83.688 253.87 83.6969 253.889 83.7132C253.935 83.7132 253.951 83.8053 253.951 83.8898V85.0496C253.953 85.1356 253.932 85.2207 253.889 85.2954C253.862 85.367 253.814 85.4286 253.751 85.4721L253.075 85.8638C252.84 86.0186 252.651 86.2353 252.531 86.4899C252.41 86.7446 252.362 87.0276 252.392 87.3078V90.119C252.392 90.2064 252.374 90.2929 252.338 90.3725C252.306 90.4433 252.255 90.5042 252.192 90.5491L251.255 91.0868C251.235 91.103 251.211 91.1119 251.186 91.1119C251.16 91.1119 251.136 91.103 251.117 91.0868C251.095 91.0616 251.078 91.0324 251.067 91.0007C251.057 90.9691 251.053 90.9357 251.055 90.9024V85.5719C251.057 85.484 251.078 85.3976 251.117 85.3185C251.144 85.2489 251.192 85.1898 251.255 85.1495L252.115 84.6502C252.176 84.6502 252.223 84.6502 252.261 84.6502C252.283 84.6754 252.3 84.7046 252.31 84.7363C252.321 84.7679 252.325 84.8013 252.322 84.8346V85.1341C252.431 84.9033 252.568 84.6867 252.73 84.4889C252.888 84.2893 253.084 84.1223 253.306 83.9974L253.751 83.7132Z" fill="#455A64"/>
<path d="M256.869 89.7426C256.852 89.8185 256.829 89.893 256.8 89.9653C256.771 90.0379 256.72 90.0997 256.654 90.142L255.687 90.7027C255.668 90.7183 255.645 90.727 255.621 90.727C255.597 90.727 255.574 90.7183 255.556 90.7027C255.518 90.655 255.499 90.5947 255.502 90.5337C255.502 90.5337 255.502 90.4799 255.502 90.4492L256.071 88.0758L254.581 83.5979C254.576 83.5725 254.576 83.5465 254.581 83.5211C254.581 83.4445 254.597 83.3688 254.627 83.2983C254.655 83.2362 254.701 83.1831 254.757 83.1447L255.725 82.584C255.745 82.5657 255.771 82.5555 255.798 82.5555C255.825 82.5555 255.851 82.5657 255.871 82.584C255.904 82.6283 255.93 82.6776 255.948 82.7299L256.77 85.2262L257.584 81.7775C257.6 81.7004 257.626 81.6256 257.661 81.5548C257.687 81.483 257.736 81.4212 257.799 81.3781L258.782 80.8174C258.799 80.8023 258.821 80.7939 258.843 80.7939C258.866 80.7939 258.888 80.8023 258.905 80.8174C258.925 80.8404 258.94 80.8673 258.949 80.8963C258.959 80.9254 258.962 80.9561 258.959 80.9864C258.962 81.0144 258.962 81.0429 258.959 81.0709L256.869 89.7426Z" fill="#455A64"/>
<path d="M280.565 105.572L281.233 106.517C281.252 106.545 281.28 106.565 281.312 106.575C281.344 106.585 281.379 106.583 281.41 106.571L282.539 106.133C282.716 106.064 282.823 106.286 282.723 106.509L282.063 107.922C282.03 108.009 282.03 108.105 282.063 108.191L282.447 109.428C282.508 109.628 282.347 109.896 282.178 109.889L281.103 109.82C281.062 109.82 281.022 109.83 280.987 109.85C280.952 109.871 280.923 109.9 280.903 109.935L280.012 111.133C279.866 111.325 279.666 111.271 279.659 111.041V109.582C279.662 109.542 279.654 109.503 279.637 109.468C279.619 109.433 279.592 109.403 279.559 109.382L278.629 108.89C278.483 108.813 278.514 108.506 278.683 108.376L279.758 107.538C279.828 107.478 279.876 107.397 279.897 107.308L280.212 105.772C280.227 105.557 280.457 105.426 280.565 105.572Z" fill="#F28F8F"/>
<path d="M287.117 105.204C287.006 104.444 286.674 103.733 286.161 103.161C285.649 102.588 284.98 102.18 284.236 101.985C282.086 101.44 280.565 102.915 279.451 104.144C279.159 104.474 279.789 104.597 280.027 104.367C281.195 103.237 283.491 102.062 285.12 103.445C286.748 104.827 286.31 106.955 285.811 108.545C285.335 110.046 284.394 111.357 283.123 112.287C281.853 113.218 280.319 113.721 278.745 113.722C270.987 113.545 277.639 101.609 282.093 100.764C282.454 100.695 282.639 100.196 282.139 100.15C279.835 99.9193 278.422 101.74 277.178 103.122C275.809 104.597 274.795 106.365 274.213 108.291C273.191 111.855 276.064 116.057 280.841 114.49C285.027 113.115 287.954 109.252 287.117 105.204Z" fill="#F28F8F"/>
<path d="M232.176 147.395C232.065 146.635 231.732 145.924 231.22 145.352C230.708 144.779 230.038 144.371 229.295 144.176C227.145 143.631 225.624 145.098 224.51 146.335C224.218 146.657 224.848 146.78 225.086 146.558C226.254 145.428 228.55 144.253 230.179 145.636C231.807 147.018 231.369 149.146 230.87 150.736C230.394 152.237 229.452 153.548 228.182 154.478C226.912 155.409 225.378 155.912 223.803 155.913C216.046 155.736 222.697 143.8 227.152 142.955C227.513 142.886 227.698 142.387 227.198 142.333C224.894 142.11 223.481 143.931 222.237 145.313C220.866 146.787 219.852 148.555 219.272 150.482C218.25 154.039 221.123 158.248 225.9 156.681C230.086 155.306 233.013 151.435 232.176 147.395Z" fill="#F28F8F"/>
<path d="M219.682 36.8279L218.699 31.1133L213.606 34.4699C213.138 33.5536 212.475 32.7513 211.663 32.1195L214.106 25.5217L209.566 24.5078L206.21 30.8983C204.995 31.1057 203.819 31.4968 202.723 32.0581L201.271 27.2422L195.833 31.5128L196.194 37.1889C195.083 38.4282 194.076 39.7563 193.183 41.1599L188.69 40.9141L185.54 47.9728L189.381 49.6165C188.978 51.0802 188.721 52.5802 188.613 54.0945L183.712 58.5954L184.696 64.3023L189.796 60.9535C190.258 61.871 190.919 62.6739 191.731 63.3038L189.289 69.894L193.828 70.9078L198.629 66.2302C199.735 66.0612 199.466 63.972 200.672 63.3883L202.123 68.1965L207.561 63.9259L207.423 61.6908C208.522 60.4696 212.677 57.7736 213.568 56.3603L214.689 54.5015L217.877 47.4198L216.41 44.7622L214.805 41.3289L219.682 36.8279ZM203.076 55.6383C198.913 58.918 197.638 59.6323 196.885 55.2543C196.132 50.8762 198.567 44.1938 202.738 40.9141C206.909 37.6344 208.506 37.3963 209.259 41.7744C210.012 46.1525 207.247 52.3586 203.076 55.6383Z" fill="#E0E0E0"/>
<path d="M209.566 24.5078L215.503 27.9335L212.155 34.3239L206.21 30.8983L209.566 24.5078Z" fill="#F5F5F5"/>
<path d="M224.636 34.5389L219.544 37.8955L213.606 34.4698L218.699 31.1133L224.636 34.5389Z" fill="#F5F5F5"/>
<path d="M223.814 50.8687L219.958 49.225L214.021 45.7993L217.877 47.443L223.814 50.8687Z" fill="#E0E0E0"/>
<path d="M189.319 69.8939L195.257 73.3195L197.699 66.7294L191.762 63.3037L189.319 69.8939Z" fill="#E0E0E0"/>
<path d="M208.091 71.6224L202.154 68.1968L200.702 63.3809L206.64 66.8065L208.091 71.6224Z" fill="#E0E0E0"/>
<path d="M225.619 40.2462L224.636 34.5393L219.544 37.8958C219.076 36.9774 218.412 36.1725 217.6 35.5378L220.043 28.986L215.503 27.9722L212.155 34.3626C210.941 34.5493 209.762 34.9197 208.66 35.461L207.208 30.6451L201.747 34.9157L202.108 40.5918C200.996 41.8295 199.989 43.1578 199.097 44.5628L194.635 44.3477L191.485 51.4064L195.326 53.0501C194.923 54.5138 194.666 56.0138 194.558 57.5281L189.68 62.0137L190.664 67.7206L195.764 64.364C196.225 65.2844 196.887 66.09 197.699 66.7221L195.257 73.3122L199.796 74.3261L203.153 67.9356C204.366 67.7354 205.542 67.3522 206.64 66.7989L208.091 71.6148L213.529 67.3442L213.176 61.6681C214.283 60.4282 215.288 59.1001 216.179 57.6971L220.665 57.9198L223.814 50.8611L219.974 49.2174C220.377 47.7537 220.634 46.2538 220.742 44.7395L225.619 40.2462ZM209.013 59.0643C204.85 62.344 200.856 61.4453 200.103 57.0672C199.351 52.6891 202.116 46.483 206.286 43.2417C210.457 40.0004 214.443 40.8606 215.204 45.2387C215.964 49.6168 213.184 55.7845 209.013 59.0643Z" fill="#EBEBEB"/>
<path d="M207.208 30.6449L201.271 27.2192L195.833 31.4898L201.77 34.9155L207.208 30.6449Z" fill="#F5F5F5"/>
<path d="M195.833 31.4897L196.194 37.1659L202.131 40.5916L201.77 34.9154L195.833 31.4897Z" fill="#E0E0E0"/>
<path d="M199.12 44.5625L193.183 41.1368L188.697 40.9141L194.635 44.3397L199.12 44.5625Z" fill="#F5F5F5"/>
<path d="M188.697 40.9141L185.548 47.9728L191.485 51.3984L194.635 44.3397L188.697 40.9141Z" fill="#E0E0E0"/>
<path d="M194.581 57.5204L188.644 54.0947L183.743 58.5957L189.688 62.0214L194.581 57.5204Z" fill="#F5F5F5"/>
<path d="M190.664 67.7282L184.726 64.3026L183.743 58.5957L189.688 62.0214L190.664 67.7282Z" fill="#E0E0E0"/>
<path d="M215.503 27.9335L209.566 24.5078L214.106 25.5217L220.043 28.9473L215.503 27.9335Z" fill="#F5F5F5"/>
<path d="M172.56 25.1452V16.6117L165.77 19.6841C165.416 18.2383 164.796 16.871 163.942 15.6516L168.212 7.02603L162.997 4.01514L157.636 12.0109C156.15 11.8807 154.653 12.0266 153.219 12.441L152.451 5.03669L145.07 9.29956L144.302 17.5642C142.696 18.9836 141.221 20.5439 139.893 22.2264L134.563 20.3677L129.34 29.408L133.618 33.0948C132.83 35.0864 132.216 37.1422 131.782 39.2395L125 44.017V52.5428L131.782 49.4704C132.143 50.9178 132.765 52.2871 133.618 53.5105L129.34 62.1285L134.563 65.1394L139.893 57.1282C141.377 57.2581 142.872 57.1123 144.302 56.6981L145.07 64.1024L152.451 59.8396L153.219 51.575C155.526 50.7422 157.57 49.3107 159.141 47.4273L162.982 48.7715L168.182 39.7388L164.979 36.9737C165.747 34.9382 165.862 31.6816 165.747 29.8996L172.56 25.1452ZM148.788 46.4211C143.119 49.6932 139.571 47.3735 139.571 40.8371C139.571 34.3007 144.248 26.2435 149.917 23.0099C155.585 19.7762 159.011 22.1189 159.011 28.663C159.011 35.2071 154.448 43.1568 148.788 46.4211Z" fill="#E0E0E0"/>
<path d="M168.904 7.42566L162.959 4L157.636 12.0111L163.573 15.4368L168.904 7.42566Z" fill="#F5F5F5"/>
<path d="M178.466 20.0375L172.529 16.6118L165.739 19.6688L171.677 23.0945L178.466 20.0375Z" fill="#F5F5F5"/>
<path d="M151.03 67.5512L145.093 64.1255L144.348 56.7212L150.285 60.1469L151.03 67.5512Z" fill="#E0E0E0"/>
<path d="M129.386 62.1516L135.323 65.5773L139.601 56.9517L133.664 53.5337L129.386 62.1516Z" fill="#E0E0E0"/>
<path d="M178.466 28.5635V20.0377L171.677 23.1101C171.322 21.662 170.702 20.2922 169.848 19.07L174.096 10.4367L168.881 7.42578L163.573 15.4369C162.087 15.3067 160.59 15.4526 159.157 15.867L158.389 8.46269L151.053 12.7256L150.285 20.9902C148.68 22.4096 147.204 23.9699 145.877 25.6524L140.546 23.7937L135.323 32.8264L139.601 36.5132C138.814 38.5047 138.199 40.5606 137.766 42.6578L130.983 47.42V55.9457L137.766 52.8734C138.126 54.3184 138.748 55.6852 139.601 56.9058L135.323 65.5314L140.546 68.5423L145.877 60.5312C147.36 60.6611 148.855 60.5153 150.285 60.1011L151.053 67.5054L158.435 63.2425L159.203 54.9779C160.809 53.5566 162.287 51.9965 163.619 50.3157L168.95 52.1744L174.096 43.1801L169.825 39.4933C170.614 37.5028 171.226 35.4466 171.653 33.3487L178.466 28.5635ZM154.725 49.8471C149.056 53.1192 144.471 50.4693 144.471 43.9252C144.471 37.3811 149.079 29.4314 154.725 26.1594C160.37 22.8873 164.979 25.5449 164.979 32.0813C164.979 38.6177 160.386 46.5751 154.725 49.8471Z" fill="#EBEBEB"/>
<path d="M139.939 22.2264L145.877 25.6521L140.546 23.7933L134.609 20.3677L139.939 22.2264Z" fill="#F5F5F5"/>
<path d="M134.596 20.3637L129.382 29.4062L135.317 32.8288L140.532 23.7862L134.596 20.3637Z" fill="#F5F5F5"/>
<path d="M129.386 29.4082L135.323 32.8339L139.601 36.5207L133.664 33.095L129.386 29.4082Z" fill="#E0E0E0"/>
<path d="M131.828 39.2476L137.766 42.6732L130.983 47.4507L125.046 44.025L131.828 39.2476Z" fill="#F5F5F5"/>
<path d="M125.046 44.0249L130.983 47.4506V55.9763L125.046 52.5506V44.0249Z" fill="#E0E0E0"/>
<path d="M158.412 8.46277L152.474 5.03711L145.093 9.29998L151.03 12.7256L158.412 8.46277Z" fill="#F5F5F5"/>
<path d="M189.7 227.23C189.702 227.431 189.646 227.628 189.539 227.799C188.729 228.954 187.658 229.901 186.413 230.564C182.573 232.737 177.088 233.313 172.365 232.323L125.696 259.267L125.78 259.413L126.548 259.29V261.94C126.548 263.937 125.22 265.942 122.547 267.455C117.262 270.466 108.721 270.427 103.537 267.37L103.199 267.163C103.141 267.123 103.094 267.071 103.061 267.009C103.027 266.948 103.009 266.879 103.007 266.81V264.313L115.158 265.012L116.932 261.31L115.941 260.726L112.27 258.576L100.902 260.196C100.831 260.206 100.758 260.201 100.689 260.18C100.62 260.16 100.556 260.125 100.501 260.077C100.446 260.03 100.403 259.972 100.372 259.906C100.342 259.841 100.326 259.769 100.326 259.697V256.917L103.613 256.371C103.613 256.371 112.938 253.614 117.669 254.612L164.331 227.668C163.791 226.845 163.51 225.879 163.524 224.895V222.268L164.231 222.522C165.038 221.224 166.175 220.164 167.526 219.449C172.818 216.439 187.058 217.299 187.058 217.299V219.895C187.059 219.955 187.037 220.013 186.997 220.059C186.958 220.104 186.903 220.133 186.843 220.141L174.915 221.892L174.147 223.52L173.148 225.594L177.818 228.329L189.416 224.158L189.7 224.657V227.23Z" fill="#37474F"/>
<path d="M116.894 258.629L115.903 260.703L112.231 258.553L100.902 260.196C100.831 260.206 100.758 260.201 100.689 260.18C100.62 260.16 100.556 260.124 100.501 260.077C100.446 260.03 100.403 259.972 100.372 259.906C100.342 259.84 100.326 259.769 100.326 259.697V256.917L112.208 255.895L116.894 258.629Z" fill="#263238"/>
<path d="M174.93 219.265L187.074 217.306V219.925C187.074 219.986 187.052 220.044 187.013 220.089C186.973 220.134 186.918 220.164 186.859 220.171L174.93 221.922L174.162 223.551L173.171 222.967L174.93 219.265Z" fill="#263238"/>
<path d="M172.365 232.299V229.642L125.696 256.586V259.244L172.365 232.299Z" fill="#37474F"/>
<path d="M103.644 253.714C102.363 254.392 101.266 255.373 100.449 256.571C100.385 256.672 100.352 256.789 100.352 256.909C100.353 257.028 100.387 257.145 100.451 257.246C100.516 257.347 100.608 257.427 100.716 257.477C100.824 257.528 100.945 257.546 101.063 257.531L112.231 255.895L116.894 258.629L115.119 262.339L103.429 264.052C102.991 264.113 102.845 264.29 103.076 264.436L103.498 264.697C108.714 267.77 117.224 267.77 122.508 264.782C126.387 262.577 127.447 259.351 125.696 256.586L172.334 229.642C177.058 230.64 182.557 230.064 186.382 227.891C187.659 227.208 188.752 226.228 189.57 225.033C189.634 224.932 189.668 224.814 189.667 224.693C189.667 224.573 189.632 224.455 189.566 224.354C189.501 224.253 189.408 224.173 189.298 224.123C189.188 224.073 189.067 224.056 188.948 224.073L177.826 225.694L173.164 222.959L174.93 219.25L186.628 217.537C187.043 217.475 187.189 217.291 186.974 217.153L186.551 216.892C181.344 213.819 172.833 213.819 167.541 216.807C163.701 219.011 162.61 222.237 164.354 225.003L117.692 251.962C112.961 250.964 107.469 251.54 103.644 253.714Z" fill="#455A64"/>
<path d="M245.909 192.912L285.273 215.524L341.628 182.988L302.263 160.375L245.909 192.912Z" fill="#455A64"/>
<path d="M285.634 214.172L247.376 192.066C248.159 189.819 248.103 187.189 247.207 184.178L285.243 206.084C285.243 206.084 285.849 208.027 285.634 214.172Z" fill="#F5F5F5"/>
<path d="M283.706 203.619C284.55 204.171 285.253 204.915 285.757 205.788C286.261 206.662 286.553 207.642 286.61 208.649V214.525C286.61 216.376 285.304 217.129 283.706 216.207L245.878 194.371V192.911L283.299 214.418C284.267 214.971 285.043 214.525 285.043 213.412V207.966C285.011 207.361 284.836 206.772 284.533 206.247C284.23 205.723 283.807 205.277 283.299 204.947L245.909 183.441V181.79L283.706 203.619Z" fill="#263238"/>
<path d="M245.909 181.789L302.263 149.253L340.084 171.082C340.929 171.634 341.632 172.377 342.137 173.251C342.641 174.125 342.933 175.106 342.987 176.113V181.997C343.025 182.357 342.966 182.721 342.816 183.05C342.667 183.38 342.431 183.663 342.135 183.871L285.788 216.407C286.082 216.197 286.315 215.913 286.463 215.584C286.612 215.255 286.67 214.892 286.633 214.533V208.649C286.579 207.642 286.288 206.661 285.783 205.786C285.279 204.912 284.575 204.169 283.729 203.618L245.909 181.789Z" fill="#455A64"/>
<path d="M285.788 205.785C286.313 206.651 286.607 207.637 286.64 208.65V214.533C286.678 214.892 286.619 215.255 286.471 215.584C286.322 215.914 286.089 216.198 285.796 216.407L342.142 183.871C342.439 183.663 342.674 183.38 342.824 183.05C342.974 182.721 343.033 182.357 342.995 181.997V176.114C342.961 175.104 342.667 174.12 342.142 173.256L285.788 205.785Z" fill="#37474F"/>
<path d="M258.636 179.339L289.974 197.313L341.743 167.426L310.405 149.453L258.636 179.339Z" fill="#35B350"/>
<path opacity="0.35" d="M258.636 179.339L289.974 197.313L341.743 167.426L310.405 149.453L258.636 179.339Z" fill="black"/>
<path d="M290.327 195.946L260.095 178.495C260.889 176.242 260.835 173.612 259.934 170.606L289.974 187.873C289.974 187.873 290.542 189.778 290.327 195.946Z" fill="#EBEBEB"/>
<path d="M290.327 195.946L260.095 178.495C260.889 176.242 260.835 173.612 259.934 170.606L289.974 187.873C289.974 187.873 290.542 189.778 290.327 195.946Z" fill="#F5F5F5"/>
<path d="M288.43 185.415C289.277 185.965 289.981 186.708 290.486 187.582C290.99 188.457 291.281 189.438 291.333 190.446V196.322C291.333 198.173 290.035 198.926 288.43 197.996L258.636 180.799V179.34L288.031 196.238C288.991 196.791 289.767 196.337 289.767 195.231V189.786C289.735 189.181 289.56 188.592 289.257 188.067C288.954 187.542 288.531 187.097 288.023 186.767L258.659 169.869V168.218L288.43 185.415Z" fill="#35B350"/>
<path opacity="0.25" d="M288.43 185.415C289.277 185.965 289.981 186.708 290.486 187.582C290.99 188.457 291.281 189.438 291.333 190.446V196.322C291.333 198.173 290.035 198.926 288.43 197.996L258.636 180.799V179.34L288.031 196.238C288.991 196.791 289.767 196.337 289.767 195.231V189.786C289.735 189.181 289.56 188.592 289.257 188.067C288.954 187.542 288.531 187.097 288.023 186.767L258.659 169.869V168.218L288.43 185.415Z" fill="black"/>
<path d="M258.636 168.218L310.405 138.324L340.199 155.521C341.043 156.074 341.745 156.817 342.25 157.691C342.754 158.565 343.046 159.545 343.102 160.552V166.436C343.141 166.796 343.082 167.159 342.932 167.489C342.782 167.819 342.546 168.102 342.25 168.31L290.481 198.204C290.776 197.993 291.011 197.708 291.16 197.377C291.31 197.047 291.37 196.683 291.333 196.322V190.438C291.279 189.431 290.988 188.45 290.483 187.576C289.979 186.702 289.275 185.959 288.43 185.407L258.636 168.218Z" fill="#35B350"/>
<path opacity="0.15" d="M290.489 187.581C291.008 188.446 291.299 189.43 291.333 190.438V196.322C291.37 196.683 291.31 197.047 291.16 197.377C291.011 197.708 290.776 197.993 290.481 198.204L342.25 168.31C342.546 168.102 342.782 167.819 342.932 167.489C343.082 167.159 343.141 166.796 343.102 166.436V160.552C343.065 159.543 342.772 158.56 342.25 157.695L290.489 187.581Z" fill="black"/>
<path d="M291.833 248.836V250.141C291.821 250.366 291.757 250.585 291.645 250.78C291.533 250.975 291.376 251.14 291.187 251.263L218.726 293.1C218.525 293.199 218.305 293.25 218.081 293.25C217.857 293.25 217.637 293.199 217.436 293.1L165.529 263.145C165.34 263.023 165.183 262.857 165.071 262.662C164.959 262.467 164.895 262.248 164.883 262.024V260.726C164.895 260.501 164.959 260.282 165.071 260.087C165.183 259.892 165.34 259.727 165.529 259.604L237.99 217.767C238.189 217.664 238.411 217.611 238.635 217.611C238.859 217.611 239.081 217.664 239.28 217.767L291.187 247.722C291.375 247.843 291.532 248.008 291.644 248.201C291.756 248.395 291.821 248.612 291.833 248.836V248.836Z" fill="#35B350"/>
<path opacity="0.4" d="M165.421 259.65C165.16 259.858 165.183 260.15 165.513 260.334L217.421 290.289C217.618 290.398 217.841 290.451 218.066 290.443V293.285C217.841 293.288 217.62 293.235 217.421 293.131L165.513 263.176C165.325 263.053 165.168 262.888 165.056 262.693C164.944 262.498 164.879 262.279 164.868 262.055V260.756C164.872 260.543 164.924 260.332 165.02 260.141C165.115 259.949 165.253 259.782 165.421 259.65Z" fill="white"/>
<path opacity="0.15" d="M291.295 247.799L291.349 247.845L291.441 247.937C291.612 248.135 291.724 248.377 291.764 248.636C291.771 248.687 291.771 248.739 291.764 248.79V250.095C291.749 250.319 291.684 250.537 291.572 250.732C291.46 250.926 291.305 251.092 291.118 251.217L218.726 293.1C218.527 293.204 218.306 293.257 218.081 293.254V290.458C218.306 290.469 218.53 290.416 218.726 290.305L291.195 248.467C291.302 248.414 291.387 248.324 291.433 248.214C291.456 248.154 291.461 248.088 291.448 248.025C291.434 247.963 291.402 247.905 291.357 247.86C291.34 247.836 291.319 247.815 291.295 247.799V247.799Z" fill="black"/>
<path d="M272.185 229.326C272.185 228.843 271.893 228.359 271.11 227.905C270.405 227.511 269.613 227.299 268.806 227.291H268.606C266.586 227.291 264.481 228.228 262.692 228.489H262.615C260.103 228.835 258.774 228.051 257.545 227.929C257.346 227.918 257.146 227.918 256.946 227.929C256.67 227.929 256.401 227.929 256.101 227.929C255.011 228.008 253.915 227.985 252.829 227.859C251.961 227.767 251.293 227.721 250.84 227.713H250.679C250.172 227.664 249.663 227.762 249.212 227.998L246.308 229.68V230.64L268.06 243.206L270.964 241.524C271.129 241.448 271.266 241.322 271.355 241.163C271.443 241.004 271.478 240.821 271.455 240.64V239.688C271.44 239.268 271.359 238.854 271.217 238.459C271.143 238.223 271.087 237.982 271.048 237.737C271.095 237.512 271.126 237.283 271.141 237.053C271.141 236.938 271.141 236.285 271.141 236.07C271.141 235.955 271.123 235.841 271.087 235.732C270.948 235.241 270.265 234.726 270.042 233.989C270.067 233.9 270.098 233.813 270.134 233.728C270.587 232.683 272.216 231.423 272.216 230.294C272.185 230.148 272.185 229.534 272.185 229.326ZM267.715 232.107C267.224 232.388 266.693 232.592 266.14 232.714C265.158 232.985 264.112 232.903 263.183 232.483C262.967 232.364 262.787 232.189 262.661 231.976C262.931 231.489 263.34 231.093 263.836 230.84C265.039 230.146 266.46 229.932 267.815 230.24C268.005 230.291 268.189 230.366 268.36 230.463C268.576 230.583 268.757 230.758 268.882 230.97C268.626 231.455 268.23 231.851 267.746 232.107H267.715Z" fill="#263238"/>
<path d="M249.212 227.998L246.308 229.68L268.06 242.238L270.964 240.563C271.333 240.348 271.732 240.056 271.217 238.459C270.703 236.861 271.317 236.462 271.087 235.732C270.856 235.002 269.497 234.234 270.134 232.76C270.772 231.285 273.798 229.434 271.141 227.898C270.436 227.503 269.644 227.292 268.836 227.283H268.637C266.616 227.283 264.512 228.22 262.722 228.481H262.645C260.134 228.827 258.805 228.044 257.576 227.921C257.377 227.91 257.177 227.91 256.977 227.921C256.701 227.921 256.432 227.921 256.132 227.921C255.042 228 253.946 227.977 252.86 227.852C251.992 227.759 251.324 227.713 250.871 227.706H250.679C250.172 227.658 249.662 227.76 249.212 227.998ZM267.154 239.258C267.332 239.148 267.533 239.082 267.741 239.063C267.949 239.045 268.158 239.074 268.352 239.15C268.637 239.319 268.552 239.626 268.176 239.849C267.998 239.955 267.798 240.019 267.592 240.037C267.386 240.054 267.178 240.024 266.985 239.949C266.693 239.788 266.809 239.519 267.154 239.265V239.258ZM263.867 229.864C265.071 229.174 266.491 228.96 267.845 229.265C268.036 229.315 268.219 229.39 268.391 229.488C269.458 230.11 269.159 231.277 267.746 232.107C267.253 232.382 266.722 232.584 266.171 232.706C265.189 232.977 264.142 232.895 263.214 232.475C262.146 231.838 262.438 230.693 263.867 229.872V229.864ZM250.371 229.564C250.549 229.458 250.749 229.394 250.955 229.377C251.162 229.359 251.369 229.389 251.562 229.465C251.854 229.634 251.777 229.941 251.393 230.156C251.215 230.264 251.014 230.33 250.806 230.347C250.598 230.365 250.389 230.333 250.195 230.256C249.911 230.102 249.995 229.787 250.371 229.572V229.564Z" fill="#37474F"/>
<path d="M220.094 285.75L174.922 259.674C174.809 259.601 174.714 259.503 174.646 259.387C174.578 259.27 174.539 259.14 174.531 259.005V258.498C174.539 258.364 174.578 258.233 174.646 258.117C174.714 258.001 174.809 257.903 174.922 257.83L234.603 223.389C234.722 223.33 234.853 223.299 234.987 223.299C235.12 223.299 235.252 223.33 235.371 223.389L280.542 249.466C280.654 249.541 280.747 249.641 280.814 249.758C280.88 249.876 280.919 250.007 280.926 250.142V250.641C280.918 250.774 280.879 250.904 280.812 251.02C280.746 251.136 280.653 251.235 280.542 251.309L220.862 285.765C220.742 285.826 220.61 285.857 220.476 285.854C220.342 285.851 220.21 285.816 220.094 285.75V285.75Z" fill="#F5F5F5"/>
<path d="M174.823 257.899C174.715 258.022 174.746 258.175 174.922 258.275L220.094 284.39C220.211 284.454 220.344 284.486 220.478 284.482V285.873C220.343 285.879 220.21 285.847 220.094 285.78L174.922 259.704C174.809 259.632 174.715 259.534 174.648 259.417C174.581 259.301 174.544 259.17 174.538 259.036V258.529C174.549 258.29 174.65 258.065 174.823 257.899V257.899Z" fill="#FAFAFA"/>
<path d="M280.634 249.504L280.742 249.611L280.788 249.673C280.83 249.739 280.866 249.808 280.895 249.88C280.912 249.925 280.924 249.972 280.934 250.019C280.937 250.052 280.937 250.085 280.934 250.118V250.618C280.927 250.751 280.889 250.882 280.822 250.998C280.755 251.114 280.662 251.213 280.55 251.286L220.869 285.742C220.749 285.807 220.614 285.839 220.478 285.834V284.452C220.614 284.454 220.748 284.422 220.869 284.36L280.55 249.903C280.726 249.796 280.757 249.634 280.634 249.504Z" fill="#E0E0E0"/>
<path d="M230.847 231.124L238.105 235.256L230.847 239.442L223.588 235.317L230.847 231.124Z" fill="#FAFAFA"/>
<path d="M230.847 231.47L224.187 235.31L230.847 239.097L237.506 235.256L230.847 231.47ZM223.335 235.464C223.323 235.416 223.323 235.366 223.335 235.318C223.334 235.265 223.347 235.213 223.373 235.168C223.399 235.122 223.436 235.083 223.481 235.056L230.739 230.87C230.783 230.844 230.834 230.83 230.885 230.83C230.937 230.83 230.987 230.844 231.031 230.87L238.289 234.995C238.334 235.023 238.371 235.061 238.396 235.107C238.422 235.152 238.435 235.204 238.435 235.256C238.435 235.308 238.422 235.36 238.396 235.406C238.371 235.451 238.334 235.49 238.289 235.517L231.031 239.703C230.987 239.73 230.937 239.744 230.885 239.744C230.834 239.744 230.783 239.73 230.739 239.703L223.481 235.571C223.42 235.555 223.368 235.517 223.335 235.464V235.464Z" fill="#455A64"/>
<path d="M241.462 237.499L240.939 237.798C240.876 237.819 240.821 237.859 240.782 237.913C240.743 237.966 240.722 238.031 240.722 238.098C240.722 238.164 240.743 238.229 240.782 238.283C240.821 238.337 240.876 238.377 240.939 238.397L266.509 253.16C266.669 253.24 266.845 253.281 267.024 253.281C267.202 253.281 267.378 253.24 267.538 253.16L268.068 252.853C268.129 252.83 268.181 252.79 268.218 252.737C268.255 252.684 268.275 252.621 268.275 252.557C268.275 252.492 268.255 252.429 268.218 252.377C268.181 252.324 268.129 252.283 268.068 252.261L242.499 237.499C242.339 237.415 242.161 237.372 241.98 237.372C241.8 237.372 241.622 237.415 241.462 237.499Z" fill="#E0E0E0"/>
<path d="M238.305 239.327L237.783 239.626C237.498 239.795 237.498 240.064 237.783 240.226L263.344 254.988C263.506 255.067 263.683 255.109 263.863 255.109C264.043 255.109 264.22 255.067 264.381 254.988L264.904 254.681C264.964 254.659 265.017 254.618 265.054 254.566C265.09 254.513 265.11 254.45 265.11 254.385C265.11 254.321 265.09 254.258 265.054 254.205C265.017 254.152 264.964 254.112 264.904 254.089L239.334 239.327C239.174 239.247 238.998 239.206 238.819 239.206C238.641 239.206 238.465 239.247 238.305 239.327V239.327Z" fill="#E0E0E0"/>
<path d="M235.156 241.147L234.626 241.447C234.562 241.467 234.507 241.507 234.468 241.561C234.429 241.615 234.408 241.68 234.408 241.746C234.408 241.813 234.429 241.877 234.468 241.931C234.507 241.985 234.562 242.025 234.626 242.046L260.195 256.808C260.355 256.888 260.531 256.93 260.71 256.93C260.889 256.93 261.065 256.888 261.225 256.808L261.755 256.501C261.815 256.479 261.867 256.439 261.904 256.386C261.941 256.333 261.961 256.27 261.961 256.205C261.961 256.141 261.941 256.078 261.904 256.025C261.867 255.972 261.815 255.932 261.755 255.91L236.185 241.147C236.026 241.064 235.85 241.02 235.67 241.02C235.491 241.02 235.314 241.064 235.156 241.147V241.147Z" fill="#E0E0E0"/>
<path d="M228.996 236.493L229.556 234.234L231.238 234.096L230.924 235.379L240.179 234.618L239.941 235.586L228.996 236.493Z" fill="#35B350"/>
<path d="M217.544 238.805L224.802 242.937L217.544 247.123L210.293 242.991L217.544 238.805Z" fill="#FAFAFA"/>
<path d="M217.544 239.15L210.892 242.991L217.544 246.777L224.203 242.937L217.544 239.15ZM210.032 243.144C210.007 243.099 209.994 243.049 209.993 242.998C209.993 242.946 210.006 242.894 210.031 242.848C210.057 242.802 210.094 242.764 210.139 242.737L217.398 238.551C217.442 238.525 217.492 238.511 217.544 238.511C217.595 238.511 217.645 238.525 217.689 238.551L224.948 242.676C224.994 242.702 225.032 242.74 225.059 242.786C225.086 242.832 225.101 242.884 225.102 242.937C225.102 242.989 225.087 243.04 225.06 243.085C225.033 243.13 224.994 243.166 224.948 243.19L217.697 247.384C217.652 247.41 217.6 247.424 217.547 247.424C217.495 247.424 217.443 247.41 217.398 247.384L210.147 243.252C210.1 243.227 210.06 243.189 210.032 243.144V243.144Z" fill="#455A64"/>
<path d="M228.174 245.18L227.652 245.479C227.36 245.64 227.36 245.909 227.652 246.078L253.213 260.841C253.373 260.921 253.549 260.962 253.728 260.962C253.907 260.962 254.083 260.921 254.243 260.841L254.773 260.534C254.833 260.511 254.886 260.471 254.922 260.418C254.959 260.365 254.979 260.302 254.979 260.238C254.979 260.173 254.959 260.11 254.922 260.058C254.886 260.005 254.833 259.964 254.773 259.942L229.172 245.18C229.018 245.101 228.847 245.061 228.673 245.061C228.5 245.061 228.329 245.101 228.174 245.18V245.18Z" fill="#E0E0E0"/>
<path d="M225.002 247.008L224.479 247.307C224.416 247.328 224.361 247.368 224.322 247.422C224.283 247.476 224.262 247.54 224.262 247.607C224.262 247.674 224.283 247.738 224.322 247.792C224.361 247.846 224.416 247.886 224.479 247.907L250.049 262.669C250.209 262.749 250.385 262.79 250.564 262.79C250.742 262.79 250.918 262.749 251.078 262.669L251.6 262.362C251.892 262.201 251.892 261.932 251.6 261.771L226.039 247.008C225.878 246.924 225.701 246.881 225.52 246.881C225.34 246.881 225.162 246.924 225.002 247.008V247.008Z" fill="#E0E0E0"/>
<path d="M221.852 248.828L221.33 249.128C221.267 249.148 221.212 249.188 221.173 249.242C221.134 249.296 221.112 249.361 221.112 249.427C221.112 249.494 221.134 249.559 221.173 249.612C221.212 249.666 221.267 249.706 221.33 249.727L246.892 264.489C247.053 264.569 247.231 264.61 247.411 264.61C247.59 264.61 247.768 264.569 247.929 264.489L248.451 264.182C248.512 264.16 248.564 264.12 248.601 264.067C248.638 264.014 248.658 263.951 248.658 263.886C248.658 263.822 248.638 263.759 248.601 263.706C248.564 263.653 248.512 263.613 248.451 263.591L222.882 248.828C222.723 248.745 222.546 248.701 222.367 248.701C222.188 248.701 222.011 248.745 221.852 248.828V248.828Z" fill="#E0E0E0"/>
<path d="M215.7 244.173L216.261 241.915L217.943 241.777L217.62 243.06L226.883 242.299L226.638 243.267L215.7 244.173Z" fill="#35B350"/>
<path d="M204.248 246.831L197.589 250.672L204.248 254.458L210.9 250.618L204.248 246.831ZM196.736 250.825C196.706 250.78 196.69 250.726 196.69 250.672C196.691 250.62 196.705 250.569 196.732 250.524C196.759 250.479 196.798 250.443 196.844 250.418L204.094 246.224C204.14 246.2 204.192 246.187 204.244 246.187C204.296 246.187 204.348 246.2 204.394 246.224L211.645 250.357C211.691 250.383 211.729 250.421 211.756 250.467C211.783 250.513 211.797 250.565 211.798 250.618C211.798 250.669 211.784 250.719 211.758 250.764C211.733 250.808 211.696 250.845 211.652 250.871L204.394 255.057C204.348 255.082 204.296 255.095 204.244 255.095C204.192 255.095 204.14 255.082 204.094 255.057L196.844 250.925C196.8 250.902 196.763 250.867 196.736 250.825V250.825Z" fill="#455A64"/>
<path d="M214.871 252.853L214.348 253.16C214.288 253.182 214.235 253.222 214.198 253.275C214.161 253.328 214.142 253.391 214.142 253.456C214.142 253.52 214.161 253.583 214.198 253.636C214.235 253.689 214.288 253.729 214.348 253.751L239.926 268.514C240.084 268.597 240.261 268.641 240.44 268.641C240.619 268.641 240.796 268.597 240.955 268.514L241.477 268.214C241.54 268.194 241.596 268.154 241.635 268.1C241.674 268.046 241.695 267.981 241.695 267.915C241.695 267.848 241.674 267.784 241.635 267.73C241.596 267.676 241.54 267.636 241.477 267.615L215.908 252.853C215.747 252.772 215.569 252.729 215.389 252.729C215.209 252.729 215.031 252.772 214.871 252.853V252.853Z" fill="#E0E0E0"/>
<path d="M211.706 254.689L211.176 254.988C211.116 255.01 211.063 255.051 211.026 255.103C210.989 255.156 210.969 255.219 210.969 255.284C210.969 255.348 210.989 255.411 211.026 255.464C211.063 255.517 211.116 255.557 211.176 255.58L236.746 270.35C236.905 270.43 237.082 270.471 237.26 270.471C237.439 270.471 237.615 270.43 237.775 270.35L238.305 270.043C238.365 270.02 238.418 269.98 238.455 269.927C238.492 269.874 238.512 269.811 238.512 269.747C238.512 269.682 238.492 269.619 238.455 269.566C238.418 269.514 238.365 269.473 238.305 269.451L212.735 254.689C212.577 254.605 212.4 254.562 212.221 254.562C212.041 254.562 211.865 254.605 211.706 254.689V254.689Z" fill="#E0E0E0"/>
<path d="M208.549 256.501L208.027 256.809C207.966 256.831 207.914 256.871 207.877 256.924C207.84 256.977 207.82 257.04 207.82 257.104C207.82 257.169 207.84 257.232 207.877 257.285C207.914 257.338 207.966 257.378 208.027 257.4L233.597 272.163C233.755 272.246 233.932 272.29 234.111 272.29C234.29 272.29 234.467 272.246 234.626 272.163L235.156 271.863C235.219 271.843 235.274 271.803 235.313 271.749C235.352 271.695 235.373 271.63 235.373 271.564C235.373 271.497 235.352 271.432 235.313 271.378C235.274 271.325 235.219 271.285 235.156 271.264L209.586 256.501C209.425 256.422 209.247 256.381 209.068 256.381C208.888 256.381 208.711 256.422 208.549 256.501V256.501Z" fill="#E0E0E0"/>
<path d="M202.22 252.162L202.781 249.903L204.463 249.765L204.148 251.056L213.404 250.287L213.165 251.263L202.22 252.162Z" fill="#35B350"/>
<path d="M190.945 254.504L184.285 258.345L190.945 262.131L197.604 258.291L190.945 254.504ZM183.433 258.498C183.421 258.45 183.421 258.4 183.433 258.352C183.432 258.3 183.445 258.248 183.471 258.202C183.497 258.156 183.534 258.118 183.579 258.091L190.837 253.905C190.881 253.879 190.932 253.865 190.983 253.865C191.035 253.865 191.085 253.879 191.129 253.905L198.387 258.037C198.433 258.062 198.47 258.099 198.496 258.144C198.521 258.189 198.534 258.239 198.533 258.291C198.534 258.343 198.521 258.395 198.495 258.441C198.47 258.487 198.433 258.525 198.387 258.552L191.129 262.738C191.085 262.764 191.035 262.778 190.983 262.778C190.932 262.778 190.881 262.764 190.837 262.738L183.579 258.613C183.519 258.591 183.468 258.551 183.433 258.498V258.498Z" fill="#455A64"/>
<path d="M201.575 260.534L201.045 260.841C200.984 260.863 200.932 260.904 200.895 260.956C200.858 261.009 200.838 261.072 200.838 261.137C200.838 261.201 200.858 261.264 200.895 261.317C200.932 261.37 200.984 261.41 201.045 261.433L226.615 276.195C226.773 276.279 226.95 276.322 227.129 276.322C227.309 276.322 227.485 276.279 227.644 276.195L228.174 275.896C228.458 275.727 228.458 275.458 228.174 275.296L202.604 260.534C202.444 260.454 202.268 260.413 202.09 260.413C201.911 260.413 201.735 260.454 201.575 260.534Z" fill="#E0E0E0"/>
<path d="M198.403 262.362L197.881 262.669C197.82 262.691 197.768 262.731 197.731 262.784C197.694 262.837 197.674 262.9 197.674 262.964C197.674 263.029 197.694 263.092 197.731 263.145C197.768 263.198 197.82 263.238 197.881 263.26L223.442 278.023C223.603 278.106 223.78 278.15 223.961 278.15C224.141 278.15 224.319 278.106 224.479 278.023L225.002 277.723C225.065 277.703 225.12 277.663 225.159 277.609C225.198 277.555 225.219 277.49 225.219 277.424C225.219 277.357 225.198 277.292 225.159 277.239C225.12 277.185 225.065 277.145 225.002 277.124L199.432 262.362C199.272 262.282 199.096 262.24 198.917 262.24C198.739 262.24 198.563 262.282 198.403 262.362Z" fill="#E0E0E0"/>
<path d="M195.254 264.182L194.724 264.489C194.663 264.511 194.611 264.552 194.574 264.604C194.537 264.657 194.517 264.72 194.517 264.785C194.517 264.849 194.537 264.912 194.574 264.965C194.611 265.018 194.663 265.058 194.724 265.081L220.293 279.843C220.452 279.927 220.629 279.97 220.808 279.97C220.987 279.97 221.164 279.927 221.323 279.843L221.852 279.544C221.916 279.523 221.971 279.483 222.01 279.429C222.049 279.375 222.07 279.311 222.07 279.244C222.07 279.177 222.049 279.113 222.01 279.059C221.971 279.005 221.916 278.965 221.852 278.944L196.283 264.182C196.123 264.102 195.947 264.061 195.768 264.061C195.59 264.061 195.414 264.102 195.254 264.182Z" fill="#E0E0E0"/>
<path d="M188.748 260.157L189.309 257.899L190.991 257.761L190.668 259.043L199.931 258.283L199.686 259.251L188.748 260.157Z" fill="#35B350"/>
<path d="M264.136 241.286L260.917 238.751C260.849 238.669 260.788 238.581 260.733 238.49L260.825 238.398L261.593 237.668L264.089 235.364C264.163 235.306 264.222 235.233 264.264 235.149C264.305 235.065 264.327 234.973 264.328 234.88V233.912C264.312 233.67 264.212 233.441 264.043 233.267C263.761 232.909 263.581 232.482 263.521 232.03C263.588 231.597 263.796 231.197 264.113 230.893C264.476 230.601 264.754 230.217 264.918 229.78C265.081 229.344 265.124 228.871 265.042 228.412C265.14 227.822 265.033 227.215 264.74 226.693C264.447 226.171 263.984 225.764 263.429 225.54C262.666 225.155 261.825 224.953 260.971 224.948H260.864C259.511 224.921 258.195 225.388 257.161 226.262C256.457 226.777 255.626 227.092 254.757 227.176C254.025 227.295 253.278 227.295 252.545 227.176C252.377 227.148 252.208 227.13 252.038 227.122H251.984C251.801 227.102 251.614 227.121 251.438 227.178C251.262 227.235 251.1 227.328 250.963 227.452L248.812 229.449L248.044 230.179H248.006C247.747 230.366 247.448 230.488 247.132 230.534C246.816 230.579 246.494 230.547 246.193 230.44C245.01 229.941 244.45 229.672 242.522 228.789C241.962 228.545 241.358 228.422 240.747 228.428V228.428C239.843 228.442 238.955 228.665 238.151 229.081V230.048L264.765 245.41C265.07 245.032 265.248 244.567 265.272 244.081V243.206C265.232 242.823 265.11 242.453 264.914 242.121C264.718 241.79 264.452 241.505 264.136 241.286V241.286ZM258.644 227.867C259.123 227.476 259.695 227.215 260.304 227.107C260.913 227 261.539 227.05 262.123 227.253C262.25 227.297 262.373 227.351 262.492 227.414C262.918 227.617 263.254 227.97 263.437 228.405C263.333 228.7 263.156 228.965 262.922 229.173C262.611 229.448 262.248 229.657 261.854 229.787C260.936 230.099 259.932 230.039 259.059 229.618C258.849 229.626 258.644 229.561 258.477 229.435C258.31 229.308 258.192 229.128 258.143 228.924C258.094 228.721 258.117 228.506 258.209 228.318C258.3 228.129 258.454 227.978 258.644 227.89V227.867Z" fill="#37474F"/>
<path d="M238.113 229.181L264.727 244.542C265.449 243.559 265.495 242.538 264.136 241.286L260.917 238.751C260.917 238.751 260.218 237.983 260.825 237.43L261.593 236.7L264.089 234.396C264.089 234.396 264.658 233.996 264.043 233.267C263.429 232.537 263.137 230.817 264.113 229.926C265.649 228.512 265.349 226.554 263.429 225.54C262.666 225.155 261.825 224.953 260.971 224.948H260.864C259.511 224.921 258.195 225.388 257.161 226.262C256.457 226.777 255.626 227.092 254.757 227.176C254.025 227.295 253.278 227.295 252.545 227.176C252.377 227.148 252.208 227.13 252.038 227.122H251.984C251.801 227.102 251.614 227.121 251.438 227.178C251.262 227.235 251.1 227.328 250.963 227.452L248.812 229.449L248.044 230.179H248.006C247.748 230.366 247.448 230.488 247.132 230.534C246.816 230.579 246.494 230.547 246.193 230.44C245.01 229.941 244.45 229.672 242.522 228.789C241.962 228.545 241.358 228.422 240.747 228.428V228.428C239.822 228.467 238.919 228.725 238.113 229.181V229.181ZM262.123 226.285C262.25 226.332 262.373 226.388 262.492 226.454C262.76 226.542 262.998 226.702 263.181 226.917C263.364 227.132 263.484 227.392 263.528 227.671C263.573 227.949 263.539 228.234 263.433 228.495C263.326 228.756 263.149 228.983 262.922 229.15C262.611 229.425 262.248 229.634 261.854 229.764C260.936 230.076 259.932 230.016 259.059 229.595C258.792 229.505 258.555 229.344 258.374 229.128C258.193 228.913 258.074 228.652 258.032 228.373C257.989 228.095 258.023 227.811 258.131 227.551C258.239 227.291 258.416 227.065 258.644 226.899C259.123 226.509 259.695 226.247 260.304 226.14C260.913 226.032 261.539 226.082 262.123 226.285V226.285Z" fill="#455A64"/>
<path d="M336.704 207.174L335.936 207.62L335.053 208.165L303.093 227.552C303.354 226.922 303.093 225.67 302.44 224.479C301.672 223.089 300.489 222.014 299.66 221.991L331.381 202.743L333.079 201.713C332.019 202.451 335.598 207.889 336.704 207.174Z" fill="#35B350"/>
<path d="M332.971 201.791C333.44 201.483 334.285 202.351 335.099 203.465C336.19 204.932 337.096 206.898 336.474 207.305L335.26 208.073L334.822 208.327C335.445 207.928 334.538 205.961 333.455 204.487C332.687 203.419 331.781 202.612 331.305 202.827L332.971 201.791Z" fill="#EBEBEB"/>
<path d="M331.658 202.574C332.749 201.867 336.32 207.336 335.237 208.051L333.594 209.049C334.677 208.342 331.105 202.866 330.014 203.58L331.658 202.574Z" fill="#35B350"/>
<path d="M328.447 204.533L330.076 203.542C331.136 202.835 334.638 208.089 333.739 208.918C333.725 208.937 333.707 208.953 333.686 208.964L332.042 209.948C333.11 209.256 329.523 203.818 328.447 204.533Z" fill="#EBEBEB"/>
<path d="M299.66 221.991V221.999L299.667 221.991H299.66L294.836 227.736H294.844L299.66 221.991Z" fill="#FAFAFA"/>
<path d="M294.836 227.736L293.668 229.127L294.836 227.736Z" fill="#E0E0E0"/>
<path d="M302.248 223.435C301.949 223.021 301.563 222.677 301.117 222.427C300.672 222.178 300.177 222.029 299.667 221.991L294.844 227.736C295.044 227.761 295.23 227.856 295.366 228.005C295.957 228.773 295.911 229.15 295.911 229.15L303.101 227.552C303.784 226.461 303.27 224.68 302.248 223.435Z" fill="#FFA8A7"/>
<path d="M295.358 227.997C295.298 227.915 295.22 227.848 295.129 227.801C295.038 227.754 294.938 227.729 294.836 227.729L293.691 229.126C293.666 229.152 293.645 229.183 293.631 229.216C293.617 229.25 293.61 229.286 293.61 229.322C293.61 229.359 293.617 229.395 293.631 229.428C293.645 229.462 293.666 229.492 293.691 229.518C293.724 229.55 293.765 229.574 293.809 229.586C293.854 229.598 293.9 229.598 293.945 229.587L295.896 229.149C295.896 229.149 295.996 228.765 295.358 227.997Z" fill="#37474F"/>
<path d="M343.149 203.242L336.704 207.182C336.669 207.204 336.63 207.22 336.589 207.228C337.027 206.698 336.167 204.863 335.13 203.465C334.362 202.443 333.494 201.66 333.002 201.79L339.746 197.681C341.221 196.614 343.241 199.394 343.671 201.406C343.78 201.729 343.788 202.078 343.695 202.405C343.602 202.733 343.411 203.025 343.149 203.242Z" fill="#F28F8F"/>
<path opacity="0.15" d="M343.149 203.242C343.406 203.022 343.591 202.728 343.678 202.401C343.766 202.073 343.753 201.726 343.64 201.407C343.64 201.314 343.594 201.215 343.563 201.115L303.285 225.44L293.691 229.534C293.724 229.566 293.765 229.589 293.809 229.602C293.854 229.614 293.9 229.614 293.945 229.603L295.896 229.165L303.085 227.568L343.149 203.242Z" fill="black"/>
<path d="M56.9984 221.254L47.0747 240.618C46.729 241.215 46.5071 241.875 46.4222 242.56C46.3373 243.245 46.3912 243.94 46.5806 244.603C46.77 245.267 47.0911 245.885 47.5248 246.422C47.9584 246.958 48.4957 247.402 49.1045 247.727C49.7134 248.051 50.3814 248.25 51.0687 248.311C51.756 248.372 52.4484 248.294 53.1048 248.081C53.7613 247.868 54.3681 247.526 54.8893 247.074C55.4104 246.621 55.8351 246.069 56.1381 245.449L66.1232 225.978C67.091 224.112 65.8314 221.538 63.3044 220.24C60.7774 218.942 57.9585 219.388 56.9984 221.254Z" fill="#455A64"/>
<path d="M134.537 180.722L153.9 190.646C155.096 191.231 156.473 191.328 157.74 190.918C159.007 190.508 160.065 189.622 160.691 188.447C161.317 187.272 161.463 185.899 161.098 184.619C160.732 183.338 159.884 182.25 158.731 181.583L139.26 171.598C137.394 170.63 134.821 171.897 133.515 174.416C132.209 176.936 132.67 179.762 134.537 180.722Z" fill="#455A64"/>
<path d="M151.265 94.8274L151.173 94.7813L116.187 76.8312L116.056 76.7697C105.71 71.5314 91.8848 73.0675 76.9993 82.6532C47.0978 101.909 24.2549 146.32 25.9754 181.844C26.8357 199.556 33.6563 211.707 43.9486 217.06L44.0408 217.107L79.0424 235.057L79.15 235.11C89.5037 240.372 103.337 238.836 118.238 229.242C148.139 209.979 170.982 165.576 169.254 130.044C168.378 112.34 161.581 100.189 151.265 94.8274Z" fill="#35B350"/>
<path opacity="0.1" d="M78.259 234.642L44.0638 217.091L43.964 217.03C33.664 211.653 26.8587 199.502 25.9985 181.82C25.2304 165.975 29.355 148.378 36.7977 132.033L71.7149 149.991C64.2875 166.336 60.1936 183.933 60.9617 199.778C61.7912 217.106 68.32 229.111 78.259 234.642Z" fill="black"/>
<path opacity="0.4" d="M155.595 185.753C175.52 147.016 173.542 106.287 151.177 94.783C128.811 83.2788 94.5274 105.355 74.6021 144.093C54.6768 182.83 56.6551 223.558 79.0207 235.063C101.386 246.567 135.67 224.49 155.595 185.753Z" fill="white"/>
<path d="M93.1598 226.761C75.4939 227.622 72.6673 207.797 72.2449 199.233C70.7087 167.903 91.7235 127.079 118.092 110.135C124.805 105.811 131.357 103.384 137.033 103.107C154.699 102.247 157.533 122.071 157.948 130.635C159.484 161.966 138.477 202.789 112.101 219.772C105.388 224.096 98.836 226.523 93.1675 226.8L93.1598 226.761Z" fill="#FAFAFA"/>
<path d="M107.73 206.307C107.639 206.309 107.549 206.296 107.462 206.269C107.257 206.208 107.085 206.069 106.983 205.882C106.881 205.695 106.857 205.475 106.916 205.27L117.554 169.416C117.584 169.315 117.633 169.221 117.699 169.139C117.765 169.058 117.847 168.99 117.939 168.939C118.032 168.889 118.133 168.857 118.238 168.846C118.342 168.835 118.448 168.845 118.549 168.875C118.65 168.904 118.744 168.954 118.826 169.02C118.907 169.086 118.975 169.167 119.026 169.26C119.076 169.352 119.108 169.453 119.119 169.558C119.13 169.663 119.12 169.768 119.09 169.869L108.468 205.723C108.418 205.884 108.321 206.026 108.19 206.13C108.058 206.234 107.898 206.296 107.73 206.307V206.307Z" fill="#35B350"/>
<path d="M137.77 159.876C137.597 160.161 137.367 160.407 137.094 160.598L119.336 173.126L90.6866 155.613C90.4153 155.448 90.1793 155.23 89.9921 154.973C89.8049 154.716 89.6702 154.424 89.5957 154.115C89.5211 153.806 89.5082 153.485 89.5577 153.171C89.6072 152.857 89.718 152.555 89.8839 152.284C90.0499 152.013 90.2676 151.777 90.5247 151.589C90.7819 151.402 91.0733 151.267 91.3825 151.193C91.6917 151.118 92.0126 151.105 92.3267 151.155C92.6409 151.204 92.9423 151.315 93.2136 151.481L119.121 167.319L134.321 156.612C134.778 156.294 135.33 156.142 135.885 156.182C136.44 156.222 136.965 156.452 137.37 156.832C137.776 157.213 138.039 157.722 138.115 158.273C138.19 158.825 138.074 159.385 137.786 159.861L137.77 159.876Z" fill="#37474F"/>
<path d="M117.946 161.843C121.464 159.577 124.482 161.129 124.69 165.307C124.897 169.485 122.201 174.708 118.683 176.974C115.165 179.24 112.147 177.689 111.947 173.51C111.748 169.332 114.428 164.109 117.946 161.843Z" fill="#35B350"/>
</svg>
