<svg width="36" height="36" viewBox="0 0 36 36" fill="none" xmlns="http://www.w3.org/2000/svg">
<rect width="36" height="36" rx="6" fill="#00C802"/>
<path d="M26.9619 25.9578L26.9624 25.9578C28.1723 25.9533 29.15 24.9366 29.15 23.6982V12.1055C29.15 10.8672 28.1722 9.85 26.9619 9.85H25.6071C25.248 9.85 24.9656 10.1489 24.9656 10.5078C24.9656 10.8667 25.248 11.1656 25.6071 11.1656H26.9619C27.4579 11.1656 27.8709 11.5851 27.8709 12.1096V23.7023C27.8709 24.2268 27.4579 24.6463 26.9619 24.6463H18.0244L19.065 23.5713C19.3132 23.315 19.3132 22.9047 19.065 22.6484C18.8143 22.3894 18.4089 22.3894 18.1581 22.6484L16.0361 24.8406C15.788 25.097 15.788 25.5072 16.0361 25.7635L18.1581 27.9557C18.2828 28.0844 18.4457 28.15 18.6136 28.15C18.7814 28.15 18.9444 28.0844 19.069 27.9557C19.3172 27.6994 19.3172 27.2892 19.069 27.0328L18.0284 25.9578L26.9619 25.9578Z" fill="white" stroke="white" stroke-width="0.3"/>
<path d="M19.9639 10.237L17.8419 8.04434C17.5911 7.78522 17.1857 7.78522 16.9349 8.04434C16.6868 8.30071 16.6868 8.71099 16.9349 8.96736L17.9756 10.0427H9.03812C7.82772 10.0427 6.85 11.0602 6.85 12.2987V23.894C6.85 25.1325 7.82772 26.15 9.03812 26.15H10.3929C10.7521 26.15 11.0344 25.8511 11.0344 25.4921C11.0344 25.1331 10.7521 24.8342 10.3929 24.8342H9.03812C8.54209 24.8342 8.1291 24.4146 8.1291 23.8899V12.2987C8.1291 11.774 8.54209 11.3544 9.03812 11.3544H17.9716L16.9309 12.4298C16.6828 12.6861 16.6828 13.0964 16.9309 13.3528C17.0556 13.4815 17.2185 13.5471 17.3864 13.5471C17.5543 13.5471 17.7173 13.4815 17.8419 13.3528L19.9628 11.1612C19.963 11.161 19.9632 11.1608 19.9634 11.1606C20.213 10.9074 20.2112 10.4926 19.9639 10.237Z" fill="white" stroke="white" stroke-width="0.3"/>
</svg>
