<svg width="354" height="290" viewBox="0 0 354 290" fill="none" xmlns="http://www.w3.org/2000/svg">
<path d="M171.763 287.187L6.8832 189.587C1.63156 186.599 -2.86417 181.789 2.24823 178.632L167.725 83.1529C170.211 81.6092 173.981 80.6034 176.497 82.0674L349.563 182.655C354.814 185.703 355.749 194.238 350.498 197.285L193.496 287.027C190.201 288.947 186.462 289.971 182.65 289.999C178.838 290.027 175.085 289.058 171.763 287.187Z" fill="#BEEECB"/>
<path opacity="0.2" d="M16.9189 193.331L50.2788 172.307L126.955 198.361L83.7879 230.23C83.7879 230.23 25.4131 198.181 16.9189 193.331Z" fill="#7EB78A"/>
<path opacity="0.2" d="M121.554 257.966L154.914 236.943L193.257 257.18L155.362 278.99C155.362 278.99 130.048 262.826 121.554 257.966Z" fill="#7EB78A"/>
<path opacity="0.2" d="M146 193.5L211.658 139.98L264.373 191.678L197 225.5C197 225.5 162.491 202.921 146 193.5Z" fill="#7EB78A"/>
<path d="M37.8162 105.412L118.849 115.879C120.984 116.156 122.953 117.179 124.409 118.768C125.865 120.357 126.713 122.409 126.806 124.563L129.79 192.146C129.837 193.227 129.652 194.305 129.249 195.308C128.845 196.312 128.232 197.217 127.45 197.963C126.667 198.709 125.735 199.279 124.715 199.635C123.694 199.99 122.61 200.123 121.534 200.024L83.042 196.707L37.8162 105.412Z" fill="#00C802"/>
<path opacity="0.5" d="M127.432 138.147L44.8682 127.999V155.357L128.636 166.212L127.432 138.147Z" fill="#164921"/>
<path d="M69.0476 140.508C63.7562 140.03 59.6484 139.233 54.3569 138.795L83.042 196.708L121.534 200.024C122.607 200.117 123.687 199.98 124.702 199.622C125.718 199.264 126.645 198.693 127.423 197.947C128.2 197.202 128.81 196.298 129.211 195.298C129.613 194.298 129.796 193.223 129.75 192.146L127.8 147.111C108.007 145.179 88.8805 142.261 69.0476 140.508Z" fill="#164921"/>
<path d="M42.7693 107.862L113.875 130.877L114.81 203.012L60.8218 180.484" fill="#85B23B"/>
<path d="M46.1608 112.682C47.9711 112.274 109.051 134.204 109.051 134.204L109.857 195.542L98.6474 190.742L104.735 198.809L114.81 203.012L113.875 130.877L40.76 107.194" fill="#B8E06C"/>
<path d="M37.498 183.253L98.4986 220.102C99.1221 220.48 99.835 220.685 100.564 220.696C101.293 220.708 102.012 220.524 102.647 220.165C103.282 219.806 103.81 219.285 104.177 218.654C104.544 218.023 104.736 217.306 104.735 216.576V149.889C104.736 148.411 104.354 146.958 103.627 145.672C102.9 144.386 101.853 143.31 100.587 142.549L39.6165 105.959C38.9925 105.583 38.2797 105.38 37.5514 105.371C36.823 105.361 36.1052 105.546 35.4716 105.906C34.838 106.265 34.3113 106.787 33.9455 107.418C33.5798 108.049 33.3881 108.766 33.3902 109.495V175.953C33.3892 177.421 33.7669 178.864 34.4865 180.143C35.2062 181.422 36.2435 182.493 37.498 183.253V183.253Z" fill="#164921"/>
<path d="M30.6252 109.455L34.9917 106.228L35.847 109.495L30.6252 109.455Z" fill="#164921"/>
<path d="M98.6377 223.119L102.934 219.942L100.02 218.488L98.6377 223.119Z" fill="#164921"/>
<path d="M33.1713 186.45L94.1719 223.298C94.7954 223.677 95.5083 223.882 96.2373 223.893C96.9663 223.904 97.6851 223.721 98.32 223.362C98.9548 223.003 99.4829 222.482 99.8499 221.851C100.217 221.22 100.41 220.503 100.408 219.773V153.086C100.409 151.608 100.027 150.155 99.3004 148.869C98.5735 147.583 97.5263 146.507 96.2606 145.746L35.2998 109.156C34.6757 108.78 33.963 108.577 33.2346 108.567C32.5062 108.558 31.7885 108.743 31.1548 109.102C30.5212 109.462 29.9945 109.984 29.6288 110.615C29.263 111.246 29.0713 111.963 29.0734 112.692V179.11C29.0646 180.583 29.4374 182.034 30.1556 183.321C30.8738 184.607 31.9129 185.685 33.1713 186.45V186.45Z" fill="#00C802"/>
<path d="M35.5085 183.492L90.2131 216.606C90.7732 216.945 91.4133 217.129 92.0678 217.139C92.7223 217.148 93.3676 216.984 93.9376 216.661C94.5075 216.339 94.9816 215.871 95.3111 215.304C95.6407 214.738 95.8138 214.094 95.8129 213.439V153.485C95.8134 152.155 95.4702 150.848 94.8166 149.691C94.1629 148.534 93.2212 147.566 92.083 146.882L37.3784 114.016C36.8178 113.679 36.1778 113.497 35.5239 113.489C34.87 113.481 34.2258 113.647 33.6571 113.971C33.0884 114.294 32.6157 114.763 32.2874 115.329C31.9591 115.895 31.7869 116.539 31.7886 117.193V176.948C31.7944 178.267 32.1397 179.562 32.7914 180.709C33.443 181.855 34.3788 182.813 35.5085 183.492V183.492Z" stroke="#F2F2F2" stroke-width="1.015" stroke-miterlimit="10" stroke-linecap="round" stroke-dasharray="3.02 3.02"/>
<path d="M174.438 262.348C188.721 262.348 200.299 255.557 200.299 247.181C200.299 238.804 188.721 232.013 174.438 232.013C160.156 232.013 148.578 238.804 148.578 247.181C148.578 255.557 160.156 262.348 174.438 262.348Z" fill="#164921"/>
<path d="M148.578 247.181V242.798L151.393 246.294L148.578 247.181Z" fill="#164921"/>
<path d="M200.288 242.798V247.181H197.016L199.413 243.665L200.288 242.798Z" fill="#164921"/>
<path d="M174.438 257.966C188.721 257.966 200.299 251.175 200.299 242.798C200.299 234.422 188.721 227.631 174.438 227.631C160.156 227.631 148.578 234.422 148.578 242.798C148.578 251.175 160.156 257.966 174.438 257.966Z" fill="#5DCA74"/>
<path d="M174.478 255.706C186.464 255.706 196.181 250.007 196.181 242.978C196.181 235.948 186.464 230.25 174.478 230.25C162.492 230.25 152.775 235.948 152.775 242.978C152.775 250.007 162.492 255.706 174.478 255.706Z" stroke="#164921" stroke-width="6.09" stroke-miterlimit="10"/>
<path d="M174.438 251.413C188.721 251.413 200.299 244.622 200.299 236.245C200.299 227.868 188.721 221.078 174.438 221.078C160.156 221.078 148.578 227.868 148.578 236.245C148.578 244.622 160.156 251.413 174.438 251.413Z" fill="#164921"/>
<path d="M148.578 236.245V231.863L151.393 235.369L148.578 236.245Z" fill="#164921"/>
<path d="M200.288 231.863V236.245H197.016L199.413 232.73L200.288 231.863Z" fill="#164921"/>
<path d="M174.438 247.031C188.721 247.031 200.299 240.24 200.299 231.863C200.299 223.486 188.721 216.695 174.438 216.695C160.156 216.695 148.578 223.486 148.578 231.863C148.578 240.24 160.156 247.031 174.438 247.031Z" fill="#5DCA74"/>
<path d="M174.478 244.77C186.464 244.77 196.181 239.072 196.181 232.042C196.181 225.013 186.464 219.315 174.478 219.315C162.492 219.315 152.775 225.013 152.775 232.042C152.775 239.072 162.492 244.77 174.478 244.77Z" stroke="#164921" stroke-width="2.03" stroke-miterlimit="10"/>
<path d="M174.388 244.99C188.671 244.99 200.249 238.199 200.249 229.822C200.249 221.445 188.671 214.654 174.388 214.654C160.106 214.654 148.528 221.445 148.528 229.822C148.528 238.199 160.106 244.99 174.388 244.99Z" fill="#164921"/>
<path d="M148.528 229.822V225.44L151.343 228.935L148.528 229.822Z" fill="#164921"/>
<path d="M200.249 225.44V229.822H196.967L199.374 226.306L200.249 225.44Z" fill="#164921"/>
<path d="M174.388 240.607C188.671 240.607 200.249 233.817 200.249 225.44C200.249 217.063 188.671 210.272 174.388 210.272C160.106 210.272 148.528 217.063 148.528 225.44C148.528 233.817 160.106 240.607 174.388 240.607Z" fill="#5DCA74"/>
<path d="M174.438 238.347C186.424 238.347 196.141 232.648 196.141 225.619C196.141 218.589 186.424 212.891 174.438 212.891C162.452 212.891 152.735 218.589 152.735 225.619C152.735 232.648 162.452 238.347 174.438 238.347Z" stroke="#164921" stroke-width="6.09" stroke-miterlimit="10"/>
<path d="M174.388 233.068C188.671 233.068 200.249 226.277 200.249 217.9C200.249 209.524 188.671 202.733 174.388 202.733C160.106 202.733 148.528 209.524 148.528 217.9C148.528 226.277 160.106 233.068 174.388 233.068Z" fill="#164921"/>
<path d="M148.528 217.911V213.529L151.343 217.024L148.528 217.911Z" fill="#164921"/>
<path d="M200.249 213.529V217.911H196.967L199.374 214.385L200.249 213.529Z" fill="#164921"/>
<path d="M174.388 228.696C188.671 228.696 200.249 221.905 200.249 213.528C200.249 205.151 188.671 198.361 174.388 198.361C160.106 198.361 148.528 205.151 148.528 213.528C148.528 221.905 160.106 228.696 174.388 228.696Z" fill="#5DCA74"/>
<path d="M187.478 211.497C187.66 211.849 187.733 212.248 187.687 212.642L187.588 213.04H182.873C182.915 212.911 182.945 212.777 182.963 212.642C182.945 212.337 182.849 212.042 182.684 211.786C182.418 211.328 182.019 210.963 181.54 210.74C180.853 210.383 180.095 210.186 179.322 210.162C178.604 210.111 177.883 210.224 177.214 210.491C176.551 210.776 176.295 211.148 176.448 211.606C176.666 212.168 177.006 212.675 177.442 213.09C177.953 213.608 178.431 214.157 178.875 214.733C179.085 214.982 179.222 215.285 179.267 215.607C179.313 215.93 179.267 216.259 179.133 216.556C178.615 217.417 177.796 218.056 176.836 218.349C175.255 218.99 173.568 219.328 171.863 219.345C170.008 219.405 168.157 219.142 166.392 218.568L163.677 219.733L160.494 218.179L163.13 217.044C162.657 216.728 162.231 216.345 161.866 215.909C161.595 215.598 161.382 215.24 161.24 214.853C161.151 214.575 161.098 214.288 161.081 213.996C161.048 213.799 161.048 213.597 161.081 213.399L161.17 213.17H165.895C165.848 213.327 165.811 213.486 165.785 213.648C165.804 214.036 165.935 214.41 166.163 214.723C166.541 215.313 167.084 215.777 167.725 216.058C168.578 216.49 169.514 216.735 170.47 216.775C171.332 216.832 172.196 216.693 172.996 216.367C173.659 216.088 173.905 215.719 173.732 215.261C173.514 214.699 173.175 214.192 172.738 213.777C172.218 213.265 171.736 212.716 171.296 212.134C171.089 211.881 170.961 211.573 170.925 211.247C170.89 210.922 170.949 210.594 171.097 210.302C171.659 209.429 172.512 208.783 173.504 208.479C175.031 207.862 176.661 207.541 178.308 207.533C180.05 207.474 181.788 207.744 183.43 208.33L186.135 207.164L189.119 208.778L186.384 209.983C186.867 210.391 187.242 210.91 187.478 211.497Z" fill="#164921"/>
<path d="M174.438 226.436C186.424 226.436 196.141 220.737 196.141 213.708C196.141 206.678 186.424 200.98 174.438 200.98C162.452 200.98 152.735 206.678 152.735 213.708C152.735 220.737 162.452 226.436 174.438 226.436Z" stroke="#164921" stroke-width="2.03" stroke-miterlimit="10"/>
<path d="M164.283 220.092C178.566 220.092 190.144 213.301 190.144 204.924C190.144 196.547 178.566 189.756 164.283 189.756C150.001 189.756 138.423 196.547 138.423 204.924C138.423 213.301 150.001 220.092 164.283 220.092Z" fill="#164921"/>
<path d="M138.423 204.924V200.552L141.238 204.047L138.423 204.924Z" fill="#164921"/>
<path d="M190.143 200.552V204.924H186.861L189.258 201.408L190.143 200.552Z" fill="#164921"/>
<path d="M164.283 215.71C178.566 215.71 190.144 208.919 190.144 200.542C190.144 192.165 178.566 185.374 164.283 185.374C150.001 185.374 138.423 192.165 138.423 200.542C138.423 208.919 150.001 215.71 164.283 215.71Z" fill="#5DCA74"/>
<path d="M168.082 204.652L165.678 204.319L164.85 193.821L167.254 194.155L168.082 204.652ZM151.26 201.247L160.03 194.533L161.884 194.375L162.101 197.135C162.164 197.934 162.391 198.58 162.781 199.073C163.182 199.572 163.696 199.93 164.325 200.146C164.954 200.362 165.648 200.44 166.405 200.38C167.253 200.313 167.986 200.13 168.604 199.83C169.233 199.53 169.705 199.098 170.022 198.534C170.349 197.977 170.479 197.269 170.411 196.409L170.176 193.423L172.581 193.768L172.774 196.222C172.878 197.534 172.699 198.638 172.238 199.531C171.787 200.432 171.08 201.133 170.116 201.634C169.152 202.135 167.963 202.442 166.547 202.554C165.33 202.65 164.225 202.559 163.23 202.281C162.245 202.01 161.447 201.493 160.835 200.729C160.223 199.973 159.864 198.916 159.757 197.559L151.642 203.801L151.462 203.815L151.26 201.247ZM173.406 204.231L171.002 203.898L170.335 195.436L172.739 195.77L173.406 204.231Z" fill="#164921"/>
<path d="M164.323 213.459C176.309 213.459 186.026 207.76 186.026 200.731C186.026 193.702 176.309 188.003 164.323 188.003C152.337 188.003 142.62 193.702 142.62 200.731C142.62 207.76 152.337 213.459 164.323 213.459Z" stroke="#164921" stroke-width="2.03" stroke-miterlimit="10"/>
<path d="M200.756 0.840336C214.592 9.51478 249.394 29.7219 261.26 36.9623C263.945 38.6155 264.353 41.0754 264.403 44.2325V191.698C263.672 192.551 262.66 193.113 261.55 193.283C260.441 193.453 259.307 193.219 258.355 192.624L199.961 159.58C197.056 157.867 194.769 156.104 194.769 152.728L195.276 3.50939C195.256 0.252744 198.021 -0.90252 200.756 0.840336Z" fill="#00C802"/>
<path d="M195.365 2.43383L214.353 13.3889V17.4921C214.357 17.838 214.45 18.177 214.625 18.4756C214.799 18.7742 215.048 19.0222 215.347 19.1951L230.028 27.7301C230.226 27.8569 230.455 27.9272 230.69 27.9337C230.924 27.9401 231.156 27.8824 231.361 27.7667C231.565 27.651 231.735 27.4817 231.85 27.277C231.966 27.0723 232.024 26.8399 232.017 26.6047V23.617L259.599 39.8106C259.862 39.9654 260.081 40.1865 260.233 40.4521C260.384 40.7177 260.464 41.0184 260.464 41.3244V188.77C260.457 188.976 260.397 189.178 260.29 189.354C260.182 189.53 260.031 189.676 259.851 189.776C259.67 189.876 259.467 189.928 259.261 189.926C259.054 189.925 258.852 189.869 258.674 189.766L194.749 152.718C194.641 153.862 194.847 155.014 195.342 156.051C195.838 157.088 196.606 157.97 197.564 158.604C200.876 160.715 259.071 193.69 259.071 193.69C259.071 193.69 263.677 195.771 265.039 190.274V41.8821C265.041 40.9228 264.816 39.9767 264.382 39.1214C263.948 38.2662 263.318 37.5262 262.543 36.9623C259.877 35.0203 200.518 0.471876 200.518 0.471876C200.518 0.471876 196.32 -1.44029 195.365 2.43383Z" fill="#164921"/>
<path d="M205.61 103.868V103.629C205.609 103.046 205.762 102.473 206.053 101.969C206.344 101.464 206.764 101.045 207.268 100.755C207.773 100.465 208.346 100.313 208.928 100.316C209.51 100.319 210.081 100.476 210.583 100.771L241.536 118.857C242.036 119.148 242.45 119.565 242.738 120.066C243.026 120.568 243.177 121.136 243.177 121.715C243.18 122.299 243.029 122.873 242.738 123.379C242.448 123.885 242.029 124.305 241.523 124.596C241.018 124.888 240.445 125.04 239.862 125.038C239.279 125.035 238.707 124.879 238.204 124.583L207.251 106.726C206.752 106.435 206.337 106.018 206.05 105.517C205.762 105.015 205.61 104.447 205.61 103.868V103.868Z" fill="#9EE5B1"/>
<path d="M223.384 102.812C220.991 102.879 218.631 103.385 216.421 104.306C212.92 105.81 223.244 108.858 223.244 108.858" fill="#164921"/>
<path d="M224.279 116.496C227.263 118.179 230.138 120.151 233.102 121.904C234.148 120.353 234.823 118.58 235.073 116.725C235.323 114.87 235.142 112.982 234.544 111.208C232.555 104.993 226.308 101.448 220.619 103.241C218.967 103.803 217.481 104.768 216.295 106.05C215.109 107.331 214.26 108.888 213.826 110.581C217.367 112.552 220.818 114.544 224.279 116.496Z" fill="#164921"/>
<path d="M224.279 116.496C226.547 117.771 228.735 119.205 230.953 120.59C232.132 117.816 232.259 114.707 231.311 111.845C229.322 105.631 223.076 102.085 217.387 103.878C216.072 104.315 214.859 105.014 213.821 105.933C212.783 106.852 211.942 107.973 211.349 109.226C215.735 111.616 220.002 114.086 224.279 116.496Z" fill="#5DCA74"/>
<path d="M230.118 119.484C231.118 117.073 231.217 114.383 230.396 111.905C228.636 106.457 223.185 103.35 218.222 104.934C217.082 105.312 216.029 105.916 215.127 106.71C214.225 107.503 213.491 108.471 212.97 109.555" stroke="#164921" stroke-width="1.015" stroke-miterlimit="10"/>
<path d="M239.915 63.6828C241.297 74.7872 236.215 84.4974 228.477 85.2942C220.738 86.0909 213.398 77.7949 212.006 66.6904C210.613 55.586 215.735 45.9056 223.444 45.0691C231.152 44.2325 238.522 52.5683 239.915 63.6828Z" fill="#9EE5B1"/>
<path d="M216.282 66.4215L218.55 62.8462L222.608 69.0508L231.63 55.098L235.2 58.026L222.956 76.6197L216.282 66.4215Z" fill="#164921"/>
<path d="M73.4736 126.326C73.5236 125.657 73.6167 124.991 73.7521 124.334" stroke="#42210B" stroke-width="2.03" stroke-miterlimit="10" stroke-linecap="round"/>
<path d="M76.1492 115.929C81.1223 102.464 95.0471 79.3386 132.147 67.6166C189.248 49.6403 215.576 88.8894 223.434 104.217" stroke="#42210B" stroke-width="2.03" stroke-miterlimit="10" stroke-linecap="round" stroke-dasharray="3.96 8.9"/>
<path d="M140.124 45.6566C136.005 45.8726 131.959 46.8413 128.188 48.5149C122.221 51.2537 140.124 56.1138 140.124 56.1138" fill="#164921"/>
<path d="M148.9 85.1762C158.62 81.7813 163.489 70.3859 159.774 59.7238C156.06 49.0618 145.169 43.1706 135.449 46.5655C125.73 49.9604 120.861 61.3558 124.576 72.0179C128.29 82.68 139.181 88.5712 148.9 85.1762Z" fill="#164921"/>
<path d="M143.331 86.4064C153.051 83.0115 157.92 71.6161 154.205 60.954C150.491 50.2919 139.6 44.4007 129.88 47.7957C120.161 51.1906 115.292 62.586 119.006 73.2481C122.721 83.9101 133.611 89.8013 143.331 86.4064Z" fill="#5DCA74"/>
<path d="M142.499 84.018C151.021 81.0415 155.29 71.0547 152.036 61.7118C148.781 52.3688 139.234 47.2078 130.712 50.1842C122.19 53.1606 117.921 63.1475 121.176 72.4904C124.43 81.8333 133.977 86.9944 142.499 84.018Z" stroke="#164921" stroke-width="1.015" stroke-miterlimit="10"/>
<path opacity="0.2" d="M275.542 187.515L241.944 204.924L283.957 231.226L315.517 216.168" fill="#7EB78A"/>
<path d="M286.683 189.069C286.364 188.68 277.144 186.569 275.543 187.485C273.941 188.401 276.13 190.921 280.287 193.371C284.445 195.821 288.005 197.962 289.686 197.425C291.367 196.887 293.177 195.931 293.177 194.975V185.264" fill="#455A64"/>
<path d="M307.172 206.706C307.172 207.264 308.286 209.505 307.172 210.053C306.058 210.601 298.558 212.363 297.026 214.475C295.495 216.586 296.032 218.209 297.026 218.767C298.021 219.325 315.507 216.168 315.507 216.168L313.418 204.217" fill="#455A64"/>
<path d="M302.179 111.596C302.179 111.596 301.184 107.433 295.216 105.561C289.248 103.689 290.034 116.984 290.034 116.984" fill="#00C802"/>
<path d="M290.77 132.172C290.143 132.441 275.025 143.655 276.318 160.834C277.104 171.202 284.643 188.631 284.643 188.631C284.643 188.631 296.817 196.389 304.695 194.417" fill="#263238"/>
<path d="M287.518 137.132C287.518 137.132 283.47 154.72 284.972 165.655C286.473 176.59 302.179 207.991 302.179 207.991C307.663 208.539 313.2 208.008 318.481 206.428C318.481 206.428 308.972 169.3 308.117 165.187C307.261 161.074 308.117 138.845 308.117 138.845" fill="#263238"/>
<path d="M293.247 106.766C293.247 106.766 270.549 96.8866 264.403 93.3013C264.403 93.3013 264.701 100.621 265.019 101.548C265.338 102.474 282.923 119.813 291.158 121.217" fill="#00C802"/>
<path d="M307.331 137.968C305.096 130.964 303.107 123.893 301.363 116.755C301.174 115.998 300.01 116.317 300.189 117.074C301.933 124.211 303.922 131.282 306.157 138.287C306.396 139.034 307.569 138.715 307.331 137.968Z" fill="#606060"/>
<path d="M270.132 114.066C267.798 112.906 265.649 111.406 263.756 109.614C263.875 107.543 264.005 102.842 261.628 103.31C260.484 103.539 260.633 104.854 260.633 105.76C260.633 106.562 260.676 107.363 260.762 108.16C258.087 109.236 253.8 107.732 252.368 110.431C252.296 110.555 252.258 110.696 252.258 110.839C252.258 110.983 252.296 111.124 252.368 111.248C252.444 111.356 252.534 111.453 252.636 111.537C252.213 111.738 251.842 112.035 251.552 112.403C251.467 112.492 251.402 112.599 251.364 112.715C251.325 112.832 251.313 112.956 251.328 113.078C251.343 113.201 251.385 113.318 251.452 113.422C251.518 113.525 251.607 113.613 251.711 113.678C251.867 113.796 252.037 113.893 252.218 113.967C252.208 114.043 252.208 114.12 252.218 114.196C252.218 115.112 252.934 115.52 254.048 115.63C254.235 116.104 254.586 116.496 255.037 116.733C255.488 116.971 256.009 117.039 256.505 116.925C258.045 116.777 259.57 116.493 261.061 116.078C262.675 116.746 264.249 117.507 265.775 118.359C265.938 118.439 266.122 118.463 266.299 118.428C266.477 118.392 266.638 118.3 266.758 118.164C266.877 118.028 266.949 117.857 266.962 117.676C266.975 117.495 266.929 117.315 266.829 117.164C267.008 117.058 267.139 116.886 267.193 116.685C267.246 116.484 267.22 116.269 267.118 116.088C267.24 115.941 267.311 115.759 267.32 115.568C267.329 115.378 267.275 115.19 267.168 115.032C267.302 115.025 267.433 114.983 267.548 114.912C267.663 114.841 267.758 114.742 267.824 114.624C268.331 114.923 268.819 115.202 269.376 115.47C270.241 115.929 271.027 114.534 270.132 114.066Z" fill="#FFBE9D"/>
<path d="M259.012 110.561C256.896 111.051 254.727 111.272 252.556 111.218C252.502 111.218 252.45 111.239 252.412 111.278C252.374 111.316 252.353 111.368 252.353 111.422C252.353 111.476 252.374 111.528 252.412 111.566C252.45 111.605 252.502 111.626 252.556 111.626C254.764 111.679 256.97 111.451 259.121 110.949C259.38 110.889 259.27 110.501 259.012 110.561Z" fill="#56403D"/>
<path d="M258.097 113.379C256.214 113.839 254.272 114.014 252.338 113.897C252.079 113.897 252.079 114.285 252.338 114.305C254.306 114.423 256.281 114.245 258.196 113.777C258.415 113.668 258.306 113.279 258.097 113.379Z" fill="#56403D"/>
<path d="M257.679 114.963C256.509 115.304 255.297 115.485 254.078 115.5C254.024 115.5 253.972 115.522 253.934 115.56C253.896 115.598 253.875 115.65 253.875 115.704C253.875 115.759 253.896 115.811 253.934 115.849C253.972 115.887 254.024 115.909 254.078 115.909C255.334 115.894 256.582 115.71 257.788 115.361C257.841 115.346 257.886 115.311 257.913 115.264C257.94 115.216 257.947 115.16 257.933 115.107C257.918 115.054 257.883 115.009 257.836 114.982C257.788 114.955 257.732 114.948 257.679 114.963V114.963Z" fill="#56403D"/>
<path d="M285.946 127.143C285.747 129.005 286.513 133.307 287.498 137.102C290.84 139.094 294.997 139.831 298.827 139.94C301.955 140.067 305.084 139.697 308.097 138.845C307.619 129.632 304.118 108.708 299.672 109.136C294.082 109.684 288.582 116.297 288.582 116.297C278.218 117.821 264.711 107.832 264.711 107.832L261.856 116.586C268.286 122.996 276.881 126.763 285.946 127.143Z" fill="#00C802"/>
<path opacity="0.4" d="M294.898 191.339C289.942 177.03 287.604 161.943 287.995 146.802C287.995 146.736 287.969 146.673 287.922 146.626C287.876 146.579 287.813 146.553 287.747 146.553C287.681 146.553 287.617 146.579 287.571 146.626C287.524 146.673 287.498 146.736 287.498 146.802C287.119 161.989 289.477 177.12 294.46 191.469C294.53 191.778 295.017 191.648 294.898 191.339Z" fill="white"/>
<path d="M290.472 116.048C286.665 116.481 282.81 116.08 279.173 114.873C278.865 114.773 278.735 115.251 279.044 115.361C282.725 116.585 286.628 116.993 290.482 116.556C290.79 116.516 290.79 116.018 290.472 116.048Z" fill="#00C802"/>
<path d="M285.946 127.143H288.791L287.498 137.102C287.498 137.102 286.115 129.832 285.946 127.143Z" fill="#1D8734"/>
<path d="M295.704 104.794C293.913 105.74 291.725 104.207 290.223 103.251C288.433 102.095 286.623 100.084 287.647 97.8128C287.796 97.4742 287.259 97.275 287.1 97.6136C286.036 99.9739 287.707 102.245 289.607 103.589C291.297 104.734 293.864 106.477 295.942 105.372C296.281 105.143 296.042 104.615 295.704 104.794Z" fill="#009245"/>
<path d="M287.12 95.9505C287.12 95.9505 282.774 107.832 286.852 110.202C291.327 112.801 296.002 108.35 296.002 108.35C296.002 108.35 300.448 98.0818 296.002 95.4027C291.556 92.7237 287.816 94.4566 287.12 95.9505Z" fill="#FFBE9D"/>
<path d="M287.866 105.282C287.753 105.247 287.648 105.19 287.558 105.113C288.055 104.04 288.606 102.993 289.209 101.976C289.252 101.899 289.264 101.808 289.24 101.723C289.217 101.638 289.161 101.566 289.084 101.523C289.008 101.479 288.917 101.468 288.832 101.491C288.748 101.514 288.675 101.571 288.632 101.647C287.985 102.737 287.398 103.861 286.871 105.013C286.838 105.077 286.824 105.149 286.833 105.22C286.842 105.292 286.873 105.359 286.921 105.412C287.122 105.654 287.388 105.833 287.687 105.93C288.095 106.069 288.264 105.412 287.866 105.282Z" fill="#56403D"/>
<path d="M301.95 101.976C302.467 99.476 301.323 97.7531 299.712 95.7911C299.579 95.6318 299.443 95.4791 299.304 95.333C299.819 95.1476 300.285 94.848 300.667 94.4566C300.71 94.4182 300.743 94.3695 300.762 94.3149C300.781 94.2604 300.785 94.2019 300.775 94.145C300.765 94.0881 300.741 94.0347 300.705 93.9899C300.668 93.9451 300.621 93.9103 300.567 93.8889C300.295 93.8015 300.008 93.7714 299.724 93.8005C299.44 93.8297 299.165 93.9174 298.916 94.0582C298.857 93.4799 298.695 92.9168 298.439 92.3951C298.413 92.3448 298.374 92.302 298.327 92.2706C298.28 92.2391 298.225 92.2201 298.169 92.2151C298.113 92.2101 298.056 92.2195 298.004 92.2422C297.952 92.2649 297.907 92.3004 297.872 92.3453C297.697 92.5408 297.567 92.7723 297.492 93.0236C297.416 93.2748 297.397 93.5396 297.434 93.7993C295.46 92.566 293.107 92.0919 290.81 92.4648C289.968 92.6121 289.171 92.953 288.483 93.4607C287.925 93.1864 287.3 93.0759 286.682 93.142C286.023 93.1911 285.398 93.4585 284.906 93.902C284.415 94.3454 284.084 94.9399 283.967 95.5919C283.758 97.1257 285.091 98.1614 286.464 98.4004C287.168 98.5175 287.89 98.4524 288.562 98.2112C287.936 98.7191 287.438 99.476 288.562 100.203C290.551 101.498 292.063 100.581 291.805 101.717C291.596 102.643 292.64 103.589 293.515 103.928C293.515 104.087 293.515 104.505 293.575 105.073C294.068 105.087 294.548 105.231 294.968 105.491C295.017 105.466 295.072 105.452 295.127 105.451C295.183 105.45 295.238 105.462 295.289 105.486C295.339 105.51 295.383 105.546 295.417 105.59C295.451 105.634 295.474 105.686 295.485 105.74C295.763 107.314 295.077 108.658 294.232 110.053C295.774 109.471 297.19 108.595 298.399 107.473C300.095 106.028 301.329 104.117 301.95 101.976V101.976ZM298.101 93.3511C298.101 93.4109 298.101 93.4607 298.101 93.5204C298.095 93.5567 298.095 93.5937 298.101 93.63C298.101 93.7395 298.101 93.8591 298.101 93.9686C298.048 93.7662 298.048 93.5535 298.101 93.3511V93.3511Z" fill="#263238"/>
<path d="M289.776 106.278C289.446 106.623 288.996 106.826 288.52 106.847C288.043 106.867 287.578 106.703 287.22 106.388C287.001 106.208 286.742 106.567 286.961 106.746C287.398 107.119 287.959 107.313 288.533 107.289C289.106 107.265 289.65 107.025 290.054 106.617C290.253 106.408 289.975 106.079 289.776 106.278Z" fill="#56403D"/>
<path d="M289.845 104.416C289.763 104.385 289.673 104.389 289.594 104.425C289.514 104.462 289.453 104.528 289.422 104.61C289.392 104.692 289.395 104.782 289.432 104.861C289.468 104.941 289.535 105.002 289.616 105.032C289.698 105.063 289.789 105.059 289.868 105.023C289.947 104.987 290.009 104.92 290.039 104.839C290.069 104.757 290.066 104.666 290.03 104.587C289.993 104.508 289.927 104.446 289.845 104.416V104.416Z" fill="#56403D"/>
<path d="M286.314 102.165C286.233 102.135 286.142 102.138 286.063 102.174C285.984 102.211 285.922 102.277 285.892 102.359C285.861 102.441 285.865 102.531 285.901 102.61C285.937 102.69 286.004 102.751 286.086 102.782C286.167 102.812 286.258 102.809 286.337 102.772C286.416 102.736 286.478 102.669 286.508 102.588C286.539 102.506 286.535 102.415 286.499 102.336C286.462 102.257 286.396 102.195 286.314 102.165Z" fill="#56403D"/>
<path d="M293.058 105.93C293.058 105.93 295.873 101.797 296.599 103.758C297.325 105.72 292.79 107.742 292.79 107.742" fill="#FBB5AD"/>
<path d="M144.05 63.1687L143.355 65.5112H129.351L130.045 63.1687H144.05ZM137.772 79.4771L129.788 70.3148L129.773 68.4764H133.455C134.522 68.4764 135.402 68.3034 136.096 67.9575C136.801 67.6017 137.329 67.1223 137.681 66.5194C138.033 65.9165 138.209 65.2394 138.209 64.4882C138.209 63.6481 138.043 62.9118 137.711 62.2792C137.379 61.6367 136.856 61.1376 136.142 60.7818C135.437 60.4161 134.512 60.2332 133.365 60.2332H129.381L130.09 57.8907H133.365C135.115 57.8907 136.559 58.1527 137.696 58.6765C138.843 59.1905 139.698 59.9417 140.262 60.93C140.825 61.9184 141.107 63.1144 141.107 64.5179C141.107 65.7237 140.87 66.806 140.397 67.7647C139.935 68.7136 139.165 69.4598 138.088 70.0034C137.022 70.5471 135.583 70.8189 133.772 70.8189L141.197 79.2992V79.4771H137.772ZM144.05 57.8907L143.355 60.2332H132.067L132.761 57.8907H144.05Z" fill="#164921"/>
</svg>
