<svg width="50" height="50" viewBox="0 0 50 50" fill="none" xmlns="http://www.w3.org/2000/svg">
<rect x="0.5" y="0.5" width="49" height="49" rx="7.5" fill="white" stroke="#E0E0E0"/>
<path fill-rule="evenodd" clip-rule="evenodd" d="M14.4308 20.0968L12.2777 27.7648L19.9214 27.8184L22.021 20.0968H23.9588L21.4414 29.0735C21.345 29.4163 20.978 29.6948 20.622 29.6948H10.8244C10.2303 29.6948 9.8782 29.2306 10.0389 28.6593L12.4398 20.0968H14.4308ZM38.0622 20.0433H40L37.3084 29.6948H35.316L38.0622 20.0433ZM24.1744 24.0645L33.8638 24.011L34.5101 21.9732H24.6586L25.2506 20.0965L35.7484 20.0001C36.4018 19.994 36.791 20.4999 36.6189 21.1309L35.6299 24.7458C35.4574 25.3764 34.7872 25.8874 34.1337 25.8874H25.4663L24.4444 29.8555H22.5591L24.1744 24.0645Z" fill="#747474"/>
</svg>
