<svg width="219" height="151" viewBox="0 0 219 151" fill="none" xmlns="http://www.w3.org/2000/svg">
<path d="M70.9515 27.942L52.2511 28.2169C51.5238 28.2288 50.9364 27.6516 50.9328 26.9289L50.8971 15.984C50.8934 15.2613 51.4809 14.6708 52.2082 14.6589L70.9086 14.384C71.6359 14.3721 72.2233 14.9493 72.227 15.672L72.2627 26.6169C72.2663 27.3396 71.6799 27.9336 70.9515 27.942Z" fill="white" stroke="#263238" stroke-width="0.3884" stroke-miterlimit="10"/>
<path d="M50.9073 17.8218L72.1903 17.5112" stroke="#263238" stroke-width="0.3884" stroke-miterlimit="10"/>
<path d="M50.9265 19.9568L72.2095 19.6462" stroke="#263238" stroke-width="0.3884" stroke-miterlimit="10"/>
<path d="M67.4361 25.2029C67.4387 25.58 67.5977 25.9156 67.8526 26.1545C67.6159 26.3813 67.29 26.5233 66.9343 26.5305C66.1979 26.5412 65.6017 25.962 65.5994 25.2301C65.5971 24.4983 66.1902 23.8978 66.9266 23.8871C67.2834 23.8834 67.6085 24.0184 67.846 24.2394C67.5923 24.4872 67.4381 24.8282 67.4361 25.2029Z" stroke="#263238" stroke-width="0.3884" stroke-miterlimit="10"/>
<path d="M70.0905 25.1751C70.0917 25.9032 69.4987 26.5036 68.7672 26.5167C68.0347 26.5262 67.4374 25.9436 67.4327 25.2166C67.4315 24.4885 68.0244 23.8881 68.7559 23.8751C69.491 23.8609 70.0882 24.4434 70.0905 25.1751Z" stroke="#263238" stroke-width="0.3884" stroke-miterlimit="10"/>
<path d="M208.099 73.129L194.907 73.0957C194.288 73.0952 193.797 72.5957 193.804 71.9809L193.91 64.398C193.918 63.7832 194.426 63.2896 195.044 63.2902L208.236 63.3234C208.855 63.3239 209.346 63.8234 209.338 64.4382L209.233 72.0212C209.225 72.6359 208.717 73.1295 208.099 73.129Z" fill="white" stroke="#263238" stroke-width="0.3884" stroke-miterlimit="10"/>
<path d="M193.897 65.5585L209.292 65.5985" stroke="#263238" stroke-width="0.3884" stroke-miterlimit="10"/>
<path d="M193.884 67.1035L209.276 67.1444" stroke="#263238" stroke-width="0.3884" stroke-miterlimit="10"/>
<path d="M205.759 71.1024C205.755 71.374 205.866 71.6211 206.047 71.795C205.874 71.9552 205.637 72.0554 205.38 72.0557C204.848 72.0558 204.424 71.6279 204.43 71.0986C204.436 70.5693 204.874 70.1423 205.404 70.1461C205.661 70.1458 205.897 70.2502 206.064 70.4116C205.881 70.5846 205.763 70.8308 205.759 71.1024Z" stroke="#263238" stroke-width="0.3884" stroke-miterlimit="10"/>
<path d="M207.677 71.1177C207.67 71.6438 207.232 72.0708 206.703 72.0699C206.173 72.0691 205.749 71.6383 205.755 71.1121C205.762 70.586 206.2 70.159 206.73 70.1599C207.262 70.1598 207.686 70.5876 207.677 71.1177Z" stroke="#263238" stroke-width="0.3884" stroke-miterlimit="10"/>
<path d="M197.135 36.579L174.843 28.2894L170.53 39.8872L192.822 48.1767L197.135 36.579Z" fill="white" stroke="#263238" stroke-width="0.3884" stroke-miterlimit="10"/>
<path d="M192.664 45.7084L195.404 38.3404C194.749 38.0973 194.413 37.3655 194.656 36.7104L176.636 30.0081C176.393 30.6632 175.662 30.9987 175.006 30.7557L172.267 38.1237C172.922 38.3668 173.258 39.0986 173.014 39.7537L191.034 46.4561C191.277 45.7956 192.007 45.4627 192.664 45.7084Z" fill="#00C802" stroke="#263238" stroke-width="0.3884" stroke-miterlimit="10"/>
<path d="M183.416 41.4528C185.195 41.6861 186.827 40.4323 187.061 38.6524C187.294 36.8725 186.04 35.2405 184.26 35.0072C182.481 34.7739 180.848 36.0276 180.615 37.8075C180.382 39.5874 181.636 41.2194 183.416 41.4528Z" stroke="white" stroke-width="0.3884" stroke-miterlimit="10"/>
<path d="M185.073 38.2409L184.846 38.4088L183.073 37.1087L183.298 36.9393L185.073 38.2409ZM182.841 40.0029L182.706 37.9627L182.837 37.7786L183.162 38.0163C183.32 38.1327 183.474 38.1989 183.622 38.2149C183.77 38.231 183.907 38.2093 184.033 38.1499C184.158 38.0905 184.263 38.004 184.346 37.8905C184.446 37.7536 184.504 37.613 184.519 37.4686C184.535 37.3243 184.506 37.1824 184.434 37.043C184.362 36.9023 184.244 36.7712 184.078 36.6498L183.674 36.3534L183.903 36.187L184.238 36.4323C184.451 36.5888 184.608 36.7583 184.708 36.9408C184.808 37.1219 184.849 37.3086 184.83 37.5009C184.813 37.6942 184.734 37.8859 184.595 38.0761C184.481 38.2307 184.344 38.3501 184.184 38.4343C184.026 38.5182 183.848 38.5491 183.652 38.5272C183.458 38.5048 183.249 38.4119 183.026 38.2484L183.152 40.1899L183.133 40.2166L182.841 40.0029ZM185.644 37.4631L185.417 37.631L183.826 36.4648L184.053 36.2969L185.644 37.4631Z" fill="white"/>
<path d="M54.2718 57.1307L34.9142 70.6791L41.8691 80.6521L61.2268 67.1037L54.2718 57.1307Z" fill="white" stroke="#263238" stroke-width="0.3884" stroke-miterlimit="10"/>
<path d="M59.1387 65.8597L54.7169 59.5293C54.1439 59.9279 53.3641 59.7968 52.9703 59.2298L37.3178 70.1753C37.7116 70.7423 37.5719 71.5211 36.9989 71.9197L41.4207 78.25C41.9937 77.8515 42.7735 77.9825 43.1673 78.5495L58.8197 67.604C58.4286 67.0416 58.5729 66.2601 59.1387 65.8597Z" fill="#00C802" stroke="#263238" stroke-width="0.3884" stroke-miterlimit="10"/>
<path d="M50.7249 67.0348C51.7375 68.4852 51.3705 70.4914 49.9052 71.5165C48.4399 72.5416 46.4318 72.1969 45.4192 70.7466C44.4067 69.2962 44.7736 67.29 46.2389 66.2649C47.7042 65.2398 49.7124 65.5845 50.7249 67.0348Z" stroke="white" stroke-width="0.3884" stroke-miterlimit="10"/>
<path d="M48.6097 67.7092L48.6543 67.9564L46.9105 68.8776L46.8639 68.6315L48.6097 67.7092ZM49.1377 70.1811L47.4493 69.5023L47.3539 69.3253L47.6728 69.1568C47.8289 69.0744 47.9427 68.9768 48.0142 68.8641C48.0857 68.7514 48.1225 68.6332 48.1247 68.5095C48.1268 68.3858 48.0989 68.2686 48.0408 68.1579C47.9709 68.0245 47.8812 67.9238 47.7716 67.8557C47.662 67.7876 47.537 67.7557 47.3967 67.76C47.2556 67.763 47.1037 67.8075 46.9409 67.8936L46.5433 68.1036L46.5008 67.8553L46.8297 67.6815C47.0396 67.5707 47.2375 67.5104 47.4232 67.5009C47.6082 67.49 47.774 67.5292 47.9205 67.6187C48.0684 67.7074 48.1909 67.8445 48.2881 68.0298C48.3671 68.1805 48.4086 68.3365 48.4124 68.4979C48.417 68.6573 48.3715 68.8116 48.2762 68.9607C48.1815 69.1078 48.0245 69.2393 47.8051 69.3551L49.4106 70.0037L49.4243 70.0297L49.1377 70.1811ZM48.2123 66.9512L48.2569 67.1984L46.6926 68.0247L46.6481 67.7775L48.2123 66.9512Z" fill="white"/>
<path opacity="0.2" d="M118.126 105.802C118.126 105.802 115.245 120.425 97.577 123.72C97.577 123.72 92.9629 127.4 91.4274 129.578C89.8918 131.757 81.6986 135.459 73.382 147.011C65.0654 158.563 52.6466 121.878 52.6466 121.878L80.0621 86.2695L118.126 105.802Z" fill="#263238" fill-opacity="0.7"/>
<path d="M143.857 62.2155C139.538 68.1036 144.316 74.8846 144.316 74.8846C144.316 74.8846 141.327 76.5509 141.241 80.8026C141.208 82.5698 141.652 85.0394 142.183 87.3259C140.7 86.6048 139.605 85.0394 139.74 83.1713L137.83 90.0756L139.164 92.7283C139.164 92.7283 140.935 93.3223 143.095 94.8877C141.91 97.6076 141.548 100.97 141.656 104.437C140.759 104.206 139.743 103.873 138.596 103.414C130.59 100.227 123.925 87.7219 123.925 87.7219L119.116 44.1066L133.833 37.1575C133.833 37.1575 139.037 34.6132 142.601 33.6082C142.325 36.9445 142.982 40.3892 143.446 42.3133C142.889 42.7243 142.258 43.1352 141.552 43.5425C133.545 48.1528 135.929 56.7533 135.929 56.7533H141.649C141.649 56.7533 144.91 58.0796 146.304 59.8132C145.512 60.3176 144.686 61.0872 143.857 62.2155Z" fill="white"/>
<path fill-rule="evenodd" clip-rule="evenodd" d="M89.8768 123.695C108.561 119.085 118.925 98.7643 118.925 98.7643L102.804 45.7713L102.053 43.3018L84.6873 62.6062L73.6434 74.8831C73.6434 74.8831 71.327 81.5408 68.4801 88.7888C66.2571 94.4565 63.7054 100.487 61.6879 103.961C59.4275 107.85 52.0562 115.767 45.1444 122.814C42.7682 125.238 40.4444 127.562 38.4045 129.58L38.44 129.601L18.9952 149.177H70.3511L71.5176 149.893C71.6704 149.655 71.8239 149.416 71.9777 149.177H72.001L72.2258 148.792C78.0296 139.787 84.38 130.324 86.0024 129.441C89.1632 127.715 89.8768 123.695 89.8768 123.695Z" fill="#FFBF9D"/>
<path d="M118.925 98.7643L119.014 98.8097L119.032 98.7737L119.021 98.7351L118.925 98.7643ZM89.8768 123.695L89.8528 123.598L89.7897 123.614L89.7783 123.678L89.8768 123.695ZM102.804 45.7713L102.708 45.8004V45.8004L102.804 45.7713ZM102.053 43.3018L102.148 43.2727L102.097 43.1032L101.978 43.2349L102.053 43.3018ZM84.6873 62.6062L84.7617 62.6731V62.6731L84.6873 62.6062ZM73.6434 74.8831L73.5691 74.8162L73.5556 74.8312L73.549 74.8502L73.6434 74.8831ZM68.4801 88.7888L68.387 88.7523L68.387 88.7523L68.4801 88.7888ZM61.6879 103.961L61.7743 104.011L61.7744 104.011L61.6879 103.961ZM45.1444 122.814L45.073 122.744L45.073 122.744L45.1444 122.814ZM38.4045 129.58L38.3341 129.509L38.2435 129.598L38.3522 129.665L38.4045 129.58ZM38.44 129.601L38.5109 129.672L38.5999 129.582L38.4923 129.516L38.44 129.601ZM18.9952 149.177L18.9243 149.107L18.755 149.277H18.9952V149.177ZM70.3511 149.177L70.4034 149.092L70.3793 149.077H70.3511V149.177ZM71.5176 149.893L71.4653 149.978L71.5488 150.029L71.6017 149.947L71.5176 149.893ZM71.9777 149.177V149.077H71.9232L71.8936 149.123L71.9777 149.177ZM72.001 149.177V149.277H72.0585L72.0874 149.228L72.001 149.177ZM72.2258 148.792L72.1417 148.738L72.1394 148.742L72.2258 148.792ZM86.0024 129.441L86.0502 129.529L86.0504 129.529L86.0024 129.441ZM118.925 98.7643C118.836 98.7188 118.836 98.7189 118.836 98.719C118.836 98.7191 118.836 98.7193 118.836 98.7196C118.835 98.7202 118.835 98.7211 118.834 98.7223C118.833 98.7247 118.831 98.7283 118.829 98.7331C118.824 98.7427 118.816 98.7572 118.806 98.7763C118.786 98.8146 118.756 98.8716 118.716 98.9463C118.636 99.0956 118.516 99.3155 118.356 99.5971C118.037 100.16 117.56 100.971 116.929 101.958C115.668 103.931 113.791 106.611 111.332 109.435C106.412 115.084 99.1667 121.3 89.8528 123.598L89.9007 123.792C99.2712 121.48 106.55 115.23 111.483 109.567C113.95 106.734 115.832 104.046 117.098 102.065C117.731 101.075 118.21 100.262 118.53 99.6957C118.691 99.4127 118.811 99.1915 118.892 99.0409C118.933 98.9656 118.963 98.9079 118.983 98.869C118.993 98.8496 119.001 98.8348 119.006 98.8249C119.009 98.8199 119.011 98.8162 119.012 98.8136C119.013 98.8123 119.013 98.8114 119.014 98.8107C119.014 98.8104 119.014 98.8101 119.014 98.81C119.014 98.8098 119.014 98.8097 118.925 98.7643ZM102.708 45.8004L118.829 98.7934L119.021 98.7351L102.899 45.7422L102.708 45.8004ZM101.957 43.3309L102.708 45.8004L102.899 45.7422L102.148 43.2727L101.957 43.3309ZM84.7617 62.6731L102.127 43.3686L101.978 43.2349L84.613 62.5393L84.7617 62.6731ZM73.7178 74.9499L84.7617 62.6731L84.613 62.5393L73.5691 74.8162L73.7178 74.9499ZM68.5732 88.8254C69.9971 85.2003 71.2882 81.7231 72.2233 79.1521C72.6909 77.8666 73.0695 76.8076 73.3312 76.07C73.4621 75.7012 73.5637 75.4127 73.6327 75.2164C73.6671 75.1183 73.6934 75.0432 73.7111 74.9926C73.7199 74.9673 73.7266 74.9481 73.7311 74.9353C73.7333 74.9289 73.735 74.924 73.7362 74.9208C73.7367 74.9192 73.7371 74.918 73.7374 74.9171C73.7376 74.9167 73.7377 74.9164 73.7377 74.9162C73.7378 74.9161 73.7378 74.916 73.7378 74.916C73.7378 74.9159 73.7379 74.9159 73.6434 74.8831C73.549 74.8502 73.549 74.8502 73.5489 74.8503C73.5489 74.8503 73.5489 74.8504 73.5489 74.8505C73.5488 74.8507 73.5487 74.851 73.5485 74.8514C73.5483 74.8522 73.5478 74.8534 73.5473 74.855C73.5462 74.8582 73.5445 74.8631 73.5423 74.8694C73.5378 74.8822 73.5311 74.9014 73.5223 74.9266C73.5047 74.9771 73.4784 75.0521 73.444 75.1502C73.3751 75.3463 73.2735 75.6345 73.1427 76.0031C72.8812 76.7403 72.5028 77.7988 72.0354 79.0837C71.1006 81.6537 69.8101 85.1293 68.387 88.7523L68.5732 88.8254ZM61.7744 104.011C63.7962 100.529 66.3505 94.4924 68.5732 88.8254L68.387 88.7523C66.1638 94.4206 63.6145 100.444 61.6014 103.911L61.7744 104.011ZM45.2158 122.884C48.6722 119.36 52.2442 115.618 55.235 112.27C58.2238 108.925 60.6384 105.966 61.7743 104.011L61.6014 103.911C60.477 105.846 58.0757 108.79 55.0859 112.137C52.098 115.481 48.5284 119.221 45.073 122.744L45.2158 122.884ZM38.4748 129.651C40.515 127.633 42.8392 125.309 45.2158 122.884L45.073 122.744C42.6973 125.168 40.3738 127.491 38.3341 129.509L38.4748 129.651ZM38.4923 129.516L38.4568 129.494L38.3522 129.665L38.3877 129.687L38.4923 129.516ZM19.0662 149.248L38.5109 129.672L38.369 129.531L18.9243 149.107L19.0662 149.248ZM70.3511 149.077H18.9952V149.277H70.3511V149.077ZM71.5699 149.808L70.4034 149.092L70.2988 149.262L71.4653 149.978L71.5699 149.808ZM71.8936 149.123C71.7398 149.362 71.5863 149.601 71.4334 149.839L71.6017 149.947C71.7546 149.709 71.908 149.47 72.0618 149.231L71.8936 149.123ZM72.001 149.077H71.9777V149.277H72.001V149.077ZM72.1394 148.742L71.9147 149.127L72.0874 149.228L72.3122 148.843L72.1394 148.742ZM85.9546 129.354C85.7366 129.472 85.4505 129.727 85.1099 130.088C84.767 130.452 84.3612 130.932 83.9032 131.509C82.9871 132.663 81.8585 134.212 80.6002 136.014C78.0832 139.617 75.0438 144.235 72.1418 148.738L72.3099 148.846C75.2115 144.344 78.2493 139.729 80.7641 136.128C82.0216 134.328 83.1475 132.783 84.0599 131.633C84.5161 131.058 84.918 130.584 85.2555 130.226C85.5954 129.865 85.8627 129.631 86.0502 129.529L85.9546 129.354ZM89.8768 123.695C89.7783 123.678 89.7783 123.678 89.7783 123.678C89.7783 123.678 89.7783 123.678 89.7783 123.678C89.7783 123.678 89.7783 123.678 89.7782 123.678C89.7782 123.679 89.7781 123.679 89.7779 123.68C89.7776 123.682 89.7771 123.685 89.7764 123.688C89.775 123.696 89.7729 123.707 89.77 123.721C89.7641 123.75 89.7551 123.793 89.7424 123.849C89.7171 123.961 89.6774 124.123 89.6198 124.323C89.5046 124.723 89.3184 125.274 89.0344 125.879C88.4657 127.089 87.509 128.505 85.9545 129.354L86.0504 129.529C87.6566 128.652 88.6371 127.194 89.2154 125.964C89.5049 125.347 89.6946 124.786 89.812 124.378C89.8707 124.174 89.9114 124.008 89.9375 123.893C89.9505 123.836 89.9599 123.791 89.966 123.761C89.9691 123.745 89.9714 123.733 89.9729 123.725C89.9737 123.721 89.9742 123.718 89.9746 123.716C89.9748 123.715 89.975 123.714 89.9751 123.714C89.9751 123.713 89.9752 123.713 89.9752 123.713C89.9752 123.713 89.9752 123.713 89.9752 123.713C89.9752 123.713 89.9752 123.713 89.8768 123.695Z" fill="#263238"/>
<path opacity="0.1" d="M102.052 43.3022L118.925 98.7647C118.925 98.7647 108.561 119.085 89.8764 123.696C89.8764 123.696 89.1628 127.716 86.0021 129.442C84.489 130.268 78.8437 138.58 73.3778 147.013C75.4028 140.064 81.2685 128.986 81.2685 128.986C77.5062 124.529 78.6009 119.833 80.1065 121.17C81.5636 122.47 85.3969 126.262 85.6397 126.502C83.9771 124.544 83.5923 121.477 83.5923 121.477C83.5923 121.477 88.255 124.577 88.6323 119.594C89.0097 114.613 85.8377 102.482 85.8377 102.482L77.5286 70.5646L102.052 43.3022Z" fill="#DEF0E2"/>
<path d="M147.737 74.7806C144.879 75.554 141.543 74.9824 140.306 69.9311C139.066 64.8799 141.547 59.4887 143.164 58.9731" stroke="#263238" stroke-width="0.3884" stroke-miterlimit="10" stroke-linecap="round" stroke-linejoin="round"/>
<path d="M139.735 83.1722C139.735 83.1722 139.545 76.6676 141.928 75.0648" stroke="#263238" stroke-width="0.3884" stroke-miterlimit="10" stroke-linecap="round" stroke-linejoin="round"/>
<path opacity="0.9" d="M70.2326 115.479C70.2326 115.479 63.2499 114.609 61.6919 111.485C60.403 108.9 53.4164 118.569 45.1484 122.813C52.0602 115.767 59.4316 107.85 61.6919 103.961C63.7094 100.486 66.2612 94.4562 68.4841 88.7886C68.4841 88.7923 68.4841 88.7923 68.4841 88.796C68.3721 93.4961 65.8651 100.692 66.5825 104.439C66.5825 104.439 63.8925 105.104 64.4342 108.078C64.9685 111.052 70.2326 115.479 70.2326 115.479Z" fill="#263238" fill-opacity="0.1"/>
<path d="M118.925 98.7653C118.925 98.7653 108.561 119.09 89.8769 123.696C89.8769 123.696 89.1633 127.716 86.0026 129.442C84.3139 130.361 77.5031 140.421 71.5178 149.743" stroke="#263238" stroke-width="0.3884" stroke-miterlimit="10" stroke-linecap="round" stroke-linejoin="round"/>
<path d="M102.058 43.3018L73.6483 74.8793C73.6483 74.8793 66.2882 96.0481 61.6928 103.961C58.6553 109.188 46.3897 121.693 38.4094 129.58L19.0613 149.207" stroke="#263238" stroke-width="0.3884" stroke-miterlimit="10" stroke-linecap="round" stroke-linejoin="round"/>
<path d="M85.8389 67.4183C85.8389 67.4183 90.2026 71.3263 91.4281 74.8831" stroke="#263238" stroke-width="0.3884" stroke-miterlimit="10" stroke-linecap="round" stroke-linejoin="round"/>
<path d="M90.4343 92.8876C90.9947 101.499 87.0045 111.09 87.0045 111.09L65.4547 105.022L61.6962 103.961C65.4248 98.7682 67.2107 88.5499 66.2355 80.2782C66.1608 79.6543 66.1122 79.064 66.0824 78.5073C65.7274 71.6852 68.5407 69.6863 70.9393 66.6713C73.5359 63.4059 79.3754 51.0768 79.3754 48.1589C79.3754 45.2373 86.6758 38.1013 85.0543 29.9902C85.0543 29.9902 87.2623 28.6228 89.4816 29.7474C90.4866 30.2555 91.4953 31.2754 92.3023 33.1622C94.204 37.6081 91.5364 50.1615 89.2612 53.2437L84.8862 71.3564C84.8862 71.3564 86.3619 73.9007 87.8115 78.5185C88.9399 82.1238 90.0495 86.9845 90.4343 92.8876Z" fill="#FFBF9D"/>
<path opacity="0.9" d="M66.0778 78.512C67.2958 81.852 68.596 84.0974 68.4839 88.7975C68.3718 93.4975 65.8649 100.693 66.5822 104.441C66.5822 104.441 66.0143 104.579 65.4502 105.023L61.6917 103.962C65.4203 98.7691 67.2061 88.5509 66.231 80.2791C66.1563 79.6552 66.1115 79.0686 66.0778 78.512Z" fill="#263238" fill-opacity="0.1"/>
<path opacity="0.9" d="M89.2602 53.2493L84.8852 71.3619C84.8852 71.3619 86.361 73.9062 87.8106 78.524C87.8069 78.5203 87.8069 78.5166 87.8031 78.5128C84.8441 73.7381 82.3409 72.3221 82.3409 72.3221C84.3136 69.9534 85.8342 52.659 85.8342 52.659C85.8342 52.659 92.0175 45.3923 91.4234 37.7893C91.1469 34.2923 90.3063 31.6172 89.4732 29.7529C90.4782 30.261 91.4869 31.281 92.2939 33.1677C94.2031 37.6137 91.5318 50.167 89.2602 53.2493Z" fill="#263238" fill-opacity="0.1"/>
<path d="M61.6919 103.963C65.4243 98.7738 67.2064 88.5518 66.235 80.2801C65.2599 72.0083 68.3422 69.9385 70.9388 66.6732C73.5353 63.4116 79.3749 51.0824 79.3749 48.1608C79.3749 45.2391 86.6752 38.1032 85.0538 29.9921C85.0538 29.9921 89.7127 27.1041 92.3055 33.1641C94.2072 37.61 91.5359 50.1633 89.2681 53.2456L84.8931 71.3583C84.8931 71.3583 89.5632 79.4096 90.4375 92.8894C90.9979 101.501 87.0077 111.092 87.0077 111.092" stroke="#263238" stroke-width="0.3884" stroke-miterlimit="10" stroke-linecap="round" stroke-linejoin="round"/>
<path d="M76.0989 117.985C76.0989 117.985 81.0044 121.007 83.8662 125.778" stroke="#263238" stroke-width="0.3884" stroke-miterlimit="10" stroke-linecap="round" stroke-linejoin="round"/>
<path d="M89.8769 123.698C89.8769 123.698 85.6514 124.3 81.8331 119.73C79.3859 116.801 71.9548 115.479 70.2437 107.827" stroke="#263238" stroke-width="0.3884" stroke-miterlimit="10" stroke-linecap="round" stroke-linejoin="round"/>
<path d="M124.23 11.1926C123.261 14.8233 119.531 16.9859 115.901 16.0176C112.27 15.0492 110.107 11.3192 111.076 7.6885C112.044 4.0578 115.774 1.89518 119.405 2.86351C123.036 3.83184 125.195 7.55754 124.23 11.1926Z" fill="white" stroke="#263238" stroke-width="0.3" stroke-miterlimit="10"/>
<path d="M119.706 7.91145L119.527 8.43625L115.214 8.32101L115.388 7.79608L119.706 7.91145ZM118.075 13.2486L115.576 10.1093L115.582 9.66481L116.371 9.68588C116.757 9.6962 117.079 9.63151 117.336 9.49182C117.593 9.35213 117.789 9.1642 117.925 8.92803C118.061 8.69186 118.133 8.43565 118.141 8.1594C118.15 7.82657 118.086 7.53509 117.949 7.28497C117.813 7.03485 117.608 6.83787 117.335 6.69403C117.063 6.54686 116.725 6.4679 116.323 6.45714L115.339 6.43086L115.523 5.90619L116.337 5.92793C116.856 5.94181 117.298 6.04021 117.663 6.22315C118.028 6.40277 118.302 6.65824 118.487 6.98957C118.674 7.321 118.762 7.71803 118.75 8.18066C118.74 8.55676 118.652 8.90248 118.487 9.21782C118.326 9.52992 118.074 9.778 117.733 9.96207C117.395 10.1429 116.955 10.2261 116.412 10.2116L118.785 13.2026L118.784 13.2675L118.075 13.2486ZM119.757 6.0193L119.578 6.5441L115.709 6.44073L115.887 5.91593L119.757 6.0193Z" fill="#263238"/>
<path d="M130.496 9.95215C130.958 12.6074 129.174 15.1075 126.507 15.5392C123.84 15.971 121.306 14.1708 120.843 11.5155C120.38 8.86023 122.165 6.36018 124.832 5.92841C127.497 5.50023 130.032 7.30048 130.496 9.95215Z" fill="#00C802" stroke="#263238" stroke-width="0.3" stroke-miterlimit="10"/>
<path d="M127.319 9.61614L127.182 9.97904L124.131 9.78564L124.264 9.42252L127.319 9.61614ZM126.063 13.3116L124.353 11.0476L124.367 10.7365L124.925 10.7718C125.198 10.7891 125.427 10.7522 125.611 10.6611C125.796 10.57 125.938 10.4435 126.039 10.2816C126.14 10.1198 126.196 9.9422 126.206 9.74891C126.219 9.51603 126.179 9.31021 126.087 9.13147C125.995 8.95272 125.854 8.80941 125.664 8.70154C125.474 8.59135 125.236 8.52722 124.951 8.50917L124.255 8.46507L124.395 8.1024L124.971 8.13888C125.339 8.16216 125.65 8.24263 125.904 8.38029C126.159 8.51563 126.349 8.70173 126.473 8.93861C126.6 9.17564 126.654 9.45601 126.637 9.77971C126.623 10.0429 126.554 10.2827 126.431 10.4993C126.311 10.7136 126.128 10.8808 125.883 11.0008C125.641 11.1187 125.327 11.1654 124.944 11.1411L126.567 13.298L126.565 13.3434L126.063 13.3116ZM127.391 8.29221L127.254 8.6551L124.517 8.48163L124.653 8.11874L127.391 8.29221Z" fill="white"/>
<path d="M113.602 9.65392C114.225 12.2775 112.597 14.8852 109.964 15.4815C107.33 16.0779 104.693 14.4366 104.07 11.813C103.447 9.18939 105.075 6.58172 107.708 5.98536C110.341 5.39266 112.978 7.03397 113.602 9.65392Z" fill="#00C802" stroke="#263238" stroke-width="0.3" stroke-miterlimit="10"/>
<path d="M110.391 9.51265L110.278 9.8848L107.266 9.8797L107.375 9.50754L110.391 9.51265ZM109.378 13.2941L107.561 11.1307L107.555 10.8181L108.106 10.819C108.376 10.8195 108.598 10.7683 108.774 10.6656C108.95 10.5628 109.083 10.4272 109.172 10.2588C109.262 10.0903 109.306 9.90891 109.304 9.71454C109.303 9.48036 109.251 9.27654 109.15 9.10307C109.049 8.92961 108.902 8.79471 108.708 8.69837C108.514 8.59968 108.277 8.5501 107.996 8.54963L107.309 8.54846L107.425 8.17631L107.993 8.17728C108.356 8.17789 108.666 8.2393 108.925 8.36152C109.184 8.48139 109.382 8.65618 109.518 8.88591C109.657 9.11564 109.727 9.39326 109.73 9.71878C109.732 9.9834 109.679 10.228 109.571 10.4527C109.466 10.675 109.296 10.8538 109.062 10.9892C108.831 11.1223 108.526 11.1886 108.147 11.1879L109.873 13.2493L109.873 13.2949L109.378 13.2941ZM110.381 8.18132L110.269 8.55348L107.567 8.5489L107.68 8.17675L110.381 8.18132Z" fill="white"/>
<path d="M144.535 22.3049V19.6205C144.535 17.0174 142.426 14.9087 139.823 14.9087H122.243L122.228 14.9619C121.79 16.5387 120.779 17.5649 119.662 17.5649H119.021C117.901 17.5649 116.893 16.5387 116.455 14.9619L116.44 14.9087H98.8532C96.2533 14.9087 94.1445 17.0174 94.1445 19.6174V22.3049H144.535Z" fill="#263238" stroke="#263238" stroke-width="0.412583" stroke-miterlimit="10"/>
<path d="M94.1418 111.905V114.436C94.1418 117.039 96.2506 119.147 98.8537 119.147H139.824C142.427 119.147 144.536 117.039 144.536 114.436V111.905H94.1418Z" fill="#263238" stroke="#263238" stroke-width="0.412583" stroke-miterlimit="10"/>
<path d="M147.739 42.2656V32.7952H146.881V20.6717C146.881 16.545 143.537 13.1974 139.407 13.1974H99.2666C95.1399 13.1974 91.7922 16.5419 91.7922 20.6717V117.009C91.7922 121.135 95.1368 124.483 99.2666 124.483H139.407C143.534 124.483 146.881 121.139 146.881 117.009V50.3375H147.739V44.7403H146.881V42.2656H147.739ZM144.535 111.671C144.535 115.801 141.187 119.146 137.061 119.146H101.616C97.4895 119.146 94.1418 115.801 94.1418 111.671V22.3799C94.1418 18.2533 97.4895 14.9088 101.616 14.9088H116.437L116.452 14.9619C116.89 16.5388 117.901 17.565 119.018 17.565H119.659C120.779 17.565 121.786 16.5388 122.225 14.9619L122.24 14.9088H137.057C141.184 14.9088 144.532 18.2533 144.532 22.3799V111.671H144.535Z" fill="#92E3A9" stroke="#263238" stroke-width="0.412583" stroke-miterlimit="10" stroke-linecap="round" stroke-linejoin="round"/>
<path d="M138.809 14.2292H99.8672C95.8876 14.2292 92.6588 17.4549 92.6588 21.4376V116.248C92.6588 120.228 95.8844 123.456 99.8672 123.456H138.809C142.789 123.456 146.018 120.231 146.018 116.248V21.4345C146.018 17.4549 142.789 14.2292 138.809 14.2292ZM144.535 111.937C144.535 115.916 141.309 119.145 137.326 119.145H101.35C97.3705 119.145 94.1418 115.919 94.1418 111.937V22.1134C94.1418 18.1338 97.3674 14.9082 101.347 14.9082H116.436L116.452 14.9614C116.89 16.5382 117.901 17.5644 119.018 17.5644H119.659C120.779 17.5644 121.786 16.5382 122.224 14.9614L122.24 14.9082H137.323C141.303 14.9082 144.532 18.1338 144.532 22.1165V111.937H144.535Z" fill="#263238" stroke="#263238" stroke-width="0.412583" stroke-miterlimit="10" stroke-linecap="round" stroke-linejoin="round"/>
<path d="M99.1815 17.9549C99.1815 18.6651 98.3837 18.9216 98.3805 19.4629V19.5005H99.1533V19.7382H98.1208V19.5349C98.1208 18.7746 98.9187 18.6275 98.9187 17.9643C98.9187 17.7234 98.8373 17.5951 98.6433 17.5951C98.4525 17.5951 98.368 17.7327 98.368 17.9424V18.152H98.124V17.9611C98.124 17.6013 98.2898 17.3636 98.6527 17.3636C99.0157 17.3604 99.1815 17.5951 99.1815 17.9549Z" fill="white"/>
<path d="M100.467 17.9505V18.01C100.467 18.2509 100.37 18.423 100.182 18.4949C100.379 18.57 100.467 18.7484 100.467 18.983V19.1645C100.467 19.5243 100.298 19.7589 99.9348 19.7589C99.575 19.7589 99.4061 19.5243 99.4061 19.1645V19.0018H99.6501V19.1801C99.6501 19.3929 99.7377 19.5211 99.9254 19.5211C100.116 19.5211 100.201 19.396 100.201 19.1582V18.9768C100.201 18.7452 100.104 18.6326 99.9035 18.6263H99.7628V18.3917H99.9161C100.091 18.3854 100.198 18.2728 100.198 18.0694V17.9631C100.198 17.7221 100.113 17.597 99.9223 17.597C99.7346 17.597 99.647 17.7284 99.647 17.9412V18.0632H99.403V17.9568C99.403 17.597 99.5719 17.3655 99.9317 17.3655C100.301 17.3592 100.467 17.5907 100.467 17.9505Z" fill="white"/>
<path d="M100.978 18.1324V18.4578H100.724V18.1324H100.978ZM100.978 19.4152V19.7406H100.724V19.4152H100.978Z" fill="white"/>
<path d="M101.509 18.3441C101.584 18.2158 101.7 18.1501 101.859 18.1501C102.163 18.1501 102.297 18.3722 102.297 18.707V19.1669C102.297 19.5267 102.125 19.7613 101.765 19.7613C101.406 19.7613 101.237 19.5267 101.237 19.1669V19.0073H101.481V19.1825C101.481 19.3953 101.568 19.5236 101.756 19.5236C101.944 19.5236 102.031 19.3953 102.031 19.1825V18.7258C102.031 18.513 101.944 18.3847 101.756 18.3847C101.612 18.3847 101.515 18.4661 101.49 18.6381V18.6913H101.246L101.309 17.3835H102.238V17.6182H101.546L101.509 18.3441Z" fill="white"/>
<path d="M103.607 17.9494V17.9932H103.363V17.9337C103.363 17.721 103.275 17.5989 103.084 17.5989C102.887 17.5989 102.799 17.7272 102.799 17.9775V18.5063C102.862 18.3436 102.99 18.2528 103.181 18.2528C103.485 18.2528 103.619 18.4718 103.619 18.8097V19.1664C103.619 19.5262 103.441 19.7609 103.081 19.7609C102.718 19.7609 102.54 19.5262 102.54 19.1664V17.965C102.54 17.5927 102.709 17.358 103.081 17.358C103.438 17.3612 103.607 17.5896 103.607 17.9494ZM102.796 18.8316V19.1852C102.796 19.3979 102.884 19.5262 103.075 19.5262C103.262 19.5262 103.353 19.3979 103.353 19.1852V18.8316C103.353 18.6189 103.262 18.4906 103.075 18.4906C102.884 18.4906 102.796 18.6189 102.796 18.8316Z" fill="white"/>
<path d="M129.309 18.0505H128.646V19.7119H129.309V18.0505Z" fill="white"/>
<path d="M130.199 17.72H129.532V19.7161H130.199V17.72Z" fill="white"/>
<path d="M131.083 17.4825H130.417V19.7133H131.083V17.4825Z" fill="white"/>
<path d="M131.968 17.0717H131.305V19.7154H131.968V17.0717Z" fill="white"/>
<path d="M140.198 19.6643H136.209V17.2271H140.198V19.6643ZM136.431 19.4422H139.976V17.4492H136.431V19.4422Z" fill="white"/>
<path d="M138.869 17.6919H136.763V19.2031H138.869V17.6919Z" fill="white"/>
<path d="M140.561 18.1619H140.061V18.7375H140.561V18.1619Z" fill="white"/>
<path d="M134.744 19.1421C134.719 19.1421 134.69 19.1359 134.669 19.1202C133.858 18.6384 133.32 19.0858 133.298 19.1046C133.236 19.1578 133.142 19.1515 133.089 19.0889C133.035 19.0263 133.042 18.9325 133.101 18.8793C133.129 18.8543 133.818 18.2661 134.822 18.8637C134.894 18.9043 134.916 18.9982 134.875 19.067C134.844 19.114 134.797 19.1421 134.744 19.1421Z" fill="white"/>
<path d="M135.044 18.637C135.019 18.637 134.991 18.6307 134.969 18.6151C133.796 17.9174 133.008 18.5932 132.998 18.5995C132.936 18.6526 132.842 18.6464 132.789 18.5869C132.735 18.5244 132.739 18.4305 132.801 18.3773C132.81 18.3679 133.762 17.5545 135.123 18.3617C135.195 18.4024 135.216 18.4962 135.176 18.565C135.144 18.612 135.098 18.637 135.044 18.637Z" fill="white"/>
<path d="M135.319 18.0594C135.294 18.0594 135.265 18.0532 135.244 18.0375C133.757 17.1521 132.769 17.9843 132.728 18.0219C132.666 18.0751 132.572 18.0688 132.518 18.0062C132.465 17.9437 132.472 17.8498 132.531 17.7966C132.543 17.7872 133.717 16.7829 135.397 17.781C135.469 17.8216 135.491 17.9155 135.45 17.9843C135.419 18.0344 135.369 18.0594 135.319 18.0594Z" fill="white"/>
<path d="M134.297 19.3873C134.297 19.5938 134.131 19.7596 133.925 19.7596C133.718 19.7596 133.552 19.5938 133.552 19.3873C133.552 19.1808 133.718 19.015 133.925 19.015C134.131 19.015 134.297 19.1808 134.297 19.3873Z" fill="white"/>
<rect x="94.1436" y="22.3037" width="50.3896" height="89.5984" fill="white"/>
<path d="M127.994 103.088H110.684C108.447 103.088 106.635 101.276 106.635 99.038C106.635 96.8002 108.447 94.9883 110.684 94.9883H127.994C130.232 94.9883 132.044 96.8002 132.044 99.038C132.044 101.276 130.232 103.088 127.994 103.088Z" fill="#00C802"/>
<path d="M115.326 97.9532C115.301 97.7399 115.198 97.5743 115.019 97.4564C114.839 97.3385 114.619 97.2796 114.358 97.2796C114.167 97.2796 114 97.3104 113.857 97.3722C113.715 97.4339 113.604 97.5189 113.524 97.6269C113.445 97.735 113.406 97.8578 113.406 97.9953C113.406 98.1104 113.433 98.2094 113.488 98.2922C113.544 98.3736 113.616 98.4416 113.703 98.4964C113.79 98.5497 113.881 98.5939 113.977 98.629C114.072 98.6627 114.16 98.6901 114.24 98.7111L114.678 98.829C114.79 98.8585 114.915 98.8992 115.052 98.9511C115.191 99.003 115.324 99.0739 115.45 99.1637C115.578 99.2522 115.683 99.3658 115.766 99.5048C115.849 99.6437 115.89 99.8143 115.89 100.016C115.89 100.249 115.829 100.46 115.707 100.648C115.586 100.836 115.41 100.985 115.177 101.096C114.945 101.207 114.664 101.263 114.332 101.263C114.024 101.263 113.756 101.213 113.53 101.113C113.306 101.014 113.129 100.875 113 100.696C112.872 100.518 112.8 100.311 112.783 100.075H113.322C113.336 100.238 113.391 100.373 113.486 100.48C113.583 100.585 113.705 100.663 113.852 100.715C114.001 100.766 114.161 100.791 114.332 100.791C114.532 100.791 114.711 100.759 114.869 100.694C115.028 100.628 115.153 100.537 115.246 100.421C115.339 100.303 115.385 100.165 115.385 100.008C115.385 99.8648 115.345 99.7483 115.265 99.6585C115.185 99.5686 115.08 99.4957 114.949 99.4395C114.819 99.3834 114.678 99.3343 114.526 99.2922L113.996 99.1406C113.659 99.0437 113.392 98.9055 113.196 98.7258C112.999 98.5462 112.901 98.3111 112.901 98.0206C112.901 97.7792 112.966 97.5687 113.097 97.389C113.229 97.208 113.405 97.0676 113.627 96.968C113.85 96.8669 114.099 96.8164 114.375 96.8164C114.652 96.8164 114.899 96.8662 115.116 96.9659C115.332 97.0641 115.503 97.1989 115.629 97.3701C115.757 97.5413 115.824 97.7357 115.831 97.9532H115.326Z" fill="white"/>
<path d="M117.995 101.254C117.692 101.254 117.431 101.183 117.212 101.039C116.993 100.896 116.824 100.699 116.707 100.448C116.589 100.197 116.53 99.9097 116.53 99.5869C116.53 99.2585 116.59 98.9687 116.711 98.7174C116.833 98.4648 117.003 98.2676 117.22 98.1259C117.439 97.9827 117.695 97.9111 117.987 97.9111C118.214 97.9111 118.419 97.9532 118.601 98.0374C118.784 98.1216 118.933 98.2395 119.05 98.3911C119.166 98.5427 119.238 98.7195 119.267 98.9216H118.77C118.732 98.7743 118.648 98.6437 118.517 98.5301C118.388 98.415 118.214 98.3574 117.995 98.3574C117.801 98.3574 117.631 98.408 117.486 98.509C117.341 98.6087 117.228 98.7497 117.147 98.9322C117.067 99.1132 117.027 99.3258 117.027 99.57C117.027 99.8199 117.066 100.037 117.144 100.223C117.224 100.408 117.337 100.552 117.481 100.654C117.627 100.757 117.798 100.808 117.995 100.808C118.124 100.808 118.241 100.785 118.347 100.741C118.452 100.696 118.541 100.631 118.614 100.547C118.687 100.463 118.739 100.362 118.77 100.244H119.267C119.238 100.435 119.169 100.607 119.058 100.76C118.949 100.911 118.803 101.032 118.622 101.122C118.443 101.21 118.234 101.254 117.995 101.254Z" fill="white"/>
<path d="M120.944 101.263C120.739 101.263 120.554 101.224 120.387 101.147C120.22 101.068 120.087 100.955 119.989 100.808C119.89 100.659 119.841 100.48 119.841 100.269C119.841 100.084 119.878 99.9335 119.951 99.8185C120.024 99.702 120.121 99.6107 120.243 99.5448C120.365 99.4788 120.5 99.4297 120.648 99.3974C120.796 99.3637 120.946 99.3371 121.096 99.3174C121.292 99.2922 121.452 99.2732 121.574 99.2606C121.697 99.2465 121.787 99.2234 121.843 99.1911C121.901 99.1588 121.93 99.1027 121.93 99.0227V99.0058C121.93 98.7981 121.873 98.6367 121.759 98.5216C121.647 98.4066 121.476 98.349 121.248 98.349C121.01 98.349 120.824 98.4009 120.69 98.5048C120.555 98.6087 120.46 98.7195 120.405 98.8374L119.934 98.669C120.018 98.4725 120.13 98.3195 120.271 98.2101C120.412 98.0992 120.567 98.022 120.734 97.9785C120.902 97.9336 121.068 97.9111 121.231 97.9111C121.335 97.9111 121.454 97.9238 121.589 97.949C121.725 97.9729 121.856 98.0227 121.982 98.0985C122.11 98.1743 122.216 98.2887 122.3 98.4416C122.384 98.5946 122.426 98.7995 122.426 99.0564V101.187H121.93V100.749H121.904C121.871 100.819 121.815 100.894 121.736 100.974C121.657 101.054 121.553 101.122 121.422 101.178C121.292 101.235 121.132 101.263 120.944 101.263ZM121.02 100.816C121.217 100.816 121.382 100.778 121.517 100.701C121.653 100.623 121.756 100.524 121.824 100.402C121.895 100.28 121.93 100.151 121.93 100.016V99.5616C121.909 99.5869 121.862 99.61 121.791 99.6311C121.721 99.6507 121.639 99.6683 121.547 99.6837C121.455 99.6978 121.366 99.7104 121.279 99.7216C121.194 99.7314 121.124 99.7399 121.071 99.7469C120.942 99.7637 120.821 99.7911 120.709 99.829C120.598 99.8655 120.508 99.9209 120.439 99.9953C120.372 100.068 120.338 100.168 120.338 100.294C120.338 100.467 120.402 100.597 120.53 100.686C120.659 100.773 120.822 100.816 121.02 100.816Z" fill="white"/>
<path d="M123.83 99.2416V101.187H123.333V97.9532H123.813V98.4585H123.855C123.931 98.2943 124.046 98.1624 124.201 98.0627C124.355 97.9617 124.554 97.9111 124.799 97.9111C125.017 97.9111 125.209 97.956 125.373 98.0459C125.537 98.1343 125.665 98.269 125.756 98.4501C125.848 98.6297 125.893 98.8571 125.893 99.1322V101.187H125.396V99.1658C125.396 98.9118 125.33 98.7139 125.199 98.5722C125.067 98.429 124.886 98.3574 124.655 98.3574C124.497 98.3574 124.355 98.3918 124.23 98.4606C124.107 98.5294 124.009 98.6297 123.938 98.7616C123.866 98.8936 123.83 99.0536 123.83 99.2416Z" fill="white"/>
<g opacity="0.9">
<path d="M132.761 46.8641H105.921V73.7038H132.761V46.8641Z" fill="white"/>
</g>
<path d="M109.68 70.8893H108.613V71.9559H109.68V70.8893Z" fill="#263238"/>
<path d="M110.744 70.8893H109.677V71.9559H110.744V70.8893Z" fill="#263238"/>
<path d="M111.81 70.8893H110.744V71.9559H111.81V70.8893Z" fill="#263238"/>
<path d="M112.878 70.8893H111.812V71.9559H112.878V70.8893Z" fill="#263238"/>
<path d="M113.946 70.8893H112.879V71.9559H113.946V70.8893Z" fill="#263238"/>
<path d="M116.078 70.8893H115.012V71.9559H116.078V70.8893Z" fill="#263238"/>
<path d="M117.145 70.8893H116.078V71.9559H117.145V70.8893Z" fill="#263238"/>
<path d="M120.344 70.8893H119.278V71.9559H120.344V70.8893Z" fill="#263238"/>
<path d="M122.541 70.8893H121.411V71.9559H122.541V70.8893Z" fill="#263238"/>
<path d="M123.608 70.8893H122.541V71.9559H123.608V70.8893Z" fill="#263238"/>
<path d="M125.74 70.8893H124.673V71.9559H125.74V70.8893Z" fill="#263238"/>
<path d="M126.808 70.8893H125.741V71.9559H126.808V70.8893Z" fill="#263238"/>
<path d="M127.873 70.8893H126.806V71.9559H127.873V70.8893Z" fill="#263238"/>
<path d="M128.941 70.8893H127.874V71.9559H128.941V70.8893Z" fill="#263238"/>
<path d="M130.008 70.8893H128.942V71.9559H130.008V70.8893Z" fill="#263238"/>
<path d="M131.137 70.8893H130.008V71.9559H131.137V70.8893Z" fill="#263238"/>
<path d="M108.612 70.8893H107.546V71.9559H108.612V70.8893Z" fill="#263238"/>
<path d="M113.946 69.8174H112.879V70.884H113.946V69.8174Z" fill="#263238"/>
<path d="M117.145 69.8174H116.078V70.884H117.145V69.8174Z" fill="#263238"/>
<path d="M119.278 69.8174H118.211V70.884H119.278V69.8174Z" fill="#263238"/>
<path d="M120.344 69.8174H119.278V70.884H120.344V69.8174Z" fill="#263238"/>
<path d="M121.412 69.8174H120.345V70.884H121.412V69.8174Z" fill="#263238"/>
<path d="M122.541 69.8174H121.411V70.884H122.541V69.8174Z" fill="#263238"/>
<path d="M125.74 69.8174H124.673V70.884H125.74V69.8174Z" fill="#263238"/>
<path d="M131.137 69.8174H130.008V70.884H131.137V69.8174Z" fill="#263238"/>
<path d="M108.611 69.8174H107.545V70.884H108.611V69.8174Z" fill="#263238"/>
<path d="M110.744 68.7524H109.677V69.819H110.744V68.7524Z" fill="#263238"/>
<path d="M111.81 68.7524H110.744V69.819H111.81V68.7524Z" fill="#263238"/>
<path d="M113.946 68.7524H112.879V69.819H113.946V68.7524Z" fill="#263238"/>
<path d="M116.078 68.7524H115.012V69.819H116.078V68.7524Z" fill="#263238"/>
<path d="M117.145 68.7524H116.078V69.819H117.145V68.7524Z" fill="#263238"/>
<path d="M118.211 68.7524H117.144V69.819H118.211V68.7524Z" fill="#263238"/>
<path d="M120.344 68.7524H119.278V69.819H120.344V68.7524Z" fill="#263238"/>
<path d="M121.412 68.7524H120.345V69.819H121.412V68.7524Z" fill="#263238"/>
<path d="M122.541 68.7524H121.411V69.819H122.541V68.7524Z" fill="#263238"/>
<path d="M123.608 68.7524H122.541V69.819H123.608V68.7524Z" fill="#263238"/>
<path d="M125.74 68.7524H124.673V69.819H125.74V68.7524Z" fill="#263238"/>
<path d="M127.873 68.7524H126.806V69.819H127.873V68.7524Z" fill="#263238"/>
<path d="M128.941 68.7524H127.874V69.819H128.941V68.7524Z" fill="#263238"/>
<path d="M131.137 68.7524H130.008V69.819H131.137V68.7524Z" fill="#263238"/>
<path d="M108.612 68.7524H107.546V69.819H108.612V68.7524Z" fill="#263238"/>
<path d="M110.744 67.684H109.677V68.7506H110.744V67.684Z" fill="#263238"/>
<path d="M111.81 67.684H110.744V68.7506H111.81V67.684Z" fill="#263238"/>
<path d="M113.946 67.684H112.879V68.7506H113.946V67.684Z" fill="#263238"/>
<path d="M116.078 67.684H115.012V68.7506H116.078V67.684Z" fill="#263238"/>
<path d="M118.211 67.684H117.144V68.7506H118.211V67.684Z" fill="#263238"/>
<path d="M120.344 67.684H119.278V68.7506H120.344V67.684Z" fill="#263238"/>
<path d="M125.74 67.684H124.673V68.7506H125.74V67.684Z" fill="#263238"/>
<path d="M127.873 67.684H126.806V68.7506H127.873V67.684Z" fill="#263238"/>
<path d="M128.941 67.684H127.874V68.7506H128.941V67.684Z" fill="#263238"/>
<path d="M131.137 67.684H130.008V68.7506H131.137V67.684Z" fill="#263238"/>
<path d="M108.612 67.684H107.546V68.7506H108.612V67.684Z" fill="#263238"/>
<path d="M113.946 66.6189H112.879V67.6855H113.946V66.6189Z" fill="#263238"/>
<path d="M116.078 66.6189H115.012V67.6855H116.078V66.6189Z" fill="#263238"/>
<path d="M117.145 66.6189H116.078V67.6855H117.145V66.6189Z" fill="#263238"/>
<path d="M118.211 66.6189H117.144V67.6855H118.211V66.6189Z" fill="#263238"/>
<path d="M120.344 66.6189H119.278V67.6855H120.344V66.6189Z" fill="#263238"/>
<path d="M121.412 66.6189H120.345V67.6855H121.412V66.6189Z" fill="#263238"/>
<path d="M123.608 66.6189H122.541V67.6855H123.608V66.6189Z" fill="#263238"/>
<path d="M125.74 66.6189H124.673V67.6855H125.74V66.6189Z" fill="#263238"/>
<path d="M131.137 66.6189H130.008V67.6855H131.137V66.6189Z" fill="#263238"/>
<path d="M108.612 66.6189H107.546V67.6855H108.612V66.6189Z" fill="#263238"/>
<path d="M109.68 65.5538H108.613V66.6204H109.68V65.5538Z" fill="#263238"/>
<path d="M110.744 65.5538H109.677V66.6204H110.744V65.5538Z" fill="#263238"/>
<path d="M111.81 65.5538H110.744V66.6204H111.81V65.5538Z" fill="#263238"/>
<path d="M112.878 65.5538H111.812V66.6204H112.878V65.5538Z" fill="#263238"/>
<path d="M113.946 65.5538H112.879V66.6204H113.946V65.5538Z" fill="#263238"/>
<path d="M116.078 65.5538H115.012V66.6204H116.078V65.5538Z" fill="#263238"/>
<path d="M118.211 65.5538H117.144V66.6204H118.211V65.5538Z" fill="#263238"/>
<path d="M119.278 65.5538H118.211V66.6204H119.278V65.5538Z" fill="#263238"/>
<path d="M121.412 65.5538H120.345V66.6204H121.412V65.5538Z" fill="#263238"/>
<path d="M125.74 65.5538H124.673V66.6204H125.74V65.5538Z" fill="#263238"/>
<path d="M126.808 65.5538H125.741V66.6204H126.808V65.5538Z" fill="#263238"/>
<path d="M127.873 65.5538H126.806V66.6204H127.873V65.5538Z" fill="#263238"/>
<path d="M128.941 65.5538H127.874V66.6204H128.941V65.5538Z" fill="#263238"/>
<path d="M130.008 65.5538H128.942V66.6204H130.008V65.5538Z" fill="#263238"/>
<path d="M131.137 65.5538H130.008V66.6204H131.137V65.5538Z" fill="#263238"/>
<path d="M108.611 65.5538H107.545V66.6204H108.611V65.5538Z" fill="#263238"/>
<path d="M119.278 64.4855H118.211V65.5521H119.278V64.4855Z" fill="#263238"/>
<path d="M120.344 64.4855H119.278V65.5521H120.344V64.4855Z" fill="#263238"/>
<path d="M121.412 64.4855H120.345V65.5521H121.412V64.4855Z" fill="#263238"/>
<path d="M123.608 64.4855H122.541V65.5521H123.608V64.4855Z" fill="#263238"/>
<path d="M109.68 63.4224H108.613V64.489H109.68V63.4224Z" fill="#263238"/>
<path d="M110.744 63.4224H109.677V64.489H110.744V63.4224Z" fill="#263238"/>
<path d="M111.81 63.4224H110.744V64.489H111.81V63.4224Z" fill="#263238"/>
<path d="M112.878 63.4224H111.812V64.489H112.878V63.4224Z" fill="#263238"/>
<path d="M116.078 63.4224H115.012V64.489H116.078V63.4224Z" fill="#263238"/>
<path d="M117.145 63.4224H116.078V64.489H117.145V63.4224Z" fill="#263238"/>
<path d="M118.211 63.4224H117.144V64.489H118.211V63.4224Z" fill="#263238"/>
<path d="M120.344 63.4224H119.278V64.489H120.344V63.4224Z" fill="#263238"/>
<path d="M121.412 63.4224H120.345V64.489H121.412V63.4224Z" fill="#263238"/>
<path d="M122.541 63.4224H121.411V64.489H122.541V63.4224Z" fill="#263238"/>
<path d="M123.608 63.4224H122.541V64.489H123.608V63.4224Z" fill="#263238"/>
<path d="M124.675 63.4224H123.608V64.489H124.675V63.4224Z" fill="#263238"/>
<path d="M125.74 63.4224H124.673V64.489H125.74V63.4224Z" fill="#263238"/>
<path d="M126.808 63.4224H125.741V64.489H126.808V63.4224Z" fill="#263238"/>
<path d="M127.873 63.4224H126.806V64.489H127.873V63.4224Z" fill="#263238"/>
<path d="M130.008 63.4224H128.942V64.489H130.008V63.4224Z" fill="#263238"/>
<path d="M131.137 63.4224H130.008V64.489H131.137V63.4224Z" fill="#263238"/>
<path d="M110.744 62.3502H109.677V63.4168H110.744V62.3502Z" fill="#263238"/>
<path d="M111.81 62.3502H110.744V63.4168H111.81V62.3502Z" fill="#263238"/>
<path d="M115.012 62.3502H113.946V63.4168H115.012V62.3502Z" fill="#263238"/>
<path d="M116.078 62.3502H115.012V63.4168H116.078V62.3502Z" fill="#263238"/>
<path d="M118.211 62.3502H117.144V63.4168H118.211V62.3502Z" fill="#263238"/>
<path d="M121.412 62.3502H120.345V63.4168H121.412V62.3502Z" fill="#263238"/>
<path d="M123.608 62.3502H122.541V63.4168H123.608V62.3502Z" fill="#263238"/>
<path d="M124.675 62.3502H123.608V63.4168H124.675V62.3502Z" fill="#263238"/>
<path d="M126.806 62.3502H125.74V63.4168H126.806V62.3502Z" fill="#263238"/>
<path d="M127.873 62.3502H126.806V63.4168H127.873V62.3502Z" fill="#263238"/>
<path d="M109.68 61.2872H108.613V62.3538H109.68V61.2872Z" fill="#263238"/>
<path d="M111.81 61.2872H110.744V62.3538H111.81V61.2872Z" fill="#263238"/>
<path d="M112.878 61.2872H111.812V62.3538H112.878V61.2872Z" fill="#263238"/>
<path d="M113.946 61.2872H112.879V62.3538H113.946V61.2872Z" fill="#263238"/>
<path d="M115.012 61.2872H113.946V62.3538H115.012V61.2872Z" fill="#263238"/>
<path d="M117.145 61.2872H116.078V62.3538H117.145V61.2872Z" fill="#263238"/>
<path d="M118.211 61.2872H117.144V62.3538H118.211V61.2872Z" fill="#263238"/>
<path d="M119.278 61.2872H118.211V62.3538H119.278V61.2872Z" fill="#263238"/>
<path d="M120.344 61.2872H119.278V62.3538H120.344V61.2872Z" fill="#263238"/>
<path d="M121.412 61.2872H120.345V62.3538H121.412V61.2872Z" fill="#263238"/>
<path d="M122.541 61.2872H121.411V62.3538H122.541V61.2872Z" fill="#263238"/>
<path d="M127.873 61.2872H126.806V62.3538H127.873V61.2872Z" fill="#263238"/>
<path d="M128.941 61.2872H127.874V62.3538H128.941V61.2872Z" fill="#263238"/>
<path d="M131.137 61.2872H130.008V62.3538H131.137V61.2872Z" fill="#263238"/>
<path d="M108.612 61.2872H107.546V62.3538H108.612V61.2872Z" fill="#263238"/>
<path d="M109.68 60.2205H108.613V61.2871H109.68V60.2205Z" fill="#263238"/>
<path d="M110.744 60.2205H109.677V61.2871H110.744V60.2205Z" fill="#263238"/>
<path d="M111.81 60.2205H110.744V61.2871H111.81V60.2205Z" fill="#263238"/>
<path d="M116.078 60.2205H115.012V61.2871H116.078V60.2205Z" fill="#263238"/>
<path d="M117.145 60.2205H116.078V61.2871H117.145V60.2205Z" fill="#263238"/>
<path d="M121.412 60.2205H120.345V61.2871H121.412V60.2205Z" fill="#263238"/>
<path d="M124.675 60.2205H123.608V61.2871H124.675V60.2205Z" fill="#263238"/>
<path d="M125.74 60.2205H124.673V61.2871H125.74V60.2205Z" fill="#263238"/>
<path d="M127.873 60.2205H126.806V61.2871H127.873V60.2205Z" fill="#263238"/>
<path d="M128.941 60.2205H127.874V61.2871H128.941V60.2205Z" fill="#263238"/>
<path d="M130.008 60.2205H128.942V61.2871H130.008V60.2205Z" fill="#263238"/>
<path d="M131.137 60.2205H130.008V61.2871H131.137V60.2205Z" fill="#263238"/>
<path d="M108.612 60.2205H107.546V61.2871H108.612V60.2205Z" fill="#263238"/>
<path d="M111.81 59.152H110.744V60.2186H111.81V59.152Z" fill="#263238"/>
<path d="M112.878 59.152H111.812V60.2186H112.878V59.152Z" fill="#263238"/>
<path d="M113.946 59.152H112.879V60.2186H113.946V59.152Z" fill="#263238"/>
<path d="M115.012 59.152H113.946V60.2186H115.012V59.152Z" fill="#263238"/>
<path d="M116.078 59.152H115.012V60.2186H116.078V59.152Z" fill="#263238"/>
<path d="M117.145 59.152H116.078V60.2186H117.145V59.152Z" fill="#263238"/>
<path d="M120.344 59.152H119.278V60.2186H120.344V59.152Z" fill="#263238"/>
<path d="M123.608 59.152H122.541V60.2186H123.608V59.152Z" fill="#263238"/>
<path d="M124.675 59.152H123.608V60.2186H124.675V59.152Z" fill="#263238"/>
<path d="M128.941 59.152H127.874V60.2186H128.941V59.152Z" fill="#263238"/>
<path d="M108.612 59.152H107.546V60.2186H108.612V59.152Z" fill="#263238"/>
<path d="M109.68 58.0869H108.613V59.1535H109.68V58.0869Z" fill="#263238"/>
<path d="M110.744 58.0869H109.677V59.1535H110.744V58.0869Z" fill="#263238"/>
<path d="M111.811 58.0869H110.745V59.1535H111.811V58.0869Z" fill="#263238"/>
<path d="M112.878 58.0869H111.812V59.1535H112.878V58.0869Z" fill="#263238"/>
<path d="M115.012 58.0869H113.946V59.1535H115.012V58.0869Z" fill="#263238"/>
<path d="M117.145 58.0869H116.078V59.1535H117.145V58.0869Z" fill="#263238"/>
<path d="M118.211 58.0869H117.144V59.1535H118.211V58.0869Z" fill="#263238"/>
<path d="M120.344 58.0869H119.278V59.1535H120.344V58.0869Z" fill="#263238"/>
<path d="M121.412 58.0869H120.345V59.1535H121.412V58.0869Z" fill="#263238"/>
<path d="M122.541 58.0869H121.411V59.1535H122.541V58.0869Z" fill="#263238"/>
<path d="M123.608 58.0869H122.541V59.1535H123.608V58.0869Z" fill="#263238"/>
<path d="M125.74 58.0869H124.673V59.1535H125.74V58.0869Z" fill="#263238"/>
<path d="M126.808 58.0869H125.741V59.1535H126.808V58.0869Z" fill="#263238"/>
<path d="M127.873 58.0869H126.806V59.1535H127.873V58.0869Z" fill="#263238"/>
<path d="M128.941 58.0869H127.874V59.1535H128.941V58.0869Z" fill="#263238"/>
<path d="M131.137 58.0869H130.008V59.1535H131.137V58.0869Z" fill="#263238"/>
<path d="M109.68 57.0203H108.613V58.0869H109.68V57.0203Z" fill="#263238"/>
<path d="M111.81 57.0203H110.744V58.0869H111.81V57.0203Z" fill="#263238"/>
<path d="M113.946 57.0201H112.879V58.0867H113.946V57.0201Z" fill="#263238"/>
<path d="M115.012 57.0201H113.946V58.0867H115.012V57.0201Z" fill="#263238"/>
<path d="M118.211 57.0203H117.144V58.0869H118.211V57.0203Z" fill="#263238"/>
<path d="M119.278 57.0203H118.211V58.0869H119.278V57.0203Z" fill="#263238"/>
<path d="M120.344 57.0201H119.278V58.0867H120.344V57.0201Z" fill="#263238"/>
<path d="M122.541 57.0203H121.411V58.0869H122.541V57.0203Z" fill="#263238"/>
<path d="M123.608 57.0201H122.541V58.0867H123.608V57.0201Z" fill="#263238"/>
<path d="M124.675 57.0203H123.608V58.0869H124.675V57.0203Z" fill="#263238"/>
<path d="M126.808 57.0203H125.741V58.0869H126.808V57.0203Z" fill="#263238"/>
<path d="M128.941 57.0203H127.874V58.0869H128.941V57.0203Z" fill="#263238"/>
<path d="M130.008 57.0201H128.942V58.0867H130.008V57.0201Z" fill="#263238"/>
<path d="M131.137 57.0203H130.008V58.0869H131.137V57.0203Z" fill="#263238"/>
<path d="M108.612 57.0203H107.546V58.0869H108.612V57.0203Z" fill="#263238"/>
<path d="M109.68 55.9552H108.613V57.0218H109.68V55.9552Z" fill="#263238"/>
<path d="M113.946 55.9552H112.879V57.0218H113.946V55.9552Z" fill="#263238"/>
<path d="M115.012 55.9552H113.946V57.0218H115.012V55.9552Z" fill="#263238"/>
<path d="M117.145 55.9552H116.078V57.0218H117.145V55.9552Z" fill="#263238"/>
<path d="M118.211 55.9552H117.144V57.0218H118.211V55.9552Z" fill="#263238"/>
<path d="M120.344 55.9552H119.278V57.0218H120.344V55.9552Z" fill="#263238"/>
<path d="M121.412 55.9552H120.345V57.0218H121.412V55.9552Z" fill="#263238"/>
<path d="M123.608 55.9552H122.541V57.0218H123.608V55.9552Z" fill="#263238"/>
<path d="M124.675 55.9552H123.608V57.0218H124.675V55.9552Z" fill="#263238"/>
<path d="M125.74 55.9552H124.673V57.0218H125.74V55.9552Z" fill="#263238"/>
<path d="M126.806 55.9552H125.74V57.0218H126.806V55.9552Z" fill="#263238"/>
<path d="M127.873 55.9552H126.806V57.0218H127.873V55.9552Z" fill="#263238"/>
<path d="M128.941 55.9552H127.874V57.0218H128.941V55.9552Z" fill="#263238"/>
<path d="M108.612 55.9552H107.546V57.0218H108.612V55.9552Z" fill="#263238"/>
<path d="M117.145 54.8867H116.078V55.9533H117.145V54.8867Z" fill="#263238"/>
<path d="M119.278 54.8867H118.211V55.9533H119.278V54.8867Z" fill="#263238"/>
<path d="M120.344 54.8867H119.278V55.9533H120.344V54.8867Z" fill="#263238"/>
<path d="M122.541 54.8867H121.411V55.9533H122.541V54.8867Z" fill="#263238"/>
<path d="M123.608 54.8867H122.541V55.9533H123.608V54.8867Z" fill="#263238"/>
<path d="M124.675 54.8867H123.608V55.9533H124.675V54.8867Z" fill="#263238"/>
<path d="M109.68 53.8201H108.613V54.8867H109.68V53.8201Z" fill="#263238"/>
<path d="M110.744 53.8201H109.677V54.8867H110.744V53.8201Z" fill="#263238"/>
<path d="M111.81 53.8201H110.744V54.8867H111.81V53.8201Z" fill="#263238"/>
<path d="M112.878 53.8201H111.812V54.8867H112.878V53.8201Z" fill="#263238"/>
<path d="M113.946 53.8201H112.879V54.8867H113.946V53.8201Z" fill="#263238"/>
<path d="M116.078 53.8201H115.012V54.8867H116.078V53.8201Z" fill="#263238"/>
<path d="M117.145 53.8201H116.078V54.8867H117.145V53.8201Z" fill="#263238"/>
<path d="M120.344 53.8201H119.278V54.8867H120.344V53.8201Z" fill="#263238"/>
<path d="M124.675 53.8201H123.608V54.8867H124.675V53.8201Z" fill="#263238"/>
<path d="M125.74 53.8201H124.673V54.8867H125.74V53.8201Z" fill="#263238"/>
<path d="M127.873 53.8201H126.806V54.8867H127.873V53.8201Z" fill="#263238"/>
<path d="M131.137 53.8201H130.008V54.8867H131.137V53.8201Z" fill="#263238"/>
<path d="M108.612 53.8201H107.546V54.8867H108.612V53.8201Z" fill="#263238"/>
<path d="M113.946 52.7533H112.879V53.8199H113.946V52.7533Z" fill="#263238"/>
<path d="M122.541 52.7533H121.411V53.8199H122.541V52.7533Z" fill="#263238"/>
<path d="M123.608 52.7533H122.541V53.8199H123.608V52.7533Z" fill="#263238"/>
<path d="M125.74 52.7533H124.673V53.8199H125.74V52.7533Z" fill="#263238"/>
<path d="M126.808 52.7533H125.741V53.8199H126.808V52.7533Z" fill="#263238"/>
<path d="M128.941 52.7533H127.874V53.8199H128.941V52.7533Z" fill="#263238"/>
<path d="M130.008 52.7533H128.942V53.8199H130.008V52.7533Z" fill="#263238"/>
<path d="M131.137 52.7533H130.008V53.8199H131.137V52.7533Z" fill="#263238"/>
<path d="M108.612 52.7533H107.546V53.8199H108.612V52.7533Z" fill="#263238"/>
<path d="M110.744 51.6848H109.677V52.7514H110.744V51.6848Z" fill="#263238"/>
<path d="M111.81 51.6848H110.744V52.7514H111.81V51.6848Z" fill="#263238"/>
<path d="M113.946 51.6848H112.879V52.7514H113.946V51.6848Z" fill="#263238"/>
<path d="M116.078 51.6848H115.012V52.7514H116.078V51.6848Z" fill="#263238"/>
<path d="M117.145 51.6848H116.078V52.7514H117.145V51.6848Z" fill="#263238"/>
<path d="M119.278 51.6848H118.211V52.7514H119.278V51.6848Z" fill="#263238"/>
<path d="M120.344 51.6848H119.278V52.7514H120.344V51.6848Z" fill="#263238"/>
<path d="M122.541 51.6848H121.411V52.7514H122.541V51.6848Z" fill="#263238"/>
<path d="M126.808 51.6848H125.741V52.7514H126.808V51.6848Z" fill="#263238"/>
<path d="M127.873 51.6848H126.806V52.7514H127.873V51.6848Z" fill="#263238"/>
<path d="M128.941 51.6848H127.874V52.7514H128.941V51.6848Z" fill="#263238"/>
<path d="M108.612 51.6848H107.546V52.7514H108.612V51.6848Z" fill="#263238"/>
<path d="M110.744 50.6182H109.677V51.6848H110.744V50.6182Z" fill="#263238"/>
<path d="M111.81 50.6182H110.744V51.6848H111.81V50.6182Z" fill="#263238"/>
<path d="M113.946 50.6182H112.879V51.6848H113.946V50.6182Z" fill="#263238"/>
<path d="M116.078 50.6182H115.012V51.6848H116.078V50.6182Z" fill="#263238"/>
<path d="M118.211 50.6182H117.144V51.6848H118.211V50.6182Z" fill="#263238"/>
<path d="M119.278 50.6182H118.211V51.6848H119.278V50.6182Z" fill="#263238"/>
<path d="M120.344 50.6182H119.278V51.6848H120.344V50.6182Z" fill="#263238"/>
<path d="M121.412 50.6182H120.345V51.6848H121.412V50.6182Z" fill="#263238"/>
<path d="M122.541 50.6182H121.411V51.6848H122.541V50.6182Z" fill="#263238"/>
<path d="M124.675 50.6182H123.608V51.6848H124.675V50.6182Z" fill="#263238"/>
<path d="M125.74 50.6182H124.673V51.6848H125.74V50.6182Z" fill="#263238"/>
<path d="M126.808 50.6182H125.741V51.6848H126.808V50.6182Z" fill="#263238"/>
<path d="M128.941 50.6182H127.874V51.6848H128.941V50.6182Z" fill="#263238"/>
<path d="M130.008 50.6182H128.942V51.6848H130.008V50.6182Z" fill="#263238"/>
<path d="M131.137 50.6182H130.008V51.6848H131.137V50.6182Z" fill="#263238"/>
<path d="M108.612 50.6182H107.546V51.6848H108.612V50.6182Z" fill="#263238"/>
<path d="M113.946 49.5568H112.879V50.6234H113.946V49.5568Z" fill="#263238"/>
<path d="M118.211 49.5568H117.144V50.6234H118.211V49.5568Z" fill="#263238"/>
<path d="M119.278 49.5568H118.211V50.6234H119.278V49.5568Z" fill="#263238"/>
<path d="M121.412 49.5568H120.345V50.6234H121.412V49.5568Z" fill="#263238"/>
<path d="M122.541 49.5568H121.411V50.6234H122.541V49.5568Z" fill="#263238"/>
<path d="M123.608 49.5568H122.541V50.6234H123.608V49.5568Z" fill="#263238"/>
<path d="M124.675 49.5568H123.608V50.6234H124.675V49.5568Z" fill="#263238"/>
<path d="M130.008 49.5568H128.942V50.6234H130.008V49.5568Z" fill="#263238"/>
<path d="M108.612 49.5568H107.546V50.6234H108.612V49.5568Z" fill="#263238"/>
<path d="M109.68 48.4866H108.613V49.5532H109.68V48.4866Z" fill="#263238"/>
<path d="M110.744 48.4866H109.677V49.5532H110.744V48.4866Z" fill="#263238"/>
<path d="M111.81 48.4866H110.744V49.5532H111.81V48.4866Z" fill="#263238"/>
<path d="M112.878 48.4866H111.812V49.5532H112.878V48.4866Z" fill="#263238"/>
<path d="M113.946 48.4866H112.879V49.5532H113.946V48.4866Z" fill="#263238"/>
<path d="M116.078 48.4866H115.012V49.5532H116.078V48.4866Z" fill="#263238"/>
<path d="M117.145 48.4866H116.078V49.5532H117.145V48.4866Z" fill="#263238"/>
<path d="M122.541 48.4866H121.411V49.5532H122.541V48.4866Z" fill="#263238"/>
<path d="M124.675 48.4866H123.608V49.5532H124.675V48.4866Z" fill="#263238"/>
<path d="M126.806 48.4866H125.74V49.5532H126.806V48.4866Z" fill="#263238"/>
<path d="M127.873 48.4866H126.806V49.5532H127.873V48.4866Z" fill="#263238"/>
<path d="M131.137 48.4866H130.008V49.5532H131.137V48.4866Z" fill="#263238"/>
<path d="M108.612 48.4866H107.546V49.5532H108.612V48.4866Z" fill="#263238"/>
<path d="M134.702 50.6162C134.493 50.6162 134.323 50.4466 134.323 50.2371V45.397H129.529C129.32 45.397 129.15 45.2273 129.15 45.0179C129.15 44.8084 129.32 44.6388 129.529 44.6388H134.702C134.912 44.6388 135.081 44.8084 135.081 45.0179V50.2378C135.082 50.4466 134.912 50.6162 134.702 50.6162Z" fill="#00C802"/>
<path d="M103.984 50.5857C103.775 50.5857 103.605 50.4161 103.605 50.2066V45.0336C103.605 44.8242 103.775 44.6545 103.984 44.6545H109.204C109.413 44.6545 109.583 44.8242 109.583 45.0336C109.583 45.2431 109.413 45.4127 109.204 45.4127H104.364V50.2066C104.363 50.4161 104.194 50.5857 103.984 50.5857Z" fill="#00C802"/>
<path d="M134.704 76.6017H129.484C129.275 76.6017 129.105 76.4321 129.105 76.2226C129.105 76.0132 129.275 75.8429 129.484 75.8429H134.324V71.049C134.324 70.8396 134.494 70.6699 134.703 70.6699C134.913 70.6699 135.082 70.8396 135.082 71.049V76.222C135.084 76.4321 134.913 76.6017 134.704 76.6017Z" fill="#00C802"/>
<path d="M109.157 76.6236H103.984C103.775 76.6236 103.605 76.454 103.605 76.2445V71.0246C103.605 70.8151 103.775 70.6455 103.984 70.6455C104.194 70.6455 104.363 70.8151 104.363 71.0246V75.8648H109.157C109.367 75.8648 109.536 76.0344 109.536 76.2439C109.536 76.4533 109.367 76.6236 109.157 76.6236Z" fill="#00C802"/>
<path d="M119.343 63.7325C121.246 63.7325 122.788 62.1905 122.788 60.2883C122.788 58.3861 121.246 56.8441 119.343 56.8441C117.441 56.8441 115.899 58.3861 115.899 60.2883C115.899 62.1905 117.441 63.7325 119.343 63.7325Z" fill="white" stroke="#263238" stroke-width="0.412583" stroke-miterlimit="10" stroke-linecap="round" stroke-linejoin="round"/>
<path d="M118.832 61.9778C118.829 61.9778 118.825 61.9778 118.822 61.9778C118.73 61.9755 118.645 61.9318 118.59 61.8581L117.492 60.4374C117.388 60.3039 117.413 60.1105 117.547 60.0069C117.68 59.9032 117.874 59.9286 117.977 60.0621L118.848 61.1881L121.123 58.5632C121.233 58.4342 121.427 58.4204 121.556 58.5332C121.685 58.6437 121.696 58.8372 121.586 58.9661L119.064 61.8742C119.004 61.9387 118.919 61.9778 118.832 61.9778Z" fill="#263238"/>
<path d="M116.857 31.1206H117.963V35.1071C117.963 35.544 117.859 35.9284 117.653 36.2601C117.448 36.5918 117.16 36.851 116.789 37.0377C116.417 37.2224 115.983 37.3148 115.487 37.3148C114.988 37.3148 114.553 37.2224 114.182 37.0377C113.81 36.851 113.522 36.5918 113.318 36.2601C113.113 35.9284 113.011 35.544 113.011 35.1071V31.1206H114.116V35.0147C114.116 35.2689 114.172 35.4954 114.283 35.694C114.396 35.8926 114.555 36.0485 114.76 36.1618C114.964 36.273 115.207 36.3286 115.487 36.3286C115.767 36.3286 116.009 36.273 116.214 36.1618C116.42 36.0485 116.579 35.8926 116.69 35.694C116.802 35.4954 116.857 35.2689 116.857 35.0147V31.1206Z" fill="#263238"/>
<path d="M119.164 37.2224V31.1206H121.452C121.921 31.1206 122.314 31.208 122.632 31.3828C122.952 31.5576 123.193 31.7979 123.356 32.1038C123.521 32.4077 123.603 32.7533 123.603 33.1406C123.603 33.5319 123.521 33.8795 123.356 34.1834C123.191 34.4873 122.948 34.7267 122.626 34.9015C122.304 35.0743 121.908 35.1607 121.437 35.1607H119.921V34.252H121.288C121.562 34.252 121.787 34.2043 121.962 34.1089C122.136 34.0136 122.266 33.8825 122.349 33.7157C122.434 33.5488 122.477 33.3571 122.477 33.1406C122.477 32.9241 122.434 32.7335 122.349 32.5686C122.266 32.4037 122.135 32.2756 121.959 32.1843C121.784 32.0909 121.558 32.0442 121.282 32.0442H120.269V37.2224H119.164Z" fill="#263238"/>
<path d="M125.669 31.1206V37.2224H124.563V31.1206H125.669Z" fill="#263238"/>
<path opacity="0.1" d="M160.161 146.321C149.345 141.147 155.898 137.003 141.017 130.577C126.136 124.155 125.983 118.666 127.78 106.046C129.577 93.4215 128.15 80.0052 132.48 78.8657C136.81 77.7261 129.091 60.3196 134.139 54.1663L158.961 102.452L160.161 146.321Z" fill="#263238" fill-opacity="0.7"/>
<path d="M200.462 145.818C199.953 144.364 199.434 142.776 199.038 141.342C198.523 139.462 198.119 137.975 197.166 136.246C197.017 135.965 196.853 135.674 196.673 135.364C195.661 133.559 194.275 131.09 193.464 128.056C192.922 126.012 193.453 120.98 193.972 116.108C194.338 112.604 194.686 109.297 194.588 107.422L194.559 106.757C194.304 101.851 193.774 91.644 192.676 88.8195C191.611 86.0996 190.617 85.6924 188.805 84.9638C188.618 84.8816 188.424 84.8069 188.218 84.721C187.538 84.437 186.38 83.8393 185.046 83.1481C182.039 81.5901 178.295 79.6511 176.394 79.3933C173.883 79.0608 171.462 79.554 171.062 79.6399C168.72 77.8391 164.733 75.5227 163.545 75.4779C162.57 75.4293 160.452 76.0383 159.424 76.3559C159.185 76.4306 159.002 76.4866 158.912 76.5202C158.057 75.8851 157.339 75.4106 156.876 75.1827C156.824 75.1603 156.779 75.1379 156.738 75.1229C155.419 74.5812 153.428 74.5588 152.341 74.5887C152.012 74.6036 151.758 74.6223 151.638 74.6335C149.591 71.4802 147.57 68.3382 146.695 66.9595C144.865 64.0603 139.197 52.1272 139.137 52.0039C139.122 51.974 139.1 51.9516 139.062 51.9441C139.062 51.9441 139.044 51.9329 139.01 51.9255C138.569 51.7947 135.323 50.9728 134.019 54.1186C132.592 57.5408 134.631 65.0653 136.615 67.7964C137.572 69.1153 140.18 74.4766 142.832 80.0284C142.148 80.6598 136.712 85.6849 134.071 86.6227C131.908 87.3886 132.412 98.4736 132.819 107.38C132.973 110.668 133.1 113.496 133.062 115.196C132.988 118.484 138.969 123.016 144.764 127.391C150.005 131.359 155.419 135.457 156.054 138.435C156.23 139.276 156.73 139.952 157.328 140.718C158.326 141.988 159.611 143.486 160.156 146.329C160.317 147.177 160.974 147.354 162.046 149.178H201.787C201.466 148.318 201.097 147.641 200.462 145.818ZM146.038 86.7497C147.939 90.7324 149.116 93.116 149.393 93.3701C149.673 93.6241 149.662 94.8981 149.651 96.1236C149.636 97.2071 149.628 98.369 149.763 99.3516C149.299 99.7588 146.378 102.423 145.787 104.575L143.303 101.646L142.675 92.4697C143.053 92.0774 145.608 89.3762 146.038 86.7497Z" fill="#FFBF9D" stroke="#263238" stroke-width="0.2" stroke-miterlimit="10"/>
<path d="M189.201 112.343C190.124 120.954 190.135 125.624 191.17 128.116C192.914 132.323 195.492 133.175 195.492 133.175C194.749 131.718 193.987 130.003 193.467 128.053C192.926 126.009 193.456 120.977 193.975 116.105C194.342 112.6 194.693 109.29 194.592 107.415L194.558 106.75C194.304 101.844 193.774 91.6371 192.675 88.8126C191.614 86.0927 190.617 85.6855 188.805 84.957C188.618 84.8748 188.424 84.8001 188.214 84.7141C187.534 84.4302 186.38 83.8324 185.042 83.1412C182.035 81.5833 178.291 79.6442 176.39 79.3864C173.879 79.0539 171.458 79.5434 171.058 79.633C168.716 77.836 164.729 75.5196 163.541 75.471C162.57 75.4262 159.936 76.1921 158.912 76.5134C163.384 80.171 169.851 84.7216 169.851 84.7216C174.959 85.7378 174.305 87.9571 176.367 89.1937C178.239 90.3145 180.025 87.0342 181.587 86.7466C183.645 86.3655 185.991 88.5511 185.887 91.1851C185.595 98.4929 188.409 104.953 189.201 112.343Z" fill="#FFBF9D" stroke="#263238" stroke-width="0.4" stroke-miterlimit="10"/>
<path d="M163.384 85.6547C163.384 85.6547 159.338 82.2997 157.399 81.1601C155.46 80.0244 155.161 76.1724 156.685 75.2347C156.738 75.2011 156.797 75.1824 156.872 75.1749C156.823 75.1525 156.775 75.1263 156.734 75.1114C155.415 74.5659 153.424 74.5472 152.336 74.5809C154.593 78.7541 156.368 81.9597 156.85 82.6583C158.482 85.0195 163.384 85.6547 163.384 85.6547Z" fill="#263238" fill-opacity="0.1"/>
<path opacity="0.9" d="M157.246 137.946C157.414 137.053 155.946 134.437 155.3 133.376C153.828 130.955 136.78 115.891 139.253 111.868C141.715 107.836 143.975 110.825 145.541 111.083C146.665 111.27 149.74 109.435 149.725 109.282C149.374 106.185 152.236 104.171 152.236 104.171C152.236 104.171 151.971 91.8422 151.317 92.0551C150.659 92.2643 142.791 73.539 142.791 73.539C142.791 73.539 134.478 62.4801 134.945 57.3243C135.412 52.1722 139.018 52.0564 139.018 52.0564L139.01 51.9181C138.569 51.7874 135.323 50.9654 134.019 54.1112C132.592 57.5335 134.631 65.058 136.615 67.7891C137.572 69.108 140.18 74.4693 142.832 80.0211C142.148 80.6525 136.712 85.6776 134.071 86.6153C131.908 87.3813 132.412 98.4663 132.819 107.373C132.973 110.661 133.1 113.489 133.062 115.189C132.988 118.477 138.969 123.009 144.764 127.384C150.005 131.351 155.419 135.45 156.054 138.428C156.23 139.268 156.73 139.945 157.328 140.71C157.235 139.627 157.16 138.416 157.246 137.946ZM146.038 86.7499C147.939 90.7325 149.116 93.1162 149.393 93.3702C149.673 93.6243 149.662 94.8983 149.651 96.1237C149.636 97.2072 149.628 98.3691 149.763 99.3517C149.299 99.759 146.378 102.423 145.787 104.575L143.303 101.646L142.675 92.4698C143.053 92.0775 145.608 89.3763 146.038 86.7499Z" fill="#263238" fill-opacity="0.1"/>
<path d="M161.05 85.6057C161.05 85.6057 158.554 84.9482 156.85 82.6617C155.143 80.3752 148.437 69.9627 146.58 67.0224C144.723 64.082 139.014 52.0593 139.014 52.0593C139.014 52.0593 135.502 50.8824 134.135 54.1664C132.768 57.4467 134.639 64.8554 136.72 67.7135C138.801 70.5679 148.698 92.5624 149.483 93.276C150.267 93.9858 149.091 99.8478 150.663 101.267" stroke="#263238" stroke-width="0.3884" stroke-miterlimit="10" stroke-linecap="round" stroke-linejoin="round"/>
<path d="M149.909 99.4015C149.909 99.4015 146.285 102.559 145.859 104.864L143.169 101.699L142.534 92.4188C142.534 92.4188 145.781 89.1684 145.956 86.2766" stroke="#263238" stroke-width="0.3884" stroke-miterlimit="10" stroke-linecap="round" stroke-linejoin="round"/>
<path d="M142.993 80.0525C142.993 80.0525 136.974 85.7314 134.112 86.7439C131.251 87.7563 133.335 109.033 133.193 115.194C133.051 121.355 154.848 132.085 156.182 138.396C156.712 140.902 158.909 141.414 160.25 146.223C160.193 146.368 160.114 146.691 160.25 146.816C160.387 146.942 161.587 148.427 162.169 149.154" stroke="#263238" stroke-width="0.3884" stroke-miterlimit="10" stroke-linecap="round" stroke-linejoin="round"/>
<path d="M171.032 79.7771C171.032 79.7771 173.644 79.1532 176.378 79.5193C179.113 79.8892 185.98 83.9279 188.169 84.8396C190.355 85.7512 191.405 85.9193 192.556 88.8633C193.703 91.8074 194.233 103.001 194.465 107.424C194.696 111.848 192.391 124.517 193.34 128.085C194.289 131.649 196.012 134.399 197.054 136.308" fill="#FFBF9D"/>
<path d="M171.032 79.7771C171.032 79.7771 173.644 79.1532 176.378 79.5193C179.113 79.8892 185.98 83.9279 188.169 84.8396C190.355 85.7512 191.405 85.9193 192.556 88.8633C193.703 91.8074 194.233 103.001 194.465 107.424C194.696 111.848 192.391 124.517 193.34 128.085C194.289 131.649 196.012 134.399 197.054 136.308C197.485 136.892 198.347 138.201 198.347 138.759C198.347 139.317 198.812 140.93 199.045 141.666L200.44 145.736L201.787 149.644" stroke="#263238" stroke-width="0.2" stroke-miterlimit="10"/>
<path d="M142.534 92.4169C142.534 92.4169 141.989 90.2387 141.271 89.9585" stroke="#263238" stroke-width="0.3884" stroke-miterlimit="10" stroke-linecap="round" stroke-linejoin="round"/>
<path d="M143.169 101.698C143.169 101.698 143.654 104.127 144.189 105.453C144.723 106.779 143.89 108.696 143.89 108.696" stroke="#263238" stroke-width="0.3884" stroke-miterlimit="10" stroke-linecap="round" stroke-linejoin="round"/>
<path d="M145.859 104.861C145.769 106.983 147.884 109.464 148.396 109.113" stroke="#263238" stroke-width="0.3884" stroke-miterlimit="10" stroke-linecap="round" stroke-linejoin="round"/>
<path d="M156.608 92.417C156.608 92.417 158.872 88.7482 161.05 88.5688C163.224 88.3895 165.735 91.4755 167.076 91.1878C168.421 90.9001 170.106 88.9237 172.359 88.5613C174.616 88.1989 175.673 89.2862 177.463 89.3758C179.256 89.4655 179.435 87.0744 181.584 86.7456C183.732 86.4168 184.449 87.5078 185.884 87.7693C187.318 88.0308 187.677 86.9175 188.839 86.2711" stroke="#263238" stroke-width="0.3884" stroke-miterlimit="10" stroke-linecap="round" stroke-linejoin="round"/>
<ellipse cx="109.231" cy="149.494" rx="109.114" ry="0.505845" fill="#263238"/>
</svg>
