<svg width="97" height="98" viewBox="0 0 97 98" fill="none" xmlns="http://www.w3.org/2000/svg">
<path d="M91.2574 92.7707C91.2574 92.7981 72.1135 92.8216 48.5017 92.8216C24.89 92.8216 5.74219 92.7981 5.74219 92.7707C5.74219 92.7432 24.8822 92.7197 48.5017 92.7197C72.1212 92.7197 91.2574 92.7432 91.2574 92.7707Z" fill="#263238"/>
<path d="M61.3135 93L36.4196 92.9831C33.4233 92.9831 31 90.4288 31 87.2826L31.0131 21.6968C31.0131 18.5488 33.4476 15.9981 36.444 16L61.3322 16.015C64.3285 16.015 66.7518 18.5694 66.7518 21.7155L66.7387 87.2995C66.7387 90.4512 64.3098 93.0019 61.3135 93Z" fill="#263238"/>
<path d="M61.3059 18.3372H56.4799C55.8319 18.3372 55.3076 18.914 55.3076 19.6237V20.5451C55.3076 21.2548 54.7814 21.8316 54.1353 21.8316H44.7268C44.0807 21.8316 43.5545 21.253 43.5564 20.5432V19.6125C43.5564 18.9027 43.0301 18.3259 42.3841 18.3259H36.4701C34.3708 18.3259 32.6703 20.1106 32.6703 22.3148L32.6572 86.3313C32.6572 88.5355 34.3558 90.3221 36.4532 90.3239L61.2965 90.3389C63.3939 90.3389 65.0962 88.5542 65.0962 86.3482L65.1093 22.3316C65.1018 20.135 63.4033 18.3372 61.3059 18.3372Z" fill="white"/>
<path d="M37.9104 85.2713V87.144C37.9105 87.1809 37.9006 87.2172 37.8818 87.249C37.863 87.2808 37.8361 87.307 37.8037 87.3248C37.7714 87.3426 37.7348 87.3514 37.6979 87.3502C37.661 87.349 37.6251 87.338 37.5939 87.3182L36.1163 86.3818C36.087 86.363 36.0628 86.3371 36.046 86.3065C36.0293 86.2759 36.0205 86.2416 36.0205 86.2067C36.0205 86.1718 36.0293 86.1375 36.046 86.1069C36.0628 86.0763 36.087 86.0504 36.1163 86.0316L37.5939 85.0953C37.6252 85.0754 37.6613 85.0643 37.6984 85.0632C37.7355 85.0621 37.7721 85.0711 37.8045 85.0891C37.837 85.1071 37.8639 85.1336 37.8825 85.1656C37.9012 85.1977 37.9108 85.2342 37.9104 85.2713V85.2713Z" fill="#E0E0E0"/>
<path d="M50.0456 86.1927C50.0449 86.4485 49.9683 86.6983 49.8257 86.9106C49.683 87.1229 49.4807 87.2882 49.2442 87.3855C49.0077 87.4829 48.7476 87.508 48.4968 87.4577C48.246 87.4073 48.0158 87.2838 47.8352 87.1026C47.6546 86.9215 47.5317 86.6909 47.4821 86.44C47.4325 86.1891 47.4583 85.9291 47.5564 85.6929C47.6544 85.4566 47.8203 85.2548 48.033 85.1127C48.2457 84.9707 48.4958 84.8949 48.7516 84.8949C48.9217 84.8951 49.0902 84.9289 49.2473 84.9943C49.4045 85.0596 49.5472 85.1553 49.6674 85.2758C49.7875 85.3963 49.8828 85.5393 49.9477 85.6966C50.0126 85.8539 50.0458 86.0225 50.0456 86.1927Z" fill="#E0E0E0"/>
<path d="M61.3826 85.0635H59.6935C59.5 85.0635 59.3433 85.2203 59.3433 85.4137V87.1085C59.3433 87.3019 59.5 87.4587 59.6935 87.4587H61.3826C61.576 87.4587 61.7328 87.3019 61.7328 87.1085V85.4137C61.7328 85.2203 61.576 85.0635 61.3826 85.0635Z" fill="#E0E0E0"/>
<path d="M62.9743 25.8392C62.9743 25.9029 62.9554 25.9652 62.92 26.0181C62.8846 26.0711 62.8343 26.1124 62.7754 26.1368C62.7166 26.1612 62.6518 26.1675 62.5893 26.1551C62.5269 26.1427 62.4695 26.112 62.4244 26.067C62.3794 26.0219 62.3487 25.9645 62.3363 25.902C62.3238 25.8396 62.3302 25.7748 62.3546 25.7159C62.379 25.6571 62.4203 25.6068 62.4732 25.5714C62.5262 25.536 62.5885 25.5171 62.6522 25.5171C62.7376 25.5171 62.8195 25.551 62.8799 25.6114C62.9404 25.6718 62.9743 25.7538 62.9743 25.8392V25.8392Z" fill="#263238"/>
<path d="M62.6522 27.0414C62.8301 27.0414 62.9743 26.8972 62.9743 26.7193C62.9743 26.5414 62.8301 26.3972 62.6522 26.3972C62.4743 26.3972 62.3301 26.5414 62.3301 26.7193C62.3301 26.8972 62.4743 27.0414 62.6522 27.0414Z" fill="#263238"/>
<path d="M62.6522 27.9217C62.8301 27.9217 62.9743 27.7775 62.9743 27.5996C62.9743 27.4217 62.8301 27.2775 62.6522 27.2775C62.4743 27.2775 62.3301 27.4217 62.3301 27.5996C62.3301 27.7775 62.4743 27.9217 62.6522 27.9217Z" fill="#263238"/>
<path d="M64.881 29.5153C64.881 29.5415 57.6392 29.5621 48.7083 29.5621C39.7774 29.5621 32.5356 29.5415 32.5356 29.5153C32.5356 29.4891 39.7755 29.4685 48.7083 29.4685C57.6411 29.4685 64.881 29.4985 64.881 29.5153Z" fill="#E0E0E0"/>
<path d="M35.0642 25.499V26.786C35.0642 26.945 35.0972 27.137 35.2502 27.305C35.3552 27.419 35.5322 27.539 35.8052 27.539C36.0782 27.539 36.2552 27.419 36.3602 27.305C36.5132 27.137 36.5462 26.945 36.5462 26.786V25.499H36.2402V26.705C36.2402 26.813 36.2372 26.945 36.1772 27.05C36.1172 27.152 35.9822 27.257 35.8052 27.257C35.6282 27.257 35.4932 27.152 35.4332 27.05C35.3732 26.945 35.3702 26.813 35.3702 26.705V25.499H35.0642ZM37.0271 25.499V27.5H37.3331V26.687H37.4711C37.6181 26.687 37.8011 26.666 37.9601 26.531C38.1251 26.39 38.1551 26.21 38.1551 26.093C38.1551 25.91 38.0741 25.718 37.9061 25.607C37.7621 25.511 37.5911 25.499 37.4681 25.499H37.0271ZM37.3331 25.781H37.4681C37.8161 25.781 37.8611 25.979 37.8611 26.09C37.8611 26.276 37.7351 26.405 37.4711 26.405H37.3331V25.781ZM38.4685 25.499V27.5H38.7745V25.499H38.4685ZM39.9539 25.499V27.5H40.2599V26.687H40.3979C40.5449 26.687 40.7279 26.666 40.8869 26.531C41.0519 26.39 41.0819 26.21 41.0819 26.093C41.0819 25.91 41.0009 25.718 40.8329 25.607C40.6889 25.511 40.5179 25.499 40.3949 25.499H39.9539ZM40.2599 25.781H40.3949C40.7429 25.781 40.7879 25.979 40.7879 26.09C40.7879 26.276 40.6619 26.405 40.3979 26.405H40.2599V25.781ZM42.6905 27.5H43.0205L42.0725 25.382L41.0765 27.5H41.4065L41.6255 27.017H42.4805L42.6905 27.5ZM41.7515 26.729L42.0605 26.051L42.3575 26.729H41.7515ZM43.5115 27.5H43.8175V26.636L44.4745 25.499H44.1265L43.6645 26.3L43.2025 25.499H42.8545L43.5115 26.636V27.5ZM44.908 27.5L45.118 26.291L45.694 27.593L46.276 26.294L46.48 27.5H46.792L46.414 25.349L45.712 26.903L45.016 25.349L44.596 27.5H44.908ZM48.3147 25.499H47.2107V27.5H48.3147V27.212H47.5167V26.582H48.2907V26.294H47.5167V25.787H48.3147V25.499ZM49.0167 27.5V26.102L50.4687 27.623V25.499H50.1627V26.885L48.7107 25.364V27.5H49.0167ZM51.963 25.787V25.499H50.739V25.787H51.198V27.5H51.504V25.787H51.963Z" fill="black"/>
<path d="M37.2192 34.3263C37.0886 34.3267 36.9609 34.2883 36.8522 34.216C36.7435 34.1437 36.6588 34.0408 36.6086 33.9203C36.5585 33.7997 36.5453 33.667 36.5707 33.539C36.5961 33.4109 36.6589 33.2933 36.7512 33.201C36.8435 33.1087 36.9611 33.0459 37.0892 33.0205C37.2172 32.9951 37.3499 33.0083 37.4704 33.0585C37.591 33.1086 37.6939 33.1934 37.7662 33.3021C37.8385 33.4108 37.8769 33.5385 37.8765 33.669C37.876 33.8432 37.8066 34.0101 37.6834 34.1332C37.5603 34.2564 37.3933 34.3258 37.2192 34.3263V34.3263ZM37.2192 33.2027C37.1258 33.2023 37.0343 33.2297 36.9565 33.2813C36.8786 33.3329 36.8178 33.4065 36.7818 33.4927C36.7458 33.5789 36.7362 33.6739 36.7542 33.7655C36.7722 33.8572 36.817 33.9415 36.8829 34.0076C36.9489 34.0738 37.0329 34.119 37.1245 34.1373C37.2161 34.1557 37.3111 34.1465 37.3975 34.1108C37.4838 34.0751 37.5576 34.0146 37.6096 33.937C37.6615 33.8593 37.6892 33.768 37.6892 33.6746C37.69 33.6123 37.6784 33.5505 37.6551 33.4927C37.6318 33.4349 37.5974 33.3823 37.5537 33.3379C37.51 33.2935 37.4579 33.2582 37.4005 33.2341C37.3431 33.2099 37.2815 33.1973 37.2192 33.1971V33.2027Z" fill="#263238"/>
<path d="M36.8333 34.7702C36.6793 34.7697 36.5304 34.7153 36.4123 34.6165C36.2943 34.5176 36.2145 34.3806 36.1869 34.2291C36.1594 34.0776 36.1857 33.9212 36.2613 33.7871C36.337 33.653 36.4572 33.5496 36.6011 33.4949L36.6685 33.6709C36.5912 33.6998 36.5229 33.7484 36.4703 33.8119C36.4177 33.8755 36.3826 33.9517 36.3686 34.033C36.3547 34.1143 36.3622 34.1978 36.3906 34.2753C36.419 34.3527 36.4672 34.4214 36.5304 34.4744C36.5935 34.5275 36.6695 34.563 36.7507 34.5775C36.8319 34.592 36.9155 34.585 36.9932 34.5571C37.0708 34.5293 37.1398 34.4815 37.1932 34.4187C37.2467 34.3559 37.2827 34.2801 37.2977 34.199L37.485 34.2327C37.4562 34.3843 37.3752 34.521 37.2562 34.6191C37.1372 34.7173 36.9876 34.7707 36.8333 34.7702V34.7702Z" fill="#263238"/>
<path d="M36.4569 35.1541C36.3025 35.1548 36.1527 35.1012 36.0339 35.0025C35.9151 34.9039 35.8348 34.7666 35.8071 34.6147C35.7793 34.4627 35.806 34.3059 35.8824 34.1717C35.9587 34.0375 36.0799 33.9344 36.2247 33.8806L36.2902 34.0548C36.2009 34.0893 36.124 34.15 36.0696 34.2288C36.0151 34.3076 35.9857 34.401 35.985 34.4967C35.9844 34.6148 36.0281 34.7289 36.1074 34.8163C36.1868 34.9038 36.296 34.9583 36.4136 34.9691C36.5312 34.9799 36.6486 34.9463 36.7426 34.8748C36.8366 34.8032 36.9004 34.6991 36.9213 34.5829L37.1086 34.6185C37.08 34.77 36.9991 34.9067 36.88 35.0046C36.7609 35.1025 36.6111 35.1554 36.4569 35.1541Z" fill="#263238"/>
<path d="M38.9688 34.0735C38.9753 33.9462 39.019 33.8236 39.0943 33.7208C39.1697 33.618 39.2735 33.5395 39.3929 33.4949C39.5123 33.4503 39.6421 33.4416 39.7664 33.4699C39.8907 33.4982 40.004 33.5621 40.0924 33.654L39.9482 33.7907C39.9079 33.7452 39.8582 33.709 39.8026 33.6844C39.747 33.6599 39.6868 33.6476 39.6261 33.6484C39.568 33.6445 39.5097 33.6526 39.4549 33.6722C39.4001 33.6917 39.3499 33.7224 39.3074 33.7621C39.2649 33.8019 39.231 33.85 39.2079 33.9034C39.1847 33.9568 39.1728 34.0143 39.1728 34.0725C39.1728 34.1307 39.1847 34.1883 39.2079 34.2417C39.231 34.2951 39.2649 34.3432 39.3074 34.3829C39.3499 34.4227 39.4001 34.4533 39.4549 34.4729C39.5097 34.4925 39.568 34.5006 39.6261 34.4967C39.6868 34.4975 39.747 34.4852 39.8026 34.4606C39.8582 34.4361 39.9079 34.3998 39.9482 34.3544L40.0924 34.4911C40.0045 34.5837 39.8913 34.6484 39.7669 34.6773C39.6425 34.7061 39.5124 34.6978 39.3927 34.6533C39.273 34.6088 39.169 34.5301 39.0936 34.427C39.0183 34.324 38.9748 34.201 38.9688 34.0735V34.0735Z" fill="#263238"/>
<path d="M41.3803 33.4705V34.6765H41.1518V34.1596H40.5282V34.6765H40.3091V33.4705H40.5319V33.9686H41.1518V33.4705H41.3803Z" fill="#263238"/>
<path d="M41.6184 34.0733C41.6124 33.9437 41.6453 33.8153 41.713 33.7045C41.7807 33.5938 41.88 33.5059 41.9981 33.4521C42.1161 33.3982 42.2476 33.381 42.3756 33.4026C42.5036 33.4242 42.6221 33.4836 42.716 33.5732C42.8099 33.6627 42.8749 33.7784 42.9025 33.9052C42.9301 34.032 42.9191 34.1641 42.8709 34.2846C42.8227 34.4051 42.7396 34.5084 42.6321 34.5813C42.5247 34.6541 42.398 34.6931 42.2682 34.6932C42.1842 34.6975 42.1003 34.6847 42.0215 34.6555C41.9427 34.6262 41.8706 34.5812 41.8098 34.5232C41.749 34.4652 41.7006 34.3954 41.6677 34.318C41.6348 34.2407 41.618 34.1574 41.6184 34.0733ZM42.6933 34.0733C42.6937 33.9892 42.6691 33.9068 42.6226 33.8367C42.5761 33.7665 42.5098 33.7117 42.4322 33.6793C42.3545 33.6468 42.269 33.6381 42.1864 33.6543C42.1038 33.6705 42.0279 33.7108 41.9683 33.7702C41.9086 33.8296 41.868 33.9053 41.8514 33.9878C41.8348 34.0704 41.8432 34.1559 41.8753 34.2337C41.9074 34.3115 41.9619 34.378 42.0318 34.4248C42.1018 34.4716 42.184 34.4966 42.2682 34.4966C42.3244 34.4984 42.3803 34.4887 42.4326 34.4681C42.4848 34.4475 42.5323 34.4164 42.5721 34.3768C42.612 34.3371 42.6432 34.2898 42.6641 34.2376C42.6849 34.1854 42.6949 34.1295 42.6933 34.0733V34.0733Z" fill="#263238"/>
<path d="M43.0715 34.0733C43.0655 33.9437 43.0985 33.8153 43.1661 33.7045C43.2338 33.5938 43.3331 33.5059 43.4512 33.4521C43.5693 33.3982 43.7008 33.381 43.8287 33.4026C43.9567 33.4242 44.0753 33.4836 44.1692 33.5732C44.2631 33.6627 44.328 33.7784 44.3556 33.9052C44.3832 34.032 44.3722 34.1641 44.324 34.2846C44.2758 34.4051 44.1927 34.5084 44.0853 34.5813C43.9779 34.6541 43.8511 34.6931 43.7213 34.6932C43.6373 34.6978 43.5532 34.6852 43.4743 34.656C43.3954 34.6269 43.3232 34.5819 43.2623 34.5238C43.2014 34.4658 43.1531 34.3958 43.1203 34.3183C43.0875 34.2409 43.0709 34.1575 43.0715 34.0733V34.0733ZM44.1446 34.0733C44.1449 33.9891 44.1203 33.9067 44.0737 33.8365C44.0271 33.7663 43.9607 33.7115 43.883 33.6791C43.8052 33.6467 43.7196 33.6381 43.637 33.6545C43.5543 33.6708 43.4784 33.7113 43.4189 33.7709C43.3593 33.8305 43.3188 33.9064 43.3024 33.989C43.2861 34.0716 43.2947 34.1573 43.3271 34.235C43.3595 34.3128 43.4142 34.3791 43.4844 34.4257C43.5546 34.4723 43.6371 34.4969 43.7213 34.4966C43.7776 34.4987 43.8338 34.4891 43.8863 34.4687C43.9388 34.4482 43.9865 34.4171 44.0265 34.3775C44.0665 34.3378 44.098 34.2903 44.1189 34.238C44.1399 34.1857 44.1499 34.1297 44.1483 34.0733H44.1446Z" fill="#263238"/>
<path d="M44.5078 34.5548L44.5846 34.3806C44.7002 34.466 44.8398 34.5125 44.9835 34.5136C45.1708 34.5136 45.2494 34.4462 45.2494 34.3563C45.2494 34.096 44.534 34.2664 44.534 33.8188C44.534 33.6316 44.6876 33.4593 45.0191 33.4593C45.16 33.4564 45.2989 33.4934 45.4198 33.566L45.3505 33.7402C45.25 33.6791 45.1348 33.6461 45.0172 33.6447C44.8299 33.6447 44.755 33.7177 44.755 33.8076C44.755 34.0641 45.4704 33.8975 45.4704 34.3413C45.4704 34.5286 45.3131 34.699 44.9835 34.699C44.8134 34.7046 44.6462 34.6539 44.5078 34.5548V34.5548Z" fill="#263238"/>
<path d="M46.5979 34.4892V34.6765H45.6934V33.4705H46.5829V33.6577H45.9274V33.9723H46.5099V34.1596H45.9274V34.493L46.5979 34.4892Z" fill="#263238"/>
<path d="M48.107 34.3974H47.504L47.3842 34.6765H47.1538L47.6969 33.4705H47.9179L48.461 34.6765H48.2269L48.107 34.3974ZM48.0321 34.2214L47.8055 33.6933L47.5789 34.2214H48.0321Z" fill="#263238"/>
<path d="M49.7235 34.6765V33.8768L49.3265 34.5379H49.2253L48.8302 33.8862V34.6765H48.6167V33.4705H48.804L49.2834 34.2701L49.7534 33.4705H49.9407V34.6765H49.7235Z" fill="#263238"/>
<path d="M50.1765 34.0733C50.1705 33.9437 50.2035 33.8153 50.2711 33.7045C50.3388 33.5938 50.4381 33.5059 50.5562 33.4521C50.6742 33.3982 50.8057 33.381 50.9337 33.4026C51.0617 33.4242 51.1802 33.4836 51.2741 33.5732C51.368 33.6627 51.433 33.7784 51.4606 33.9052C51.4882 34.032 51.4772 34.1641 51.429 34.2846C51.3808 34.4051 51.2977 34.5084 51.1902 34.5813C51.0828 34.6541 50.9561 34.6931 50.8263 34.6932C50.7423 34.6978 50.6582 34.6852 50.5793 34.656C50.5003 34.6269 50.4282 34.5819 50.3673 34.5238C50.3064 34.4658 50.2581 34.3958 50.2253 34.3183C50.1924 34.2409 50.1758 34.1575 50.1765 34.0733V34.0733ZM51.2495 34.0733C51.2495 33.9896 51.2247 33.9078 51.1782 33.8382C51.1317 33.7686 51.0656 33.7144 50.9883 33.6823C50.9109 33.6503 50.8258 33.6419 50.7437 33.6582C50.6616 33.6746 50.5862 33.7149 50.527 33.7741C50.4678 33.8333 50.4275 33.9087 50.4112 33.9908C50.3949 34.0729 50.4033 34.158 50.4353 34.2353C50.4673 34.3126 50.5216 34.3787 50.5912 34.4253C50.6608 34.4718 50.7426 34.4966 50.8263 34.4966C50.8824 34.4984 50.9382 34.4887 50.9904 34.4681C51.0426 34.4475 51.09 34.4163 51.1296 34.3767C51.1693 34.337 51.2004 34.2896 51.221 34.2374C51.2417 34.1853 51.2514 34.1294 51.2495 34.0733V34.0733Z" fill="#263238"/>
<path d="M51.7046 34.1502V33.4705H51.9293V34.1428C51.9293 34.39 52.0398 34.4967 52.2346 34.4967C52.4293 34.4967 52.5398 34.39 52.5398 34.1428V33.4705H52.7627V34.1502C52.7627 34.2903 52.707 34.4246 52.608 34.5237C52.509 34.6227 52.3746 34.6784 52.2346 34.6784C52.0945 34.6784 51.9602 34.6227 51.8611 34.5237C51.7621 34.4246 51.7065 34.2903 51.7065 34.1502H51.7046Z" fill="#263238"/>
<path d="M54.1467 33.4705V34.6765H53.9594L53.2946 33.86V34.6765H53.0718V33.4705H53.259L53.9257 34.287V33.4705H54.1467Z" fill="#263238"/>
<path d="M54.7158 33.6596H54.3169V33.4723H55.3394V33.6596H54.9405V34.6764H54.7158V33.6596Z" fill="#263238"/>
<path d="M55.969 34.2046C55.9602 33.921 56.033 33.6409 56.1787 33.3975H56.3847C56.25 33.6448 56.1794 33.922 56.1794 34.2037C56.1794 34.4853 56.25 34.7625 56.3847 35.0099H56.1787C56.0335 34.7669 55.9607 34.4875 55.969 34.2046Z" fill="#263238"/>
<path d="M57.6318 34.3543L57.776 34.4911C57.7163 34.558 57.6425 34.6108 57.5599 34.6458C57.4773 34.6807 57.388 34.697 57.2984 34.6933C57.1606 34.6994 57.0247 34.6592 56.9124 34.5791C56.8 34.499 56.7177 34.3836 56.6786 34.2513H56.4819V34.1315H56.6561C56.6561 34.1128 56.6561 34.094 56.6561 34.0734C56.6561 34.0528 56.6561 34.0341 56.6561 34.0154H56.4819V33.8937H56.6786C56.7178 33.7615 56.8002 33.6464 56.9125 33.5666C57.0249 33.4868 57.1608 33.447 57.2984 33.4536C57.3879 33.4495 57.4771 33.4654 57.5597 33.5001C57.6423 33.5347 57.7162 33.5873 57.776 33.654L57.6318 33.7907C57.5915 33.7452 57.5418 33.709 57.4862 33.6844C57.4307 33.6598 57.3704 33.6475 57.3097 33.6483C57.2269 33.6452 57.145 33.6669 57.0746 33.7106C57.0042 33.7543 56.9484 33.818 56.9145 33.8937H57.4089V34.0154H56.8827C56.8777 34.0539 56.8777 34.093 56.8827 34.1315H57.4108V34.2513H56.9164C56.9499 34.3273 57.0055 34.3913 57.076 34.4351C57.1466 34.4789 57.2286 34.5003 57.3115 34.4967C57.372 34.4972 57.4318 34.4848 57.4871 34.4602C57.5423 34.4357 57.5917 34.3996 57.6318 34.3543Z" fill="#263238"/>
<path d="M57.8618 35.0099C57.9965 34.7625 58.0671 34.4853 58.0671 34.2037C58.0671 33.922 57.9965 33.6448 57.8618 33.3975H58.0659C58.2046 33.6435 58.2774 33.9212 58.2774 34.2037C58.2774 34.4861 58.2046 34.7638 58.0659 35.0099H57.8618Z" fill="#263238"/>
<path d="M52.2009 37.2234H46.0585C45.5982 37.2234 45.2251 37.5965 45.2251 38.0567V43.8771C45.2251 44.3374 45.5982 44.7105 46.0585 44.7105H52.2009C52.6612 44.7105 53.0343 44.3374 53.0343 43.8771V38.0567C53.0343 37.5965 52.6612 37.2234 52.2009 37.2234Z" fill="#00C802"/>
<path d="M48.8845 41.5455V41.8957H47.2459V41.6185L48.1298 40.7814C48.3452 40.5754 48.3826 40.4443 48.3826 40.3207C48.3826 40.1166 48.244 40.0005 47.9706 40.0005C47.8719 39.9954 47.7733 40.0136 47.6829 40.0536C47.5924 40.0937 47.5127 40.1544 47.45 40.2309L47.1616 40.0099C47.2632 39.8857 47.3926 39.787 47.5393 39.722C47.686 39.6569 47.8459 39.6272 48.0062 39.6353C48.4875 39.6353 48.7984 39.8807 48.7984 40.2739C48.7984 40.4893 48.7384 40.6859 48.4238 40.9762L47.8302 41.538L48.8845 41.5455Z" fill="white"/>
<path d="M49.1123 40.7833C49.1123 40.0549 49.5131 39.641 50.0393 39.641C50.5655 39.641 50.9756 40.0549 50.9756 40.7833C50.9756 41.5118 50.5749 41.9276 50.0393 41.9276C49.5037 41.9276 49.1123 41.5137 49.1123 40.7833ZM50.5543 40.7833C50.5543 40.2477 50.3445 40.0006 50.0393 40.0006C49.734 40.0006 49.528 40.2477 49.528 40.7833C49.528 41.3189 49.7378 41.568 50.0393 41.568C50.3408 41.568 50.5543 41.3208 50.5543 40.7833Z" fill="white"/>
<path d="M39.7605 39.6729V41.8958H39.3485V40.023H38.8784V39.6766L39.7605 39.6729Z" fill="#263238"/>
<path d="M40.2026 40.7852C40.2026 40.0549 40.6015 39.641 41.1296 39.641C41.6577 39.641 42.066 40.0549 42.066 40.7852C42.066 41.5156 41.6671 41.9276 41.1296 41.9276C40.5922 41.9276 40.2026 41.5137 40.2026 40.7852ZM41.6427 40.7852C41.6427 40.2477 41.433 40.0006 41.1296 40.0006C40.8262 40.0006 40.6184 40.2477 40.6184 40.7852C40.6184 41.3227 40.8281 41.568 41.1296 41.568C41.4311 41.568 41.6427 41.3208 41.6427 40.7852Z" fill="#263238"/>
<path d="M43.5977 44.8041H37.4534C37.2083 44.8017 36.9739 44.7032 36.8006 44.5299C36.6273 44.3566 36.5288 44.1222 36.5264 43.8771V38.0567C36.5288 37.8117 36.6273 37.5773 36.8006 37.404C36.9739 37.2306 37.2083 37.1322 37.4534 37.1298H43.5977C43.8425 37.1327 44.0764 37.2313 44.2493 37.4046C44.4222 37.5779 44.5204 37.812 44.5228 38.0567V43.8771C44.5204 44.1219 44.4222 44.356 44.2493 44.5293C44.0764 44.7025 43.8425 44.8012 43.5977 44.8041V44.8041ZM37.4534 37.3133C37.2579 37.3157 37.0712 37.3944 36.933 37.5326C36.7948 37.6708 36.7161 37.8576 36.7136 38.053V43.8734C36.7161 44.0688 36.7948 44.2555 36.933 44.3937C37.0712 44.5319 37.2579 44.6107 37.4534 44.6131H43.5977C43.7931 44.6107 43.9799 44.5319 44.1181 44.3937C44.2563 44.2555 44.335 44.0688 44.3374 43.8734V38.0567C44.335 37.8613 44.2563 37.6746 44.1181 37.5364C43.9799 37.3982 43.7931 37.3195 43.5977 37.317L37.4534 37.3133Z" fill="#E0E0E0"/>
<path d="M60.8151 44.8041H54.6726C54.4275 44.8017 54.1931 44.7032 54.0198 44.5299C53.8465 44.3566 53.748 44.1222 53.7456 43.8771V38.0567C53.748 37.8117 53.8465 37.5773 54.0198 37.404C54.1931 37.2306 54.4275 37.1322 54.6726 37.1298H60.8151C61.0602 37.1322 61.2945 37.2306 61.4678 37.404C61.6412 37.5773 61.7396 37.8117 61.7421 38.0567V43.8771C61.7396 44.1222 61.6412 44.3566 61.4678 44.5299C61.2945 44.7032 61.0602 44.8017 60.8151 44.8041V44.8041ZM54.6726 37.3133C54.4772 37.3157 54.2904 37.3944 54.1522 37.5326C54.014 37.6708 53.9353 37.8576 53.9329 38.053V43.8734C53.9353 44.0688 54.014 44.2555 54.1522 44.3937C54.2904 44.5319 54.4772 44.6107 54.6726 44.6131H60.8151C61.0105 44.6107 61.1972 44.5319 61.3354 44.3937C61.4736 44.2555 61.5524 44.0688 61.5548 43.8734V38.0567C61.5524 37.8613 61.4736 37.6746 61.3354 37.5364C61.1972 37.3982 61.0105 37.3195 60.8151 37.317L54.6726 37.3133Z" fill="#E0E0E0"/>
<path d="M57.4948 41.2122C57.4948 41.6036 57.212 41.9276 56.6165 41.9276C56.3174 41.9341 56.0244 41.8434 55.7812 41.6692L55.9554 41.3489C56.1426 41.4931 56.3727 41.5703 56.609 41.568C56.9049 41.568 57.079 41.4388 57.079 41.2291C57.079 41.0193 56.9423 40.8826 56.4816 40.8826H55.946L56.0603 39.6729H57.3712V40.0193H56.4161L56.3674 40.5343H56.5809C57.2326 40.5343 57.4948 40.8189 57.4948 41.2122Z" fill="#263238"/>
<path d="M57.7329 40.7833C57.7329 40.0549 58.1337 39.641 58.6599 39.641C59.1861 39.641 59.5962 40.0549 59.5962 40.7833C59.5962 41.5118 59.1955 41.9276 58.6599 41.9276C58.1243 41.9276 57.7329 41.5137 57.7329 40.7833ZM59.1749 40.7833C59.1749 40.2477 58.9651 40.0006 58.6599 40.0006C58.3546 40.0006 58.1487 40.2477 58.1487 40.7833C58.1487 41.3189 58.3584 41.568 58.6599 41.568C58.9614 41.568 59.1749 41.3208 59.1749 40.7833Z" fill="#263238"/>
<path d="M52.2008 53.5346H46.0583C45.8132 53.5321 45.5789 53.4337 45.4056 53.2604C45.2322 53.0871 45.1338 52.8527 45.1313 52.6076V46.7853C45.1343 46.5406 45.2329 46.3067 45.4062 46.1338C45.5795 45.9608 45.8136 45.8627 46.0583 45.8602H52.2008C52.4456 45.8627 52.6797 45.9608 52.8529 46.1338C53.0262 46.3067 53.1249 46.5406 53.1278 46.7853V52.6076C53.1254 52.8527 53.0269 53.0871 52.8536 53.2604C52.6803 53.4337 52.4459 53.5321 52.2008 53.5346ZM46.0583 46.0438C45.8632 46.0462 45.6768 46.1246 45.5386 46.2624C45.4005 46.4002 45.3215 46.5865 45.3186 46.7816V52.6076C45.321 52.803 45.3998 52.9898 45.538 53.128C45.6762 53.2662 45.8629 53.3449 46.0583 53.3473H52.2008C52.3979 53.3473 52.587 53.2697 52.7272 53.1312C52.8674 52.9928 52.9474 52.8046 52.9499 52.6076V46.7853C52.947 46.5902 52.8681 46.404 52.7299 46.2662C52.5918 46.1284 52.4053 46.0499 52.2102 46.0475L46.0583 46.0438Z" fill="#E0E0E0"/>
<path d="M47.8245 50.2856V50.6339H46.1858V50.3586L47.0698 49.5196C47.2851 49.3136 47.3226 49.1844 47.3226 49.0589C47.3226 48.8567 47.184 48.7387 46.9106 48.7387C46.8116 48.7336 46.7129 48.7519 46.6224 48.7923C46.5319 48.8326 46.4522 48.8939 46.39 48.9709L46.1016 48.7481C46.2034 48.6241 46.3328 48.5256 46.4794 48.4606C46.6261 48.3955 46.7859 48.3657 46.9462 48.3735C47.4274 48.3735 47.7383 48.617 47.7383 49.0103C47.7383 49.2275 47.6784 49.4241 47.3638 49.7125L46.7701 50.2856H47.8245Z" fill="#263238"/>
<path d="M48.0532 49.5139C48.0532 48.7836 48.4521 48.3716 48.9896 48.3716C49.527 48.3716 49.9259 48.7836 49.9259 49.5139C49.9259 50.2443 49.5252 50.6563 48.9896 50.6563C48.454 50.6563 48.0532 50.2443 48.0532 49.5139ZM49.4952 49.5139C49.4952 48.9783 49.2855 48.7293 48.9802 48.7293C48.675 48.7293 48.469 48.9783 48.469 49.5139C48.469 50.0495 48.6787 50.2986 48.9802 50.2986C49.2817 50.2986 49.4952 50.0495 49.4952 49.5139Z" fill="#263238"/>
<path d="M50.188 49.5139C50.188 48.7836 50.5887 48.3716 51.115 48.3716C51.6412 48.3716 52.0513 48.7836 52.0513 49.5139C52.0513 50.2443 51.6524 50.6563 51.115 50.6563C50.5775 50.6563 50.188 50.2443 50.188 49.5139ZM51.63 49.5139C51.63 48.9783 51.4202 48.7293 51.115 48.7293C50.8097 48.7293 50.6056 48.9783 50.6056 49.5139C50.6056 50.0495 50.8135 50.2986 51.115 50.2986C51.4165 50.2986 51.6393 50.0495 51.6393 49.5139H51.63Z" fill="#263238"/>
<path d="M38.6935 48.4127V50.6337H38.2796V48.761H37.8096V48.4127H38.6935Z" fill="#263238"/>
<path d="M39.1333 49.5139C39.1333 48.7836 39.5341 48.3716 40.0603 48.3716C40.5865 48.3716 40.9966 48.7836 40.9966 49.5139C40.9966 50.2443 40.5959 50.6563 40.0603 50.6563C39.5247 50.6563 39.1333 50.2443 39.1333 49.5139ZM40.5753 49.5139C40.5753 48.9783 40.3655 48.7293 40.0603 48.7293C39.755 48.7293 39.549 48.9783 39.549 49.5139C39.549 50.0495 39.7588 50.2986 40.0603 50.2986C40.3618 50.2986 40.5753 50.0495 40.5753 49.5139Z" fill="#263238"/>
<path d="M41.27 49.5139C41.27 48.7836 41.6689 48.3716 42.2064 48.3716C42.7438 48.3716 43.1427 48.7836 43.1427 49.5139C43.1427 50.2443 42.7438 50.6563 42.2064 50.6563C41.6689 50.6563 41.27 50.2443 41.27 49.5139ZM42.7101 49.5139C42.7101 48.9783 42.5004 48.7293 42.197 48.7293C41.8936 48.7293 41.6858 48.9783 41.6858 49.5139C41.6858 50.0495 41.8955 50.2986 42.197 50.2986C42.4985 50.2986 42.7101 50.0495 42.7101 49.5139Z" fill="#263238"/>
<path d="M43.5977 53.5346H37.4534C37.2083 53.5321 36.9739 53.4337 36.8006 53.2604C36.6273 53.0871 36.5288 52.8527 36.5264 52.6076V46.7853C36.5293 46.5406 36.628 46.3067 36.8012 46.1338C36.9745 45.9608 37.2086 45.8627 37.4534 45.8602H43.5977C43.8425 45.8627 44.0766 45.9608 44.2498 46.1338C44.4231 46.3067 44.5218 46.5406 44.5247 46.7853V52.6076C44.5222 52.8527 44.4238 53.0871 44.2505 53.2604C44.0772 53.4337 43.8428 53.5321 43.5977 53.5346V53.5346ZM37.4534 46.0438C37.2582 46.0462 37.0718 46.1246 36.9336 46.2624C36.7955 46.4002 36.7165 46.5865 36.7136 46.7816V52.6076C36.7161 52.803 36.7948 52.9898 36.933 53.128C37.0712 53.2662 37.2579 53.3449 37.4534 53.3473H43.5977C43.7928 53.3444 43.9791 53.2655 44.1169 53.1273C44.2547 52.9892 44.3331 52.8027 44.3355 52.6076V46.7853C44.3326 46.5902 44.2537 46.404 44.1156 46.2662C43.9774 46.1284 43.7909 46.0499 43.5958 46.0475L37.4534 46.0438Z" fill="#E0E0E0"/>
<path d="M60.8151 53.5346H54.6726C54.4275 53.5321 54.1931 53.4337 54.0198 53.2604C53.8465 53.0871 53.748 52.8527 53.7456 52.6076V46.7853C53.7485 46.5406 53.8472 46.3067 54.0205 46.1338C54.1937 45.9608 54.4278 45.8627 54.6726 45.8602H60.8151C61.0598 45.8627 61.2939 45.9608 61.4672 46.1338C61.6405 46.3067 61.7391 46.5406 61.7421 46.7853V52.6076C61.7396 52.8527 61.6412 53.0871 61.4678 53.2604C61.2945 53.4337 61.0602 53.5321 60.8151 53.5346V53.5346ZM54.6726 46.0438C54.4775 46.0462 54.291 46.1246 54.1529 46.2624C54.0147 46.4002 53.9358 46.5865 53.9329 46.7816V52.6076C53.9353 52.803 54.014 52.9898 54.1522 53.128C54.2904 53.2662 54.4772 53.3449 54.6726 53.3473H60.8151C61.0105 53.3449 61.1972 53.2662 61.3354 53.128C61.4736 52.9898 61.5524 52.803 61.5548 52.6076V46.7853C61.5519 46.5902 61.4729 46.404 61.3348 46.2662C61.1966 46.1284 61.0102 46.0499 60.8151 46.0475L54.6726 46.0438Z" fill="#E0E0E0"/>
<path d="M56.4538 49.9428C56.4538 50.3323 56.171 50.6563 55.5736 50.6563C55.2755 50.6623 54.9834 50.5723 54.7402 50.3997L54.9144 50.0795C55.1014 50.224 55.3317 50.3012 55.568 50.2986C55.8639 50.2986 56.038 50.1675 56.038 49.9578C56.038 49.748 55.9013 49.6132 55.4406 49.6132H54.905L55.0193 48.4034H56.3302V48.748H55.3732L55.3264 49.263H55.538C56.1897 49.263 56.4538 49.5495 56.4538 49.9428Z" fill="#263238"/>
<path d="M56.6953 49.5139C56.6953 48.7836 57.0942 48.3716 57.6223 48.3716C58.1504 48.3716 58.5587 48.7836 58.5587 49.5139C58.5587 50.2443 58.1579 50.6563 57.6223 50.6563C57.0867 50.6563 56.6953 50.2443 56.6953 49.5139ZM58.1373 49.5139C58.1373 48.9783 57.9276 48.7293 57.6223 48.7293C57.3171 48.7293 57.1111 48.9783 57.1111 49.5139C57.1111 50.0495 57.3208 50.2986 57.6223 50.2986C57.9238 50.2986 58.1335 50.0495 58.1335 49.5139H58.1373Z" fill="#263238"/>
<path d="M58.8267 49.5139C58.8267 48.7836 59.2274 48.3716 59.7536 48.3716C60.2799 48.3716 60.69 48.7836 60.69 49.5139C60.69 50.2443 60.2892 50.6563 59.7536 50.6563C59.2181 50.6563 58.8267 50.2443 58.8267 49.5139ZM60.2686 49.5139C60.2686 48.9783 60.0589 48.7293 59.7536 48.7293C59.4484 48.7293 59.2424 48.9783 59.2424 49.5139C59.2424 50.0495 59.4521 50.2986 59.7536 50.2986C60.0552 50.2986 60.2686 50.0495 60.2686 49.5139Z" fill="#263238"/>
<path d="M35.957 59.5386L36.0338 59.3644C36.149 59.4506 36.2889 59.4972 36.4327 59.4974C36.62 59.4974 36.6986 59.4299 36.6986 59.3401C36.6986 59.0816 35.9832 59.252 35.9832 58.8026C35.9832 58.6153 36.1368 58.443 36.4683 58.443C36.6093 58.4402 36.7482 58.4772 36.869 58.5498L36.7997 58.7239C36.6988 58.6637 36.5839 58.6307 36.4664 58.6284C36.2791 58.6284 36.2042 58.7015 36.2042 58.7932C36.2042 59.0498 36.9196 58.8831 36.9196 59.3251C36.9196 59.5123 36.7623 59.6828 36.4327 59.6828C36.2626 59.6883 36.0954 59.6376 35.957 59.5386Z" fill="#263238"/>
<path d="M38.0466 59.4786V59.6659H37.1421V58.4598H38.0223V58.6471H37.3668V58.9599H37.9492V59.1471H37.3668V59.4805L38.0466 59.4786Z" fill="#263238"/>
<path d="M38.2979 58.4598H38.5301V59.4767H39.1593V59.664H38.3053L38.2979 58.4598Z" fill="#263238"/>
<path d="M40.2361 59.4786V59.6659H39.3315V58.4598H40.2155V58.6471H39.5581V58.9599H40.1406V59.1471H39.5581V59.4805L40.2361 59.4786Z" fill="#263238"/>
<path d="M40.4028 59.0628C40.4089 58.9352 40.4523 58.8123 40.5277 58.7092C40.6031 58.6061 40.7071 58.5275 40.8268 58.483C40.9464 58.4385 41.0766 58.4301 41.201 58.459C41.3254 58.4878 41.4385 58.5526 41.5265 58.6452L41.3804 58.78C41.34 58.7348 41.2903 58.6988 41.2347 58.6746C41.1791 58.6504 41.1189 58.6384 41.0583 58.6395C40.9872 58.6398 40.9173 58.6578 40.855 58.6921C40.7927 58.7263 40.7399 58.7756 40.7016 58.8355C40.6633 58.8954 40.6406 58.964 40.6356 59.0349C40.6306 59.1058 40.6435 59.1768 40.6731 59.2415C40.7027 59.3061 40.748 59.3623 40.8049 59.405C40.8618 59.4476 40.9285 59.4752 40.9989 59.4854C41.0693 59.4956 41.141 59.4879 41.2077 59.4632C41.2743 59.4384 41.3337 59.3973 41.3804 59.3437L41.5265 59.4823C41.4381 59.5741 41.3248 59.6381 41.2005 59.6664C41.0762 59.6946 40.9464 59.6859 40.8269 59.6414C40.7075 59.5968 40.6038 59.5183 40.5284 59.4155C40.4531 59.3127 40.4094 59.1901 40.4028 59.0628V59.0628Z" fill="#263238"/>
<path d="M41.9667 58.6491H41.5659V58.4618H42.5903V58.6491H42.1895V59.6659H41.9667V58.6491Z" fill="#263238"/>
<path d="M44.2438 58.8887C44.2438 59.1546 44.0565 59.3175 43.7306 59.3175H43.4591V59.6659H43.2344V58.4598H43.7306C44.049 58.4598 44.2438 58.6228 44.2438 58.8887ZM44.019 58.8887C44.019 58.737 43.9179 58.649 43.7213 58.649H43.4591V59.1284H43.7213C43.9179 59.1284 44.019 59.0404 44.019 58.8887Z" fill="#263238"/>
<path d="M45.1915 59.3868H44.5885L44.4686 59.6659H44.2383L44.7814 58.4598H45.0023L45.5473 59.6659H45.3113L45.1915 59.3868ZM45.1166 59.2108L44.8975 58.6846L44.6709 59.2108H45.1166Z" fill="#263238"/>
<path d="M46.1481 59.2408V59.6659H45.9234V59.2445L45.459 58.4598H45.6987L46.0526 59.0479L46.4084 58.4598H46.6294L46.1481 59.2408Z" fill="#263238"/>
<path d="M47.8582 59.6659V58.8662L47.4631 59.5292H47.362L46.9575 58.8775V59.6659H46.7515V58.4598H46.9387L47.4182 59.2595L47.8882 58.4598H48.0755V59.6659H47.8582Z" fill="#263238"/>
<path d="M49.3025 59.4786V59.6659H48.3979V58.4598H49.2781V58.6471H48.6227V58.9599H49.2051V59.1471H48.6227V59.4805L49.3025 59.4786Z" fill="#263238"/>
<path d="M50.6238 58.4599V59.6659H50.4365L49.7717 58.8494V59.6659H49.5488V58.4599H49.7361L50.4028 59.2745V58.458L50.6238 58.4599Z" fill="#263238"/>
<path d="M51.1933 58.6491H50.7944V58.4618H51.8263V58.6491H51.4274V59.6659H51.2027L51.1933 58.6491Z" fill="#263238"/>
<path d="M53.5715 59.6659V58.8662L53.1745 59.5292H53.0753L52.6783 58.8775V59.6659H52.4629V58.4598H52.6502L53.1277 59.2595L53.5996 58.4598H53.7869V59.6659H53.5715Z" fill="#263238"/>
<path d="M55.0099 59.4786V59.6659H54.1035V58.4598H54.9856V58.6471H54.3282V58.9599H54.9107V59.1471H54.3282V59.4805L55.0099 59.4786Z" fill="#263238"/>
<path d="M55.5097 58.6491H55.1108V58.4618H56.1333V58.6491H55.7344V59.6659H55.5097V58.6491Z" fill="#263238"/>
<path d="M57.3749 58.4598V59.6659H57.1502V59.149H56.5266V59.6659H56.3037V58.4598H56.5266V58.958H57.1502V58.4598H57.3749Z" fill="#263238"/>
<path d="M57.613 59.0628C57.607 58.9332 57.64 58.8048 57.7076 58.694C57.7753 58.5833 57.8746 58.4954 57.9927 58.4416C58.1108 58.3877 58.2423 58.3705 58.3702 58.3921C58.4982 58.4137 58.6168 58.4731 58.7107 58.5627C58.8046 58.6522 58.8695 58.7679 58.8971 58.8947C58.9247 59.0215 58.9137 59.1536 58.8655 59.2741C58.8173 59.3946 58.7342 59.4979 58.6268 59.5708C58.5194 59.6436 58.3926 59.6826 58.2628 59.6827C58.1789 59.687 58.0949 59.6742 58.0161 59.645C57.9373 59.6157 57.8653 59.5707 57.8044 59.5127C57.7436 59.4547 57.6952 59.3849 57.6623 59.3075C57.6294 59.2302 57.6126 59.1469 57.613 59.0628V59.0628ZM58.6879 59.0628C58.6879 58.9788 58.663 58.8966 58.6163 58.8267C58.5696 58.7568 58.5032 58.7023 58.4255 58.6701C58.3478 58.6379 58.2624 58.6295 58.1799 58.6459C58.0974 58.6623 58.0217 58.7028 57.9622 58.7623C57.9028 58.8217 57.8623 58.8975 57.8459 58.9799C57.8295 59.0624 57.8379 59.1478 57.8701 59.2255C57.9023 59.3032 57.9567 59.3696 58.0267 59.4163C58.0966 59.463 58.1787 59.488 58.2628 59.488C58.3191 59.4898 58.3752 59.48 58.4276 59.4593C58.48 59.4386 58.5276 59.4073 58.5675 59.3675C58.6073 59.3277 58.6386 59.2801 58.6593 59.2277C58.68 59.1753 58.6898 59.1192 58.6879 59.0628V59.0628Z" fill="#263238"/>
<path d="M59.1523 58.4599H59.6786C59.7618 58.4533 59.8454 58.464 59.9242 58.4914C60.0031 58.5187 60.0754 58.562 60.1367 58.6187C60.198 58.6753 60.2469 58.744 60.2803 58.8205C60.3138 58.8969 60.331 58.9794 60.331 59.0629C60.331 59.1463 60.3138 59.2289 60.2803 59.3053C60.2469 59.3818 60.198 59.4505 60.1367 59.5071C60.0754 59.5637 60.0031 59.6071 59.9242 59.6344C59.8454 59.6617 59.7618 59.6725 59.6786 59.6659H59.1523V58.4599ZM59.6692 59.4768C59.779 59.4768 59.8842 59.4332 59.9619 59.3555C60.0395 59.2779 60.0831 59.1727 60.0831 59.0629C60.0831 58.9531 60.0395 58.8479 59.9619 58.7702C59.8842 58.6926 59.779 58.649 59.6692 58.649H59.3752V59.4768H59.6692Z" fill="#263238"/>
<path d="M62.2086 68.6886H36.0263C35.7334 68.6881 35.4527 68.5716 35.2455 68.3645C35.0384 68.1574 34.9219 67.8766 34.9214 67.5837V62.6454C34.9219 62.3525 35.0384 62.0718 35.2455 61.8647C35.4527 61.6576 35.7334 61.541 36.0263 61.5405H62.2086C62.5015 61.541 62.7822 61.6576 62.9893 61.8647C63.1964 62.0718 63.313 62.3525 63.3135 62.6454V67.5856C63.3125 67.8782 63.1957 68.1584 62.9886 68.3651C62.7816 68.5718 62.5011 68.6881 62.2086 68.6886ZM36.0263 61.7259C35.7831 61.7264 35.55 61.8233 35.378 61.9952C35.206 62.1672 35.1092 62.4003 35.1087 62.6435V67.5837C35.1092 67.827 35.206 68.0601 35.378 68.2321C35.55 68.404 35.7831 68.5009 36.0263 68.5014H62.2086C62.4518 68.5009 62.6849 68.404 62.8569 68.2321C63.0289 68.0601 63.1257 67.827 63.1262 67.5837V62.6454C63.1257 62.4022 63.0289 62.1691 62.8569 61.9971C62.6849 61.8251 62.4518 61.7283 62.2086 61.7278L36.0263 61.7259Z" fill="#E0E0E0"/>
<path d="M41.9648 63.8026H37.665V67.1697H41.9648V63.8026Z" fill="#00C802"/>
<path d="M44.5399 65.8288L44.2646 65.4412L43.9912 65.8288H43.7739L44.1485 65.3082L43.7908 64.8101H44.0043L44.2646 65.1715L44.5211 64.8101H44.7271L44.3694 65.3026L44.744 65.8288H44.5399Z" fill="#263238"/>
<path d="M45.5262 65.8288L45.249 65.4412L44.9756 65.8288H44.7603L45.1348 65.3082L44.7771 64.8101H44.9906L45.2509 65.1715L45.5075 64.8101H45.7135L45.3576 65.3026L45.7322 65.8288H45.5262Z" fill="#263238"/>
<path d="M46.5115 65.8288L46.2344 65.4412L45.961 65.8288H45.7456L46.1201 65.3082L45.7625 64.8101H45.9759L46.2363 65.1715L46.4947 64.8101H46.6988L46.343 65.3026L46.7175 65.8288H46.5115Z" fill="#263238"/>
<path d="M47.9198 65.8288L47.6427 65.4412L47.3692 65.8288H47.1558L47.5303 65.3082L47.1726 64.8101H47.388L47.6483 65.1715L47.9048 64.8101H48.1108L47.7532 65.3026L48.1371 65.8288H47.9198Z" fill="#263238"/>
<path d="M48.9047 65.8288L48.6294 65.4412L48.356 65.8288H48.1406L48.5152 65.3082L48.1575 64.8101H48.371L48.6313 65.1715L48.8878 64.8101H49.0938L48.738 65.3026L49.1126 65.8288H48.9047Z" fill="#263238"/>
<path d="M49.8919 65.8288L49.6148 65.4412L49.3413 65.8288H49.126L49.5005 65.3082L49.1428 64.8101H49.3563L49.6166 65.1715L49.8751 64.8101H50.0792L49.7234 65.3026L50.0979 65.8288H49.8919Z" fill="#263238"/>
<path d="M51.3006 65.8288L51.0234 65.4412L50.75 65.8288H50.5347L50.9092 65.3082L50.5515 64.8101H50.765L51.0253 65.1715L51.2837 64.8101H51.4879L51.1321 65.3026L51.5066 65.8288H51.3006Z" fill="#263238"/>
<path d="M52.2851 65.8288L52.0135 65.4412L51.7364 65.8288H51.521L51.8955 65.3082L51.5378 64.8101H51.7532L52.0135 65.1715L52.2701 64.8101H52.4761L52.1184 65.3026L52.5023 65.8288H52.2851Z" fill="#263238"/>
<path d="M53.2699 65.8288L52.9946 65.4412L52.7212 65.8288H52.5059L52.8804 65.3082L52.5227 64.8101H52.7362L52.9965 65.1715L53.2531 64.8101H53.4591L53.1033 65.3026L53.4778 65.8288H53.2699Z" fill="#263238"/>
<path d="M54.3167 64.8101V65.8288H54.1294V64.9692H53.9141V64.8101H54.3167Z" fill="#263238"/>
<path d="M55.2572 65.6679V65.8289H54.5082V65.7016L54.9127 65.3177C55.0119 65.224 55.0288 65.1641 55.0288 65.1061C55.0288 65.0143 54.9651 64.96 54.8415 64.96C54.7962 64.9576 54.751 64.966 54.7096 64.9845C54.6683 65.0031 54.6319 65.0313 54.6037 65.0667L54.4707 64.9637C54.5179 64.9076 54.5774 64.8631 54.6447 64.8338C54.712 64.8046 54.7851 64.7914 54.8584 64.7952C55.0793 64.7952 55.2217 64.9076 55.2217 65.0873C55.2201 65.1503 55.2041 65.2121 55.1748 65.268C55.1456 65.3238 55.104 65.3722 55.0531 65.4094L54.7797 65.6679H55.2572Z" fill="#263238"/>
<path d="M56.0883 65.5236C56.0883 65.694 55.9591 65.8438 55.6857 65.8438C55.5485 65.8457 55.4142 65.8045 55.3018 65.7258L55.3842 65.5779C55.4689 65.6446 55.574 65.6803 55.6819 65.679C55.8168 65.679 55.8973 65.6191 55.8973 65.5236C55.8973 65.4281 55.8299 65.3737 55.6763 65.3737H55.5827V65.2445L55.8149 64.9692H55.3523V64.8101H56.0452V64.9374L55.798 65.2314C55.8363 65.2314 55.8742 65.239 55.9095 65.2537C55.9449 65.2684 55.977 65.2899 56.0039 65.3171C56.0309 65.3442 56.0523 65.3765 56.0667 65.4119C56.0812 65.4473 56.0885 65.4853 56.0883 65.5236V65.5236Z" fill="#263238"/>
<path d="M57.1185 65.5966H56.9312V65.8288H56.7439V65.5966H56.1821V65.4655L56.684 64.8101H56.8863L56.4125 65.4374H56.7458V65.2314H56.9237V65.4374H57.111L57.1185 65.5966Z" fill="#263238"/>
<path d="M60.6656 65.7052C60.6524 65.7051 60.6395 65.7022 60.6275 65.6967C60.6156 65.6912 60.6049 65.6833 60.5963 65.6734L59.9558 64.9655C59.9467 64.9566 59.9395 64.9459 59.9347 64.9341C59.9299 64.9223 59.9275 64.9096 59.9278 64.8968C59.928 64.8841 59.9309 64.8715 59.9362 64.8599C59.9415 64.8483 59.9491 64.8378 59.9585 64.8293C59.968 64.8207 59.9791 64.8142 59.9912 64.8101C60.0033 64.8059 60.0161 64.8043 60.0288 64.8053C60.0415 64.8064 60.0539 64.81 60.0652 64.8159C60.0764 64.8219 60.0864 64.8301 60.0944 64.8401L60.6656 65.4712L61.2386 64.8401C61.2556 64.8233 61.2784 64.8138 61.3023 64.8133C61.3262 64.8128 61.3493 64.8215 61.367 64.8375C61.3847 64.8535 61.3956 64.8757 61.3975 64.8995C61.3994 64.9233 61.3921 64.9469 61.3772 64.9655L60.7348 65.6734C60.7264 65.6836 60.7158 65.6917 60.7038 65.6972C60.6918 65.7027 60.6788 65.7055 60.6656 65.7052V65.7052Z" fill="#E0E0E0"/>
<path d="M37.7305 77.4789C37.7296 77.4063 37.7437 77.3343 37.772 77.2675C37.8003 77.2006 37.8422 77.1404 37.895 77.0906C37.9478 77.0407 38.0104 77.0024 38.0788 76.9781C38.1472 76.9537 38.2199 76.9438 38.2923 76.949C38.3686 76.946 38.4445 76.96 38.5148 76.9897C38.585 77.0195 38.6478 77.0644 38.6987 77.1213L38.5751 77.2374C38.5406 77.1986 38.4981 77.1677 38.4507 77.1467C38.4032 77.1257 38.3517 77.1151 38.2998 77.1156C38.25 77.1121 38.2001 77.1188 38.153 77.1354C38.1059 77.152 38.0628 77.1781 38.0262 77.2121C37.9897 77.2461 37.9606 77.2872 37.9407 77.333C37.9207 77.3787 37.9104 77.4281 37.9104 77.478C37.9104 77.5279 37.9207 77.5773 37.9407 77.623C37.9606 77.6688 37.9897 77.71 38.0262 77.744C38.0628 77.778 38.1059 77.8041 38.153 77.8207C38.2001 77.8372 38.25 77.844 38.2998 77.8404C38.3518 77.8414 38.4034 77.8311 38.451 77.8101C38.4985 77.789 38.5409 77.7578 38.5751 77.7187L38.6987 77.8366C38.6226 77.9132 38.526 77.9662 38.4205 77.9893C38.315 78.0124 38.2052 78.0046 38.104 77.9668C38.0029 77.9291 37.9147 77.863 37.8501 77.7765C37.7856 77.69 37.7473 77.5867 37.7399 77.4789H37.7305Z" fill="#E0E0E0"/>
<path d="M39.5208 77.7542H39.0058L38.9046 78.0014H38.708L39.1724 76.9714H39.3597L39.826 78.0014H39.6256L39.5208 77.7542ZM39.4571 77.6044L39.2698 77.155L39.0825 77.6044H39.4571Z" fill="#E0E0E0"/>
<path d="M40.8712 76.964V78.0015H40.712L40.1502 77.3029V78.0015H39.9629V76.9715H40.1202L40.682 77.6681V76.9715L40.8712 76.964Z" fill="#E0E0E0"/>
<path d="M41.0733 77.4791C41.0803 77.371 41.1185 77.2672 41.1832 77.1803C41.2479 77.0934 41.3363 77.0271 41.4378 76.9893C41.5394 76.9515 41.6496 76.9438 41.7554 76.9673C41.8612 76.9907 41.9579 77.0442 42.034 77.1214L41.9104 77.2375C41.8754 77.1993 41.8329 77.1687 41.7855 77.1477C41.7381 77.1268 41.6869 77.1159 41.6351 77.1158C41.5853 77.1122 41.5353 77.1189 41.4882 77.1355C41.4412 77.1521 41.398 77.1782 41.3615 77.2122C41.325 77.2462 41.2958 77.2873 41.2759 77.3331C41.256 77.3788 41.2457 77.4282 41.2457 77.4781C41.2457 77.528 41.256 77.5774 41.2759 77.6232C41.2958 77.6689 41.325 77.7101 41.3615 77.7441C41.398 77.7781 41.4412 77.8042 41.4882 77.8208C41.5353 77.8374 41.5853 77.8441 41.6351 77.8405C41.687 77.8412 41.7385 77.8307 41.786 77.8097C41.8335 77.7886 41.8759 77.7576 41.9104 77.7188L42.034 77.8367C41.982 77.8933 41.9185 77.9379 41.8477 77.9677C41.7769 77.9974 41.7006 78.0115 41.6238 78.009C41.5524 78.0124 41.481 78.0011 41.4141 77.9759C41.3472 77.9507 41.2861 77.9121 41.2345 77.8625C41.183 77.8129 41.1421 77.7533 41.1144 77.6874C41.0867 77.6215 41.0727 77.5506 41.0733 77.4791V77.4791Z" fill="#E0E0E0"/>
<path d="M42.9907 77.8329V78.0014H42.2173V76.9714H42.9664V77.1306H42.4046V77.3984H42.9027V77.5557H42.4046V77.8404L42.9907 77.8329Z" fill="#E0E0E0"/>
<path d="M43.2119 76.964H43.3992V77.8311H43.9366V78.0015H43.2119V76.964Z" fill="#E0E0E0"/>
<path d="M61.3207 74.4808H49.298C48.5647 74.4808 47.9702 75.0753 47.9702 75.8086V79.3461C47.9702 80.0794 48.5647 80.6739 49.298 80.6739H61.3207C62.054 80.6739 62.6485 80.0794 62.6485 79.3461V75.8086C62.6485 75.0753 62.054 74.4808 61.3207 74.4808Z" fill="#00C802"/>
<path d="M52.3379 77.0483H51.9634V76.8779H52.9147V77.054H52.5402V77.9903H52.3304L52.3379 77.0483Z" fill="white"/>
<path d="M52.9782 77.4396C52.9726 77.3189 53.0032 77.1994 53.0662 77.0963C53.1292 76.9932 53.2216 76.9113 53.3315 76.8612C53.4414 76.811 53.5638 76.795 53.6829 76.815C53.802 76.8351 53.9124 76.8904 53.9999 76.9738C54.0873 77.0571 54.1477 77.1648 54.1735 77.2828C54.1992 77.4008 54.1889 77.5239 54.1441 77.636C54.0993 77.7482 54.0219 77.8444 53.9219 77.9122C53.8219 77.98 53.7039 78.0163 53.5831 78.0164C53.5049 78.0205 53.4268 78.0086 53.3534 77.9814C53.28 77.9542 53.213 77.9123 53.1564 77.8583C53.0997 77.8043 53.0547 77.7394 53.0241 77.6674C52.9934 77.5954 52.9778 77.5179 52.9782 77.4396V77.4396ZM53.9782 77.4396C53.9782 77.3615 53.955 77.2851 53.9116 77.2201C53.8682 77.1551 53.8065 77.1045 53.7343 77.0746C53.6621 77.0446 53.5826 77.0368 53.506 77.0521C53.4293 77.0673 53.3589 77.1049 53.3037 77.1602C53.2484 77.2155 53.2108 77.2859 53.1955 77.3625C53.1803 77.4392 53.1881 77.5186 53.218 77.5908C53.2479 77.663 53.2986 77.7247 53.3635 77.7682C53.4285 77.8116 53.5049 77.8348 53.5831 77.8348C53.6358 77.8377 53.6885 77.8296 53.7378 77.8108C53.787 77.792 53.8318 77.763 53.8691 77.7257C53.9064 77.6884 53.9354 77.6436 53.9542 77.5943C53.973 77.545 53.9812 77.4923 53.9782 77.4396Z" fill="white"/>
<path d="M55.3469 77.2712C55.3469 77.5184 55.1596 77.6701 54.8694 77.6701H54.6166V78.0016H54.4087V76.8779H54.8694C55.1653 76.8779 55.3469 77.0221 55.3469 77.2712ZM55.1372 77.2712C55.1372 77.1289 55.0435 77.0483 54.86 77.0483H54.6166V77.4941H54.86C55.0435 77.4941 55.1372 77.4117 55.1372 77.2712Z" fill="white"/>
<path d="M56.0044 77.5053V76.8779H56.2122V77.5015C56.2122 77.7338 56.3171 77.833 56.4988 77.833C56.6804 77.833 56.7815 77.7338 56.7815 77.5015V76.8779H56.9875V77.5109C56.9917 77.578 56.982 77.6453 56.9592 77.7085C56.9364 77.7717 56.9008 77.8296 56.8548 77.8786C56.8087 77.9276 56.7531 77.9666 56.6914 77.9933C56.6297 78.02 56.5632 78.0338 56.4959 78.0338C56.4287 78.0338 56.3622 78.02 56.3005 77.9933C56.2388 77.9666 56.1832 77.9276 56.1371 77.8786C56.091 77.8296 56.0555 77.7717 56.0327 77.7085C56.0099 77.6453 56.0002 77.578 56.0044 77.5109V77.5053Z" fill="white"/>
<path d="M58.2179 77.2712C58.2179 77.5184 58.0307 77.6701 57.7404 77.6701H57.4857V78.0016H57.2778V76.8779H57.7404C58.0344 76.8779 58.2179 77.0221 58.2179 77.2712ZM58.0082 77.2712C58.0082 77.1289 57.9127 77.0483 57.731 77.0483H57.4857V77.4941H57.731C57.9127 77.4941 58.0063 77.4117 58.0063 77.2712H58.0082Z" fill="white"/>
<path d="M64.6148 72.2992C64.6148 72.3273 57.5416 72.3479 48.8186 72.3479C40.0955 72.3479 33.0186 72.3273 33.0186 72.2992C33.0186 72.2711 40.0918 72.2505 48.8186 72.2505C57.5454 72.2505 64.6148 72.273 64.6148 72.2992Z" fill="#E0E0E0"/>
<path d="M86.098 76.9163C86.3344 75.648 86.235 74.3391 85.8098 73.1221C85.3847 71.9051 84.6489 70.8232 83.6769 69.9857C83.6769 69.9857 83.1143 69.778 83.1628 70.413C83.1919 70.7933 82.831 71.3303 82.5303 71.0971C82.0085 70.6913 82.1734 69.8642 81.9483 69.239C81.6864 68.5059 80.9143 68.1159 80.2023 67.8043C78.8986 67.2261 77.5736 66.6675 76.1729 66.4107C74.7723 66.1539 73.2785 66.2147 72 66.8556C72.3104 67.4867 72.6201 68.1172 72.9293 68.747C72.9562 68.8299 72.9991 68.9065 73.0555 68.9725C73.112 69.0384 73.1807 69.0925 73.2579 69.1315C73.3351 69.1705 73.4192 69.1936 73.5053 69.1996C73.5914 69.2056 73.6778 69.1944 73.7596 69.1665L75.4551 69.041C75.7015 69.0234 76.0216 69.0528 76.0915 69.2899C76.1729 69.5604 75.8528 69.7623 75.5909 69.8564L73.812 70.5012C74.4037 71.3654 75.2172 72.0504 76.1652 72.4828C77.11 72.9104 78.0911 73.2508 79.0965 73.5C79.4062 73.6179 79.7428 73.6438 80.0665 73.5745C80.5845 73.4059 80.9434 72.7513 81.4827 72.8317C81.4519 73.1324 81.3623 73.4239 81.2191 73.6894C81.0759 73.9549 80.882 74.189 80.6485 74.3781C82.7457 75.2091 84.2084 76.2264 86.0805 76.9261" fill="#00C802"/>
<path d="M87.8965 86.3243C87.8965 86.3243 87.8965 86.3066 87.881 86.2694L87.8461 86.1067C87.8151 85.9577 87.7704 85.748 87.7161 85.4815C87.6055 84.9307 87.4503 84.1467 87.2583 83.1785C87.1632 82.6924 87.0643 82.1593 86.9459 81.5889C86.8916 81.3027 86.8334 81.0009 86.7733 80.701L86.684 80.2385C86.6608 80.0797 86.6394 79.919 86.6161 79.7563C86.4221 78.4666 86.1893 77.028 85.5666 75.656C84.9439 74.284 83.9292 73.2256 82.9689 72.3593C82.1022 71.5988 81.1779 70.9081 80.2044 70.2934C79.378 69.7603 78.6912 69.3605 78.2179 69.0782L77.6747 68.7529L77.5331 68.6666C77.502 68.647 77.4865 68.6353 77.4884 68.6333L77.5389 68.6568L77.6844 68.7352L78.2373 69.0429C78.7165 69.3154 79.411 69.7074 80.2432 70.2327C81.2252 70.8419 82.1575 71.5294 83.031 72.2887C83.5449 72.7401 84.0247 73.2294 84.4666 73.7528C84.9434 74.3172 85.3446 74.9426 85.6597 75.6129C86.2883 77.0025 86.5172 78.4509 86.7073 79.7426C86.7306 79.9053 86.7519 80.064 86.7733 80.2228C86.7946 80.3815 86.8334 80.5344 86.8606 80.6873L87.0294 81.5732C87.1361 82.1455 87.2369 82.6787 87.3281 83.1667C87.5066 84.1349 87.6521 84.9307 87.7549 85.4756C87.8015 85.7421 87.8383 85.9519 87.8655 86.1028C87.8771 86.1714 87.8849 86.2243 87.8927 86.2674C87.8961 86.2862 87.8974 86.3052 87.8965 86.3243V86.3243Z" fill="#263238"/>
<path d="M91.1867 62.5789C90.7288 63.257 89.4504 62.9277 89.3708 62.1104C89.2913 61.2931 90.4825 60.7188 91.0625 61.297C91.2651 58.898 91.023 56.4818 90.3486 54.1724C90.2154 54.6462 89.9906 55.0885 89.6871 55.4739C89.3592 55.8365 88.8315 56.0619 88.3756 55.8874C87.7606 55.6542 87.5783 54.8016 87.8344 54.1901C88.0904 53.5785 88.6453 53.1552 89.1749 52.7612C88.7506 51.9569 88.1679 51.2487 87.4626 50.6804C86.7573 50.1121 85.9443 49.6957 85.0737 49.4567C84.3909 50.5739 83.6983 51.7126 83.3918 52.9847C83.0852 54.2567 83.223 55.713 84.0649 56.7087C84.4238 57.132 84.8972 57.4633 85.1746 57.9454C85.452 58.4276 85.4326 59.1665 84.9438 59.4252C84.3618 59.731 83.7196 59.1547 83.3918 58.5883C83.0639 58.0219 82.7322 57.3221 82.09 57.2163C81.702 61.74 84.0203 66.395 87.8499 68.7803L87.7839 68.7176C89.3044 66.9157 90.4604 64.8301 91.1867 62.5789ZM88.2379 57.5691C88.5793 57.2516 88.9871 57.0158 89.431 56.8792C89.5201 56.8451 89.6176 56.8401 89.7098 56.8647C89.8019 56.8892 89.8842 56.9423 89.9451 57.0164C90.0032 57.0922 90.0448 57.1796 90.0672 57.2729C90.0896 57.3661 90.0923 57.463 90.0751 57.5573C90.0389 57.7461 89.9614 57.9242 89.8481 58.0787C89.6784 58.343 89.4402 58.5552 89.1594 58.6922C89.0185 58.759 88.8649 58.7936 88.7093 58.7936C88.5537 58.7936 88.4001 58.759 88.2592 58.6922C88.16 58.6468 88.0744 58.5758 88.0111 58.4863C87.9477 58.3969 87.9088 58.2921 87.8984 58.1826C87.9087 58.0619 87.9443 57.9447 88.0028 57.8389C88.0614 57.7332 88.1415 57.6412 88.2379 57.5691V57.5691Z" fill="#00C802"/>
<path d="M88.7422 86.3242C88.7397 86.3008 88.7397 86.2771 88.7422 86.2537C88.7422 86.2008 88.7422 86.1322 88.7325 86.044C88.7325 85.848 88.7151 85.5834 88.7015 85.2404C88.6743 84.5348 88.6355 83.5273 88.5851 82.2827C88.4765 79.7857 88.3038 76.338 88.0244 72.5356C87.7451 68.7332 87.425 65.2954 87.1553 62.8121C87.0253 61.5694 86.9031 60.5659 86.8197 59.8721C86.7809 59.5291 86.7499 59.2606 86.7285 59.0724L86.7072 58.8646C86.705 58.8405 86.705 58.8162 86.7072 58.7921C86.7152 58.8149 86.7204 58.8386 86.7227 58.8627C86.7227 58.9136 86.7402 58.9822 86.7537 59.0704C86.779 59.2664 86.8158 59.5252 86.8624 59.8662C86.9574 60.56 87.0894 61.5616 87.229 62.8062C87.5181 65.2876 87.8557 68.7254 88.1292 72.5298C88.4027 76.3341 88.5696 79.7818 88.6608 82.2808C88.7054 83.5312 88.7325 84.5406 88.7461 85.2404C88.7461 85.5853 88.7461 85.8558 88.7558 86.0459V86.2537C88.7542 86.2777 88.7497 86.3014 88.7422 86.3242V86.3242Z" fill="#263238"/>
<path d="M81.498 82.1201L83.3042 89.8602H92.7694L94.7715 82.1201H81.498Z" fill="#455A64"/>
<path d="M84.4741 88.2333C84.4741 88.3803 85.2074 92.8177 85.2074 92.8177H90.9654L91.5997 88.2333H84.4741Z" fill="#455A64"/>
<path d="M92.5079 89.8249C92.5079 89.8523 90.4418 89.8758 87.8946 89.8758C85.3473 89.8758 83.2812 89.8523 83.2812 89.8249C83.2812 89.7974 85.3454 89.7739 87.8946 89.7739C90.4437 89.7739 92.5079 89.7955 92.5079 89.8249Z" fill="#263238"/>
<path d="M93.4933 86.7045C93.4933 86.732 91.0567 86.7555 88.0613 86.7555C85.066 86.7555 82.6196 86.732 82.6196 86.7045C82.6196 86.6771 85.0563 86.6536 88.0613 86.6536C91.0664 86.6536 93.4933 86.6751 93.4933 86.7045Z" fill="#263238"/>
<path d="M93.0645 87.7825C93.0645 87.81 90.7714 87.8335 87.9429 87.8335C85.1144 87.8335 82.8213 87.81 82.8213 87.7825C82.8213 87.7551 85.1144 87.7316 87.9429 87.7316C90.7714 87.7316 93.0645 87.7531 93.0645 87.7825Z" fill="#263238"/>
<path d="M93.0352 88.8605C93.0352 88.888 90.8236 88.9115 88.0979 88.9115C85.3722 88.9115 83.1587 88.888 83.1587 88.8605C83.1587 88.8331 85.3703 88.8096 88.0979 88.8096C90.8256 88.8096 93.0352 88.8311 93.0352 88.8605Z" fill="#263238"/>
<path d="M93.7668 85.652C93.7668 85.6795 91.2215 85.703 88.0826 85.703C84.9437 85.703 82.3945 85.6854 82.3945 85.652C82.3945 85.6187 84.9398 85.5991 88.0807 85.5991C91.2215 85.5991 93.7668 85.6285 93.7668 85.652Z" fill="#263238"/>
<path d="M93.949 84.7955C93.949 84.8229 91.3571 84.8464 88.1581 84.8464C84.959 84.8464 82.3672 84.8229 82.3672 84.7955C82.3672 84.768 84.959 84.7445 88.1581 84.7445C91.3571 84.7445 93.949 84.7661 93.949 84.7955Z" fill="#263238"/>
</svg>
