<svg width="98" height="98" viewBox="0 0 98 98" fill="none" xmlns="http://www.w3.org/2000/svg">
<path d="M93.4451 90.5519C93.4451 90.5794 73.5452 90.6029 49.0021 90.6029C24.459 90.6029 4.55518 90.5696 4.55518 90.5519C4.55518 90.5343 24.4511 90.501 49.0021 90.501C73.5531 90.501 93.4451 90.5127 93.4451 90.5519Z" fill="#263238"/>
<path d="M84.9776 63.5216H57.5905C56.6422 63.5216 55.8735 64.2903 55.8735 65.2386V88.8193C55.8735 89.7676 56.6422 90.5363 57.5905 90.5363H84.9776C85.9258 90.5363 86.6945 89.7676 86.6945 88.8193V65.2386C86.6945 64.2903 85.9258 63.5216 84.9776 63.5216Z" fill="#455A64"/>
<g opacity="0.3">
<path d="M55.8735 81.236H67.1004C67.3083 81.236 67.5078 81.1534 67.6548 81.0064C67.8018 80.8594 67.8844 80.66 67.8844 80.452H55.9049L55.8735 81.236Z" fill="black"/>
</g>
<path d="M67.3669 73.5411H56.0264C55.4862 73.5411 55.0483 73.979 55.0483 74.5192V79.574C55.0483 80.1142 55.4862 80.5521 56.0264 80.5521H67.3669C67.9071 80.5521 68.345 80.1142 68.345 79.574V74.5192C68.345 73.979 67.9071 73.5411 67.3669 73.5411Z" fill="#455A64"/>
<path d="M67.3669 80.5559C67.4977 80.5479 67.6262 80.5181 67.7472 80.4677C67.8944 80.4014 68.024 80.3013 68.1255 80.1757C68.2551 80.0029 68.324 79.792 68.3215 79.5759C68.3215 78.5959 68.3117 77.1632 68.3058 75.4051C68.3058 75.1855 68.3058 74.9601 68.3058 74.7289C68.3088 74.6144 68.3049 74.4998 68.294 74.3859C68.2787 74.2722 68.2421 74.1625 68.1862 74.0625C68.071 73.8547 67.8811 73.6985 67.6551 73.6254C67.5382 73.5904 67.4163 73.5752 67.2944 73.5803H66.9024H63.5959H56.0205C55.8628 73.5816 55.708 73.6232 55.5708 73.7011C55.4336 73.7789 55.3185 73.8905 55.2365 74.0252C55.153 74.1589 55.107 74.3126 55.1032 74.4701C55.1032 74.6309 55.1032 74.7994 55.1032 74.9621C55.1032 75.6154 55.1032 76.2596 55.1032 76.8947V78.7606C55.1032 79.0624 55.1032 79.3721 55.1032 79.6602C55.1163 79.8017 55.1616 79.9384 55.2357 80.0596C55.3098 80.1809 55.4106 80.2837 55.5305 80.3599C55.6496 80.4334 55.7835 80.4796 55.9225 80.4952C56.0558 80.5089 56.2047 80.4952 56.3459 80.4952H58.7841H61.6653L65.8362 80.5128H66.971H67.265H67.3669C67.3669 80.5128 67.3317 80.5128 67.265 80.5128H66.971L65.8362 80.5226L61.6575 80.5873H58.7763H57.171H56.34C56.1949 80.5873 56.0597 80.5873 55.9068 80.5873C55.7554 80.5701 55.6099 80.5185 55.4815 80.4364C55.3498 80.3543 55.2385 80.2434 55.156 80.112C55.0734 79.9806 55.0219 79.8321 55.0052 79.6779C54.9935 79.3701 55.0052 79.0761 55.0052 78.7684C55.0052 78.1589 55.0052 77.5356 55.0052 76.9025V74.9699C55.0052 74.8053 55.0052 74.6426 55.0052 74.4741C55.0106 74.2995 55.0612 74.1293 55.1522 73.9801C55.2455 73.8328 55.3747 73.7115 55.5275 73.6275C55.6804 73.5436 55.852 73.4997 56.0264 73.4999H63.6018H66.9083H67.3003C67.4328 73.4941 67.5653 73.5106 67.6923 73.5489C67.9381 73.6295 68.1441 73.8004 68.2685 74.0272C68.3276 74.1355 68.3662 74.2537 68.3822 74.3761C68.3938 74.4939 68.3978 74.6124 68.394 74.7308C68.394 74.9621 68.394 75.1875 68.394 75.407C68.394 77.171 68.3803 78.5901 68.3763 79.5799C68.3773 79.8258 68.2857 80.0631 68.1197 80.2447C67.9538 80.4262 67.7257 80.5387 67.4806 80.5599L67.3669 80.5559Z" fill="#263238"/>
<g opacity="0.3">
<path d="M65.066 79.7739C66.1528 79.7739 67.0338 78.8929 67.0338 77.8061C67.0338 76.7193 66.1528 75.8383 65.066 75.8383C63.9792 75.8383 63.0981 76.7193 63.0981 77.8061C63.0981 78.8929 63.9792 79.7739 65.066 79.7739Z" fill="black"/>
</g>
<path d="M66.4576 78.5115C67.2261 77.743 67.2261 76.497 66.4576 75.7285C65.6891 74.96 64.4432 74.96 63.6747 75.7285C62.9062 76.497 62.9062 77.743 63.6747 78.5115C64.4432 79.28 65.6891 79.28 66.4576 78.5115Z" fill="#EBEBEB"/>
<path d="M67.0357 77.1201C67.022 77.1201 67.0357 76.9456 66.9534 76.6438C66.8393 76.2207 66.5868 75.8481 66.2361 75.5854C65.9788 75.3913 65.6768 75.265 65.358 75.218C65.0391 75.1711 64.7136 75.2051 64.4113 75.3169C64.2376 75.3786 64.0744 75.4666 63.9272 75.5776C63.7707 75.6913 63.6337 75.8296 63.5215 75.9872C63.2796 76.3158 63.1492 76.7131 63.1492 77.1211C63.1492 77.529 63.2796 77.9263 63.5215 78.2549C63.7463 78.5604 64.0556 78.7935 64.4113 78.9252C64.6653 79.0182 64.9359 79.0571 65.2057 79.0396C65.4756 79.022 65.7389 78.9484 65.9787 78.8233C66.2185 78.6982 66.4295 78.5245 66.5984 78.3133C66.7672 78.102 66.8902 77.8578 66.9593 77.5963C66.9948 77.4391 67.0223 77.2801 67.0416 77.1201C67.0527 77.2834 67.0382 77.4474 66.9985 77.6062C66.8965 78.0469 66.6442 78.4385 66.2851 78.7136C66.0389 78.9055 65.7507 79.0365 65.4442 79.0957C65.0904 79.1633 64.7249 79.1349 64.3858 79.0134C64.2024 78.9494 64.0298 78.8575 63.8743 78.741C63.7102 78.622 63.566 78.4778 63.447 78.3137C63.1913 77.9686 63.0532 77.5505 63.0532 77.1211C63.0532 76.6916 63.1913 76.2735 63.447 75.9284C63.5654 75.7639 63.7097 75.6196 63.8743 75.5011C64.0297 75.384 64.2023 75.2915 64.3858 75.2267C64.7251 75.1059 65.0906 75.0782 65.4442 75.1463C65.8194 75.2182 66.1658 75.3971 66.4416 75.6614C66.7173 75.9257 66.9108 76.2642 66.9985 76.636C67.036 76.7944 67.0485 76.9577 67.0357 77.1201Z" fill="#263238"/>
<path d="M65.0647 23.3028L63.7691 23.146C62.7353 23.8367 61.4805 24.1158 60.2514 23.9283C59.0222 23.7408 57.9077 23.1004 57.1268 22.1328C56.3459 21.1653 55.9551 19.9406 56.0313 18.6996C56.1076 17.4586 56.6452 16.291 57.5386 15.4263C58.432 14.5615 59.6166 14.0623 60.8594 14.0266C62.1023 13.9909 63.3135 14.4214 64.255 15.2334C65.1966 16.0455 65.8004 17.1803 65.9476 18.4149C66.0949 19.6495 65.7751 20.8946 65.051 21.9053V21.9053L65.0647 23.3028Z" fill="white"/>
<path d="M65.0648 23.3029C65.0648 23.3029 65.0648 23.2695 65.0648 23.2068C65.0648 23.1441 65.0648 23.0539 65.0648 22.9363C65.0648 22.6972 65.0531 22.3483 65.0452 21.9034L65.0746 21.9171C65.073 21.9189 65.071 21.9202 65.0688 21.9212C65.0666 21.9221 65.0643 21.9226 65.0619 21.9226C65.0595 21.9226 65.0572 21.9221 65.055 21.9212C65.0528 21.9202 65.0508 21.9189 65.0492 21.9171C65.0469 21.9136 65.0457 21.9095 65.0457 21.9054C65.0457 21.9012 65.0469 21.8971 65.0492 21.8936C65.5164 21.2376 65.8158 20.4772 65.9214 19.6788C65.9899 19.1572 65.976 18.6281 65.8802 18.1108C65.7682 17.5234 65.5511 16.961 65.2393 16.4507C64.89 15.8886 64.4339 15.4005 63.8967 15.014C63.3178 14.5925 62.6523 14.3052 61.9484 14.1732C61.1995 14.0341 60.4288 14.0669 59.6944 14.2692C58.9228 14.4848 58.217 14.889 57.6404 15.4452C57.3416 15.7235 57.0783 16.0375 56.8564 16.3801C56.7564 16.5546 56.6604 16.7271 56.5663 16.9054L56.4487 17.1798L56.3918 17.3151L56.3468 17.4562C56.1098 18.188 56.0427 18.9642 56.1508 19.7259C56.2533 20.4421 56.5159 21.1261 56.9191 21.727C57.6218 22.798 58.712 23.5553 59.961 23.8399L60.3726 23.9105C60.5078 23.932 60.6431 23.934 60.7646 23.9477C61.0181 23.9642 61.2725 23.959 61.5251 23.932C62.3236 23.8557 63.0918 23.5867 63.7634 23.148H63.7752L64.7297 23.2735L64.9806 23.3087L65.0688 23.3225H64.9864L64.7395 23.297L63.7712 23.1911H63.783C63.111 23.6454 62.3376 23.9275 61.531 24.0124C61.2753 24.0417 61.0175 24.0483 60.7607 24.032C60.6274 24.0202 60.4922 24.0183 60.355 23.9987L59.9375 23.9281C59.341 23.7956 58.7737 23.5551 58.2636 23.2186C57.6966 22.836 57.2115 22.3443 56.8368 21.7721C56.4257 21.1623 56.1577 20.4675 56.0528 19.7396C55.9407 18.9644 56.0077 18.1739 56.2488 17.4287L56.2938 17.2857L56.3526 17.1465C56.3938 17.0544 56.433 16.9505 56.4722 16.8682C56.5604 16.6839 56.6682 16.5095 56.7662 16.3311C56.9884 15.9833 57.2516 15.6635 57.5502 15.3786C58.1372 14.8153 58.8553 14.4071 59.6396 14.1908C60.3942 13.9783 61.1876 13.9427 61.9582 14.0869C62.6742 14.2219 63.3507 14.516 63.9378 14.9474C64.4804 15.3411 64.94 15.8379 65.2902 16.4095C65.6058 16.9283 65.8243 17.5001 65.9351 18.0971C66.0287 18.622 66.0399 19.1583 65.9684 19.6867C65.8559 20.4921 65.547 21.2574 65.0688 21.9152L65.0413 21.8917C65.043 21.8899 65.0449 21.8886 65.0471 21.8876C65.0493 21.8867 65.0517 21.8862 65.0541 21.8862C65.0564 21.8862 65.0588 21.8867 65.061 21.8876C65.0632 21.8886 65.0651 21.8899 65.0668 21.8917C65.0677 21.8935 65.0681 21.8955 65.0681 21.8975C65.0681 21.8996 65.0677 21.9016 65.0668 21.9034V22.9481C65.0668 23.0618 65.0668 23.1441 65.0668 23.2147C65.0668 23.2852 65.0648 23.3029 65.0648 23.3029Z" fill="#263238"/>
<path d="M58.8164 19.3123L59.4377 18.6459L60.7196 19.7102L63.0814 17.2778L63.7007 17.9011L60.6706 20.9568L58.8164 19.3123Z" fill="#00C802"/>
<path d="M71.5749 23.0201C71.7192 22.086 72.2099 21.2405 72.9493 20.6517C73.6888 20.063 74.6228 19.7743 75.5655 19.843L75.7615 19.8567C77.8469 20.1311 78.7779 22.0578 78.4467 24.1354L77.7195 31.5089L77.6842 33.0318L72.7156 33.4826L72.8234 30.2643C72.8234 30.2643 70.8321 29.8056 70.9536 27.7908C71.0045 26.8166 71.2966 24.8214 71.5749 23.0201Z" fill="#FFBF9D"/>
<path d="M72.8057 30.2604C73.7418 30.3276 74.6776 30.1234 75.5007 29.6724C75.5007 29.6724 74.8009 31.1267 72.8057 30.7994V30.2604Z" fill="#FF9A6C"/>
<path d="M72.3549 25.0292C72.3489 25.1041 72.3724 25.1784 72.4203 25.2363C72.4683 25.2941 72.537 25.3309 72.6117 25.3389C72.648 25.3441 72.685 25.3422 72.7205 25.3331C72.7561 25.324 72.7895 25.3079 72.8188 25.2859C72.8481 25.2639 72.8728 25.2362 72.8914 25.2046C72.91 25.173 72.9222 25.138 72.9273 25.1017C72.9338 25.0265 72.9106 24.9517 72.8626 24.8934C72.8146 24.8351 72.7456 24.798 72.6705 24.7901C72.634 24.7848 72.5969 24.7869 72.5613 24.7961C72.5256 24.8053 72.4921 24.8215 72.4628 24.8437C72.4334 24.866 72.4088 24.8938 72.3903 24.9256C72.3718 24.9575 72.3597 24.9927 72.3549 25.0292V25.0292Z" fill="#263238"/>
<path d="M71.9356 24.0375C71.9689 24.0767 72.1982 23.9316 72.5079 23.9551C72.8176 23.9787 73.0332 24.1511 73.0685 24.1139C73.1037 24.0767 73.0547 24.0277 72.9626 23.9493C72.8351 23.8466 72.6791 23.7857 72.5157 23.7748C72.355 23.7641 72.1949 23.8031 72.0571 23.8865C71.9571 23.9532 71.9199 24.0198 71.9356 24.0375Z" fill="#263238"/>
<path d="M75.2555 25.3055C75.2489 25.3802 75.2719 25.4545 75.3196 25.5124C75.3672 25.5704 75.4357 25.6073 75.5103 25.6152C75.5467 25.621 75.5839 25.6194 75.6196 25.6105C75.6554 25.6017 75.689 25.5857 75.7184 25.5636C75.7479 25.5414 75.7725 25.5136 75.791 25.4817C75.8095 25.4498 75.8213 25.4146 75.8259 25.378C75.832 25.3032 75.8088 25.2289 75.7613 25.1708C75.7138 25.1127 75.6456 25.0753 75.5711 25.0664C75.5345 25.0606 75.4972 25.0622 75.4613 25.0712C75.4255 25.0802 75.3918 25.0964 75.3623 25.1187C75.3328 25.141 75.3082 25.1691 75.2898 25.2012C75.2715 25.2333 75.2598 25.2688 75.2555 25.3055V25.3055Z" fill="#263238"/>
<path d="M74.9732 24.3157C75.0065 24.3569 75.2358 24.2119 75.5455 24.2334C75.8552 24.255 76.0708 24.4294 76.1061 24.3941C76.1413 24.3589 76.0923 24.3079 75.9983 24.2275C75.8715 24.1252 75.716 24.0649 75.5533 24.0551C75.3924 24.042 75.2316 24.0812 75.0947 24.1668C74.9947 24.2334 74.9575 24.304 74.9732 24.3157Z" fill="#263238"/>
<path d="M73.6836 26.5286C73.5242 26.4659 73.3576 26.4231 73.1877 26.4012C73.1093 26.3875 73.0349 26.3659 73.0251 26.311C73.0252 26.2293 73.0497 26.1494 73.0956 26.0817L73.3739 25.4937C73.7659 24.6607 74.0462 23.9727 74.0129 23.9571C73.9796 23.9414 73.6385 24.6058 73.2505 25.4388C73.1583 25.6348 73.0682 25.8308 72.9839 26.0268C72.9267 26.1186 72.9038 26.2275 72.9192 26.3345C72.9287 26.3631 72.9445 26.389 72.9656 26.4104C72.9867 26.4318 73.0124 26.4481 73.0407 26.458C73.0838 26.4733 73.1285 26.4832 73.174 26.4874C73.3415 26.5227 73.5127 26.5365 73.6836 26.5286V26.5286Z" fill="#263238"/>
<path d="M74.5777 26.8088C74.5287 26.8088 74.5032 27.1381 74.1994 27.3557C73.8956 27.5732 73.5389 27.5105 73.533 27.5517C73.5271 27.5928 73.6075 27.6222 73.7584 27.6379C73.9551 27.6551 74.1515 27.6023 74.3131 27.489C74.468 27.3798 74.5742 27.2146 74.6091 27.0284C74.6326 26.8951 74.6012 26.8088 74.5777 26.8088Z" fill="#263238"/>
<path d="M74.9813 23.0986C75.0068 23.1849 75.3185 23.1672 75.6771 23.2378C76.0358 23.3083 76.3239 23.4338 76.3788 23.3554C76.4023 23.3201 76.3573 23.2378 76.2436 23.1476C76.0927 23.037 75.9188 22.9619 75.7349 22.9279C75.5509 22.894 75.3617 22.9021 75.1813 22.9516C75.0441 22.9947 74.9715 23.0575 74.9813 23.0986Z" fill="#263238"/>
<path d="M72.1155 23.1495C72.1645 23.224 72.3821 23.1671 72.6388 23.1809C72.8956 23.1946 73.1092 23.2632 73.1641 23.1926C73.1896 23.1593 73.1641 23.0868 73.07 23.0123C72.9479 22.924 72.8025 22.8736 72.652 22.8674C72.5014 22.8611 72.3523 22.8992 72.2233 22.977C72.1292 23.0437 72.0939 23.1142 72.1155 23.1495Z" fill="#263238"/>
<path d="M77.9801 26.068C77.9877 25.9943 78.0102 25.923 78.0463 25.8584C78.0824 25.7937 78.1313 25.7371 78.19 25.692C78.2487 25.6469 78.316 25.6142 78.3877 25.5959C78.4595 25.5777 78.5342 25.5742 78.6073 25.5858C78.9817 25.6485 79.3913 25.8916 79.3011 26.6658C79.1581 28.0378 77.8076 27.6105 77.8096 27.5713C77.8115 27.5321 77.9135 26.6442 77.9801 26.068Z" fill="#FFBF9D"/>
<path d="M78.1643 27.0872C78.1643 27.0872 78.1859 27.1068 78.2251 27.1303C78.2795 27.1602 78.3434 27.1679 78.4034 27.1519C78.4983 27.1055 78.579 27.0345 78.6369 26.9462C78.6948 26.8579 78.7279 26.7556 78.7327 26.6501C78.7476 26.5329 78.7369 26.4139 78.7013 26.3012C78.692 26.2582 78.6725 26.218 78.6446 26.1839C78.6166 26.1498 78.581 26.1229 78.5406 26.1052C78.5137 26.0955 78.4843 26.0952 78.4572 26.1044C78.4301 26.1137 78.4069 26.132 78.3917 26.1562C78.3701 26.1934 78.376 26.2209 78.3681 26.2228C78.3603 26.2248 78.3407 26.1974 78.3681 26.1425C78.3783 26.1088 78.4007 26.0802 78.4309 26.0621C78.4511 26.0495 78.4737 26.0411 78.4973 26.0374C78.5208 26.0337 78.5449 26.0348 78.5681 26.0406C78.6196 26.0575 78.6664 26.0867 78.7042 26.1256C78.7421 26.1645 78.77 26.212 78.7856 26.264C78.8316 26.3892 78.8457 26.5239 78.8268 26.656C78.7895 26.9304 78.6308 27.1754 78.4171 27.2107C78.3791 27.2181 78.3399 27.2166 78.3025 27.2064C78.2651 27.1962 78.2306 27.1775 78.2015 27.1519C78.1623 27.1225 78.1584 27.0911 78.1643 27.0872Z" fill="#FF9A6C"/>
<path d="M79.0795 24.6705C78.9658 25.0625 79.007 25.7191 78.6561 25.6289C77.9564 25.4525 78.125 26.8853 77.7898 26.7442C77.4546 26.6031 77.1665 26.1993 77.145 25.3173C77.1195 24.2001 77.5683 23.3926 77.1293 22.1107C76.9886 21.8554 76.7845 21.6406 76.5366 21.4871C76.2887 21.3336 76.0055 21.2467 75.7142 21.2346C75.4206 21.2282 75.1302 21.2968 74.8705 21.434C74.6109 21.5712 74.3906 21.7724 74.2304 22.0186C74.1677 21.6266 73.9776 21.0386 73.6307 20.8426C73.4568 20.7474 73.2588 20.7053 73.0612 20.7217C72.8636 20.7381 72.6752 20.8121 72.5194 20.9347C72.3704 21.0654 72.2737 21.2454 72.247 21.4417C72.2204 21.638 72.2656 21.8373 72.3743 22.0029C72.294 22.0272 72.208 22.0251 72.129 21.9969C72.0499 21.9687 71.982 21.9158 71.9353 21.8461C71.9279 21.9373 71.9396 22.029 71.9697 22.1154C71.9997 22.2018 72.0474 22.281 72.1097 22.3479C71.9653 22.3117 71.8391 22.2238 71.755 22.1009C71.7902 22.2636 71.8236 22.4243 71.8588 22.5851C71.2708 22.6007 70.6946 22.0304 70.53 21.5247C70.283 20.7544 70.4731 19.9783 70.9043 19.2942C71.115 18.9485 71.4093 18.6612 71.7599 18.4588C72.1106 18.2564 72.5066 18.1453 72.9114 18.1359C73.7189 18.1359 74.3951 18.5279 74.7067 19.2707C75.232 18.9003 76.2943 18.7709 76.8784 19.0375C77.1706 19.174 77.4229 19.3832 77.6113 19.645C77.7997 19.9068 77.9178 20.2125 77.9544 20.5329C78.1425 20.4671 78.3446 20.4523 78.5402 20.4902C78.7358 20.5281 78.9179 20.6172 79.0677 20.7485L79.1422 20.8132C79.3476 21.0091 79.5001 21.2539 79.5855 21.5246C79.6708 21.7954 79.6862 22.0833 79.6302 22.3616C79.5871 22.587 79.5087 22.8183 79.4636 22.9986C79.3284 23.5415 79.0795 24.6705 79.0795 24.6705Z" fill="#263238"/>
<path d="M71.8433 21.8187C71.8433 21.8187 71.8257 21.8187 71.7963 21.7815C71.7537 21.7436 71.7149 21.7016 71.6806 21.6561C71.5514 21.4848 71.4714 21.2815 71.4494 21.0681C71.4299 20.9103 71.4442 20.7502 71.4916 20.5984C71.5389 20.4467 71.618 20.3067 71.7238 20.188C71.8539 20.0423 72.0176 19.9305 72.2006 19.8622C72.3836 19.7939 72.5805 19.7712 72.7743 19.796C72.9739 19.8267 73.1642 19.9017 73.331 20.0155C73.4883 20.116 73.6292 20.2403 73.7484 20.384C74.0832 20.7953 74.2574 21.3142 74.2384 21.8442C74.2384 21.9187 74.2384 21.9755 74.2208 22.0147C74.2194 22.0348 74.2154 22.0545 74.209 22.0735C74.2282 21.7895 74.201 21.5042 74.1287 21.2288C74.0454 20.9324 73.9012 20.6567 73.7053 20.4193C73.4745 20.122 73.1425 19.9197 72.7724 19.8509C72.5876 19.8282 72.4001 19.8504 72.2258 19.9156C72.0515 19.9808 71.8954 20.087 71.7708 20.2253C71.6691 20.3382 71.5923 20.4712 71.5454 20.6157C71.4985 20.7603 71.4824 20.913 71.4984 21.0641C71.5166 21.2704 71.5882 21.4683 71.7061 21.6384C71.7884 21.756 71.8472 21.8148 71.8433 21.8187Z" fill="#455A64"/>
<path d="M71.5726 22.4341C71.5563 22.4137 71.5424 22.3913 71.5314 22.3675C71.506 22.3224 71.4687 22.2558 71.4236 22.1715C71.292 21.9261 71.1837 21.6689 71.1002 21.4032C71.0451 21.2179 71.0148 21.0261 71.0101 20.8328C71.0029 20.6092 71.0437 20.3867 71.1296 20.1801C71.2287 19.9504 71.3929 19.7549 71.602 19.6176C71.8254 19.4722 72.0827 19.3872 72.3488 19.3707C72.6159 19.3563 72.883 19.3984 73.1328 19.4941C73.3621 19.5832 73.5768 19.7061 73.7698 19.8587C74.1071 20.108 74.3519 20.4624 74.4656 20.8661C74.5374 21.1395 74.523 21.4284 74.4244 21.6933C74.3978 21.7622 74.3636 21.8279 74.3225 21.8893C74.3094 21.9125 74.2929 21.9337 74.2735 21.952C74.325 21.8654 74.3683 21.7742 74.4028 21.6795C74.4898 21.4184 74.4973 21.1374 74.4244 20.872C74.3077 20.4788 74.0653 20.1345 73.7345 19.892C73.3477 19.577 72.8612 19.4102 72.3625 19.4216C72.1063 19.4373 71.8585 19.519 71.6432 19.6588C71.4439 19.789 71.2867 19.9742 71.1904 20.1919C71.1069 20.3916 71.0661 20.6066 71.0708 20.823C71.0728 21.012 71.0998 21.1998 71.1512 21.3816C71.2294 21.6462 71.3311 21.9034 71.455 22.1499L71.553 22.3459C71.5631 22.3744 71.5697 22.404 71.5726 22.4341V22.4341Z" fill="#455A64"/>
<path d="M78.5933 23.7807C78.5933 23.7807 78.7207 23.6768 78.8892 23.4788C79.1064 23.2198 79.2571 22.9117 79.3283 22.5812C79.3952 22.2498 79.3791 21.9071 79.2812 21.5835C79.2067 21.3346 79.1225 21.1915 79.1323 21.1915C79.1583 21.2196 79.1801 21.2513 79.1969 21.2856C79.2467 21.3773 79.2887 21.473 79.3224 21.5718C79.4354 21.9009 79.4577 22.2544 79.387 22.5951C79.3163 22.9358 79.1552 23.2513 78.9206 23.5082C78.8503 23.5858 78.7736 23.6573 78.6913 23.7219C78.6618 23.7464 78.6287 23.7662 78.5933 23.7807V23.7807Z" fill="#455A64"/>
<path d="M77.3408 23.7414C77.3408 23.7414 77.4094 23.7101 77.5192 23.6356C77.671 23.531 77.7911 23.3866 77.8661 23.2181L77.9229 23.0868L77.9112 23.2299C77.8935 23.4259 77.8739 23.6474 77.8524 23.8884L77.8073 23.861C78.0041 23.7266 78.1723 23.5545 78.3021 23.3546C78.432 23.1548 78.5209 22.9312 78.5639 22.6968C78.6014 22.4828 78.6014 22.2639 78.5639 22.05C78.5208 21.8535 78.455 21.6628 78.3679 21.4816C78.3679 21.4816 78.3777 21.4914 78.3933 21.5149C78.4158 21.5489 78.4361 21.5842 78.4541 21.6207C78.5226 21.754 78.5734 21.8957 78.605 22.0421C78.6779 22.3942 78.644 22.76 78.5079 23.0927C78.3717 23.4255 78.1394 23.71 77.8406 23.91L77.7897 23.9433V23.8826C77.8151 23.6415 77.8387 23.418 77.8602 23.226L77.9053 23.2377C77.823 23.4115 77.6923 23.5578 77.529 23.6591C77.4843 23.6853 77.4378 23.7082 77.3898 23.7277C77.3744 23.7351 77.3578 23.7398 77.3408 23.7414V23.7414Z" fill="#455A64"/>
<path d="M76.9587 20.8445C76.8794 20.6944 76.7715 20.5613 76.6411 20.4525C76.4966 20.3375 76.3265 20.2589 76.1453 20.2232C75.9239 20.1811 75.6952 20.2015 75.4847 20.282C75.2725 20.3614 75.0823 20.4905 74.9301 20.6583C74.8055 20.7958 74.7042 20.9527 74.6302 21.1229C74.5675 21.2826 74.5176 21.4471 74.4812 21.6148C74.4771 21.5682 74.4804 21.5212 74.491 21.4757C74.5106 21.3489 74.5441 21.2246 74.591 21.1052C74.6614 20.9276 74.7614 20.7632 74.8869 20.6191C75.0443 20.4436 75.2421 20.309 75.4632 20.2271C75.6845 20.1432 75.925 20.1235 76.157 20.1703C76.3457 20.2101 76.5216 20.2963 76.6686 20.4212C76.7669 20.5053 76.8487 20.607 76.9097 20.7211C76.9252 20.7523 76.9389 20.7843 76.9508 20.8171C76.9587 20.8308 76.9606 20.8426 76.9587 20.8445Z" fill="#455A64"/>
<path d="M76.6375 19.796C76.5169 19.7338 76.3901 19.6845 76.2592 19.649C75.9384 19.5804 75.6037 19.6276 75.3145 19.7823C75.0297 19.9455 74.7977 20.187 74.6461 20.4781C74.5265 20.7015 74.4873 20.8563 74.4775 20.8524C74.478 20.815 74.4847 20.7779 74.4971 20.7427C74.5252 20.6449 74.5619 20.5497 74.6069 20.4585C74.7534 20.152 74.99 19.8977 75.2851 19.7293C75.5848 19.5671 75.9347 19.5238 76.2651 19.6078C76.3638 19.6339 76.4582 19.6741 76.5453 19.7274C76.5796 19.745 76.6107 19.7682 76.6375 19.796V19.796Z" fill="#455A64"/>
<path d="M72.2136 84.6975L72.3528 88.4666C72.3528 88.4666 68.568 89.8739 68.5249 90.5736H75.8435L75.869 84.6936L72.2136 84.6975Z" fill="#263238"/>
<path d="M74.6147 88.149C74.6854 88.1701 74.7458 88.2166 74.7841 88.2796C74.8225 88.3426 74.8362 88.4176 74.8224 88.4901C74.8034 88.5612 74.7579 88.6224 74.6952 88.6611C74.6325 88.6997 74.5574 88.7129 74.4853 88.6978C74.4109 88.6747 74.3478 88.6248 74.308 88.5579C74.2682 88.4909 74.2546 88.4116 74.2697 88.3352C74.2963 88.2629 74.3501 88.2037 74.4197 88.1704C74.4892 88.1371 74.569 88.1322 74.6421 88.1569" fill="#E0E0E0"/>
<path d="M75.8436 90.5676L75.824 89.9796L68.815 90.207C68.815 90.207 68.4877 90.3501 68.5249 90.5794L75.8436 90.5676Z" fill="#263238"/>
<path d="M72.2331 88.4313C72.2331 88.4666 72.4134 88.4822 72.5898 88.5959C72.7662 88.7096 72.8584 88.8625 72.8917 88.8468C72.925 88.8311 72.8721 88.6273 72.6565 88.492C72.4409 88.3568 72.2253 88.396 72.2331 88.4313Z" fill="white"/>
<path d="M71.4668 88.7488C71.4668 88.7841 71.6138 88.8429 71.7353 88.9958C71.8568 89.1486 71.8921 89.3054 71.9313 89.3035C71.9705 89.3015 71.9882 89.1075 71.8353 88.9115C71.6824 88.7155 71.4668 88.7135 71.4668 88.7488Z" fill="white"/>
<path d="M71.0318 89.6681C71.0632 89.6681 71.1142 89.4956 71.0318 89.3016C70.9495 89.1075 70.7731 89.0272 70.7574 89.0566C70.7418 89.086 70.8456 89.1918 70.9182 89.3525C70.9907 89.5132 71.0044 89.6642 71.0318 89.6681Z" fill="white"/>
<path d="M72.2981 87.5669C72.3138 87.6002 72.4765 87.5512 72.6784 87.5669C72.8803 87.5826 73.039 87.6433 73.0567 87.612C73.0743 87.5806 72.9234 87.4552 72.6862 87.4415C72.4491 87.4278 72.2805 87.5395 72.2981 87.5669Z" fill="white"/>
<path d="M80.6085 85.0425L80.8986 89.5975L80.0911 93.2666C80.0775 93.3295 80.0771 93.3945 80.0897 93.4576C80.1024 93.5206 80.1279 93.5804 80.1647 93.6332C80.2015 93.686 80.2487 93.7306 80.3035 93.7643C80.3583 93.798 80.4194 93.8201 80.4831 93.8292V93.8292C80.5565 93.8404 80.6315 93.8337 80.7017 93.8099C80.772 93.786 80.8355 93.7455 80.8869 93.692C81.5552 92.9962 84.0033 90.4227 83.9621 90.0914C83.917 89.6994 83.9739 85.2679 83.9739 85.2679L80.6085 85.0425Z" fill="#263238"/>
<path d="M80.4829 93.8291L83.9502 89.7837V89.9797C83.957 90.1467 83.9042 90.3107 83.8012 90.4423C83.5268 90.7931 82.7448 91.7496 80.8926 93.6939C80.8396 93.7493 80.7738 93.7908 80.701 93.8147C80.6282 93.8387 80.5506 93.8443 80.4751 93.8311L80.4829 93.8291Z" fill="#263238"/>
<g opacity="0.6">
<path d="M82.9604 88.3509C82.9054 88.394 82.8685 88.4561 82.8569 88.525C82.8453 88.5938 82.8599 88.6646 82.8977 88.7233C82.9392 88.7791 83.0006 88.8169 83.0691 88.8289C83.1376 88.8409 83.2081 88.8263 83.2662 88.788C83.323 88.7418 83.3608 88.6763 83.3723 88.604C83.3839 88.5316 83.3684 88.4576 83.3289 88.396C83.2799 88.3412 83.2114 88.3078 83.1381 88.3031C83.0648 88.2983 82.9925 88.3225 82.9369 88.3705" fill="white"/>
</g>
<path d="M81.4433 91.7946C81.3271 91.6567 81.1862 91.5417 81.0277 91.4555C80.858 91.3958 80.6783 91.3692 80.4985 91.3771C80.4985 91.3654 80.5515 91.3281 80.6573 91.3085C80.797 91.287 80.94 91.3061 81.0692 91.3634C81.1985 91.4207 81.3086 91.5139 81.3864 91.6319C81.4433 91.728 81.4531 91.7887 81.4433 91.7946Z" fill="white"/>
<path d="M81.1436 92.4179C81.01 92.3499 80.8726 92.2897 80.732 92.2376C80.5832 92.2168 80.4334 92.2037 80.2832 92.1983C80.3519 92.1524 80.4305 92.1233 80.5126 92.1134C80.5947 92.1035 80.6779 92.1131 80.7556 92.1415C81.028 92.2081 81.1672 92.4041 81.1436 92.4179Z" fill="white"/>
<path d="M82.0158 90.9871C81.8182 90.8649 81.6118 90.7574 81.3984 90.6656C81.1744 90.6065 80.9464 90.5632 80.7163 90.5363C80.9533 90.4794 81.2017 90.4917 81.432 90.5716C81.6623 90.6515 81.8649 90.7956 82.0158 90.9871V90.9871Z" fill="white"/>
<path d="M82.0432 89.5955C82.0314 89.6229 81.7747 89.5269 81.4552 89.5288C81.1357 89.5308 80.8672 89.6209 80.8672 89.5915C81.0473 89.4838 81.2532 89.4269 81.463 89.4269C81.6729 89.4269 81.8788 89.4838 82.0589 89.5915L82.0432 89.5955Z" fill="white"/>
<path d="M81.9901 88.2548C81.789 88.1995 81.5813 88.1711 81.3727 88.1706C81.1665 88.2024 80.9654 88.2618 80.7749 88.3469C80.7749 88.3469 80.8141 88.2784 80.916 88.2137C81.0525 88.1318 81.2062 88.0829 81.3649 88.0706C81.5234 88.0581 81.6827 88.0836 81.8294 88.1451C81.9411 88.1999 81.996 88.245 81.9901 88.2548Z" fill="white"/>
<path d="M81.3708 87.9158C81.353 87.8602 81.3483 87.8011 81.3571 87.7434C81.3664 87.585 81.4063 87.4299 81.4747 87.2867C81.5172 87.1781 81.5935 87.086 81.6922 87.024C81.7272 87.008 81.7661 87.0026 81.8041 87.0086C81.842 87.0145 81.8774 87.0315 81.9059 87.0574C81.9562 87.1103 81.9849 87.1803 81.9862 87.2534C81.9823 87.407 81.925 87.5544 81.8241 87.6703C81.7233 87.7862 81.5851 87.8634 81.4335 87.8884C81.2829 87.9096 81.1293 87.8857 80.9923 87.8198C80.8552 87.7539 80.7407 87.6488 80.6632 87.5179C80.6445 87.4849 80.6329 87.4483 80.6292 87.4105C80.6255 87.3727 80.6298 87.3345 80.6417 87.2984C80.6597 87.263 80.6882 87.2339 80.7232 87.215C80.7582 87.1961 80.7981 87.1882 80.8377 87.1926C80.9505 87.2123 81.056 87.2617 81.1434 87.3357C81.2714 87.4298 81.3816 87.5459 81.4688 87.6787C81.5315 87.7708 81.5511 87.8296 81.5452 87.8315C81.4201 87.6647 81.2708 87.5174 81.1023 87.3945C81.0235 87.3327 80.9305 87.2916 80.8318 87.2749C80.8109 87.2722 80.7898 87.2763 80.7714 87.2865C80.7531 87.2967 80.7385 87.3126 80.7299 87.3318C80.718 87.3811 80.7257 87.4331 80.7514 87.4768C80.8216 87.5875 80.922 87.6757 81.0409 87.731C81.1597 87.7862 81.2919 87.8062 81.4217 87.7884C81.5499 87.7673 81.6671 87.7032 81.754 87.6067C81.8409 87.5102 81.8924 87.3869 81.9 87.2573C81.9007 87.205 81.8826 87.1542 81.849 87.1142C81.8347 87.0986 81.8157 87.088 81.7948 87.0841C81.7739 87.0802 81.7524 87.0832 81.7334 87.0926C81.6467 87.1435 81.5781 87.2203 81.5374 87.3121C81.4463 87.5018 81.3899 87.7063 81.3708 87.9158V87.9158Z" fill="white"/>
<path d="M69.0071 52.8397C68.6188 54.3931 68.4629 55.9955 68.5445 57.5946C68.5974 58.6099 71.8569 87.9158 71.8569 87.9158L76.0003 87.5434L75.2849 60.1426L75.4574 60.2975C75.4574 60.2975 77.927 71.8262 78.0917 73.649C78.2387 75.2856 80.2085 88.445 80.2085 88.445L84.2304 88.249L83.319 71.6126L82.0999 56.5206L81.6118 52.1223L69.0071 52.8397Z" fill="#263238"/>
<path d="M76.0826 57.7807C76.0214 57.8227 75.9556 57.8575 75.8866 57.8846C75.7039 57.9727 75.51 58.0353 75.3103 58.0708C75.1696 58.0952 75.0258 58.0952 74.885 58.0708C74.7207 58.0388 74.5686 57.9614 74.446 57.8474C74.3205 57.7125 74.2315 57.5479 74.1873 57.3691C74.1383 57.1888 74.1108 57.0006 74.0775 56.8105C73.9481 56.0481 73.8639 55.3523 73.8168 54.8505C73.7933 54.5996 73.7796 54.3938 73.7717 54.2527C73.7629 54.1792 73.7629 54.1048 73.7717 54.0312C73.7921 54.1023 73.8053 54.1751 73.8109 54.2488C73.8305 54.4095 73.856 54.6094 73.8854 54.8368C73.9501 55.3405 74.0442 56.0324 74.1735 56.7968C74.2382 57.1731 74.2813 57.5553 74.5107 57.7768C74.6165 57.8701 74.7417 57.9387 74.8773 57.9777C75.0129 58.0167 75.1554 58.025 75.2947 58.0022C75.4905 57.9724 75.6824 57.9211 75.867 57.8493C75.9356 57.8173 76.0081 57.7942 76.0826 57.7807V57.7807Z" fill="#455A64"/>
<path d="M74.7754 54.1783C74.7754 54.1783 74.8067 54.1548 74.8714 54.1509C74.9646 54.1521 75.0547 54.1838 75.1282 54.241C75.1846 54.283 75.2307 54.3374 75.263 54.3998C75.2952 54.4623 75.3128 54.5314 75.3144 54.6017C75.3056 54.6884 75.2722 54.7708 75.2182 54.8392C75.1643 54.9077 75.0919 54.9593 75.0096 54.9881C74.9274 55.0169 74.8386 55.0217 74.7537 55.0018C74.6688 54.982 74.5914 54.9384 74.5304 54.8761C74.4887 54.8208 74.46 54.7569 74.4464 54.689C74.4329 54.6212 74.4348 54.5511 74.452 54.4841C74.4715 54.3928 74.5229 54.3115 74.597 54.2548C74.6499 54.2156 74.6852 54.2116 74.6872 54.2156C74.6016 54.2886 74.5424 54.3878 74.5186 54.4978C74.5071 54.5546 74.5084 54.6132 74.5223 54.6695C74.5362 54.7258 74.5624 54.7782 74.599 54.8232C74.6468 54.8734 74.7087 54.908 74.7766 54.9224C74.8445 54.9367 74.9152 54.9302 74.9792 54.9035C75.0452 54.8838 75.1039 54.8449 75.1478 54.7919C75.1917 54.7389 75.219 54.6741 75.2262 54.6056C75.2258 54.5475 75.213 54.4902 75.1887 54.4375C75.1643 54.3847 75.129 54.3378 75.0851 54.2998C74.9978 54.2267 74.8891 54.1841 74.7754 54.1783V54.1783Z" fill="#455A64"/>
<path d="M82.0429 56.252C81.9913 56.2664 81.9377 56.273 81.8841 56.2716C81.7399 56.2822 81.5952 56.2822 81.451 56.2716C80.4896 56.1939 79.5843 55.7876 78.8873 55.121C78.7823 55.0211 78.6847 54.9137 78.5952 54.7996C78.5325 54.7192 78.5012 54.6722 78.507 54.6683C78.5129 54.6644 78.6638 54.831 78.9343 55.0701C79.6414 55.6951 80.5219 56.0902 81.4588 56.203C81.8155 56.2343 82.0409 56.2284 82.0429 56.252Z" fill="#455A64"/>
<path d="M70.8709 54.1725C70.8054 54.338 70.7185 54.4942 70.6122 54.637C70.3786 54.9959 70.1022 55.325 69.789 55.617C69.4767 55.908 69.1298 56.1595 68.7561 56.3657C68.6056 56.4587 68.4435 56.5312 68.2739 56.5813C68.4179 56.482 68.5671 56.3904 68.7208 56.3069C69.0776 56.0851 69.4129 55.8305 69.7224 55.5464C70.0291 55.2592 70.308 54.9435 70.5554 54.6037C70.652 54.4539 70.7573 54.3099 70.8709 54.1725V54.1725Z" fill="#455A64"/>
<path d="M66.7571 37.6183C66.1416 39.4156 66.2102 39.2608 65.0577 44.6312C64.8461 45.6229 65.2204 47.1792 66.1142 47.6496C67.0079 48.12 68.5955 47.6025 69.1267 46.7401L69.9813 38.6355L66.7571 37.6183Z" fill="#FFBF9D"/>
<path d="M81.6141 47.3574L81.5886 43.0866L81.6062 42.6672L85.9398 41.6558C85.9398 41.6558 85.0892 38.853 84.3091 35.8405C83.8583 34.1 82.3589 33.2259 81.9963 33.0377L81.9159 33.0005L77.745 31.2365C76.9022 32.1341 75.6753 32.8554 74.4934 32.5105C73.8204 32.2907 73.2246 31.8825 72.7764 31.3345L69.9678 32.3007C69.1559 32.5793 68.4677 33.1343 68.0234 33.8687C67.4354 34.9173 65.5558 39.6899 65.5166 39.7879L68.9976 40.0996C68.9976 40.0996 68.3802 51.3931 68.6056 53.4099C68.6056 53.4099 69.4523 53.9979 71.5848 54.0959C75.9124 54.2919 82.351 53.9921 82.351 53.9921C82.2491 53.3413 82.1433 52.2535 82.0845 51.7028L81.6141 47.3574Z" fill="#00C802"/>
<path d="M69.1228 35.9033C69.1405 35.9033 69.0484 38.5964 68.917 41.9166C68.7857 45.2368 68.6642 47.9299 68.6524 47.9299C68.6407 47.9299 68.7269 45.2368 68.8484 41.9146C68.97 38.5924 69.1052 35.9014 69.1228 35.9033Z" fill="#263238"/>
<path d="M81.1376 36.652C81.1082 36.652 81.1944 39.0432 81.3336 41.9891C81.4727 44.9349 81.6099 47.3222 81.6413 47.3203C81.6727 47.3183 81.5845 44.931 81.4453 41.9832C81.3061 39.0353 81.1689 36.652 81.1376 36.652Z" fill="#263238"/>
<path d="M85.9613 43.6884C85.8201 42.628 85.7025 41.6912 85.7025 41.6912L82.2373 42.4967L82.3862 43.0553L79.7069 40.3329L79.2816 40.3701L77.9331 41.7715C77.9331 41.7715 79.1091 44.2548 79.7931 45.2211C80.683 46.4794 82.0805 48.3963 83.9954 48.2356C85.7653 48.0866 86.2141 45.5896 85.9613 43.6884Z" fill="#FFBF9D"/>
<path d="M84.0834 44.3234C83.8732 44.0471 83.6158 43.8102 83.323 43.6237C83.0516 43.4066 82.7454 43.2369 82.4174 43.1219C82.4018 43.1513 82.8094 43.3826 83.2563 43.7099C83.7032 44.0373 84.0619 44.3469 84.0834 44.3234Z" fill="#FF9A6C"/>
<path d="M75.0283 36.7813L76.22 36.1737L77.7645 36.6637L78.5289 37.3693L79.7049 40.3328L80.6476 41.5265L78.9836 43.6825L77.9311 41.7617C77.9311 41.7617 77.0393 41.3697 76.6806 40.8091C76.3219 40.2485 76.1632 39.9389 76.1632 39.9389C76.1632 39.9389 75.6477 39.6919 75.5516 39.4528C75.4951 39.3193 75.4645 39.1763 75.4615 39.0314L75.7222 38.6492C75.7056 38.4831 75.7326 38.3156 75.8006 38.1631C75.8499 38.0921 75.9177 38.0359 75.9966 38.0004C75.9966 38.0004 75.9201 37.679 76.0397 37.5633C76.2656 37.4305 76.5047 37.3215 76.7531 37.238L76.2337 36.942C76.2337 36.942 75.093 37.3085 75.0283 36.7813Z" fill="#FFBF9D"/>
<path d="M76.7962 37.8574C76.7962 37.8731 76.6139 37.877 76.4042 37.924C76.1945 37.9711 76.0122 38.0377 76.0122 38.024C76.1299 37.9454 76.264 37.8944 76.4042 37.875C76.5319 37.84 76.6659 37.834 76.7962 37.8574V37.8574Z" fill="#FF9A6C"/>
<path d="M76.4394 38.5218C76.3254 38.5432 76.2102 38.5583 76.0945 38.5669C75.982 38.5933 75.8682 38.6129 75.7534 38.6257C75.8543 38.5633 75.9684 38.5257 76.0866 38.5159C76.2031 38.4911 76.3238 38.4931 76.4394 38.5218V38.5218Z" fill="#FF9A6C"/>
<path d="M75.9359 39.5645C75.9222 39.5645 75.9124 39.4959 75.9143 39.4117C75.9163 39.3274 75.928 39.2607 75.9418 39.2607C75.9555 39.2607 75.9653 39.3293 75.9653 39.4136C75.9653 39.4979 75.9496 39.5645 75.9359 39.5645Z" fill="#FF9A6C"/>
<path d="M76.1633 39.8859C76.1477 39.7874 76.1102 39.6936 76.0536 39.6115C75.9864 39.5379 75.9051 39.4786 75.8145 39.4371C75.8145 39.4371 75.8517 39.4273 75.9085 39.4371C75.9861 39.4602 76.0545 39.5068 76.1045 39.5704C76.1522 39.6315 76.1814 39.7049 76.1888 39.7821C76.1829 39.8507 76.1692 39.8859 76.1633 39.8859Z" fill="#FF9A6C"/>
<path d="M77.094 38.9353C77.0384 38.8569 76.9678 38.7902 76.8862 38.7393C76.7974 38.6984 76.7017 38.6745 76.604 38.6688C76.604 38.6688 76.6354 38.6472 76.6942 38.6433C76.7702 38.6396 76.8458 38.6573 76.9123 38.6944C76.9788 38.7315 77.0336 38.7864 77.0705 38.853C77.0979 38.8981 77.0999 38.9334 77.094 38.9353Z" fill="#FF9A6C"/>
<path d="M77.6369 38.2768C77.6231 38.2768 77.5761 38.1592 77.4409 38.0808C77.359 38.0377 77.2711 38.0073 77.1802 37.9907C77.1802 37.9907 77.2115 37.973 77.2664 37.973C77.3361 37.9778 77.4036 38 77.4624 38.0377C77.5234 38.0753 77.5728 38.1288 77.6055 38.1925C77.6408 38.2415 77.6427 38.2749 77.6369 38.2768Z" fill="#FF9A6C"/>
<path d="M78.0014 37.9534C78.0014 37.9534 78.0014 37.9123 77.9877 37.8515C77.9779 37.7728 77.9482 37.6979 77.9014 37.6339C77.8534 37.5702 77.79 37.5196 77.7172 37.4869C77.6604 37.4615 77.6212 37.4536 77.6231 37.4458C77.6251 37.4379 77.6662 37.434 77.729 37.4458C77.8144 37.471 77.8894 37.5233 77.9426 37.5947C77.9947 37.6665 78.0228 37.753 78.023 37.8417C78.023 37.9162 78.0073 37.9554 78.0014 37.9534Z" fill="#FF9A6C"/>
<path d="M77.496 37.1792C77.496 37.1968 77.2471 37.2008 76.9472 37.2458C76.6473 37.2909 76.4199 37.3987 76.4121 37.385C76.5705 37.28 76.7509 37.213 76.9393 37.189C77.069 37.1684 77.2001 37.1586 77.3313 37.1596C77.387 37.1564 77.4427 37.163 77.496 37.1792V37.1792Z" fill="#FF9A6C"/>
<g opacity="0.3">
<path d="M74.1049 43.8706C74.0887 43.5248 73.9877 43.1883 73.8109 42.8906C73.462 42.3987 72.778 42.3026 72.1782 42.3242C71.5785 42.3457 70.9513 42.4712 70.3868 42.2654L68.6973 47.2791C69.3308 47.1199 69.8772 46.7198 70.2202 46.1638C70.3927 45.8835 70.5181 45.5582 70.7788 45.3583C71.1394 45.0819 71.6373 45.1211 72.092 45.1172C72.5662 45.1117 73.0376 45.0425 73.4934 44.9114C73.6926 44.872 73.8735 44.7688 74.0089 44.6174C74.1637 44.4096 74.1402 44.1274 74.1049 43.8706Z" fill="black"/>
</g>
<path d="M69.756 38.0024L70.2813 43.5825C70.2827 43.7093 70.3148 43.8338 70.3749 43.9454C70.435 44.0571 70.5212 44.1525 70.6262 44.2234L74.0112 44.1529C74.2139 43.8806 74.3063 43.5418 74.2699 43.2042L73.8936 37.8632C73.872 37.5418 73.7524 37.3105 73.6074 37.3066L70.0422 37.2243C69.8599 37.2204 69.7188 37.6045 69.756 38.0024Z" fill="#263238"/>
<path d="M69.2638 39.1236C69.1978 39.0362 69.163 38.9292 69.1651 38.8197C69.1673 38.7102 69.2062 38.6046 69.2756 38.5199C69.3482 38.4358 69.4387 38.369 69.5404 38.3243C69.6421 38.2795 69.7525 38.258 69.8636 38.2612C70.0829 38.2673 70.2989 38.3172 70.4986 38.4082C70.7441 38.5114 70.9791 38.6381 71.2003 38.7865C71.2855 38.8296 71.3607 38.89 71.4211 38.9639C71.4816 39.0379 71.5258 39.1236 71.5511 39.2157C71.5786 39.4117 71.3689 39.6077 71.2062 39.5156C71.3214 39.5677 71.4227 39.6464 71.5018 39.7452C71.5808 39.844 71.6353 39.9601 71.6609 40.084C71.6903 40.3211 71.559 40.4466 71.3277 40.5093C71.4146 40.5458 71.4837 40.6148 71.5204 40.7016C71.557 40.7884 71.5582 40.8861 71.5237 40.9738C71.4691 41.0564 71.3865 41.1166 71.2911 41.1432C71.1956 41.1699 71.0938 41.1612 71.0043 41.1189C70.8268 41.0272 70.6752 40.8924 70.5633 40.7269C70.6746 40.9965 70.6959 41.2948 70.6241 41.5775C70.1184 41.3815 69.6205 40.8307 69.7715 40.2976C69.6475 40.1957 69.561 40.0555 69.5255 39.899C69.4901 39.7425 69.5076 39.5787 69.5755 39.4333C69.4594 39.3792 69.3602 39.2947 69.2884 39.1887C69.2167 39.0828 69.1749 38.9593 69.1678 38.8315" fill="#FFBF9D"/>
<path d="M69.209 38.6375L69.1679 41.0228L68.5485 41.9538L65.7124 44.492C65.7124 44.492 66.1318 47.9396 67.4137 47.5633C68.6955 47.187 69.0032 46.942 69.7657 45.5523C70.1694 44.8056 70.4203 43.5923 70.6536 42.9005C70.7908 42.4928 70.6712 41.1796 70.6712 41.1796L69.209 38.6375Z" fill="#FFBF9D"/>
<path d="M71.3278 40.5131C71.2509 40.4607 71.1782 40.4024 71.1102 40.3387C70.9448 40.1943 70.7493 40.0886 70.5379 40.029C70.4218 40.0028 70.3012 40.0028 70.1851 40.029C70.09 40.05 70.0009 40.0922 69.9244 40.1525C69.8564 40.2115 69.7982 40.281 69.752 40.3583C69.752 40.3583 69.752 40.3309 69.7735 40.2858C69.8035 40.2228 69.8462 40.1668 69.899 40.1211C69.9778 40.0524 70.0718 40.0034 70.1734 39.9781C70.2971 39.9487 70.4259 39.9487 70.5497 39.9781C70.7706 40.0389 70.9727 40.1542 71.1377 40.3132C71.2092 40.3716 71.2731 40.4387 71.3278 40.5131V40.5131Z" fill="#FF9A6C"/>
<path d="M71.2923 39.541C71.1996 39.5129 71.1107 39.4734 71.0277 39.4234C70.9493 39.3842 70.8552 39.3352 70.7474 39.2921C70.6287 39.2487 70.5068 39.2147 70.3828 39.1902C70.2604 39.1644 70.1345 39.1598 70.0104 39.1765C69.9111 39.1936 69.8168 39.2324 69.7341 39.2901C69.6552 39.346 69.5885 39.4174 69.5381 39.4998C69.5408 39.4737 69.5488 39.4484 69.5616 39.4254C69.5949 39.3606 69.6417 39.3038 69.6988 39.2588C69.7846 39.1917 69.8856 39.1466 69.9928 39.1275C70.1222 39.1019 70.2554 39.1019 70.3848 39.1275C70.5121 39.1524 70.6368 39.1891 70.7572 39.2372C70.8542 39.2789 70.9485 39.3267 71.0394 39.3803C71.1273 39.4281 71.2117 39.4818 71.2923 39.541Z" fill="#FF9A6C"/>
<path d="M66.018 45.8639C65.9481 45.5731 65.9361 45.2715 65.9827 44.976C66.0391 44.6571 66.1527 44.351 66.3179 44.0725C66.525 43.7344 66.7768 43.4258 67.0666 43.1552C67.3724 42.8592 67.686 42.6025 67.9662 42.3712C68.2167 42.1582 68.4561 41.9325 68.6836 41.695C68.8354 41.5278 68.9736 41.3489 69.0972 41.1599C69.1442 41.0933 69.1837 41.0217 69.2148 40.9463C69.1611 41.008 69.112 41.0735 69.0678 41.1423C68.9342 41.3167 68.7895 41.4824 68.6346 41.6382C68.4386 41.8342 68.1936 42.0576 67.9094 42.2948C67.6252 42.5319 67.3214 42.7887 67.0019 43.0788C66.7057 43.3555 66.4503 43.6729 66.2434 44.0215C66.0733 44.3112 65.9595 44.6304 65.9082 44.9623C65.8758 45.1841 65.8838 45.4098 65.9318 45.6287C65.9445 45.688 65.9615 45.7463 65.9827 45.8032C66.0062 45.8424 66.0141 45.8639 66.018 45.8639Z" fill="#FF9A6C"/>
<path d="M46.3135 91L21.4196 90.9831C18.4233 90.9831 16 88.4288 16 85.2826L16.0131 19.6968C16.0131 16.5488 18.4476 13.9981 21.444 14L46.3322 14.015C49.3285 14.015 51.7518 16.5694 51.7518 19.7155L51.7387 85.2995C51.7387 88.4512 49.3098 91.0019 46.3135 91Z" fill="#263238"/>
<path d="M46.3059 16.3372H41.4799C40.8319 16.3372 40.3076 16.914 40.3076 17.6237V18.5451C40.3076 19.2548 39.7814 19.8316 39.1353 19.8316H29.7268C29.0807 19.8316 28.5545 19.253 28.5564 18.5432V17.6125C28.5564 16.9027 28.0301 16.3259 27.3841 16.3259H21.4701C19.3708 16.3259 17.6703 18.1106 17.6703 20.3148L17.6572 84.3313C17.6572 86.5355 19.3558 88.3221 21.4532 88.3239L46.2965 88.3389C48.3939 88.3389 50.0962 86.5542 50.0962 84.3482L50.1093 20.3316C50.1018 18.135 48.4033 16.3372 46.3059 16.3372Z" fill="white"/>
<path d="M22.9104 83.2713V85.144C22.9105 85.1809 22.9006 85.2172 22.8818 85.249C22.863 85.2808 22.8361 85.307 22.8037 85.3248C22.7714 85.3426 22.7348 85.3514 22.6979 85.3502C22.661 85.349 22.6251 85.338 22.5939 85.3182L21.1163 84.3818C21.087 84.363 21.0628 84.3371 21.046 84.3065C21.0293 84.2759 21.0205 84.2416 21.0205 84.2067C21.0205 84.1718 21.0293 84.1375 21.046 84.1069C21.0628 84.0763 21.087 84.0504 21.1163 84.0316L22.5939 83.0953C22.6252 83.0754 22.6613 83.0643 22.6984 83.0632C22.7355 83.0621 22.7721 83.0711 22.8045 83.0891C22.837 83.1071 22.8639 83.1336 22.8825 83.1656C22.9012 83.1977 22.9108 83.2342 22.9104 83.2713V83.2713Z" fill="#E0E0E0"/>
<path d="M35.0456 84.1927C35.0449 84.4485 34.9683 84.6983 34.8257 84.9106C34.683 85.1229 34.4807 85.2882 34.2442 85.3855C34.0077 85.4829 33.7476 85.508 33.4968 85.4577C33.246 85.4073 33.0158 85.2838 32.8352 85.1026C32.6546 84.9215 32.5317 84.6909 32.4821 84.44C32.4325 84.1891 32.4583 83.9291 32.5564 83.6929C32.6544 83.4566 32.8203 83.2548 33.033 83.1127C33.2457 82.9707 33.4958 82.8949 33.7516 82.8949C33.9217 82.8951 34.0902 82.9289 34.2473 82.9943C34.4045 83.0596 34.5472 83.1553 34.6674 83.2758C34.7875 83.3963 34.8828 83.5393 34.9477 83.6966C35.0126 83.8539 35.0458 84.0225 35.0456 84.1927Z" fill="#E0E0E0"/>
<path d="M46.3826 83.0635H44.6935C44.5 83.0635 44.3433 83.2203 44.3433 83.4137V85.1085C44.3433 85.3019 44.5 85.4587 44.6935 85.4587H46.3826C46.576 85.4587 46.7328 85.3019 46.7328 85.1085V83.4137C46.7328 83.2203 46.576 83.0635 46.3826 83.0635Z" fill="#E0E0E0"/>
<path d="M47.9743 23.8392C47.9743 23.9029 47.9554 23.9652 47.92 24.0181C47.8846 24.0711 47.8343 24.1124 47.7754 24.1368C47.7166 24.1612 47.6518 24.1675 47.5893 24.1551C47.5269 24.1427 47.4695 24.112 47.4244 24.067C47.3794 24.0219 47.3487 23.9645 47.3363 23.902C47.3238 23.8396 47.3302 23.7748 47.3546 23.7159C47.379 23.6571 47.4203 23.6068 47.4732 23.5714C47.5262 23.536 47.5885 23.5171 47.6522 23.5171C47.7376 23.5171 47.8195 23.551 47.8799 23.6114C47.9404 23.6718 47.9743 23.7538 47.9743 23.8392V23.8392Z" fill="#263238"/>
<path d="M47.6522 25.0414C47.8301 25.0414 47.9743 24.8972 47.9743 24.7193C47.9743 24.5414 47.8301 24.3972 47.6522 24.3972C47.4743 24.3972 47.3301 24.5414 47.3301 24.7193C47.3301 24.8972 47.4743 25.0414 47.6522 25.0414Z" fill="#263238"/>
<path d="M47.6522 25.9217C47.8301 25.9217 47.9743 25.7775 47.9743 25.5996C47.9743 25.4217 47.8301 25.2775 47.6522 25.2775C47.4743 25.2775 47.3301 25.4217 47.3301 25.5996C47.3301 25.7775 47.4743 25.9217 47.6522 25.9217Z" fill="#263238"/>
<path d="M49.881 27.5153C49.881 27.5415 42.6392 27.5621 33.7083 27.5621C24.7774 27.5621 17.5356 27.5415 17.5356 27.5153C17.5356 27.4891 24.7755 27.4685 33.7083 27.4685C42.6411 27.4685 49.881 27.4985 49.881 27.5153Z" fill="#E0E0E0"/>
<path d="M20.0642 23.499V24.786C20.0642 24.945 20.0972 25.137 20.2502 25.305C20.3552 25.419 20.5322 25.539 20.8052 25.539C21.0782 25.539 21.2552 25.419 21.3602 25.305C21.5132 25.137 21.5462 24.945 21.5462 24.786V23.499H21.2402V24.705C21.2402 24.813 21.2372 24.945 21.1772 25.05C21.1172 25.152 20.9822 25.257 20.8052 25.257C20.6282 25.257 20.4932 25.152 20.4332 25.05C20.3732 24.945 20.3702 24.813 20.3702 24.705V23.499H20.0642ZM22.0271 23.499V25.5H22.3331V24.687H22.4711C22.6181 24.687 22.8011 24.666 22.9601 24.531C23.1251 24.39 23.1551 24.21 23.1551 24.093C23.1551 23.91 23.0741 23.718 22.9061 23.607C22.7621 23.511 22.5911 23.499 22.4681 23.499H22.0271ZM22.3331 23.781H22.4681C22.8161 23.781 22.8611 23.979 22.8611 24.09C22.8611 24.276 22.7351 24.405 22.4711 24.405H22.3331V23.781ZM23.4685 23.499V25.5H23.7745V23.499H23.4685ZM24.9539 23.499V25.5H25.2599V24.687H25.3979C25.5449 24.687 25.7279 24.666 25.8869 24.531C26.0519 24.39 26.0819 24.21 26.0819 24.093C26.0819 23.91 26.0009 23.718 25.8329 23.607C25.6889 23.511 25.5179 23.499 25.3949 23.499H24.9539ZM25.2599 23.781H25.3949C25.7429 23.781 25.7879 23.979 25.7879 24.09C25.7879 24.276 25.6619 24.405 25.3979 24.405H25.2599V23.781ZM27.6905 25.5H28.0205L27.0725 23.382L26.0765 25.5H26.4065L26.6255 25.017H27.4805L27.6905 25.5ZM26.7515 24.729L27.0605 24.051L27.3575 24.729H26.7515ZM28.5115 25.5H28.8175V24.636L29.4745 23.499H29.1265L28.6645 24.3L28.2025 23.499H27.8545L28.5115 24.636V25.5ZM29.908 25.5L30.118 24.291L30.694 25.593L31.276 24.294L31.48 25.5H31.792L31.414 23.349L30.712 24.903L30.016 23.349L29.596 25.5H29.908ZM33.3147 23.499H32.2107V25.5H33.3147V25.212H32.5167V24.582H33.2907V24.294H32.5167V23.787H33.3147V23.499ZM34.0167 25.5V24.102L35.4687 25.623V23.499H35.1627V24.885L33.7107 23.364V25.5H34.0167ZM36.963 23.787V23.499H35.739V23.787H36.198V25.5H36.504V23.787H36.963Z" fill="black"/>
<path d="M22.2192 32.3263C22.0886 32.3267 21.9609 32.2883 21.8522 32.216C21.7435 32.1437 21.6588 32.0408 21.6086 31.9203C21.5585 31.7997 21.5453 31.667 21.5707 31.539C21.5961 31.4109 21.6589 31.2933 21.7512 31.201C21.8435 31.1087 21.9611 31.0459 22.0892 31.0205C22.2172 30.9951 22.3499 31.0083 22.4704 31.0585C22.591 31.1086 22.6939 31.1934 22.7662 31.3021C22.8385 31.4108 22.8769 31.5385 22.8765 31.669C22.876 31.8432 22.8066 32.0101 22.6834 32.1332C22.5603 32.2564 22.3933 32.3258 22.2192 32.3263V32.3263ZM22.2192 31.2027C22.1258 31.2023 22.0343 31.2297 21.9565 31.2813C21.8786 31.3329 21.8178 31.4065 21.7818 31.4927C21.7458 31.5789 21.7362 31.6739 21.7542 31.7655C21.7722 31.8572 21.817 31.9415 21.8829 32.0076C21.9489 32.0738 22.0329 32.119 22.1245 32.1373C22.2161 32.1557 22.3111 32.1465 22.3975 32.1108C22.4838 32.0751 22.5576 32.0146 22.6096 31.937C22.6615 31.8593 22.6892 31.768 22.6892 31.6746C22.69 31.6123 22.6784 31.5505 22.6551 31.4927C22.6318 31.4349 22.5974 31.3823 22.5537 31.3379C22.51 31.2935 22.4579 31.2582 22.4005 31.2341C22.3431 31.2099 22.2815 31.1973 22.2192 31.1971V31.2027Z" fill="#263238"/>
<path d="M21.8333 32.7702C21.6793 32.7697 21.5304 32.7153 21.4123 32.6165C21.2943 32.5176 21.2145 32.3806 21.1869 32.2291C21.1594 32.0776 21.1857 31.9212 21.2613 31.7871C21.337 31.653 21.4572 31.5496 21.6011 31.4949L21.6685 31.6709C21.5912 31.6998 21.5229 31.7484 21.4703 31.8119C21.4177 31.8755 21.3826 31.9517 21.3686 32.033C21.3547 32.1143 21.3622 32.1978 21.3906 32.2753C21.419 32.3527 21.4672 32.4214 21.5304 32.4744C21.5935 32.5275 21.6695 32.563 21.7507 32.5775C21.8319 32.592 21.9155 32.585 21.9932 32.5571C22.0708 32.5293 22.1398 32.4815 22.1932 32.4187C22.2467 32.3559 22.2827 32.2801 22.2977 32.199L22.485 32.2327C22.4562 32.3843 22.3752 32.521 22.2562 32.6191C22.1372 32.7173 21.9876 32.7707 21.8333 32.7702V32.7702Z" fill="#263238"/>
<path d="M21.4569 33.1541C21.3025 33.1548 21.1527 33.1012 21.0339 33.0025C20.9151 32.9039 20.8348 32.7666 20.8071 32.6147C20.7793 32.4627 20.806 32.3059 20.8824 32.1717C20.9587 32.0375 21.0799 31.9344 21.2247 31.8806L21.2902 32.0548C21.2009 32.0893 21.124 32.15 21.0696 32.2288C21.0151 32.3076 20.9857 32.401 20.985 32.4967C20.9844 32.6148 21.0281 32.7289 21.1074 32.8163C21.1868 32.9038 21.296 32.9583 21.4136 32.9691C21.5312 32.9799 21.6486 32.9463 21.7426 32.8748C21.8366 32.8032 21.9004 32.6991 21.9213 32.5829L22.1086 32.6185C22.08 32.77 21.9991 32.9067 21.88 33.0046C21.7609 33.1025 21.6111 33.1554 21.4569 33.1541Z" fill="#263238"/>
<path d="M23.9688 32.0735C23.9753 31.9462 24.019 31.8236 24.0943 31.7208C24.1697 31.618 24.2735 31.5395 24.3929 31.4949C24.5123 31.4503 24.6421 31.4416 24.7664 31.4699C24.8907 31.4982 25.004 31.5621 25.0924 31.654L24.9482 31.7907C24.9079 31.7452 24.8582 31.709 24.8026 31.6844C24.747 31.6599 24.6868 31.6476 24.6261 31.6484C24.568 31.6445 24.5097 31.6526 24.4549 31.6722C24.4001 31.6917 24.3499 31.7224 24.3074 31.7621C24.2649 31.8019 24.231 31.85 24.2079 31.9034C24.1847 31.9568 24.1728 32.0143 24.1728 32.0725C24.1728 32.1307 24.1847 32.1883 24.2079 32.2417C24.231 32.2951 24.2649 32.3432 24.3074 32.3829C24.3499 32.4227 24.4001 32.4533 24.4549 32.4729C24.5097 32.4925 24.568 32.5006 24.6261 32.4967C24.6868 32.4975 24.747 32.4852 24.8026 32.4606C24.8582 32.4361 24.9079 32.3998 24.9482 32.3544L25.0924 32.4911C25.0045 32.5837 24.8913 32.6484 24.7669 32.6773C24.6425 32.7061 24.5124 32.6978 24.3927 32.6533C24.273 32.6088 24.169 32.5301 24.0936 32.427C24.0183 32.324 23.9748 32.201 23.9688 32.0735V32.0735Z" fill="#263238"/>
<path d="M26.3803 31.4705V32.6765H26.1518V32.1596H25.5282V32.6765H25.3091V31.4705H25.5319V31.9686H26.1518V31.4705H26.3803Z" fill="#263238"/>
<path d="M26.6184 32.0733C26.6124 31.9437 26.6453 31.8153 26.713 31.7045C26.7807 31.5938 26.88 31.5059 26.9981 31.4521C27.1161 31.3982 27.2476 31.381 27.3756 31.4026C27.5036 31.4242 27.6221 31.4836 27.716 31.5732C27.8099 31.6627 27.8749 31.7784 27.9025 31.9052C27.9301 32.032 27.9191 32.1641 27.8709 32.2846C27.8227 32.4051 27.7396 32.5084 27.6321 32.5813C27.5247 32.6541 27.398 32.6931 27.2682 32.6932C27.1842 32.6975 27.1003 32.6847 27.0215 32.6555C26.9427 32.6262 26.8706 32.5812 26.8098 32.5232C26.749 32.4652 26.7006 32.3954 26.6677 32.318C26.6348 32.2407 26.618 32.1574 26.6184 32.0733ZM27.6933 32.0733C27.6937 31.9892 27.6691 31.9068 27.6226 31.8367C27.5761 31.7665 27.5098 31.7117 27.4322 31.6793C27.3545 31.6468 27.269 31.6381 27.1864 31.6543C27.1038 31.6705 27.0279 31.7108 26.9683 31.7702C26.9086 31.8296 26.868 31.9053 26.8514 31.9878C26.8348 32.0704 26.8432 32.1559 26.8753 32.2337C26.9074 32.3115 26.9619 32.378 27.0318 32.4248C27.1018 32.4716 27.184 32.4966 27.2682 32.4966C27.3244 32.4984 27.3803 32.4887 27.4326 32.4681C27.4848 32.4475 27.5323 32.4164 27.5721 32.3768C27.612 32.3371 27.6432 32.2898 27.6641 32.2376C27.6849 32.1854 27.6949 32.1295 27.6933 32.0733V32.0733Z" fill="#263238"/>
<path d="M28.0715 32.0733C28.0655 31.9437 28.0985 31.8153 28.1661 31.7045C28.2338 31.5938 28.3331 31.5059 28.4512 31.4521C28.5693 31.3982 28.7008 31.381 28.8287 31.4026C28.9567 31.4242 29.0753 31.4836 29.1692 31.5732C29.2631 31.6627 29.328 31.7784 29.3556 31.9052C29.3832 32.032 29.3722 32.1641 29.324 32.2846C29.2758 32.4051 29.1927 32.5084 29.0853 32.5813C28.9779 32.6541 28.8511 32.6931 28.7213 32.6932C28.6373 32.6978 28.5532 32.6852 28.4743 32.656C28.3954 32.6269 28.3232 32.5819 28.2623 32.5238C28.2014 32.4658 28.1531 32.3958 28.1203 32.3183C28.0875 32.2409 28.0709 32.1575 28.0715 32.0733V32.0733ZM29.1446 32.0733C29.1449 31.9891 29.1203 31.9067 29.0737 31.8365C29.0271 31.7663 28.9607 31.7115 28.883 31.6791C28.8052 31.6467 28.7196 31.6381 28.637 31.6545C28.5543 31.6708 28.4784 31.7113 28.4189 31.7709C28.3593 31.8305 28.3188 31.9064 28.3024 31.989C28.2861 32.0716 28.2947 32.1573 28.3271 32.235C28.3595 32.3128 28.4142 32.3791 28.4844 32.4257C28.5546 32.4723 28.6371 32.4969 28.7213 32.4966C28.7776 32.4987 28.8338 32.4891 28.8863 32.4687C28.9388 32.4482 28.9865 32.4171 29.0265 32.3775C29.0665 32.3378 29.098 32.2903 29.1189 32.238C29.1399 32.1857 29.1499 32.1297 29.1483 32.0733H29.1446Z" fill="#263238"/>
<path d="M29.5078 32.5548L29.5846 32.3806C29.7002 32.466 29.8398 32.5125 29.9835 32.5136C30.1708 32.5136 30.2494 32.4462 30.2494 32.3563C30.2494 32.096 29.534 32.2664 29.534 31.8188C29.534 31.6316 29.6876 31.4593 30.0191 31.4593C30.16 31.4564 30.2989 31.4934 30.4198 31.566L30.3505 31.7402C30.25 31.6791 30.1348 31.6461 30.0172 31.6447C29.8299 31.6447 29.755 31.7177 29.755 31.8076C29.755 32.0641 30.4704 31.8975 30.4704 32.3413C30.4704 32.5286 30.3131 32.699 29.9835 32.699C29.8134 32.7046 29.6462 32.6539 29.5078 32.5548V32.5548Z" fill="#263238"/>
<path d="M31.5979 32.4892V32.6765H30.6934V31.4705H31.5829V31.6577H30.9274V31.9723H31.5099V32.1596H30.9274V32.493L31.5979 32.4892Z" fill="#263238"/>
<path d="M33.107 32.3974H32.504L32.3842 32.6765H32.1538L32.6969 31.4705H32.9179L33.461 32.6765H33.2269L33.107 32.3974ZM33.0321 32.2214L32.8055 31.6933L32.5789 32.2214H33.0321Z" fill="#263238"/>
<path d="M34.7235 32.6765V31.8768L34.3265 32.5379H34.2253L33.8302 31.8862V32.6765H33.6167V31.4705H33.804L34.2834 32.2701L34.7534 31.4705H34.9407V32.6765H34.7235Z" fill="#263238"/>
<path d="M35.1765 32.0733C35.1705 31.9437 35.2035 31.8153 35.2711 31.7045C35.3388 31.5938 35.4381 31.5059 35.5562 31.4521C35.6742 31.3982 35.8057 31.381 35.9337 31.4026C36.0617 31.4242 36.1802 31.4836 36.2741 31.5732C36.368 31.6627 36.433 31.7784 36.4606 31.9052C36.4882 32.032 36.4772 32.1641 36.429 32.2846C36.3808 32.4051 36.2977 32.5084 36.1902 32.5813C36.0828 32.6541 35.9561 32.6931 35.8263 32.6932C35.7423 32.6978 35.6582 32.6852 35.5793 32.656C35.5003 32.6269 35.4282 32.5819 35.3673 32.5238C35.3064 32.4658 35.2581 32.3958 35.2253 32.3183C35.1924 32.2409 35.1758 32.1575 35.1765 32.0733V32.0733ZM36.2495 32.0733C36.2495 31.9896 36.2247 31.9078 36.1782 31.8382C36.1317 31.7686 36.0656 31.7144 35.9883 31.6823C35.9109 31.6503 35.8258 31.6419 35.7437 31.6582C35.6616 31.6746 35.5862 31.7149 35.527 31.7741C35.4678 31.8333 35.4275 31.9087 35.4112 31.9908C35.3949 32.0729 35.4033 32.158 35.4353 32.2353C35.4673 32.3126 35.5216 32.3787 35.5912 32.4253C35.6608 32.4718 35.7426 32.4966 35.8263 32.4966C35.8824 32.4984 35.9382 32.4887 35.9904 32.4681C36.0426 32.4475 36.09 32.4163 36.1296 32.3767C36.1693 32.337 36.2004 32.2896 36.221 32.2374C36.2417 32.1853 36.2514 32.1294 36.2495 32.0733V32.0733Z" fill="#263238"/>
<path d="M36.7046 32.1502V31.4705H36.9293V32.1428C36.9293 32.39 37.0398 32.4967 37.2346 32.4967C37.4293 32.4967 37.5398 32.39 37.5398 32.1428V31.4705H37.7627V32.1502C37.7627 32.2903 37.707 32.4246 37.608 32.5237C37.509 32.6227 37.3746 32.6784 37.2346 32.6784C37.0945 32.6784 36.9602 32.6227 36.8611 32.5237C36.7621 32.4246 36.7065 32.2903 36.7065 32.1502H36.7046Z" fill="#263238"/>
<path d="M39.1467 31.4705V32.6765H38.9594L38.2946 31.86V32.6765H38.0718V31.4705H38.259L38.9257 32.287V31.4705H39.1467Z" fill="#263238"/>
<path d="M39.7158 31.6596H39.3169V31.4723H40.3394V31.6596H39.9405V32.6764H39.7158V31.6596Z" fill="#263238"/>
<path d="M40.969 32.2046C40.9602 31.921 41.033 31.6409 41.1787 31.3975H41.3847C41.25 31.6448 41.1794 31.922 41.1794 32.2037C41.1794 32.4853 41.25 32.7625 41.3847 33.0099H41.1787C41.0335 32.7669 40.9607 32.4875 40.969 32.2046Z" fill="#263238"/>
<path d="M42.6318 32.3543L42.776 32.4911C42.7163 32.558 42.6425 32.6108 42.5599 32.6458C42.4773 32.6807 42.388 32.697 42.2984 32.6933C42.1606 32.6994 42.0247 32.6592 41.9124 32.5791C41.8 32.499 41.7177 32.3836 41.6786 32.2513H41.4819V32.1315H41.6561C41.6561 32.1128 41.6561 32.094 41.6561 32.0734C41.6561 32.0528 41.6561 32.0341 41.6561 32.0154H41.4819V31.8937H41.6786C41.7178 31.7615 41.8002 31.6464 41.9125 31.5666C42.0249 31.4868 42.1608 31.447 42.2984 31.4536C42.3879 31.4495 42.4771 31.4654 42.5597 31.5001C42.6423 31.5347 42.7162 31.5873 42.776 31.654L42.6318 31.7907C42.5915 31.7452 42.5418 31.709 42.4862 31.6844C42.4307 31.6598 42.3704 31.6475 42.3097 31.6483C42.2269 31.6452 42.145 31.6669 42.0746 31.7106C42.0042 31.7543 41.9484 31.818 41.9145 31.8937H42.4089V32.0154H41.8827C41.8777 32.0539 41.8777 32.093 41.8827 32.1315H42.4108V32.2513H41.9164C41.9499 32.3273 42.0055 32.3913 42.076 32.4351C42.1466 32.4789 42.2286 32.5003 42.3115 32.4967C42.372 32.4972 42.4318 32.4848 42.4871 32.4602C42.5423 32.4357 42.5917 32.3996 42.6318 32.3543Z" fill="#263238"/>
<path d="M42.8618 33.0099C42.9965 32.7625 43.0671 32.4853 43.0671 32.2037C43.0671 31.922 42.9965 31.6448 42.8618 31.3975H43.0659C43.2046 31.6435 43.2774 31.9212 43.2774 32.2037C43.2774 32.4861 43.2046 32.7638 43.0659 33.0099H42.8618Z" fill="#263238"/>
<path d="M37.2009 35.2234H31.0585C30.5982 35.2234 30.2251 35.5965 30.2251 36.0567V41.8771C30.2251 42.3374 30.5982 42.7105 31.0585 42.7105H37.2009C37.6612 42.7105 38.0343 42.3374 38.0343 41.8771V36.0567C38.0343 35.5965 37.6612 35.2234 37.2009 35.2234Z" fill="#00C802"/>
<path d="M33.8845 39.5455V39.8957H32.2459V39.6185L33.1298 38.7814C33.3452 38.5754 33.3826 38.4443 33.3826 38.3207C33.3826 38.1166 33.244 38.0005 32.9706 38.0005C32.8719 37.9954 32.7733 38.0136 32.6829 38.0536C32.5924 38.0937 32.5127 38.1544 32.45 38.2309L32.1616 38.0099C32.2632 37.8857 32.3926 37.787 32.5393 37.722C32.686 37.6569 32.8459 37.6272 33.0062 37.6353C33.4875 37.6353 33.7984 37.8807 33.7984 38.2739C33.7984 38.4893 33.7384 38.6859 33.4238 38.9762L32.8302 39.538L33.8845 39.5455Z" fill="white"/>
<path d="M34.1123 38.7833C34.1123 38.0549 34.5131 37.641 35.0393 37.641C35.5655 37.641 35.9756 38.0549 35.9756 38.7833C35.9756 39.5118 35.5749 39.9276 35.0393 39.9276C34.5037 39.9276 34.1123 39.5137 34.1123 38.7833ZM35.5543 38.7833C35.5543 38.2477 35.3445 38.0006 35.0393 38.0006C34.734 38.0006 34.528 38.2477 34.528 38.7833C34.528 39.3189 34.7378 39.568 35.0393 39.568C35.3408 39.568 35.5543 39.3208 35.5543 38.7833Z" fill="white"/>
<path d="M24.7605 37.6729V39.8958H24.3485V38.023H23.8784V37.6766L24.7605 37.6729Z" fill="#263238"/>
<path d="M25.2026 38.7852C25.2026 38.0549 25.6015 37.641 26.1296 37.641C26.6577 37.641 27.066 38.0549 27.066 38.7852C27.066 39.5156 26.6671 39.9276 26.1296 39.9276C25.5922 39.9276 25.2026 39.5137 25.2026 38.7852ZM26.6427 38.7852C26.6427 38.2477 26.433 38.0006 26.1296 38.0006C25.8262 38.0006 25.6184 38.2477 25.6184 38.7852C25.6184 39.3227 25.8281 39.568 26.1296 39.568C26.4311 39.568 26.6427 39.3208 26.6427 38.7852Z" fill="#263238"/>
<path d="M28.5977 42.8041H22.4534C22.2083 42.8017 21.9739 42.7032 21.8006 42.5299C21.6273 42.3566 21.5288 42.1222 21.5264 41.8771V36.0567C21.5288 35.8117 21.6273 35.5773 21.8006 35.404C21.9739 35.2306 22.2083 35.1322 22.4534 35.1298H28.5977C28.8425 35.1327 29.0764 35.2313 29.2493 35.4046C29.4222 35.5779 29.5204 35.812 29.5228 36.0567V41.8771C29.5204 42.1219 29.4222 42.356 29.2493 42.5293C29.0764 42.7025 28.8425 42.8012 28.5977 42.8041V42.8041ZM22.4534 35.3133C22.2579 35.3157 22.0712 35.3944 21.933 35.5326C21.7948 35.6708 21.7161 35.8576 21.7136 36.053V41.8734C21.7161 42.0688 21.7948 42.2555 21.933 42.3937C22.0712 42.5319 22.2579 42.6107 22.4534 42.6131H28.5977C28.7931 42.6107 28.9799 42.5319 29.1181 42.3937C29.2563 42.2555 29.335 42.0688 29.3374 41.8734V36.0567C29.335 35.8613 29.2563 35.6746 29.1181 35.5364C28.9799 35.3982 28.7931 35.3195 28.5977 35.317L22.4534 35.3133Z" fill="#E0E0E0"/>
<path d="M45.8151 42.8041H39.6726C39.4275 42.8017 39.1931 42.7032 39.0198 42.5299C38.8465 42.3566 38.748 42.1222 38.7456 41.8771V36.0567C38.748 35.8117 38.8465 35.5773 39.0198 35.404C39.1931 35.2306 39.4275 35.1322 39.6726 35.1298H45.8151C46.0602 35.1322 46.2945 35.2306 46.4678 35.404C46.6412 35.5773 46.7396 35.8117 46.7421 36.0567V41.8771C46.7396 42.1222 46.6412 42.3566 46.4678 42.5299C46.2945 42.7032 46.0602 42.8017 45.8151 42.8041V42.8041ZM39.6726 35.3133C39.4772 35.3157 39.2904 35.3944 39.1522 35.5326C39.014 35.6708 38.9353 35.8576 38.9329 36.053V41.8734C38.9353 42.0688 39.014 42.2555 39.1522 42.3937C39.2904 42.5319 39.4772 42.6107 39.6726 42.6131H45.8151C46.0105 42.6107 46.1972 42.5319 46.3354 42.3937C46.4736 42.2555 46.5524 42.0688 46.5548 41.8734V36.0567C46.5524 35.8613 46.4736 35.6746 46.3354 35.5364C46.1972 35.3982 46.0105 35.3195 45.8151 35.317L39.6726 35.3133Z" fill="#E0E0E0"/>
<path d="M42.4948 39.2122C42.4948 39.6036 42.212 39.9276 41.6165 39.9276C41.3174 39.9341 41.0244 39.8434 40.7812 39.6692L40.9554 39.3489C41.1426 39.4931 41.3727 39.5703 41.609 39.568C41.9049 39.568 42.079 39.4388 42.079 39.2291C42.079 39.0193 41.9423 38.8826 41.4816 38.8826H40.946L41.0603 37.6729H42.3712V38.0193H41.4161L41.3674 38.5343H41.5809C42.2326 38.5343 42.4948 38.8189 42.4948 39.2122Z" fill="#263238"/>
<path d="M42.7329 38.7833C42.7329 38.0549 43.1337 37.641 43.6599 37.641C44.1861 37.641 44.5962 38.0549 44.5962 38.7833C44.5962 39.5118 44.1955 39.9276 43.6599 39.9276C43.1243 39.9276 42.7329 39.5137 42.7329 38.7833ZM44.1749 38.7833C44.1749 38.2477 43.9651 38.0006 43.6599 38.0006C43.3546 38.0006 43.1487 38.2477 43.1487 38.7833C43.1487 39.3189 43.3584 39.568 43.6599 39.568C43.9614 39.568 44.1749 39.3208 44.1749 38.7833Z" fill="#263238"/>
<path d="M37.2008 51.5346H31.0583C30.8132 51.5321 30.5789 51.4337 30.4056 51.2604C30.2322 51.0871 30.1338 50.8527 30.1313 50.6076V44.7853C30.1343 44.5406 30.2329 44.3067 30.4062 44.1338C30.5795 43.9608 30.8136 43.8627 31.0583 43.8602H37.2008C37.4456 43.8627 37.6797 43.9608 37.8529 44.1338C38.0262 44.3067 38.1249 44.5406 38.1278 44.7853V50.6076C38.1254 50.8527 38.0269 51.0871 37.8536 51.2604C37.6803 51.4337 37.4459 51.5321 37.2008 51.5346ZM31.0583 44.0438C30.8632 44.0462 30.6768 44.1246 30.5386 44.2624C30.4005 44.4002 30.3215 44.5865 30.3186 44.7816V50.6076C30.321 50.803 30.3998 50.9898 30.538 51.128C30.6762 51.2662 30.8629 51.3449 31.0583 51.3473H37.2008C37.3979 51.3473 37.587 51.2697 37.7272 51.1312C37.8674 50.9928 37.9474 50.8046 37.9499 50.6076V44.7853C37.947 44.5902 37.8681 44.404 37.7299 44.2662C37.5918 44.1284 37.4053 44.0499 37.2102 44.0475L31.0583 44.0438Z" fill="#E0E0E0"/>
<path d="M32.8245 48.2856V48.6339H31.1858V48.3586L32.0698 47.5196C32.2851 47.3136 32.3226 47.1844 32.3226 47.0589C32.3226 46.8567 32.184 46.7387 31.9106 46.7387C31.8116 46.7336 31.7129 46.7519 31.6224 46.7923C31.5319 46.8326 31.4522 46.8939 31.39 46.9709L31.1016 46.7481C31.2034 46.6241 31.3328 46.5256 31.4794 46.4606C31.6261 46.3955 31.7859 46.3657 31.9462 46.3735C32.4274 46.3735 32.7383 46.617 32.7383 47.0103C32.7383 47.2275 32.6784 47.4241 32.3638 47.7125L31.7701 48.2856H32.8245Z" fill="#263238"/>
<path d="M33.0532 47.5139C33.0532 46.7836 33.4521 46.3716 33.9896 46.3716C34.527 46.3716 34.9259 46.7836 34.9259 47.5139C34.9259 48.2443 34.5252 48.6563 33.9896 48.6563C33.454 48.6563 33.0532 48.2443 33.0532 47.5139ZM34.4952 47.5139C34.4952 46.9783 34.2855 46.7293 33.9802 46.7293C33.675 46.7293 33.469 46.9783 33.469 47.5139C33.469 48.0495 33.6787 48.2986 33.9802 48.2986C34.2817 48.2986 34.4952 48.0495 34.4952 47.5139Z" fill="#263238"/>
<path d="M35.188 47.5139C35.188 46.7836 35.5887 46.3716 36.115 46.3716C36.6412 46.3716 37.0513 46.7836 37.0513 47.5139C37.0513 48.2443 36.6524 48.6563 36.115 48.6563C35.5775 48.6563 35.188 48.2443 35.188 47.5139ZM36.63 47.5139C36.63 46.9783 36.4202 46.7293 36.115 46.7293C35.8097 46.7293 35.6056 46.9783 35.6056 47.5139C35.6056 48.0495 35.8135 48.2986 36.115 48.2986C36.4165 48.2986 36.6393 48.0495 36.6393 47.5139H36.63Z" fill="#263238"/>
<path d="M23.6935 46.4127V48.6337H23.2796V46.761H22.8096V46.4127H23.6935Z" fill="#263238"/>
<path d="M24.1333 47.5139C24.1333 46.7836 24.5341 46.3716 25.0603 46.3716C25.5865 46.3716 25.9966 46.7836 25.9966 47.5139C25.9966 48.2443 25.5959 48.6563 25.0603 48.6563C24.5247 48.6563 24.1333 48.2443 24.1333 47.5139ZM25.5753 47.5139C25.5753 46.9783 25.3655 46.7293 25.0603 46.7293C24.755 46.7293 24.549 46.9783 24.549 47.5139C24.549 48.0495 24.7588 48.2986 25.0603 48.2986C25.3618 48.2986 25.5753 48.0495 25.5753 47.5139Z" fill="#263238"/>
<path d="M26.27 47.5139C26.27 46.7836 26.6689 46.3716 27.2064 46.3716C27.7438 46.3716 28.1427 46.7836 28.1427 47.5139C28.1427 48.2443 27.7438 48.6563 27.2064 48.6563C26.6689 48.6563 26.27 48.2443 26.27 47.5139ZM27.7101 47.5139C27.7101 46.9783 27.5004 46.7293 27.197 46.7293C26.8936 46.7293 26.6858 46.9783 26.6858 47.5139C26.6858 48.0495 26.8955 48.2986 27.197 48.2986C27.4985 48.2986 27.7101 48.0495 27.7101 47.5139Z" fill="#263238"/>
<path d="M28.5977 51.5346H22.4534C22.2083 51.5321 21.9739 51.4337 21.8006 51.2604C21.6273 51.0871 21.5288 50.8527 21.5264 50.6076V44.7853C21.5293 44.5406 21.628 44.3067 21.8012 44.1338C21.9745 43.9608 22.2086 43.8627 22.4534 43.8602H28.5977C28.8425 43.8627 29.0766 43.9608 29.2498 44.1338C29.4231 44.3067 29.5218 44.5406 29.5247 44.7853V50.6076C29.5222 50.8527 29.4238 51.0871 29.2505 51.2604C29.0772 51.4337 28.8428 51.5321 28.5977 51.5346V51.5346ZM22.4534 44.0438C22.2582 44.0462 22.0718 44.1246 21.9336 44.2624C21.7955 44.4002 21.7165 44.5865 21.7136 44.7816V50.6076C21.7161 50.803 21.7948 50.9898 21.933 51.128C22.0712 51.2662 22.2579 51.3449 22.4534 51.3473H28.5977C28.7928 51.3444 28.9791 51.2655 29.1169 51.1273C29.2547 50.9892 29.3331 50.8027 29.3355 50.6076V44.7853C29.3326 44.5902 29.2537 44.404 29.1156 44.2662C28.9774 44.1284 28.7909 44.0499 28.5958 44.0475L22.4534 44.0438Z" fill="#E0E0E0"/>
<path d="M45.8151 51.5346H39.6726C39.4275 51.5321 39.1931 51.4337 39.0198 51.2604C38.8465 51.0871 38.748 50.8527 38.7456 50.6076V44.7853C38.7485 44.5406 38.8472 44.3067 39.0205 44.1338C39.1937 43.9608 39.4278 43.8627 39.6726 43.8602H45.8151C46.0598 43.8627 46.2939 43.9608 46.4672 44.1338C46.6405 44.3067 46.7391 44.5406 46.7421 44.7853V50.6076C46.7396 50.8527 46.6412 51.0871 46.4678 51.2604C46.2945 51.4337 46.0602 51.5321 45.8151 51.5346V51.5346ZM39.6726 44.0438C39.4775 44.0462 39.291 44.1246 39.1529 44.2624C39.0147 44.4002 38.9358 44.5865 38.9329 44.7816V50.6076C38.9353 50.803 39.014 50.9898 39.1522 51.128C39.2904 51.2662 39.4772 51.3449 39.6726 51.3473H45.8151C46.0105 51.3449 46.1972 51.2662 46.3354 51.128C46.4736 50.9898 46.5524 50.803 46.5548 50.6076V44.7853C46.5519 44.5902 46.4729 44.404 46.3348 44.2662C46.1966 44.1284 46.0102 44.0499 45.8151 44.0475L39.6726 44.0438Z" fill="#E0E0E0"/>
<path d="M41.4538 47.9428C41.4538 48.3323 41.171 48.6563 40.5736 48.6563C40.2755 48.6623 39.9834 48.5723 39.7402 48.3997L39.9144 48.0795C40.1014 48.224 40.3317 48.3012 40.568 48.2986C40.8639 48.2986 41.038 48.1675 41.038 47.9578C41.038 47.748 40.9013 47.6132 40.4406 47.6132H39.905L40.0193 46.4034H41.3302V46.748H40.3732L40.3264 47.263H40.538C41.1897 47.263 41.4538 47.5495 41.4538 47.9428Z" fill="#263238"/>
<path d="M41.6953 47.5139C41.6953 46.7836 42.0942 46.3716 42.6223 46.3716C43.1504 46.3716 43.5587 46.7836 43.5587 47.5139C43.5587 48.2443 43.1579 48.6563 42.6223 48.6563C42.0867 48.6563 41.6953 48.2443 41.6953 47.5139ZM43.1373 47.5139C43.1373 46.9783 42.9276 46.7293 42.6223 46.7293C42.3171 46.7293 42.1111 46.9783 42.1111 47.5139C42.1111 48.0495 42.3208 48.2986 42.6223 48.2986C42.9238 48.2986 43.1335 48.0495 43.1335 47.5139H43.1373Z" fill="#263238"/>
<path d="M43.8267 47.5139C43.8267 46.7836 44.2274 46.3716 44.7536 46.3716C45.2799 46.3716 45.69 46.7836 45.69 47.5139C45.69 48.2443 45.2892 48.6563 44.7536 48.6563C44.2181 48.6563 43.8267 48.2443 43.8267 47.5139ZM45.2686 47.5139C45.2686 46.9783 45.0589 46.7293 44.7536 46.7293C44.4484 46.7293 44.2424 46.9783 44.2424 47.5139C44.2424 48.0495 44.4521 48.2986 44.7536 48.2986C45.0552 48.2986 45.2686 48.0495 45.2686 47.5139Z" fill="#263238"/>
<path d="M20.957 57.5386L21.0338 57.3644C21.149 57.4506 21.2889 57.4972 21.4327 57.4974C21.62 57.4974 21.6986 57.4299 21.6986 57.3401C21.6986 57.0816 20.9832 57.252 20.9832 56.8026C20.9832 56.6153 21.1368 56.443 21.4683 56.443C21.6093 56.4402 21.7482 56.4772 21.869 56.5498L21.7997 56.7239C21.6988 56.6637 21.5839 56.6307 21.4664 56.6284C21.2791 56.6284 21.2042 56.7015 21.2042 56.7932C21.2042 57.0498 21.9196 56.8831 21.9196 57.3251C21.9196 57.5123 21.7623 57.6828 21.4327 57.6828C21.2626 57.6883 21.0954 57.6376 20.957 57.5386Z" fill="#263238"/>
<path d="M23.0466 57.4786V57.6659H22.1421V56.4598H23.0223V56.6471H22.3668V56.9599H22.9492V57.1471H22.3668V57.4805L23.0466 57.4786Z" fill="#263238"/>
<path d="M23.2979 56.4598H23.5301V57.4767H24.1593V57.664H23.3053L23.2979 56.4598Z" fill="#263238"/>
<path d="M25.2361 57.4786V57.6659H24.3315V56.4598H25.2155V56.6471H24.5581V56.9599H25.1406V57.1471H24.5581V57.4805L25.2361 57.4786Z" fill="#263238"/>
<path d="M25.4028 57.0628C25.4089 56.9352 25.4523 56.8123 25.5277 56.7092C25.6031 56.6061 25.7071 56.5275 25.8268 56.483C25.9464 56.4385 26.0766 56.4301 26.201 56.459C26.3254 56.4878 26.4385 56.5526 26.5265 56.6452L26.3804 56.78C26.34 56.7348 26.2903 56.6988 26.2347 56.6746C26.1791 56.6504 26.1189 56.6384 26.0583 56.6395C25.9872 56.6398 25.9173 56.6578 25.855 56.6921C25.7927 56.7263 25.7399 56.7756 25.7016 56.8355C25.6633 56.8954 25.6406 56.964 25.6356 57.0349C25.6306 57.1058 25.6435 57.1768 25.6731 57.2415C25.7027 57.3061 25.748 57.3623 25.8049 57.405C25.8618 57.4476 25.9285 57.4752 25.9989 57.4854C26.0693 57.4956 26.141 57.4879 26.2077 57.4632C26.2743 57.4384 26.3337 57.3973 26.3804 57.3437L26.5265 57.4823C26.4381 57.5741 26.3248 57.6381 26.2005 57.6664C26.0762 57.6946 25.9464 57.6859 25.8269 57.6414C25.7075 57.5968 25.6038 57.5183 25.5284 57.4155C25.4531 57.3127 25.4094 57.1901 25.4028 57.0628V57.0628Z" fill="#263238"/>
<path d="M26.9667 56.6491H26.5659V56.4618H27.5903V56.6491H27.1895V57.6659H26.9667V56.6491Z" fill="#263238"/>
<path d="M29.2438 56.8887C29.2438 57.1546 29.0565 57.3175 28.7306 57.3175H28.4591V57.6659H28.2344V56.4598H28.7306C29.049 56.4598 29.2438 56.6228 29.2438 56.8887ZM29.019 56.8887C29.019 56.737 28.9179 56.649 28.7213 56.649H28.4591V57.1284H28.7213C28.9179 57.1284 29.019 57.0404 29.019 56.8887Z" fill="#263238"/>
<path d="M30.1915 57.3868H29.5885L29.4686 57.6659H29.2383L29.7814 56.4598H30.0023L30.5473 57.6659H30.3113L30.1915 57.3868ZM30.1166 57.2108L29.8975 56.6846L29.6709 57.2108H30.1166Z" fill="#263238"/>
<path d="M31.1481 57.2408V57.6659H30.9234V57.2445L30.459 56.4598H30.6987L31.0526 57.0479L31.4084 56.4598H31.6294L31.1481 57.2408Z" fill="#263238"/>
<path d="M32.8582 57.6659V56.8662L32.4631 57.5292H32.362L31.9575 56.8775V57.6659H31.7515V56.4598H31.9387L32.4182 57.2595L32.8882 56.4598H33.0755V57.6659H32.8582Z" fill="#263238"/>
<path d="M34.3025 57.4786V57.6659H33.3979V56.4598H34.2781V56.6471H33.6227V56.9599H34.2051V57.1471H33.6227V57.4805L34.3025 57.4786Z" fill="#263238"/>
<path d="M35.6238 56.4599V57.6659H35.4365L34.7717 56.8494V57.6659H34.5488V56.4599H34.7361L35.4028 57.2745V56.458L35.6238 56.4599Z" fill="#263238"/>
<path d="M36.1933 56.6491H35.7944V56.4618H36.8263V56.6491H36.4274V57.6659H36.2027L36.1933 56.6491Z" fill="#263238"/>
<path d="M38.5715 57.6659V56.8662L38.1745 57.5292H38.0753L37.6783 56.8775V57.6659H37.4629V56.4598H37.6502L38.1277 57.2595L38.5996 56.4598H38.7869V57.6659H38.5715Z" fill="#263238"/>
<path d="M40.0099 57.4786V57.6659H39.1035V56.4598H39.9856V56.6471H39.3282V56.9599H39.9107V57.1471H39.3282V57.4805L40.0099 57.4786Z" fill="#263238"/>
<path d="M40.5097 56.6491H40.1108V56.4618H41.1333V56.6491H40.7344V57.6659H40.5097V56.6491Z" fill="#263238"/>
<path d="M42.3749 56.4598V57.6659H42.1502V57.149H41.5266V57.6659H41.3037V56.4598H41.5266V56.958H42.1502V56.4598H42.3749Z" fill="#263238"/>
<path d="M42.613 57.0628C42.607 56.9332 42.64 56.8048 42.7076 56.694C42.7753 56.5833 42.8746 56.4954 42.9927 56.4416C43.1108 56.3877 43.2423 56.3705 43.3702 56.3921C43.4982 56.4137 43.6168 56.4731 43.7107 56.5627C43.8046 56.6522 43.8695 56.7679 43.8971 56.8947C43.9247 57.0215 43.9137 57.1536 43.8655 57.2741C43.8173 57.3946 43.7342 57.4979 43.6268 57.5708C43.5194 57.6436 43.3926 57.6826 43.2628 57.6827C43.1789 57.687 43.0949 57.6742 43.0161 57.645C42.9373 57.6157 42.8653 57.5707 42.8044 57.5127C42.7436 57.4547 42.6952 57.3849 42.6623 57.3075C42.6294 57.2302 42.6126 57.1469 42.613 57.0628V57.0628ZM43.6879 57.0628C43.6879 56.9788 43.663 56.8966 43.6163 56.8267C43.5696 56.7568 43.5032 56.7023 43.4255 56.6701C43.3478 56.6379 43.2624 56.6295 43.1799 56.6459C43.0974 56.6623 43.0217 56.7028 42.9622 56.7623C42.9028 56.8217 42.8623 56.8975 42.8459 56.9799C42.8295 57.0624 42.8379 57.1478 42.8701 57.2255C42.9023 57.3032 42.9567 57.3696 43.0267 57.4163C43.0966 57.463 43.1787 57.488 43.2628 57.488C43.3191 57.4898 43.3752 57.48 43.4276 57.4593C43.48 57.4386 43.5276 57.4073 43.5675 57.3675C43.6073 57.3277 43.6386 57.2801 43.6593 57.2277C43.68 57.1753 43.6898 57.1192 43.6879 57.0628V57.0628Z" fill="#263238"/>
<path d="M44.1523 56.4599H44.6786C44.7618 56.4533 44.8454 56.464 44.9242 56.4914C45.0031 56.5187 45.0754 56.562 45.1367 56.6187C45.198 56.6753 45.2469 56.744 45.2803 56.8205C45.3138 56.8969 45.331 56.9794 45.331 57.0629C45.331 57.1463 45.3138 57.2289 45.2803 57.3053C45.2469 57.3818 45.198 57.4505 45.1367 57.5071C45.0754 57.5637 45.0031 57.6071 44.9242 57.6344C44.8454 57.6617 44.7618 57.6725 44.6786 57.6659H44.1523V56.4599ZM44.6692 57.4768C44.779 57.4768 44.8842 57.4332 44.9619 57.3555C45.0395 57.2779 45.0831 57.1727 45.0831 57.0629C45.0831 56.9531 45.0395 56.8479 44.9619 56.7702C44.8842 56.6926 44.779 56.649 44.6692 56.649H44.3752V57.4768H44.6692Z" fill="#263238"/>
<path d="M47.2086 66.6886H21.0263C20.7334 66.6881 20.4527 66.5716 20.2455 66.3645C20.0384 66.1574 19.9219 65.8766 19.9214 65.5837V60.6454C19.9219 60.3525 20.0384 60.0718 20.2455 59.8647C20.4527 59.6576 20.7334 59.541 21.0263 59.5405H47.2086C47.5015 59.541 47.7822 59.6576 47.9893 59.8647C48.1964 60.0718 48.313 60.3525 48.3135 60.6454V65.5856C48.3125 65.8782 48.1957 66.1584 47.9886 66.3651C47.7816 66.5718 47.5011 66.6881 47.2086 66.6886ZM21.0263 59.7259C20.7831 59.7264 20.55 59.8233 20.378 59.9952C20.206 60.1672 20.1092 60.4003 20.1087 60.6435V65.5837C20.1092 65.827 20.206 66.0601 20.378 66.2321C20.55 66.404 20.7831 66.5009 21.0263 66.5014H47.2086C47.4518 66.5009 47.6849 66.404 47.8569 66.2321C48.0289 66.0601 48.1257 65.827 48.1262 65.5837V60.6454C48.1257 60.4022 48.0289 60.1691 47.8569 59.9971C47.6849 59.8251 47.4518 59.7283 47.2086 59.7278L21.0263 59.7259Z" fill="#E0E0E0"/>
<path d="M26.9648 61.8026H22.665V65.1697H26.9648V61.8026Z" fill="#00C802"/>
<path d="M29.5399 63.8288L29.2646 63.4412L28.9912 63.8288H28.7739L29.1485 63.3082L28.7908 62.8101H29.0043L29.2646 63.1715L29.5211 62.8101H29.7271L29.3694 63.3026L29.744 63.8288H29.5399Z" fill="#263238"/>
<path d="M30.5262 63.8288L30.249 63.4412L29.9756 63.8288H29.7603L30.1348 63.3082L29.7771 62.8101H29.9906L30.2509 63.1715L30.5075 62.8101H30.7135L30.3576 63.3026L30.7322 63.8288H30.5262Z" fill="#263238"/>
<path d="M31.5115 63.8288L31.2344 63.4412L30.961 63.8288H30.7456L31.1201 63.3082L30.7625 62.8101H30.9759L31.2363 63.1715L31.4947 62.8101H31.6988L31.343 63.3026L31.7175 63.8288H31.5115Z" fill="#263238"/>
<path d="M32.9198 63.8288L32.6427 63.4412L32.3692 63.8288H32.1558L32.5303 63.3082L32.1726 62.8101H32.388L32.6483 63.1715L32.9048 62.8101H33.1108L32.7532 63.3026L33.1371 63.8288H32.9198Z" fill="#263238"/>
<path d="M33.9047 63.8288L33.6294 63.4412L33.356 63.8288H33.1406L33.5152 63.3082L33.1575 62.8101H33.371L33.6313 63.1715L33.8878 62.8101H34.0938L33.738 63.3026L34.1126 63.8288H33.9047Z" fill="#263238"/>
<path d="M34.8919 63.8288L34.6148 63.4412L34.3413 63.8288H34.126L34.5005 63.3082L34.1428 62.8101H34.3563L34.6166 63.1715L34.8751 62.8101H35.0792L34.7234 63.3026L35.0979 63.8288H34.8919Z" fill="#263238"/>
<path d="M36.3006 63.8288L36.0234 63.4412L35.75 63.8288H35.5347L35.9092 63.3082L35.5515 62.8101H35.765L36.0253 63.1715L36.2837 62.8101H36.4879L36.1321 63.3026L36.5066 63.8288H36.3006Z" fill="#263238"/>
<path d="M37.2851 63.8288L37.0135 63.4412L36.7364 63.8288H36.521L36.8955 63.3082L36.5378 62.8101H36.7532L37.0135 63.1715L37.2701 62.8101H37.4761L37.1184 63.3026L37.5023 63.8288H37.2851Z" fill="#263238"/>
<path d="M38.2699 63.8288L37.9946 63.4412L37.7212 63.8288H37.5059L37.8804 63.3082L37.5227 62.8101H37.7362L37.9965 63.1715L38.2531 62.8101H38.4591L38.1033 63.3026L38.4778 63.8288H38.2699Z" fill="#263238"/>
<path d="M39.3167 62.8101V63.8288H39.1294V62.9692H38.9141V62.8101H39.3167Z" fill="#263238"/>
<path d="M40.2572 63.6679V63.8289H39.5082V63.7016L39.9127 63.3177C40.0119 63.224 40.0288 63.1641 40.0288 63.1061C40.0288 63.0143 39.9651 62.96 39.8415 62.96C39.7962 62.9576 39.751 62.966 39.7096 62.9845C39.6683 63.0031 39.6319 63.0313 39.6037 63.0667L39.4707 62.9637C39.5179 62.9076 39.5774 62.8631 39.6447 62.8338C39.712 62.8046 39.7851 62.7914 39.8584 62.7952C40.0793 62.7952 40.2217 62.9076 40.2217 63.0873C40.2201 63.1503 40.2041 63.2121 40.1748 63.268C40.1456 63.3238 40.104 63.3722 40.0531 63.4094L39.7797 63.6679H40.2572Z" fill="#263238"/>
<path d="M41.0883 63.5236C41.0883 63.694 40.9591 63.8438 40.6857 63.8438C40.5485 63.8457 40.4142 63.8045 40.3018 63.7258L40.3842 63.5779C40.4689 63.6446 40.574 63.6803 40.6819 63.679C40.8168 63.679 40.8973 63.6191 40.8973 63.5236C40.8973 63.4281 40.8299 63.3737 40.6763 63.3737H40.5827V63.2445L40.8149 62.9692H40.3523V62.8101H41.0452V62.9374L40.798 63.2314C40.8363 63.2314 40.8742 63.239 40.9095 63.2537C40.9449 63.2684 40.977 63.2899 41.0039 63.3171C41.0309 63.3442 41.0523 63.3765 41.0667 63.4119C41.0812 63.4473 41.0885 63.4853 41.0883 63.5236V63.5236Z" fill="#263238"/>
<path d="M42.1185 63.5966H41.9312V63.8288H41.7439V63.5966H41.1821V63.4655L41.684 62.8101H41.8863L41.4125 63.4374H41.7458V63.2314H41.9237V63.4374H42.111L42.1185 63.5966Z" fill="#263238"/>
<path d="M45.6656 63.7052C45.6524 63.7051 45.6395 63.7022 45.6275 63.6967C45.6156 63.6912 45.6049 63.6833 45.5963 63.6734L44.9558 62.9655C44.9467 62.9566 44.9395 62.9459 44.9347 62.9341C44.9299 62.9223 44.9275 62.9096 44.9278 62.8968C44.928 62.8841 44.9309 62.8715 44.9362 62.8599C44.9415 62.8483 44.9491 62.8378 44.9585 62.8293C44.968 62.8207 44.9791 62.8142 44.9912 62.8101C45.0033 62.8059 45.0161 62.8043 45.0288 62.8053C45.0415 62.8064 45.0539 62.81 45.0652 62.8159C45.0764 62.8219 45.0864 62.8301 45.0944 62.8401L45.6656 63.4712L46.2386 62.8401C46.2556 62.8233 46.2784 62.8138 46.3023 62.8133C46.3262 62.8128 46.3493 62.8215 46.367 62.8375C46.3847 62.8535 46.3956 62.8757 46.3975 62.8995C46.3994 62.9233 46.3921 62.9469 46.3772 62.9655L45.7348 63.6734C45.7264 63.6836 45.7158 63.6917 45.7038 63.6972C45.6918 63.7027 45.6788 63.7055 45.6656 63.7052V63.7052Z" fill="#E0E0E0"/>
<path d="M22.7305 75.4789C22.7296 75.4063 22.7437 75.3343 22.772 75.2675C22.8003 75.2006 22.8422 75.1404 22.895 75.0906C22.9478 75.0407 23.0104 75.0024 23.0788 74.9781C23.1472 74.9537 23.2199 74.9438 23.2923 74.949C23.3686 74.946 23.4445 74.96 23.5148 74.9897C23.585 75.0195 23.6478 75.0644 23.6987 75.1213L23.5751 75.2374C23.5406 75.1986 23.4981 75.1677 23.4507 75.1467C23.4032 75.1257 23.3517 75.1151 23.2998 75.1156C23.25 75.1121 23.2001 75.1188 23.153 75.1354C23.1059 75.152 23.0628 75.1781 23.0262 75.2121C22.9897 75.2461 22.9606 75.2872 22.9407 75.333C22.9207 75.3787 22.9104 75.4281 22.9104 75.478C22.9104 75.5279 22.9207 75.5773 22.9407 75.623C22.9606 75.6688 22.9897 75.71 23.0262 75.744C23.0628 75.778 23.1059 75.8041 23.153 75.8207C23.2001 75.8372 23.25 75.844 23.2998 75.8404C23.3518 75.8414 23.4034 75.8311 23.451 75.8101C23.4985 75.789 23.5409 75.7578 23.5751 75.7187L23.6987 75.8366C23.6226 75.9132 23.526 75.9662 23.4205 75.9893C23.315 76.0124 23.2052 76.0046 23.104 75.9668C23.0029 75.9291 22.9147 75.863 22.8501 75.7765C22.7856 75.69 22.7473 75.5867 22.7399 75.4789H22.7305Z" fill="#E0E0E0"/>
<path d="M24.5208 75.7542H24.0058L23.9046 76.0014H23.708L24.1724 74.9714H24.3597L24.826 76.0014H24.6256L24.5208 75.7542ZM24.4571 75.6044L24.2698 75.155L24.0825 75.6044H24.4571Z" fill="#E0E0E0"/>
<path d="M25.8712 74.964V76.0015H25.712L25.1502 75.3029V76.0015H24.9629V74.9715H25.1202L25.682 75.6681V74.9715L25.8712 74.964Z" fill="#E0E0E0"/>
<path d="M26.0733 75.4791C26.0803 75.371 26.1185 75.2672 26.1832 75.1803C26.2479 75.0934 26.3363 75.0271 26.4378 74.9893C26.5394 74.9515 26.6496 74.9438 26.7554 74.9673C26.8612 74.9907 26.9579 75.0442 27.034 75.1214L26.9104 75.2375C26.8754 75.1993 26.8329 75.1687 26.7855 75.1477C26.7381 75.1268 26.6869 75.1159 26.6351 75.1158C26.5853 75.1122 26.5353 75.1189 26.4882 75.1355C26.4412 75.1521 26.398 75.1782 26.3615 75.2122C26.325 75.2462 26.2958 75.2873 26.2759 75.3331C26.256 75.3788 26.2457 75.4282 26.2457 75.4781C26.2457 75.528 26.256 75.5774 26.2759 75.6232C26.2958 75.6689 26.325 75.7101 26.3615 75.7441C26.398 75.7781 26.4412 75.8042 26.4882 75.8208C26.5353 75.8374 26.5853 75.8441 26.6351 75.8405C26.687 75.8412 26.7385 75.8307 26.786 75.8097C26.8335 75.7886 26.8759 75.7576 26.9104 75.7188L27.034 75.8367C26.982 75.8933 26.9185 75.9379 26.8477 75.9677C26.7769 75.9974 26.7006 76.0115 26.6238 76.009C26.5524 76.0124 26.481 76.0011 26.4141 75.9759C26.3472 75.9507 26.2861 75.9121 26.2345 75.8625C26.183 75.8129 26.1421 75.7533 26.1144 75.6874C26.0867 75.6215 26.0727 75.5506 26.0733 75.4791V75.4791Z" fill="#E0E0E0"/>
<path d="M27.9907 75.8329V76.0014H27.2173V74.9714H27.9664V75.1306H27.4046V75.3984H27.9027V75.5557H27.4046V75.8404L27.9907 75.8329Z" fill="#E0E0E0"/>
<path d="M28.2119 74.964H28.3992V75.8311H28.9366V76.0015H28.2119V74.964Z" fill="#E0E0E0"/>
<path d="M46.3207 72.4808H34.298C33.5647 72.4808 32.9702 73.0753 32.9702 73.8086V77.3461C32.9702 78.0794 33.5647 78.6739 34.298 78.6739H46.3207C47.054 78.6739 47.6485 78.0794 47.6485 77.3461V73.8086C47.6485 73.0753 47.054 72.4808 46.3207 72.4808Z" fill="#00C802"/>
<path d="M37.3379 75.0483H36.9634V74.8779H37.9147V75.054H37.5402V75.9903H37.3304L37.3379 75.0483Z" fill="white"/>
<path d="M37.9782 75.4396C37.9726 75.3189 38.0032 75.1994 38.0662 75.0963C38.1292 74.9932 38.2216 74.9113 38.3315 74.8612C38.4414 74.811 38.5638 74.795 38.6829 74.815C38.802 74.8351 38.9124 74.8904 38.9999 74.9738C39.0873 75.0571 39.1477 75.1648 39.1735 75.2828C39.1992 75.4008 39.1889 75.5239 39.1441 75.636C39.0993 75.7482 39.0219 75.8444 38.9219 75.9122C38.8219 75.98 38.7039 76.0163 38.5831 76.0164C38.5049 76.0205 38.4268 76.0086 38.3534 75.9814C38.28 75.9542 38.213 75.9123 38.1564 75.8583C38.0997 75.8043 38.0547 75.7394 38.0241 75.6674C37.9934 75.5954 37.9778 75.5179 37.9782 75.4396V75.4396ZM38.9782 75.4396C38.9782 75.3615 38.955 75.2851 38.9116 75.2201C38.8682 75.1551 38.8065 75.1045 38.7343 75.0746C38.6621 75.0446 38.5826 75.0368 38.506 75.0521C38.4293 75.0673 38.3589 75.1049 38.3037 75.1602C38.2484 75.2155 38.2108 75.2859 38.1955 75.3625C38.1803 75.4392 38.1881 75.5186 38.218 75.5908C38.2479 75.663 38.2986 75.7247 38.3635 75.7682C38.4285 75.8116 38.5049 75.8348 38.5831 75.8348C38.6358 75.8377 38.6885 75.8296 38.7378 75.8108C38.787 75.792 38.8318 75.763 38.8691 75.7257C38.9064 75.6884 38.9354 75.6436 38.9542 75.5943C38.973 75.545 38.9812 75.4923 38.9782 75.4396Z" fill="white"/>
<path d="M40.3469 75.2712C40.3469 75.5184 40.1596 75.6701 39.8694 75.6701H39.6166V76.0016H39.4087V74.8779H39.8694C40.1653 74.8779 40.3469 75.0221 40.3469 75.2712ZM40.1372 75.2712C40.1372 75.1289 40.0435 75.0483 39.86 75.0483H39.6166V75.4941H39.86C40.0435 75.4941 40.1372 75.4117 40.1372 75.2712Z" fill="white"/>
<path d="M41.0044 75.5053V74.8779H41.2122V75.5015C41.2122 75.7338 41.3171 75.833 41.4988 75.833C41.6804 75.833 41.7815 75.7338 41.7815 75.5015V74.8779H41.9875V75.5109C41.9917 75.578 41.982 75.6453 41.9592 75.7085C41.9364 75.7717 41.9008 75.8296 41.8548 75.8786C41.8087 75.9276 41.7531 75.9666 41.6914 75.9933C41.6297 76.02 41.5632 76.0338 41.4959 76.0338C41.4287 76.0338 41.3622 76.02 41.3005 75.9933C41.2388 75.9666 41.1832 75.9276 41.1371 75.8786C41.091 75.8296 41.0555 75.7717 41.0327 75.7085C41.0099 75.6453 41.0002 75.578 41.0044 75.5109V75.5053Z" fill="white"/>
<path d="M43.2179 75.2712C43.2179 75.5184 43.0307 75.6701 42.7404 75.6701H42.4857V76.0016H42.2778V74.8779H42.7404C43.0344 74.8779 43.2179 75.0221 43.2179 75.2712ZM43.0082 75.2712C43.0082 75.1289 42.9127 75.0483 42.731 75.0483H42.4857V75.4941H42.731C42.9127 75.4941 43.0063 75.4117 43.0063 75.2712H43.0082Z" fill="white"/>
<path d="M49.6148 70.2992C49.6148 70.3273 42.5416 70.3479 33.8186 70.3479C25.0955 70.3479 18.0186 70.3273 18.0186 70.2992C18.0186 70.2711 25.0918 70.2505 33.8186 70.2505C42.5454 70.2505 49.6148 70.273 49.6148 70.2992Z" fill="#E0E0E0"/>
</svg>
