<svg width="50" height="50" viewBox="0 0 50 50" fill="none" xmlns="http://www.w3.org/2000/svg">
<g filter="url(#filter0_i_10700_47999)">
<path d="M40 0H10C4.47715 0 0 4.47715 0 10V40C0 45.5228 4.47715 50 10 50H40C45.5228 50 50 45.5228 50 40V10C50 4.47715 45.5228 0 40 0Z" fill="#1D2124"/>
</g>
<path d="M32.5 25L28 15L27.5 14.5L26 20L28 25L23.5 29.5L22 35.5L32.5 25Z" fill="#00C802"/>
<path d="M33.1699 24.7841L27.9525 13.306C27.8618 13.1051 27.6536 12.9835 27.4355 13.0018C27.2164 13.0195 27.0317 13.1735 26.9743 13.3858L25.6037 18.4555L23.2679 13.3065C23.1771 13.1062 22.9747 12.9856 22.7514 13.0018C22.5322 13.0195 22.3476 13.1724 22.2896 13.3842L16.0184 36.3405C15.9563 36.569 16.0549 36.8106 16.26 36.929C16.3408 36.977 16.4316 37 16.5214 37C16.6565 37 16.79 36.9478 16.8907 36.8471L22.0183 31.7195L20.7688 36.3421C20.7072 36.5706 20.8069 36.8117 21.0114 36.9301C21.0928 36.977 21.183 37 21.2723 37C21.4079 37 21.542 36.9473 21.6422 36.8466L33.0655 25.3685C33.2179 25.2146 33.2601 24.9819 33.1699 24.7841ZM22.9147 15.0543L27.375 24.8869L17.5429 34.719L22.9147 15.0543ZM22.2881 34.7174L23.499 30.2383L28.3684 25.369C28.5218 25.2156 28.5645 24.9824 28.4748 24.7846L26.2647 19.9122L26.2893 19.919L27.6035 15.0585L32.0716 24.8879L22.2881 34.7174Z" fill="white"/>
<defs>
<filter id="filter0_i_10700_47999" x="0" y="0" width="50" height="55" filterUnits="userSpaceOnUse" color-interpolation-filters="sRGB">
<feFlood flood-opacity="0" result="BackgroundImageFix"/>
<feBlend mode="normal" in="SourceGraphic" in2="BackgroundImageFix" result="shape"/>
<feColorMatrix in="SourceAlpha" type="matrix" values="0 0 0 0 0 0 0 0 0 0 0 0 0 0 0 0 0 0 127 0" result="hardAlpha"/>
<feOffset dy="5"/>
<feGaussianBlur stdDeviation="7.5"/>
<feComposite in2="hardAlpha" operator="arithmetic" k2="-1" k3="1"/>
<feColorMatrix type="matrix" values="0 0 0 0 0 0 0 0 0 0 0 0 0 0 0 0 0 0 0.05 0"/>
<feBlend mode="normal" in2="shape" result="effect1_innerShadow_10700_47999"/>
</filter>
</defs>
</svg>
