<svg width="28" height="28" viewBox="0 0 28 28" fill="none" xmlns="http://www.w3.org/2000/svg">
<path d="M14 24C19.5228 24 24 19.5228 24 14C24 8.47715 19.5228 4 14 4C8.47715 4 4 8.47715 4 14C4 19.5228 8.47715 24 14 24Z" stroke="white" stroke-linecap="round" stroke-linejoin="round"/>
<path d="M14.7708 19C14.7708 19.4257 14.4257 19.7708 14 19.7708C13.5742 19.7708 13.2291 19.4257 13.2291 19C13.2291 18.5743 13.5742 18.2292 14 18.2292C14.4257 18.2292 14.7708 18.5743 14.7708 19Z" fill="#00C802" stroke="#00C802" stroke-width="0.125"/>
<path d="M14 16.5V14.8333C14.5769 14.8333 15.1408 14.6623 15.6205 14.3418C16.1001 14.0213 16.4739 13.5658 16.6947 13.0328C16.9154 12.4999 16.9732 11.9134 16.8607 11.3477C16.7481 10.7819 16.4703 10.2622 16.0624 9.85427C15.6545 9.44637 15.1348 9.16858 14.5691 9.05604C14.0033 8.9435 13.4168 9.00126 12.8839 9.22202C12.3509 9.44277 11.8954 9.81661 11.5749 10.2963C11.2544 10.7759 11.0834 11.3398 11.0834 11.9167" stroke="#00C802" stroke-linecap="round" stroke-linejoin="round"/>
</svg>
