<svg width="31" height="18" viewBox="0 0 31 18" fill="none" xmlns="http://www.w3.org/2000/svg">
<path d="M7.46002 4.662H1.30002V6.006H5.13602L0.544023 14H7.34802V12.656H2.86802L7.46002 4.662Z" fill="#00C802"/>
<path fill-rule="evenodd" clip-rule="evenodd" d="M11.6001 8.49949C11.324 8.49949 11.1001 8.72335 11.1001 8.99949C11.1001 9.27563 11.324 9.49949 11.6001 9.49949L18.1887 9.49949L16.1251 11.5449C15.9289 11.7393 15.9275 12.0559 16.1219 12.252C16.3163 12.4481 16.6329 12.4495 16.829 12.2551L19.7554 9.35466C19.8501 9.26076 19.9034 9.13291 19.9034 8.99954C19.9034 8.86616 19.8501 8.73831 19.7554 8.64442L16.829 5.74393C16.6329 5.54954 16.3163 5.55094 16.1219 5.74707C15.9275 5.9432 15.9289 6.25978 16.1251 6.45417L18.1886 8.49949L11.6001 8.49949Z" fill="#00C802"/>
<path d="M28.9943 14H30.5343L26.1103 4.116L21.4623 14H23.0023L24.0243 11.746H28.0143L28.9943 14ZM24.6123 10.402L26.0543 7.238L27.4403 10.402H24.6123Z" fill="#00C802"/>
</svg>
